<svg xmlns="http://www.w3.org/2000/svg" width="34.555" height="66.555" viewBox="0 0 34.555 66.555"><g transform="translate(0 0)"><rect width="34.542" height="10.072" transform="translate(0 13.375)" fill="#1a1311"/><path d="M20.933,0l-3.9,9.086h8.988L29.921,0Z" transform="translate(-10.515)" fill="#1a1311"/><rect width="34.542" height="10.072" transform="translate(0 28.996)" fill="#1a1311"/><rect width="34.542" height="10.072" transform="translate(0 44.616)" fill="#1a1311"/><path d="M32.411,156.219v5.892H30.05v-5.892h-.881v6.772h4.123v-6.772Z" transform="translate(-18.006 -96.436)" fill="#1a1311"/><path d="M54.482,157.1h2.361v2.037H54.482Zm-.881-.882v6.772h.881V160.02h2.362v2.971h.881v-6.772Z" transform="translate(-33.089 -96.436)" fill="#1a1311"/><path d="M80.4,157.1h2.361v2.037H80.4Zm-.881-.882v6.772H80.4V160.02h2.361v2.971h.881v-6.772Z" transform="translate(-49.089 -96.436)" fill="#1a1311"/><path d="M67.441,157.1H69.8v2.037H67.441Zm-.881-.882v6.772h.881V160.02h1.8l.8,2.971h.932l-.8-2.97h.511v-3.8Z" transform="translate(-41.088 -96.436)" fill="#1a1311"/><path d="M3.243,156.219,2.06,159.677.885,156.219H0v6.772H.882V158.8l.737,2.168H2.5l.744-2.174v4.2h.881v-6.772Z" transform="translate(0 -96.436)" fill="#1a1311"/><rect width="0.881" height="6.772" transform="translate(4.905 59.783)" fill="#1a1311"/><path d="M44.9,156.219l-2.3,3.27v-3.27h-.881v6.772H42.6v-2.162l.836-1.193,1.52,3.355h.932L44,158.828l1.828-2.609Z" transform="translate(-25.755 -96.436)" fill="#1a1311"/><path d="M16.758,156.218v.881h2.775l-2.777,5.891H20.88v-.881H18.1l2.774-5.885,0,0Z" transform="translate(-10.344 -96.436)" fill="#1a1311"/></g></svg>