<svg width="24" height="24" viewBox="0 0 24 24" fill="none" xmlns="http://www.w3.org/2000/svg">
<mask id="mask0_1046_7517" style="mask-type:alpha" maskUnits="userSpaceOnUse" x="0" y="0" width="24" height="24">
<rect width="24" height="24" fill="#D9D9D9"/>
</mask>
<g mask="url(#mask0_1046_7517)">
<path d="M15.2988 16.7L16.6988 15.3L12.9988 11.6V6.99998H10.9988V12.4L15.2988 16.7ZM11.9988 22C10.6154 22 9.31544 21.7373 8.09878 21.212C6.88211 20.6873 5.82378 19.975 4.92378 19.075C4.02378 18.175 3.31145 17.1166 2.78678 15.9C2.26145 14.6833 1.99878 13.3833 1.99878 12C1.99878 10.6166 2.26145 9.31665 2.78678 8.09998C3.31145 6.88331 4.02378 5.82498 4.92378 4.92498C5.82378 4.02498 6.88211 3.31231 8.09878 2.78698C9.31544 2.26231 10.6154 1.99998 11.9988 1.99998C13.3821 1.99998 14.6821 2.26231 15.8988 2.78698C17.1154 3.31231 18.1738 4.02498 19.0738 4.92498C19.9738 5.82498 20.6861 6.88331 21.2108 8.09998C21.7361 9.31665 21.9988 10.6166 21.9988 12C21.9988 13.3833 21.7361 14.6833 21.2108 15.9C20.6861 17.1166 19.9738 18.175 19.0738 19.075C18.1738 19.975 17.1154 20.6873 15.8988 21.212C14.6821 21.7373 13.3821 22 11.9988 22Z" fill="#121212"/>
</g>
</svg>
