<svg width="24" height="24" viewBox="0 0 24 24" fill="none" xmlns="http://www.w3.org/2000/svg">
<mask id="mask0_1046_7527" style="mask-type:alpha" maskUnits="userSpaceOnUse" x="0" y="0" width="24" height="24">
<rect width="24" height="24" fill="#D9D9D9"/>
</mask>
<g mask="url(#mask0_1046_7527)">
<path d="M11.9976 12C10.8976 12 9.95589 11.6083 9.17256 10.825C8.38923 10.0417 7.99756 9.10001 7.99756 8.00001C7.99756 6.9 8.38923 5.95834 9.17256 5.175C9.95589 4.39167 10.8976 4 11.9976 4C13.0976 4 14.0392 4.39167 14.8226 5.175C15.6059 5.95834 15.9976 6.9 15.9976 8.00001C15.9976 9.10001 15.6059 10.0417 14.8226 10.825C14.0392 11.6083 13.0976 12 11.9976 12ZM3.99756 20V17.2C3.99756 16.6333 4.14356 16.1123 4.43556 15.637C4.72689 15.1623 5.11423 14.8 5.59756 14.55C6.63089 14.0333 7.68089 13.6457 8.74756 13.387C9.81423 13.129 10.8976 13 11.9976 13C13.0976 13 14.1809 13.129 15.2476 13.387C16.3142 13.6457 17.3642 14.0333 18.3976 14.55C18.8809 14.8 19.2682 15.1623 19.5596 15.637C19.8516 16.1123 19.9976 16.6333 19.9976 17.2V20H3.99756Z" fill="#121212"/>
</g>
</svg>
