<svg width="90" height="90" viewBox="0 0 90 90" fill="none" xmlns="http://www.w3.org/2000/svg">
<g clip-path="url(#clip0_1095_6634)">
<path d="M37.548 71.8574C56.4814 71.8574 71.8299 56.503 71.8299 37.5624C71.8299 18.6217 56.4814 3.26733 37.548 3.26733C18.6146 3.26733 3.26611 18.6217 3.26611 37.5624C3.26611 56.503 18.6146 71.8574 37.548 71.8574Z" fill="black" stroke="black" stroke-width="5.67" stroke-miterlimit="10"/>
<path d="M37.7319 17.947C30.8663 17.947 25.2542 23.3311 24.8862 30.0958H31.5218C31.8783 26.9896 34.5233 24.5621 37.7319 24.5621C41.1819 24.5621 43.9879 27.3577 43.9879 30.8091C43.9879 32.9144 42.9184 34.8702 41.1704 36.0206L40.8254 36.2392C38.2954 37.7118 36.3289 40.0242 35.2823 42.7508C34.9373 43.6597 34.6843 44.626 34.5578 45.5924V47.2951H41.3544V46.3057C41.3544 46.3057 41.2969 44.419 42.3434 43.2915C43.0564 42.5207 44.2639 41.888 44.2639 41.888C48.1855 39.5871 50.612 35.3419 50.612 30.8091C50.612 23.7223 44.839 17.9585 37.7434 17.9585L37.7319 17.947Z" fill="white"/>
<path d="M41.343 51.8049H34.5464V57.166H41.343V51.8049Z" fill="white"/>
<path d="M89.9999 85.3867L70.7947 66.1741C69.3686 67.8192 67.8391 69.3608 66.1831 70.7874L85.3883 90L89.9999 85.3867Z" fill="black"/>
</g>
<defs>
<clipPath id="clip0_1095_6634">
<rect width="90" height="90" fill="white"/>
</clipPath>
</defs>
</svg>
