<svg width="72" height="90" viewBox="0 0 72 90" fill="none" xmlns="http://www.w3.org/2000/svg">
<g clip-path="url(#clip0_1095_6651)">
<path d="M37.5144 3.08887C0.599166 3.08887 3.12701 48.3945 3.12701 48.3945H12.2796V72.1223H37.5035V86.9004H68.8837V31.7391C68.8837 31.7391 70.42 3.08887 37.5035 3.08887H37.5144Z" fill="black"/>
<path d="M71.9783 90H34.4311V75.2219H9.19625V51.4941H0.207143L0.0437044 48.569C-0.010775 47.5758 -1.15484 24.2081 12.1054 10.1613C18.4686 3.4162 27.0219 0 37.5146 0C48.9008 0 57.7374 3.24157 63.7846 9.62649C72.2725 18.5981 72.0437 30.5166 71.9892 31.8045V89.9891L71.9783 90ZM40.5982 83.8115H65.8004V31.5753C65.8004 31.4771 66.2144 21.163 59.241 13.8394C54.4142 8.76425 47.0921 6.18846 37.5037 6.18846C28.7761 6.18846 21.7374 8.96071 16.5837 14.4179C7.65993 23.8698 6.33063 38.9862 6.18898 45.3056H15.3633V69.0335H40.5873V83.8115H40.5982Z" fill="black"/>
<path d="M39.65 34.1403C39.3776 33.8128 38.9745 33.6273 38.5495 33.6164H35.4551L38.5169 19.253C38.6476 18.6637 38.3861 18.0634 37.8849 17.7359C34.9321 15.8478 31.3909 15.0838 27.9152 15.5967C24.4394 16.1097 21.2687 17.856 18.9805 20.5191C16.6924 23.1822 15.4394 26.5875 15.4503 30.1019C15.4503 40.929 25.8994 49.4422 34.8449 53.4587C35.0302 53.546 35.2263 53.5897 35.4333 53.5788C35.6621 53.5788 35.8909 53.5242 36.098 53.4151C36.4902 53.2077 36.7626 52.8366 36.8389 52.4L39.9551 35.319C40.0314 34.9043 39.9224 34.4677 39.65 34.1403Z" fill="white" stroke="black" stroke-width="4.25" stroke-miterlimit="10"/>
<path d="M46.863 15.4438C44.8364 15.4438 42.8207 15.8695 40.9684 16.7099C40.5543 16.8955 40.2492 17.2665 40.1512 17.714L37.2855 31.106C37.1984 31.5316 37.2964 31.9791 37.5688 32.3175C37.8412 32.6558 38.2553 32.8523 38.6911 32.8523H41.5676L38.0592 52.7055C37.9829 53.1203 38.1027 53.5569 38.3751 53.8843C38.6475 54.2117 39.0507 54.3973 39.4756 54.3973C39.6282 54.3973 39.7916 54.3755 39.9332 54.3209C44.4877 52.771 61.4853 44.1268 61.4853 30.1019C61.4853 26.2163 59.9381 22.4945 57.1923 19.7441C54.4466 16.9937 50.7311 15.4548 46.8521 15.4438H46.863Z" fill="white" stroke="black" stroke-width="4.25" stroke-miterlimit="10"/>
</g>
<defs>
<clipPath id="clip0_1095_6651">
<rect width="72" height="90" fill="white"/>
</clipPath>
</defs>
</svg>
