<svg width="93" height="85" viewBox="0 0 93 85" fill="none" xmlns="http://www.w3.org/2000/svg">
<g clip-path="url(#clip0_1095_6643)">
<path d="M93.0002 11.064H11.0596V69.8868H93.0002V11.064Z" fill="black"/>
<path d="M30.0376 66.4624H47.5142L28.9844 85.0001L30.0376 66.4624Z" fill="black"/>
<path d="M52.0296 44.9783C54.518 44.9783 56.5353 42.9602 56.5353 40.4707C56.5353 37.9812 54.518 35.9631 52.0296 35.9631C49.5412 35.9631 47.5239 37.9812 47.5239 40.4707C47.5239 42.9602 49.5412 44.9783 52.0296 44.9783Z" fill="white"/>
<path d="M36.8841 44.9783C39.3725 44.9783 41.3897 42.9602 41.3897 40.4707C41.3897 37.9812 39.3725 35.9631 36.8841 35.9631C34.3957 35.9631 32.3784 37.9812 32.3784 40.4707C32.3784 42.9602 34.3957 44.9783 36.8841 44.9783Z" fill="white"/>
<path d="M67.1756 44.9783C69.664 44.9783 71.6812 42.9602 71.6812 40.4707C71.6812 37.9812 69.664 35.9631 67.1756 35.9631C64.6872 35.9631 62.6699 37.9812 62.6699 40.4707C62.6699 42.9602 64.6872 44.9783 67.1756 44.9783Z" fill="white"/>
<path d="M2.75977 61.5939V2.76123H84.7004" stroke="black" stroke-width="5.67" stroke-miterlimit="10"/>
</g>
<defs>
<clipPath id="clip0_1095_6643">
<rect width="93" height="85" fill="white"/>
</clipPath>
</defs>
</svg>
