<svg width="99" height="27" fill="none" xmlns="http://www.w3.org/2000/svg"><path d="M.72.816h2.72l3.232 6.928L9.92.816h2.704V12h-2.64V6.384L7.312 12h-1.28L3.376 6.384V12H.72V.816zm13.984 0h7.936V3.2h-5.104v2.096h3.728V7.52h-3.728v2.096h5.104V12h-7.936V.816zM26.998 3.2h-3.152V.816h9.152V3.2H29.83V12h-2.832V3.2zM34.515.816h2.832v4.32h4.384V.816h2.832V12h-2.832V7.488h-4.384V12h-2.832V.816zm17.82 11.424c-1.13 0-2.154-.245-3.072-.736a5.615 5.615 0 01-2.16-2.048c-.522-.885-.784-1.899-.784-3.04s.262-2.155.784-3.04a5.578 5.578 0 012.16-2.064c.918-.49 1.942-.736 3.072-.736 1.12 0 2.134.245 3.04.736a5.437 5.437 0 012.16 2.064c.523.885.784 1.899.784 3.04s-.261 2.155-.784 3.04a5.471 5.471 0 01-2.16 2.048c-.906.49-1.92.736-3.04.736zm0-2.656c.566 0 1.083-.128 1.552-.384a2.85 2.85 0 001.12-1.104c.278-.48.416-1.04.416-1.68 0-.64-.138-1.195-.416-1.664a2.75 2.75 0 00-1.104-1.104 3.114 3.114 0 00-1.568-.4 3.15 3.15 0 00-1.584.4 2.863 2.863 0 00-1.12 1.104c-.266.47-.4 1.024-.4 1.664 0 .64.134 1.2.4 1.68.278.48.651.848 1.12 1.104.48.256 1.008.384 1.584.384zM60.076.816h4.016c1.227 0 2.299.224 3.216.672.918.448 1.622 1.093 2.112 1.936.502.832.752 1.808.752 2.928 0 1.856-.544 3.264-1.632 4.224-1.088.95-2.597 1.424-4.528 1.424h-3.936V.816zm4.176 8.8c.97 0 1.712-.293 2.224-.88.523-.587.784-1.381.784-2.384 0-.917-.261-1.67-.784-2.256-.512-.597-1.221-.896-2.128-.896h-1.44v6.416h1.344zm18.593 2.624c-1.035 0-1.942-.23-2.72-.688-.78-.47-1.382-1.141-1.808-2.016-.416-.875-.624-1.915-.624-3.12s.207-2.245.624-3.12c.416-.875 1.008-1.547 1.776-2.016.778-.47 1.695-.704 2.751-.704 1.056 0 1.969.235 2.737.704.778.47 1.376 1.141 1.791 2.016.416.875.624 1.915.624 3.12s-.213 2.245-.64 3.12c-.415.875-1.013 1.547-1.791 2.016-.78.459-1.686.688-2.72.688zm0-2.656c.714 0 1.269-.277 1.663-.832.395-.555.593-1.323.593-2.304 0-.992-.198-1.77-.593-2.336-.383-.576-.938-.864-1.663-.864-.726 0-1.286.288-1.68.864-.385.565-.577 1.344-.577 2.336 0 .981.198 1.75.593 2.304.394.555.949.832 1.663.832zm6.597.8l1.776-1.616.768-.688a33.19 33.19 0 001.44-1.328c.341-.33.618-.667.832-1.008.224-.341.336-.677.336-1.008 0-.992-.56-1.488-1.68-1.488a4.74 4.74 0 00-1.616.288 5.545 5.545 0 00-1.456.8V1.632c.48-.33 1.04-.587 1.68-.768A7.092 7.092 0 0193.57.576c.832 0 1.552.155 2.16.464.608.31 1.072.736 1.392 1.28.32.544.48 1.157.48 1.84 0 .821-.192 1.541-.576 2.16-.373.608-.981 1.296-1.824 2.064L93.778 9.68h4.176V12h-8.512v-1.616zM0 23l99-5v4L0 27v-4z" fill="#18AD7D"/></svg>