<svg width="96" height="28" fill="none" xmlns="http://www.w3.org/2000/svg"><path d="M.72 1.186h5.024c1.312 0 2.336.33 3.072.992.747.661 1.12 1.61 1.12 2.848 0 .832-.181 1.541-.544 2.128a3.309 3.309 0 01-1.536 1.312L9.84 12.37H6.928L5.152 8.866h-1.6v3.504H.72V1.186zm4.528 5.296c.565 0 1.003-.107 1.312-.32.31-.224.464-.603.464-1.136 0-.555-.155-.934-.464-1.136-.299-.214-.736-.32-1.312-.32H3.552v2.912h1.696zm6.456-5.296h7.936V3.57h-5.104v2.096h3.728V7.89h-3.728v2.096h5.104v2.384h-7.936V1.186zm13.862 0h2.784l4.464 11.184h-2.896l-.896-2.304h-4.128l-.896 2.304h-2.912l4.48-11.184zm2.752 6.704l-1.36-3.76-1.376 3.76h2.736zm9.029 4.72c-.704 0-1.403-.07-2.096-.208-.694-.128-1.264-.31-1.712-.544V9.314a7.917 7.917 0 001.792.672c.63.149 1.226.224 1.792.224.522 0 .917-.08 1.184-.24.266-.16.4-.39.4-.688a.814.814 0 00-.224-.576c-.139-.171-.347-.326-.624-.464a23.08 23.08 0 00-1.296-.576c-1.035-.438-1.787-.923-2.256-1.456-.47-.534-.704-1.19-.704-1.968 0-.64.176-1.211.528-1.712.362-.502.864-.891 1.504-1.168.64-.278 1.376-.416 2.208-.416.682 0 1.29.053 1.824.16a6.5 6.5 0 011.536.512v2.48c-.939-.491-1.883-.736-2.832-.736-.512 0-.923.085-1.232.256-.299.16-.448.394-.448.704 0 .309.154.56.464.752.31.192.88.453 1.712.784.757.309 1.344.613 1.76.912.426.298.736.645.928 1.04.192.394.288.896.288 1.504 0 1.034-.379 1.845-1.136 2.432-.747.576-1.867.864-3.36.864zm11.957 0c-1.13 0-2.154-.246-3.072-.736a5.615 5.615 0 01-2.16-2.048c-.523-.886-.784-1.899-.784-3.04 0-1.142.262-2.155.784-3.04a5.58 5.58 0 012.16-2.064c.918-.491 1.941-.736 3.072-.736 1.12 0 2.133.245 3.04.736a5.436 5.436 0 012.16 2.064c.523.885.784 1.898.784 3.04 0 1.141-.261 2.154-.784 3.04a5.47 5.47 0 01-2.16 2.048c-.907.49-1.92.736-3.04.736zm0-2.656c.566 0 1.083-.128 1.552-.384a2.85 2.85 0 001.12-1.104c.278-.48.416-1.04.416-1.68 0-.64-.139-1.195-.416-1.664a2.749 2.749 0 00-1.104-1.104c-.47-.267-.992-.4-1.568-.4a3.15 3.15 0 00-1.584.4 2.85 2.85 0 00-1.12 1.104c-.267.469-.4 1.024-.4 1.664 0 .64.133 1.2.4 1.68.277.48.65.848 1.12 1.104.48.256 1.008.384 1.584.384zm7.741-8.768h2.8l4.112 6.656V1.186h2.832V12.37h-2.784l-4.128-6.672v6.672h-2.832V1.186zM79.782 12.61c-1.035 0-1.941-.23-2.72-.688-.779-.47-1.381-1.142-1.808-2.016-.416-.875-.624-1.915-.624-3.12 0-1.206.208-2.246.624-3.12.416-.875 1.008-1.547 1.776-2.016.779-.47 1.696-.704 2.752-.704 1.056 0 1.968.234 2.736.704.779.469 1.376 1.141 1.792 2.016.416.874.624 1.914.624 3.12 0 1.205-.213 2.245-.64 3.12-.416.874-1.013 1.546-1.792 2.016-.779.458-1.685.688-2.72.688zm0-2.656c.715 0 1.27-.278 1.664-.832.395-.555.592-1.323.592-2.304 0-.992-.197-1.771-.592-2.336-.384-.576-.939-.864-1.664-.864s-1.285.288-1.68.864c-.384.565-.576 1.344-.576 2.336 0 .981.197 1.749.592 2.304.395.554.95.832 1.664.832zm10.277 2.656c-.704 0-1.381-.059-2.032-.176-.64-.118-1.189-.294-1.648-.528v-2.24c1.078.49 2.166.736 3.264.736 1.483 0 2.224-.443 2.224-1.328 0-.448-.181-.768-.544-.96-.362-.203-.928-.304-1.696-.304h-1.552V5.65h1.488c.63 0 1.115-.107 1.456-.32.352-.214.528-.528.528-.944 0-.395-.154-.699-.464-.912-.309-.214-.746-.32-1.312-.32-1.162 0-2.218.298-3.168.896V1.762a6.517 6.517 0 011.648-.592 8.153 8.153 0 011.92-.224c1.462 0 2.539.293 3.232.88.694.576 1.04 1.392 1.04 2.448 0 .48-.117.933-.352 1.36a2.97 2.97 0 01-1.008 1.088c1.12.49 1.68 1.322 1.68 2.496 0 1.077-.368 1.914-1.104 2.512-.736.586-1.936.88-3.6.88zM0 23.37l96-5v4l-96 5v-4z" fill="#18AD7D"/></svg>