<svg width="50" height="50" viewBox="0 0 50 50" fill="none" xmlns="http://www.w3.org/2000/svg">
<circle cx="25" cy="25" r="25" fill="#121212"/>
<path d="M37.297 18.7205C37.0018 17.5709 36.1321 16.6654 35.0278 16.3582C33.0262 15.7998 25 15.7998 25 15.7998C25 15.7998 16.9738 15.7998 14.9722 16.3582C13.8679 16.6655 12.9982 17.5709 12.703 18.7205C12.1667 20.8043 12.1667 25.152 12.1667 25.152C12.1667 25.152 12.1667 29.4997 12.703 31.5835C12.9982 32.7331 13.8679 33.6009 14.9722 33.9081C16.9738 34.4665 25 34.4665 25 34.4665C25 34.4665 33.0261 34.4665 35.0278 33.9081C36.1321 33.6009 37.0018 32.7331 37.297 31.5835C37.8333 29.4997 37.8333 25.152 37.8333 25.152C37.8333 25.152 37.8333 20.8043 37.297 18.7205ZM22.375 29.0994V21.2046L29.0833 25.1521L22.375 29.0994Z" fill="white"/>
</svg>
