<svg width="26" height="20" viewBox="0 0 26 20" fill="none" xmlns="http://www.w3.org/2000/svg">
<path d="M25.2965 3.72051C25.0013 2.57085 24.1316 1.66542 23.0273 1.35815C21.0257 0.799805 12.9995 0.799805 12.9995 0.799805C12.9995 0.799805 4.97335 0.799805 2.9717 1.35815C1.86741 1.66547 0.997686 2.57085 0.702498 3.72051C0.166168 5.80432 0.166168 10.152 0.166168 10.152C0.166168 10.152 0.166168 14.4997 0.702498 16.5835C0.997686 17.7331 1.86741 18.6009 2.9717 18.9081C4.97335 19.4665 12.9995 19.4665 12.9995 19.4665C12.9995 19.4665 21.0257 19.4665 23.0273 18.9081C24.1316 18.6009 25.0013 17.7331 25.2965 16.5835C25.8328 14.4997 25.8328 10.152 25.8328 10.152C25.8328 10.152 25.8328 5.80432 25.2965 3.72051ZM10.3745 14.0994V6.20463L17.0828 10.1521L10.3745 14.0994Z" fill="white"/>
</svg>
