<svg width="21" height="22" viewBox="0 0 21 22" fill="none" xmlns="http://www.w3.org/2000/svg">
<g clip-path="url(#clip0_1611_8872)">
<path fill-rule="evenodd" clip-rule="evenodd" d="M7.71526 7.45426V5.77149C7.71526 5.46489 7.73217 5.36309 7.78047 5.20511C7.91089 4.77213 8.35045 4.45032 8.87092 4.45032C9.39139 4.45032 9.83095 4.78032 9.96137 5.20511C10.0097 5.36191 10.0266 5.46489 10.0266 5.77149V8.36585C10.0266 8.52266 10.0266 8.68064 9.99397 8.82223C9.90461 9.21543 9.53871 9.56883 9.13176 9.65543C8.98564 9.68702 8.82262 9.68702 8.65959 9.68702H5.97392C5.65633 9.68702 5.55127 9.67181 5.38824 9.62383C4.94868 9.49862 4.60694 9.07383 4.60694 8.57064C4.60694 8.06745 4.94868 7.64266 5.38824 7.51745C5.55127 7.47064 5.65633 7.45426 5.97392 7.45426H7.71526ZM17.2854 19.2172H2.8813V6.95809C2.8813 6.80128 2.93805 6.6667 3.05277 6.5567L6.78783 2.94777C6.90135 2.83777 7.04022 2.78277 7.20324 2.78277H17.2866V19.2161L17.2854 19.2172ZM18.9216 0.0152128C18.848 0.00702128 18.7502 0 18.563 0H6.81923C6.68881 0 6.55839 0.00819149 6.46903 0.0152128C5.93166 0.0620213 5.45225 0.306596 5.06944 0.675213L0.700399 4.89851C0.317595 5.2683 0.0652096 5.7317 0.0169062 6.25128C0.00845309 6.33787 0 6.46309 0 6.58947V20.4518C0 20.6332 0.00845309 20.7268 0.0169062 20.7982C0.0821158 21.388 0.63519 21.9228 1.24623 21.9848C1.31989 21.993 1.4177 22.0012 1.60488 22.0012H18.5654C18.7526 22.0012 18.8504 21.993 18.9241 21.9848C19.5339 21.9216 20.0882 21.3868 20.1534 20.7982C20.1618 20.728 20.1691 20.6332 20.1691 20.4518V1.54936C20.1691 1.36798 20.1606 1.27436 20.1534 1.20298C20.0882 0.613191 19.5351 0.0784043 18.9241 0.0152128H18.9216Z" fill="#121212"/>
</g>
<defs>
<clipPath id="clip0_1611_8872">
<rect width="20.1667" height="22" fill="white"/>
</clipPath>
</defs>
</svg>
