<svg width="24" height="24" viewBox="0 0 24 24" fill="none" xmlns="http://www.w3.org/2000/svg">
<path d="M22.5403 6.61772C22.2873 5.6323 21.5418 4.85622 20.5953 4.59284C18.8796 4.11426 12 4.11426 12 4.11426C12 4.11426 5.12044 4.11426 3.40474 4.59284C2.45821 4.85626 1.71273 5.6323 1.45971 6.61772C1 8.40384 1 12.1304 1 12.1304C1 12.1304 1 15.857 1.45971 17.6431C1.71273 18.6285 2.45821 19.3723 3.40474 19.6357C5.12044 20.1143 12 20.1143 12 20.1143C12 20.1143 18.8796 20.1143 20.5953 19.6357C21.5418 19.3723 22.2873 18.6285 22.5403 17.6431C23 15.857 23 12.1304 23 12.1304C23 12.1304 23 8.40384 22.5403 6.61772ZM9.74998 15.5139V8.74697L15.5 12.1305L9.74998 15.5139Z" fill="#121212"/>
</svg>
