<svg width="50" height="50" viewBox="0 0 50 50" fill="none" xmlns="http://www.w3.org/2000/svg">
<circle cx="25" cy="25" r="25" fill="#121212"/>
<path d="M20.8047 37C31.3703 37 37.1429 28.1543 37.1429 20.4763C37.1429 20.2286 37.1429 19.9692 37.1312 19.7215C38.2507 18.8959 39.2303 17.8816 40 16.714C38.9504 17.1857 37.8426 17.4924 36.6997 17.6221C37.9009 16.8909 38.7988 15.7586 39.2187 14.4141C38.0875 15.0864 36.863 15.5699 35.5685 15.8294C33.3994 13.4941 29.7609 13.3762 27.4402 15.5817C25.9475 16.997 25.3178 19.1082 25.7843 21.125C21.1662 20.8891 16.863 18.6836 13.9475 15.0628C12.4198 17.7165 13.2012 21.1132 15.7201 22.8116C14.8105 22.788 13.9125 22.5403 13.1195 22.0921V22.1629C13.1195 24.9227 15.0437 27.3052 17.7259 27.8595C16.8863 28.0954 15.9883 28.1308 15.137 27.9538C15.895 30.3245 18.0408 31.9403 20.5015 31.9875C18.4723 33.6033 15.9534 34.476 13.3644 34.476C12.9096 34.476 12.4548 34.4525 12 34.3935C14.6239 36.0918 17.6793 37 20.8047 37Z" fill="white"/>
</svg>
