<svg width="28" height="23" viewBox="0 0 28 23" fill="none" xmlns="http://www.w3.org/2000/svg">
<path d="M8.80418 23C19.3698 23 25.1424 14.1543 25.1424 6.47631C25.1424 6.22863 25.1424 5.96916 25.1307 5.72148C26.2502 4.89588 27.2298 3.88158 27.9995 2.71395C26.9499 3.18572 25.8421 3.49237 24.6992 3.62211C25.9004 2.89087 26.7983 1.75862 27.2182 0.414082C26.087 1.08635 24.8625 1.56992 23.568 1.82939C21.3989 -0.505866 17.7604 -0.623809 15.4397 1.58171C13.947 2.99701 13.3173 5.10818 13.7838 7.12499C9.16569 6.88911 4.86249 4.68359 1.94703 1.06276C0.419337 3.71646 1.20068 7.1132 3.71963 8.81156C2.81001 8.78797 1.91205 8.5403 1.11905 8.09212V8.16288C1.11905 10.9227 3.04324 13.3052 5.72546 13.8595C4.88581 14.0954 3.98785 14.1308 3.13654 13.9538C3.89456 16.3245 6.04033 17.9403 8.50097 17.9875C6.47181 19.6033 3.95286 20.476 1.36394 20.476C0.909133 20.476 0.454322 20.4525 -0.000488281 20.3935C2.62342 22.0918 5.67881 23 8.80418 23Z" fill="white"/>
</svg>
