<svg width="50" height="50" viewBox="0 0 50 50" fill="none" xmlns="http://www.w3.org/2000/svg">
<circle cx="25" cy="25" r="25" fill="#121212"/>
<path d="M34.54 17.4892C34.3628 17.3976 34.1903 17.2973 34.0232 17.1884C33.5372 16.8671 33.0915 16.4885 32.6959 16.0608C31.7061 14.9282 31.3364 13.7792 31.2002 12.9748H31.2057C31.0919 12.307 31.139 11.875 31.1461 11.875H26.6376V29.3083C26.6376 29.5423 26.6376 29.7737 26.6278 30.0023C26.6278 30.0307 26.6251 30.057 26.6234 30.0876C26.6234 30.1002 26.6234 30.1133 26.6207 30.1264C26.6207 30.1297 26.6207 30.133 26.6207 30.1363C26.5732 30.7618 26.3727 31.366 26.0368 31.8958C25.7009 32.4256 25.24 32.8648 24.6946 33.1747C24.1261 33.4981 23.4832 33.6677 22.8292 33.6669C20.7287 33.6669 19.0262 31.9541 19.0262 29.8388C19.0262 27.7234 20.7287 26.0106 22.8292 26.0106C23.2268 26.0103 23.622 26.0728 24.0001 26.196L24.0055 21.6055C22.8578 21.4573 21.6919 21.5485 20.5812 21.8734C19.4705 22.1983 18.4392 22.7499 17.5524 23.4934C16.7753 24.1685 16.122 24.9741 15.6219 25.8739C15.4316 26.202 14.7136 27.5205 14.6266 29.6605C14.5719 30.8751 14.9367 32.1334 15.1106 32.6535V32.6645C15.22 32.9707 15.6438 34.0158 16.3345 34.8968C16.8915 35.6035 17.5495 36.2243 18.2874 36.7392V36.7283L18.2983 36.7392C20.4809 38.2223 22.9008 38.125 22.9008 38.125C23.3197 38.108 24.723 38.125 26.3166 37.3698C28.0841 36.5325 29.0904 35.2851 29.0904 35.2851C29.7332 34.5397 30.2444 33.6903 30.6019 32.7733C31.0099 31.7009 31.1461 30.4146 31.1461 29.9005V20.6518C31.2008 20.6846 31.9292 21.1664 31.9292 21.1664C31.9292 21.1664 32.9787 21.8391 34.616 22.2771C35.7907 22.5888 37.3733 22.6545 37.3733 22.6545V18.1788C36.8188 18.239 35.6928 18.064 34.54 17.4892Z" fill="white"/>
</svg>
