<svg width="24" height="24" viewBox="0 0 24 24" fill="none" xmlns="http://www.w3.org/2000/svg">
<path d="M7.91795 21C16.2195 21 20.7551 14.0773 20.7551 8.06841C20.7551 7.87458 20.7551 7.67151 20.7459 7.47768C21.6256 6.83156 22.3953 6.03776 23 5.12396C22.1753 5.49317 21.3049 5.73316 20.4069 5.83469C21.3507 5.26242 22.0562 4.37631 22.3861 3.32406C21.4973 3.85019 20.5352 4.22863 19.5181 4.43169C17.8138 2.6041 14.955 2.5118 13.1316 4.23786C11.9588 5.34549 11.464 6.99771 11.8305 8.57608C8.202 8.39147 4.82091 6.66542 2.5302 3.83173C1.32986 5.90854 1.94377 8.56685 3.92295 9.89601C3.20825 9.87754 2.50271 9.68371 1.87963 9.33296V9.38834C1.87963 11.5482 3.3915 13.4127 5.49896 13.8466C4.83923 14.0312 4.13369 14.0588 3.46481 13.9204C4.06039 15.7757 5.74636 17.0402 7.67972 17.0771C6.08538 18.3417 4.10621 19.0247 2.07205 19.0247C1.7147 19.0247 1.35735 19.0063 1 18.9601C3.06164 20.2893 5.46231 21 7.91795 21Z" fill="#121212"/>
</svg>
