<svg width="50" height="50" viewBox="0 0 50 50" fill="none" xmlns="http://www.w3.org/2000/svg">
<circle cx="25" cy="25" r="25" fill="#121212"/>
<g clip-path="url(#clip0_1577_10571)">
<path d="M36.6762 22.6965C38.5058 22.6965 39.9891 21.2132 39.9891 19.3836C39.9891 17.5539 38.5058 16.0707 36.6762 16.0707C34.8465 16.0707 33.3633 17.5539 33.3633 19.3836C33.3633 21.2132 34.8465 22.6965 36.6762 22.6965Z" fill="white"/>
<path fill-rule="evenodd" clip-rule="evenodd" d="M23.2584 28.8878C23.0596 28.757 22.4891 28.0007 20.9282 24.2613C20.83 24.0258 20.7384 23.8243 20.6521 23.6503L20.3328 22.8783L17.5852 16.2525H12.0898L14.8375 22.8783L17.5852 29.5041L20.1235 35.6261C20.1408 35.6675 20.17 35.7029 20.2074 35.7278C20.2447 35.7526 20.2886 35.7659 20.3335 35.7659C20.3784 35.7659 20.4222 35.7526 20.4596 35.7278C20.497 35.7029 20.5262 35.6675 20.5435 35.6261L23.3016 29.0239C23.3108 28.9997 23.3115 28.9731 23.3037 28.9484C23.2958 28.9237 23.2799 28.9023 23.2584 28.8878Z" fill="white"/>
<path fill-rule="evenodd" clip-rule="evenodd" d="M33.5462 28.8878C33.3473 28.757 32.7768 27.9994 31.2159 24.26C31.1177 24.0258 31.0262 23.8243 30.9398 23.6503L30.6206 22.8783L27.8729 16.2525H22.3867L25.1344 22.8783L27.882 29.5041L30.4112 35.6261C30.4285 35.6675 30.4577 35.7029 30.4951 35.7278C30.5324 35.7526 30.5763 35.7659 30.6212 35.7659C30.6661 35.7659 30.71 35.7526 30.7473 35.7278C30.7847 35.7029 30.8139 35.6675 30.8312 35.6261L33.5906 29.0239C33.5997 28.9995 33.6002 28.9728 33.5921 28.9481C33.584 28.9234 33.5678 28.9022 33.5462 28.8878Z" fill="white"/>
</g>
<defs>
<clipPath id="clip0_1577_10571">
<rect width="28" height="19.8878" fill="white" transform="translate(12 16)"/>
</clipPath>
</defs>
</svg>
