<svg width="19" height="19" viewBox="0 0 19 19" fill="none" xmlns="http://www.w3.org/2000/svg">
<g clip-path="url(#clip0_1587_9768)">
<path d="M16.5 19H2.5C1.1 19 0 17.9 0 16.5V2.5C0 1.1 1.1 0 2.5 0H16.5C17.9 0 19 1.1 19 2.5V16.5C19 17.9 17.9 19 16.5 19ZM2.5 1C1.7 1 1 1.7 1 2.5V16.5C1 17.3 1.7 18 2.5 18H16.5C17.3 18 18 17.3 18 16.5V2.5C18 1.7 17.3 1 16.5 1H2.5Z" fill="#121212"/>
<path d="M4.10078 14.8C4.20078 14.5 4.70078 14 5.80078 13.3C4.80078 14.9 4.30078 15 4.30078 15C4.30078 15 4.20078 15 4.20078 14.9C4.00078 14.8 4.00078 14.8 4.10078 14.8ZM8.10078 10.2C8.40078 9.6 8.60078 9.1 8.80078 8.5C9.00078 8.9 9.30078 9.3 9.50078 9.6C9.80078 10 10.2008 10.4 10.6008 10.8H10.5008C10.1008 10.9 9.60078 11 9.20078 11.1C8.60078 11.3 7.90078 11.5 7.30078 11.8C7.60078 11.3 7.90078 10.8 8.10078 10.2ZM8.60078 4.2C8.60078 4.1 8.70078 4 8.80078 4C8.90078 4 9.00078 4.1 9.00078 4.1C9.20078 4.4 9.20078 5.2 8.80078 6.7C8.40078 5.5 8.30078 4.5 8.60078 4.2ZM13.3008 11.2C14.5008 11.2 14.9008 11.5 14.9008 11.6C15.0008 11.7 15.0008 11.7 15.0008 11.7C15.0008 11.7 14.9008 11.8 14.6008 11.8C14.1008 11.8 13.4008 11.6 12.6008 11.2C12.8008 11.2 13.0008 11.2 13.3008 11.2ZM4.20078 15.6C4.60078 15.6 5.40078 15.3 6.80078 12.8C7.60078 12.4 8.50078 12.1 9.40078 11.8C10.1008 11.6 10.7008 11.5 11.3008 11.3C12.3008 11.9 13.6008 12.4 14.4008 12.4C15.4008 12.4 15.5008 11.9 15.5008 11.7C15.5008 11.5 15.4008 11.3 15.3008 11.1C15.0008 10.7 14.2008 10.6 13.2008 10.6C12.7008 10.6 12.1008 10.6 11.5008 10.7C10.9008 10.3 10.4008 9.8 10.0008 9.3C9.70078 8.8 9.40078 8.3 9.10078 7.7C9.80078 5.7 9.90078 4.4 9.50078 3.8C9.40078 3.5 9.10078 3.4 8.80078 3.4C8.50078 3.4 8.20078 3.6 8.00078 3.8C7.50078 4.7 7.90078 6.4 8.50078 7.7C8.20078 8.4 7.90078 9.2 7.50078 10C7.10078 10.9 6.70078 11.6 6.30078 12.3C5.20078 12.8 3.50078 13.8 3.30078 14.7C3.30078 15 3.30078 15.2 3.50078 15.4C3.80078 15.5 4.00078 15.6 4.20078 15.6Z" fill="#121212"/>
</g>
<defs>
<clipPath id="clip0_1587_9768">
<rect width="19" height="19" fill="white"/>
</clipPath>
</defs>
</svg>
