<svg xmlns="http://www.w3.org/2000/svg" width="671.563" height="131.613" viewBox="0 0 671.563 131.613"><g transform="translate(-144.438 -42.659)"><path d="M207.417,17.048V131.564H161.537V17.048H144.411V148.658h80.13V17.048Z" transform="translate(216.965 25.613)" fill="#fff"/><path d="M234.152,34.2h45.889V73.8H234.152ZM217.028,17.048v131.61h17.124V90.922h45.889v57.736h17.127V17.048Z" transform="translate(326.066 25.613)" fill="#fff"/><path d="M311.184,34.2h45.889V73.8H311.184ZM294.06,17.048v131.61h17.124V90.922h45.889v57.736H374.2V17.048Z" transform="translate(441.801 25.613)" fill="#fff"/><path d="M272.669,34.2h45.889V73.8H272.669ZM255.543,17.048v131.61h17.126V90.922h34.984l15.612,57.736h18.105l-15.61-57.728h9.922V17.048Z" transform="translate(383.932 25.613)" fill="#fff"/><path d="M120.732,17.048,97.75,84.263,74.91,17.048H57.719V148.658H74.843V67.247L89.159,109.38h17.127l14.446-42.253v81.531h17.124V17.048Z" transform="translate(86.719 25.613)" fill="#fff"/><rect width="17.127" height="131.61" transform="translate(239.764 42.662)" fill="#fff"/><path d="M243.506,17.048,198.84,80.595V17.048H181.719V148.658H198.84V106.637l16.243-23.182,29.544,65.2h18.1l-36.653-80.9,35.532-50.714Z" transform="translate(273.018 25.613)" fill="#fff"/><path d="M107.549,17.047V34.174h53.937L107.521,148.659l80.142-.013V131.523H133.7L187.621,17.137l.068-.09Z" transform="translate(161.541 25.611)" fill="#fff"/></g></svg>