<svg width="320" height="180" viewBox="0 0 320 180" fill="none" xmlns="http://www.w3.org/2000/svg">
<rect width="320" height="180" fill="#F0F0F0"/>
<g clip-path="url(#clip0_1634_19305)">
<path d="M197.34 88.1144H188.818V92.8846H197.34V88.1144Z" fill="#D0D0D0"/>
<path d="M115.249 84.0061C117.501 84.0061 119.527 84.6669 121.441 86.0283L122.066 86.4719L124.216 80.5356L123.781 80.2904C121.05 78.7485 118.25 78 115.222 78C107.436 78 102 83.134 102 90.4855C102 93.7866 103.156 96.8424 105.255 99.088C107.647 101.646 111.112 102.999 115.277 102.999C118.297 102.999 121.18 102.4 123.843 101.217L124.193 101.062V88.1144H113.116V92.8846H117.899L117.901 96.5544C117.309 96.7757 116.531 96.9919 115.193 96.9919C113.6 96.9919 108.404 96.5285 108.404 90.5693C108.404 87.3958 110.203 84.0051 115.249 84.0051V84.0061Z" fill="#D0D0D0"/>
<path d="M138.901 84.0061C141.671 84.0061 143.6 85.8519 144.399 88.1144H151.009C149.975 82.21 145.12 78 138.901 78C132.682 78 127.852 82.21 126.82 88.1144H133.402C134.201 85.8519 136.13 84.0061 138.9 84.0061H138.901Z" fill="#D0D0D0"/>
<path d="M138.901 103C145.112 103 149.963 98.791 151.005 92.8856H126.824C127.865 98.791 132.705 103 138.901 103Z" fill="#D0D0D0"/>
<path d="M167.977 102.546H175.006L171.553 92.8846H164.895L167.977 102.546Z" fill="#D0D0D0"/>
<path d="M150.543 102.546H157.571L160.653 92.8846H153.996L150.543 102.546Z" fill="#D0D0D0"/>
<path d="M166.395 78.4545H159.156L155.703 88.1144H169.848L166.395 78.4545Z" fill="#D0D0D0"/>
<path d="M183.389 92.8846H176.984V102.546H191.015V96.5385H183.389V92.8846Z" fill="#D0D0D0"/>
<path d="M183.389 78.4545H176.984V88.1144H183.389V78.4545Z" fill="#D0D0D0"/>
<path d="M216.131 89.8198C217.054 89.0084 218.323 87.6081 218.323 84.937C218.323 82.2658 216.824 80.0841 214.41 79.1143C213.62 78.7964 212.249 78.4166 210.21 78.4166H201.273V102.583H209.974C215.962 102.583 218.999 100.213 218.999 95.5388C218.999 92.1341 217.195 90.5503 216.13 89.8198H216.131ZM207.001 83.6801H210.005C212.26 83.6801 212.596 84.924 212.596 85.6645C212.596 85.7463 212.57 87.6779 210.24 87.6779H207.001V83.6791V83.6801ZM210.24 97.3189H207.001V92.4759H210.534C211.357 92.4759 213.273 92.7141 213.273 94.9268C213.273 97.1395 211.542 97.3189 210.24 97.3189Z" fill="#D0D0D0"/>
<path d="M197.34 88.1144H188.818V92.8846H197.34V88.1144Z" fill="#D0D0D0"/>
<path d="M115.249 84.0061C117.501 84.0061 119.527 84.6669 121.441 86.0283L122.066 86.4719L124.216 80.5356L123.781 80.2904C121.05 78.7485 118.25 78 115.222 78C107.436 78 102 83.134 102 90.4855C102 93.7866 103.156 96.8424 105.255 99.088C107.647 101.646 111.112 102.999 115.277 102.999C118.297 102.999 121.18 102.4 123.843 101.217L124.193 101.062V88.1144H113.116V92.8846H117.899L117.901 96.5544C117.309 96.7757 116.531 96.9919 115.193 96.9919C113.6 96.9919 108.404 96.5285 108.404 90.5693C108.404 87.3958 110.203 84.0051 115.249 84.0051V84.0061Z" fill="#D0D0D0"/>
<path d="M138.901 84.0061C141.671 84.0061 143.6 85.8519 144.399 88.1144H151.009C149.975 82.21 145.12 78 138.901 78C132.682 78 127.852 82.21 126.82 88.1144H133.402C134.201 85.8519 136.13 84.0061 138.9 84.0061H138.901Z" fill="#D0D0D0"/>
<path d="M138.901 103C145.112 103 149.963 98.791 151.005 92.8856H126.824C127.865 98.791 132.705 103 138.901 103Z" fill="#D0D0D0"/>
<path d="M167.977 102.546H175.006L171.553 92.8846H164.895L167.977 102.546Z" fill="#D0D0D0"/>
<path d="M150.543 102.546H157.571L160.653 92.8846H153.996L150.543 102.546Z" fill="#D0D0D0"/>
<path d="M166.395 78.4545H159.156L155.703 88.1144H169.848L166.395 78.4545Z" fill="#D0D0D0"/>
<path d="M183.389 92.8846H176.984V102.546H191.015V96.5385H183.389V92.8846Z" fill="#D0D0D0"/>
<path d="M183.389 78.4545H176.984V88.1144H183.389V78.4545Z" fill="#D0D0D0"/>
<path d="M216.131 89.8198C217.054 89.0084 218.323 87.6081 218.323 84.937C218.323 82.2658 216.824 80.0841 214.41 79.1143C213.62 78.7964 212.249 78.4166 210.21 78.4166H201.273V102.583H209.974C215.962 102.583 218.999 100.213 218.999 95.5388C218.999 92.1341 217.195 90.5503 216.13 89.8198H216.131ZM207.001 83.6801H210.005C212.26 83.6801 212.596 84.924 212.596 85.6645C212.596 85.7463 212.57 87.6779 210.24 87.6779H207.001V83.6791V83.6801ZM210.24 97.3189H207.001V92.4759H210.534C211.357 92.4759 213.273 92.7141 213.273 94.9268C213.273 97.1395 211.542 97.3189 210.24 97.3189Z" fill="#D0D0D0"/>
</g>
<defs>
<clipPath id="clip0_1634_19305">
<rect width="117" height="25" fill="white" transform="translate(102 78)"/>
</clipPath>
</defs>
</svg>
