<svg width="112" height="112" viewBox="0 0 112 112" fill="none" xmlns="http://www.w3.org/2000/svg">
<circle cx="56" cy="56" r="56" fill="white"/>
<path d="M35.4971 76.5095V57.5786" stroke="#C2A255" stroke-width="1.54496" stroke-linecap="round" stroke-linejoin="round"/>
<path d="M46.5333 73.5354V64.8167L41.1697 61.2891L41.0049 75.7731" stroke="#C2A255" stroke-width="1.54496" stroke-linecap="round" stroke-linejoin="round"/>
<path d="M43.5923 39.881C43.5923 39.881 51.3325 36.6032 55.2284 34.9449C56.4541 34.4222 57.8729 34.9552 58.4599 36.1654C59.0625 37.4091 58.5398 38.9051 57.2935 39.5025L45.5518 45.1365C44.8411 45.4764 44.0738 45.6772 43.291 45.7261L43.5974 54.0483L50.2923 59.7673C51.3145 60.7457 51.8655 62.1182 51.8063 63.5318L51.4381 71.2695" stroke="#C2A255" stroke-width="1.54496" stroke-linecap="round" stroke-linejoin="round"/>
<path d="M34.6243 44.2557V52.9358C34.6243 54.3777 33.4553 55.5468 32.0133 55.5468C30.5714 55.5468 29.4023 54.3777 29.4023 52.9358V43.6145C29.4023 41.552 31.0735 39.8809 33.136 39.8809H43.5954" stroke="#C2A255" stroke-width="1.54496" stroke-linecap="round" stroke-linejoin="round"/>
<path d="M37.8916 36.8887C40.3461 36.8887 42.3359 34.8989 42.3359 32.4443C42.3359 29.9898 40.3461 28 37.8916 28C35.4371 28 33.4473 29.9898 33.4473 32.4443C33.4473 34.8989 35.4371 36.8887 37.8916 36.8887Z" stroke="#C2A255" stroke-width="1.54496" stroke-linecap="round" stroke-linejoin="round"/>
<path d="M83.4371 42.723L91.409 68.1325L82.8191 63.6444L82.7083 63.8581C73.1991 82.0603 50.7354 89.1079 32.5332 79.5986H32.8757C48.2532 79.7042 61.8849 69.7675 66.5043 55.1213L57.8705 50.6126L83.28 42.6406" stroke="#C2A255" stroke-width="1.54496" stroke-linecap="round" stroke-linejoin="round"/>
</svg>
