<svg width="112" height="112" viewBox="0 0 112 112" fill="none" xmlns="http://www.w3.org/2000/svg">
<circle cx="56" cy="56" r="56" fill="white"/>
<path d="M82.105 55.8932C78.466 62.8048 76.4196 68.0645 77.5189 74.6942L79.5287 86.812C79.5005 88.5794 78.0601 90 76.2927 90H55.9583C54.1712 90 52.7224 88.5512 52.7224 86.7641V82.4768C52.7224 80.7827 51.2341 79.4748 49.5541 79.6919L45.0892 80.2697C40.5764 80.856 36.5766 77.341 36.5766 72.7916V66.6974C36.5766 65.0428 36.8895 63.8618 35.0151 63.6307L33.1209 63.3911C30.2655 63.3911 28.4248 60.3665 29.7327 57.8297L33.1378 51.1803C34.2484 49.0098 34.3837 46.4617 33.476 44.2011C33.3182 43.8064 33.2195 43.4654 33.228 43.2483C33.927 29.1659 46.7833 20.4672 61.1617 21.0253C63.1518 21.1015 65.0854 21.4087 66.943 21.9161C67.2333 21.9809 67.5236 22.0485 67.8111 22.1218C79.1594 25.0505 86.1386 36.4467 84.1627 47.9979C83.6356 51.0844 82.9281 54.3316 82.105 55.8932Z" stroke="#C2A255" stroke-width="1.69125" stroke-linecap="round" stroke-linejoin="round"/>
<path d="M47.8408 48.4233L47.2883 51.7213L44.0581 50.3514" stroke="#C2A255" stroke-width="1.55031" stroke-linecap="round" stroke-linejoin="round"/>
<path d="M46.9893 36.4463C46.2536 37.7514 45.7011 39.1889 45.377 40.7336C44.5483 44.6601 45.3347 48.5556 47.2881 51.7211" stroke="#C2A255" stroke-width="1.55031" stroke-linecap="round" stroke-linejoin="round"/>
<path d="M64.623 56.0059L67.9209 56.5583L66.551 59.7886" stroke="#C2A255" stroke-width="1.55031" stroke-linecap="round" stroke-linejoin="round"/>
<path d="M52.6461 56.8569C53.9512 57.5926 55.3888 58.1451 56.9334 58.4692C60.8599 59.2979 64.7554 58.5115 67.9209 56.5581" stroke="#C2A255" stroke-width="1.55031" stroke-linecap="round" stroke-linejoin="round"/>
<path d="M72.2065 39.2227L72.759 35.9248L75.9893 37.2947" stroke="#C2A255" stroke-width="1.55031" stroke-linecap="round" stroke-linejoin="round"/>
<path d="M73.0578 51.1996C73.7935 49.8945 74.346 48.4569 74.6702 46.9123C75.4989 42.9858 74.7124 39.0903 72.7591 35.9248" stroke="#C2A255" stroke-width="1.55031" stroke-linecap="round" stroke-linejoin="round"/>
<path d="M55.4229 31.6407L52.1249 31.0882L53.492 27.8579" stroke="#C2A255" stroke-width="1.55031" stroke-linecap="round" stroke-linejoin="round"/>
<path d="M67.3994 30.7888C66.0943 30.0531 64.6568 29.5007 63.1121 29.1765C59.1856 28.3478 55.2901 29.1342 52.1246 31.0876" stroke="#C2A255" stroke-width="1.55031" stroke-linecap="round" stroke-linejoin="round"/>
</svg>
