<svg width="112" height="112" viewBox="0 0 112 112" fill="none" xmlns="http://www.w3.org/2000/svg">
<circle cx="56" cy="56" r="56" fill="white"/>
<path d="M39.5841 53.0312H30.9619" stroke="#C2A255" stroke-width="1.76806" stroke-linecap="round" stroke-linejoin="round"/>
<path d="M39.5832 41.8315H38.8848C38.3043 41.8315 37.7355 41.6517 37.2611 41.3158L30.9639 36.8691" stroke="#C2A255" stroke-width="1.76806" stroke-linecap="round" stroke-linejoin="round"/>
<path d="M73.3213 53.0312H81.9435" stroke="#C2A255" stroke-width="1.76806" stroke-linecap="round" stroke-linejoin="round"/>
<path d="M73.3213 41.8315H74.0197C74.6002 41.8315 75.1689 41.6517 75.6433 41.3158L81.9406 36.8691" stroke="#C2A255" stroke-width="1.76806" stroke-linecap="round" stroke-linejoin="round"/>
<path d="M55.7783 32.6136V29.3516" stroke="#C2A255" stroke-width="1.76806" stroke-linecap="round" stroke-linejoin="round"/>
<path d="M29.6014 55.8994C31.1849 54.3159 31.1849 51.7486 29.6014 50.1651C28.0179 48.5816 25.4506 48.5816 23.8671 50.1651C22.2837 51.7486 22.2837 54.3159 23.8671 55.8994C25.4506 57.4828 28.0179 57.4828 29.6014 55.8994Z" stroke="#C2A255" stroke-width="1.76806" stroke-linecap="round" stroke-linejoin="round"/>
<path d="M31.5291 35.1177C32.0435 32.9382 30.6937 30.7544 28.5142 30.2399C26.3347 29.7255 24.1509 31.0754 23.6365 33.2549C23.1221 35.4343 24.4719 37.6182 26.6514 38.1326C28.8309 38.647 31.0147 37.2972 31.5291 35.1177Z" stroke="#C2A255" stroke-width="1.76806" stroke-linecap="round" stroke-linejoin="round"/>
<path d="M57.3299 29.044C59.3989 28.1871 60.3813 25.8152 59.5244 23.7462C58.6674 21.6773 56.2955 20.6949 54.2266 21.5518C52.1577 22.4088 51.1752 24.7807 52.0322 26.8496C52.8891 28.9185 55.261 29.901 57.3299 29.044Z" stroke="#C2A255" stroke-width="1.76806" stroke-linecap="round" stroke-linejoin="round"/>
<path d="M88.8651 55.9013C90.4486 54.3178 90.4486 51.7505 88.8651 50.167C87.2816 48.5836 84.7143 48.5836 83.1308 50.167C81.5473 51.7505 81.5473 54.3178 83.1308 55.9013C84.7143 57.4848 87.2816 57.4848 88.8651 55.9013Z" stroke="#C2A255" stroke-width="1.76806" stroke-linecap="round" stroke-linejoin="round"/>
<path d="M88.9813 35.1177C89.4957 32.9382 88.1459 30.7544 85.9664 30.2399C83.7869 29.7255 81.603 31.0754 81.0886 33.2549C80.5742 35.4343 81.9241 37.6182 84.1035 38.1326C86.283 38.647 88.4669 37.2972 88.9813 35.1177Z" stroke="#C2A255" stroke-width="1.76806" stroke-linecap="round" stroke-linejoin="round"/>
<path d="M34.3496 91.9972V81.0146C34.3496 76.2349 38.0537 72.2745 42.8216 71.9533L44.0857 71.8708L44.958 71.8118C45.8155 71.7558 46.6524 71.5731 47.4539 71.2755C48.0874 71.0398 48.6945 70.7304 49.2602 70.3532H49.2632C50.5303 69.5045 51.2906 68.0783 51.2906 66.5548V65.6943" stroke="#C2A255" stroke-width="1.76806" stroke-linecap="round" stroke-linejoin="round"/>
<path d="M61.4414 66.1387V66.5601C61.4414 68.0806 62.2017 69.5068 63.4688 70.3525C64.0611 70.7474 64.6946 71.0657 65.3547 71.3044C65.4107 71.325 65.4667 71.3486 65.5227 71.3633C66.2476 71.6108 66.999 71.7611 67.7711 71.8141L69.9104 71.9526C74.6783 72.2738 78.3824 76.2343 78.3824 81.0169V91.9995" stroke="#C2A255" stroke-width="1.76806" stroke-linecap="round" stroke-linejoin="round"/>
<path d="M64.8305 71.0961C63.2982 73.4064 60.2306 74.9829 56.6974 74.9829C53.1643 74.9829 49.8845 73.2973 48.4111 70.8574" stroke="#C2A255" stroke-width="1.76806" stroke-linecap="round" stroke-linejoin="round"/>
<path d="M47.5225 60.04C49.2905 64.634 52.7353 67.7547 56.6957 67.7547C60.6562 67.7547 64.098 64.637 65.8661 60.04" stroke="#C2A255" stroke-width="1.76806" stroke-linecap="round" stroke-linejoin="round"/>
<path d="M47.5218 60.0397C46.4904 60.3492 45.2646 59.3148 44.7872 57.7265C44.3098 56.1382 44.7607 54.6 45.792 54.2906L47.4128 53.66L47.5689 52.2131C47.8312 49.7732 49.1926 47.5867 51.2612 46.2725C55.1303 48.0906 59.5092 48.5149 63.6553 47.4777L63.6936 47.4688C63.284 49.7261 64.1003 52.0275 65.8389 53.5245L65.9862 53.6512L67.5922 54.2877C68.6236 54.5971 69.0744 56.1382 68.5971 57.7236C68.1197 59.3119 66.8968 60.3462 65.8625 60.0368" stroke="#C2A255" stroke-width="1.76806" stroke-linecap="round" stroke-linejoin="round"/>
<path d="M44.4841 55.9612C44.045 54.4849 43.4497 51.7297 44.1511 48.4912C44.263 47.9725 46.1578 39.8778 53.1122 38.148C56.8281 37.2257 61.0979 38.3366 63.7353 41.136C64.4838 41.9317 64.9729 42.7302 65.2853 43.3196C65.3413 43.3461 65.4415 43.408 65.577 43.5023C67.8107 45.0641 69.0601 47.7604 68.8892 50.551C68.8008 52.0155 68.5444 54.2933 68.5444 55.2009" stroke="#C2A255" stroke-width="1.76806" stroke-linecap="round" stroke-linejoin="round"/>
<path d="M42.8223 82.2021V91.9972" stroke="#C2A255" stroke-width="1.76806" stroke-linecap="round" stroke-linejoin="round"/>
<path d="M69.9121 82.2021V91.9972" stroke="#C2A255" stroke-width="1.76806" stroke-linecap="round" stroke-linejoin="round"/>
</svg>
