<svg width="112" height="112" viewBox="0 0 112 112" fill="none" xmlns="http://www.w3.org/2000/svg">
<circle cx="56" cy="56" r="56" fill="white"/>
<path d="M49.7306 65.087C49.9914 68.9681 50.2496 72.8517 50.5104 76.7328C50.685 79.3531 50.8623 81.9734 51.0369 84.5937C51.1154 85.7811 50.999 87.214 51.3332 88.376C51.956 90.5356 55.1509 89.9178 56.8219 89.9178H60.9333C61.6321 89.9178 62.4675 90.0292 63.1435 89.809C64.8043 89.2748 64.6423 87.4013 64.7385 85.9988L65.217 78.8543C65.5233 74.2644 65.8322 69.677 66.1385 65.087C66.2043 64.1123 64.6853 64.1148 64.6195 65.087C64.3866 68.5504 64.1562 72.0137 63.9233 75.4771C63.7511 78.0594 63.5764 80.6417 63.4043 83.224C63.3106 84.6241 63.4524 86.3077 63.1055 87.6748C62.9511 88.2824 62.5764 88.3431 62.0397 88.3963C61.0245 88.4976 59.9434 88.3963 58.9232 88.3963H55.1332C54.4902 88.3963 53.6066 88.5912 53.08 88.1836C52.3661 87.6317 52.6243 85.6038 52.5686 84.7734L52.0876 77.6113C51.8091 73.4365 51.5281 69.2618 51.2496 65.087C51.1838 64.1174 49.6648 64.1098 49.7306 65.087Z" fill="#C2A255"/>
<path d="M50.4893 72.2943C47.874 72.2108 46.0892 70.2284 46.0234 67.6689C45.9829 66.1347 46.0234 64.5954 46.0234 63.0612C46.0234 61.7776 45.7803 60.1245 46.2132 58.8814C46.9981 56.6257 49.2462 56.5877 51.2159 56.2282C52.9982 55.9016 54.8007 55.4813 56.6134 55.3573C58.8641 55.2054 61.0135 55.5623 63.2085 55.9649C64.6541 56.2307 66.9655 56.2839 68.2086 57.0636C69.9327 58.1472 69.8466 59.9346 69.8466 61.6916C69.8466 63.5827 69.8567 65.4739 69.8466 67.3651C69.8339 70.0284 68.1959 72.2082 65.3807 72.2994C64.406 72.3297 64.4009 73.8513 65.3807 73.8184C68.3149 73.7247 70.8542 71.6766 71.2947 68.717C71.5377 67.0815 71.3656 65.3271 71.3656 63.6815C71.3656 62.0359 71.639 60.0637 71.1226 58.4814C70.6846 57.1396 69.677 56.0282 68.3909 55.451C67.5326 55.0661 66.6035 55.0484 65.6921 54.8813C63.6363 54.5041 61.5629 54.0231 59.4768 53.8585C56.8514 53.6509 54.3324 54.1218 51.7703 54.5902C49.6614 54.9775 47.269 54.9927 45.7525 56.7193C44.4031 58.2586 44.5069 60.1169 44.5069 62.0131C44.5069 63.9093 44.4562 65.8916 44.5069 67.8259C44.5955 71.1626 47.1677 73.7095 50.4918 73.8158C51.469 73.8462 51.469 72.3272 50.4918 72.2968L50.4893 72.2943Z" fill="#C2A255"/>
<path d="M63.1908 46.5777C63.1072 49.441 60.8591 51.8335 57.935 51.8335C55.0109 51.8335 52.6918 49.4435 52.6792 46.5777C52.6665 43.7118 55.0818 41.3219 57.935 41.3219C60.7882 41.3219 63.1098 43.7143 63.1908 46.5777C63.2186 47.5524 64.7376 47.5574 64.7098 46.5777C64.6288 43.7675 62.9857 41.2535 60.3224 40.2408C57.659 39.2282 54.5197 40.0662 52.7045 42.2789C48.7702 47.0713 53.1045 54.3525 59.1806 53.236C62.411 52.6436 64.6161 49.798 64.7098 46.5777C64.7376 45.6004 63.2186 45.6004 63.1908 46.5777Z" fill="#C2A255"/>
<path d="M58.6948 89.1563V74.8599C58.6948 73.8826 57.1758 73.8801 57.1758 74.8599V89.1563C57.1758 90.1335 58.6948 90.1361 58.6948 89.1563Z" fill="#C2A255"/>
<path d="M51.8628 39.7933V34.3553L51.1033 35.1148H55.2046C55.7287 35.1148 56.2224 34.4464 55.8603 33.973C53.4248 30.7704 50.9893 27.5653 48.5513 24.3627C48.1842 23.8791 47.607 23.8791 47.2399 24.3627C44.8044 27.5653 42.3689 30.7704 39.9334 33.973C39.5714 34.4489 40.0676 35.1148 40.5892 35.1148H44.6905L43.931 34.3553V50.6771C43.931 51.6543 45.45 51.6568 45.45 50.6771V34.3527C45.45 33.9426 45.1032 33.5932 44.6905 33.5932H40.5892L41.2449 34.735C43.6804 31.5324 46.1158 28.3273 48.5513 25.1247H47.2399C49.6754 28.3273 52.1109 31.5324 54.5489 34.735L55.2046 33.5932H51.1033C50.6931 33.5932 50.3438 33.9401 50.3438 34.3527V39.7908C50.3438 40.768 51.8628 40.7706 51.8628 39.7908V39.7933Z" fill="#C2A255"/>
<path d="M80.104 65.5609V49.239L79.3445 49.9985H83.4458C83.9699 49.9985 84.4636 49.3302 84.1015 48.8568C81.666 45.6542 79.2306 42.449 76.7951 39.2465C76.428 38.7629 75.8507 38.7629 75.4837 39.2465C73.0482 42.449 70.6127 45.6542 68.1747 48.8568C67.8126 49.3327 68.3088 49.9985 68.8304 49.9985H72.9317L72.1722 49.239V54.6771C72.1722 55.6543 73.6912 55.6569 73.6912 54.6771V49.239C73.6912 48.8289 73.3444 48.4795 72.9317 48.4795H68.8304L69.4861 49.6213C71.9216 46.4187 74.357 43.2136 76.7951 40.011H75.4837C77.9191 43.2136 80.3546 46.4187 82.7901 49.6213L83.4458 48.4795H79.3445C78.9343 48.4795 78.585 48.8264 78.585 49.239V65.5609C78.585 66.5381 80.104 66.5406 80.104 65.5609Z" fill="#C2A255"/>
<path d="M38.4097 78.5257V62.2039L37.6501 62.9634H41.7515C42.2755 62.9634 42.7692 62.295 42.4072 61.8216C39.9717 58.619 37.5362 55.4139 35.1007 52.2113C34.7336 51.7277 34.1564 51.7277 33.7893 52.2113C31.3538 55.4139 28.9183 58.619 26.4803 61.8216C26.1183 62.2976 26.6145 62.9634 27.136 62.9634H31.2374L30.4779 62.2039V67.642C30.4779 68.6192 31.9969 68.6217 31.9969 67.642V62.2039C31.9969 61.7937 31.65 61.4444 31.2374 61.4444H27.136L27.7917 62.5862C30.2272 59.3836 32.6627 56.1785 35.1007 52.9759H33.7893C36.2248 56.1785 38.6603 59.3836 41.0958 62.5862L41.7515 61.4444H37.6501C37.24 61.4444 36.8906 61.7912 36.8906 62.2039V78.5257C36.8906 79.5029 38.4097 79.5055 38.4097 78.5257Z" fill="#C2A255"/>
</svg>
