<svg width="100" height="100" viewBox="0 0 100 100" fill="none" xmlns="http://www.w3.org/2000/svg">
<circle cx="50" cy="50" r="50" fill="#F5F5F5"/>
<path d="M53.6967 20.5436C55.388 22.235 56.9643 24.0038 59.4519 24.4454C61.707 24.8471 64.0843 24.0954 66.1703 25.3146C67.5233 26.1062 68.4912 27.4734 68.7777 29.0167C68.961 30.0104 68.8647 31.0863 68.8647 32.0917C68.8647 33.4306 69.0408 34.7062 69.6352 35.9254C70.1754 37.0341 71.0258 37.8727 71.8832 38.7302C72.7712 39.6181 73.6826 40.4497 74.136 41.6595C74.7303 43.238 74.5541 45.0186 73.6709 46.4539C72.4 48.5211 70.2201 49.5946 69.3251 51.9836C68.4794 54.2387 69.3227 56.6606 68.5804 58.904C68.0895 60.391 66.922 61.6195 65.4726 62.2091C64.3826 62.6508 63.2598 62.6061 62.1111 62.6061C60.9624 62.6061 59.7338 62.5803 58.5804 62.9491C57.2649 63.3696 56.1985 64.1401 55.2306 65.1032C54.5118 65.8173 53.8212 66.6489 52.9896 67.2362C51.606 68.211 49.8372 68.4765 48.2233 67.9832C45.8719 67.262 44.7091 64.8425 42.6584 63.635C40.4385 62.3266 38.2022 62.7917 35.7944 62.5897C32.6161 62.3219 30.8332 59.597 30.8332 56.6207C30.8332 53.8582 30.6781 51.4058 28.6438 49.2798C26.9079 47.4664 24.9934 45.9183 25.2283 43.1159C25.4514 40.4591 27.6149 39.2141 29.1465 37.3466C30.9224 35.1784 30.7909 32.733 30.8332 30.1185C30.8825 27.0482 33.2081 24.6381 36.2995 24.577C38.8505 24.5277 41.2325 24.7015 43.4007 23.043C45.2823 21.6054 46.4592 19.4137 48.9985 19.0144C50.7369 18.7395 52.4329 19.3503 53.6943 20.5483C54.6152 21.4222 56.0129 20.0292 55.0897 19.153C52.5644 16.7569 48.6438 16.226 45.7098 18.2462C43.3443 19.8765 42.1392 22.5169 38.8999 22.6038C36.4592 22.6695 34.1524 22.4417 32.0265 23.9427C29.4378 25.7727 28.8576 28.4741 28.8576 31.4457C28.8576 32.9045 28.8223 34.274 28.0096 35.5613C27.4059 36.5173 26.4568 37.2925 25.6652 38.0889C23.4077 40.3628 22.5503 43.6115 23.8846 46.6137C24.9957 49.1107 27.8522 50.3604 28.6391 53.0172C29.365 55.4673 28.4371 57.9479 29.5881 60.3722C30.9201 63.177 33.7202 64.57 36.7293 64.5794C37.9415 64.5817 39.2428 64.4549 40.4197 64.7955C41.8292 65.2042 42.7594 66.1861 43.7578 67.1821C45.933 69.3574 48.5123 70.7692 51.6882 69.9681C53.0953 69.6134 54.2746 68.8312 55.2964 67.8234C56.1186 67.013 56.9008 66.0522 57.878 65.4274C60.2154 63.9287 63.0131 65.0327 65.5407 64.2716C68.6979 63.3203 70.7698 60.4098 70.8355 57.1516C70.8543 56.2801 70.812 55.4086 70.8355 54.5371C70.8825 52.8129 71.6225 51.495 72.8158 50.3017C74.89 48.2275 76.72 46.1203 76.424 42.9538C76.1538 40.0691 74.3004 38.46 72.447 36.5079C70.3305 34.2787 71.1127 31.7722 70.7651 29.0661C70.3493 25.8126 67.7512 23.1605 64.5024 22.6883C63.4031 22.5286 62.2685 22.6085 61.162 22.6014C59.5318 22.592 58.127 22.1293 56.929 20.99C56.3018 20.3933 55.7028 19.7637 55.0897 19.1506C54.19 18.2509 52.7946 19.6463 53.6943 20.546L53.6967 20.5436Z" fill="black"/>
<path d="M41.7517 69.7689C39.8842 74.0207 38.019 78.2702 36.1515 82.522H37.8546C35.9894 79.5035 34.1266 76.4826 32.2615 73.464C32.0172 73.067 31.5896 72.9261 31.148 73.0106C27.6643 73.6825 24.1783 74.3543 20.6946 75.0238C21.0658 75.5077 21.4369 75.9893 21.8081 76.4732C23.9269 71.6458 26.0458 66.8208 28.1647 61.9935C28.6697 60.8424 26.9713 59.837 26.4616 60.9975C24.3427 65.8248 22.2239 70.6498 20.105 75.4772C19.7526 76.2782 20.3282 77.098 21.2185 76.9265C24.7021 76.2547 28.1882 75.5829 31.6718 74.9134C31.3007 74.763 30.9295 74.6104 30.5584 74.46C32.4235 77.4786 34.2864 80.4995 36.1515 83.518C36.5039 84.0889 37.5422 84.2298 37.8546 83.518C39.7221 79.2662 41.5873 75.0167 43.4548 70.7649C43.9598 69.6139 42.2615 68.6085 41.7517 69.7689Z" fill="black"/>
<path d="M71.5281 61.993C73.647 66.8203 75.7658 71.6453 77.8847 76.4727C78.2558 75.9888 78.627 75.5072 78.9981 75.0233C75.5145 74.3515 72.0284 73.6796 68.5448 73.0101C68.1008 72.9256 67.6733 73.0689 67.4313 73.4635C65.5661 76.4821 63.7033 79.503 61.8382 82.5215H63.5412C61.6737 78.2697 59.8086 74.0202 57.941 69.7684C57.4313 68.608 55.7306 69.611 56.238 70.7644C58.1055 75.0162 59.9707 79.2657 61.8382 83.5175C62.1506 84.2293 63.1889 84.0884 63.5412 83.5175C65.4064 80.499 67.2692 77.4781 69.1344 74.4595C68.7632 74.6099 68.3921 74.7625 68.0209 74.9129C71.5046 75.5847 74.9906 76.2566 78.4743 76.926C79.3693 77.0975 79.9401 76.2753 79.5878 75.4767C77.4689 70.6493 75.35 65.8243 73.2312 60.997C72.7214 59.8365 71.0207 60.8396 71.5281 61.993Z" fill="black"/>
<path d="M63.9335 43.5899C63.8724 49.4203 60.2525 54.7903 54.7298 56.8082C49.186 58.8354 42.874 57.1511 39.0591 52.655C35.2043 48.1096 34.7134 41.3936 37.7859 36.3055C40.8186 31.2878 46.8604 28.5981 52.6203 29.7774C59.1743 31.1187 63.8607 36.935 63.9311 43.5923C63.9452 44.8608 65.9184 44.8655 65.9044 43.5923C65.8339 36.8998 61.6831 30.8791 55.3993 28.523C49.1132 26.1645 41.7136 28.173 37.4688 33.3644C33.2099 38.5747 32.5851 46.0823 36.0829 51.8704C39.5665 57.635 46.3929 60.609 52.9891 59.3381C60.4662 57.8958 65.8245 51.1211 65.9044 43.5899C65.9184 42.3191 63.9452 42.3191 63.9311 43.5899H63.9335Z" fill="black"/>
<path d="M44.408 52.0047V50.7715C46.0524 49.1436 47.443 47.7083 48.5847 46.468C49.7263 45.2277 50.5931 44.1095 51.1874 43.1112C51.7818 42.1151 52.0777 41.1755 52.0777 40.2923C52.0777 39.6674 51.9673 39.1177 51.7465 38.6385C51.5257 38.1593 51.1874 37.7858 50.7317 37.5204C50.276 37.2549 49.6958 37.121 48.9958 37.121C48.2957 37.121 47.6756 37.3113 47.0907 37.6918C46.5057 38.0724 45.9842 38.5281 45.5262 39.0614L44.3164 37.8962C44.9859 37.1351 45.7094 36.5338 46.4846 36.0921C47.2598 35.6505 48.1806 35.4297 49.2471 35.4297C50.2525 35.4297 51.1146 35.627 51.8381 36.024C52.5617 36.421 53.1231 36.9754 53.5271 37.6895C53.9312 38.406 54.1332 39.2422 54.1332 40.2007C54.1332 41.2202 53.8442 42.2561 53.2664 43.3061C52.6885 44.3562 51.8969 45.4555 50.8915 46.6042C49.8861 47.7529 48.7468 49.005 47.4665 50.358C47.8917 50.3275 48.3498 50.2946 48.836 50.2547C49.3223 50.2171 49.7804 50.1983 50.2055 50.1983H54.9319V52.0024H44.408V52.0047Z" fill="black"/>
</svg>
