<svg width="100" height="100" viewBox="0 0 100 100" fill="none" xmlns="http://www.w3.org/2000/svg">
<circle cx="50" cy="49.999" r="50" fill="#F5F5F5"/>
<path d="M28.323 63.2171C26.4506 62.052 28.1656 60.0052 28.9334 58.7723C29.7328 57.4885 30.847 54.8942 32.7969 56.1344C34.6524 57.3141 32.9617 59.3342 32.1865 60.5793C31.3339 61.9503 30.3529 64.3241 28.323 63.2171C27.1724 62.5898 26.1454 64.3459 27.296 64.9733C29.6649 66.2643 31.7626 65.1089 33.0585 63.0258C33.9548 61.5869 35.4614 59.8623 35.6528 58.1207C35.9701 55.2091 32.9689 52.9855 30.2754 54.1239C28.5362 54.8603 27.6302 57.0161 26.688 58.5349C26.1817 59.3488 25.6319 60.1191 25.489 61.0928C25.2637 62.6188 25.9879 64.157 27.2984 64.9733C28.4126 65.666 29.4373 63.9075 28.3254 63.2171H28.323Z" fill="black"/>
<path d="M33.2036 66.255C31.2949 65.0681 33.1237 62.9219 33.8988 61.672C34.8895 60.0806 35.856 58.4722 36.871 56.8978C37.3627 56.1347 38.0118 55.505 39.0147 55.6818C40.4269 55.9288 40.8096 57.4573 40.1992 58.5837C39.4119 60.0346 38.4382 61.4129 37.5662 62.8154C36.6578 64.2736 35.4249 67.4661 33.2036 66.2574C32.0531 65.63 31.026 67.3862 32.1766 68.0135C33.8964 68.951 35.9989 68.6724 37.2561 67.1028C37.7769 66.4536 38.1766 65.6857 38.6126 64.9833C39.7607 63.1375 41.0688 61.3232 42.0764 59.3951C44.0045 55.7157 39.4265 51.7698 36.1709 54.5385C35.4854 55.1198 35.0567 55.9652 34.5868 56.7185C33.8504 57.903 33.114 59.0851 32.3777 60.2696C31.8835 61.0641 31.3458 61.844 30.888 62.6628C29.8537 64.5158 30.3284 66.8654 32.1742 68.0135C33.2884 68.7063 34.313 66.9477 33.2012 66.2574L33.2036 66.255Z" fill="black"/>
<path d="M38.0842 69.2926C36.0423 68.0209 38.3265 65.4412 39.1355 64.1405C39.947 62.8349 41.2647 59.652 43.3115 60.9988C45.2759 62.2923 43.2073 64.6273 42.3886 65.9475C41.4851 67.4008 40.2958 70.4965 38.0867 69.2926C36.9361 68.6653 35.909 70.4214 37.0596 71.0488C38.4839 71.8263 40.1892 71.8118 41.4948 70.7823C42.19 70.2349 42.6042 69.4525 43.0644 68.7137C43.6651 67.7472 44.2659 66.7807 44.869 65.8142C45.3074 65.1094 45.8306 64.4045 46.0583 63.5955C46.9788 60.3181 43.3527 57.5422 40.4096 59.17C38.7382 60.0929 37.7257 62.5611 36.7617 64.1114C36.2869 64.872 35.6595 65.6762 35.3882 66.5409C34.8553 68.2341 35.5554 70.1114 37.062 71.0488C38.1763 71.7415 39.2009 69.983 38.0891 69.2926H38.0842Z" fill="black"/>
<path d="M42.9681 72.3274C41.2313 71.2471 42.5926 69.4667 43.3266 68.287C44.092 67.0541 45.1239 64.8959 46.9382 66.0513C48.6241 67.1244 47.3742 68.8151 46.6427 69.9899C45.8167 71.3173 44.8962 73.3786 42.9681 72.3274C41.8175 71.7 40.7905 73.4562 41.9411 74.0835C43.4017 74.8805 45.1748 74.8465 46.478 73.7371C47.2797 73.0541 47.7884 72.0004 48.3358 71.1162C48.9123 70.1885 49.6124 69.2777 49.7747 68.1708C49.9975 66.6544 49.2854 65.0896 47.9652 64.2903C46.5531 63.4352 44.6903 63.5636 43.4283 64.6367C42.6266 65.3198 42.1179 66.3734 41.5705 67.2576C40.994 68.1853 40.2939 69.0961 40.1316 70.2031C39.9064 71.7315 40.6282 73.2672 41.9411 74.0835C43.0553 74.7763 44.0799 73.0177 42.9681 72.3274Z" fill="black"/>
<path d="M67.5076 37.5863C65.0248 38.6182 62.7672 38.5261 60.5096 36.9638C59.6061 36.3388 58.8504 35.5734 57.8161 35.1543C57.041 34.8394 56.2537 34.7329 55.4229 34.728C54.299 34.7207 53.175 34.728 52.0511 34.728C50.995 34.728 49.8589 34.6263 48.8222 34.8709C46.9861 35.3045 45.4553 36.942 44.0552 38.1095C42.1295 39.713 40.0318 41.1955 38.3411 43.0582C37.4787 44.0077 36.3281 45.5071 37.2535 46.7861C38.1303 47.9996 40.1045 48.363 41.4973 48.3C44.2538 48.1764 46.9716 46.757 49.1129 45.0832C48.7011 45.1365 48.2917 45.1898 47.8799 45.2431C52.2594 47.9705 56.6364 50.6956 61.0159 53.4231C63.7167 55.1041 66.4176 56.7852 69.116 58.4662C69.8233 58.9071 70.5475 59.3286 71.2427 59.7912C72.5822 60.6802 72.8172 62.9402 70.8697 63.3277C69.5084 63.599 67.665 61.9398 66.6089 61.2833C65.3784 60.5179 64.1479 59.7525 62.915 58.9846C61.8007 58.2918 60.7761 60.0504 61.8879 60.7407C63.0845 61.4844 64.2811 62.2304 65.4777 62.9741C66.6646 63.7129 67.9412 64.7859 69.2976 65.2122C71.8459 66.014 74.4934 63.989 74.3699 61.3221C74.2996 59.7936 73.3646 58.723 72.139 57.9503C66.4466 54.3605 60.7107 50.8337 54.9966 47.2754C52.9667 46.0109 50.9344 44.7465 48.9046 43.4821C48.4831 43.2205 48.0253 43.3634 47.6716 43.642C48.0979 43.3077 47.4754 43.7776 47.3785 43.8454C47.0103 44.1022 46.6325 44.3444 46.2473 44.5721C45.1404 45.2261 43.968 45.776 42.7157 46.0763C42.0544 46.2362 41.364 46.321 40.6834 46.2483C40.3733 46.2144 40.0609 46.1514 39.7678 46.0448C39.6321 45.9964 38.8885 45.6161 38.92 45.7009C38.949 45.7784 39.0992 45.3739 39.1937 45.2213C39.3875 44.9088 39.6442 44.6351 39.8961 44.3662C40.6325 43.579 41.4512 42.8692 42.2772 42.1789C43.8905 40.8297 45.5182 39.4902 47.1557 38.17C48.1561 37.361 49.0329 36.7748 50.3507 36.7603C52.1892 36.7385 54.0931 36.6271 55.9267 36.7676C57.1185 36.8572 57.9154 37.5427 58.8213 38.233C59.7224 38.9185 60.6816 39.5289 61.7523 39.9141C63.8669 40.6723 66.0155 40.3888 68.0477 39.5459C69.2395 39.0518 68.7163 37.0824 67.5076 37.5839V37.5863Z" fill="black"/>
<path d="M61.2363 60.3333C62.1083 60.8759 62.9779 61.4184 63.8499 61.961C64.3247 62.2565 64.797 62.5133 65.0659 63.0341C65.5939 64.0563 65.0417 65.3425 63.9323 65.6623C62.726 66.0086 61.3937 64.8096 60.4272 64.2065C59.6545 63.7244 58.8794 63.2424 58.1067 62.7628C56.9925 62.0676 55.9703 63.8286 57.0797 64.5189C59.5964 66.0862 63.1959 69.3635 66.0396 66.7499C67.9774 64.9719 67.5511 61.9804 65.4534 60.561C64.4167 59.8609 63.3243 59.236 62.2609 58.5747C61.1466 57.8819 60.1244 59.6405 61.2338 60.3308L61.2363 60.3333Z" fill="black"/>
<path d="M57.0825 64.5201C57.814 64.9755 58.5843 65.3994 59.2892 65.8936C60.6093 66.8189 60.5051 68.982 58.7296 69.3332C57.659 69.5439 56.5568 68.5702 55.7042 68.0397C55.1204 67.6764 54.5391 67.3154 53.9553 66.9521C52.8411 66.2593 51.8189 68.0179 52.9283 68.7082C55.2512 70.1543 58.2113 72.7389 60.8685 70.4886C62.4817 69.1249 62.7215 66.6251 61.3432 65.0046C60.5173 64.0357 59.1753 63.4277 58.1071 62.764C56.9929 62.0688 55.9707 63.8298 57.0801 64.5201H57.0825Z" fill="black"/>
<path d="M52.9257 68.7073C53.386 68.9932 53.8874 69.2499 54.3209 69.5769C55.5345 70.4901 55.4255 72.4594 53.8292 72.9197C52.5091 73.2999 50.8523 71.7933 49.7962 71.1369C48.6819 70.4417 47.6597 72.2027 48.7691 72.893C50.954 74.2543 53.524 76.2067 55.9366 74.0097C57.2495 72.8131 57.5862 70.7905 56.7093 69.2402C56.0916 68.1502 54.9774 67.5907 53.9528 66.9536C52.8385 66.2608 51.8163 68.0194 52.9257 68.7097V68.7073Z" fill="black"/>
<path d="M31.8738 39.0249C33.7995 39.7031 35.8124 39.9356 37.7744 39.2356C38.7724 38.8795 39.6541 38.3394 40.4898 37.6926C41.3787 37.0047 42.338 35.6192 43.5539 36.341C44.6827 37.012 45.7073 35.2534 44.581 34.5849C42.3719 33.272 40.9379 34.7932 39.2496 36.0915C37.1228 37.729 34.8943 37.9373 32.4139 37.0628C31.1762 36.6268 30.6433 38.5913 31.8738 39.0249Z" fill="black"/>
<path d="M75.3111 51.9215C73.2304 52.6216 71.6123 54.3608 71.2199 56.5457C70.9898 57.827 72.9494 58.3745 73.182 57.0858C73.446 55.6107 74.4076 54.368 75.8513 53.8836C77.0866 53.467 76.5562 51.5025 75.3111 51.9215Z" fill="black"/>
<path d="M27.8848 54.1751C27.3737 52.6564 26.1093 51.4501 24.5082 51.1642C23.968 51.0673 23.4109 51.312 23.2559 51.874C23.1202 52.3657 23.423 53.027 23.9656 53.1263C24.8861 53.291 25.6515 53.9135 25.9204 54.7177C26.337 55.9531 28.3015 55.4226 27.8824 54.1775L27.8848 54.1751Z" fill="black"/>
<path d="M70.0439 36.2959C72.4104 34.61 74.7746 32.9266 77.1411 31.2407C76.676 31.1196 76.2134 30.9984 75.7483 30.8749C78.7253 36.7198 81.7023 42.5672 84.6792 48.4121C85.1055 49.2502 85.5319 50.0883 85.9606 50.9264C86.0817 50.4614 86.2028 49.9987 86.3264 49.5336C83.7709 50.7084 81.2154 51.8857 78.6599 53.0605C79.125 53.1816 79.5876 53.3027 80.0527 53.4262C77.2477 48.0367 74.4427 42.6471 71.6353 37.2576C71.2259 36.4728 70.819 35.688 70.4096 34.9031C69.8041 33.7405 68.0479 34.7699 68.6535 35.9302C71.4585 41.3197 74.2635 46.7093 77.0709 52.0988C77.4802 52.8836 77.8872 53.6685 78.2965 54.4533C78.5678 54.9741 79.2097 55.0395 79.6893 54.819C82.2448 53.6442 84.8003 52.467 87.3558 51.2922C87.8742 51.0524 87.9493 50.3499 87.7216 49.8994C84.7446 44.0545 81.7677 38.2071 78.7907 32.3622C78.3644 31.5241 77.938 30.686 77.5093 29.8479C77.2743 29.3876 76.5477 29.1769 76.1165 29.4821C73.7499 31.168 71.3858 32.8515 69.0193 34.5374C67.9607 35.2907 68.9757 37.0565 70.0463 36.2935L70.0439 36.2959Z" fill="black"/>
<path d="M31.0724 34.198C28.7059 32.5121 26.3417 30.8286 23.9752 29.1427C23.544 28.8375 22.8173 29.0507 22.5824 29.5085C19.6054 35.3534 16.6285 41.2008 13.6515 47.0457C13.2252 47.8838 12.7988 48.7219 12.3701 49.56C12.14 50.013 12.2127 50.7106 12.7359 50.9528C15.2914 52.1276 17.8469 53.3049 20.4023 54.4797C20.882 54.7001 21.5214 54.6395 21.7952 54.1139C24.6001 48.7243 27.4051 43.3348 30.2125 37.9453C30.6219 37.1604 31.0288 36.3756 31.4382 35.5908C32.0413 34.4305 30.2876 33.4011 29.6821 34.5638C26.8771 39.9533 24.0721 45.3429 21.2647 50.7324C20.8553 51.5172 20.4484 52.302 20.039 53.0868C20.5041 52.9657 20.9667 52.8446 21.4318 52.7211C18.8763 51.5463 16.3208 50.3691 13.7653 49.1943C13.8864 49.6593 14.0076 50.122 14.1311 50.5871C17.1081 44.7421 20.085 38.8948 23.062 33.0498C23.4883 32.2117 23.9146 31.3736 24.3434 30.5355C23.8783 30.6566 23.4156 30.7778 22.9506 30.9013C25.3171 32.5872 27.6813 34.2707 30.0478 35.9566C31.116 36.7172 32.1334 34.9537 31.0749 34.2004L31.0724 34.198Z" fill="black"/>
</svg>
