<svg width="112" height="112" viewBox="0 0 112 112" fill="none" xmlns="http://www.w3.org/2000/svg">
<circle cx="56" cy="56" r="56" fill="white"/>
<path d="M21.6416 58.9036C21.8462 60.6967 22.7858 62.3619 23.9524 63.9024C26.3432 67.0602 27.302 71.0746 26.6532 74.9803L25.4674 82.1205C25.4834 83.1625 26.3336 83.9999 27.3755 83.9999H39.3547C40.4095 83.9999 41.2629 83.1465 41.2629 82.0918V79.5668C41.2629 78.5696 42.1386 77.7993 43.1294 77.9272L45.7599 78.2692C48.4191 78.6144 50.7746 76.5432 50.7746 73.8617V70.2724C50.7746 69.2975 50.5893 68.604 51.6951 68.4665L52.8106 68.3259C54.4918 68.3259 55.5785 66.5456 54.805 65.0498L52.801 61.1313C52.1458 59.8529 52.0691 58.3507 52.5997 57.0179C52.6923 56.7846 52.7499 56.5832 52.7435 56.4554C52.3344 48.1581 44.7595 43.0315 36.2864 43.3607C35.7175 43.383 35.155 43.4374 34.6021 43.5205" stroke="#C2A255" stroke-width="1.9177" stroke-linecap="round" stroke-linejoin="round"/>
<path d="M94.4943 63.9024C92.3496 67.9743 91.1447 71.0746 91.7935 74.9803L92.9793 82.1205C92.9633 83.1625 92.1131 83.9999 91.0712 83.9999H79.092C78.0372 83.9999 77.1838 83.1465 77.1838 82.0918V79.5668C77.1838 78.5696 76.3081 77.7993 75.3173 77.9272L72.6868 78.2692C70.0276 78.6144 67.6721 76.5432 67.6721 73.8617V70.2724C67.6721 69.2975 67.8574 68.604 66.7516 68.4665L65.6361 68.3259C63.9549 68.3259 62.8682 66.5456 63.6417 65.0498L65.6457 61.1313C66.3009 59.8529 66.3776 58.3507 65.847 57.0179C65.7544 56.7846 65.6968 56.5832 65.7032 56.4554C66.1123 48.1581 73.6872 43.0315 82.1603 43.3607C83.3333 43.4054 84.4711 43.5844 85.5642 43.8848C85.7368 43.9232 85.9062 43.9615 86.0756 44.0063C92.7619 45.7322 96.8722 52.4442 95.7088 59.252C95.3988 61.0706 94.9801 62.9819 94.4975 63.9024H94.4943Z" stroke="#C2A255" stroke-width="1.9177" stroke-linecap="round" stroke-linejoin="round"/>
<path d="M25.2785 53.141C27.1546 53.141 28.6728 51.6229 28.676 49.7467V45.9401C28.6792 44 29.865 42.1207 30.9165 40.4906C31.7315 39.2249 32.2046 37.7195 32.2046 36.1023C32.2046 31.6276 28.5769 28 24.1023 28C19.6276 28 16 31.6245 16 36.0991C16 37.7131 16.473 39.2185 17.2881 40.481C18.3396 42.1143 19.5254 43.9936 19.5254 45.9369L19.4646 49.686C19.4327 51.5845 20.9636 53.1378 22.8622 53.1378H25.2817L25.2785 53.141Z" stroke="#C2A255" stroke-width="1.9177" stroke-linecap="round" stroke-linejoin="round"/>
<path d="M19.5703 45.7036H28.51" stroke="#C2A255" stroke-width="1.9177" stroke-linecap="round" stroke-linejoin="round"/>
<path d="M42.4326 38.4003C50.8737 32.8518 61.6799 32.3916 70.5621 37.1954" stroke="#C2A255" stroke-width="1.9177" stroke-linecap="round" stroke-linejoin="round"/>
<path d="M68.8545 30.8994L71.9101 38.4008L63.8877 38.0013" stroke="#C2A255" stroke-width="1.9177" stroke-linecap="round" stroke-linejoin="round"/>
</svg>
