<svg width="100" height="100" viewBox="0 0 100 100" fill="none" xmlns="http://www.w3.org/2000/svg">
<circle cx="50" cy="50" r="50" fill="#F5F5F5"/>
<path d="M53.7692 19.5817C55.4786 21.2912 57.0718 23.079 59.5862 23.5254C61.8655 23.9314 64.2683 23.1716 66.3767 24.4039C67.7443 25.204 68.7225 26.5859 69.0122 28.1458C69.1974 29.1501 69.1 30.2376 69.1 31.2538C69.1 32.6071 69.2781 33.8964 69.8788 35.1286C70.4249 36.2493 71.2844 37.0969 72.151 37.9635C73.0485 38.861 73.9697 39.7015 74.428 40.9243C75.0287 42.5198 74.8506 44.3195 73.9578 45.7702C72.6733 47.8596 70.47 48.9447 69.5654 51.3593C68.7106 53.6387 69.563 56.0866 68.8127 58.354C68.3165 59.857 67.1365 61.0987 65.6715 61.6947C64.5699 62.141 63.4349 62.0959 62.2739 62.0959C61.1129 62.0959 59.8711 62.0698 58.7053 62.4426C57.3757 62.8676 56.2978 63.6464 55.3196 64.6198C54.593 65.3416 53.895 66.1821 53.0545 66.7757C51.656 67.761 49.8682 68.0293 48.237 67.5307C45.8604 66.8018 44.6851 64.3563 42.6123 63.1359C40.3686 61.8134 38.1083 62.2835 35.6746 62.0793C32.4622 61.8086 30.6601 59.0545 30.6601 56.0462C30.6601 53.254 30.5034 50.7753 28.4472 48.6265C26.6926 46.7936 24.7576 45.2289 24.995 42.3964C25.2205 39.711 27.4073 38.4526 28.9553 36.5651C30.7503 34.3736 30.6173 31.9019 30.6601 29.2593C30.7099 26.1561 33.0605 23.7201 36.1851 23.6584C38.7636 23.6085 41.1711 23.7842 43.3626 22.1079C45.2644 20.6549 46.4539 18.4396 49.0205 18.036C50.7775 17.7582 52.4918 18.3755 53.7668 19.5864C54.6975 20.4697 56.1102 19.0617 55.1771 18.1761C52.6247 15.7543 48.662 15.2177 45.6965 17.2596C43.3056 18.9074 42.0876 21.5761 38.8134 21.664C36.3465 21.7304 34.015 21.5001 31.8662 23.0173C29.2497 24.8669 28.6633 27.5973 28.6633 30.6008C28.6633 32.0753 28.6277 33.4595 27.8062 34.7606C27.196 35.7269 26.2368 36.5105 25.4366 37.3153C23.1597 39.6113 22.2907 42.895 23.6416 45.9293C24.7647 48.4532 27.6518 49.7163 28.4472 52.4017C29.1809 54.8781 28.243 57.3853 29.4064 59.8356C30.7527 62.6705 33.5828 64.0785 36.6243 64.088C37.8495 64.0903 39.1648 63.9621 40.3543 64.3064C41.7789 64.7195 42.7192 65.712 43.7282 66.7187C45.9268 68.9173 48.5338 70.3443 51.7439 69.5346C53.1661 69.1761 54.358 68.3855 55.3908 67.3669C56.2218 66.5478 57.0124 65.5767 58.0002 64.9451C60.3626 63.4303 63.1904 64.5462 65.7451 63.7769C68.9362 62.8153 71.0303 59.8736 71.0968 56.5804C71.1158 55.6996 71.0731 54.8187 71.0968 53.9378C71.1443 52.1951 71.8922 50.8631 73.0983 49.657C75.1949 47.5605 77.0444 45.4307 76.7453 42.2302C76.4722 39.3145 74.5989 37.6881 72.7256 35.7151C70.5863 33.4619 71.377 30.9285 71.0256 28.1933C70.6053 24.9049 67.9793 22.2243 64.6957 21.7471C63.5845 21.5856 62.4377 21.6663 61.3194 21.6592C59.6717 21.6497 58.2518 21.182 57.0409 20.0304C56.407 19.4274 55.8016 18.791 55.1819 18.1714C54.2725 17.262 52.8622 18.6723 53.7715 19.5817H53.7692Z" fill="black"/>
<path d="M57.7324 67.1394C57.6873 72.4673 57.6422 77.7952 57.5971 83.1208C58.1384 82.8288 58.6821 82.5367 59.2235 82.2471C56.2889 80.1838 53.3542 78.1229 50.4196 76.0596C50.0468 75.7961 49.5909 75.7533 49.2039 76.0169C46.2337 78.0279 43.2658 80.0413 40.2956 82.0524C40.8203 82.2874 41.3426 82.5225 41.8673 82.7575C41.9077 78.0659 41.9481 73.3719 41.9861 68.6803C41.9979 67.4006 40.013 67.6214 40.0035 68.894C39.9632 73.5856 39.9228 78.2796 39.8848 82.9712C39.8777 83.7571 40.8939 84.0563 41.4566 83.6764C44.4268 81.6654 47.3947 79.6519 50.365 77.6409C49.959 77.6267 49.5553 77.6124 49.1493 77.5982C52.084 79.6614 55.0186 81.7223 57.9532 83.7856C58.7083 84.3151 59.5725 83.7927 59.5796 82.9119C59.6247 77.5839 59.6699 72.256 59.715 66.9304C59.7268 65.6507 57.7419 65.8715 57.7324 67.1441V67.1394Z" fill="black"/>
<path d="M64.1192 42.8765C64.0575 48.7696 60.3987 54.1972 54.8167 56.2367C49.2133 58.2858 42.8336 56.5834 38.9777 52.039C35.0815 47.4447 34.5853 40.6566 37.6909 35.5138C40.7561 30.4423 46.8628 27.7237 52.6846 28.9156C59.3089 30.2714 64.0456 36.1501 64.1168 42.8789C64.1311 44.161 66.1255 44.1658 66.1112 42.8789C66.04 36.1145 61.8446 30.0292 55.4934 27.6478C49.1397 25.264 41.6607 27.294 37.3703 32.5412C33.0657 37.8074 32.4341 45.3957 35.9695 51.246C39.4906 57.0725 46.3903 60.0784 53.0573 58.7939C60.6147 57.336 66.0305 50.4885 66.1112 42.8765C66.1255 41.592 64.1311 41.592 64.1168 42.8765H64.1192Z" fill="black"/>
<path d="M45.3975 51.3812V49.6266H49.1821V37.4916H46.1596V36.1525C46.9123 36.0147 47.5699 35.8462 48.1327 35.6444C48.693 35.4449 49.2058 35.2051 49.6665 34.9297H51.281V49.6266H54.6715V51.3812H45.3975Z" fill="black"/>
</svg>
