<svg width="112" height="112" viewBox="0 0 112 112" fill="none" xmlns="http://www.w3.org/2000/svg">
<circle cx="56" cy="56" r="56" fill="white"/>
<path d="M34.5276 73.9173C34.5276 73.4015 34.055 73.226 33.7661 72.8804C33.1936 72.1945 33.0181 71.2116 33.2827 70.3637C33.4691 69.7669 33.866 69.2053 34.1685 68.6652C34.9029 67.3528 35.9777 64.2529 37.8112 64.342C39.6717 64.4311 40.1388 66.6535 39.4746 68.0495C39.1883 68.6463 38.8211 69.2188 38.4971 69.7993C37.6168 71.3763 36.4664 74.6248 34.1252 73.2179C33.2287 72.6806 32.4132 74.0793 33.3071 74.6167C35.6509 76.0235 37.6492 74.6383 38.8157 72.5536C39.6798 71.0064 41.0624 69.2431 41.3621 67.4609C41.8319 64.6606 39.2342 61.7794 36.3665 62.9999C34.5978 63.7506 33.7634 66.0702 32.8885 67.6391C32.4213 68.4762 31.8354 69.3349 31.6356 70.2854C31.4843 70.9983 31.5221 71.7706 31.7355 72.4672C31.857 72.8642 32.046 73.2503 32.2782 73.5933C32.4646 73.866 32.9074 74.6221 32.9074 73.9173C32.9074 74.9596 34.5276 74.9623 34.5276 73.9173Z" fill="#C2A255"/>
<path d="M38.6348 76.5123C39.1586 76.5123 38.6051 76.2368 38.4079 75.8858C38.1487 75.424 38.0542 74.8894 38.0974 74.3655C38.1325 73.9092 38.2972 73.5176 38.5024 73.118C38.8589 72.4213 39.2693 71.7462 39.6501 71.063C40.66 69.2538 41.6429 67.4257 42.6825 65.6327C43.2928 64.5796 44.1677 63.7911 45.4639 64.2988C45.6097 64.3555 45.8473 64.4878 45.9769 64.5715C46.0984 64.6525 46.1902 64.7254 46.0444 64.5904C45.7258 64.2988 46.1605 64.882 46.1443 64.8253C46.2118 65.0332 46.4252 65.2412 46.517 65.4491C46.868 66.2403 46.787 67.0801 46.4117 67.8443C45.6421 69.4077 44.6997 70.9064 43.8518 72.4294C42.9364 74.0685 41.5214 78.1082 39.0479 76.623C38.1514 76.0856 37.3359 77.4844 38.2297 78.0217C40.0011 79.0857 42.0804 78.5861 43.2199 76.8606C43.7005 76.1342 44.0867 75.3322 44.5106 74.5707C45.6826 72.4753 47.1921 70.3583 48.067 68.1143C49.5386 64.342 44.9049 60.3347 41.9669 63.7749C41.3783 64.4635 40.9867 65.3519 40.5466 66.135L38.254 70.2421C37.7545 71.136 37.1415 72.0352 36.7661 72.9938C36.3665 74.0199 36.3692 75.1729 36.7769 76.1936C37.047 76.8714 37.7815 78.1271 38.6375 78.1271C39.6798 78.1271 39.6825 76.5069 38.6375 76.5069L38.6348 76.5123Z" fill="#C2A255"/>
<path d="M43.5494 79.9177C43.9329 80.0095 43.9491 79.9339 43.598 79.6909C43.4333 79.5046 43.3091 79.2967 43.2254 79.0671C43.0121 78.5865 42.9311 78.0464 43.0283 77.5226C43.0985 77.1553 43.2551 76.8313 43.4252 76.5045C43.8573 75.6674 44.3487 74.852 44.8078 74.0311C45.7124 72.4109 47.0004 68.6925 49.4361 70.1561L49.0338 69.4567C49.0338 70.0805 49.7845 70.3856 50.0707 70.8933C50.5405 71.725 50.4595 72.6647 50.068 73.5018C49.7143 74.2525 49.2498 74.9654 48.8475 75.689C47.9239 77.3416 46.4685 81.5352 43.9599 80.0284C43.0634 79.4911 42.2479 80.8899 43.1417 81.4272C44.5648 82.2832 46.2984 82.1887 47.5243 81.0141C48.1913 80.3768 48.5909 79.4641 49.0365 78.6675L50.8916 75.3461C51.3776 74.4739 51.8934 73.6503 51.9906 72.6269C52.0635 71.8627 51.9474 71.085 51.6234 70.3856C51.4776 70.0697 51.2993 69.7295 51.0482 69.481C50.9456 69.3784 50.4109 69.0328 50.6729 69.2785C50.6594 69.5269 50.6432 69.5161 50.6243 69.2407L50.5432 69.0463C49.455 67.8905 47.5567 67.9446 46.3119 68.8087C45.4802 69.3865 45.0562 70.2668 44.5783 71.1201L42.7231 74.4415C42.1885 75.4001 41.5593 76.3317 41.4189 77.4443C41.2677 78.6324 41.9103 81.5325 43.5521 81.5325C44.5945 81.5325 44.5972 79.9123 43.5521 79.9123L43.5494 79.9177Z" fill="#C2A255"/>
<path d="M49.0389 83.563C47.1811 82.1049 48.1208 80.3119 49.0335 78.6809C49.8085 77.2929 50.9264 74.4495 52.9867 75.7753C54.9715 77.0499 53.7077 79.1966 52.8706 80.6953C52.0335 82.194 51.0317 84.7296 48.8769 83.4361C47.9804 82.8988 47.1649 84.2975 48.0587 84.8349C49.5438 85.726 51.3504 85.5748 52.5763 84.2948C53.2784 83.563 53.7185 82.4991 54.2073 81.6269C54.696 80.7547 55.3684 79.7853 55.5844 78.7592C55.9166 77.1876 55.3306 75.4243 53.994 74.49C52.6573 73.5557 50.8859 73.6394 49.6627 74.7141C48.8634 75.4162 48.4043 76.4936 47.894 77.4063C47.3836 78.319 46.7625 79.1885 46.4736 80.1552C45.9794 81.8186 46.5357 83.6413 47.8967 84.7107C48.7067 85.3479 49.8625 84.2084 49.0416 83.5657L49.0389 83.563Z" fill="#C2A255"/>
<path d="M73.5544 44.5891C70.7784 45.8691 68.3293 45.3155 66.034 43.3578C64.6298 42.1615 63.4471 41.3514 61.538 41.3163C60.339 41.2947 59.1374 41.3163 57.9385 41.3163C56.8232 41.3163 55.6216 41.2002 54.555 41.5837C52.6566 42.2668 51.0905 44.2165 49.6539 45.545C47.8285 47.23 45.8492 48.8151 44.3046 50.7755C43.5701 51.7071 42.5791 53.1599 43.4081 54.3345C44.2371 55.5092 46.1867 55.9601 47.5747 55.871C50.3047 55.6955 52.9888 54.1293 55.0194 52.3633L54.0365 52.4902C58.4056 55.52 62.772 58.5497 67.1411 61.5795C69.8846 63.4805 72.6255 65.3842 75.369 67.2852C76.0954 67.7875 76.8406 68.2708 77.5508 68.7974C78.9955 69.8721 79.4194 72.6021 77.2997 73.3285C75.855 73.8227 73.8973 71.8947 72.8145 71.1467C71.5291 70.2556 70.2438 69.3672 68.9584 68.4761C68.0997 67.882 67.2896 69.2835 68.1402 69.8748C69.3527 70.7146 70.5651 71.5544 71.7776 72.3942C72.99 73.234 74.2267 74.4249 75.5985 74.8731C78.2853 75.7507 80.5995 73.234 80.3754 70.6363C80.2484 69.1565 79.4086 68.1331 78.2529 67.3203C72.5553 63.3158 66.8063 59.3814 61.0816 55.412C59.0051 53.9727 56.9285 52.5307 54.852 51.0915C54.5442 50.8781 54.1283 50.9942 53.8691 51.2184C52.4028 52.4929 50.5504 53.5919 48.6629 54.0645C47.9635 54.24 47.2398 54.3264 46.5215 54.2157C46.0328 54.1401 44.8446 53.8566 44.7177 53.3192C44.5908 52.7819 45.5818 51.7449 45.8762 51.402C46.6133 50.546 47.4369 49.7575 48.2659 48.9906C49.8645 47.5108 51.4658 46.0311 53.086 44.5783C54.1499 43.6251 55.0923 42.9581 56.5559 42.9392C57.6981 42.923 58.8431 42.9392 59.9853 42.9392C60.8791 42.9392 61.9052 42.8312 62.7666 43.0904C63.9224 43.4361 64.7054 44.4001 65.6316 45.1157C66.4714 45.7637 67.368 46.3119 68.3806 46.644C70.449 47.3218 72.4445 46.879 74.3645 45.9906C75.3096 45.5531 74.4887 44.1571 73.5463 44.5918L73.5544 44.5891Z" fill="#C2A255"/>
<path d="M67.4866 69.4131L70.195 71.2899C70.7189 71.6544 71.159 71.9838 71.4317 72.5968C71.9745 73.8228 71.4939 75.6266 70.0762 76.0181C68.8151 76.3665 67.4272 74.9974 66.4605 74.3277C65.6801 73.7877 64.8997 73.2449 64.1193 72.7048C63.2606 72.1081 62.4505 73.5122 63.3011 74.1036C65.6909 75.7616 69.3417 79.461 72.1284 76.6014C73.8404 74.8435 73.5731 71.8569 71.6802 70.3637C70.6082 69.5185 69.4254 68.7894 68.3021 68.009C67.4434 67.4149 66.6333 68.8164 67.4839 69.4077L67.4866 69.4131Z" fill="#C2A255"/>
<path d="M63.3022 74.1064C64.034 74.6141 64.8144 75.0867 65.5138 75.6402C66.8964 76.7366 67.053 79.5557 64.9872 80.0903C63.7883 80.4009 62.6596 79.2938 61.7442 78.6592C61.142 78.2433 60.5398 77.8248 59.9377 77.4062C59.079 76.8095 58.2689 78.2136 59.1195 78.805C61.3769 80.3685 64.4445 83.3442 67.0422 80.6736C68.4598 79.2181 68.5652 76.7663 67.3338 75.1704C66.5345 74.1335 65.1817 73.4449 64.1204 72.7077C63.2617 72.1109 62.4517 73.5151 63.3022 74.1064Z" fill="#C2A255"/>
<path d="M59.1187 78.8047C59.6614 79.18 60.296 79.5203 60.7605 79.9928C61.9351 81.1891 61.6651 83.6463 59.9017 84.1594C58.5354 84.5564 56.7937 82.8201 55.7541 82.0964C54.8954 81.4996 54.0853 82.9038 54.9359 83.4951C57.0232 84.9452 59.5993 87.1622 61.9567 84.7427C63.1529 83.5167 63.4284 81.5455 62.7155 80.009C62.1484 78.7912 61.0008 78.1431 59.9396 77.4059C59.0809 76.8092 58.2708 78.2133 59.1214 78.8047H59.1187Z" fill="#C2A255"/>
<path d="M37.8675 45.483C39.863 46.2634 41.8964 46.4794 43.9189 45.6315C44.8559 45.2399 45.6741 44.6432 46.4383 43.9843C47.3834 43.1715 48.3069 41.5972 49.6787 42.5072C50.5509 43.0851 51.3637 41.6809 50.4969 41.1085C48.4851 39.7772 47.0756 41.2192 45.6201 42.5477C43.4247 44.5514 41.0512 44.9969 38.2995 43.9195C37.3274 43.5388 36.9062 45.1049 37.8675 45.483Z" fill="#C2A255"/>
<path d="M81.6047 60.5861C79.4714 61.3853 77.997 63.2999 77.6352 65.5411C77.4705 66.5618 79.0313 66.9993 79.1987 65.9732C79.4633 64.326 80.4165 62.7571 82.0367 62.1495C83.0034 61.7877 82.5849 60.2188 81.6047 60.5861Z" fill="#C2A255"/>
<path d="M33.5876 62.8783C33.1285 61.3526 31.9377 60.0511 30.3364 59.7324C29.3184 59.5299 28.8836 61.0907 29.9043 61.2959C30.9251 61.5011 31.7162 62.295 32.0241 63.3104C32.3319 64.3257 33.8873 63.8828 33.5876 62.8783Z" fill="#C2A255"/>
<path d="M76.3038 42.3288C78.6855 40.4386 81.0672 38.5484 83.4488 36.6582L82.177 36.4935C85.177 43.0525 88.1744 49.6116 91.1744 56.1706C91.6038 57.1077 92.0304 58.0447 92.4598 58.9817L92.7514 57.8745C90.178 59.1923 87.6046 60.5127 85.0312 61.8305L86.1383 62.1221C82.9034 55.1985 79.6657 48.2722 76.4307 41.3486C75.9906 40.4035 74.5918 41.2271 75.032 42.1668C78.2669 49.0904 81.5046 56.0167 84.7396 62.9403C84.9313 63.3508 85.4876 63.4156 85.8467 63.232C88.4201 61.9142 90.9935 60.5938 93.5669 59.276C93.9828 59.0627 94.0314 58.5469 93.8585 58.1689C90.8585 51.6098 87.8611 45.0508 84.8611 38.4917C84.4318 37.5547 84.0051 36.6177 83.5757 35.6807C83.3354 35.1568 82.6684 35.227 82.3039 35.516C79.9222 37.4062 77.5406 39.2964 75.1589 41.1866C74.3434 41.8347 75.4964 42.9742 76.3038 42.3315V42.3288Z" fill="#C2A255"/>
<path d="M37.0602 40.8006C34.6785 38.9131 32.2968 37.0229 29.9152 35.1327C29.5506 34.8437 28.8809 34.7735 28.6433 35.2974C25.6433 41.8564 22.6432 48.4155 19.6432 54.9746C19.2138 55.9116 18.7872 56.8486 18.3578 57.7856C18.185 58.1663 18.2282 58.6794 18.6495 58.8927C21.2229 60.2105 23.7963 61.5309 26.3697 62.8487C26.7315 63.035 27.2851 62.9729 27.4768 62.557C30.7118 55.6334 33.9494 48.7071 37.1844 41.7835C37.6246 40.8438 36.2258 40.0202 35.7856 40.9653C32.5507 47.8889 29.313 54.8152 26.078 61.7388L27.1852 61.4472C24.6118 60.1294 22.0384 58.809 19.465 57.4912L19.7566 58.5984C22.7566 52.042 25.7567 45.483 28.7567 38.9239C29.1861 37.9869 29.6127 37.0499 30.0421 36.1129L28.7702 36.2776C31.1519 38.1678 33.5336 40.058 35.9153 41.9482C36.7227 42.5909 37.8784 41.4514 37.0602 40.8033V40.8006Z" fill="#C2A255"/>
</svg>
