<svg width="112" height="112" viewBox="0 0 112 112" fill="none" xmlns="http://www.w3.org/2000/svg">
<circle cx="56" cy="56" r="56" fill="white"/>
<path d="M20.0625 40.2616C21.4908 31.6184 29.4406 25 39.0353 25C46.3793 25 52.7558 28.8747 55.9878 34.567C59.2152 28.8747 65.594 25 72.9357 25C82.5303 25 90.4825 31.6184 91.9084 40.2639" stroke="#C2A255" stroke-width="1.38218" stroke-linecap="round" stroke-linejoin="round"/>
<path d="M63.3 81.937C61.2659 83.6463 58.4946 85.9868 55.9859 88.0002C53.3598 85.8924 50.9271 83.8721 48.6719 81.937" stroke="#C2A255" stroke-width="1.38218" stroke-linecap="round" stroke-linejoin="round"/>
<path d="M83.3392 59.0659C86.2694 57.3451 86.4606 57.2161 87.4535 56.6356C90.8974 54.6222 90.0958 51.6344 87.3821 53.0373C86.6058 53.4381 83.8437 55.0944 83.8437 55.0944C86.9329 53.0074 87.882 52.2794 89.6995 51.047C93.9705 48.1559 92.4616 45.615 90.2962 47.1699C88.8725 48.1927 83.8782 51.2681 83.8782 51.2681C88.2759 48.0154 90.1004 46.2669 90.1004 46.2669C96.2304 40.5055 93.5005 38.8377 92.4662 39.796C92.0608 40.1738 77.0111 52.4245 77.0111 52.4245C77.0111 52.4245 77.4833 50.2246 78.2804 47.193C79.9436 40.8787 76.4191 38.0176 74.1408 45.691C73.7468 47.0202 72.5489 51.2105 66.3475 57.7736C46.5869 78.6837 35.2461 67.5641 35.2461 67.5641C36.9278 71.8442 43.8525 80.4967 50.1322 82.4364C50.1322 82.4364 55.5158 82.5884 65.0506 75.4678C75.4723 67.6861 76.3546 68.5707 79.8469 66.1266C87.2162 60.9664 88.7896 58.7365 87.336 57.6215C86.9789 57.3474 83.3392 59.0659 83.3392 59.0659Z" stroke="#C2A255" stroke-width="1.38218" stroke-linecap="round" stroke-linejoin="round"/>
<path d="M76.3828 68.5273C74.7011 72.8075 68.1219 80.4971 61.8422 82.439C61.8422 82.439 59.891 82.5634 55.9863 80.8703" stroke="#C2A255" stroke-width="1.38218" stroke-linecap="round" stroke-linejoin="round"/>
<path d="M39.0011 69.702C35.7461 67.5158 33.7742 67.1127 31.5143 65.5301C24.1449 60.3699 23.182 58.7366 24.6356 57.624C24.9927 57.3499 28.6324 59.0684 28.6324 59.0684C25.7022 57.3475 25.511 57.2185 24.5181 56.638C21.0742 54.6246 21.8759 51.6368 24.5895 53.0397C25.3659 53.4406 28.1279 55.0969 28.1279 55.0969C25.0388 53.0098 24.0897 52.2818 22.2721 51.0494C18.0011 48.1583 19.51 45.6174 21.6754 47.1724C23.0991 48.1952 28.0934 51.2705 28.0934 51.2705C23.6957 48.0178 21.8713 46.2693 21.8713 46.2693C15.7413 40.5079 18.4711 38.8401 19.5054 39.7984C19.9109 40.1762 34.9605 52.427 34.9605 52.427C34.9605 52.427 34.4883 50.227 33.6912 47.1954C32.028 40.8811 35.5526 38.02 37.8309 45.6934C38.2248 47.0226 39.4227 51.213 45.6241 57.776C49.3283 61.6968 52.7262 64.5257 55.7993 66.5345" stroke="#C2A255" stroke-width="1.38218" stroke-linecap="round" stroke-linejoin="round"/>
</svg>
