<?xml version="1.0" encoding="UTF-8"?><svg id="_レイヤー_2" xmlns="http://www.w3.org/2000/svg" viewBox="0 0 306.17 61.48"><defs><style>.cls-1{fill:#1a1a1a;stroke-width:0px;}</style></defs><g id="_レイヤー_1-2"><path class="cls-1" d="m55.12,60.43c-7.79.86-15.65,1.29-23.48.91-6.95-.34-14.33-1.88-20.09-6.22C2.28,48.13-1.78,36.8.72,25.65,3.36,13.89,12.18,4.54,23.84,1.44,29.02.06,34.44-.29,39.77.22c2.7.26,5.39.73,8.02,1.41.64.16,5.74,1.18,5.74,1.91,0,0,.12,13.16.12,13.16-3.3-1.89-7.73-3.06-11.46-3.71-4.68-.82-9.59-.54-14.14.86-9.07,2.78-13.26,10.17-13.29,18.97-.02,7.46,5.32,13.33,12.03,15.83,4.37,1.63,8.99,1.52,13.6,1.42l-.08-9.19-6.17.06-.1-11.06,20.82-.19s.27,30.76.27,30.76Z"/><path class="cls-1" d="m122.08,30.75c0,5.58-1.19,10.72-3.57,15.41-2.38,4.69-5.92,8.41-10.63,11.18-4.71,2.76-10.44,4.14-17.19,4.14s-12.62-1.44-17.35-4.32c-4.73-2.88-8.25-6.66-10.55-11.35-2.3-4.69-3.45-9.71-3.45-15.06s1.14-10.41,3.43-15.08c2.29-4.67,5.81-8.44,10.55-11.31C78.05,1.5,83.84.07,90.68.07c5.11,0,9.66.82,13.66,2.46,4,1.64,7.3,3.86,9.88,6.67,2.58,2.8,4.53,6.07,5.86,9.8,1.33,3.73,1.99,7.65,1.99,11.76Zm-14.1,0c0-2.7-.37-5.16-1.1-7.39-.74-2.23-1.85-4.17-3.33-5.81-1.49-1.64-3.3-2.92-5.44-3.84-2.14-.92-4.62-1.37-7.43-1.37-5.37,0-9.59,1.69-12.65,5.08-3.07,3.39-4.6,7.83-4.6,13.32s1.54,9.95,4.63,13.35c3.08,3.4,7.29,5.11,12.63,5.11,3.67,0,6.81-.79,9.4-2.36,2.59-1.57,4.55-3.75,5.89-6.53,1.34-2.78,2.01-5.97,2.01-9.57Z"/><path class="cls-1" d="m181.29,61.48h-15.93l-4.21-12.45h-22.41l-4.28,12.45h-15.93L141.34.07h17.2l22.75,61.41Zm-23.71-23.13l-7.56-22.42-7.63,22.42h15.19Z"/><path class="cls-1" d="m229.3,61.48h-44.51V.07h15.29v48.99h29.22v12.41Z"/><path class="cls-1" d="m251.99,36.72h-22.69v-10.29h22.69v10.29Z"/><path class="cls-1" d="m306.17,44.06c0,5.29-1.56,9.51-4.67,12.67-3.11,3.16-8.2,4.74-13.78,4.74h-29.71V.07h24.72c3.3,0,6.18.37,8.63,1.11,2.45.74,4.41,1.77,5.92,3.04,3.82,3.19,5.51,10.06,5,13.36-.77,4.94-3.33,8.39-7.93,10.41,3.6,1.65,7.09,3.74,8.98,6.27,1.89,2.53,2.84,5.8,2.84,9.81Zm-19.32-26.32c0-2.95-1.38-5.2-3.05-6.17-1.68-.97-3.75-1.18-7.31-1.18h-3.35v14.71h3.43c3.63,0,5.64-.16,7.25-1.14,1.61-.97,3.03-3.26,3.03-6.22Zm4.16,25.56c0-5.26-4.85-7.89-11.4-7.89h-6.47v15.73h6.47c6.55,0,11.4-2.61,11.4-7.84Z"/></g></svg>