<svg width="147" height="100" viewBox="0 0 147 100" fill="none" xmlns="http://www.w3.org/2000/svg">
<g clip-path="url(#clip0_1192_20473)">
<path d="M52 80H0V87H52V80Z" fill="#121212"/>
<path d="M146.281 0H22.6582V24.3438H146.281V0Z" fill="#121212"/>
<path d="M69 52H23V76H69V52Z" fill="#121212"/>
<path d="M75.1826 31.9053H6V37.9053H75.1826V31.9053Z" fill="#121212"/>
<path d="M110.403 96.8992C92.5599 96.8992 78.0488 82.3881 78.0488 64.5451C78.0488 46.702 92.5599 32.1909 110.403 32.1909C128.246 32.1909 142.757 46.702 142.757 64.5451C142.757 82.3881 128.246 96.8992 110.403 96.8992ZM110.403 37.9709C95.7559 37.9709 83.8288 49.898 83.8288 64.5451C83.8288 79.1921 95.7559 91.1192 110.403 91.1192C125.05 91.1192 136.977 79.1921 136.977 64.5451C136.977 49.898 125.05 37.9709 110.403 37.9709Z" fill="#121212"/>
<path d="M110.404 79.3825C102.217 79.3825 95.5664 72.7321 95.5664 64.545C95.5664 56.3579 102.217 49.7075 110.404 49.7075C118.591 49.7075 125.241 56.3579 125.241 64.545C125.241 72.7321 118.591 79.3825 110.404 79.3825ZM110.404 55.4875C105.413 55.4875 101.346 59.5538 101.346 64.545C101.346 69.5362 105.413 73.6025 110.404 73.6025C115.395 73.6025 119.461 69.5362 119.461 64.545C119.461 59.5538 115.395 55.4875 110.404 55.4875Z" fill="#121212"/>
<path d="M113.301 28.2742H107.521V40.2693H113.301V28.2742Z" fill="#121212"/>
<path d="M113.301 88.0186H107.521V100.014H113.301V88.0186Z" fill="#121212"/>
<path d="M86.5361 61.2539H74.541V67.0339H86.5361V61.2539Z" fill="#121212"/>
<path d="M146.28 61.2539H134.285V67.0339H146.28V61.2539Z" fill="#121212"/>
</g>
<defs>
<clipPath id="clip0_1192_20473">
<rect width="146.267" height="100" fill="white"/>
</clipPath>
</defs>
</svg>
