<svg width="91" height="90" viewBox="0 0 91 90" fill="none" xmlns="http://www.w3.org/2000/svg">
<path d="M37.5 75C55.8385 75 71.0485 61.1602 74 43H1C3.95148 61.1602 19.1713 75 37.5 75Z" fill="#121212"/>
<path d="M37.5623 75.1131C16.8541 75.1131 0 58.2705 0 37.5623C0 16.8542 16.8541 0 37.5623 0C58.2705 0 75.1246 16.8426 75.1246 37.5623C75.1246 58.282 58.282 75.1246 37.5623 75.1246V75.1131ZM37.5623 6.52307C20.4436 6.52307 6.52307 20.4436 6.52307 37.5623C6.52307 54.6811 20.4436 68.6016 37.5623 68.6016C54.6811 68.6016 68.6016 54.6811 68.6016 37.5623C68.6016 20.4436 54.6696 6.52307 37.5623 6.52307Z" fill="#121212"/>
<path d="M64.1262 59.4825L59.5137 64.095L85.4153 89.9966L90.0278 85.3841L64.1262 59.4825Z" fill="#121212"/>
</svg>
