<svg width="97" height="100" viewBox="0 0 97 100" fill="none" xmlns="http://www.w3.org/2000/svg">
<g clip-path="url(#clip0_1192_20495)">
<path d="M56.0604 94.4844H39.5137V99.9999H56.0604V94.4844Z" fill="#121212"/>
<path d="M11.6829 45.321H0V50.8366H11.6829V45.321Z" fill="#121212"/>
<path d="M84.9648 50.3366V45.821H95.6477V50.3366H84.9648Z" fill="#121212" stroke="#121212"/>
<path d="M75.7653 23.587L72.5723 20.394L80.1263 12.8401L83.3193 16.0331L75.7653 23.587Z" fill="#121212" stroke="#121212"/>
<path d="M48.0742 11.6829V0" stroke="#121212" stroke-width="5.67" stroke-miterlimit="10"/>
<path d="M20.4017 23.5835L12.8477 16.0295L16.0407 12.8366L23.5947 20.3905L20.4017 23.5835Z" fill="#121212" stroke="#121212"/>
<path d="M27.7334 65.36C28.5408 66.2647 29.4163 67.1013 30.3307 67.8892C32.6751 70.253 35.9533 73.8036 37.4027 76.4884C39.7859 80.8853 39.6206 87.6168 39.6206 87.6168H56.2159C56.2159 87.6168 56.0505 80.8756 58.4338 76.4884C59.6789 74.1927 62.247 71.2744 64.4357 68.9982C69.4649 65.2336 73.1517 59.7666 74.6595 53.4631H21.4883C22.5583 57.9573 24.747 62.0234 27.7334 65.36Z" fill="#121212"/>
<path d="M48.0744 25.3015C58.5899 25.3015 67.3934 32.782 69.4362 42.7042H75.0393C72.9284 29.7081 61.6638 19.7859 48.0744 19.7859C34.4849 19.7859 23.2105 29.7081 21.1094 42.7042H26.7125C28.7553 32.782 37.5588 25.3015 48.0744 25.3015Z" fill="#121212"/>
</g>
<defs>
<clipPath id="clip0_1192_20495">
<rect width="96.1479" height="100" fill="white"/>
</clipPath>
</defs>
</svg>
