<svg width="420" height="97" viewBox="0 0 420 97" fill="none" xmlns="http://www.w3.org/2000/svg">
<g clip-path="url(#clip0_1187_20260)">
<path d="M102.515 16.6928C102.533 16.4164 102.294 16.1861 102.018 16.2229L86.1723 18.2312L81.5753 18.8116L84.7167 20.9673C85.4813 21.4924 85.9143 22.386 85.859 23.3164L85.076 36.3335L0.948871 47.0106L0 62.7361L84.1363 52.059L83.6204 60.6264L62.5702 63.298L61.6214 79.0235L82.6716 76.3519L81.4371 96.8678L95.6333 95.0806C96.8954 94.924 97.8719 93.883 97.9456 92.6117L99.0511 74.2791L114.933 72.2616C116.195 72.105 117.172 71.064 117.246 69.7927L118.029 56.7941C118.047 56.5177 117.807 56.2874 117.531 56.3243L100 58.5537L100.516 49.9862L116.14 48.0055C117.678 47.8121 118.848 46.55 118.941 45.0115L119.696 32.4827C119.714 32.2064 119.475 31.9761 119.199 32.0129L101.465 34.2607L102.524 16.6928H102.515Z" fill="url(#paint0_linear_1187_20260)"/>
<path d="M206.439 81.0226L220.175 79.2906C221.714 79.0972 222.893 77.8351 222.985 76.2966L226.633 15.5873C226.651 15.3109 226.412 15.0898 226.145 15.1267L210.281 17.135L206.449 81.0226H206.439Z" fill="url(#paint1_linear_1187_20260)"/>
<path d="M317.402 34.749L336.251 32.3538C331.212 29.2953 327.656 24.0442 326.882 17.9364L318.351 19.0235L319.263 3.83234C319.282 3.54676 319.033 3.32566 318.757 3.36251L302.911 5.3708L298.314 5.95118L301.198 7.93183C302.128 8.56749 302.653 9.64533 302.589 10.7784L301.953 21.2897L301.023 36.8402L299.365 64.4772C299.217 66.9645 301.364 68.982 303.842 68.6688L315.459 67.2041L416.417 54.3805C417.955 54.187 419.125 52.9249 419.217 51.3865L420 38.3141L317.43 51.3312C316.896 51.3957 316.426 50.9627 316.463 50.4192L317.402 34.7582V34.749Z" fill="url(#paint2_linear_1187_20260)"/>
<path d="M237.642 13.6527L233.045 14.2331L235.928 16.2137C236.859 16.8494 237.384 17.9272 237.319 19.0603L236.702 29.3874L262.819 26.0709L235.892 77.2823L254.768 74.8871L263.4 58.4707L271.571 72.7407L290.447 70.3455L273.137 40.0921H273.063L288.89 9.99539C289.563 8.70566 288.512 7.19483 287.075 7.37908L237.651 13.6435L237.642 13.6527Z" fill="url(#paint3_linear_1187_20260)"/>
<path d="M153.275 44.7075C153.294 44.4311 153.054 44.21 152.778 44.2469L136.923 46.2552L132.326 46.8356L135.21 48.8162C136.14 49.4519 136.665 50.5297 136.601 51.6628L136.463 53.9291L126.937 55.1359L125.988 70.8613L135.514 69.6545L134.279 90.1612L148.015 88.4293C149.553 88.2358 150.733 86.9737 150.825 85.4353L151.893 67.5818L156.684 66.9737L156.269 73.8369L168.107 67.9502C169.056 67.4804 169.682 66.5315 169.747 65.4721V65.3155H169.756L170.705 49.59L152.851 51.8563L153.284 44.7167L153.275 44.7075Z" fill="url(#paint4_linear_1187_20260)"/>
<path d="M175.458 21.6582L178.332 23.6297C179.263 24.2653 179.788 25.3524 179.723 26.4763L177.402 64.2745L194.224 55.9558L196.416 19.5025C196.435 19.2354 196.204 19.0235 195.937 19.0603L180.064 21.0778L175.467 21.6582H175.458Z" fill="url(#paint5_linear_1187_20260)"/>
<path d="M345.665 30.9074C354.841 31.368 362.376 23.8323 361.916 14.6569C361.52 6.79872 355.136 0.414568 347.277 0.018437C338.102 -0.44218 330.566 7.09352 331.027 16.269C331.423 24.1271 337.807 30.5113 345.665 30.9074ZM346.467 9.68219C349.406 9.68219 351.838 11.8839 352.197 14.7213C352.225 14.9609 352.252 15.2096 352.252 15.4583C352.252 18.655 349.663 21.2437 346.467 21.2437C343.519 21.2437 341.087 19.0327 340.727 16.1769C340.7 15.9466 340.681 15.7071 340.681 15.4583C340.681 12.2616 343.27 9.67297 346.467 9.67297V9.68219Z" fill="url(#paint6_linear_1187_20260)"/>
</g>
<defs>
<linearGradient id="paint0_linear_1187_20260" x1="66.3289" y1="62.4505" x2="94.0857" y2="126.283" gradientUnits="userSpaceOnUse">
<stop stop-color="#20BE8E"/>
<stop offset="0.13" stop-color="#1EAF86"/>
<stop offset="0.34" stop-color="#1B9E7D"/>
<stop offset="0.5" stop-color="#51B19A"/>
<stop offset="1" stop-color="#1B8D68"/>
</linearGradient>
<linearGradient id="paint1_linear_1187_20260" x1="199.125" y1="8.20821" x2="224.744" y2="67.1396" gradientUnits="userSpaceOnUse">
<stop stop-color="#20BE8E"/>
<stop offset="0.13" stop-color="#1EAF86"/>
<stop offset="0.34" stop-color="#1B9E7D"/>
<stop offset="0.5" stop-color="#51B19A"/>
<stop offset="1" stop-color="#1B8D68"/>
</linearGradient>
<linearGradient id="paint2_linear_1187_20260" x1="314.768" y1="-51.3772" x2="346.228" y2="20.9765" gradientUnits="userSpaceOnUse">
<stop stop-color="#20BE8E"/>
<stop offset="0.13" stop-color="#1EAF86"/>
<stop offset="0.34" stop-color="#1B9E7D"/>
<stop offset="0.5" stop-color="#51B19A"/>
<stop offset="1" stop-color="#1B8D68"/>
</linearGradient>
<linearGradient id="paint3_linear_1187_20260" x1="239.678" y1="-9.42423" x2="265.297" y2="49.5163" gradientUnits="userSpaceOnUse">
<stop stop-color="#20BE8E"/>
<stop offset="0.13" stop-color="#1EAF86"/>
<stop offset="0.34" stop-color="#1B9E7D"/>
<stop offset="0.5" stop-color="#51B19A"/>
<stop offset="1" stop-color="#1B8D68"/>
</linearGradient>
<linearGradient id="paint4_linear_1187_20260" x1="137.366" y1="35.053" x2="162.985" y2="93.9935" gradientUnits="userSpaceOnUse">
<stop stop-color="#20BE8E"/>
<stop offset="0.13" stop-color="#1EAF86"/>
<stop offset="0.34" stop-color="#1B9E7D"/>
<stop offset="0.5" stop-color="#51B19A"/>
<stop offset="1" stop-color="#1B8D68"/>
</linearGradient>
<linearGradient id="paint5_linear_1187_20260" x1="176.545" y1="18.0193" x2="202.174" y2="76.9599" gradientUnits="userSpaceOnUse">
<stop stop-color="#20BE8E"/>
<stop offset="0.13" stop-color="#1EAF86"/>
<stop offset="0.34" stop-color="#1B9E7D"/>
<stop offset="0.5" stop-color="#51B19A"/>
<stop offset="1" stop-color="#1B8D68"/>
</linearGradient>
<linearGradient id="paint6_linear_1187_20260" x1="320.396" y1="-44.5232" x2="346.015" y2="14.4173" gradientUnits="userSpaceOnUse">
<stop stop-color="#20BE8E"/>
<stop offset="0.13" stop-color="#1EAF86"/>
<stop offset="0.34" stop-color="#1B9E7D"/>
<stop offset="0.5" stop-color="#51B19A"/>
<stop offset="1" stop-color="#1B8D68"/>
</linearGradient>
<clipPath id="clip0_1187_20260">
<rect width="420" height="96.877" fill="white"/>
</clipPath>
</defs>
</svg>
