<svg width="336" height="102" viewBox="0 0 336 102" fill="none" xmlns="http://www.w3.org/2000/svg">
<path d="M305.286 41.0733L308.92 25.2615H266.828L270.584 8.91638H253.066L236.165 82.4048H295.784L299.418 66.5931H257.325L263.193 41.0733H305.286Z" fill="#040000"/>
<path d="M52.1877 8.91638H34.6693L32.5662 18.0605H8.90616L5.27143 33.8723H28.9315L27.278 41.0733H3.61789L-0.0168457 56.8851H23.6432L17.7682 82.4048H35.2866L41.1616 56.8851H64.8216L68.4564 41.0733H44.7963L46.4498 33.8723H70.1099L73.7446 18.0605H50.0846L52.1877 8.91638Z" fill="#040000"/>
<path d="M145.517 82.4048H163.036L179.937 8.91638H162.418L145.517 82.4048Z" fill="#040000"/>
<path d="M245.766 8.91638H186.155L182.52 24.7281H213.145L167.562 82.4048H187.694L205.647 59.6893L211.628 82.4048H231.76L220.75 40.578L245.766 8.91638Z" fill="#040000"/>
<path d="M121.362 41.1114H138.88L146.287 8.91638H128.769L121.362 41.1114Z" fill="#040000"/>
<path d="M97.2905 41.119L99.8508 29.9784H82.3324L79.7721 41.119H73.0817L69.447 56.9308H76.1374L70.2776 82.4048H87.796L93.6557 56.9308H100.178L97.8772 66.9131H115.396L121.332 41.119H97.2905Z" fill="#040000"/>
<path d="M320.678 30.5271C329.149 30.5271 336.017 23.6594 336.017 15.1878C336.017 6.71609 329.149 -0.15155 320.678 -0.15155C312.206 -0.15155 305.339 6.71609 305.339 15.1878C305.339 23.6594 312.206 30.5271 320.678 30.5271Z" fill="#EA5504"/>
<path d="M219.431 93.6598C219.081 94.4675 218.601 95.0847 217.991 95.5115C217.366 95.9382 216.688 96.1515 215.956 96.1515C215.301 96.1363 214.783 95.9687 214.41 95.6486C214.021 95.3438 213.769 94.9933 213.648 94.5894C213.617 94.4599 213.587 94.3303 213.556 94.216C213.533 94.0941 213.526 93.9417 213.541 93.7512C213.556 93.4007 213.663 92.7301 213.876 91.7395C214.09 90.7489 214.257 90.0554 214.379 89.7125C214.509 89.3696 214.661 89.0953 214.836 88.882C215.126 88.4781 215.522 88.1199 216.04 87.8075C216.551 87.4875 217.13 87.3274 217.793 87.3198C218.601 87.3274 219.21 87.5789 219.622 88.059C220.033 88.5543 220.224 89.1563 220.208 89.8878H218.86C218.829 89.5373 218.7 89.2401 218.479 88.9962C218.242 88.76 217.922 88.6381 217.511 88.6305C217.206 88.6381 216.939 88.6991 216.696 88.8134C216.452 88.9353 216.246 89.0801 216.071 89.263C215.865 89.4535 215.705 89.6897 215.591 89.9869C215.469 90.2993 215.316 90.8784 215.133 91.7319C214.951 92.5853 214.867 93.1645 214.867 93.4693C214.859 93.7741 214.912 94.0179 215.042 94.2008C215.141 94.3837 215.286 94.5285 215.484 94.6351C215.674 94.7647 215.918 94.8333 216.215 94.8333C216.932 94.8333 217.549 94.437 218.067 93.6445H219.416L219.431 93.6598Z" fill="#231815"/>
<path d="M224.75 94.1398H221.565L220.513 96.083H219.165L224.019 87.4037H225.085L226.335 96.083H224.994L224.742 94.1398H224.75ZM224.628 92.974L224.201 89.1791H224.179L222.174 92.974H224.628Z" fill="#231815"/>
<path d="M228.849 87.4037H232.134C232.835 87.4037 233.368 87.5942 233.726 87.9752C234.168 88.4095 234.321 89.0267 234.176 89.8268C233.917 91.008 233.208 91.8081 232.05 92.2348L233.193 96.083H231.684L230.716 92.372H229.086L228.316 96.083H227.043L228.849 87.4037ZM229.329 91.2061H231.257C231.737 91.1985 232.126 91.0537 232.423 90.7794C232.713 90.5203 232.896 90.2002 232.972 89.8268C233.056 89.3696 232.987 89.042 232.751 88.8439C232.576 88.6686 232.278 88.5771 231.867 88.5771H229.87L229.322 91.2137L229.329 91.2061Z" fill="#231815"/>
<path d="M236.279 87.4037H241.651L241.392 88.6381H237.292L236.774 91.1223H240.272L240.028 92.2882H236.53L235.997 94.8409H240.096L239.837 96.0754H234.465L236.271 87.396L236.279 87.4037Z" fill="#231815"/>
<path d="M243.061 87.4037H248.433L248.174 88.6381H244.074L243.556 91.1223H247.053L246.81 92.2882H243.312L242.779 94.8409H246.878L246.619 96.0754H241.247L243.053 87.396L243.061 87.4037Z" fill="#231815"/>
<path d="M249.843 87.4037H253.127C253.828 87.4037 254.361 87.5942 254.719 87.9752C255.161 88.4095 255.314 89.0267 255.169 89.8268C254.91 91.008 254.201 91.8081 253.043 92.2348L254.186 96.083H252.677L251.709 92.372H250.079L249.309 96.083H248.037L249.843 87.4037ZM250.323 91.2061H252.25C252.731 91.1985 253.119 91.0537 253.416 90.7794C253.706 90.5203 253.889 90.2002 253.965 89.8268C254.049 89.3696 253.98 89.042 253.744 88.8439C253.569 88.6686 253.272 88.5771 252.86 88.5771H250.864L250.315 91.2137L250.323 91.2061Z" fill="#231815"/>
<path d="M256.182 91.4423H259.726L259.467 92.6768H255.923L256.182 91.4423Z" fill="#231815"/>
<path d="M260.975 93.9798C261.524 94.5513 262.263 94.8333 263.185 94.8485C264.283 94.8333 264.923 94.4294 265.098 93.6369C265.243 92.9892 264.953 92.6005 264.244 92.471C263.917 92.4253 263.559 92.372 263.162 92.311C262.469 92.1891 261.974 91.9147 261.684 91.4804C261.387 91.0384 261.303 90.505 261.433 89.8725C261.593 89.1105 261.958 88.5009 262.545 88.0361C263.117 87.5789 263.833 87.3427 264.702 87.3351C265.738 87.3579 266.584 87.6551 267.239 88.2342L266.302 89.3163C265.761 88.8896 265.113 88.661 264.359 88.6457C263.97 88.6457 263.62 88.7448 263.315 88.9505C262.995 89.1639 262.797 89.4763 262.698 89.8954C262.644 90.1469 262.698 90.3679 262.842 90.5736C262.987 90.7793 263.261 90.9241 263.658 91.0003C263.879 91.0384 264.183 91.0841 264.572 91.1375C265.334 91.2518 265.86 91.5414 266.134 92.0138C266.408 92.4786 266.485 93.0197 266.355 93.6369C265.967 95.2981 264.808 96.1363 262.88 96.1668C261.638 96.1668 260.648 95.7705 259.916 94.9857L260.96 93.995L260.975 93.9798Z" fill="#231815"/>
<path d="M268.801 87.4036H271.849C272.177 87.4036 272.489 87.4341 272.786 87.4951C273.076 87.5789 273.35 87.7465 273.617 88.0056C273.838 88.1961 273.998 88.4781 274.089 88.8362C274.188 89.1868 274.188 89.5982 274.089 90.0707C273.952 90.7108 273.617 91.2975 273.068 91.8233C272.504 92.3796 271.788 92.6615 270.919 92.6768H268.976L268.275 96.0677H267.003L268.809 87.3884L268.801 87.4036ZM269.235 91.4575H271.125C271.598 91.4499 271.986 91.2975 272.291 91.0003C272.58 90.7108 272.756 90.3983 272.832 90.0402C272.893 89.7506 272.901 89.5068 272.847 89.301C272.786 89.1182 272.68 88.981 272.535 88.8743C272.306 88.6991 272.024 88.6229 271.674 88.6305H269.83L269.243 91.4499L269.235 91.4575Z" fill="#231815"/>
<path d="M276.139 87.4037H277.412L275.606 96.083H274.333L276.139 87.4037Z" fill="#231815"/>
<path d="M279.286 87.4037H282.57C283.271 87.4037 283.805 87.5942 284.163 87.9752C284.605 88.4095 284.757 89.0267 284.613 89.8268C284.353 91.008 283.645 91.8081 282.487 92.2348L283.63 96.083H282.121L281.153 92.372H279.522L278.753 96.083H277.48L279.286 87.4037ZM279.766 91.2061H281.694C282.174 91.1985 282.563 91.0537 282.86 90.7794C283.149 90.5203 283.332 90.2002 283.409 89.8268C283.492 89.3696 283.424 89.042 283.188 88.8439C283.012 88.6686 282.715 88.5771 282.304 88.5771H280.307L279.759 91.2137L279.766 91.2061Z" fill="#231815"/>
<path d="M286.723 87.4037H287.996L286.19 96.083H284.917L286.723 87.4037Z" fill="#231815"/>
<path d="M291.051 88.5695H288.75L288.994 87.4037H294.877L294.633 88.5695H292.324L290.762 96.083H289.489L291.051 88.5695Z" fill="#231815"/>
</svg>
