<svg width="19" height="18" viewBox="0 0 19 18" fill="none" xmlns="http://www.w3.org/2000/svg">
<mask id="mask0_1166_19880" style="mask-type:alpha" maskUnits="userSpaceOnUse" x="0" y="0" width="19" height="18">
<rect x="0.155273" width="18" height="18" fill="#D9D9D9"/>
</mask>
<g mask="url(#mask0_1166_19880)">
<path d="M9.15235 9C8.32735 9 7.6211 8.70625 7.0336 8.11875C6.44609 7.53125 6.15234 6.825 6.15234 6C6.15234 5.175 6.44609 4.46875 7.0336 3.88125C7.6211 3.29375 8.32735 3 9.15235 3C9.97735 3 10.6836 3.29375 11.2711 3.88125C11.8586 4.46875 12.1523 5.175 12.1523 6C12.1523 6.825 11.8586 7.53125 11.2711 8.11875C10.6836 8.70625 9.97735 9 9.15235 9ZM3.15234 15V12.9C3.15234 12.475 3.26184 12.0843 3.48084 11.7278C3.69934 11.3718 3.98984 11.1 4.35234 10.9125C5.12734 10.525 5.91484 10.2343 6.71484 10.0403C7.51485 9.84675 8.32735 9.75 9.15235 9.75C9.97735 9.75 10.7898 9.84675 11.5898 10.0403C12.3898 10.2343 13.1773 10.525 13.9523 10.9125C14.3148 11.1 14.6053 11.3718 14.8238 11.7278C15.0428 12.0843 15.1523 12.475 15.1523 12.9V15H3.15234Z" fill="#15AD7C"/>
</g>
</svg>
