<svg width="450" height="430" viewBox="0 0 450 430" fill="none" xmlns="http://www.w3.org/2000/svg">
<g clip-path="url(#clip0_1192_20522)">
<path d="M302.483 425.826C381.655 425.826 445.836 361.484 445.836 282.114C445.836 202.745 381.655 138.403 302.483 138.403C223.311 138.403 159.129 202.745 159.129 282.114C159.129 361.484 223.311 425.826 302.483 425.826Z" fill="#E8F7F2"/>
<path d="M147.517 425.826C226.689 425.826 290.87 361.484 290.87 282.114C290.87 202.745 226.689 138.403 147.517 138.403C68.3447 138.403 4.16309 202.745 4.16309 282.114C4.16309 361.484 68.3447 425.826 147.517 425.826Z" fill="#E8F7F2"/>
<path d="M225 291.597C304.172 291.597 368.354 227.255 368.354 147.886C368.354 68.5158 304.172 4.17383 225 4.17383C145.828 4.17383 81.6465 68.5158 81.6465 147.886C81.6465 227.255 145.828 291.597 225 291.597Z" fill="#E8F7F2"/>
<path d="M302.483 430C282.569 430 263.251 426.089 245.06 418.376C227.494 410.925 211.719 400.265 198.171 386.683C184.623 373.101 173.989 357.286 166.557 339.677C158.863 321.441 154.962 302.074 154.962 282.11C154.962 262.146 158.863 242.779 166.557 224.544C173.989 206.934 184.623 191.119 198.171 177.537C211.719 163.955 227.494 153.295 245.06 145.845C263.251 138.131 282.569 134.22 302.483 134.22C322.397 134.22 341.716 138.131 359.906 145.845C377.472 153.295 393.248 163.955 406.796 177.537C420.344 191.119 430.977 206.934 438.409 224.544C446.103 242.779 450.005 262.146 450.005 282.11C450.005 302.074 446.103 321.441 438.409 339.677C430.977 357.286 420.344 373.101 406.796 386.683C393.248 400.265 377.472 410.925 359.906 418.376C341.716 426.089 322.397 430 302.483 430ZM302.483 142.576C265.303 142.576 230.351 157.089 204.062 183.447C177.774 209.805 163.293 244.845 163.293 282.114C163.293 319.383 177.77 354.427 204.062 380.781C230.355 407.135 265.307 421.652 302.483 421.652C339.659 421.652 374.616 407.139 400.904 380.781C427.193 354.423 441.673 319.383 441.673 282.114C441.673 244.845 427.197 209.801 400.904 183.447C374.612 157.093 339.659 142.576 302.483 142.576Z" fill="white"/>
<path d="M225 295.771C205.086 295.771 185.767 291.86 167.577 284.147C150.011 276.697 134.235 266.036 120.687 252.455C107.139 238.873 96.5057 223.058 89.0739 205.448C81.3797 187.212 77.4785 167.845 77.4785 147.882C77.4785 127.918 81.3797 108.551 89.0739 90.315C96.5057 72.7053 107.139 56.8904 120.687 43.3085C134.235 29.7266 150.011 19.0664 167.577 11.616C185.767 3.91095 205.086 0 225 0C244.914 0 264.233 3.91095 282.423 11.6243C299.989 19.0748 315.764 29.7349 329.312 43.3168C342.86 56.8987 353.494 72.7136 360.926 90.3233C368.62 108.559 372.521 127.926 372.521 147.89C372.521 167.854 368.62 187.221 360.926 205.456C353.494 223.066 342.86 238.881 329.312 252.463C315.764 266.045 299.989 276.705 282.423 284.155C264.233 291.869 244.914 295.78 225 295.78V295.771ZM225 8.34781C187.82 8.34781 152.867 22.8605 126.579 49.2187C100.29 75.5728 85.8097 110.617 85.8097 147.886C85.8097 185.154 100.286 220.199 126.579 246.553C152.867 272.907 187.824 287.424 225 287.424C262.176 287.424 297.133 272.911 323.421 246.553C349.709 220.199 364.19 185.154 364.19 147.886C364.19 110.617 349.714 75.5728 323.421 49.2187C297.133 22.8647 262.176 8.34781 225 8.34781Z" fill="white"/>
<path d="M147.517 430C127.603 430 108.284 426.089 90.0941 418.376C72.5283 410.925 56.7528 400.265 43.2047 386.683C29.6567 373.101 19.0231 357.287 11.5912 339.677C3.90121 321.445 0 302.074 0 282.114C0 262.155 3.90121 242.784 11.5954 224.548C19.0272 206.938 29.6608 191.123 43.2089 177.541C56.7569 163.96 72.5324 153.299 90.0983 145.849C108.289 138.136 127.607 134.225 147.521 134.225C167.435 134.225 186.754 138.136 204.944 145.849C222.51 153.299 238.286 163.96 251.834 177.541C265.382 191.123 276.015 206.938 283.447 224.548C291.141 242.784 295.043 262.151 295.043 282.114C295.043 302.078 291.141 321.445 283.447 339.681C276.015 357.291 265.382 373.106 251.834 386.688C238.286 400.269 222.51 410.93 204.944 418.38C186.754 426.093 167.435 430.004 147.521 430.004L147.517 430ZM147.517 142.577C110.337 142.577 75.3844 157.089 49.0961 183.448C22.8077 209.802 8.32701 244.846 8.32701 282.114C8.32701 319.383 22.8035 354.427 49.0961 380.781C75.3844 407.135 110.341 421.652 147.517 421.652C184.693 421.652 219.65 407.14 245.938 380.781C272.227 354.423 286.707 319.383 286.707 282.114C286.707 244.846 272.231 209.802 245.938 183.448C219.646 157.093 184.693 142.577 147.517 142.577Z" fill="white"/>
<path d="M203.84 111.316C204.813 112.986 206.561 113.684 209.107 113.784C212.102 113.909 217.993 113.834 221.438 113.559C221.088 114.258 220.664 115.629 220.514 116.451C217.419 116.601 212.127 116.651 209.082 116.526C206.111 116.402 204.114 115.679 202.617 113.759C201.618 114.731 200.595 115.679 199.322 116.751L197.924 113.809C198.897 113.186 200.021 112.363 201.019 111.515V106.08H198.223V103.363H203.84V111.316ZM202.067 100.147C201.369 98.9252 199.721 97.2049 198.323 96.0083L200.595 94.313C201.993 95.4348 203.715 97.0803 204.514 98.277L202.067 100.147ZM208.183 97.7035H204.888V95.4099H211.253V93.6897H214.124V95.4099H220.864V97.7035H217.993C217.668 98.3517 217.369 98.9252 217.094 99.4487H220.339V110.144C220.339 111.341 220.14 111.989 219.341 112.438C218.517 112.837 217.469 112.861 215.971 112.861C215.896 112.288 215.647 111.49 215.397 110.867H211.503V111.64H209.481V106.155H211.778V104.784H208.857V102.989H211.778V101.692H208.208V112.762H205.537V99.4487H208.383C208.233 98.9002 208.008 98.3019 207.759 97.8033L208.183 97.7035ZM214.398 99.4487C214.623 98.9252 214.848 98.277 215.047 97.7035H210.48C210.779 98.277 211.004 98.9252 211.079 99.4487H214.398ZM214.199 107.825H211.503V109.197H214.199V107.825ZM217.619 101.692H213.899V102.989H216.845V104.784H213.899V106.155H216.246V110.493H217.244C217.519 110.468 217.619 110.393 217.619 110.094V101.692Z" fill="#121212"/>
<path d="M232.126 107.95C231.976 110.992 231.452 114.557 229.904 117C229.43 116.501 228.207 115.579 227.558 115.23C229.205 112.562 229.33 108.673 229.33 105.806V99.4736H239.04V107.95H232.126ZM239.564 97.6038H228.531V94.9113H239.564V97.6038ZM232.176 102.116V105.282H236.194V102.116H232.176ZM251.346 104.958H249.124V116.975H246.179V104.958H243.283C243.059 108.773 242.135 113.609 238.815 116.925C238.416 116.302 237.318 115.28 236.619 114.931C240.088 111.415 240.438 106.479 240.438 102.789V95.9085L242.485 96.3822C244.806 95.709 247.128 94.8115 248.575 93.939L251.196 96.1827C248.9 97.2797 246.029 98.2021 243.333 98.8503V102.091H251.346V104.958Z" fill="#121212"/>
<path d="M192 72.187H194.272L195.732 77.3477L197.142 72.187H198.715L200.038 77.3601L201.485 72.187H203.757L201.348 80.9003H199.314L197.878 75.8394L196.456 80.9003H194.409L192 72.187Z" fill="#15AD7C"/>
<path d="M207.813 72.187H209.985L213.467 80.9003H211.208L210.509 79.1053H207.289L206.59 80.9003H204.318L207.813 72.187ZM209.96 77.41L208.899 74.4806L207.825 77.41H209.96Z" fill="#15AD7C"/>
<path d="M215.589 72.187H217.773L220.981 77.3726V72.187H223.19V80.9003H221.018L217.798 75.7022V80.9003H215.589V72.187Z" fill="#15AD7C"/>
<path d="M227.583 74.0444H225.124V72.187H232.263V74.0444H229.792V80.9003H227.583V74.0444Z" fill="#15AD7C"/>
<path d="M241.711 74.0444H239.252V72.187H246.391V74.0444H243.92V80.9003H241.711V74.0444Z" fill="#15AD7C"/>
<path d="M249.94 80.5139C249.228 80.1316 248.667 79.5956 248.255 78.91C247.843 78.2244 247.635 77.4391 247.635 76.5499C247.635 75.6607 247.843 74.8712 248.255 74.1814C248.667 73.4917 249.228 72.9557 249.94 72.5734C250.651 72.1911 251.446 72 252.332 72C253.218 72 253.996 72.1911 254.707 72.5734C255.419 72.9557 255.976 73.4917 256.388 74.1814C256.796 74.8712 257 75.6607 257 76.5499C257 77.4391 256.796 78.2285 256.388 78.91C255.98 79.5956 255.419 80.1316 254.707 80.5139C253.996 80.8961 253.201 81.0873 252.332 81.0873C251.462 81.0873 250.651 80.8961 249.94 80.5139ZM253.542 78.7188C253.908 78.5194 254.2 78.2327 254.416 77.8587C254.632 77.4848 254.741 77.0485 254.741 76.5499C254.741 76.0512 254.636 75.615 254.42 75.2493C254.208 74.8795 253.917 74.5928 253.555 74.3892C253.193 74.1856 252.781 74.0817 252.332 74.0817C251.882 74.0817 251.462 74.1856 251.096 74.3892C250.73 74.5928 250.443 74.8795 250.231 75.2493C250.019 75.6191 249.915 76.0512 249.915 76.5499C249.915 77.0485 250.019 77.4848 250.231 77.8587C250.443 78.2327 250.734 78.5194 251.104 78.7188C251.475 78.9183 251.887 79.018 252.336 79.018C252.785 79.018 253.18 78.9183 253.547 78.7188H253.542Z" fill="#15AD7C"/>
<path d="M87.6624 302.314C88.8946 304.08 90.2273 306.442 90.7051 308.059L87.9642 309.153C87.8636 308.755 87.7127 308.308 87.5116 307.835C84.1923 308.059 80.7724 308.258 78.2075 308.407L77.9561 305.597C78.5596 305.597 79.2134 305.572 79.9174 305.547C80.6215 303.98 81.3256 302.065 81.7531 300.548L84.8712 301.17C84.2929 302.612 83.6139 304.105 82.9853 305.423L86.3297 305.273C85.9525 304.577 85.5502 303.881 85.1478 303.234L87.6624 302.314ZM88.9198 320.867C88.9198 322.16 88.6683 322.881 87.8385 323.304C86.9835 323.776 85.8268 323.801 84.318 323.801C84.1671 323.03 83.7145 321.886 83.3625 321.19C84.2426 321.24 85.2484 321.215 85.5753 321.19C85.8771 321.19 85.9777 321.115 85.9777 320.817V319.151H82.2057V323.851H79.4397V309.576H88.9198V320.867ZM82.2057 312.013V313.306H85.9777V312.013H82.2057ZM85.9777 316.962V315.495H82.2057V316.962H85.9777ZM94.5525 311.814C91.6104 311.814 90.9063 310.944 90.9063 308.208V300.722H93.8735V304.279C95.5583 303.632 97.218 302.861 98.3998 302.215L100.311 304.353C98.3998 305.249 96.0612 306.044 93.8735 306.691V308.158C93.8735 309.054 94.0244 309.153 94.98 309.153H97.7209C98.5256 309.153 98.7016 308.78 98.8022 306.616C99.4057 307.064 100.638 307.537 101.443 307.711C101.116 310.894 100.336 311.814 98.0226 311.814H94.5525ZM97.8718 321.115C98.7267 321.115 98.9028 320.643 99.0285 318.131C99.6571 318.579 100.864 319.026 101.644 319.225C101.317 322.732 100.562 323.702 98.1484 323.702H94.5776C91.6355 323.702 90.9063 322.856 90.9063 320.12V312.311H93.8484V315.669C95.6338 314.948 97.3688 314.127 98.5759 313.331L100.562 315.495C98.6261 316.539 96.1367 317.435 93.8484 318.131V320.12C93.8484 320.991 94.0244 321.115 95.0051 321.115H97.8718Z" fill="#121212"/>
<path d="M130.31 305.821C130.31 305.821 130.285 306.84 130.235 307.238C129.732 317.136 129.229 320.866 128.122 322.16C127.368 323.13 126.639 323.403 125.557 323.552C124.627 323.677 123.068 323.677 121.534 323.602C121.484 322.707 121.081 321.389 120.503 320.543C122.087 320.668 123.571 320.668 124.225 320.668C124.753 320.668 125.054 320.593 125.406 320.27C126.161 319.499 126.664 316.241 127.066 308.855H120.025C119.623 314.003 117.863 320.046 110.797 324C110.319 323.254 109.187 322.135 108.458 321.588C114.694 318.23 116.379 313.207 116.807 308.855H109.238V305.821H116.932V300.698H120.126V305.821H130.31Z" fill="#121212"/>
<path d="M70.3453 290.911C69.8005 290.808 69.352 290.663 69 290.48V288.503C69.4526 288.735 69.9262 288.91 70.4166 289.026C70.9069 289.142 71.3763 289.2 71.8164 289.2C72.2271 289.2 72.5372 289.137 72.7468 289.013C72.9563 288.889 73.0611 288.711 73.0611 288.478C73.0611 288.304 73.0024 288.155 72.8893 288.027C72.7761 287.898 72.6085 287.778 72.3905 287.67C72.1726 287.562 71.8331 287.413 71.3721 287.223C70.5591 286.883 69.9681 286.505 69.5993 286.091C69.2347 285.677 69.0503 285.167 69.0503 284.562C69.0503 284.064 69.1928 283.621 69.4694 283.231C69.7502 282.841 70.1441 282.539 70.6429 282.323C71.1458 282.108 71.7242 282 72.378 282C72.9144 282 73.3922 282.041 73.8113 282.124C74.2304 282.207 74.6327 282.34 75.0183 282.522V284.45C74.2807 284.068 73.5389 283.878 72.7929 283.878C72.3905 283.878 72.072 283.944 71.8331 284.072C71.5942 284.201 71.4769 284.383 71.4769 284.624C71.4769 284.864 71.5984 285.059 71.8415 285.208C72.0846 285.357 72.533 285.56 73.1868 285.817C73.7819 286.058 74.243 286.294 74.5741 286.526C74.9051 286.758 75.1482 287.028 75.2991 287.334C75.45 287.641 75.5254 288.031 75.5254 288.503C75.5254 289.307 75.2278 289.937 74.6369 290.385C74.046 290.837 73.1617 291.065 71.9882 291.065C71.435 291.065 70.886 291.011 70.3411 290.907L70.3453 290.911Z" fill="#15AD7C"/>
<path d="M79.3851 284.039H76.9082V282.187H84.1V284.039H81.6105V290.878H79.3851V284.039Z" fill="#15AD7C"/>
<path d="M86.0488 282.187H89.9968C91.0278 282.187 91.8324 282.444 92.4192 282.957C93.0017 283.471 93.2909 284.209 93.2909 285.171C93.2909 285.817 93.1484 286.369 92.8634 286.825C92.5784 287.281 92.1761 287.62 91.6564 287.844L93.2155 290.878H90.9272L89.5316 288.155H88.2743V290.878H86.0488V282.187ZM89.607 286.302C90.0512 286.302 90.3949 286.219 90.638 286.05C90.8811 285.88 91.0026 285.589 91.0026 285.171C91.0026 284.752 90.8811 284.445 90.6464 284.28C90.4075 284.118 90.0596 284.039 89.607 284.039H88.2743V286.302H89.607Z" fill="#15AD7C"/>
<path d="M95.4287 282.187H101.665V284.039H97.6541V285.668H100.584V287.397H97.6541V289.026H101.665V290.878H95.4287V282.187Z" fill="#15AD7C"/>
<path d="M103.802 282.187H106.002L109.233 287.359V282.187H111.459V290.878H109.271L106.027 285.693V290.878H103.802V282.187Z" fill="#15AD7C"/>
<path d="M115.864 290.518C115.139 290.153 114.577 289.627 114.188 288.947C113.794 288.263 113.597 287.463 113.597 286.539C113.597 285.614 113.794 284.819 114.188 284.135C114.582 283.451 115.139 282.924 115.864 282.555C116.589 282.187 117.431 282.004 118.383 282.004C119.02 282.004 119.586 282.066 120.076 282.187C120.566 282.307 121.019 282.497 121.438 282.767V284.856C121.069 284.566 120.65 284.354 120.189 284.226C119.724 284.097 119.187 284.035 118.584 284.035C118.064 284.035 117.599 284.139 117.193 284.338C116.786 284.541 116.463 284.835 116.233 285.212C115.998 285.594 115.881 286.037 115.881 286.543C115.881 287.33 116.111 287.952 116.581 288.408C117.046 288.864 117.675 289.092 118.471 289.092C118.915 289.092 119.288 289.017 119.59 288.868V287.475H118.245V285.933H121.702V290.261C120.805 290.8 119.699 291.069 118.383 291.069C117.427 291.069 116.585 290.887 115.864 290.522V290.518Z" fill="#15AD7C"/>
<path d="M125.441 284.039H122.964V282.187H130.156V284.039H127.666V290.878H125.441V284.039Z" fill="#15AD7C"/>
<path d="M132.104 282.187H134.33V285.544H137.775V282.187H140V290.878H137.775V287.372H134.33V290.878H132.104V282.187Z" fill="#15AD7C"/>
<path d="M320.106 303.83V323.776H316.926V322.559H305.03V323.801H302V303.83H308.411C308.687 302.762 308.962 301.57 309.087 300.576L312.693 300.973C312.318 301.967 311.917 302.936 311.516 303.83H320.106ZM305.03 306.662V309.22H316.926V306.662H305.03ZM305.03 311.953V314.511H316.926V311.953H305.03ZM316.926 319.827V317.243H305.03V319.827H316.926Z" fill="#121212"/>
<path d="M341.869 300.899C343.446 304.054 346.577 307.655 349.307 309.742C348.505 310.363 347.353 311.555 346.777 312.4C346.251 311.928 345.725 311.381 345.174 310.81V310.984C344.899 318.486 344.598 321.417 343.722 322.46C343.096 323.255 342.42 323.503 341.443 323.627C340.592 323.752 339.139 323.752 337.661 323.702C337.611 322.808 337.211 321.566 336.685 320.721C338.062 320.82 339.364 320.845 339.99 320.845C340.441 320.845 340.717 320.796 340.992 320.498C341.493 319.976 341.769 317.765 341.994 312.574H337.06C336.434 317.343 334.807 321.59 328.32 324C327.945 323.155 327.068 321.938 326.342 321.268C332.002 319.454 333.304 316.2 333.805 312.574H329.573V310.835C328.921 311.506 328.245 312.102 327.569 312.623C327.018 311.953 325.741 310.76 325.015 310.239C328.145 308.152 330.9 304.724 332.402 300.949L335.608 301.868C334.381 304.724 332.628 307.457 330.649 309.692H344.173C342.194 307.407 340.316 304.675 338.939 302.066L341.869 300.899Z" fill="#121212"/>
<path d="M356.895 312.474C359.174 310.835 361.653 310.114 364.282 310.114C368.665 310.114 371.219 312.797 371.219 315.803C371.219 320.324 367.613 323.801 357.195 322.932L356.243 319.678C363.756 320.696 367.738 318.883 367.738 315.728C367.738 314.114 366.186 312.921 364.007 312.921C361.177 312.921 358.623 313.965 357.045 315.852C356.594 316.399 356.344 316.796 356.118 317.293L353.238 316.573C353.739 314.139 354.315 309.27 354.49 306.19L357.846 306.662C357.521 308.028 357.07 311.058 356.895 312.474ZM367.713 303.606L366.962 306.637C364.433 306.314 358.848 305.147 356.895 304.65L357.696 301.669C360.075 302.414 365.534 303.358 367.713 303.606Z" fill="#121212"/>
<path d="M381.637 305.271C381.537 307.953 381.337 313.517 381.337 316.598C381.337 319.106 382.839 319.926 384.792 319.926C388.925 319.926 391.554 317.566 393.357 314.859L395.636 317.591C394.033 319.976 390.477 323.304 384.767 323.304C380.66 323.304 378.006 321.516 378.006 317.268C378.006 313.94 378.256 307.407 378.256 305.271C378.256 304.103 378.156 302.911 377.931 301.917L381.963 301.967C381.812 303.01 381.687 304.277 381.637 305.271Z" fill="#121212"/>
<path d="M408.033 301.743L411.414 301.346C411.664 302.662 412.04 304.004 412.466 305.246C414.269 304.973 416.022 304.575 417.6 304.103L418 307.233C416.723 307.606 415.12 307.904 413.543 308.127C414.269 309.742 415.145 311.282 415.771 312.176C416.197 312.797 416.673 313.344 417.124 313.84L415.571 316.076C414.169 315.803 411.013 315.48 408.91 315.306L409.16 312.673C410.387 312.772 412.04 312.921 412.816 312.971C412.065 311.779 411.163 310.139 410.462 308.475C407.482 308.699 404.051 308.723 399.769 308.376L399.719 305.196C403.475 305.643 406.681 305.718 409.335 305.544C409.135 304.973 408.985 304.451 408.834 304.029C408.634 303.457 408.359 302.563 408.033 301.743ZM403.5 317.02C403.5 319.106 405.379 320.001 408.809 320.001C411.539 320.001 413.743 319.752 415.521 319.404L415.346 322.534C413.918 322.808 411.664 323.13 408.609 323.13C403.5 323.106 400.27 321.143 400.27 317.566C400.27 316.051 400.746 314.635 401.597 312.946L404.727 313.666C403.926 314.834 403.5 315.927 403.5 317.02Z" fill="#121212"/>
<path d="M329.519 282.186H333.375C334.394 282.186 335.208 282.451 335.817 282.981C336.426 283.511 336.731 284.252 336.731 285.204C336.731 286.157 336.43 286.939 335.825 287.473C335.22 288.007 334.402 288.276 333.375 288.276H331.735V290.872H329.519V282.186ZM333.025 286.421C333.467 286.421 333.813 286.33 334.068 286.148C334.323 285.966 334.452 285.651 334.452 285.204C334.452 284.757 334.327 284.451 334.076 284.285C333.826 284.12 333.475 284.037 333.025 284.037H331.735V286.421H333.025Z" fill="#15AD7C"/>
<path d="M340.737 282.186H342.916L346.41 290.868H344.143L343.442 289.079H340.212L339.51 290.868H337.231L340.737 282.186ZM342.891 287.39L341.827 284.472L340.75 287.39H342.891Z" fill="#15AD7C"/>
<path d="M349.064 290.901C348.522 290.797 348.075 290.653 347.725 290.47V288.496C348.175 288.727 348.647 288.901 349.135 289.017C349.624 289.133 350.091 289.191 350.529 289.191C350.938 289.191 351.247 289.129 351.456 289.005C351.665 288.881 351.769 288.703 351.769 288.471C351.769 288.297 351.711 288.148 351.598 288.02C351.485 287.891 351.318 287.771 351.101 287.663C350.884 287.556 350.546 287.407 350.087 287.216C349.277 286.877 348.689 286.5 348.321 286.086C347.954 285.672 347.771 285.163 347.771 284.559C347.771 284.062 347.908 283.619 348.188 283.23C348.468 282.84 348.86 282.538 349.357 282.323C349.857 282.108 350.433 282 351.085 282C351.619 282 352.095 282.041 352.512 282.124C352.929 282.207 353.33 282.339 353.714 282.522V284.447C352.98 284.066 352.241 283.875 351.498 283.875C351.097 283.875 350.78 283.942 350.542 284.07C350.304 284.198 350.187 284.38 350.187 284.621C350.187 284.861 350.308 285.055 350.55 285.204C350.792 285.353 351.239 285.556 351.89 285.813C352.483 286.053 352.942 286.289 353.272 286.521C353.601 286.753 353.843 287.022 353.994 287.328C354.144 287.635 354.219 288.024 354.219 288.496C354.219 289.299 353.923 289.928 353.334 290.375C352.746 290.826 351.865 291.054 350.696 291.054C350.145 291.054 349.599 291 349.056 290.897L349.064 290.901Z" fill="#15AD7C"/>
<path d="M357.129 290.901C356.586 290.797 356.14 290.653 355.789 290.47V288.496C356.24 288.727 356.711 288.901 357.2 289.017C357.688 289.133 358.156 289.191 358.594 289.191C359.003 289.191 359.312 289.129 359.52 289.005C359.729 288.881 359.834 288.703 359.834 288.471C359.834 288.297 359.775 288.148 359.662 288.02C359.55 287.891 359.383 287.771 359.166 287.663C358.949 287.556 358.611 287.407 358.151 287.216C357.342 286.877 356.753 286.5 356.386 286.086C356.019 285.672 355.835 285.163 355.835 284.559C355.835 284.062 355.973 283.619 356.252 283.23C356.532 282.84 356.924 282.538 357.421 282.323C357.922 282.108 358.498 282 359.149 282C359.683 282 360.159 282.041 360.576 282.124C360.994 282.207 361.395 282.339 361.779 282.522V284.447C361.044 284.066 360.305 283.875 359.562 283.875C359.162 283.875 358.844 283.942 358.606 284.07C358.369 284.198 358.252 284.38 358.252 284.621C358.252 284.861 358.373 285.055 358.615 285.204C358.857 285.353 359.303 285.556 359.955 285.813C360.547 286.053 361.006 286.289 361.336 286.521C361.666 286.753 361.908 287.022 362.058 287.328C362.208 287.635 362.284 288.024 362.284 288.496C362.284 289.299 361.987 289.928 361.399 290.375C360.81 290.826 359.93 291.054 358.761 291.054C358.21 291.054 357.663 291 357.121 290.897L357.129 290.901Z" fill="#15AD7C"/>
<path d="M364.416 282.186H366.632V290.868H364.416V282.186Z" fill="#15AD7C"/>
<path d="M371.069 290.483C370.355 290.102 369.792 289.572 369.379 288.889C368.966 288.206 368.757 287.423 368.757 286.533C368.757 285.643 368.966 284.861 369.379 284.173C369.792 283.486 370.355 282.952 371.069 282.571C371.783 282.19 372.58 282 373.469 282C374.358 282 375.139 282.19 375.852 282.571C376.566 282.952 377.125 283.486 377.539 284.173C377.948 284.861 378.152 285.647 378.152 286.533C378.152 287.419 377.948 288.206 377.539 288.889C377.13 289.572 376.566 290.106 375.852 290.483C375.139 290.864 374.341 291.054 373.469 291.054C372.597 291.054 371.783 290.864 371.069 290.483ZM374.684 288.694C375.051 288.496 375.343 288.21 375.56 287.837C375.777 287.465 375.886 287.03 375.886 286.533C375.886 286.036 375.781 285.606 375.564 285.237C375.352 284.869 375.059 284.583 374.696 284.38C374.333 284.178 373.92 284.074 373.469 284.074C373.018 284.074 372.597 284.178 372.229 284.38C371.862 284.583 371.574 284.869 371.361 285.237C371.148 285.606 371.044 286.041 371.044 286.533C371.044 287.026 371.148 287.465 371.361 287.837C371.574 288.21 371.866 288.496 372.238 288.694C372.609 288.893 373.023 288.992 373.473 288.992C373.924 288.992 374.321 288.893 374.688 288.694H374.684Z" fill="#15AD7C"/>
<path d="M380.281 282.186H382.473L385.691 287.353V282.186H387.907V290.868H385.728L382.498 285.689V290.868H380.281V282.186Z" fill="#15AD7C"/>
<path d="M224.999 161.184C187.07 185.66 161.406 227.578 159.278 275.637C178.968 285.838 201.309 291.602 224.999 291.602C248.69 291.602 271.031 285.838 290.72 275.637C288.593 227.582 262.929 185.66 224.999 161.184Z" fill="url(#paint0_linear_1192_20522)"/>
<path d="M225 295.771C201.501 295.771 178.115 290.091 157.368 279.343L155.003 278.116L155.12 275.449C156.177 251.545 163.093 228.033 175.121 207.456C186.812 187.446 203.283 170.233 222.747 157.673L225 156.221L227.252 157.673C246.717 170.233 263.183 187.446 274.879 207.456C286.907 228.037 293.823 251.549 294.88 275.449L294.997 278.116L292.632 279.343C271.885 290.091 248.499 295.771 225 295.771ZM163.584 273.136C182.761 282.619 203.412 287.424 225 287.424C246.588 287.424 267.239 282.619 286.416 273.136C285.038 251.511 278.588 230.316 267.692 211.675C257.113 193.569 242.387 177.888 225 166.18C207.613 177.888 192.887 193.569 182.307 211.675C171.411 230.316 164.962 251.511 163.584 273.136Z" fill="white"/>
<path d="M220.378 216.868C219.704 219.222 218.63 221.175 217.231 222.753C218.48 223.579 219.979 224.205 221.627 224.606C221.053 225.157 220.279 226.234 219.879 226.935C218.105 226.409 216.556 225.633 215.232 224.606C213.958 225.583 212.534 226.359 210.986 226.935C210.711 226.359 210.161 225.533 209.662 224.932V226.96H206.814V224.932C203.941 225.207 201.093 225.458 198.895 225.658L198.67 223.104C199.319 223.054 200.069 223.028 200.843 222.953V215.34H198.895V212.986H221.103V215.34H209.662V224.506C210.936 224.08 212.16 223.479 213.209 222.703C212.31 221.626 211.535 220.374 210.936 218.996L212.584 218.546H210.286V216.267H218.055L218.555 216.167L220.378 216.868ZM218.23 212.059H201.818V204.371H218.23V212.059ZM203.566 215.34V216.342H206.814V215.34H203.566ZM203.566 219.472H206.814V218.42H203.566V219.472ZM203.566 222.753C204.615 222.678 205.715 222.603 206.814 222.503V221.526H203.566V222.753ZM215.257 206.274H204.665V207.301H215.257V206.274ZM215.257 209.104H204.665V210.156H215.257V209.104ZM213.434 218.546C213.858 219.447 214.433 220.274 215.107 221C215.782 220.274 216.356 219.447 216.806 218.546H213.434Z" fill="white"/>
<path d="M242.288 213.362C243.936 218.245 246.959 222.177 251.63 224.08C250.881 224.706 249.907 226.034 249.432 226.885C244.911 224.756 242.013 221.1 240.064 216.267C238.715 220.449 236.017 224.356 230.721 226.91C230.247 226.084 229.372 225.007 228.498 224.381C234.219 221.826 236.592 217.669 237.566 213.362H228.973V210.281H238.066C238.316 207.927 238.291 205.648 238.316 203.595H241.563C241.538 205.648 241.513 207.952 241.263 210.281H251.081V213.362H242.288Z" fill="white"/>
<path d="M205.99 237.028C205.366 238.681 204.591 240.359 203.742 241.961V259.492H200.944V246.419C200.445 247.095 199.945 247.721 199.42 248.272C199.146 247.571 198.371 245.993 197.896 245.267C200.045 243.088 202.093 239.632 203.317 236.176L205.99 237.028ZM216.957 241.235V244.365H221.179V258.816H218.331V257.538H208.438V258.966H205.691V244.365H209.713V241.235H205.441V238.58H221.304V241.235H216.957ZM208.438 254.984H209.987V246.945H208.438V254.984ZM212.485 246.945V254.984H214.159V246.945H212.485ZM214.159 241.235H212.51V244.365H214.159V241.235ZM218.331 246.945H216.657V254.984H218.331V246.945Z" fill="white"/>
<path d="M236.292 237.103C235.643 238.831 234.819 240.584 233.894 242.262V259.467H231.071V246.669C230.522 247.396 229.947 248.072 229.373 248.673C229.098 247.947 228.298 246.294 227.799 245.592C230.047 243.339 232.195 239.782 233.47 236.201L236.292 237.103ZM251.506 258.365H238.765V259.492H236.018V243.789H238.765V255.81H251.506V258.365ZM242.663 242.337C242.713 241.911 242.762 241.435 242.812 240.959H236.592V238.405H243.012C243.062 237.629 243.112 236.852 243.137 236.151L246.11 236.276C246.06 236.953 245.985 237.679 245.91 238.405H251.356V240.959H245.635C245.56 241.435 245.51 241.911 245.435 242.337H250.332V254.508H240.264V242.337H242.663ZM247.459 244.491H243.012V245.768H247.459V244.491ZM247.459 247.771H243.012V249.048H247.459V247.771ZM247.459 251.052H243.012V252.354H247.459V251.052Z" fill="white"/>
</g>
<defs>
<linearGradient id="paint0_linear_1192_20522" x1="289.26" y1="244.838" x2="159.276" y2="245.582" gradientUnits="userSpaceOnUse">
<stop stop-color="#15AD7C"/>
<stop offset="1" stop-color="#4ED8AB"/>
</linearGradient>
<clipPath id="clip0_1192_20522">
<rect width="450" height="430" fill="white"/>
</clipPath>
</defs>
</svg>
