<svg width="450" height="430" viewBox="0 0 450 430" fill="none" xmlns="http://www.w3.org/2000/svg">
<g clip-path="url(#clip0_1062_2059)">
<path d="M302.483 425.826C381.655 425.826 445.836 361.484 445.836 282.114C445.836 202.745 381.655 138.403 302.483 138.403C223.311 138.403 159.129 202.745 159.129 282.114C159.129 361.484 223.311 425.826 302.483 425.826Z" fill="#E8F7F2"/>
<path d="M147.517 425.826C226.689 425.826 290.87 361.484 290.87 282.114C290.87 202.745 226.689 138.403 147.517 138.403C68.3447 138.403 4.16309 202.745 4.16309 282.114C4.16309 361.484 68.3447 425.826 147.517 425.826Z" fill="#E8F7F2"/>
<path d="M225 291.597C304.172 291.597 368.354 227.255 368.354 147.886C368.354 68.5158 304.172 4.17383 225 4.17383C145.828 4.17383 81.6467 68.5158 81.6467 147.886C81.6467 227.255 145.828 291.597 225 291.597Z" fill="#E8F7F2"/>
<path d="M302.483 430C282.569 430 263.251 426.089 245.06 418.376C227.494 410.925 211.719 400.265 198.171 386.683C184.623 373.101 173.989 357.286 166.557 339.677C158.863 321.441 154.962 302.074 154.962 282.11C154.962 262.146 158.863 242.779 166.557 224.544C173.989 206.934 184.623 191.119 198.171 177.537C211.719 163.955 227.494 153.295 245.06 145.845C263.251 138.131 282.569 134.22 302.483 134.22C322.397 134.22 341.716 138.131 359.906 145.845C377.472 153.295 393.248 163.955 406.796 177.537C420.344 191.119 430.977 206.934 438.409 224.544C446.103 242.779 450.005 262.146 450.005 282.11C450.005 302.074 446.103 321.441 438.409 339.677C430.977 357.286 420.344 373.101 406.796 386.683C393.248 400.265 377.472 410.925 359.906 418.376C341.716 426.089 322.397 430 302.483 430ZM302.483 142.576C265.303 142.576 230.351 157.089 204.062 183.447C177.774 209.805 163.293 244.845 163.293 282.114C163.293 319.383 177.77 354.427 204.062 380.781C230.355 407.135 265.307 421.652 302.483 421.652C339.659 421.652 374.616 407.139 400.904 380.781C427.193 354.423 441.673 319.383 441.673 282.114C441.673 244.845 427.197 209.801 400.904 183.447C374.612 157.093 339.659 142.576 302.483 142.576Z" fill="white"/>
<path d="M225 295.771C205.086 295.771 185.767 291.86 167.577 284.147C150.011 276.697 134.235 266.036 120.687 252.455C107.139 238.873 96.5057 223.058 89.0739 205.448C81.3797 187.212 77.4785 167.845 77.4785 147.882C77.4785 127.918 81.3797 108.551 89.0739 90.315C96.5057 72.7053 107.139 56.8904 120.687 43.3085C134.235 29.7266 150.011 19.0664 167.577 11.616C185.767 3.91095 205.086 0 225 0C244.914 0 264.233 3.91095 282.423 11.6243C299.989 19.0748 315.764 29.7349 329.312 43.3168C342.86 56.8987 353.494 72.7136 360.926 90.3233C368.62 108.559 372.521 127.926 372.521 147.89C372.521 167.854 368.62 187.221 360.926 205.456C353.494 223.066 342.86 238.881 329.312 252.463C315.764 266.045 299.989 276.705 282.423 284.155C264.233 291.869 244.914 295.78 225 295.78V295.771ZM225 8.34781C187.82 8.34781 152.867 22.8605 126.579 49.2187C100.29 75.5728 85.8097 110.617 85.8097 147.886C85.8097 185.154 100.286 220.199 126.579 246.553C152.867 272.907 187.824 287.424 225 287.424C262.176 287.424 297.133 272.911 323.421 246.553C349.709 220.199 364.19 185.154 364.19 147.886C364.19 110.617 349.714 75.5728 323.421 49.2187C297.133 22.8647 262.176 8.34781 225 8.34781Z" fill="white"/>
<path d="M147.517 430C127.603 430 108.284 426.089 90.0941 418.376C72.5283 410.925 56.7528 400.265 43.2047 386.683C29.6567 373.101 19.0231 357.287 11.5912 339.677C3.90121 321.445 0 302.074 0 282.114C0 262.155 3.90121 242.784 11.5954 224.548C19.0272 206.938 29.6608 191.123 43.2089 177.541C56.7569 163.96 72.5324 153.299 90.0983 145.849C108.289 138.136 127.607 134.225 147.521 134.225C167.435 134.225 186.754 138.136 204.944 145.849C222.51 153.299 238.286 163.96 251.834 177.541C265.382 191.123 276.015 206.938 283.447 224.548C291.141 242.784 295.043 262.151 295.043 282.114C295.043 302.078 291.141 321.445 283.447 339.681C276.015 357.291 265.382 373.106 251.834 386.688C238.286 400.269 222.51 410.93 204.944 418.38C186.754 426.093 167.435 430.004 147.521 430.004L147.517 430ZM147.517 142.577C110.337 142.577 75.3844 157.089 49.0961 183.448C22.8077 209.802 8.32701 244.846 8.32701 282.114C8.32701 319.383 22.8035 354.427 49.0961 380.781C75.3844 407.135 110.341 421.652 147.517 421.652C184.693 421.652 219.65 407.14 245.938 380.781C272.227 354.423 286.707 319.383 286.707 282.114C286.707 244.846 272.231 209.802 245.938 183.448C219.646 157.093 184.693 142.577 147.517 142.577Z" fill="white"/>
<path d="M176.008 100.846C177.92 104.501 181.059 107.863 184.566 109.69C183.83 110.275 182.825 111.493 182.31 112.321C180.887 111.444 179.539 110.348 178.313 109.057V111.834H174.242V115.951H171.177V111.834H166.959V109.276C165.782 110.494 164.482 111.542 163.133 112.394C162.618 111.663 161.687 110.543 161 109.982C164.458 108.106 167.547 104.598 169.436 100.846H161.956V97.9226H171.177V93.2205H174.242V97.9226H183.536V100.846H176.008ZM171.177 108.886V103.575C170.073 105.524 168.774 107.327 167.327 108.886H171.177ZM178.141 108.886C176.67 107.327 175.345 105.5 174.242 103.526V108.886H178.141Z" fill="#121212"/>
<path d="M209.701 100.7V103.282H187.754V100.7H193.271C193.075 99.8472 192.658 98.7509 192.217 97.9225L193.222 97.7276H189.103V95.1695H197.121V93.196H200.187V95.1695H208.573V97.7276H204.674L205.729 97.9469C205.238 98.9458 204.797 99.9447 204.38 100.7H209.701ZM191.212 104.769H206.66V115.903H203.595V115.147H194.13V115.927H191.212V104.769ZM194.13 107.156V108.813H203.595V107.156H194.13ZM203.595 112.735V111.006H194.13V112.735H203.595ZM195.307 97.7276C195.822 98.629 196.263 99.7498 196.41 100.529L195.675 100.7H201.903L201.29 100.554C201.658 99.7741 202.099 98.6534 202.345 97.7276H195.307Z" fill="#121212"/>
<path d="M225.812 114.977L223.973 112.078C224.905 111.98 225.591 111.834 226.253 111.688C229.392 110.957 231.844 108.715 231.844 105.158C231.844 101.796 230.005 99.2868 226.695 98.7265C226.351 100.797 225.934 103.039 225.223 105.329C223.752 110.25 221.643 113.271 218.97 113.271C216.297 113.271 213.992 110.299 213.992 106.182C213.992 100.554 218.897 95.7542 225.248 95.7542C231.599 95.7542 235.155 99.9446 235.155 105.256C235.155 110.567 231.991 114.027 225.812 114.977ZM219.068 109.519C220.098 109.519 221.055 107.984 222.06 104.695C222.624 102.893 223.09 100.822 223.36 98.7996C219.313 99.6279 217.131 103.185 217.131 105.865C217.131 108.326 218.112 109.519 219.068 109.519Z" fill="#121212"/>
<path d="M257.175 102.698C257.175 105.183 258.156 110.494 262.3 113.442C261.785 114.051 260.952 115.269 260.51 116C257.519 113.929 256.072 109.739 255.753 107.643C255.41 109.787 253.791 113.807 250.383 116C250.162 115.561 249.721 114.879 249.304 114.295H243.566V115.683H240.893V107.181C240.721 107.351 240.549 107.497 240.353 107.643C239.936 106.986 239.078 105.962 238.44 105.524C241.113 103.526 242.928 100.87 243.933 98.629H246.557C247.587 99.5792 248.691 100.749 249.623 101.869C251.045 99.7498 251.928 96.4851 252.344 93.196L255.336 93.6102C255.14 94.8771 254.919 96.0953 254.625 97.2891H259.529L259.971 97.1916L261.884 97.6789C261.54 99.9934 261.025 102.649 260.535 104.33L258.254 103.672C258.475 102.698 258.696 101.309 258.892 99.9203H257.175V102.698ZM244.865 94.3898C243.909 96.6556 242.266 99.0432 240.77 100.529C240.255 100.018 239.127 98.9945 238.44 98.556C239.887 97.3622 241.236 95.4375 241.996 93.5615L244.865 94.3898ZM248.691 105.694C247.98 104.379 246.852 102.771 245.674 101.553C244.841 102.844 243.786 104.281 242.462 105.694H248.691ZM246.852 108.277H243.566V111.736H246.852V108.277ZM248.911 99.2869C248.323 98.0443 246.925 96.0953 245.723 94.7309L247.955 93.391C249.157 94.7309 250.652 96.5338 251.29 97.8007L248.911 99.2869ZM249.573 112.955C253.472 109.934 254.331 105.061 254.331 102.673V99.9203H253.84C253.276 101.528 252.614 102.941 251.83 104.062C251.56 103.843 251.094 103.526 250.628 103.234C250.898 103.624 251.143 104.038 251.339 104.403L249.573 106.206V112.955Z" fill="#121212"/>
<path d="M273.899 109.227C271.472 110.786 268.75 112.467 266.616 113.686L264.802 111.006C266.837 110.007 270 108.253 272.919 106.571L273.899 109.227ZM286.479 101.918C285.008 103.599 283.144 105.426 281.648 106.742C283.39 108.862 285.523 110.591 288 111.712C287.289 112.297 286.332 113.466 285.842 114.295C282.409 112.467 279.76 109.495 277.774 105.865V112.394C277.774 114.1 277.455 114.904 276.425 115.367C275.395 115.878 273.826 115.976 271.643 115.951C271.521 115.123 271.079 113.783 270.638 112.906C272.134 112.979 273.679 112.955 274.169 112.955C274.66 112.955 274.807 112.808 274.807 112.37V99.6767H265.562V96.8749H274.807V93.2204H277.774V96.8749H282.776C281.771 96.1927 280.447 95.4375 279.392 94.9015L281.084 93.0742C282.556 93.7564 284.616 94.8284 285.646 95.608L284.518 96.8749H287.239V99.6767H277.774V99.9203C278.362 101.553 279.147 103.112 280.055 104.574C281.428 103.258 282.948 101.553 283.904 100.14L286.479 101.918ZM270.197 106.425C269.51 105.207 267.867 103.307 266.518 102.016L268.75 100.456C270.123 101.699 271.815 103.453 272.575 104.72L270.197 106.425Z" fill="#121212"/>
<path d="M192.449 72.1826H194.681L196.115 77.2258L197.501 72.1826H199.046L200.345 77.238L201.768 72.1826H203.999L201.633 80.6976H199.634L198.224 75.7518L196.826 80.6976H194.816L192.449 72.1826Z" fill="#EA5504"/>
<path d="M207.988 72.1826H210.121L213.542 80.6976H211.323L210.636 78.9434H207.473L206.786 80.6976H204.555L207.988 72.1826ZM210.097 77.2867L209.054 74.424L208 77.2867H210.097Z" fill="#EA5504"/>
<path d="M215.623 72.1826H217.769L220.92 77.2502V72.1826H223.09V80.6976H220.957L217.793 75.6178V80.6976H215.623V72.1826Z" fill="#EA5504"/>
<path d="M227.405 73.9977H224.99V72.1826H232.003V73.9977H229.576V80.6976H227.405V73.9977Z" fill="#EA5504"/>
<path d="M241.285 73.9977H238.869V72.1826H245.882V73.9977H243.455V80.6976H241.285V73.9977Z" fill="#EA5504"/>
<path d="M249.373 80.32C248.674 79.9465 248.123 79.4227 247.718 78.7527C247.313 78.0827 247.113 77.3152 247.113 76.4463C247.113 75.5773 247.313 74.8058 247.718 74.1318C248.123 73.4577 248.674 72.9339 249.373 72.5604C250.072 72.1868 250.853 72 251.719 72C252.586 72 253.358 72.1868 254.053 72.5604C254.752 72.9339 255.299 73.4577 255.704 74.1318C256.109 74.8058 256.305 75.5773 256.305 76.4463C256.305 77.3152 256.104 78.0867 255.704 78.7527C255.303 79.4227 254.756 79.9465 254.053 80.32C253.354 80.6936 252.573 80.8804 251.719 80.8804C250.865 80.8804 250.068 80.6936 249.373 80.32ZM252.908 78.5659C253.268 78.371 253.554 78.0908 253.767 77.7254C253.979 77.3599 254.085 76.9336 254.085 76.4463C254.085 75.959 253.979 75.5327 253.771 75.1753C253.562 74.818 253.276 74.5338 252.917 74.3348C252.557 74.1358 252.156 74.0343 251.715 74.0343C251.274 74.0343 250.861 74.1358 250.501 74.3348C250.142 74.5338 249.86 74.814 249.651 75.1753C249.443 75.5367 249.336 75.959 249.336 76.4463C249.336 76.9336 249.443 77.3599 249.651 77.7254C249.86 78.0908 250.146 78.371 250.509 78.5659C250.873 78.7608 251.278 78.8582 251.719 78.8582C252.161 78.8582 252.549 78.7608 252.908 78.5659Z" fill="#EA5504"/>
<path d="M87.6624 302.314C88.8946 304.08 90.2273 306.442 90.7051 308.059L87.9642 309.153C87.8636 308.755 87.7127 308.308 87.5116 307.835C84.1923 308.059 80.7724 308.258 78.2075 308.407L77.9561 305.597C78.5596 305.597 79.2134 305.572 79.9174 305.547C80.6215 303.98 81.3256 302.065 81.7531 300.548L84.8712 301.17C84.2929 302.612 83.6139 304.105 82.9853 305.423L86.3297 305.273C85.9525 304.577 85.5502 303.881 85.1478 303.234L87.6624 302.314ZM88.9198 320.867C88.9198 322.16 88.6683 322.881 87.8385 323.304C86.9835 323.776 85.8268 323.801 84.318 323.801C84.1671 323.03 83.7145 321.886 83.3625 321.19C84.2426 321.24 85.2484 321.215 85.5753 321.19C85.8771 321.19 85.9777 321.115 85.9777 320.817V319.151H82.2057V323.851H79.4397V309.576H88.9198V320.867ZM82.2057 312.013V313.306H85.9777V312.013H82.2057ZM85.9777 316.962V315.495H82.2057V316.962H85.9777ZM94.5525 311.814C91.6104 311.814 90.9063 310.944 90.9063 308.208V300.722H93.8735V304.279C95.5583 303.632 97.218 302.861 98.3998 302.215L100.311 304.353C98.3998 305.249 96.0612 306.044 93.8735 306.691V308.158C93.8735 309.054 94.0244 309.153 94.98 309.153H97.7209C98.5256 309.153 98.7016 308.78 98.8022 306.616C99.4057 307.064 100.638 307.537 101.443 307.711C101.116 310.894 100.336 311.814 98.0226 311.814H94.5525ZM97.8718 321.115C98.7267 321.115 98.9028 320.643 99.0285 318.131C99.6571 318.579 100.864 319.026 101.644 319.225C101.317 322.732 100.562 323.702 98.1484 323.702H94.5776C91.6355 323.702 90.9063 322.856 90.9063 320.12V312.311H93.8484V315.669C95.6338 314.948 97.3688 314.127 98.5759 313.331L100.562 315.495C98.6261 316.539 96.1367 317.435 93.8484 318.131V320.12C93.8484 320.991 94.0244 321.115 95.0051 321.115H97.8718Z" fill="#121212"/>
<path d="M130.31 305.821C130.31 305.821 130.285 306.84 130.235 307.238C129.732 317.136 129.229 320.866 128.122 322.16C127.368 323.13 126.639 323.403 125.557 323.552C124.627 323.677 123.068 323.677 121.534 323.602C121.484 322.707 121.081 321.389 120.503 320.543C122.087 320.668 123.571 320.668 124.225 320.668C124.753 320.668 125.054 320.593 125.406 320.27C126.161 319.499 126.664 316.241 127.066 308.855H120.025C119.623 314.003 117.863 320.046 110.797 324C110.319 323.254 109.187 322.135 108.458 321.588C114.694 318.23 116.379 313.207 116.807 308.855H109.238V305.821H116.932V300.698H120.126V305.821H130.31Z" fill="#121212"/>
<path d="M70.3451 290.911C69.8002 290.808 69.3518 290.663 68.9998 290.48V288.503C69.4524 288.735 69.926 288.91 70.4163 289.026C70.9067 289.142 71.3761 289.2 71.8161 289.2C72.2268 289.2 72.537 289.137 72.7465 289.013C72.9561 288.889 73.0609 288.711 73.0609 288.478C73.0609 288.304 73.0022 288.155 72.889 288.027C72.7759 287.898 72.6082 287.778 72.3903 287.67C72.1724 287.562 71.8329 287.413 71.3719 287.223C70.5588 286.883 69.9679 286.505 69.5991 286.091C69.2345 285.677 69.05 285.167 69.05 284.562C69.05 284.064 69.1925 283.621 69.4691 283.231C69.7499 282.841 70.1439 282.539 70.6426 282.323C71.1456 282.108 71.7239 282 72.3777 282C72.9142 282 73.3919 282.041 73.811 282.124C74.2301 282.207 74.6325 282.34 75.0181 282.522V284.45C74.2804 284.068 73.5386 283.878 72.7926 283.878C72.3903 283.878 72.0718 283.944 71.8329 284.072C71.594 284.201 71.4766 284.383 71.4766 284.624C71.4766 284.864 71.5982 285.059 71.8413 285.208C72.0843 285.357 72.5328 285.56 73.1866 285.817C73.7817 286.058 74.2427 286.294 74.5738 286.526C74.9049 286.758 75.148 287.028 75.2989 287.334C75.4497 287.641 75.5252 288.031 75.5252 288.503C75.5252 289.307 75.2276 289.937 74.6367 290.385C74.0457 290.837 73.1614 291.065 71.988 291.065C71.4347 291.065 70.8857 291.011 70.3409 290.907L70.3451 290.911Z" fill="#EA5504"/>
<path d="M79.3848 284.039H76.908V282.187H84.0997V284.039H81.6103V290.878H79.3848V284.039Z" fill="#EA5504"/>
<path d="M86.0488 282.187H89.9968C91.0278 282.187 91.8324 282.444 92.4192 282.957C93.0017 283.471 93.2909 284.209 93.2909 285.171C93.2909 285.817 93.1484 286.369 92.8634 286.825C92.5784 287.281 92.1761 287.62 91.6564 287.844L93.2155 290.878H90.9272L89.5316 288.155H88.2743V290.878H86.0488V282.187ZM89.607 286.302C90.0512 286.302 90.3949 286.219 90.638 286.05C90.8811 285.88 91.0026 285.589 91.0026 285.171C91.0026 284.752 90.8811 284.445 90.6464 284.28C90.4075 284.118 90.0596 284.039 89.607 284.039H88.2743V286.302H89.607Z" fill="#EA5504"/>
<path d="M95.4282 282.187H101.664V284.039H97.6537V285.668H100.583V287.397H97.6537V289.026H101.664V290.878H95.4282V282.187Z" fill="#EA5504"/>
<path d="M103.802 282.187H106.002L109.233 287.359V282.187H111.458V290.878H109.271L106.027 285.693V290.878H103.802V282.187Z" fill="#EA5504"/>
<path d="M115.864 290.518C115.139 290.153 114.577 289.627 114.187 288.947C113.793 288.263 113.596 287.463 113.596 286.539C113.596 285.614 113.793 284.819 114.187 284.135C114.581 283.451 115.139 282.924 115.864 282.555C116.589 282.187 117.431 282.004 118.383 282.004C119.02 282.004 119.585 282.066 120.076 282.187C120.566 282.307 121.019 282.497 121.438 282.767V284.856C121.069 284.566 120.65 284.354 120.189 284.226C119.724 284.097 119.187 284.035 118.584 284.035C118.064 284.035 117.599 284.139 117.192 284.338C116.786 284.541 116.463 284.835 116.233 285.212C115.998 285.594 115.881 286.037 115.881 286.543C115.881 287.33 116.111 287.952 116.58 288.408C117.046 288.864 117.674 289.092 118.471 289.092C118.915 289.092 119.288 289.017 119.59 288.868V287.475H118.244V285.933H121.702V290.261C120.805 290.8 119.699 291.069 118.383 291.069C117.427 291.069 116.585 290.887 115.864 290.522V290.518Z" fill="#EA5504"/>
<path d="M125.441 284.039H122.964V282.187H130.155V284.039H127.666V290.878H125.441V284.039Z" fill="#EA5504"/>
<path d="M132.104 282.187H134.33V285.544H137.775V282.187H140V290.878H137.775V287.372H134.33V290.878H132.104V282.187Z" fill="#EA5504"/>
<path d="M320.106 303.83V323.776H316.926V322.559H305.03V323.801H302V303.83H308.411C308.687 302.762 308.962 301.57 309.087 300.576L312.693 300.973C312.318 301.967 311.917 302.936 311.516 303.83H320.106ZM305.03 306.662V309.22H316.926V306.662H305.03ZM305.03 311.953V314.511H316.926V311.953H305.03ZM316.926 319.827V317.243H305.03V319.827H316.926Z" fill="#121212"/>
<path d="M341.869 300.899C343.446 304.054 346.577 307.655 349.307 309.742C348.505 310.363 347.353 311.555 346.777 312.4C346.251 311.928 345.725 311.381 345.174 310.81V310.984C344.899 318.486 344.598 321.417 343.722 322.46C343.096 323.255 342.42 323.503 341.443 323.627C340.592 323.752 339.139 323.752 337.661 323.702C337.611 322.808 337.211 321.566 336.685 320.721C338.062 320.82 339.364 320.845 339.99 320.845C340.441 320.845 340.717 320.796 340.992 320.498C341.493 319.976 341.769 317.765 341.994 312.574H337.06C336.434 317.343 334.807 321.59 328.32 324C327.945 323.155 327.068 321.938 326.342 321.268C332.002 319.454 333.304 316.2 333.805 312.574H329.573V310.835C328.921 311.506 328.245 312.102 327.569 312.623C327.018 311.953 325.741 310.76 325.015 310.239C328.145 308.152 330.9 304.724 332.402 300.949L335.608 301.868C334.381 304.724 332.628 307.457 330.649 309.692H344.173C342.194 307.407 340.316 304.675 338.939 302.066L341.869 300.899Z" fill="#121212"/>
<path d="M356.895 312.474C359.174 310.835 361.653 310.114 364.282 310.114C368.665 310.114 371.219 312.797 371.219 315.803C371.219 320.324 367.613 323.801 357.195 322.932L356.243 319.678C363.756 320.696 367.738 318.883 367.738 315.728C367.738 314.114 366.186 312.921 364.007 312.921C361.177 312.921 358.623 313.965 357.045 315.852C356.594 316.399 356.344 316.796 356.118 317.293L353.238 316.573C353.739 314.139 354.315 309.27 354.49 306.19L357.846 306.662C357.521 308.028 357.07 311.058 356.895 312.474ZM367.713 303.606L366.962 306.637C364.433 306.314 358.848 305.147 356.895 304.65L357.696 301.669C360.075 302.414 365.534 303.358 367.713 303.606Z" fill="#121212"/>
<path d="M381.637 305.271C381.537 307.953 381.337 313.517 381.337 316.598C381.337 319.106 382.839 319.926 384.792 319.926C388.925 319.926 391.554 317.566 393.357 314.859L395.636 317.591C394.033 319.976 390.477 323.304 384.767 323.304C380.66 323.304 378.006 321.516 378.006 317.268C378.006 313.94 378.256 307.407 378.256 305.271C378.256 304.103 378.156 302.911 377.931 301.917L381.963 301.967C381.812 303.01 381.687 304.277 381.637 305.271Z" fill="#121212"/>
<path d="M408.033 301.743L411.414 301.346C411.664 302.662 412.04 304.004 412.466 305.246C414.269 304.973 416.022 304.575 417.6 304.103L418 307.233C416.723 307.606 415.12 307.904 413.543 308.127C414.269 309.742 415.145 311.282 415.771 312.176C416.197 312.797 416.673 313.344 417.124 313.84L415.571 316.076C414.169 315.803 411.013 315.48 408.91 315.306L409.16 312.673C410.387 312.772 412.04 312.921 412.816 312.971C412.065 311.779 411.163 310.139 410.462 308.475C407.482 308.699 404.051 308.723 399.769 308.376L399.719 305.196C403.475 305.643 406.681 305.718 409.335 305.544C409.135 304.973 408.985 304.451 408.834 304.029C408.634 303.457 408.359 302.563 408.033 301.743ZM403.5 317.02C403.5 319.106 405.379 320.001 408.809 320.001C411.539 320.001 413.743 319.752 415.521 319.404L415.346 322.534C413.918 322.808 411.664 323.13 408.609 323.13C403.5 323.106 400.27 321.143 400.27 317.566C400.27 316.051 400.746 314.635 401.597 312.946L404.727 313.666C403.926 314.834 403.5 315.927 403.5 317.02Z" fill="#121212"/>
<path d="M329.519 282.186H333.375C334.394 282.186 335.208 282.451 335.817 282.981C336.426 283.511 336.731 284.252 336.731 285.204C336.731 286.157 336.43 286.939 335.825 287.473C335.22 288.007 334.402 288.276 333.375 288.276H331.735V290.872H329.519V282.186ZM333.025 286.421C333.467 286.421 333.813 286.33 334.068 286.148C334.323 285.966 334.452 285.651 334.452 285.204C334.452 284.757 334.327 284.451 334.076 284.285C333.826 284.12 333.475 284.037 333.025 284.037H331.735V286.421H333.025Z" fill="#EA5504"/>
<path d="M340.737 282.186H342.916L346.41 290.868H344.143L343.442 289.079H340.212L339.51 290.868H337.231L340.737 282.186ZM342.891 287.39L341.827 284.472L340.75 287.39H342.891Z" fill="#EA5504"/>
<path d="M349.064 290.901C348.522 290.797 348.075 290.653 347.725 290.47V288.496C348.175 288.727 348.647 288.901 349.135 289.017C349.624 289.133 350.091 289.191 350.529 289.191C350.938 289.191 351.247 289.129 351.456 289.005C351.665 288.881 351.769 288.703 351.769 288.471C351.769 288.297 351.711 288.148 351.598 288.02C351.485 287.891 351.318 287.771 351.101 287.663C350.884 287.556 350.546 287.407 350.087 287.216C349.277 286.877 348.689 286.5 348.321 286.086C347.954 285.672 347.771 285.163 347.771 284.559C347.771 284.062 347.908 283.619 348.188 283.23C348.468 282.84 348.86 282.538 349.357 282.323C349.857 282.108 350.433 282 351.085 282C351.619 282 352.095 282.041 352.512 282.124C352.929 282.207 353.33 282.339 353.714 282.522V284.447C352.98 284.066 352.241 283.875 351.498 283.875C351.097 283.875 350.78 283.942 350.542 284.07C350.304 284.198 350.187 284.38 350.187 284.621C350.187 284.861 350.308 285.055 350.55 285.204C350.792 285.353 351.239 285.556 351.89 285.813C352.483 286.053 352.942 286.289 353.272 286.521C353.601 286.753 353.843 287.022 353.994 287.328C354.144 287.635 354.219 288.024 354.219 288.496C354.219 289.299 353.923 289.928 353.334 290.375C352.746 290.826 351.865 291.054 350.696 291.054C350.145 291.054 349.599 291 349.056 290.897L349.064 290.901Z" fill="#EA5504"/>
<path d="M357.129 290.901C356.586 290.797 356.139 290.653 355.789 290.47V288.496C356.24 288.727 356.711 288.901 357.2 289.017C357.688 289.133 358.155 289.191 358.594 289.191C359.003 289.191 359.312 289.129 359.52 289.005C359.729 288.881 359.833 288.703 359.833 288.471C359.833 288.297 359.775 288.148 359.662 288.02C359.549 287.891 359.383 287.771 359.165 287.663C358.948 287.556 358.61 287.407 358.151 287.216C357.341 286.877 356.753 286.5 356.386 286.086C356.018 285.672 355.835 285.163 355.835 284.559C355.835 284.062 355.972 283.619 356.252 283.23C356.532 282.84 356.924 282.538 357.421 282.323C357.922 282.108 358.498 282 359.149 282C359.683 282 360.159 282.041 360.576 282.124C360.994 282.207 361.394 282.339 361.778 282.522V284.447C361.044 284.066 360.305 283.875 359.562 283.875C359.161 283.875 358.844 283.942 358.606 284.07C358.368 284.198 358.251 284.38 358.251 284.621C358.251 284.861 358.372 285.055 358.615 285.204C358.857 285.353 359.303 285.556 359.954 285.813C360.547 286.053 361.006 286.289 361.336 286.521C361.666 286.753 361.908 287.022 362.058 287.328C362.208 287.635 362.283 288.024 362.283 288.496C362.283 289.299 361.987 289.928 361.398 290.375C360.81 290.826 359.929 291.054 358.761 291.054C358.21 291.054 357.663 291 357.12 290.897L357.129 290.901Z" fill="#EA5504"/>
<path d="M364.416 282.186H366.633V290.868H364.416V282.186Z" fill="#EA5504"/>
<path d="M371.069 290.483C370.356 290.102 369.792 289.572 369.379 288.889C368.966 288.206 368.757 287.423 368.757 286.533C368.757 285.643 368.966 284.861 369.379 284.173C369.792 283.486 370.356 282.952 371.069 282.571C371.783 282.19 372.58 282 373.469 282C374.358 282 375.139 282.19 375.853 282.571C376.566 282.952 377.126 283.486 377.539 284.173C377.948 284.861 378.152 285.647 378.152 286.533C378.152 287.419 377.948 288.206 377.539 288.889C377.13 289.572 376.566 290.106 375.853 290.483C375.139 290.864 374.342 291.054 373.469 291.054C372.597 291.054 371.783 290.864 371.069 290.483ZM374.684 288.694C375.051 288.496 375.343 288.21 375.56 287.837C375.778 287.465 375.886 287.03 375.886 286.533C375.886 286.036 375.782 285.606 375.565 285.237C375.352 284.869 375.06 284.583 374.696 284.38C374.333 284.178 373.92 284.074 373.469 284.074C373.019 284.074 372.597 284.178 372.23 284.38C371.862 284.583 371.574 284.869 371.362 285.237C371.149 285.606 371.044 286.041 371.044 286.533C371.044 287.026 371.149 287.465 371.362 287.837C371.574 288.21 371.867 288.496 372.238 288.694C372.61 288.893 373.023 288.992 373.474 288.992C373.924 288.992 374.321 288.893 374.688 288.694H374.684Z" fill="#EA5504"/>
<path d="M380.281 282.186H382.472L385.69 287.353V282.186H387.907V290.868H385.728L382.497 285.689V290.868H380.281V282.186Z" fill="#EA5504"/>
<path d="M224.999 161.184C187.07 185.66 161.406 227.578 159.279 275.637C178.968 285.838 201.309 291.602 224.999 291.602C248.69 291.602 271.031 285.838 290.72 275.637C288.593 227.582 262.929 185.66 224.999 161.184Z" fill="url(#paint0_linear_1062_2059)"/>
<path d="M225 295.771C201.501 295.771 178.115 290.091 157.368 279.343L155.003 278.116L155.12 275.449C156.177 251.545 163.093 228.033 175.121 207.456C186.812 187.446 203.283 170.233 222.748 157.673L225 156.221L227.252 157.673C246.717 170.233 263.184 187.446 274.879 207.456C286.907 228.037 293.823 251.549 294.88 275.449L294.997 278.116L292.632 279.343C271.885 290.091 248.499 295.771 225 295.771ZM163.584 273.136C182.761 282.619 203.412 287.424 225 287.424C246.588 287.424 267.239 282.619 286.416 273.136C285.038 251.511 278.589 230.316 267.693 211.675C257.113 193.569 242.387 177.888 225 166.18C207.613 177.888 192.887 193.569 182.307 211.675C171.412 230.316 164.962 251.511 163.584 273.136Z" fill="white"/>
<path d="M220.379 216.868C219.704 219.222 218.63 221.175 217.231 222.753C218.48 223.579 219.979 224.205 221.628 224.606C221.053 225.157 220.279 226.234 219.879 226.935C218.105 226.409 216.557 225.633 215.233 224.606C213.959 225.583 212.535 226.359 210.986 226.935C210.711 226.359 210.161 225.533 209.662 224.932V226.96H206.814V224.932C203.941 225.207 201.093 225.458 198.895 225.658L198.67 223.104C199.32 223.054 200.069 223.028 200.844 222.953V215.34H198.895V212.986H221.103V215.34H209.662V224.506C210.936 224.08 212.16 223.479 213.209 222.703C212.31 221.626 211.535 220.374 210.936 218.996L212.585 218.546H210.286V216.267H218.055L218.555 216.167L220.379 216.868ZM218.23 212.059H201.818V204.371H218.23V212.059ZM203.566 215.34V216.342H206.814V215.34H203.566ZM203.566 219.472H206.814V218.42H203.566V219.472ZM203.566 222.753C204.616 222.678 205.715 222.603 206.814 222.503V221.526H203.566V222.753ZM215.258 206.274H204.666V207.301H215.258V206.274ZM215.258 209.104H204.666V210.156H215.258V209.104ZM213.434 218.546C213.859 219.447 214.433 220.274 215.108 221C215.782 220.274 216.357 219.447 216.806 218.546H213.434Z" fill="white"/>
<path d="M242.288 213.362C243.937 218.245 246.959 222.177 251.631 224.08C250.881 224.706 249.907 226.034 249.432 226.885C244.911 224.756 242.013 221.1 240.065 216.267C238.716 220.449 236.018 224.356 230.722 226.91C230.247 226.084 229.373 225.007 228.498 224.381C234.219 221.826 236.592 217.669 237.566 213.362H228.973V210.281H238.066C238.316 207.927 238.291 205.648 238.316 203.595H241.563C241.538 205.648 241.513 207.952 241.264 210.281H251.081V213.362H242.288Z" fill="white"/>
<path d="M205.99 237.028C205.366 238.681 204.591 240.359 203.742 241.961V259.492H200.944V246.419C200.445 247.095 199.945 247.721 199.42 248.272C199.146 247.571 198.371 245.993 197.896 245.267C200.045 243.088 202.093 239.632 203.317 236.176L205.99 237.028ZM216.957 241.235V244.365H221.179V258.816H218.331V257.538H208.438V258.966H205.691V244.365H209.713V241.235H205.441V238.58H221.304V241.235H216.957ZM208.438 254.984H209.987V246.945H208.438V254.984ZM212.485 246.945V254.984H214.159V246.945H212.485ZM214.159 241.235H212.51V244.365H214.159V241.235ZM218.331 246.945H216.657V254.984H218.331V246.945Z" fill="white"/>
<path d="M236.292 237.103C235.643 238.831 234.819 240.584 233.894 242.262V259.467H231.071V246.669C230.522 247.396 229.947 248.072 229.373 248.673C229.098 247.947 228.298 246.294 227.799 245.592C230.047 243.339 232.195 239.782 233.47 236.201L236.292 237.103ZM251.506 258.365H238.765V259.492H236.018V243.789H238.765V255.81H251.506V258.365ZM242.663 242.337C242.713 241.911 242.762 241.435 242.812 240.959H236.592V238.405H243.012C243.062 237.629 243.112 236.852 243.137 236.151L246.11 236.276C246.06 236.953 245.985 237.679 245.91 238.405H251.356V240.959H245.635C245.56 241.435 245.51 241.911 245.435 242.337H250.332V254.508H240.264V242.337H242.663ZM247.459 244.491H243.012V245.768H247.459V244.491ZM247.459 247.771H243.012V249.048H247.459V247.771ZM247.459 251.052H243.012V252.354H247.459V251.052Z" fill="white"/>
</g>
<defs>
<linearGradient id="paint0_linear_1062_2059" x1="289.26" y1="244.838" x2="159.276" y2="245.582" gradientUnits="userSpaceOnUse">
<stop stop-color="#EA5504"/>
<stop offset="1" stop-color="#FFC869"/>
</linearGradient>
<clipPath id="clip0_1062_2059">
<rect width="450" height="430" fill="white"/>
</clipPath>
</defs>
</svg>
