<svg width="229" height="44" viewBox="0 0 229 44" fill="none" xmlns="http://www.w3.org/2000/svg">
<path d="M29.584 30.064C29.488 34.672 25.936 36.112 22.288 36.304C17.2 36.592 9.28 36.64 4.336 36.64C0.736001 36.64 0.736001 31.504 4.288 31.648C9.424 31.84 18.16 31.84 21.712 31.6C23.152 31.504 24.4 30.688 24.496 28.912C24.64 26.032 24.64 21.136 24.544 18.64C24.496 17.056 23.344 16.192 21.52 16.144C17.296 16 9.712 16.288 4.72 16.528C0.976 16.72 0.784001 12.016 4.48 11.872C9.76 11.632 18.4 11.536 23.2 11.632C27.952 11.728 29.632 14.56 29.632 17.776C29.632 20.704 29.68 25.792 29.584 30.064ZM79.216 24.16H49.072C47.344 24.16 46.528 23.008 46.528 21.856C46.528 20.656 47.44 19.408 49.072 19.408H79.216C80.848 19.408 81.664 20.608 81.664 21.808C81.664 22.96 80.848 24.16 79.216 24.16ZM115.6 23.728C115.216 29.824 111.28 38.656 101.392 42.064C96.544 43.744 95.344 38.464 98.8 37.6C106.96 35.536 110.176 28.288 110.752 23.728C105.568 23.728 100.384 23.824 96.592 23.92C93.712 24.016 93.424 19.648 96.592 19.6C100.144 19.504 105.472 19.456 110.848 19.456C110.848 17.44 110.8 15.28 110.8 13.696C107.296 14.272 103.936 14.56 101.392 14.512C97.84 14.416 97.984 9.856 101.488 10.096C106.384 10.432 115.168 8.608 119.104 6.976C123.232 5.248 124.144 10.192 121.504 11.104C119.776 11.728 117.76 12.256 115.696 12.736C115.744 14.608 115.744 17.152 115.696 19.456C120.736 19.456 125.152 19.504 127.408 19.552C130.768 19.6 130.672 23.968 127.312 23.872C124.672 23.776 120.352 23.728 115.6 23.728ZM160.096 7.648H160.048C158.752 7.648 158.128 6.736 158.128 5.776C158.128 4.768 158.8 3.808 160.096 3.76C162.64 3.712 165.952 3.664 169.12 3.664C171.328 3.664 173.536 3.712 175.36 3.712C178.192 3.76 180.304 5.344 180.304 9.04C180.304 9.616 180.16 13.792 179.104 16.672C177.904 19.984 175.6 21.52 172.336 21.52C170.32 21.52 168.304 21.328 168.304 19.168C168.304 18.064 168.976 16.96 170.176 16.96C170.368 16.96 170.512 16.96 170.704 17.008C171.28 17.152 171.808 17.248 172.288 17.248C173.68 17.248 174.592 16.528 175.12 15.04C175.36 14.416 176.08 11.584 176.08 9.232C176.08 8.08 175.456 7.552 174.544 7.552C173.2 7.504 171.52 7.504 169.792 7.504C169.264 13.984 166.192 18.64 161.392 21.952C160.72 22.432 160.048 22.624 159.472 22.624C158.224 22.624 157.36 21.664 157.36 20.608C157.36 19.936 157.744 19.168 158.656 18.592C162.928 15.952 165.328 12.544 165.712 7.552C163.648 7.552 161.68 7.6 160.096 7.648ZM178.816 37.504C178.72 40.096 177.088 41.92 174.112 42.16C172.864 42.256 171.328 42.304 169.744 42.304C163.888 42.304 160.24 42.304 160.048 37.6C160 36.784 160 35.92 160 35.008C160 32.752 160.096 30.352 160.144 28.672C160.24 26.128 162.016 24.4 164.656 24.256C166 24.208 167.536 24.16 169.024 24.16C170.8 24.16 172.576 24.208 174.016 24.256C176.416 24.352 178.624 25.984 178.72 28.48C178.768 30.256 178.864 32.848 178.864 35.056C178.864 35.968 178.864 36.784 178.816 37.504ZM146.224 41.2V41.152L146.368 24.304C146.32 24.304 141.04 25.024 140.464 25.024C139.312 25.024 138.688 24.016 138.688 23.056C138.688 22.192 139.216 21.328 140.224 21.28C140.848 21.232 141.616 21.184 142.48 21.136C143.392 20.128 144.4 18.88 145.36 17.488C143.728 15.808 141.088 13.84 139.936 13.072C139.312 12.64 139.024 12.064 139.024 11.488C139.024 10.528 139.792 9.568 140.944 9.568C141.28 9.568 141.616 9.664 142 9.856L142.288 10C143.632 7.84 145.312 4.336 145.936 1.744C146.176 0.783998 146.992 0.351998 147.856 0.351998C149.008 0.351998 150.256 1.12 150.256 2.368C150.256 3.952 146.992 9.904 145.408 12.256C146.176 12.88 146.896 13.552 147.568 14.176C149.056 11.728 150.4 9.184 151.216 7.216C151.552 6.352 152.272 6.016 152.992 6.016C154.192 6.016 155.392 6.88 155.392 8.128C155.392 9.376 151.84 15.376 147.76 20.608C149.344 20.416 150.832 20.272 151.936 20.128C150.88 18.64 150.832 18.496 150.832 18.064C150.832 17.152 151.744 16.48 152.704 16.48C154.768 16.48 157.408 21.472 157.408 23.248C157.408 24.64 156.352 25.6 155.296 25.6C154.576 25.6 153.904 25.12 153.616 24.064C153.52 23.776 153.472 23.44 153.376 23.152C152.704 23.296 151.744 23.44 150.64 23.632L150.736 41.152C150.736 42.64 149.584 43.408 148.432 43.408C147.328 43.408 146.224 42.688 146.224 41.2ZM156.064 37.072C155.2 37.072 154.384 36.544 154.192 35.296C153.856 33.28 152.8 30.784 151.984 29.392C151.744 29.008 151.648 28.672 151.648 28.336C151.648 27.376 152.512 26.752 153.472 26.752C154.048 26.752 154.672 26.992 155.152 27.52C156.688 29.248 158.368 33.52 158.368 34.624C158.368 36.112 157.168 37.072 156.064 37.072ZM142 38.992C141.472 39.808 140.656 40.192 139.888 40.192C138.784 40.192 137.776 39.424 137.776 38.32C137.776 37.888 137.92 37.456 138.208 36.976C139.552 34.768 140.704 31.408 141.04 28.624C141.184 27.472 142.048 26.944 142.96 26.944C144.064 26.944 145.168 27.712 145.168 29.056C145.168 30.784 143.68 36.4 142 38.992ZM174.496 35.056C174.496 33.28 174.448 30.88 174.4 29.536C174.304 27.904 173.584 27.904 169.312 27.904C168.16 27.904 166.96 27.904 166.096 27.952C164.272 28 164.224 28.768 164.224 34.624C164.224 38.272 164.32 38.272 169.456 38.272C173.872 38.272 174.496 38.224 174.496 35.056ZM228.928 17.728C228.928 19.072 227.728 20.464 226.144 20.464C223.168 20.464 212.992 11.152 209.344 6.976C208.912 6.448 208.48 6.112 208.048 6.112C207.712 6.112 207.28 6.4 206.848 6.976C203.008 11.92 196.624 17.872 191.584 21.184C190.864 21.664 190.192 21.856 189.568 21.856C188.08 21.856 187.024 20.656 187.024 19.408C187.024 18.592 187.456 17.728 188.512 17.2C193.984 14.368 199.984 8.56 203.536 3.856C204.64 2.416 206.128 1.696 207.712 1.696C209.248 1.696 210.88 2.368 212.224 3.856C216.832 8.8 222.016 12.832 227.632 15.712C228.544 16.192 228.928 16.96 228.928 17.728ZM211.984 41.152V17.152C211.984 15.664 213.184 14.944 214.432 14.944C215.68 14.944 216.928 15.712 216.928 17.152V41.152C216.928 42.64 215.68 43.408 214.48 43.408C213.232 43.408 211.984 42.64 211.984 41.152ZM199.552 17.536V17.488C199.552 16.048 200.704 15.328 201.904 15.328C203.152 15.328 204.4 16.096 204.448 17.536C204.448 17.776 204.448 18.16 204.448 18.64C204.448 20.608 204.4 24.016 204.352 25.168C204.064 41.584 190.24 43.744 189.568 43.744C187.888 43.744 187.072 42.496 187.072 41.296C187.072 40.336 187.6 39.376 188.704 39.136C197.632 37.216 199.6 30.064 199.6 24.976C199.6 23.44 199.552 19.072 199.552 17.536Z" fill="#405873"/>
</svg>
