<svg width="559" height="168" viewBox="0 0 559 168" fill="none" xmlns="http://www.w3.org/2000/svg">
<path d="M97.1408 12.28C96.3008 12.68 95.1808 12.56 94.6608 11.48C94.2208 10.52 93.3008 9.2 92.1808 8.52C90.2208 7.32 92.5408 4.48 94.7408 5.92C96.2608 6.92 97.5008 7.92 98.2608 9.68C98.7408 10.8 97.9808 11.88 97.1408 12.28ZM106.061 36.28C96.9408 35.36 94.5408 26.88 97.9408 21.88C98.5008 21.04 98.6208 20.88 97.7808 21.16C96.4208 21.64 94.2208 22.56 93.5408 22.96C92.6208 23.52 90.9408 23.96 90.0608 23.4C88.1808 22.24 88.6608 20.2 90.5008 19.64C91.2608 19.4 94.2608 18.88 95.1008 18.16C98.3808 15.28 101.981 9.08 104.341 5.4C106.261 2.44 109.901 5.32 108.101 7.64C105.421 11.08 102.381 15.12 99.9808 17.16C99.5408 17.56 100.101 17.4 100.261 17.32C100.501 17.2 100.981 17.04 101.581 16.88C104.181 16.16 107.701 15.24 110.461 15.24C112.541 15.24 113.061 17 112.501 18.16C112.141 18.92 111.141 19.52 109.141 19.28C107.821 19.12 105.461 19.48 104.501 19.68C102.461 20.16 102.061 20.76 100.981 22.4C98.1808 26.64 100.661 32.12 106.621 31.72C110.461 31.48 110.461 36.72 106.061 36.28ZM143.341 7.76C140.501 7.24 137.621 6.04 135.941 5.08C133.661 3.8 135.341 0.679997 138.141 1.96C139.861 2.72 142.141 3.36 144.341 3.72C147.621 4.28 146.301 8.32 143.341 7.76ZM139.701 36.68C137.061 38.64 134.421 35.36 136.781 33.68C143.941 28.64 146.141 21.56 144.501 16.92C143.381 13.8 140.381 13.64 137.621 15.28C136.821 15.76 134.621 16.88 133.741 17.12C130.581 17.92 129.581 14 132.501 12.96C133.541 12.6 134.821 12.16 135.941 11.68C140.021 9.88 145.901 10.04 148.021 14.64C151.101 21.32 147.701 30.8 139.701 36.68ZM192.861 16.36C190.981 15.16 188.941 14.56 186.621 14.68C184.421 14.8 184.261 11.48 186.821 11.24C189.461 11 192.261 11.48 194.181 12.64C196.901 14.28 194.821 17.6 192.861 16.36ZM174.821 12.36C172.781 12.76 171.061 12.6 169.541 12.16C167.101 11.48 167.861 7.8 170.701 8.72C172.021 9.16 174.101 9.12 176.181 8.6C176.581 7.28 176.781 6 176.981 4.56C177.341 2.2 180.861 2.64 180.781 4.92C180.741 5.52 180.501 6.4 180.221 7.36C180.701 7.12 181.141 6.92 181.501 6.68C183.301 5.4 185.821 7.88 183.261 9.72C182.261 10.44 180.621 11.08 178.981 11.56C177.101 16.08 174.381 20.88 171.821 25.04C170.341 27.44 166.501 25.88 168.261 23.28C170.501 19.96 172.861 16.56 174.821 12.36ZM187.421 31.12C186.261 34.32 181.261 37.12 176.421 34.68C172.701 32.8 172.261 28.48 176.381 26.64C178.861 25.52 181.581 25.44 184.061 25.88C184.061 25.44 184.061 25 184.061 24.48C184.061 23.48 183.981 22.48 183.941 21.48C183.901 20.68 183.981 19.56 184.141 18.8C184.621 16.6 188.141 17.12 187.741 19.52C187.621 20.12 187.501 20.56 187.501 21.4C187.501 22.32 187.501 23.32 187.541 24.48C187.581 25.24 187.661 26.08 187.701 26.96C189.821 27.84 191.581 29.08 192.581 30.16C194.861 32.68 191.621 35.52 189.701 33.2C189.101 32.48 188.341 31.76 187.421 31.12ZM183.861 29.24C181.821 28.56 179.661 28.48 177.701 29.44C176.621 30 176.541 31.16 177.741 31.76C180.141 32.96 183.381 31.8 183.821 29.64C183.861 29.52 183.821 29.36 183.861 29.24ZM221.301 10.36C220.781 10.44 220.221 10.56 219.581 10.72C217.661 11.2 216.221 8.64 217.901 7.72C218.101 7.6 218.501 7.4 218.221 7.2C217.381 6.68 216.021 6.04 215.381 5.32C213.661 3.44 216.301 1.32 218.301 2.76C219.021 3.28 220.381 3.88 221.541 4.64C222.701 5.4 223.741 6.36 223.821 7.56C223.901 8.72 223.301 10.04 221.301 10.36ZM226.581 33.76C224.901 34.8 222.381 35.72 219.741 36.24C216.501 36.88 215.461 32.92 218.861 32.24C220.941 31.84 222.981 31.24 224.221 30.52C228.621 27.96 229.821 25.2 228.981 23.6C228.141 22 225.221 21.4 220.981 23.32C218.621 24.4 216.101 26.28 215.621 26.76C213.261 29.04 211.661 27.92 210.941 26.52C210.221 25.12 210.301 22.64 210.621 19.72C210.941 16.8 211.461 13.72 211.781 11.68C212.181 9.12 215.821 9.2 215.461 12.08C215.261 13.76 214.821 16 214.501 17.92C214.181 19.88 213.981 21.36 214.261 22.08C214.381 22.4 214.581 22.4 214.941 22.2C215.741 21.76 217.621 20.72 219.501 19.92C231.581 14.68 240.101 25.48 226.581 33.76ZM272.861 16.36C270.981 15.16 268.941 14.56 266.621 14.68C264.421 14.8 264.261 11.48 266.821 11.24C269.461 11 272.261 11.48 274.181 12.64C276.901 14.28 274.821 17.6 272.861 16.36ZM254.821 12.36C252.781 12.76 251.061 12.6 249.541 12.16C247.101 11.48 247.861 7.8 250.701 8.72C252.021 9.16 254.101 9.12 256.181 8.6C256.581 7.28 256.781 6 256.981 4.56C257.341 2.2 260.861 2.64 260.781 4.92C260.741 5.52 260.501 6.4 260.221 7.36C260.701 7.12 261.141 6.92 261.501 6.68C263.301 5.4 265.821 7.88 263.261 9.72C262.261 10.44 260.621 11.08 258.981 11.56C257.101 16.08 254.381 20.88 251.821 25.04C250.341 27.44 246.501 25.88 248.261 23.28C250.501 19.96 252.861 16.56 254.821 12.36ZM267.421 31.12C266.261 34.32 261.261 37.12 256.421 34.68C252.701 32.8 252.261 28.48 256.381 26.64C258.861 25.52 261.581 25.44 264.061 25.88C264.061 25.44 264.061 25 264.061 24.48C264.061 23.48 263.981 22.48 263.941 21.48C263.901 20.68 263.981 19.56 264.141 18.8C264.621 16.6 268.141 17.12 267.741 19.52C267.621 20.12 267.501 20.56 267.501 21.4C267.501 22.32 267.501 23.32 267.541 24.48C267.581 25.24 267.661 26.08 267.701 26.96C269.821 27.84 271.581 29.08 272.581 30.16C274.861 32.68 271.621 35.52 269.701 33.2C269.101 32.48 268.341 31.76 267.421 31.12ZM263.861 29.24C261.821 28.56 259.661 28.48 257.701 29.44C256.621 30 256.541 31.16 257.741 31.76C260.141 32.96 263.381 31.8 263.821 29.64C263.861 29.52 263.821 29.36 263.861 29.24ZM316.421 21.72C316.741 24.64 312.781 25.44 312.221 22.68C311.581 19.48 309.941 16.4 307.781 14.92C305.861 13.6 308.021 10.64 310.421 12.44C313.261 14.56 316.021 18.32 316.421 21.72ZM298.941 28.32C296.381 32.48 292.821 32.12 290.581 29.72C287.701 26.6 286.381 21.96 286.061 16.92C285.901 14.64 285.821 13.92 285.861 12.48C285.941 9.96 289.821 9.44 289.941 12.44C290.021 14 289.861 14.08 289.941 15.92C290.101 20.12 290.861 24.08 293.101 26.24C294.141 27.24 294.661 27.36 295.541 26.16C296.021 25.48 296.581 24.44 296.861 23.8C297.941 21.48 301.261 23.16 300.501 25.24C300.101 26.36 299.381 27.6 298.941 28.32ZM351.099 17.84C348.859 17.08 345.219 16.64 343.099 17.44C341.019 18.2 339.779 14.92 342.419 14C344.459 13.28 348.099 12.8 352.019 14.2C354.699 15.16 353.619 18.68 351.099 17.84ZM351.099 34.04C345.299 35.2 340.339 33.36 338.579 31.4C336.859 29.48 339.339 26.32 341.419 28.44C343.459 30.52 345.899 30.32 350.579 29.92C353.499 29.68 353.739 33.52 351.099 34.04ZM336.179 13.08C333.659 21.84 330.819 28.76 328.859 33.2C327.659 35.88 323.419 34.72 325.099 31.32C326.819 27.8 329.659 21.72 332.099 13.96C329.979 14.2 327.939 14.12 326.259 13.4C324.219 12.52 324.619 8.88 327.619 9.96C329.299 10.56 331.259 10.56 333.139 10.2C333.379 8.72 333.219 7.64 333.099 5.88C332.939 3.6 336.699 3.48 337.099 5.68C337.259 6.68 337.259 7.76 337.139 8.88C337.699 8.6 338.179 8.32 338.659 8.04C340.739 6.68 343.219 10 340.219 11.48C339.099 12.04 337.659 12.64 336.179 13.08ZM377.499 25.96C376.979 26.64 376.459 27.24 375.939 27.8C371.219 32.88 367.019 31.12 365.939 26.08C365.099 22.24 367.019 17.84 370.339 14.68C370.059 13.84 369.779 12.96 369.579 12.08C369.379 11.28 368.979 9.44 368.819 8.6C368.139 5.28 372.659 5.32 372.819 8.16C372.899 9.36 372.979 10.04 373.219 11.48C373.259 11.76 373.339 12.08 373.419 12.36C373.699 12.2 373.939 12.04 374.219 11.92C376.259 10.88 378.659 10.32 381.059 10.24C381.379 8.64 381.579 7 381.579 5.92C381.539 3.12 385.699 3.44 385.539 6.36C385.459 7.76 385.299 9.08 384.979 10.6C388.699 11.44 391.899 13.76 393.019 17.84C395.099 25.24 390.179 30.76 383.259 33.24C380.219 34.36 378.259 30.56 381.739 29.52C388.699 27.4 390.259 22.8 389.299 19C388.539 15.96 386.539 14.32 384.139 13.64C384.019 14 383.899 14.4 383.739 14.8C382.819 17.28 381.339 20.24 379.659 22.88C379.819 23 379.979 23.16 380.179 23.28C381.099 23.92 380.979 25.08 380.459 25.76C379.939 26.44 378.899 26.84 377.819 26.16C377.699 26.08 377.619 26.04 377.499 25.96ZM380.299 13.32C378.579 13.48 376.859 14 375.459 14.76C375.059 14.96 374.659 15.2 374.299 15.48C374.979 17.28 375.859 18.92 377.019 20.36C378.339 18.2 379.499 15.88 380.139 13.88C380.179 13.72 380.259 13.52 380.299 13.32ZM374.859 23.56C373.539 22 372.459 20.08 371.579 18.04C369.899 20.16 368.939 22.64 369.339 24.76C369.939 27.88 371.819 27 372.939 25.84C373.539 25.24 374.179 24.44 374.859 23.56ZM429.419 14.32C426.539 13.72 423.499 13.6 420.139 14.44C417.939 15 416.659 11.44 419.579 10.72C423.139 9.84 427.299 9.8 430.099 10.48C432.899 11.16 432.139 14.92 429.419 14.32ZM431.579 32.56C427.299 33.64 420.739 33.52 417.859 30.4C416.219 28.6 418.619 25.76 420.699 27.64C422.859 29.6 427.659 28.96 430.779 28.32C434.019 27.64 434.219 31.88 431.579 32.56ZM410.419 34.48C409.419 35.36 407.939 35.2 407.139 33.24C403.939 25.36 407.099 13.52 407.819 8.76C408.259 5.8 412.139 6.68 411.699 9C411.059 12.24 408.659 21.64 409.619 25.36C409.739 25.88 409.899 25.76 410.059 25.4C410.139 25.2 410.579 24.4 410.739 24.12C411.979 22.16 414.459 24.08 413.539 25.68C412.059 28.28 411.419 30.12 411.179 31.28C410.939 32.36 411.419 33.6 410.419 34.48ZM456.979 25.32V25.28C456.979 25.04 456.979 24.76 456.979 24.44C456.979 20.56 456.579 11.24 456.339 4.96C456.339 4.92 456.339 4.88 456.339 4.84C456.339 3.36 457.499 2.64 458.659 2.64C459.859 2.64 461.059 3.4 461.059 4.96C461.059 9.68 460.419 20.68 460.419 24.56C460.419 25.52 460.419 27.2 458.659 27.2C457.819 27.2 456.979 26.56 456.979 25.32ZM461.459 32.8C461.459 34.72 459.779 35.44 458.699 35.44C457.179 35.44 455.939 34.16 455.939 32.8C455.939 31.04 457.619 30.04 458.699 30.04C460.259 30.04 461.459 31 461.459 32.8Z" fill="black"/>
<path d="M39.6255 69.32C40.9855 71.28 38.1855 73.44 37.0255 71.64C36.5855 70.92 34.7855 69.2 33.9855 68.72C31.9855 67.52 33.9855 65.24 35.8255 66.24C36.8655 66.8 38.8655 68.2 39.6255 69.32ZM35.2255 72.52C36.5455 74.52 33.6255 76.6 32.5455 74.76C32.1055 74 30.3855 72.16 29.6255 71.68C27.7055 70.44 29.7455 68.28 31.5455 69.32C32.5855 69.92 34.4655 71.4 35.2255 72.52ZM11.9055 84.84L11.2255 85.08C7.70547 86.2 6.18547 86.64 4.98547 87C1.82547 87.92 0.745469 83.68 4.06547 82.88C5.86547 82.44 8.78547 81.72 10.5455 81.32L11.7055 81.04V80.56C11.6255 78.24 11.5055 76.56 11.4255 74.84C11.3055 72.12 15.5855 71.88 15.6255 74.68C15.6255 75.96 15.5855 77.8 15.5055 79.68L15.4655 80.2C18.1055 79.64 21.4255 79 24.7055 78.44C24.7055 77.24 24.6655 76.08 24.6655 75.08C24.6655 74.2 24.6655 73.84 24.6255 73.52C24.5855 73.2 24.6255 72.8 24.5855 71.92C24.5055 69.44 28.5855 69.12 28.5855 71.96C28.5855 73.32 28.5055 74.48 28.4255 75.6C28.3855 76.28 28.3455 77.08 28.3055 77.88C28.6655 77.84 28.9855 77.8 29.3455 77.76C31.6255 77.48 33.8655 77.2 35.9855 77.32C39.2655 77.52 38.6255 81.44 35.3855 81.24C33.3855 81.12 31.7855 81.16 29.7455 81.32C29.1855 81.36 28.6255 81.4 28.0655 81.44C28.0255 82.12 27.9455 82.84 27.8655 83.52C27.4655 86.24 26.6655 88.76 24.7855 90.04C23.2655 91.08 21.2255 91.16 19.8655 89.44C19.3055 88.76 18.7055 88.04 18.2655 87.28C17.2255 85.52 19.4255 83.64 20.9855 85.68C22.1455 87.2 22.8255 87 23.3855 86.16C24.0255 85.16 24.3855 83.64 24.5455 81.92C21.2255 82.44 18.1055 83.12 15.4655 83.8C15.5055 85.68 15.5455 87.64 15.6655 89.04C15.9855 93.36 17.2655 94.68 20.6255 94.76C23.1055 94.84 24.8255 94.28 27.1455 93.72C30.1855 93 31.1055 96.84 28.2655 97.64C25.5055 98.4 22.3055 98.56 19.9855 98.32C14.7455 97.76 12.8255 95.28 12.2655 89.84C12.1055 88.4 11.9855 86.52 11.9055 84.84ZM64.0255 96.04C58.3455 101.68 48.1055 101 47.5855 90.12C47.2255 82.92 51.1055 77.64 52.6255 74.92C52.7855 74.68 52.9855 74.36 52.6655 74.44C52.0655 74.6 51.0655 74.72 49.6655 74.8C46.5055 74.96 46.7055 70.6 49.8655 70.68C53.1055 70.76 55.7455 70.16 57.4655 69.16C60.0255 67.68 62.1055 71.44 59.2255 72.88C56.4255 74.28 50.3855 82.24 51.2655 90.12C51.9455 96.16 57.3855 96.68 61.5455 92.8C66.6255 88.08 66.4655 78.92 65.3455 76.36C65.1055 75.84 64.7055 74.88 64.3055 74.2C62.6655 71.36 66.7055 69.28 68.3855 72.56C69.9055 75.56 71.9055 77.76 76.1455 80.08C78.9055 81.6 76.5055 85.48 73.7455 83.76C72.0255 82.68 70.4255 81.04 69.4255 79.76C69.1855 79.44 69.0655 79.36 69.1855 79.76C70.1055 83.4 69.1455 90.96 64.0255 96.04ZM113.145 96.32C106.705 98.12 98.5855 99 97.7855 99C96.6655 99 96.0655 97.96 96.0655 96.92C96.0655 96.04 96.5455 95.16 97.5455 95.12C98.3055 95.08 99.1055 95.04 99.8655 94.96C101.865 88.36 104.945 72.72 105.305 68.48C105.425 67.28 106.345 66.72 107.305 66.72C108.425 66.72 109.665 67.48 109.665 68.84C109.665 70.24 105.985 87.2 103.665 94.52C106.465 94.16 109.225 93.68 111.865 93.12C111.145 91.68 110.305 90.32 109.425 88.96C109.185 88.56 109.065 88.2 109.065 87.84C109.065 86.88 109.945 86.2 110.945 86.2C111.545 86.2 112.225 86.48 112.705 87.16C116.785 92.84 117.865 96.76 117.865 97.64C117.865 99.04 116.705 99.96 115.585 99.96C114.705 99.96 113.865 99.4 113.625 98.2C113.505 97.56 113.345 96.96 113.145 96.32ZM93.9055 98.96V99C93.9055 100.12 92.9455 100.68 91.9455 100.68C90.9455 100.68 89.9855 100.12 89.9855 99V98.96L90.1455 85.92C88.7055 88.2 87.0655 90.32 85.5455 91.96C85.0655 92.44 84.5455 92.68 84.0255 92.68C82.9455 92.68 81.9855 91.76 81.9855 90.8C81.9855 90.32 82.1855 89.88 82.6655 89.44C84.9055 87.44 88.3055 83.36 90.1855 79.56L90.1455 79.08L85.0655 79.2H85.0255C83.8255 79.2 83.2655 78.36 83.2655 77.48C83.2655 76.6 83.8655 75.72 85.0655 75.72H90.1055L90.0255 71.92C87.0655 72.48 86.2255 72.52 86.0655 72.52C84.8655 72.52 84.2255 71.6 84.2255 70.72C84.2255 69.92 84.7455 69.12 85.8255 69C89.5855 68.64 92.3055 68 95.7455 66.64C95.9855 66.56 96.1855 66.52 96.3855 66.52C97.4255 66.52 98.1855 67.4 98.1855 68.36C98.1855 69.8 96.5855 70.28 93.8655 71.04C93.8255 71.92 93.8255 73.68 93.7855 75.72H98.1855C99.3855 75.72 99.9855 76.6 99.9855 77.48C99.9855 78.36 99.3855 79.2 98.2255 79.2H98.1855L93.7055 79.12V81.48C93.8655 81.44 93.9855 81.44 94.1055 81.44C95.5855 81.44 98.8655 84.32 99.0655 84.56C99.4655 85 99.6255 85.44 99.6255 85.92C99.6255 86.92 98.7855 87.84 97.8655 87.84C97.4255 87.84 96.9855 87.64 96.5855 87.16C95.9055 86.28 94.7055 85.28 93.7055 84.56C93.7455 90.56 93.9055 98.96 93.9055 98.96ZM152.505 81.84C150.265 81.08 146.625 80.64 144.505 81.44C142.425 82.2 141.185 78.92 143.825 78C145.865 77.28 149.505 76.8 153.425 78.2C156.105 79.16 155.025 82.68 152.505 81.84ZM152.505 98.04C146.705 99.2 141.745 97.36 139.985 95.4C138.265 93.48 140.745 90.32 142.825 92.44C144.865 94.52 147.305 94.32 151.985 93.92C154.905 93.68 155.145 97.52 152.505 98.04ZM137.585 77.08C135.065 85.84 132.225 92.76 130.265 97.2C129.065 99.88 124.825 98.72 126.505 95.32C128.225 91.8 131.065 85.72 133.505 77.96C131.385 78.2 129.345 78.12 127.665 77.4C125.625 76.52 126.025 72.88 129.025 73.96C130.705 74.56 132.665 74.56 134.545 74.2C134.785 72.72 134.625 71.64 134.505 69.88C134.345 67.6 138.105 67.48 138.505 69.68C138.665 70.68 138.665 71.76 138.545 72.88C139.105 72.6 139.585 72.32 140.065 72.04C142.145 70.68 144.625 74 141.625 75.48C140.505 76.04 139.065 76.64 137.585 77.08ZM176.455 77.36C175.815 80.88 175.215 84.4 174.935 85.8C177.135 84.2 179.895 82.76 182.855 82.36C191.255 81.24 195.055 88.64 190.015 94.64C187.815 97.28 183.535 99.32 179.255 99.88C175.415 100.4 175.215 96.4 178.215 96.04C181.655 95.64 184.895 94.32 186.535 92.44C189.455 89.16 188.775 85.36 183.335 85.8C180.815 86 177.975 87.68 176.295 89.48C175.575 90.24 175.375 91.4 174.015 91.76C172.255 92.24 170.895 90.52 171.175 88.48C171.495 86.2 172.055 82.12 172.655 78.2C171.455 78.32 170.215 78.28 168.895 78.08C165.935 77.6 166.255 73.56 169.455 74.28C170.575 74.52 171.895 74.56 173.255 74.32C173.655 71.76 174.055 69.56 174.335 68.32C174.975 65.6 178.935 66.8 178.175 69.28C177.895 70.2 177.615 71.52 177.295 73C178.015 72.64 178.735 72.2 179.415 71.72C182.175 69.76 184.695 73.76 180.975 75.48C179.295 76.28 177.815 76.88 176.455 77.36ZM208.535 100.96C207.975 100.96 207.415 100.68 207.015 100.08C206.015 98.6 203.815 96.76 202.095 95.88C201.335 95.48 201.015 94.88 201.015 94.28C201.015 93.36 201.735 92.52 202.895 92.52C204.295 92.52 210.695 96.04 210.695 98.76C210.695 100.04 209.615 100.96 208.535 100.96ZM260.095 79.68L261.335 83.76C264.575 82.84 267.815 81.92 270.255 81.28C273.375 80.48 273.895 84.32 271.415 84.88C269.135 85.4 265.855 86.28 262.455 87.28C263.735 91.32 264.895 95.08 265.655 97.44C266.135 98.92 265.295 100 264.335 100.36C263.375 100.72 262.175 100.36 261.815 98.92C261.175 96.44 260.055 92.52 258.775 88.36C255.215 89.44 251.735 90.52 249.295 91.36C246.655 92.24 245.455 88.52 248.455 87.6C250.775 86.88 254.135 85.84 257.695 84.8C257.255 83.4 256.815 82 256.415 80.68C253.935 81.36 251.495 82.04 249.415 82.52C246.535 83.2 245.775 79.56 248.415 78.96C250.615 78.48 252.975 77.88 255.335 77.24C254.535 74.68 253.775 72.48 253.295 71C252.375 68.28 256.455 67.64 257.095 69.84C257.495 71.28 258.215 73.56 259.015 76.2C261.295 75.56 263.455 74.84 265.335 74.24C267.935 73.4 268.775 77.04 266.335 77.8C264.535 78.36 262.375 79.04 260.095 79.68ZM304.855 83.88L304.895 83.84C303.255 84.32 300.895 85.12 298.415 86C299.615 90.04 301.055 94.6 302.015 97.24C303.095 100.16 299.415 101.4 298.575 98.6C297.775 95.88 296.415 91.28 295.175 87.16C293.495 87.76 291.935 88.36 290.655 88.84C288.295 89.72 287.295 86.36 289.535 85.6C290.935 85.12 292.495 84.56 294.215 83.96C293.735 82.4 293.335 81.08 293.015 80.08C292.575 78.76 293.255 77.88 294.175 77.68C295.015 77.48 296.055 77.96 296.375 79.04C296.655 79.96 297.055 81.28 297.495 82.84C300.135 81.96 302.895 81.04 305.575 80.2C307.575 79.6 310.055 80.68 309.215 83.16C308.295 85.88 306.495 88.24 304.495 90C302.215 92 299.975 89.08 302.015 87.4C303.135 86.52 304.255 85.16 304.855 83.88ZM335.695 85C335.655 86.36 334.615 87.08 333.575 87.08C332.535 87.08 331.415 86.36 331.495 85.04C331.735 81.08 331.615 74.8 331.415 71C331.295 68.52 335.415 68.32 335.575 70.84C335.775 74.44 335.775 81.28 335.695 85ZM336.415 100.04C333.135 101.92 331.375 98.16 333.895 96.76C340.975 92.84 342.575 87.48 342.575 81.52C342.575 78.4 342.375 73.44 342.375 70.28C342.375 67.68 346.695 67.84 346.655 70.28C346.575 73.68 346.775 78.16 346.775 81.48C346.775 88.36 344.695 95.28 336.415 100.04ZM378.495 84.32C377.495 90.44 374.495 95.2 368.575 98.92C366.975 99.92 365.495 99.48 364.815 98.56C364.135 97.64 364.295 96.24 365.895 95.44C372.615 92.12 374.895 85.52 374.295 79.72C374.135 78.04 375.215 77.28 376.495 77.28C377.735 77.28 378.935 77.88 378.895 79.56C378.895 80.04 378.895 80.56 378.855 81.04C378.975 81 379.055 80.92 379.175 80.88C381.855 79.8 384.895 78 386.455 75.84C387.055 75 387.055 74.4 386.015 74.4C381.535 74.36 372.815 74.48 367.215 74.76C363.695 74.92 363.895 71.08 366.895 70.92C372.695 70.64 381.415 70.68 387.415 70.68C391.575 70.68 393.495 74.16 390.695 77.32C388.055 80.32 385.135 82.88 380.775 84.44C379.855 84.76 379.055 84.68 378.495 84.32ZM430.215 89.72C430.135 93.56 427.175 94.76 424.135 94.92C419.895 95.16 413.295 95.2 409.175 95.2C406.175 95.2 406.175 90.92 409.135 91.04C413.415 91.2 420.695 91.2 423.655 91C424.855 90.92 425.895 90.24 425.975 88.76C426.095 86.36 426.095 82.28 426.015 80.2C425.975 78.88 425.015 78.16 423.495 78.12C419.975 78 413.655 78.24 409.495 78.44C406.375 78.6 406.215 74.68 409.295 74.56C413.695 74.36 420.895 74.28 424.895 74.36C428.855 74.44 430.255 76.8 430.255 79.48C430.255 81.92 430.295 86.16 430.215 89.72ZM471.575 84.8H446.455C445.015 84.8 444.335 83.84 444.335 82.88C444.335 81.88 445.095 80.84 446.455 80.84H471.575C472.935 80.84 473.615 81.84 473.615 82.84C473.615 83.8 472.935 84.8 471.575 84.8ZM501.895 84.44C501.575 89.52 498.295 96.88 490.055 99.72C486.015 101.12 485.015 96.72 487.895 96C494.695 94.28 497.375 88.24 497.855 84.44C493.535 84.44 489.215 84.52 486.055 84.6C483.655 84.68 483.415 81.04 486.055 81C489.015 80.92 493.455 80.88 497.935 80.88C497.935 79.2 497.895 77.4 497.895 76.08C494.975 76.56 492.175 76.8 490.055 76.76C487.095 76.68 487.215 72.88 490.135 73.08C494.215 73.36 501.535 71.84 504.815 70.48C508.255 69.04 509.015 73.16 506.815 73.92C505.375 74.44 503.695 74.88 501.975 75.28C502.015 76.84 502.015 78.96 501.975 80.88C506.175 80.88 509.855 80.92 511.735 80.96C514.535 81 514.455 84.64 511.655 84.56C509.455 84.48 505.855 84.44 501.895 84.44ZM539.495 70.8L539.415 70.96C540.055 70.72 540.655 70.48 541.095 70.24C543.295 68.92 545.455 72.24 542.495 73.72C541.495 74.2 539.775 74.68 538.095 75.04C537.575 76.32 536.895 77.76 536.175 79.08C538.935 78.6 541.575 79.6 542.895 82.56C544.535 81.72 546.215 80.88 547.775 80.2C548.735 79.8 549.815 79.32 550.895 78.72C553.895 77.04 555.695 81.04 553.135 82.32C551.855 82.96 550.935 83.16 548.815 83.96C547.135 84.6 545.335 85.4 543.735 86.16C543.855 87.48 543.895 89.12 543.815 90.56C543.735 92.16 542.695 93 541.695 93.04C540.695 93.08 539.775 92.32 539.895 90.76C539.935 89.92 539.975 89 539.975 88.16C539.615 88.36 539.255 88.56 538.935 88.76C533.975 91.96 534.575 94.36 536.815 95.48C538.935 96.56 542.855 95.76 544.735 95.16C548.255 94.08 549.375 98.4 545.695 99.36C543.335 99.96 537.895 100.56 534.775 98.8C529.375 95.76 530.335 90.36 537.575 85.6C538.135 85.24 538.775 84.8 539.535 84.36C538.455 81 535.375 81.4 532.775 84.4C532.735 84.44 532.655 84.52 532.615 84.56C532.255 85 531.975 85.36 531.695 85.6C529.495 87.56 526.575 85.28 528.975 83.12C530.015 82.16 531.375 80.72 532.215 79.36C532.895 78.24 533.535 77.04 534.095 75.8C531.935 76.12 530.415 76 529.135 75.36C526.255 73.92 528.215 70.16 531.015 72.04C531.775 72.56 533.375 72.36 534.775 72.12C534.935 72.08 535.175 72.08 535.375 72.04C535.655 70.88 535.735 70.08 535.815 68.68C535.975 66.28 539.735 66.52 539.815 68.48C539.855 69.28 539.695 70.04 539.495 70.8ZM138.022 134.56H132.062C131.862 135.4 131.622 136.36 131.382 137.12C132.262 137.12 133.142 137.16 133.942 137.2C136.382 137.32 137.782 138.84 137.862 140.6C137.942 142.48 137.982 144.88 137.982 147.24C137.982 149.6 137.942 151.92 137.862 153.72C137.742 155.96 136.102 157.08 134.102 157.32C134.262 157.4 134.422 157.52 134.582 157.68C135.862 159 137.222 160.04 139.142 160.6C140.142 160.88 140.582 161.6 140.582 162.36C140.582 163.36 139.782 164.4 138.502 164.4C136.662 164.4 131.462 160.56 131.462 158.96C131.462 158.32 131.902 157.72 132.502 157.4C132.022 157.4 131.502 157.4 131.022 157.4C129.822 157.4 128.622 157.4 127.502 157.36C128.222 157.68 128.782 158.36 128.782 159.12C128.782 161.04 121.902 164.6 119.942 164.6C118.662 164.6 117.942 163.76 117.942 162.84C117.942 162.04 118.502 161.2 119.742 160.88C121.862 160.32 124.062 159.16 125.422 157.76C125.662 157.52 125.902 157.4 126.142 157.32C123.942 157.04 122.902 155.64 122.822 153.76C122.782 152 122.742 149.72 122.742 147.36C122.742 145 122.782 142.56 122.822 140.64C122.862 139 123.942 137.36 126.742 137.2C127.062 137.2 127.342 137.16 127.702 137.16C127.902 136.36 128.062 135.6 128.222 134.56H122.622C121.422 134.56 120.822 133.72 120.822 132.88C120.822 132.04 121.422 131.2 122.622 131.2H138.022C139.222 131.2 139.822 132.04 139.822 132.88C139.822 133.72 139.222 134.56 138.022 134.56ZM115.142 163.16V163.2C115.142 164.28 114.262 164.8 113.342 164.8C112.462 164.8 111.582 164.28 111.582 163.2V163.16L111.702 154.64C111.422 155.04 107.182 160.84 105.182 160.84C104.182 160.84 103.342 160 103.342 159.04C103.342 158.48 103.622 157.92 104.302 157.48C106.422 156.08 109.182 153.36 111.222 150.32C105.942 150.32 105.862 148.92 105.862 144.88C105.862 144.12 105.862 143.36 105.902 142.68C106.022 141.04 107.102 139.76 109.182 139.68C109.942 139.64 110.822 139.64 111.662 139.64L111.622 136.8H106.702C105.582 136.8 104.982 136 104.982 135.2C104.982 134.44 105.582 133.64 106.702 133.64H111.622L111.582 131.16V131.12C111.582 129.96 112.462 129.36 113.342 129.36C114.262 129.36 115.142 129.96 115.142 131.12V131.16V133.64H119.662C120.782 133.64 121.302 134.44 121.302 135.2C121.302 136 120.782 136.8 119.662 136.8H115.102L115.062 139.64C115.862 139.64 116.582 139.64 117.262 139.68C119.182 139.76 120.622 140.76 120.782 142.44C120.822 143.08 120.862 143.76 120.862 144.48C120.862 148.48 120.862 150.32 114.982 150.32V152.52C115.342 152.12 115.822 151.84 116.302 151.84C117.302 151.84 120.302 153.92 121.142 154.72C121.622 155.16 121.782 155.68 121.782 156.2C121.782 157.24 121.022 158.16 120.102 158.16C119.702 158.16 119.302 158 118.902 157.6C117.902 156.56 116.062 155.16 115.142 154.64C115.102 154.6 115.022 154.56 114.982 154.52C115.022 159.52 115.142 163.16 115.142 163.16ZM126.182 142.84H134.422C134.422 142.32 134.382 141.84 134.382 141.4C134.302 139.92 133.982 139.88 130.142 139.88C126.982 139.88 126.302 139.92 126.222 141.44C126.222 141.88 126.182 142.36 126.182 142.84ZM134.462 148.64V145.68H126.142C126.142 146.64 126.182 147.68 126.182 148.64H134.462ZM134.462 151.44H126.182C126.182 152.04 126.222 152.64 126.222 153.16C126.262 154.36 126.622 154.68 129.862 154.68C133.822 154.68 134.342 154.64 134.382 153.12C134.382 152.6 134.462 152.04 134.462 151.44ZM115.022 142.52L114.982 147.44C117.502 147.44 117.662 147.24 117.662 144.92C117.662 142.6 117.502 142.52 115.022 142.52ZM111.742 147.44L111.702 142.52C111.222 142.52 110.782 142.56 110.382 142.56C109.462 142.6 109.102 142.88 109.102 145.04C109.102 147.24 109.222 147.44 111.742 147.44ZM170.382 158.68C167.982 160.68 164.822 162.12 160.462 162.84C157.302 163.36 156.982 159.52 159.742 159.12C163.382 158.6 166.142 157.52 168.142 155.76C170.542 153.64 170.662 151.44 169.462 150.08C167.742 148.12 164.582 148.16 161.982 148.92C159.102 149.8 156.502 151.4 153.782 152.64C151.022 153.92 149.462 150.2 152.062 149.12C154.622 148.08 158.102 146.48 161.262 145.68C164.622 144.84 169.222 144.8 172.022 147.72C175.382 151.2 174.022 155.64 170.382 158.68ZM208.661 162.84C196.581 162.8 192.421 151.72 196.781 143.68C197.181 142.92 197.541 142.28 198.061 141.6C198.701 140.76 198.501 140.8 197.741 141.04C194.741 142 195.421 142 192.701 143.04C191.421 143.52 190.301 143.92 189.101 144.24C185.581 145.2 184.541 140.6 187.741 139.92C188.581 139.72 190.901 139.28 192.181 138.96C194.141 138.48 197.621 137.68 201.701 136.52C205.821 135.36 209.101 134.4 212.621 134.16C215.101 134 215.781 135.96 215.341 137.24C215.101 137.92 214.221 138.72 211.421 138.56C209.381 138.44 206.821 139.2 205.461 139.68C203.221 140.48 201.221 142.88 200.341 144.36C196.821 150.24 199.501 158.64 208.461 158.32C212.661 158.16 212.901 162.88 208.661 162.84ZM238.981 147.16H239.181C242.181 147.28 245.141 147.96 247.861 148.92C248.101 147.28 247.941 145.8 247.301 144.72C246.181 142.84 249.781 141.32 251.101 143.8C251.981 145.4 252.101 147.8 251.501 150.44C253.581 151.44 255.461 152.64 257.021 153.84C259.541 155.8 256.821 159.48 254.541 157.4C253.221 156.2 251.781 155.12 250.181 154.16C248.701 157.16 246.181 160.16 242.581 162.28C239.781 163.92 237.781 160.8 240.381 159.2C243.381 157.36 245.461 154.88 246.701 152.44C243.741 151.2 240.581 150.48 237.381 150.44C235.901 153.52 234.541 156 232.261 157.76C229.861 159.64 226.341 159.88 224.621 157.76C222.581 155.2 224.061 151.04 228.661 149C230.781 148.08 233.021 147.52 235.221 147.28C236.621 144.28 238.461 140.64 239.581 138.12C239.821 137.56 239.941 137.24 239.341 137.4C237.781 137.8 236.261 138.32 234.621 138.36C231.981 138.44 232.101 134.72 234.501 134.56C236.101 134.48 238.541 133.88 240.261 133.56C243.901 132.84 245.501 135.2 243.701 138.12C242.021 140.92 240.421 144.16 238.981 147.16ZM233.501 150.76C232.461 150.92 231.261 151.24 229.781 151.96C228.741 152.48 226.861 154.16 227.541 155.16C228.021 155.84 229.461 155.6 230.181 155.04C231.501 154.04 232.581 152.4 233.501 150.76ZM280.181 140.68L279.781 140.72C277.701 141.04 275.701 141.24 273.501 141.2C270.421 141.12 270.261 136.96 273.901 137.4C275.541 137.6 277.381 137.52 280.101 137.12C280.061 135 280.061 133.12 280.101 131.84C280.181 128.76 284.341 129.48 284.181 131.8C284.061 133.24 283.981 134.84 283.941 136.44C284.781 136.28 285.701 136.04 286.661 135.84C289.301 135.24 290.381 138.96 286.901 139.52C285.821 139.68 284.821 139.88 283.901 140.04C283.901 141.52 283.901 143 283.941 144.48C284.901 144.2 285.901 143.92 286.981 143.56C289.941 142.6 291.461 146.28 287.901 147.28C286.501 147.68 285.221 148.04 284.061 148.32C284.141 149.68 284.221 150.92 284.341 152.08C284.461 153.16 284.581 154.6 284.661 156.04C286.661 156.8 288.381 157.88 289.621 158.88C292.301 161.08 289.701 164.72 287.181 162.4C286.341 161.64 285.341 160.88 284.261 160.24C282.861 163.64 277.981 166.32 273.061 163.88C269.261 162 269.021 157.52 273.381 155.68C275.821 154.64 278.501 154.56 281.021 155C280.981 154.16 280.901 153.32 280.821 152.4C280.741 151.44 280.661 150.32 280.581 149.08C277.421 149.68 275.301 149.8 273.301 149.52C270.461 149.12 270.941 145 274.141 145.68C275.301 145.92 277.301 145.92 280.381 145.32C280.301 143.8 280.221 142.24 280.181 140.68ZM280.661 158.6C278.501 157.92 276.381 157.8 274.621 158.56C273.581 159 273.381 160.28 274.501 160.84C276.941 162.04 280.061 160.84 280.661 158.6ZM312.301 148.84L311.621 149.04C308.101 150.16 306.581 150.64 305.381 151C302.221 151.92 301.141 147.68 304.461 146.88C306.261 146.44 309.221 145.68 310.981 145.28L312.101 145.04V144.52C312.021 142.2 311.901 140.56 311.821 138.84C311.701 136.12 315.981 135.88 316.021 138.68C316.021 139.96 315.981 141.8 315.901 143.68L315.861 144.2C318.501 143.64 321.821 142.96 325.101 142.4C325.101 141.2 325.061 140.08 325.061 139.08C325.061 138.2 325.061 137.8 325.021 137.48C324.981 137.16 325.021 136.8 324.981 135.92C324.901 133.44 328.981 133.12 328.981 135.96C328.981 137.32 328.901 138.48 328.821 139.6C328.781 140.28 328.741 141.08 328.701 141.88C329.061 141.84 329.381 141.76 329.741 141.72C332.021 141.44 334.261 141.16 336.381 141.28C339.661 141.48 339.021 145.4 335.781 145.2C333.781 145.08 332.181 145.12 330.141 145.28C329.581 145.32 329.061 145.4 328.501 145.44C328.461 146.12 328.341 146.84 328.261 147.52C327.861 150.24 327.061 152.72 325.181 154C323.661 155.04 321.621 155.12 320.261 153.4C319.701 152.72 319.141 152.04 318.701 151.28C317.661 149.52 319.821 147.6 321.381 149.64C322.541 151.16 323.221 150.96 323.781 150.12C324.421 149.12 324.781 147.6 324.941 145.88C321.621 146.4 318.501 147.12 315.861 147.8C315.901 149.68 315.941 151.6 316.061 153C316.381 157.32 317.661 158.68 321.021 158.76C323.501 158.84 325.221 158.24 327.541 157.68C330.581 156.96 331.501 160.8 328.661 161.6C325.901 162.36 322.701 162.52 320.381 162.28C315.141 161.72 313.221 159.24 312.661 153.8C312.501 152.36 312.381 150.52 312.301 148.84ZM368.938 160C364.618 163.4 356.618 164.28 356.698 156.72C356.698 154.88 356.978 153.76 356.898 151.96C356.698 147.52 350.618 151.28 349.498 153.28C348.538 155 347.418 156.76 346.978 158.72C346.258 161.8 345.378 162 344.578 162.12C343.178 162.32 341.298 161.36 342.218 159.04C344.018 154.52 346.298 150.52 348.618 146.92C350.938 143.32 353.018 139.92 354.978 136.8C355.658 135.68 356.738 134.28 357.178 133.48C358.498 131.12 362.218 133.12 360.898 135.64C360.578 136.2 360.298 136.64 359.978 137.04C359.658 137.44 359.258 137.88 358.818 138.4C356.898 140.56 355.618 142.24 354.578 143.72C353.538 145.2 352.738 146.48 351.858 147.8C351.578 148.2 351.698 148.12 351.978 147.88C353.418 146.6 360.338 144.72 360.898 151.48C361.018 153.04 360.698 154.4 360.698 155.88C360.698 159.44 364.138 159 366.498 156.88C368.538 155.04 369.418 153.12 370.138 151.28C371.298 148.32 375.498 150.36 373.978 153.36C372.858 155.56 371.298 158.16 368.938 160ZM414.738 148.04C415.738 150.68 412.138 152.44 411.058 149.96C410.098 147.76 408.298 144.72 405.338 143.08C403.378 142 405.138 139 407.618 140.44C410.818 142.32 413.658 145.16 414.738 148.04ZM395.018 141.08L396.338 140.96C399.698 140.68 402.258 142.64 402.418 147.12C402.498 149.92 402.098 153.52 401.058 156.04C399.418 160 395.498 161.96 391.658 160.84C388.498 159.92 389.778 156.24 392.218 156.84C394.498 157.4 396.178 157.04 397.298 154.68C398.218 152.72 398.578 149.88 398.578 147.76C398.578 145.32 397.738 144.16 395.898 144.32C395.298 144.36 394.698 144.44 394.058 144.52C392.098 150.72 389.418 156.16 386.298 160.6C384.378 163.32 380.218 161 382.818 158.08C385.578 155 388.058 150.44 389.898 145.08L389.418 145.16C387.698 145.48 386.138 145.72 385.098 145.72C382.378 145.72 382.418 142.12 384.978 141.88C386.218 141.76 387.458 141.8 388.898 141.68L390.898 141.48C391.378 139.72 391.898 137.36 392.138 135.12C392.418 132.52 396.498 132.76 396.178 135.44C396.018 136.8 395.498 139.2 395.018 141.08ZM436.538 155.16C435.498 155.16 434.498 154.44 434.498 152.96C434.498 147.88 439.738 145.56 441.178 142.92C441.778 141.84 442.058 140.68 442.058 139.64C442.058 135.72 439.098 134.8 437.498 134.8C434.298 134.8 432.978 137.44 432.658 138.52C432.458 139.32 431.538 139.72 430.618 139.72C429.538 139.72 428.418 139.12 428.418 137.8C428.418 136.32 430.858 130.8 437.458 130.8C442.178 130.8 446.258 134.08 446.258 139.56C446.258 140.84 445.978 142.24 445.458 143.56C444.018 147.16 438.778 149.2 438.778 152.84C438.778 154.36 437.618 155.16 436.538 155.16ZM439.418 160.8C439.418 162.72 437.738 163.44 436.658 163.44C435.138 163.44 433.898 162.16 433.898 160.8C433.898 159.04 435.578 158.04 436.658 158.04C438.218 158.04 439.418 159 439.418 160.8Z" fill="#E89A08"/>
<path d="M0.105469 102H558.895V104H0.105469V102ZM101.902 166H457.098V168H101.902V166Z" fill="#E89A08"/>
</svg>
