<svg width="542" height="50" viewBox="0 0 542 50" fill="none" xmlns="http://www.w3.org/2000/svg">
<path d="M63.96 21.344L64.952 24.608C67.544 23.872 70.136 23.136 72.088 22.624C74.584 21.984 75 25.056 73.016 25.504C71.192 25.92 68.568 26.624 65.848 27.424C66.872 30.656 67.8 33.664 68.408 35.552C68.792 36.736 68.12 37.6 67.352 37.888C66.584 38.176 65.624 37.888 65.336 36.736C64.824 34.752 63.928 31.616 62.904 28.288C60.056 29.152 57.272 30.016 55.32 30.688C53.208 31.392 52.248 28.416 54.648 27.68C56.504 27.104 59.192 26.272 62.04 25.44C61.688 24.32 61.336 23.2 61.016 22.144C59.032 22.688 57.08 23.232 55.416 23.616C53.112 24.16 52.504 21.248 54.616 20.768C56.376 20.384 58.264 19.904 60.152 19.392C59.512 17.344 58.904 15.584 58.52 14.4C57.784 12.224 61.048 11.712 61.56 13.472C61.88 14.624 62.456 16.448 63.096 18.56C64.92 18.048 66.648 17.472 68.152 16.992C70.232 16.32 70.904 19.232 68.952 19.84C67.512 20.288 65.784 20.832 63.96 21.344ZM99.768 24.704L99.8 24.672C98.488 25.056 96.6 25.696 94.616 26.4C95.576 29.632 96.728 33.28 97.496 35.392C98.36 37.728 95.416 38.72 94.744 36.48C94.104 34.304 93.016 30.624 92.024 27.328C90.68 27.808 89.432 28.288 88.408 28.672C86.52 29.376 85.72 26.688 87.512 26.08C88.632 25.696 89.88 25.248 91.256 24.768C90.872 23.52 90.552 22.464 90.296 21.664C89.944 20.608 90.488 19.904 91.224 19.744C91.896 19.584 92.728 19.968 92.984 20.832C93.208 21.568 93.528 22.624 93.88 23.872C95.992 23.168 98.2 22.432 100.344 21.76C101.944 21.28 103.928 22.144 103.256 24.128C102.52 26.304 101.08 28.192 99.48 29.6C97.656 31.2 95.864 28.864 97.496 27.52C98.392 26.816 99.288 25.728 99.768 24.704ZM124.44 25.6C124.408 26.688 123.576 27.264 122.744 27.264C121.912 27.264 121.016 26.688 121.08 25.632C121.272 22.464 121.176 17.44 121.016 14.4C120.92 12.416 124.216 12.256 124.344 14.272C124.504 17.152 124.504 22.624 124.44 25.6ZM125.016 37.632C122.392 39.136 120.984 36.128 123 35.008C128.664 31.872 129.944 27.584 129.944 22.816C129.944 20.32 129.784 16.352 129.784 13.824C129.784 11.744 133.24 11.872 133.208 13.824C133.144 16.544 133.304 20.128 133.304 22.784C133.304 28.288 131.64 33.824 125.016 37.632ZM158.68 25.056C157.88 29.952 155.48 33.76 150.744 36.736C149.464 37.536 148.28 37.184 147.736 36.448C147.192 35.712 147.32 34.592 148.6 33.952C153.976 31.296 155.8 26.016 155.32 21.376C155.192 20.032 156.056 19.424 157.08 19.424C158.072 19.424 159.032 19.904 159 21.248C159 21.632 159 22.048 158.968 22.432C159.064 22.4 159.128 22.336 159.224 22.304C161.368 21.44 163.8 20 165.048 18.272C165.528 17.6 165.528 17.12 164.696 17.12C161.112 17.088 154.136 17.184 149.656 17.408C146.84 17.536 147 14.464 149.4 14.336C154.04 14.112 161.016 14.144 165.816 14.144C169.144 14.144 170.68 16.928 168.44 19.456C166.328 21.856 163.992 23.904 160.504 25.152C159.768 25.408 159.128 25.344 158.68 25.056ZM200.056 29.376C199.992 32.448 197.624 33.408 195.192 33.536C191.8 33.728 186.52 33.76 183.224 33.76C180.824 33.76 180.824 30.336 183.192 30.432C186.616 30.56 192.44 30.56 194.808 30.4C195.768 30.336 196.6 29.792 196.664 28.608C196.76 26.688 196.76 23.424 196.696 21.76C196.664 20.704 195.896 20.128 194.68 20.096C191.864 20 186.808 20.192 183.48 20.352C180.984 20.48 180.856 17.344 183.32 17.248C186.84 17.088 192.6 17.024 195.8 17.088C198.968 17.152 200.088 19.04 200.088 21.184C200.088 23.136 200.12 26.528 200.056 29.376ZM233.144 25.44H213.048C211.896 25.44 211.352 24.672 211.352 23.904C211.352 23.104 211.96 22.272 213.048 22.272H233.144C234.232 22.272 234.776 23.072 234.776 23.872C234.776 24.64 234.232 25.44 233.144 25.44ZM257.4 25.152C257.144 29.216 254.52 35.104 247.928 37.376C244.696 38.496 243.896 34.976 246.2 34.4C251.64 33.024 253.784 28.192 254.168 25.152C250.712 25.152 247.256 25.216 244.728 25.28C242.808 25.344 242.616 22.432 244.728 22.4C247.096 22.336 250.648 22.304 254.232 22.304C254.232 20.96 254.2 19.52 254.2 18.464C251.864 18.848 249.624 19.04 247.928 19.008C245.56 18.944 245.656 15.904 247.992 16.064C251.256 16.288 257.112 15.072 259.736 13.984C262.488 12.832 263.096 16.128 261.336 16.736C260.184 17.152 258.84 17.504 257.464 17.824C257.496 19.072 257.496 20.768 257.464 22.304C260.824 22.304 263.768 22.336 265.272 22.368C267.512 22.4 267.448 25.312 265.208 25.248C263.448 25.184 260.568 25.152 257.4 25.152ZM298.712 19.584C294.744 26.784 288.12 33.344 280.76 35.68C278.04 36.544 277.016 32.896 279.672 32.224C286.104 30.592 292.568 23.968 295.8 17.696C296.824 15.712 300.12 17.056 298.712 19.584ZM285.368 22.176C284.856 22.912 283.736 23.36 282.744 22.464C281.56 21.376 279.512 20.448 278.008 20.096C276.088 19.648 276.888 16.416 279.32 17.088C281.016 17.568 283.416 18.432 284.952 19.52C285.944 20.224 285.88 21.44 285.368 22.176ZM331.351 13.184C330.903 12.704 329.367 11.616 328.727 11.36C327.095 10.72 328.247 8.8 329.751 9.28C330.615 9.568 332.247 10.368 332.983 11.104C334.263 12.384 332.439 14.4 331.351 13.184ZM328.439 16.032C328.023 15.52 326.455 14.4 325.815 14.112C324.183 13.44 325.463 11.52 326.935 12.064C327.799 12.384 329.399 13.216 330.103 13.984C331.351 15.328 329.495 17.28 328.439 16.032ZM319.319 15.52L319.095 15.808C320.471 15.712 322.039 15.616 323.319 15.552C325.783 15.424 327.927 17.152 326.743 19.424C322.839 26.88 318.423 33.344 309.431 36.896C306.711 37.952 305.399 34.816 308.055 33.888C315.159 31.424 320.439 25.056 322.807 19.616C323.063 19.008 322.807 18.4 322.039 18.432C320.695 18.464 318.359 18.688 316.919 18.848C314.743 21.728 311.927 25.088 309.719 26.592C307.575 28.032 305.687 25.248 307.863 23.904C310.935 22.016 315.095 16.16 316.567 13.632C317.623 11.84 320.823 13.376 319.319 15.52ZM349.783 33.152C349.751 30.656 349.719 27.456 349.719 24.256C349.719 21.024 349.751 17.792 349.783 15.232C349.815 11.552 352.023 11.424 356.343 11.424C359.799 11.424 362.487 11.456 362.583 15.04C362.647 17.728 362.679 21.12 362.679 24.544C362.679 27.52 362.647 30.496 362.615 33.088C362.551 36.608 360.855 37.344 357.015 37.344C351.671 37.344 349.879 37.184 349.783 33.152ZM344.087 36.768V36.8C344.087 37.696 343.287 38.144 342.519 38.144C341.719 38.144 340.951 37.696 340.951 36.8V36.768L341.079 25.088C340.087 26.72 338.999 28.224 337.847 29.504C337.463 29.92 337.047 30.08 336.631 30.08C335.767 30.08 334.999 29.376 334.999 28.576C334.999 28.224 335.159 27.872 335.511 27.52C337.271 25.888 339.639 22.848 341.079 19.872V19.456L337.399 19.52H337.367C336.439 19.52 335.959 18.816 335.959 18.112C335.959 17.408 336.439 16.704 337.399 16.704H341.047L340.951 11.296V11.264C340.951 10.304 341.719 9.856 342.519 9.856C343.287 9.856 344.087 10.336 344.087 11.264V11.296C344.087 11.296 344.023 13.824 343.991 16.704H347.095C348.055 16.704 348.503 17.408 348.503 18.112C348.503 18.816 348.055 19.52 347.127 19.52H347.095L343.959 19.456C343.959 20.256 343.927 21.024 343.927 21.728C344.055 21.696 344.151 21.664 344.279 21.664C344.919 21.664 348.503 23.936 348.503 25.344C348.503 26.176 347.735 26.944 346.967 26.944C346.615 26.944 346.263 26.784 345.975 26.4C345.463 25.728 344.663 24.864 343.959 24.256C343.991 29.248 344.087 36.768 344.087 36.768ZM352.567 19.104H359.735C359.703 18.048 359.703 17.056 359.671 16.192C359.607 14.304 359.447 14.208 356.215 14.208C355.543 14.208 354.871 14.24 354.263 14.272C352.599 14.368 352.567 14.88 352.567 19.104ZM359.767 26.528V21.824H352.535V26.528H359.767ZM359.735 29.248H352.567C352.567 30.432 352.599 31.552 352.631 32.512C352.663 34.336 353.143 34.496 356.567 34.496C359.543 34.496 359.639 33.792 359.671 32.416C359.703 31.456 359.703 30.368 359.735 29.248ZM388.183 14.304L388.215 14.4C388.311 15.104 388.439 15.776 388.727 16.448C389.879 15.616 391.191 14.24 391.927 13.216C392.183 12.832 392.535 12.672 392.887 12.672C393.687 12.672 394.487 13.472 394.487 14.336C394.487 14.656 394.231 15.968 389.975 18.592C391.319 20.288 393.207 21.6 395.031 22.08C395.831 22.304 396.215 22.88 396.215 23.488C396.215 24.256 395.607 25.024 394.647 25.024C392.983 25.024 389.047 22.304 387.159 18.56C385.175 23.424 380.663 25.28 380.023 25.28C379.191 25.28 378.615 24.576 378.615 23.84C378.615 23.36 378.871 22.88 379.543 22.592C384.119 20.672 385.399 17.184 385.399 12.704C385.399 12.384 385.367 12.032 385.367 11.68C385.367 11.648 385.367 11.648 385.367 11.616C385.367 10.656 386.135 10.112 386.871 10.112C388.247 10.112 388.279 11.392 388.279 12.352C388.279 13.024 388.247 13.664 388.183 14.304ZM381.399 19.424C380.727 19.424 380.055 18.976 380.055 18.272C380.055 18.112 380.087 17.92 380.183 17.728C380.535 16.928 380.535 15.264 380.535 13.728C380.535 12.96 381.143 12.64 381.751 12.64C382.455 12.64 383.159 13.024 383.191 13.696C383.223 14.176 383.223 14.688 383.223 15.2C383.223 17.76 382.807 19.424 381.399 19.424ZM376.503 13.44H370.103C369.239 13.44 368.823 12.8 368.823 12.16C368.823 11.52 369.239 10.88 370.103 10.88H376.503C377.367 10.88 377.815 11.52 377.815 12.16C377.815 12.8 377.367 13.44 376.503 13.44ZM385.399 23.904V23.872C385.399 22.88 386.199 22.336 386.935 22.336C387.639 22.336 388.311 22.816 388.311 23.872C388.311 24.704 388.247 25.504 388.183 26.304C388.183 26.368 388.215 26.432 388.215 26.496C388.279 27.232 388.471 27.936 388.759 28.64C389.783 27.808 390.903 26.592 391.543 25.696C391.799 25.312 392.119 25.184 392.471 25.184C393.207 25.184 393.975 25.952 393.975 26.752C393.975 27.808 391.671 29.696 389.975 30.784C391.383 32.672 393.367 34.176 395.287 34.72C396.119 34.944 396.471 35.584 396.471 36.192C396.471 36.992 395.895 37.792 394.903 37.792C393.399 37.792 389.303 35.296 387.159 30.784C385.015 36.384 379.575 38.08 379.031 38.08C378.135 38.08 377.559 37.312 377.559 36.576C377.559 36.032 377.847 35.488 378.583 35.264C384.055 33.504 385.399 29.28 385.399 24.416C385.399 24.256 385.399 24.064 385.399 23.904ZM377.719 17.824H368.791C367.863 17.824 367.415 17.184 367.415 16.512C367.415 15.872 367.863 15.2 368.791 15.2H377.719C378.647 15.2 379.095 15.84 379.095 16.512C379.095 17.152 378.647 17.824 377.719 17.824ZM376.567 21.984H370.167C369.303 21.984 368.887 21.344 368.887 20.704C368.887 20.064 369.303 19.424 370.167 19.424H376.567C377.431 19.424 377.879 20.064 377.879 20.704C377.879 21.344 377.431 21.984 376.567 21.984ZM381.111 32.128C380.439 32.128 379.767 31.68 379.767 30.976C379.767 30.816 379.799 30.624 379.895 30.432C380.247 29.632 380.247 27.936 380.247 26.4C380.247 25.632 380.855 25.312 381.463 25.312C382.167 25.312 382.871 25.696 382.903 26.368C382.935 26.848 382.935 27.36 382.935 27.872C382.935 31.392 382.167 32.128 381.111 32.128ZM376.567 26.112H370.167C369.303 26.112 368.887 25.472 368.887 24.832C368.887 24.192 369.303 23.552 370.167 23.552H376.567C377.431 23.552 377.879 24.192 377.879 24.832C377.879 25.472 377.431 26.112 376.567 26.112ZM377.879 34.816C377.847 36.256 376.823 37.28 375.223 37.376C374.551 37.408 373.783 37.44 373.047 37.44C372.311 37.44 371.575 37.408 370.935 37.376C369.495 37.28 368.599 36.256 368.567 34.848C368.567 34.016 368.535 33.216 368.535 32.416C368.535 31.648 368.567 30.88 368.567 30.176C368.599 28.96 369.367 27.84 370.903 27.744C371.511 27.712 372.183 27.68 372.887 27.68C373.719 27.68 374.583 27.712 375.319 27.744C376.535 27.808 377.847 28.64 377.879 30.016C377.911 30.752 377.911 31.616 377.911 32.448C377.911 33.28 377.911 34.112 377.879 34.816ZM375.223 34.144C375.255 33.696 375.255 33.12 375.255 32.544C375.255 31.968 375.255 31.36 375.223 30.912C375.159 30.144 374.551 30.048 373.175 30.048C371.127 30.048 371.127 30.08 371.127 32.512C371.127 33.088 371.159 33.696 371.159 34.176C371.191 34.592 371.319 34.944 373.111 34.944C374.935 34.944 375.191 34.624 375.223 34.144ZM403.511 24.416V24.448C403.511 25.376 402.711 25.888 401.911 25.888C401.175 25.888 400.407 25.408 400.407 24.416C400.407 23.968 400.375 23.552 400.375 23.136C400.375 21.088 400.375 18.432 403.799 18.4C404.759 18.4 405.751 18.336 406.775 18.336C406.583 17.792 406.359 17.376 406.199 17.056C405.655 16.16 405.591 15.936 405.591 15.744C405.591 15.392 405.815 15.104 406.103 14.88C405.303 14.912 404.535 14.912 403.863 14.944C402.679 14.976 402.071 14.176 402.071 13.408C402.071 12.704 402.583 12.032 403.607 12.032H403.639C404.023 12.032 404.407 12.032 404.823 12.032C410.071 12.032 416.247 11.648 421.815 10.688C421.943 10.656 422.071 10.656 422.199 10.656C423.191 10.656 423.671 11.424 423.671 12.16C423.671 13.376 422.903 13.472 421.111 13.696C421.367 13.952 421.559 14.24 421.559 14.592C421.559 15.264 420.727 17.12 420.055 18.336C421.111 18.336 422.167 18.368 423.159 18.4C424.887 18.432 426.839 19.36 426.903 21.6C426.935 21.984 426.935 22.56 426.935 23.136C426.935 24.384 426.935 25.76 425.239 25.76C424.471 25.76 423.671 25.28 423.671 24.352C423.671 24.32 423.671 24.32 423.671 24.288C423.671 24 423.671 23.424 423.671 22.976C423.671 21.632 423.575 21.088 421.943 21.056C419.255 21.024 415.607 20.992 412.151 20.992C409.623 20.992 407.191 20.992 405.367 21.056C403.639 21.088 403.543 21.696 403.511 22.56C403.511 22.56 403.511 22.56 403.511 24.416ZM414.007 33.984C408.663 37.344 402.839 38.176 401.975 38.176C400.919 38.176 400.311 37.312 400.311 36.48C400.311 35.744 400.791 35.04 401.847 34.944C405.591 34.624 408.855 33.536 411.479 32.064C410.263 31.008 409.239 29.888 408.407 28.704C408.151 28.352 408.055 28.032 408.055 27.744C408.055 26.912 408.887 26.336 409.687 26.336C410.135 26.336 410.551 26.496 410.839 26.88C411.735 28.096 412.791 29.248 414.135 30.272C415.959 28.8 417.463 26.88 417.463 26.272C417.463 26.08 417.303 25.984 416.983 25.984C416.087 25.984 415.063 25.984 413.911 25.984C411.607 25.984 408.951 25.984 406.455 26.08C406.423 26.08 406.423 26.08 406.391 26.08C405.527 26.08 405.079 25.376 405.079 24.704C405.079 23.968 405.527 23.232 406.455 23.232C410.199 23.2 414.807 23.2 418.615 23.2C420.407 23.2 421.367 24.16 421.367 25.44C421.367 27.36 418.967 30.112 416.759 31.968C419.191 33.248 422.167 34.048 425.815 34.144C426.711 34.144 427.191 34.912 427.191 35.712C427.191 36.576 426.583 37.504 425.303 37.504C421.175 37.504 417.239 36.096 414.007 33.984ZM414.935 18.304H417.175C417.207 18.112 417.271 17.888 417.399 17.632C417.879 16.672 418.327 15.488 418.551 14.112C418.551 14.08 418.583 14.016 418.583 13.984C417.015 14.144 415.287 14.304 413.623 14.432C414.423 15.232 415.191 16.864 415.191 17.568C415.191 17.856 415.095 18.08 414.935 18.304ZM412.439 18.304L412.343 18.016C412.215 17.408 412.023 16.96 411.863 16.608C411.703 16.256 411.575 15.968 411.479 15.744C411.415 15.584 411.351 15.424 411.351 15.264C411.351 14.976 411.479 14.752 411.671 14.56C410.327 14.656 409.047 14.72 407.831 14.784L407.927 14.88C408.439 15.36 409.591 16.928 409.591 17.792C409.591 17.984 409.527 18.176 409.463 18.336C410.423 18.336 411.447 18.304 412.439 18.304ZM451.543 32.608V19.968H442.103C441.143 19.968 440.631 19.264 440.631 18.56C440.631 17.856 441.143 17.152 442.103 17.152H451.543V11.776C451.543 10.752 452.311 10.272 453.111 10.272C453.879 10.272 454.647 10.752 454.647 11.776V17.152H458.551C459.575 17.152 460.087 17.856 460.087 18.56C460.087 19.264 459.575 19.968 458.551 19.968H454.647V28.448L454.743 33.056C454.743 33.12 454.743 33.184 454.743 33.216C454.743 36.352 452.727 37.984 449.175 37.984C448.151 37.984 446.999 37.856 445.719 37.568C444.727 37.344 444.311 36.64 444.311 35.936C444.311 35.2 444.823 34.464 445.719 34.464C445.879 34.464 446.039 34.496 446.199 34.528C447.287 34.816 448.183 34.944 448.887 34.944C450.903 34.944 451.543 33.952 451.543 32.608ZM447.415 29.152C447.031 29.152 446.679 28.96 446.359 28.576C445.495 27.424 443.927 26.304 442.583 25.6C442.071 25.344 441.847 24.928 441.847 24.48C441.847 23.776 442.487 23.04 443.447 23.04C444.471 23.04 449.111 25.44 449.111 27.36C449.111 28.32 448.279 29.152 447.415 29.152ZM435.703 36.8L436.119 21.952C434.103 24.256 433.271 25.024 432.375 25.024C431.511 25.024 430.871 24.352 430.871 23.584C430.871 23.2 431.031 22.784 431.415 22.432C434.551 19.648 437.367 15.808 439.063 11.456C439.351 10.752 439.927 10.432 440.503 10.432C441.367 10.432 442.263 11.104 442.263 12.032C442.263 12.864 440.343 16.064 439.255 17.728L438.903 36.8C438.871 37.76 438.071 38.24 437.239 38.24C436.471 38.24 435.703 37.792 435.703 36.864C435.703 36.832 435.703 36.832 435.703 36.8ZM476.055 36.8V28.256C473.559 28.224 471.095 28.192 468.855 28.096C466.583 28 465.399 26.56 465.335 24.864C465.303 23.872 465.271 22.88 465.271 21.888C465.271 20.928 465.303 20 465.335 19.136C465.399 17.76 466.295 15.904 468.791 15.84C470.999 15.776 473.495 15.744 476.055 15.744V11.2C476.055 10.272 476.855 9.792 477.655 9.792C478.455 9.792 479.287 10.272 479.287 11.2V15.744C481.879 15.744 484.439 15.776 486.743 15.84C488.631 15.904 489.943 17.568 490.039 18.88C490.103 19.648 490.135 20.608 490.135 21.6C490.135 22.72 490.103 23.872 490.039 24.832C489.975 26.432 488.663 28 486.583 28.096C484.247 28.192 481.783 28.256 479.287 28.256V36.8C479.287 37.664 478.487 38.112 477.655 38.112C476.855 38.112 476.055 37.664 476.055 36.8ZM479.287 18.624V25.376C481.431 25.344 483.543 25.312 485.431 25.248C486.967 25.184 487.031 24.48 487.031 21.984C487.031 19.392 486.967 18.752 485.399 18.72C483.639 18.656 481.495 18.624 479.287 18.624ZM476.055 25.408V18.624C473.815 18.624 471.703 18.688 469.975 18.72C468.951 18.752 468.439 19.424 468.407 20.064C468.375 20.672 468.343 21.44 468.343 22.176C468.343 24.192 468.343 25.184 470.007 25.248C471.799 25.344 473.879 25.408 476.055 25.408Z" fill="black"/>
<path d="M1 9L33 49" stroke="black"/>
<path d="M541 9L509 49" stroke="black"/>
</svg>
