<svg width="680" height="163" viewBox="0 0 680 163" fill="none" xmlns="http://www.w3.org/2000/svg">
<g filter="url(#filter0_d_254_93)">
<rect x="15" y="23" width="650" height="120" rx="60" fill="#0CBC0C"/>
<rect x="15.5" y="23.5" width="649" height="119" rx="59.5" stroke="white"/>
</g>
<path d="M77.956 70.58L82.024 71.804C79.9 77.924 76.48 84.44 72.808 88.58C72.412 87.572 71.224 85.16 70.468 84.116C73.492 80.804 76.3 75.692 77.956 70.58ZM75.04 80.516L79.108 76.412L79.144 76.448V104.204H75.04V80.516ZM90.376 70.616H94.588V103.988H90.376V70.616ZM81.232 76.844H104.56V80.948H81.232V76.844ZM85.624 94.304H99.412V98.156H85.624V94.304ZM96.1 79.148C98.008 85.268 101.644 91.784 105.532 95.456C104.524 96.212 103.084 97.688 102.328 98.84C98.368 94.52 95.02 87.14 93.04 80.048L96.1 79.148ZM89.044 78.824L92.14 79.688C90.088 87.14 86.668 94.556 82.384 98.948C81.7 97.904 80.26 96.392 79.324 95.672C83.428 92 87.136 85.232 89.044 78.824ZM126.952 87.68V91.028H136.132V87.68H126.952ZM123.424 84.584H139.84V94.124H123.424V84.584ZM131.272 74.216C129.616 77.096 126.484 80.66 123.1 82.748C122.668 81.704 121.804 80.192 121.12 79.292C124.468 77.384 127.744 73.532 129.256 70.436H133C135.124 73.784 138.292 77.096 141.496 78.608C140.74 79.616 139.84 81.164 139.3 82.352C136.24 80.48 133.036 77.096 131.272 74.216ZM129.58 80.804H133.396V87.824C133.396 93.62 132.316 100.172 123.748 104.312C123.208 103.412 121.984 102.008 121.12 101.288C128.68 97.832 129.58 92.468 129.58 87.788V80.804ZM133.756 92.252C135.016 96.032 137.644 99.272 141.316 100.82C140.416 101.576 139.156 103.16 138.58 104.204C134.548 102.08 131.956 97.976 130.48 93.08L133.756 92.252ZM125.908 79.328H136.996V82.64H125.908V79.328ZM110.824 77.24H121.372V80.48H110.824V77.24ZM110.824 82.676H121.372V85.952H110.824V82.676ZM108.808 88.148H121.12V91.496H108.808V88.148ZM114.784 73.784H118.204V90.02H114.784V73.784ZM116.008 93.152L117.664 92.576C118.42 94.016 119.104 95.924 119.392 97.148L117.592 97.832C117.376 96.536 116.692 94.592 116.008 93.152ZM113.668 93.62L115.504 93.296C116.08 95.168 116.584 97.544 116.692 99.092L114.748 99.524C114.676 97.94 114.208 95.492 113.668 93.62ZM111.184 93.836L113.02 93.62C113.38 95.744 113.524 98.516 113.416 100.28L111.472 100.532C111.58 98.696 111.472 95.996 111.184 93.836ZM108.52 93.08L110.896 93.512C110.716 96.86 110.32 100.208 108.844 102.224L106.684 101.036C107.944 99.2 108.376 96.14 108.52 93.08ZM108.808 71.768H122.092V75.26H112.336V90.452H108.808V71.768ZM119.248 88.148H122.812C122.812 88.148 122.812 89.12 122.776 89.588C122.416 98.336 122.056 101.72 121.192 102.836C120.58 103.628 119.932 103.952 119.068 104.06C118.312 104.204 117.124 104.24 115.864 104.204C115.792 103.16 115.468 101.756 114.964 100.856C115.936 100.964 116.728 100.964 117.16 100.964C117.592 100.964 117.844 100.856 118.132 100.532C118.636 99.812 118.96 96.932 119.248 88.76V88.148ZM147.616 75.44C148.984 75.584 150.82 75.692 152.08 75.692H170.224C171.268 75.692 172.744 75.62 173.356 75.584C173.32 76.448 173.248 77.852 173.248 78.932V97.58C173.248 98.84 173.356 100.712 173.428 101.828H168.208C168.244 100.748 168.28 99.452 168.28 98.12V80.336H152.08C150.568 80.336 148.624 80.408 147.616 80.48V75.44ZM147.184 94.988C148.408 95.096 150.028 95.204 151.648 95.204H171.124V99.956H151.792C150.388 99.956 148.372 100.028 147.184 100.172V94.988ZM181.276 84.332C182.608 84.44 185.2 84.584 187.072 84.584C191.32 84.584 203.2 84.584 206.404 84.584C208.096 84.584 209.68 84.404 210.652 84.332V90.02C209.788 89.984 207.952 89.804 206.44 89.804C203.164 89.804 191.32 89.804 187.072 89.804C185.056 89.804 182.644 89.912 181.276 90.02V84.332ZM219.472 75.152C222.244 75.224 227.788 75.188 231.748 74.612C235.384 74.072 239.02 73.28 240.82 72.416L243.808 76.376C242.584 76.7 241.612 76.952 241.036 77.096C238.804 77.672 235.924 78.14 233.152 78.536C229.048 79.112 223.756 79.256 220.624 79.328L219.472 75.152ZM221.02 99.992C227.392 97.076 230.236 92.324 230.236 85.592C230.236 85.592 230.236 83.252 230.236 78.14L234.952 77.6C234.952 80.696 234.952 85.484 234.952 85.484C234.952 92.756 232.576 98.912 225.628 103.088L221.02 99.992ZM216.772 83.792C217.78 83.864 218.968 83.972 220.12 83.972C222.388 83.972 241.648 83.972 244.06 83.972C244.816 83.972 246.508 83.864 247.3 83.792V88.436C246.328 88.364 245.14 88.292 244.132 88.292C241.864 88.292 222.28 88.292 220.156 88.292C219.04 88.292 217.708 88.364 216.772 88.436V83.792ZM258.676 73.64C261.16 75.332 265.84 79.076 267.964 81.272L264.292 85.016C262.42 83 257.884 79.076 255.256 77.276L258.676 73.64ZM254.14 97.616C259.792 96.824 264.436 94.988 267.928 92.936C274.084 89.264 278.764 83.792 281.068 78.932L283.84 83.972C281.14 88.868 276.352 93.836 270.556 97.328C266.884 99.524 262.24 101.504 257.2 102.368L254.14 97.616ZM314.044 71.516C314.944 72.848 316.204 75.116 316.888 76.448L314.008 77.708C313.252 76.232 312.136 74.072 311.164 72.704L314.044 71.516ZM318.292 69.896C319.228 71.264 320.56 73.532 321.208 74.792L318.328 76.016C317.572 74.54 316.42 72.416 315.448 71.084L318.292 69.896ZM317.248 79.436C316.852 80.156 316.348 81.128 316.06 82.028C315.088 85.232 313.036 90.056 309.796 94.052C306.376 98.228 302.02 101.54 295.252 104.204L291.004 100.424C298.384 98.192 302.38 95.06 305.512 91.496C307.96 88.688 310.048 84.368 310.624 81.704H298.492L300.148 77.6C301.768 77.6 309.292 77.6 310.444 77.6C311.56 77.6 312.748 77.456 313.576 77.168L317.248 79.436ZM305.512 73.748C304.684 75.008 303.748 76.664 303.316 77.42C300.904 81.776 296.584 86.852 291.436 90.38L287.368 87.392C293.704 83.54 296.836 78.896 298.636 75.8C299.176 74.936 299.932 73.244 300.256 72.02L305.512 73.748ZM343.276 76.34C342.772 80.012 342.052 84.224 340.792 88.472C338.632 95.744 335.536 100.208 331.612 100.208C327.58 100.208 324.268 95.78 324.268 89.696C324.268 81.416 331.504 74.288 340.828 74.288C349.72 74.288 355.372 80.48 355.372 88.364C355.372 95.924 350.728 101.288 341.656 102.692L338.92 98.444C340.324 98.264 341.332 98.084 342.304 97.868C346.876 96.752 350.476 93.476 350.476 88.184C350.476 82.532 346.948 78.5 340.72 78.5C333.088 78.5 328.912 84.728 328.912 89.264C328.912 92.9 330.352 94.664 331.72 94.664C333.268 94.664 334.636 92.36 336.148 87.5C337.192 84.116 337.984 79.976 338.344 76.196L343.276 76.34ZM365.02 75.224C367.684 75.512 371.068 75.656 374.848 75.656C378.376 75.656 382.516 75.44 385.288 75.152V79.94C382.768 80.156 378.304 80.372 374.884 80.372C371.104 80.372 367.972 80.192 365.02 79.976V75.224ZM368.08 90.452C367.72 91.748 367.468 92.9 367.468 94.124C367.468 96.428 369.628 98.084 374.848 98.084C379.708 98.084 384.28 97.544 387.484 96.68L387.52 101.72C384.388 102.476 380.068 102.944 374.992 102.944C366.748 102.944 362.608 100.172 362.608 95.24C362.608 93.152 363.04 91.388 363.328 90.056L368.08 90.452ZM386.224 71.48C387.124 72.812 388.384 75.116 389.068 76.448L386.188 77.672C385.432 76.196 384.316 74.036 383.344 72.668L386.224 71.48ZM390.472 69.86C391.408 71.228 392.74 73.496 393.388 74.756L390.508 76.016C389.788 74.504 388.6 72.416 387.628 71.048L390.472 69.86ZM409.984 87.464H414.484V99.56C414.484 101.792 413.944 102.944 412.252 103.52C410.56 104.132 408.22 104.204 405.124 104.204C404.872 102.98 404.152 101.18 403.54 100.028C405.664 100.136 408.364 100.136 409.084 100.1C409.768 100.064 409.984 99.956 409.984 99.416V87.464ZM399.148 72.452H421.252V76.412H399.148V72.452ZM419.632 72.452H420.784L421.756 72.2L424.852 74.648C421.792 77.672 417.544 81.092 413.692 83.216C413.116 82.352 411.82 81.02 411.1 80.336C414.232 78.572 418.012 75.44 419.632 73.388V72.452ZM395.656 84.188H425.068V88.292H395.656V84.188ZM404.188 81.02L406.348 77.78C410.272 79.112 416.464 81.38 419.596 82.784L417.292 86.492C414.376 85.052 408.328 82.568 404.188 81.02ZM423.628 84.188H424.456L425.212 83.9L428.74 85.412C427.156 88.796 424.996 92.432 422.944 94.844L419.272 92.72C420.784 90.704 422.62 87.536 423.628 84.908V84.188ZM447.748 86.744L451.204 84.98C453.076 87.464 455.128 90.812 455.92 93.116L452.14 95.06C451.492 92.828 449.584 89.336 447.748 86.744ZM448.936 76.556H461.86V80.624H448.936V76.556ZM460.024 76.556H464.2C464.2 76.556 464.2 77.996 464.164 78.536C463.624 94.412 463.156 100.136 461.644 102.044C460.636 103.412 459.664 103.808 458.152 104.06C456.82 104.24 454.624 104.24 452.5 104.132C452.428 102.908 451.852 101.036 451.06 99.812C453.328 99.992 455.416 99.992 456.352 99.992C457.072 99.992 457.504 99.884 457.9 99.38C459.088 98.156 459.592 92.072 460.024 77.42V76.556ZM449.152 70.4L453.616 71.372C452.104 76.736 449.62 82.028 446.884 85.304C446.02 84.584 444.112 83.288 443.032 82.676C445.768 79.832 447.964 75.116 449.152 70.4ZM436.48 70.472L440.296 71.804C438.82 74.612 437.128 77.816 435.724 79.796L432.808 78.608C434.104 76.448 435.652 72.992 436.48 70.472ZM440.8 74.72L444.436 76.232C441.772 80.372 438.244 85.376 435.472 88.436L432.844 87.104C435.616 83.864 438.892 78.572 440.8 74.72ZM430.936 79.004L432.952 76.016C434.896 77.672 437.128 79.976 438.064 81.56L435.868 84.944C434.968 83.216 432.772 80.732 430.936 79.004ZM439.9 83.396L442.96 82.064C444.4 84.476 445.84 87.608 446.308 89.696L443.032 91.208C442.6 89.156 441.268 85.88 439.9 83.396ZM430.9 86.312C434.248 86.204 439.216 85.988 444.04 85.736V89.156C439.504 89.516 434.824 89.84 431.26 90.056L430.9 86.312ZM440.548 92.432L443.716 91.388C444.652 93.548 445.624 96.356 446.056 98.192L442.672 99.416C442.348 97.544 441.412 94.628 440.548 92.432ZM432.448 91.604L436.012 92.216C435.652 95.672 434.86 99.272 433.816 101.576C433.06 101.108 431.44 100.352 430.54 99.992C431.584 97.868 432.16 94.664 432.448 91.604ZM436.624 88.22H440.476V104.276H436.624V88.22ZM480.04 78.896C482.128 79.112 484.18 79.22 486.376 79.22C490.768 79.22 495.268 78.86 499.012 78.068V82.532C495.232 83.108 490.696 83.396 486.376 83.432C484.252 83.432 482.2 83.36 480.076 83.216L480.04 78.896ZM493.756 72.848C493.648 73.532 493.576 74.396 493.54 75.152C493.468 76.34 493.396 78.824 493.396 81.416C493.396 88.04 493.972 92.72 493.972 96.14C493.972 99.92 492.1 102.656 486.916 102.656C481.912 102.656 478.816 100.604 478.816 96.824C478.816 93.152 481.912 90.632 486.844 90.632C493.612 90.632 497.968 94.016 500.776 96.608L498.328 100.388C494.188 96.536 490.552 94.124 486.484 94.124C484.432 94.124 483.028 94.952 483.028 96.32C483.028 97.796 484.468 98.444 486.412 98.444C488.608 98.444 489.364 97.292 489.364 95.168C489.364 92.684 488.896 86.636 488.896 81.452C488.896 78.716 488.86 76.304 488.824 75.224C488.824 74.648 488.716 73.532 488.608 72.848H493.756ZM476.188 73.208C475.9 73.928 475.468 75.8 475.324 76.448C474.784 78.86 473.596 86.78 473.596 90.38C473.596 91.064 473.632 92 473.74 92.72C474.244 91.46 474.856 90.236 475.36 89.012L477.592 90.776C476.584 93.764 475.396 97.4 475 99.38C474.892 99.884 474.784 100.676 474.82 101.036C474.82 101.432 474.82 102.044 474.856 102.548L470.788 102.836C470.068 100.352 469.348 96.212 469.348 91.352C469.348 85.916 470.428 79.112 470.86 76.34C471.004 75.332 471.148 73.928 471.184 72.812L476.188 73.208ZM509.812 74.864C512.476 75.152 515.824 75.296 519.64 75.296C523.168 75.296 527.308 75.08 530.044 74.792V79.58C527.524 79.796 523.096 80.012 519.64 80.012C515.896 80.012 512.764 79.832 509.812 79.616V74.864ZM512.836 90.092C512.512 91.388 512.224 92.54 512.224 93.764C512.224 96.032 514.456 97.724 519.64 97.724C524.464 97.724 529.072 97.184 532.276 96.284L532.312 101.36C529.144 102.08 524.824 102.548 519.784 102.548C511.576 102.548 507.4 99.812 507.4 94.844C507.4 92.792 507.868 91.028 508.12 89.66L512.836 90.092ZM554.272 72.308C553.912 73.604 553.696 74.828 553.408 75.98C552.832 78.86 551.752 84.152 550.672 87.5C553.588 85.916 556.396 85.268 559.636 85.268C565.432 85.268 569.32 88.328 569.32 92.972C569.32 101.036 561.508 103.988 549.844 102.728L548.584 98.084C556.504 99.344 564.46 98.408 564.46 93.08C564.46 90.956 562.588 89.12 559.06 89.12C554.92 89.12 551.248 90.632 549.124 93.368C548.728 93.872 548.44 94.304 548.116 94.916L543.868 93.44C546.532 88.184 548.548 79.436 549.016 75.728C549.196 74.216 549.232 73.28 549.16 72.092L554.272 72.308ZM541.708 76.52C544.048 76.916 546.928 77.204 549.16 77.204C553.768 77.204 560.608 76.664 566.512 75.404L566.62 79.724C562.048 80.48 554.416 81.344 549.196 81.344C546.46 81.344 543.868 81.2 541.744 80.984L541.708 76.52ZM585.988 72.02C589.408 73.1 597.256 74.504 600.424 74.828L599.344 79.256C595.672 78.752 587.68 77.096 584.872 76.376L585.988 72.02ZM586.24 79.256C585.736 81.272 585.124 85.628 584.872 87.716C588.112 85.34 591.712 84.26 595.492 84.26C601.792 84.26 605.464 88.148 605.464 92.504C605.464 99.092 600.244 104.132 585.304 102.836L583.9 98.12C594.736 99.632 600.424 97.004 600.424 92.396C600.424 90.056 598.228 88.364 595.06 88.364C590.992 88.364 587.356 89.876 585.088 92.612C584.44 93.368 584.044 93.944 583.756 94.664L579.58 93.656C580.3 90.128 581.164 83.072 581.38 78.608L586.24 79.256Z" fill="white"/>
<path d="M185 3.99999V34.8532C185 37.0624 186.791 38.8532 189 38.8532H253.13C255.452 38.8532 257.08 41.1428 256.319 43.3362C255.192 46.5818 259.069 49.2399 261.69 47.0191L270.21 39.8012C270.933 39.1891 271.849 38.8532 272.796 38.8532H491C493.209 38.8532 495 37.0624 495 34.8532V4C495 1.79086 493.209 0 491 0H189C186.791 0 185 1.79085 185 3.99999Z" fill="#2F2E2C"/>
<path d="M216.068 10.812C214.1 13.668 210.476 17.052 206.564 19.38C206.18 18.708 205.364 17.676 204.74 17.1C208.82 14.844 212.708 10.98 214.484 7.956H217.411C219.98 11.676 223.916 15.06 227.708 16.836C226.964 17.532 226.316 18.492 225.788 19.356C222.14 17.196 218.132 13.668 216.068 10.812ZM211.004 15.468H221.228V18.132H211.004V15.468ZM207.715 20.436H221.612V23.148H207.715V20.436ZM221.132 20.436H221.54L222.044 20.292L224.348 20.964C223.172 23.916 221.42 27.684 219.956 30.732L216.884 29.916C218.42 26.892 220.268 22.908 221.132 20.748V20.436ZM230.156 12.78C231.188 12.9 232.484 12.948 233.348 12.948C236.324 12.948 239.564 12.444 241.892 11.7L241.964 14.484C239.9 15.06 236.444 15.684 233.372 15.66C232.412 15.66 231.404 15.636 230.372 15.588L230.156 12.78ZM239.492 9.18C239.18 10.452 238.604 12.804 237.956 14.844C236.852 18.3 234.692 22.764 232.652 25.596L229.748 24.108C231.908 21.468 234.068 17.268 235.004 14.676C235.58 12.948 236.108 10.716 236.18 8.868L239.492 9.18ZM245.132 16.668C245.06 17.676 245.084 18.684 245.108 19.74C245.156 21.156 245.372 24.732 245.372 26.076C245.372 28.308 244.172 30.06 240.74 30.06C237.764 30.06 235.412 28.716 235.412 26.076C235.412 23.748 237.38 21.924 240.716 21.924C244.916 21.924 248.228 24.036 250.22 25.836L248.636 28.428C246.908 26.82 244.172 24.348 240.548 24.348C239.156 24.348 238.244 24.948 238.244 25.788C238.244 26.676 239.012 27.3 240.332 27.3C241.964 27.3 242.492 26.388 242.492 25.044C242.492 23.604 242.228 19.188 242.108 16.668H245.132ZM249.26 17.94C247.868 16.812 245.132 15.252 243.476 14.508L245.036 12.156C246.764 12.9 249.716 14.508 250.964 15.396L249.26 17.94ZM260.18 9.18C262.46 9.9 267.692 10.836 269.804 11.052L269.084 14.004C266.636 13.668 261.308 12.564 259.436 12.084L260.18 9.18ZM260.348 14.004C260.012 15.348 259.604 18.252 259.436 19.644C261.596 18.06 263.996 17.34 266.516 17.34C270.716 17.34 273.164 19.932 273.164 22.836C273.164 27.228 269.684 30.588 259.724 29.724L258.788 26.58C266.012 27.588 269.804 25.836 269.804 22.764C269.804 21.204 268.34 20.076 266.228 20.076C263.516 20.076 261.092 21.084 259.58 22.908C259.148 23.412 258.884 23.796 258.692 24.276L255.908 23.604C256.388 21.252 256.964 16.548 257.108 13.572L260.348 14.004ZM282.812 28.836C280.004 28.836 278.132 27.732 276.788 26.412L278.444 24.18C279.428 25.164 280.7 25.98 282.332 25.98C284.204 25.98 285.476 24.804 285.476 22.692C285.476 20.628 284.276 19.476 282.5 19.476C281.444 19.476 280.868 19.74 279.836 20.412L278.204 19.356L278.708 10.74H288.212V13.692H281.756L281.42 17.46C282.116 17.148 282.74 16.98 283.556 16.98C286.532 16.98 289.028 18.732 289.028 22.62C289.028 26.556 286.076 28.836 282.812 28.836ZM296.968 28.836C294.16 28.836 292.288 27.732 290.944 26.412L292.6 24.18C293.584 25.164 294.856 25.98 296.488 25.98C298.36 25.98 299.632 24.804 299.632 22.692C299.632 20.628 298.432 19.476 296.656 19.476C295.6 19.476 295.024 19.74 293.992 20.412L292.36 19.356L292.864 10.74H302.368V13.692H295.912L295.576 17.46C296.272 17.148 296.896 16.98 297.712 16.98C300.688 16.98 303.184 18.732 303.184 22.62C303.184 26.556 300.232 28.836 296.968 28.836ZM311.58 28.836C307.956 28.836 305.556 25.692 305.556 19.548C305.556 13.428 307.956 10.428 311.58 10.428C315.18 10.428 317.58 13.428 317.58 19.548C317.58 25.692 315.18 28.836 311.58 28.836ZM311.58 26.076C313.116 26.076 314.244 24.54 314.244 19.548C314.244 14.58 313.116 13.14 311.58 13.14C310.044 13.14 308.892 14.58 308.892 19.548C308.892 24.54 310.044 26.076 311.58 26.076ZM325.736 28.836C322.112 28.836 319.712 25.692 319.712 19.548C319.712 13.428 322.112 10.428 325.736 10.428C329.336 10.428 331.736 13.428 331.736 19.548C331.736 25.692 329.336 28.836 325.736 28.836ZM325.736 26.076C327.272 26.076 328.4 24.54 328.4 19.548C328.4 14.58 327.272 13.14 325.736 13.14C324.2 13.14 323.048 14.58 323.048 19.548C323.048 24.54 324.2 26.076 325.736 26.076ZM334.709 9.636H353.549V12.492H337.613V30.66H334.709V9.636ZM352.157 9.636H355.085V27.276C355.085 28.836 354.749 29.652 353.741 30.132C352.757 30.588 351.317 30.66 349.157 30.66C349.037 29.844 348.533 28.524 348.125 27.78C349.517 27.852 351.077 27.828 351.557 27.828C352.013 27.828 352.157 27.684 352.157 27.252V9.636ZM336.293 18.564H353.573V21.42H336.293V18.564ZM343.277 11.196H346.157V19.98H343.277V11.196ZM367.709 9.732C367.565 10.356 367.421 11.124 367.301 11.724C367.061 12.804 366.773 14.292 366.509 15.516C365.717 18.9 363.797 25.74 361.277 29.796L358.133 28.548C360.989 24.708 362.789 18.372 363.461 15.348C363.917 13.188 364.181 11.148 364.157 9.348L367.709 9.732ZM375.989 12.132C377.453 14.22 379.469 18.684 380.213 20.964L377.165 22.38C376.541 19.716 374.837 15.492 373.109 13.356L375.989 12.132ZM357.989 14.652C358.853 14.7 359.669 14.676 360.557 14.652C362.477 14.604 367.037 14.076 368.812 14.076C371.357 14.076 373.157 15.204 373.157 18.684C373.157 21.516 372.797 25.404 371.789 27.468C370.997 29.148 369.653 29.676 367.853 29.676C366.917 29.676 365.789 29.532 364.973 29.34L364.445 26.172C365.381 26.436 366.749 26.676 367.373 26.676C368.189 26.676 368.812 26.436 369.173 25.644C369.845 24.3 370.157 21.372 370.157 19.02C370.157 17.1 369.341 16.812 367.829 16.812C366.413 16.812 362.261 17.34 360.941 17.508C360.245 17.604 358.997 17.772 358.277 17.892L357.989 14.652ZM375.557 8.82C376.157 9.684 376.997 11.22 377.453 12.108L375.533 12.924C375.029 11.94 374.285 10.524 373.637 9.588L375.557 8.82ZM378.389 7.716C379.013 8.628 379.901 10.164 380.333 11.004L378.413 11.82C377.933 10.812 377.141 9.42 376.493 8.508L378.389 7.716ZM386.453 8.124L389.285 8.94C387.965 11.604 385.829 14.196 383.812 15.78C383.285 15.252 382.133 14.34 381.461 13.908C383.477 12.564 385.397 10.356 386.453 8.124ZM386.261 10.644H402.797V13.188H385.565L386.261 10.644ZM381.965 16.236H403.661V18.804H381.965V16.236ZM382.373 21.876H403.325V24.444H382.373V21.876ZM389.477 11.556H391.901V23.22H389.477V11.556ZM385.229 11.556H387.773V23.244H385.229V11.556ZM393.653 11.556H396.053V23.244H393.653V11.556ZM397.877 11.556H400.517V23.244H397.877V11.556ZM388.757 25.788L391.421 25.476C391.733 26.94 392.021 28.836 392.045 30.012L389.213 30.42C389.213 29.244 389.045 27.276 388.757 25.788ZM393.533 25.836L396.245 25.38C396.845 26.796 397.445 28.692 397.661 29.868L394.781 30.444C394.613 29.268 394.085 27.324 393.533 25.836ZM398.309 25.716L401.069 24.852C402.149 26.316 403.517 28.356 404.117 29.7L401.189 30.684C400.661 29.364 399.389 27.252 398.309 25.716ZM384.437 24.948L387.245 25.62C386.693 27.468 385.661 29.436 384.509 30.684L381.725 29.58C382.829 28.572 383.885 26.7 384.437 24.948ZM409.349 8.244H412.013V30.612H409.349V8.244ZM405.725 16.116H415.565V18.804H405.725V16.116ZM408.845 17.556L410.429 18.324C409.661 21.54 408.173 25.716 406.589 28.02C406.325 27.132 405.701 25.86 405.269 25.044C406.709 23.268 408.173 19.932 408.845 17.556ZM411.965 18.948C412.661 19.572 414.989 22.356 415.517 23.028L413.741 25.284C413.117 23.916 411.509 21.252 410.645 20.076L411.965 18.948ZM405.677 10.092L407.693 9.564C408.317 11.316 408.797 13.596 408.917 15.108L406.757 15.684C406.709 14.172 406.253 11.844 405.677 10.092ZM413.597 9.444L416.021 9.972C415.397 11.916 414.677 14.196 414.077 15.612L412.277 15.108C412.757 13.572 413.333 11.148 413.597 9.444ZM422.669 8.1H425.381V30.636H422.669V8.1ZM415.493 23.124L427.829 20.916L428.261 23.58L415.949 25.812L415.493 23.124ZM416.861 11.388L418.277 9.42C419.621 10.236 421.325 11.436 422.117 12.324L420.605 14.508C419.885 13.572 418.205 12.252 416.861 11.388ZM415.781 17.436L417.125 15.372C418.517 16.116 420.317 17.268 421.181 18.156L419.741 20.436C418.924 19.548 417.173 18.252 415.781 17.436ZM439.541 11.724C442.493 12.132 447.293 12.012 449.861 11.7V14.796C446.933 15.084 442.565 15.084 439.565 14.796L439.541 11.724ZM441.461 21.972C441.269 22.788 441.173 23.364 441.173 23.988C441.173 25.068 442.109 25.716 444.557 25.716C446.693 25.716 448.469 25.524 450.557 25.068L450.629 28.308C449.069 28.62 447.125 28.788 444.413 28.788C440.285 28.788 438.293 27.3 438.293 24.852C438.293 23.892 438.437 22.956 438.725 21.732L441.461 21.972ZM435.845 10.116C435.677 10.62 435.365 11.844 435.269 12.276C434.933 13.86 434.093 18.66 434.093 21.06C434.093 21.54 434.117 22.14 434.189 22.62C434.549 21.804 434.933 20.988 435.293 20.172L436.781 21.348C436.085 23.364 435.293 25.956 435.053 27.228C434.98 27.588 434.909 28.116 434.909 28.356C434.933 28.62 434.933 29.028 434.957 29.364L432.197 29.532C431.717 27.9 431.261 24.972 431.261 21.708C431.261 18.084 431.98 14.052 432.245 12.18C432.34 11.532 432.461 10.62 432.485 9.852L435.845 10.116ZM463.565 22.332L462.941 14.124L462.821 10.548H466.781L466.661 14.124L466.036 22.332H463.565ZM464.812 28.74C463.565 28.74 462.677 27.852 462.677 26.604C462.677 25.356 463.589 24.492 464.812 24.492C466.013 24.492 466.924 25.356 466.924 26.604C466.924 27.852 466.013 28.74 464.812 28.74Z" fill="white"/>
<defs>
<filter id="filter0_d_254_93" x="0" y="13" width="680" height="150" filterUnits="userSpaceOnUse" color-interpolation-filters="sRGB">
<feFlood flood-opacity="0" result="BackgroundImageFix"/>
<feColorMatrix in="SourceAlpha" type="matrix" values="0 0 0 0 0 0 0 0 0 0 0 0 0 0 0 0 0 0 127 0" result="hardAlpha"/>
<feOffset dy="5"/>
<feGaussianBlur stdDeviation="7.5"/>
<feComposite in2="hardAlpha" operator="out"/>
<feColorMatrix type="matrix" values="0 0 0 0 0.133333 0 0 0 0 0.133333 0 0 0 0 0.133333 0 0 0 0.4 0"/>
<feBlend mode="normal" in2="BackgroundImageFix" result="effect1_dropShadow_254_93"/>
<feBlend mode="normal" in="SourceGraphic" in2="effect1_dropShadow_254_93" result="shape"/>
</filter>
</defs>
</svg>
