<svg width="583" height="99" viewBox="0 0 583 99" fill="none" xmlns="http://www.w3.org/2000/svg">
<path d="M24.5231 25.72C24.4431 29.56 21.4831 30.76 18.4431 30.92C14.2031 31.16 7.60313 31.2 3.48312 31.2C0.483125 31.2 0.483125 26.92 3.44313 27.04C7.72313 27.2 15.0031 27.2 17.9631 27C19.1631 26.92 20.2031 26.24 20.2831 24.76C20.4031 22.36 20.4031 18.28 20.3231 16.2C20.2831 14.88 19.3231 14.16 17.8031 14.12C14.2831 14 7.96313 14.24 3.80313 14.44C0.683125 14.6 0.523126 10.68 3.60313 10.56C8.00313 10.36 15.2031 10.28 19.2031 10.36C23.1631 10.44 24.5631 12.8 24.5631 15.48C24.5631 17.92 24.6031 22.16 24.5231 25.72ZM65.8831 20.8H40.7631C39.3231 20.8 38.6431 19.84 38.6431 18.88C38.6431 17.88 39.4031 16.84 40.7631 16.84H65.8831C67.2431 16.84 67.9231 17.84 67.9231 18.84C67.9231 19.8 67.2431 20.8 65.8831 20.8ZM96.2031 20.44C95.8831 25.52 92.6031 32.88 84.3631 35.72C80.3231 37.12 79.3231 32.72 82.2031 32C89.0031 30.28 91.6831 24.24 92.1631 20.44C87.8431 20.44 83.5231 20.52 80.3631 20.6C77.9631 20.68 77.7231 17.04 80.3631 17C83.3231 16.92 87.7631 16.88 92.2431 16.88C92.2431 15.2 92.2031 13.4 92.2031 12.08C89.2831 12.56 86.4831 12.8 84.3631 12.76C81.4031 12.68 81.5231 8.88 84.4431 9.08C88.5231 9.36 95.8431 7.84 99.1231 6.48C102.563 5.04 103.323 9.16 101.123 9.92C99.6831 10.44 98.0031 10.88 96.2831 11.28C96.3231 12.84 96.3231 14.96 96.2831 16.88C100.483 16.88 104.163 16.92 106.043 16.96C108.843 17 108.763 20.64 105.963 20.56C103.763 20.48 100.163 20.44 96.2031 20.44ZM147.843 13.48C142.883 22.48 134.603 30.68 125.403 33.6C122.003 34.68 120.723 30.12 124.043 29.28C132.083 27.24 140.163 18.96 144.203 11.12C145.483 8.64 149.603 10.32 147.843 13.48ZM131.163 16.72C130.523 17.64 129.123 18.2 127.883 17.08C126.403 15.72 123.843 14.56 121.963 14.12C119.563 13.56 120.563 9.52 123.603 10.36C125.723 10.96 128.723 12.04 130.643 13.4C131.883 14.28 131.803 15.8 131.163 16.72ZM188.642 5.48C188.082 4.88 186.162 3.52 185.362 3.2C183.322 2.4 184.762 -9.53674e-07 186.642 0.599998C187.722 0.959999 189.762 1.96 190.682 2.88C192.282 4.48 190.002 7 188.642 5.48ZM185.002 9.04C184.482 8.4 182.522 7 181.722 6.64C179.682 5.8 181.282 3.4 183.122 4.08C184.202 4.48 186.202 5.52 187.082 6.48C188.642 8.16 186.322 10.6 185.002 9.04ZM173.602 8.4L173.322 8.76C175.042 8.64 177.002 8.52 178.602 8.44C181.682 8.28 184.362 10.44 182.882 13.28C178.002 22.6 172.482 30.68 161.242 35.12C157.842 36.44 156.202 32.52 159.522 31.36C168.402 28.28 175.002 20.32 177.962 13.52C178.282 12.76 177.962 12 177.002 12.04C175.322 12.08 172.402 12.36 170.602 12.56C167.882 16.16 164.362 20.36 161.602 22.24C158.922 24.04 156.562 20.56 159.282 18.88C163.122 16.52 168.322 9.2 170.162 6.04C171.482 3.8 175.482 5.72 173.602 8.4ZM208.522 18.24C207.482 15.08 205.562 11.16 203.722 8.92C201.642 6.36 205.562 4.2 207.162 6.48C208.882 8.92 210.682 12.48 211.842 15.8C214.002 14.28 216.282 12.84 218.882 11.4C221.602 9.88 223.682 13.72 220.602 15.28C216.522 17.36 212.402 19.68 209.242 22.36C205.282 25.72 205.162 28.72 208.282 30.24C211.082 31.64 216.802 30.6 219.202 29.72C222.562 28.44 223.762 33.04 220.202 34.04C217.042 34.92 210.362 35.72 206.402 33.72C200.642 30.8 200.882 24.32 207.362 19.16C207.762 18.84 208.122 18.52 208.522 18.24ZM248.682 16.12C246.162 16.16 243.682 16.28 241.682 16.36C238.482 16.52 238.722 12.88 241.402 12.76C243.682 12.68 246.482 12.6 249.362 12.56C249.602 10.76 249.682 8.96 249.682 7.28C249.642 4.24 253.922 4.56 253.882 7.44C253.882 8.96 253.762 10.72 253.482 12.52C255.122 12.52 256.682 12.52 258.082 12.56C261.202 12.64 263.442 14.28 263.362 17.52C263.242 21.56 262.482 27.36 260.802 30.36C258.322 34.76 252.922 36 249.002 32.76C246.962 31.08 249.082 27.6 251.562 29.48C253.722 31.12 255.762 30.4 257.162 28.36C258.722 26.04 259.322 20.52 259.362 18.44C259.402 17.16 258.602 16.12 257.162 16.08C255.922 16.04 254.402 16.08 252.802 16.08C251.122 23.36 247.282 31.28 240.162 35.16C237.602 36.56 235.082 33.24 238.282 31.52C243.762 28.56 247.122 22.48 248.682 16.12ZM293.762 6.08V10.92C295.642 10.92 297.442 10.96 299.002 11C301.882 11.08 304.002 12.6 303.842 15.52C303.322 24.04 298.242 32.48 286.282 35.48C283.442 36.2 282.242 32.16 285.242 31.56C294.642 29.68 299.042 22.72 299.362 16.56C299.442 15.28 298.842 14.52 297.482 14.44C294.202 14.28 288.002 14.32 285.642 14.44C284.322 14.52 283.802 15.56 283.802 16.44C283.802 17.4 283.882 19.84 283.922 21.04C283.962 23.52 279.802 23.76 279.762 21.24C279.722 20.08 279.762 17.48 279.722 15.48C279.642 11.96 283.082 11.08 284.642 11.04C286.202 11 287.922 10.96 289.682 10.96C289.682 9.4 289.642 7.16 289.642 6.16C289.642 4.84 290.682 4.2 291.722 4.2C292.762 4.2 293.762 4.84 293.762 6.08ZM346.242 13.48C341.282 22.48 333.002 30.68 323.802 33.6C320.402 34.68 319.122 30.12 322.442 29.28C330.482 27.24 338.562 18.96 342.602 11.12C343.882 8.64 348.002 10.32 346.242 13.48ZM329.562 16.72C328.922 17.64 327.522 18.2 326.282 17.08C324.802 15.72 322.242 14.56 320.362 14.12C317.962 13.56 318.962 9.52 322.002 10.36C324.122 10.96 327.122 12.04 329.042 13.4C330.282 14.28 330.202 15.8 329.562 16.72ZM363.64 21.88C360.32 23.28 357.56 24.44 356.88 24.72C354.12 25.88 352.92 22.08 355.4 21.28C356.2 21.04 359.68 19.6 363.76 17.96C363.84 14.68 363.88 11.36 363.88 8.96C363.88 6.28 367.96 6.72 367.96 8.8C367.96 10.92 367.84 13.6 367.76 16.32C371.88 14.64 375.92 13.08 377.84 12.4C380.8 11.36 383.84 13.44 382.56 16.12C381.2 19 378.92 22.28 376.44 24.52C373.8 26.92 371.2 23.88 373.4 21.84C374.92 20.44 376.44 19.04 377.56 17.28C378.28 16.2 377.76 16.24 377 16.48C375.6 16.92 371.64 18.52 367.6 20.2C367.48 22.64 367.4 24.84 367.32 26.32C367.24 28.28 368.24 29.28 370.64 29.56C372.76 29.8 376.4 29.6 379.24 28.72C382.8 27.6 384.56 32 380.04 33.04C376.4 33.88 372.88 33.88 369.16 33.44C365.64 33 363.44 30.84 363.52 27.56C363.56 26.16 363.6 24.16 363.64 21.88ZM406.8 21C406.76 22.36 405.72 23.08 404.68 23.08C403.64 23.08 402.52 22.36 402.6 21.04C402.84 17.08 402.72 10.8 402.52 7C402.4 4.52 406.52 4.32 406.68 6.84C406.88 10.44 406.88 17.28 406.8 21ZM407.52 36.04C404.24 37.92 402.48 34.16 405 32.76C412.08 28.84 413.68 23.48 413.68 17.52C413.68 14.4 413.48 9.44 413.48 6.28C413.48 3.68 417.8 3.84 417.76 6.28C417.68 9.68 417.88 14.16 417.88 17.48C417.88 24.36 415.8 31.28 407.52 36.04ZM464.64 13.48C459.68 22.48 451.4 30.68 442.2 33.6C438.8 34.68 437.52 30.12 440.84 29.28C448.88 27.24 456.96 18.96 461 11.12C462.28 8.64 466.4 10.32 464.64 13.48ZM447.96 16.72C447.32 17.64 445.92 18.2 444.68 17.08C443.2 15.72 440.64 14.56 438.76 14.12C436.36 13.56 437.36 9.52 440.4 10.36C442.52 10.96 445.52 12.04 447.44 13.4C448.68 14.28 448.6 15.8 447.96 16.72ZM505.438 5.48C504.878 4.88 502.958 3.52 502.158 3.2C500.118 2.4 501.558 -9.53674e-07 503.438 0.599998C504.518 0.959999 506.558 1.96 507.478 2.88C509.078 4.48 506.798 7 505.438 5.48ZM501.798 9.04C501.278 8.4 499.318 7 498.518 6.64C496.478 5.8 498.078 3.4 499.918 4.08C500.998 4.48 502.998 5.52 503.878 6.48C505.438 8.16 503.118 10.6 501.798 9.04ZM490.398 8.4L490.118 8.76C491.838 8.64 493.798 8.52 495.398 8.44C498.478 8.28 501.158 10.44 499.678 13.28C494.798 22.6 489.278 30.68 478.038 35.12C474.638 36.44 472.998 32.52 476.318 31.36C485.198 28.28 491.798 20.32 494.758 13.52C495.078 12.76 494.758 12 493.798 12.04C492.118 12.08 489.198 12.36 487.398 12.56C484.678 16.16 481.158 20.36 478.398 22.24C475.718 24.04 473.358 20.56 476.078 18.88C479.918 16.52 485.118 9.2 486.958 6.04C488.278 3.8 492.278 5.72 490.398 8.4ZM536.878 30.68C534.478 32.68 531.318 34.12 526.958 34.84C523.798 35.36 523.478 31.52 526.238 31.12C529.878 30.6 532.638 29.52 534.638 27.76C537.038 25.64 537.158 23.44 535.958 22.08C534.238 20.12 531.078 20.16 528.478 20.92C525.598 21.8 522.998 23.4 520.278 24.64C517.518 25.92 515.958 22.2 518.558 21.12C521.118 20.08 524.598 18.48 527.758 17.68C531.118 16.84 535.718 16.8 538.518 19.72C541.878 23.2 540.518 27.64 536.878 30.68ZM575.157 34.84C563.077 34.8 558.917 23.72 563.277 15.68C563.677 14.92 564.037 14.28 564.557 13.6C565.197 12.76 564.997 12.8 564.237 13.04C561.237 14 561.917 14 559.197 15.04C557.917 15.52 556.797 15.92 555.597 16.24C552.077 17.2 551.037 12.6 554.237 11.92C555.077 11.72 557.397 11.28 558.677 10.96C560.637 10.48 564.117 9.68 568.197 8.52C572.317 7.36 575.597 6.4 579.117 6.16C581.597 6 582.277 7.96 581.837 9.24C581.597 9.92 580.717 10.72 577.917 10.56C575.877 10.44 573.317 11.2 571.957 11.68C569.717 12.48 567.717 14.88 566.837 16.36C563.317 22.24 565.997 30.64 574.957 30.32C579.157 30.16 579.397 34.88 575.157 34.84ZM223.76 85.32L223.84 90.96C223.84 91 223.84 91 223.84 91.04C223.84 93.72 222.04 96.4 216.52 96.4C213.72 96.4 211.36 96.2 211.36 94.08C211.36 93.16 211.96 92.28 213.12 92.28C213.24 92.28 213.4 92.28 213.56 92.32C214.8 92.56 215.84 92.64 216.72 92.64C218.92 92.64 219.84 91.88 219.84 90.28C219.84 86.32 219.92 74.68 219.92 68.6H206.6C205.36 68.6 204.76 67.68 204.76 66.8C204.76 65.88 205.36 65 206.6 65H226.08C227.36 65 228 65.92 228 66.8C228 67.72 227.36 68.6 226.08 68.6H223.72C223.72 73.4 223.72 82.64 223.76 85.32ZM204.28 83C204.28 82.16 204.24 80.96 204.24 79.72C204.24 78.44 204.28 77.16 204.28 76.16C204.32 74.44 205.68 72.88 207.52 72.76C208.32 72.72 209.2 72.68 210.04 72.68C211.12 72.68 212.2 72.72 213.16 72.76C214.68 72.84 216.48 73.76 216.56 75.92C216.6 76.88 216.64 78.2 216.64 79.48C216.64 80.8 216.6 82.04 216.56 82.96C216.48 84.96 215.04 86.52 213.12 86.64C212.28 86.68 211.36 86.72 210.4 86.72C209.44 86.72 208.52 86.68 207.64 86.64C205.84 86.52 204.36 85.04 204.28 83ZM197.04 95.08L197.6 76.32C195.28 79.04 194.2 79.96 193.08 79.96C192 79.96 191.2 79.12 191.2 78.16C191.2 77.68 191.4 77.16 191.88 76.72C195.8 73.24 198.96 68.76 201.08 63.32C201.44 62.44 202.16 62.04 202.88 62.04C203.96 62.04 205.08 62.88 205.08 64.04C205.08 65.12 202.64 69.2 201.4 71.16L201.16 95.08C201.12 96.28 200.08 96.88 199.04 96.88C198.04 96.88 197.04 96.32 197.04 95.16C197.04 95.12 197.04 95.12 197.04 95.08ZM210.16 83.4C213.2 83.4 213.2 83.28 213.2 80C213.2 78.92 213.16 77.72 213.12 77.08C213.04 75.92 212.24 75.88 210.36 75.88C209.8 75.88 209.28 75.88 208.88 75.92C208.16 75.96 207.76 76.36 207.68 77.12C207.64 77.56 207.6 78.44 207.6 79.36C207.6 80.48 207.64 81.68 207.68 82.28C207.72 83.12 208.2 83.4 210.16 83.4ZM267 68.12C266.44 67.56 264.4 66.36 263.56 66.08C261.48 65.4 262.76 62.84 264.68 63.36C265.76 63.64 267.92 64.6 268.88 65.44C270.56 66.96 268.44 69.56 267 68.12ZM263.52 71.84C262.96 71.24 260.92 69.92 260.12 69.64C258.04 68.88 259.48 66.4 261.36 67C262.44 67.32 264.52 68.36 265.44 69.24C267.08 70.8 264.92 73.32 263.52 71.84ZM267.44 80.04C268.44 82.68 264.84 84.44 263.76 81.96C262.8 79.76 261 76.72 258.04 75.08C256.08 74 257.84 71 260.32 72.44C263.52 74.32 266.36 77.16 267.44 80.04ZM247.72 73.08L249.04 72.96C252.4 72.68 254.96 74.64 255.12 79.12C255.2 81.92 254.8 85.52 253.76 88.04C252.12 92 248.2 93.96 244.36 92.84C241.2 91.92 242.48 88.24 244.92 88.84C247.2 89.4 248.88 89.04 250 86.68C250.92 84.72 251.28 81.88 251.28 79.76C251.28 77.32 250.44 76.16 248.6 76.32C248 76.36 247.4 76.44 246.76 76.52C244.8 82.72 242.12 88.16 239 92.6C237.08 95.32 232.92 93 235.52 90.08C238.28 87 240.76 82.44 242.6 77.08L242.12 77.16C240.4 77.48 238.84 77.72 237.8 77.72C235.08 77.72 235.12 74.12 237.68 73.88C238.92 73.76 240.16 73.8 241.6 73.68L243.6 73.48C244.08 71.72 244.6 69.36 244.84 67.12C245.12 64.52 249.2 64.76 248.88 67.44C248.72 68.8 248.2 71.2 247.72 73.08ZM305.36 71.64H284.88C283.88 71.64 283.4 70.96 283.4 70.28C283.4 69.6 283.92 68.88 284.88 68.88H289.8L290.28 66.84C289 66.84 287.8 66.88 287.04 66.88H287C286.04 66.88 285.56 66.2 285.56 65.52C285.56 64.8 286.04 64.12 287.08 64.08H290.96L291.32 62.48C291.52 61.56 292.36 61.16 293.16 61.16C294.04 61.16 294.88 61.68 294.88 62.52C294.88 62.64 294.88 62.8 294.84 62.92L294.52 64.08C296.2 64.08 297.84 64.12 298.96 64.12C301.36 64.16 302.56 65.08 302.56 67.24C302.56 67.28 302.56 67.36 302.56 67.44C302.56 67.84 302.56 68.32 302.52 68.84L305.36 68.8H305.4C306.36 68.8 306.8 69.48 306.8 70.2C306.8 70.92 306.32 71.64 305.36 71.64ZM305.44 89.12H298.04L298.08 90.88C298.08 91.96 297.16 92.52 296.24 92.52C295.32 92.52 294.4 91.96 294.4 90.88V89.12H284.44C283.52 89.12 283.08 88.4 283.08 87.72C283.08 87 283.52 86.32 284.44 86.32H287.64V84.24H285.4C284.44 84.24 283.92 83.56 283.92 82.88C283.92 82.2 284.44 81.52 285.4 81.52H294.44L294.48 79.84C286.8 79.84 285.68 79.84 285.68 76.56C285.68 74.16 286.04 73.08 289.52 73.04C291.36 73 293.48 73 295.6 73C302.88 73 303.68 73 303.68 76.4C303.68 79.16 303.2 79.84 298 79.84V81.52H303.84C304.8 81.52 305.24 82.2 305.24 82.88C305.24 83.56 304.8 84.24 303.84 84.24H298.04V86.32H305.44C306.4 86.32 306.84 87 306.84 87.72C306.84 88.4 306.4 89.12 305.44 89.12ZM280.52 70.92C280.04 70.92 279.52 70.68 279.16 70.08C278.12 68.48 276.36 67.24 275.24 66.6C274.68 66.28 274.44 65.84 274.44 65.36C274.44 64.48 275.4 63.56 276.48 63.56C277.68 63.56 282.68 66.64 282.68 68.68C282.68 69.84 281.6 70.92 280.52 70.92ZM280.32 91.56C278.32 93.8 275.84 96.32 274.28 96.32C273.12 96.32 272.08 95.28 272.08 94.2C272.08 93.64 272.36 93.08 273.08 92.68C275.24 91.48 277.08 90.12 278.44 88.52C278.48 86.72 278.52 85.16 278.52 83.64C278.52 83.08 278.52 82.56 278.52 82C278.52 80.96 278.04 80.84 276.68 80.84C276.12 80.84 275.64 80.84 275.12 80.84C274.36 80.84 272.92 80.8 272.92 79.12C272.92 78.24 273.52 77.32 274.6 77.32C276.04 77.32 277.16 77.32 278.48 77.36C281.04 77.44 282.24 78.56 282.24 81.12C282.24 83.44 282.16 86.2 282.16 88.76C284.68 91.96 288.8 92.8 294.36 92.8C298.36 92.8 302.72 92.36 305.76 92.12C305.84 92.12 305.88 92.12 305.96 92.12C307.2 92.12 307.88 93.08 307.88 94.04C307.88 94.96 307.28 95.88 305.88 96C303.4 96.24 299.72 96.48 296.04 96.48C286.72 96.48 283.8 95.12 280.32 91.56ZM293.32 68.88H299.08C299.12 68.48 299.12 68.12 299.12 67.88C299.12 66.84 298.84 66.84 293.84 66.84L293.32 68.88ZM298.96 75.44H290.36C289.44 75.44 289.2 75.6 289.2 76.16C289.2 77.36 289.2 77.36 294.76 77.36C300.16 77.36 300.2 77.28 300.2 76.36C300.2 75.76 300.04 75.44 298.96 75.44ZM294.44 86.32V84.24H291V86.32H294.44ZM333.04 67.76C330.2 67.24 327.32 66.04 325.64 65.08C323.36 63.8 325.04 60.68 327.84 61.96C329.56 62.72 331.84 63.36 334.04 63.72C337.32 64.28 336 68.32 333.04 67.76ZM329.4 96.68C326.76 98.64 324.12 95.36 326.48 93.68C333.64 88.64 335.84 81.56 334.2 76.92C333.08 73.8 330.08 73.64 327.32 75.28C326.52 75.76 324.32 76.88 323.44 77.12C320.28 77.92 319.28 74 322.2 72.96C323.24 72.6 324.52 72.16 325.64 71.68C329.72 69.88 335.6 70.04 337.72 74.64C340.8 81.32 337.4 90.8 329.4 96.68ZM369.44 87.16C368.4 87.16 367.4 86.44 367.4 84.96C367.4 79.88 372.64 77.56 374.08 74.92C374.68 73.84 374.96 72.68 374.96 71.64C374.96 67.72 372 66.8 370.4 66.8C367.2 66.8 365.88 69.44 365.56 70.52C365.36 71.32 364.44 71.72 363.52 71.72C362.44 71.72 361.32 71.12 361.32 69.8C361.32 68.32 363.76 62.8 370.36 62.8C375.08 62.8 379.16 66.08 379.16 71.56C379.16 72.84 378.88 74.24 378.36 75.56C376.92 79.16 371.68 81.2 371.68 84.84C371.68 86.36 370.52 87.16 369.44 87.16ZM372.32 92.8C372.32 94.72 370.64 95.44 369.56 95.44C368.04 95.44 366.8 94.16 366.8 92.8C366.8 91.04 368.48 90.04 369.56 90.04C371.12 90.04 372.32 91 372.32 92.8Z" fill="#5D3200"/>
</svg>
