<svg width="698" height="81" viewBox="0 0 698 81" fill="none" xmlns="http://www.w3.org/2000/svg">
<path d="M140.391 21.856H116.359C115.431 21.856 114.983 21.248 114.983 20.608C114.983 19.936 115.463 19.232 116.359 19.232H120.135V15.04H115.719C114.791 15.04 114.375 14.432 114.375 13.792C114.375 13.152 114.855 12.448 115.719 12.448H120.135V8.96C118.279 11.168 117.607 11.584 116.935 11.584C116.103 11.584 115.335 10.944 115.335 10.176C115.335 9.824 115.495 9.44 115.911 9.088C118.247 7.072 119.815 4.992 121.127 2.304C121.383 1.792 121.831 1.568 122.279 1.568C123.079 1.568 123.943 2.208 123.943 3.072C123.943 3.36 123.783 3.808 122.439 5.856H138.727C139.591 5.856 140.039 6.496 140.039 7.136C140.039 7.808 139.591 8.448 138.727 8.448H136.839V12.448H141.159C142.023 12.448 142.471 13.088 142.471 13.728C142.471 14.4 142.023 15.04 141.159 15.04H136.839V19.232H140.391C141.287 19.232 141.703 19.872 141.703 20.544C141.703 21.184 141.287 21.856 140.391 21.856ZM141.447 28.096C141.447 29.088 140.551 29.792 139.687 29.792C139.143 29.792 138.631 29.536 138.311 28.896C137.607 27.424 136.423 26.144 135.271 25.184C134.951 24.928 134.823 24.672 134.823 24.384C134.823 23.744 135.623 23.168 136.455 23.168C137.799 23.168 141.447 26.432 141.447 28.096ZM134.119 28.384C134.119 29.408 133.223 30.016 132.423 30.016C131.751 30.016 131.143 29.632 130.983 28.768C130.663 27.104 130.055 25.888 129.415 24.896C129.287 24.672 129.223 24.48 129.223 24.288C129.223 23.616 129.895 23.168 130.631 23.168C132.679 23.168 134.119 27.648 134.119 28.384ZM127.591 28.352C127.591 29.472 126.695 30.08 125.863 30.08C125.159 30.08 124.487 29.6 124.487 28.64C124.487 28.608 124.487 28.608 124.487 28.576C124.487 28.48 124.487 28.384 124.487 28.288C124.487 26.944 124.263 25.632 123.879 24.64C123.815 24.48 123.783 24.32 123.783 24.192C123.783 23.52 124.455 23.168 125.127 23.168C125.639 23.168 126.151 23.36 126.439 23.776C127.143 24.832 127.591 26.848 127.591 28.352ZM117.255 30.24C116.295 30.24 115.559 29.6 115.559 28.832C115.559 28.384 115.815 27.904 116.455 27.488C117.319 26.944 118.791 25.504 119.111 24.256C119.303 23.488 119.911 23.168 120.519 23.168C121.287 23.168 122.087 23.68 122.087 24.512C122.087 26.208 119.399 30.24 117.255 30.24ZM134.215 12.448V8.448H131.911V12.448H134.215ZM129.575 12.448V8.448H127.303V12.448H129.575ZM134.215 19.232V15.04H131.911V19.232H134.215ZM124.935 12.448V8.448H122.727V12.448H124.935ZM129.575 19.232V15.04H127.303V19.232H129.575ZM124.935 19.232V15.04H122.727V19.232H124.935ZM164.711 10.528C164.359 10.528 164.007 10.368 163.655 9.984C162.759 8.992 161.511 8.096 160.711 7.648C160.295 7.424 160.135 7.104 160.135 6.752C160.135 6.08 160.839 5.376 161.703 5.376C162.791 5.376 165.191 7.2 165.671 7.712C166.023 8.096 166.151 8.512 166.151 8.928C166.151 9.76 165.511 10.528 164.711 10.528ZM167.559 28.896L167.623 21.472L159.495 23.744C159.303 23.808 159.143 23.808 158.983 23.808C158.151 23.808 157.639 23.136 157.639 22.432C157.639 21.856 157.991 21.28 158.727 21.056L167.623 18.592L167.559 3.456C167.559 2.528 168.295 2.08 169.063 2.08C169.831 2.08 170.631 2.56 170.631 3.456L170.567 17.76L173.543 16.928C173.703 16.896 173.863 16.864 173.991 16.864C174.823 16.864 175.367 17.6 175.367 18.304C175.367 18.848 175.047 19.392 174.343 19.584L170.567 20.64L170.631 28.896C170.631 29.728 169.863 30.144 169.095 30.144C168.327 30.144 167.559 29.728 167.559 28.896ZM164.423 16.896C164.103 16.896 163.751 16.768 163.431 16.48C162.407 15.616 161.063 14.848 160.295 14.464C159.783 14.208 159.559 13.824 159.559 13.44C159.559 12.8 160.231 12.128 161.159 12.128C162.407 12.128 164.615 13.536 165.191 14.016C165.639 14.4 165.831 14.88 165.831 15.328C165.831 16.16 165.191 16.896 164.423 16.896ZM149.703 10.784C149.287 10.784 148.871 10.56 148.647 10.048C148.199 8.96 147.271 7.616 146.919 7.2C146.727 6.976 146.631 6.72 146.631 6.528C146.631 5.856 147.399 5.344 148.135 5.344C149.575 5.344 151.175 8.544 151.175 9.28C151.175 10.176 150.439 10.784 149.703 10.784ZM154.439 28.928V28.96C154.439 29.824 153.671 30.272 152.903 30.272C152.135 30.272 151.367 29.824 151.367 28.96V28.928L151.495 19.296C148.583 24.032 147.527 24.256 147.015 24.256C146.183 24.256 145.447 23.584 145.447 22.816C145.447 22.464 145.607 22.112 145.991 21.792C147.687 20.352 149.991 17.6 151.495 14.88V14.784L147.879 14.848H147.847C146.887 14.848 146.471 14.208 146.471 13.568C146.471 12.864 146.951 12.128 147.879 12.128H151.463L151.367 3.52V3.488C151.367 2.56 152.135 2.08 152.903 2.08C153.671 2.08 154.439 2.56 154.439 3.488V3.52C154.439 3.52 154.375 6.176 154.343 9.28C154.375 9.184 154.439 9.088 154.503 8.992C155.015 8.256 155.879 6.88 156.327 5.888C156.551 5.408 156.935 5.216 157.351 5.216C158.055 5.216 158.855 5.824 158.855 6.592C158.855 7.2 157.575 9.12 156.519 10.336C156.231 10.656 155.879 10.816 155.527 10.816C155.015 10.816 154.535 10.528 154.343 10.08L154.311 12.128H157.703C158.567 12.128 159.015 12.8 159.015 13.472C159.015 14.144 158.567 14.848 157.735 14.848H157.703L154.279 14.784V16.416C154.471 16.32 154.695 16.256 154.919 16.256C155.687 16.256 158.631 18.304 158.631 19.52C158.631 20.352 157.895 21.056 157.159 21.056C156.807 21.056 156.423 20.896 156.135 20.512C155.559 19.744 154.887 18.976 154.279 18.464C154.311 23.136 154.439 28.928 154.439 28.928ZM200.295 23.36H197.447V28.896C197.447 29.76 196.711 30.176 195.975 30.176C195.239 30.176 194.503 29.76 194.503 28.896V23.36H191.719C190.727 23.36 190.279 22.72 190.279 22.08C190.279 21.376 190.791 20.672 191.719 20.672H194.503V19.872L194.599 14.336C192.935 17.696 190.791 20.704 187.847 23.424C187.495 23.776 187.079 23.904 186.695 23.904C186.151 23.904 185.671 23.616 185.415 23.2L185.319 28.864C185.319 29.856 184.519 30.336 183.751 30.336C182.983 30.336 182.247 29.856 182.247 28.896V28.864L182.567 14.08C180.519 16.736 179.655 17.216 178.951 17.216C178.119 17.216 177.447 16.576 177.447 15.808C177.447 15.456 177.607 15.04 177.991 14.688C181.031 11.776 183.815 7.552 185.287 3.104C185.543 2.4 186.087 2.08 186.663 2.08C187.527 2.08 188.455 2.752 188.455 3.648C188.455 4.416 186.887 7.424 185.703 9.44L185.447 21.824C185.543 21.664 185.703 21.504 185.863 21.376C189.031 18.784 191.623 15.552 193.639 11.424L188.199 11.52H188.167C187.175 11.52 186.727 10.88 186.727 10.176C186.727 9.472 187.239 8.736 188.199 8.736H194.439V3.296C194.439 2.368 195.207 1.92 195.943 1.92C196.743 1.92 197.511 2.4 197.511 3.296V8.736H204.647C205.575 8.736 206.055 9.44 206.055 10.144C206.055 10.848 205.607 11.52 204.679 11.52H204.647L198.247 11.424C200.551 15.36 203.623 18.272 206.631 20.512C207.111 20.864 207.303 21.344 207.303 21.792C207.303 22.624 206.631 23.392 205.735 23.392C205.351 23.392 204.903 23.232 204.455 22.88C201.959 20.832 199.399 17.76 197.351 14.368L197.447 19.84V20.672H200.295C201.223 20.672 201.671 21.344 201.671 22.016C201.671 22.688 201.223 23.36 200.295 23.36ZM233.863 11.296H231.655V13.312C232.551 13.312 233.447 13.312 234.215 13.344C235.847 13.376 236.999 14.24 237.127 15.488C237.191 15.968 237.191 16.608 237.191 17.248C237.191 17.76 237.191 18.304 237.159 18.752C237.063 20.192 235.975 21.216 234.055 21.28C233.543 21.312 232.935 21.312 232.359 21.312C233.639 24 235.847 25.824 238.023 26.912C238.631 27.232 238.919 27.744 238.919 28.256C238.919 29.056 238.311 29.856 237.383 29.856C235.975 29.856 232.263 26.944 230.407 22.944C227.911 29.312 222.727 30.176 222.663 30.176C221.831 30.176 221.223 29.376 221.223 28.64C221.223 28.096 221.511 27.584 222.183 27.36C225.639 26.176 227.399 23.776 228.231 21.312C224.711 21.312 223.399 21.312 223.399 17.44C223.399 16.8 223.399 16.16 223.431 15.648C223.495 14.4 224.455 13.376 226.215 13.344C227.047 13.312 227.975 13.312 228.935 13.312V11.296H226.663C226.087 11.296 225.767 10.912 225.639 10.464L224.583 11.52C224.263 11.84 223.911 11.968 223.559 11.968C222.791 11.968 222.119 11.296 222.119 10.592C222.119 10.24 222.279 9.888 222.631 9.6C224.551 8.032 226.119 5.824 227.559 3.552C228.199 2.528 229.095 2.08 229.991 2.08C230.919 2.08 231.879 2.56 232.615 3.424C234.311 5.408 236.231 7.296 238.279 8.928C238.695 9.28 238.887 9.696 238.887 10.112C238.887 10.944 238.183 11.744 237.351 11.744C236.711 11.744 236.423 11.456 234.983 10.016C234.983 10.048 234.983 10.048 234.983 10.08C234.983 10.688 234.567 11.296 233.863 11.296ZM218.823 16.032H220.039C220.583 16.032 222.855 16.128 222.855 19.264C222.855 24.8 222.087 29.344 217.191 29.344C215.111 29.344 214.055 28.992 214.055 27.712C214.055 27.008 214.503 26.336 215.303 26.336C215.399 26.336 215.527 26.336 215.655 26.368C216.327 26.528 216.903 26.624 217.415 26.624C218.631 26.624 219.719 25.984 219.975 22.56C219.815 22.784 219.559 22.912 219.303 22.912C219.015 22.912 218.759 22.752 218.663 22.336C218.375 21.312 217.895 20.352 217.607 19.84C217.543 19.712 217.511 19.616 217.511 19.488C217.511 19.168 217.831 18.944 218.215 18.944C219.207 18.944 220.007 21.216 220.071 21.44C220.103 20.768 220.103 20.16 220.103 19.744C220.103 18.496 219.943 18.368 217.671 18.368C216.583 18.368 215.367 18.4 214.375 18.4C212.935 18.4 211.495 17.76 211.431 15.712C211.399 14.464 211.399 12.512 211.399 10.592C211.399 8.672 211.399 6.784 211.431 5.728C211.495 3.904 212.615 2.784 214.375 2.752C215.271 2.72 217.159 2.72 218.887 2.72C220.135 2.72 221.319 2.72 221.959 2.752C222.663 2.784 223.015 3.328 223.015 3.904C223.015 4.512 222.599 5.12 221.799 5.152H218.823V7.264H220.967C221.767 7.264 222.151 7.808 222.151 8.352C222.151 8.928 221.767 9.472 220.967 9.472H218.823V11.616H220.967C221.767 11.616 222.151 12.16 222.151 12.704C222.151 13.28 221.767 13.824 220.967 13.824H218.823V16.032ZM217.095 24.064C216.743 24.064 216.391 23.84 216.327 23.296C216.199 22.048 215.975 21.024 215.719 20.288C215.687 20.16 215.655 20.064 215.655 19.968C215.655 19.52 216.007 19.264 216.391 19.264C216.679 19.264 216.999 19.424 217.159 19.808C217.543 20.608 217.991 22.496 217.991 23.104C217.991 23.712 217.543 24.064 217.095 24.064ZM214.535 25.152C214.119 25.152 213.767 24.864 213.767 24.32C213.767 24.288 213.767 24.224 213.767 24.192C213.799 23.712 213.831 23.168 213.831 22.656C213.831 21.696 213.767 20.8 213.735 20.416C213.735 20.352 213.735 20.32 213.735 20.288C213.735 19.744 214.087 19.456 214.471 19.456C214.919 19.456 215.559 19.488 215.559 23.584C215.559 24.064 215.527 25.152 214.535 25.152ZM210.823 26.688C210.215 26.688 209.671 26.208 209.671 25.504C209.671 25.248 209.767 24.928 209.959 24.608C210.311 24 211.079 22.144 211.143 20.608C211.175 19.872 211.655 19.52 212.135 19.52C212.455 19.52 213.287 19.648 213.287 20.768C213.287 22.08 212.487 26.688 210.823 26.688ZM227.015 8.864H233.863C232.647 7.552 231.495 6.208 230.599 5.12C230.471 4.96 230.279 4.864 230.087 4.864C229.927 4.864 229.767 4.928 229.671 5.12C228.807 6.464 227.943 7.712 227.015 8.864ZM231.623 15.488C231.623 16.48 231.591 17.312 231.591 17.504C231.559 18.016 231.463 18.56 231.399 19.104C234.439 19.104 234.471 19.04 234.471 17.12C234.471 15.584 234.471 15.488 231.623 15.488ZM228.935 15.488C226.119 15.488 226.055 15.488 226.055 17.312C226.055 18.848 226.055 19.104 228.775 19.104C228.935 17.856 228.935 17.376 228.935 15.488ZM216.359 7.264V5.12C215.751 5.12 215.239 5.152 214.951 5.152C214.471 5.184 214.087 5.408 214.055 6.176C214.055 6.464 214.023 6.848 214.023 7.264H216.359ZM216.359 11.616V9.472H214.023V11.616H216.359ZM216.359 16.032V13.824H214.023C214.023 14.272 214.055 14.688 214.055 15.04C214.087 15.648 214.439 16.032 215.047 16.032C215.047 16.032 215.079 16.032 215.111 16.032H216.359ZM265.415 21.376C265.351 24.448 262.983 25.408 260.551 25.536C257.159 25.728 251.879 25.76 248.583 25.76C246.183 25.76 246.183 22.336 248.551 22.432C251.975 22.56 257.799 22.56 260.167 22.4C261.127 22.336 261.959 21.792 262.023 20.608C262.119 18.688 262.119 15.424 262.055 13.76C262.023 12.704 261.255 12.128 260.039 12.096C257.223 12 252.167 12.192 248.839 12.352C246.343 12.48 246.215 9.344 248.679 9.248C252.199 9.088 257.959 9.024 261.159 9.088C264.327 9.152 265.447 11.04 265.447 13.184C265.447 15.136 265.479 18.528 265.415 21.376ZM298.503 17.44H278.407C277.255 17.44 276.711 16.672 276.711 15.904C276.711 15.104 277.319 14.272 278.407 14.272H298.503C299.591 14.272 300.135 15.072 300.135 15.872C300.135 16.64 299.591 17.44 298.503 17.44ZM322.759 17.152C322.503 21.216 319.879 27.104 313.287 29.376C310.055 30.496 309.255 26.976 311.559 26.4C316.999 25.024 319.143 20.192 319.527 17.152C316.071 17.152 312.615 17.216 310.087 17.28C308.167 17.344 307.975 14.432 310.087 14.4C312.455 14.336 316.007 14.304 319.591 14.304C319.591 12.96 319.559 11.52 319.559 10.464C317.223 10.848 314.983 11.04 313.287 11.008C310.919 10.944 311.015 7.904 313.351 8.064C316.615 8.288 322.471 7.072 325.095 5.984C327.847 4.832 328.455 8.128 326.695 8.736C325.543 9.152 324.199 9.504 322.823 9.824C322.855 11.072 322.855 12.768 322.823 14.304C326.183 14.304 329.127 14.336 330.631 14.368C332.871 14.4 332.807 17.312 330.567 17.248C328.807 17.184 325.927 17.152 322.759 17.152ZM364.071 11.584C360.103 18.784 353.479 25.344 346.119 27.68C343.399 28.544 342.375 24.896 345.031 24.224C351.463 22.592 357.927 15.968 361.159 9.696C362.183 7.712 365.479 9.056 364.071 11.584ZM350.727 14.176C350.215 14.912 349.095 15.36 348.103 14.464C346.919 13.376 344.871 12.448 343.367 12.096C341.447 11.648 342.247 8.416 344.679 9.088C346.375 9.568 348.775 10.432 350.311 11.52C351.303 12.224 351.239 13.44 350.727 14.176ZM396.71 5.184C396.262 4.704 394.726 3.616 394.086 3.36C392.454 2.72 393.606 0.799999 395.11 1.28C395.974 1.568 397.606 2.368 398.342 3.104C399.622 4.384 397.798 6.4 396.71 5.184ZM393.798 8.032C393.382 7.52 391.814 6.4 391.174 6.112C389.542 5.44 390.822 3.52 392.294 4.064C393.158 4.384 394.758 5.216 395.462 5.984C396.71 7.328 394.854 9.28 393.798 8.032ZM384.678 7.52L384.454 7.808C385.83 7.712 387.398 7.616 388.678 7.552C391.142 7.424 393.286 9.152 392.102 11.424C388.198 18.88 383.782 25.344 374.79 28.896C372.07 29.952 370.758 26.816 373.414 25.888C380.518 23.424 385.798 17.056 388.166 11.616C388.422 11.008 388.166 10.4 387.398 10.432C386.054 10.464 383.718 10.688 382.278 10.848C380.102 13.728 377.286 17.088 375.078 18.592C372.934 20.032 371.046 17.248 373.222 15.904C376.294 14.016 380.454 8.16 381.926 5.632C382.982 3.84 386.182 5.376 384.678 7.52ZM405.521 18.304C402.865 19.424 400.657 20.352 400.113 20.576C397.905 21.504 396.945 18.464 398.929 17.824C399.569 17.632 402.353 16.48 405.617 15.168C405.681 12.544 405.713 9.888 405.713 7.968C405.713 5.824 408.977 6.176 408.977 7.84C408.977 9.536 408.881 11.68 408.817 13.856C412.113 12.512 415.345 11.264 416.881 10.72C419.249 9.888 421.681 11.552 420.657 13.696C419.569 16 417.745 18.624 415.761 20.416C413.649 22.336 411.569 19.904 413.329 18.272C414.545 17.152 415.761 16.032 416.657 14.624C417.233 13.76 416.817 13.792 416.209 13.984C415.089 14.336 411.921 15.616 408.689 16.96C408.593 18.912 408.529 20.672 408.465 21.856C408.401 23.424 409.201 24.224 411.121 24.448C412.817 24.64 415.729 24.48 418.001 23.776C420.849 22.88 422.257 26.4 418.641 27.232C415.729 27.904 412.913 27.904 409.937 27.552C407.121 27.2 405.361 25.472 405.425 22.848C405.457 21.728 405.489 20.128 405.521 18.304ZM444.049 17.28C444.817 19.168 442.001 20.32 441.329 18.272C441.009 17.312 440.433 16.288 439.825 15.584C438.673 14.304 440.817 12.544 442.129 14.112C442.865 15.008 443.569 16.16 444.049 17.28ZM438.609 29.312C437.521 29.792 436.721 29.408 436.401 28.704C436.113 28.032 436.305 27.168 437.201 26.784C442.545 24.544 446.001 20.032 447.281 14.688C447.793 12.608 450.897 13.568 450.289 15.52C448.465 21.568 444.913 26.464 438.609 29.312ZM439.633 18.624C440.657 20.352 438.001 21.92 437.041 20.032C436.593 19.136 435.921 18.176 435.217 17.568C433.905 16.448 435.761 14.432 437.265 15.776C438.129 16.544 439.025 17.568 439.633 18.624ZM474.929 12.864C474.353 13.504 473.233 13.696 472.369 12.8C471.377 11.776 470.097 10.848 468.881 10.336C467.057 9.6 468.337 6.752 470.513 7.712C471.921 8.352 473.553 9.28 474.769 10.368C475.633 11.136 475.505 12.224 474.929 12.864ZM487.281 11.968C483.185 19.296 475.921 26.144 468.657 28.544C466.129 29.376 465.073 25.92 467.601 25.248C473.969 23.52 481.073 16.48 484.433 10.112C485.489 8.128 488.689 9.44 487.281 11.968ZM471.121 17.952C470.705 18.72 469.713 19.168 468.657 18.496C467.473 17.728 466.001 17.088 464.689 16.864C462.769 16.544 463.377 13.504 465.713 13.952C467.217 14.24 468.945 14.752 470.385 15.552C471.409 16.096 471.537 17.216 471.121 17.952ZM509.737 21.376C506.697 21.44 502.793 21.472 500.681 21.44C499.785 21.44 499.177 20.864 499.145 20.192C499.113 19.488 499.721 18.912 500.777 18.912C502.953 18.912 507.401 18.784 509.705 18.784C509.705 18.144 509.673 17.632 509.673 17.28C509.641 16.576 509.193 16.32 508.489 16.288C506.441 16.224 502.537 16.384 500.137 16.48C498.025 16.576 497.961 13.92 500.041 13.824C502.633 13.728 506.953 13.664 509.289 13.728C511.593 13.792 512.521 15.168 512.521 16.928C512.521 18.336 512.553 21.696 512.521 23.776C512.457 26.272 510.665 26.848 508.873 26.944C506.377 27.072 502.217 27.104 499.817 27.104C497.769 27.104 497.769 24.256 499.785 24.32C502.281 24.416 506.889 24.416 508.617 24.288C509.193 24.256 509.641 23.936 509.673 23.328C509.705 22.848 509.737 22.144 509.737 21.376ZM549.353 11.584C545.385 18.784 538.761 25.344 531.401 27.68C528.681 28.544 527.657 24.896 530.313 24.224C536.745 22.592 543.209 15.968 546.441 9.696C547.465 7.712 550.761 9.056 549.353 11.584ZM536.009 14.176C535.497 14.912 534.377 15.36 533.385 14.464C532.201 13.376 530.153 12.448 528.649 12.096C526.729 11.648 527.529 8.416 529.961 9.088C531.657 9.568 534.057 10.432 535.593 11.52C536.585 12.224 536.521 13.44 536.009 14.176ZM582.537 14.56C582.089 14.048 580.425 12.928 579.753 12.672C578.025 12 579.273 9.952 580.841 10.464C581.737 10.752 583.465 11.616 584.233 12.384C585.577 13.728 583.689 15.84 582.537 14.56ZM579.241 17.472C578.793 16.96 577.193 15.744 576.521 15.456C574.825 14.72 576.105 12.736 577.673 13.312C578.569 13.632 580.297 14.528 581.033 15.328C582.345 16.736 580.361 18.784 579.241 17.472ZM576.169 28.672C566.505 28.64 563.177 19.776 566.665 13.344C566.985 12.736 567.273 12.224 567.689 11.68C568.201 11.008 568.041 11.04 567.433 11.232C565.033 12 565.577 12 563.401 12.832C562.377 13.216 561.481 13.536 560.521 13.792C557.705 14.56 556.841 10.88 559.401 10.336C560.073 10.176 561.929 9.824 562.953 9.568C564.521 9.184 567.337 8.544 570.601 7.616C573.897 6.688 576.489 5.92 579.305 5.728C581.289 5.6 581.833 7.168 581.481 8.192C581.289 8.736 580.585 9.376 578.345 9.248C576.713 9.152 574.697 9.76 573.609 10.144C571.817 10.784 570.185 12.704 569.481 13.888C566.665 18.592 568.809 25.312 575.977 25.056C579.337 24.928 579.561 28.704 576.169 28.672ZM13.1631 73.152L13.0671 72.96C11.8831 73.824 10.6991 74.56 9.57913 75.136C7.59513 76.16 4.55513 75.648 4.90712 71.36C5.16313 68.224 7.72313 64.736 10.6351 62.88C11.0511 62.624 11.4991 62.368 11.9791 62.112C12.0751 60.896 12.2031 59.616 12.3631 58.304C10.8271 58.4 9.45113 58.304 8.36313 57.984C6.47513 57.44 7.11513 54.496 9.25913 55.168C10.1551 55.456 11.3711 55.52 12.7151 55.424C12.8431 54.496 13.0031 53.536 13.1311 52.576C13.4831 50.208 16.5871 50.72 16.2351 52.64C16.1071 53.44 15.9471 54.24 15.8191 54.976C17.2911 54.656 18.7631 54.24 20.1391 53.728C21.9951 53.024 23.4031 55.744 20.8751 56.576C19.1151 57.152 17.1951 57.664 15.3391 57.984C15.1791 59.008 15.0511 59.936 14.9231 60.832C16.0431 60.448 17.1951 60.192 18.2831 60.128C18.4111 60.128 18.5391 60.128 18.6671 60.128V60.064C18.8911 58.176 21.8351 58.784 21.7071 60.32C31.0511 62.016 30.5711 73.792 19.6591 77.376C16.7791 78.336 15.9791 75.36 18.6031 74.496C26.5711 71.904 26.8911 64.352 21.0991 62.912C20.0431 65.92 17.9631 68.64 15.5631 70.88C15.6591 71.104 15.7871 71.328 15.9151 71.52C17.0351 73.376 14.3791 75.424 13.1631 73.152ZM18.0271 62.72H17.9311C17.0031 62.816 15.7871 63.136 14.6351 63.584C14.5071 65.216 14.5391 66.656 14.6991 67.936C16.1391 66.432 17.3231 64.672 18.0271 62.72ZM12.1711 70.208C11.8831 68.704 11.7871 66.976 11.8191 65.088C9.29113 66.944 7.85113 69.216 7.72313 71.104C7.62713 72.384 8.49113 72.512 9.32313 72.064C10.2831 71.52 11.2431 70.912 12.1711 70.208ZM58.2511 61.888C56.7471 60.928 55.1151 60.448 53.2591 60.544C51.4991 60.64 51.3711 57.984 53.4191 57.792C55.5311 57.6 57.7711 57.984 59.3071 58.912C61.4831 60.224 59.8191 62.88 58.2511 61.888ZM43.8191 58.688C42.1871 59.008 40.8111 58.88 39.5951 58.528C37.6431 57.984 38.2511 55.04 40.5231 55.776C41.5791 56.128 43.2431 56.096 44.9071 55.68C45.2271 54.624 45.3871 53.6 45.5471 52.448C45.8351 50.56 48.6511 50.912 48.5871 52.736C48.5551 53.216 48.3631 53.92 48.1391 54.688C48.5231 54.496 48.8751 54.336 49.1631 54.144C50.6031 53.12 52.6191 55.104 50.5711 56.576C49.7711 57.152 48.4591 57.664 47.1471 58.048C45.6431 61.664 43.4671 65.504 41.4191 68.832C40.2351 70.752 37.1631 69.504 38.5711 67.424C40.3631 64.768 42.2511 62.048 43.8191 58.688ZM53.8991 73.696C52.9711 76.256 48.9711 78.496 45.0991 76.544C42.1231 75.04 41.7711 71.584 45.0671 70.112C47.0511 69.216 49.2271 69.152 51.2111 69.504C51.2111 69.152 51.2111 68.8 51.2111 68.384C51.2111 67.584 51.1471 66.784 51.1151 65.984C51.0831 65.344 51.1471 64.448 51.2751 63.84C51.6591 62.08 54.4751 62.496 54.1551 64.416C54.0591 64.896 53.9631 65.248 53.9631 65.92C53.9631 66.656 53.9631 67.456 53.9951 68.384C54.0271 68.992 54.0911 69.664 54.1231 70.368C55.8191 71.072 57.2271 72.064 58.0271 72.928C59.8511 74.944 57.2591 77.216 55.7231 75.36C55.2431 74.784 54.6351 74.208 53.8991 73.696ZM51.0511 72.192C49.4191 71.648 47.6911 71.584 46.1231 72.352C45.2591 72.8 45.1951 73.728 46.1551 74.208C48.0751 75.168 50.6671 74.24 51.0191 72.512C51.0511 72.416 51.0191 72.288 51.0511 72.192ZM90.1231 63.072C88.3311 62.464 85.4191 62.112 83.7231 62.752C82.0591 63.36 81.0671 60.736 83.1791 60C84.8111 59.424 87.7231 59.04 90.8591 60.16C93.0031 60.928 92.1391 63.744 90.1231 63.072ZM90.1231 76.032C85.4831 76.96 81.5151 75.488 80.1071 73.92C78.7311 72.384 80.7151 69.856 82.3791 71.552C84.0111 73.216 85.9631 73.056 89.7071 72.736C92.0431 72.544 92.2351 75.616 90.1231 76.032ZM78.1871 59.264C76.1711 66.272 73.8991 71.808 72.3311 75.36C71.3711 77.504 67.9791 76.576 69.3231 73.856C70.6991 71.04 72.9711 66.176 74.9231 59.968C73.2271 60.16 71.5951 60.096 70.2511 59.52C68.6191 58.816 68.9391 55.904 71.3391 56.768C72.6831 57.248 74.2511 57.248 75.7551 56.96C75.9471 55.776 75.8191 54.912 75.7231 53.504C75.5951 51.68 78.6031 51.584 78.9231 53.344C79.0511 54.144 79.0511 55.008 78.9551 55.904C79.4031 55.68 79.7871 55.456 80.1711 55.232C81.8351 54.144 83.8191 56.8 81.4191 57.984C80.5231 58.432 79.3711 58.912 78.1871 59.264ZM109.739 63.392C108.907 60.864 107.371 57.728 105.899 55.936C104.235 53.888 107.371 52.16 108.651 53.984C110.027 55.936 111.467 58.784 112.395 61.44C114.123 60.224 115.947 59.072 118.027 57.92C120.203 56.704 121.867 59.776 119.403 61.024C116.139 62.688 112.843 64.544 110.315 66.688C107.147 69.376 107.051 71.776 109.547 72.992C111.787 74.112 116.363 73.28 118.283 72.576C120.971 71.552 121.931 75.232 119.083 76.032C116.555 76.736 111.211 77.376 108.043 75.776C103.435 73.44 103.627 68.256 108.811 64.128C109.131 63.872 109.419 63.616 109.739 63.392ZM157.483 61.152C156.939 61.728 155.979 61.888 155.179 61.184C154.347 60.448 152.587 59.68 150.955 59.872C149.003 60.096 148.491 57.248 150.795 57.056C153.099 56.864 156.299 57.664 157.451 58.88C158.219 59.68 158.027 60.576 157.483 61.152ZM142.155 67.584C142.219 69.28 142.347 70.944 142.411 72.32C142.667 76.896 138.571 76.832 135.947 75.552C132.139 73.696 133.195 71.424 134.891 69.568C135.883 68.512 137.515 67.264 139.403 66.176C139.371 64.832 139.339 63.456 139.339 62.176C138.027 62.432 136.715 62.464 135.499 62.304C133.131 62.016 133.515 58.816 136.171 59.36C136.971 59.52 138.155 59.392 139.403 59.072C139.403 57.568 139.339 56.544 139.275 55.328C139.147 52.96 142.667 53.024 142.507 55.296C142.443 56 142.411 57.024 142.347 57.984C142.827 57.76 143.243 57.504 143.627 57.248C145.355 56.096 147.307 58.624 145.067 59.968C144.107 60.544 143.083 61.024 142.059 61.408C142.027 62.4 142.027 63.584 142.059 64.8C142.955 64.384 143.883 64.064 144.747 63.808C147.499 63.008 150.219 63.264 151.851 63.84C157.131 65.664 156.267 69.984 154.635 72.352C152.555 75.36 148.075 76.384 144.363 74.272C142.539 73.216 143.787 70.592 145.739 71.552C148.235 72.768 150.283 72.8 151.819 70.752C152.587 69.728 153.483 67.456 150.699 66.432C149.451 65.952 147.755 65.856 145.515 66.368C144.363 66.624 143.243 67.072 142.155 67.584ZM139.435 69.184C138.507 69.856 137.707 70.56 137.035 71.296C136.363 72.032 136.363 72.864 137.099 73.216C138.475 73.888 139.403 73.792 139.435 72.544C139.467 71.68 139.467 70.496 139.435 69.184ZM188.363 63.104C186.635 63.104 180.619 57.952 177.067 53.984C176.715 53.6 176.459 53.408 176.235 53.408C176.011 53.408 175.787 53.6 175.467 53.984C172.843 57.312 168.619 61.344 165.195 63.584C164.715 63.904 164.267 64.032 163.851 64.032C162.827 64.032 162.091 63.2 162.091 62.336C162.091 61.792 162.411 61.216 163.115 60.832C166.827 58.912 170.795 55.008 173.227 51.84C173.995 50.848 174.987 50.304 176.011 50.304C177.003 50.304 178.059 50.784 179.019 51.84C182.155 55.2 185.579 57.888 189.387 59.84C189.995 60.16 190.251 60.672 190.251 61.216C190.251 62.144 189.451 63.104 188.363 63.104ZM180.971 61.888H171.787C170.795 61.888 170.283 61.184 170.283 60.448C170.283 59.744 170.795 59.008 171.787 59.008H180.971C181.963 59.008 182.475 59.744 182.475 60.448C182.475 61.184 181.963 61.888 180.971 61.888ZM186.315 67.84L175.435 67.776C174.859 69.6 174.059 71.968 173.099 74.016C176.043 73.792 178.955 73.44 181.739 73.024C181.003 72.352 180.203 71.712 179.403 71.168C178.923 70.848 178.731 70.464 178.731 70.08C178.731 69.408 179.403 68.768 180.235 68.768C182.123 68.768 187.883 74.112 187.883 76C187.883 76.96 186.987 77.728 186.091 77.728C185.579 77.728 185.099 77.472 184.779 76.864C184.459 76.288 184.107 75.744 183.723 75.232C176.235 76.8 167.147 77.408 166.507 77.408C165.547 77.408 165.035 76.576 165.035 75.808C165.035 75.104 165.451 74.4 166.347 74.368C167.467 74.336 168.619 74.304 169.771 74.24C170.667 72.384 171.499 69.92 172.043 67.808L165.995 67.84C164.971 67.84 164.491 67.168 164.491 66.464C164.491 65.728 165.003 64.96 165.995 64.96H186.315C187.339 64.96 187.851 65.696 187.851 66.432C187.851 67.136 187.339 67.84 186.315 67.84ZM221.099 66.176C221.355 68.512 218.187 69.152 217.739 66.944C217.227 64.384 215.915 61.92 214.187 60.736C212.651 59.68 214.379 57.312 216.299 58.752C218.571 60.448 220.779 63.456 221.099 66.176ZM207.115 71.456C205.067 74.784 202.219 74.496 200.427 72.576C198.123 70.08 197.067 66.368 196.811 62.336C196.683 60.512 196.619 59.936 196.651 58.784C196.715 56.768 199.819 56.352 199.915 58.752C199.979 60 199.851 60.064 199.915 61.536C200.043 64.896 200.651 68.064 202.443 69.792C203.275 70.592 203.691 70.688 204.395 69.728C204.779 69.184 205.227 68.352 205.451 67.84C206.315 65.984 208.971 67.328 208.363 68.992C208.043 69.888 207.467 70.88 207.115 71.456ZM252.13 62.56C251.682 62.048 250.018 60.928 249.346 60.672C247.618 60 248.866 57.952 250.434 58.464C251.33 58.752 253.058 59.616 253.826 60.384C255.17 61.728 253.282 63.84 252.13 62.56ZM248.834 65.472C248.386 64.96 246.786 63.744 246.114 63.456C244.418 62.72 245.698 60.736 247.266 61.312C248.162 61.632 249.89 62.528 250.626 63.328C251.938 64.736 249.954 66.784 248.834 65.472ZM245.762 76.672C236.098 76.64 232.77 67.776 236.258 61.344C236.578 60.736 236.866 60.224 237.282 59.68C237.794 59.008 237.634 59.04 237.026 59.232C234.626 60 235.17 60 232.994 60.832C231.97 61.216 231.074 61.536 230.114 61.792C227.298 62.56 226.434 58.88 228.994 58.336C229.666 58.176 231.522 57.824 232.546 57.568C234.114 57.184 236.93 56.544 240.194 55.616C243.49 54.688 246.082 53.92 248.898 53.728C250.882 53.6 251.426 55.168 251.074 56.192C250.882 56.736 250.178 57.376 247.938 57.248C246.306 57.152 244.29 57.76 243.202 58.144C241.41 58.784 239.778 60.704 239.074 61.888C236.258 66.592 238.402 73.312 245.57 73.056C248.93 72.928 249.154 76.704 245.762 76.672ZM276.514 63.968C276.738 64.288 276.994 64.576 277.218 64.896C278.37 66.368 279.65 68.928 279.298 70.752C278.978 72.416 277.442 72.704 276.002 71.872C274.306 70.88 269.762 70.24 267.522 71.328C265.858 72.128 266.53 73.824 268.002 74.432C269.41 75.04 271.202 75.296 273.186 74.912C276.034 74.368 276.226 77.92 273.346 78.176C270.978 78.368 268.898 77.888 267.01 77.088C263.234 75.488 262.338 71.008 265.922 69.184C268.29 67.968 272.226 68.224 274.338 68.48C276.066 68.704 276.578 68.224 274.722 65.728C274.498 65.408 274.242 65.12 274.018 64.768C271.682 65.408 269.026 65.792 266.658 65.632C264.45 65.472 264.162 62.208 266.882 62.56C268.546 62.784 270.562 62.56 272.386 62.112C271.906 61.28 271.394 60.352 270.882 59.36C269.346 59.68 267.618 59.872 265.794 59.872C263.714 59.872 263.074 56.768 265.634 56.96C267.042 57.056 268.386 56.96 269.602 56.768C268.898 55.296 268.194 53.888 267.298 52.896C265.506 50.88 268.898 49.664 270.05 51.232C270.786 52.256 271.554 54.112 272.354 56.064C273.154 55.808 273.826 55.488 274.37 55.2C276.482 54.08 277.698 56.896 276.002 57.696C275.266 58.048 274.434 58.368 273.442 58.688C273.858 59.616 274.306 60.512 274.818 61.376C275.81 61.024 276.642 60.672 277.218 60.352C279.458 59.072 280.834 62.016 279.042 62.912C278.37 63.264 277.506 63.616 276.514 63.968ZM305.146 73.632C305.754 73.504 306.426 73.12 307.002 72.608C309.338 70.528 309.242 67.488 307.418 66.272C305.754 65.152 302.298 64.928 299.066 66.816C297.786 67.552 297.114 68.128 296.378 69.216C295.226 70.912 292.026 69.024 294.01 67.072C297.53 63.584 300.122 61.12 303.674 56.736C304.026 56.288 303.706 56.416 303.45 56.544C302.554 57.024 300.442 57.664 298.074 58.176C295.546 58.72 295.066 55.552 297.242 55.296C299.386 55.04 302.458 54.272 304.282 53.728C306.842 52.992 308.954 55.264 307.354 57.056C306.33 58.208 305.05 59.456 303.77 60.64C302.49 61.824 301.21 62.976 300.058 64.096C302.874 62.592 306.682 62.592 309.05 64C313.658 66.752 312.154 72.384 308.794 74.816C305.626 77.088 300.634 77.216 298.202 75.616C294.81 73.408 296.314 69.44 300.09 69.312C302.65 69.216 305.05 70.752 305.146 73.632ZM302.426 74.112C302.458 72.64 301.594 71.52 300.186 71.648C298.778 71.776 298.714 73.088 299.738 73.632C300.474 74.016 301.53 74.144 302.426 74.112ZM338.842 59.616C335.866 58.976 332.474 58.912 329.338 59.52C326.81 60 326.394 56.608 329.242 56.192C332.282 55.744 336.794 55.712 339.45 56.288C342.138 56.864 341.434 60.16 338.842 59.616ZM341.978 75.2C335.642 77.184 327.962 75.68 325.754 72.576C324.602 70.944 326.682 68.736 328.41 70.496C331.13 73.28 336.314 73.056 341.146 71.68C343.802 70.944 344.57 74.4 341.978 75.2ZM363.802 63.392C362.97 60.864 361.434 57.728 359.962 55.936C358.298 53.888 361.434 52.16 362.714 53.984C364.09 55.936 365.53 58.784 366.458 61.44C368.186 60.224 370.01 59.072 372.09 57.92C374.266 56.704 375.93 59.776 373.466 61.024C370.202 62.688 366.906 64.544 364.378 66.688C361.21 69.376 361.114 71.776 363.61 72.992C365.85 74.112 370.426 73.28 372.346 72.576C375.034 71.552 375.994 75.232 373.146 76.032C370.618 76.736 365.274 77.376 362.106 75.776C357.498 73.44 357.69 68.256 362.874 64.128C363.194 63.872 363.482 63.616 363.802 63.392ZM398.746 54.24L398.682 54.368C399.194 54.176 399.674 53.984 400.026 53.792C401.786 52.736 403.514 55.392 401.146 56.576C400.346 56.96 398.97 57.344 397.626 57.632C397.21 58.656 396.666 59.808 396.09 60.864C398.298 60.48 400.41 61.28 401.466 63.648C402.778 62.976 404.122 62.304 405.37 61.76C406.138 61.44 407.002 61.056 407.866 60.576C410.266 59.232 411.706 62.432 409.658 63.456C408.634 63.968 407.898 64.128 406.202 64.768C404.858 65.28 403.418 65.92 402.138 66.528C402.234 67.584 402.266 68.896 402.202 70.048C402.138 71.328 401.306 72 400.506 72.032C399.706 72.064 398.97 71.456 399.066 70.208C399.098 69.536 399.13 68.8 399.13 68.128C398.842 68.288 398.554 68.448 398.298 68.608C394.33 71.168 394.81 73.088 396.602 73.984C398.298 74.848 401.434 74.208 402.938 73.728C405.754 72.864 406.65 76.32 403.706 77.088C401.818 77.568 397.466 78.048 394.97 76.64C390.65 74.208 391.418 69.888 397.21 66.08C397.658 65.792 398.17 65.44 398.778 65.088C397.914 62.4 395.45 62.72 393.37 65.12C393.338 65.152 393.274 65.216 393.242 65.248C392.954 65.6 392.73 65.888 392.506 66.08C390.746 67.648 388.41 65.824 390.33 64.096C391.162 63.328 392.25 62.176 392.922 61.088C393.466 60.192 393.978 59.232 394.426 58.24C392.698 58.496 391.482 58.4 390.458 57.888C388.154 56.736 389.722 53.728 391.962 55.232C392.57 55.648 393.85 55.488 394.97 55.296C395.098 55.264 395.29 55.264 395.45 55.232C395.674 54.304 395.738 53.664 395.802 52.544C395.93 50.624 398.938 50.816 399.002 52.384C399.034 53.024 398.906 53.632 398.746 54.24ZM442.554 55.072C442.554 55.072 439.002 57.664 437.818 57.664C437.018 57.664 436.41 56.928 436.41 56.224C436.41 55.84 436.602 55.456 437.082 55.232C438.138 54.752 439.482 53.792 440.602 52.768C440.954 52.448 441.306 52.288 441.658 52.288C442.49 52.288 443.162 53.056 443.162 53.888C443.162 54.304 442.97 54.72 442.554 55.072ZM442.138 64.288C441.818 64.288 441.434 64.16 441.05 63.84C439.898 62.848 438.714 62.08 437.562 61.6C436.922 61.344 436.666 60.928 436.666 60.48C436.666 59.808 437.306 59.168 438.17 59.168C439.642 59.168 442.394 60.96 442.874 61.312C443.386 61.728 443.61 62.24 443.61 62.72C443.61 63.552 442.97 64.288 442.138 64.288ZM431.482 53.056C433.05 53.056 435.61 53.056 435.674 55.424C435.706 56.576 435.77 58.112 435.77 59.52C435.77 60.352 435.738 61.12 435.706 61.728C435.642 63.008 434.874 64.128 433.146 64.288C432.442 64.352 430.97 64.416 429.658 64.416C427.354 64.416 424.954 64.384 424.858 61.888C424.826 61.088 424.826 59.872 424.826 58.688C424.826 57.472 424.826 56.288 424.858 55.52C424.89 54.272 425.722 53.216 427.418 53.12C427.674 53.12 428.026 53.088 428.442 53.088C428.602 52.48 428.762 51.68 428.858 51.072C428.986 50.24 429.69 49.856 430.362 49.856C431.162 49.856 431.994 50.368 431.994 51.2C431.994 51.584 431.706 52.512 431.482 53.056ZM422.33 57.44C422.01 57.44 421.658 57.312 421.338 57.024C420.25 56.064 418.842 55.136 418.106 54.752C417.626 54.496 417.434 54.144 417.434 53.76C417.434 53.024 418.138 52.256 418.97 52.256C420.314 52.256 423.226 54.592 423.226 54.592C423.61 54.944 423.77 55.392 423.77 55.808C423.77 56.672 423.13 57.44 422.33 57.44ZM442.458 69.44H442.426L433.082 69.248C436.314 71.744 439.61 73.12 443.226 74.464C443.93 74.72 444.218 75.2 444.218 75.712C444.218 76.544 443.386 77.44 442.33 77.44C441.178 77.44 435.77 74.656 431.674 71.2L431.738 77.152V77.184C431.738 77.984 430.97 78.4 430.234 78.4C429.466 78.4 428.73 77.984 428.73 77.184V77.152L428.794 71.264C425.082 74.56 419.066 77.664 417.946 77.664C417.018 77.664 416.346 76.96 416.346 76.224C416.346 75.744 416.666 75.232 417.402 74.944C421.274 73.44 424.218 71.84 427.258 69.248L418.202 69.44H418.17C417.274 69.44 416.826 68.768 416.826 68.096C416.826 67.424 417.274 66.752 418.202 66.752H428.762L428.73 65.856C428.698 65.056 429.274 64.448 430.234 64.448C431.002 64.448 431.738 64.896 431.738 65.792C431.738 65.824 431.738 65.824 431.738 65.856V66.752H442.426C443.354 66.752 443.802 67.424 443.802 68.096C443.802 68.768 443.354 69.44 442.458 69.44ZM423.386 61.952C421.018 63.584 418.554 64.512 417.978 64.512C417.05 64.512 416.506 63.744 416.506 62.976C416.506 62.432 416.826 61.888 417.498 61.664C419.738 60.96 420.346 60.736 422.138 59.616C422.362 59.488 422.586 59.424 422.778 59.424C423.482 59.424 423.994 60.096 423.994 60.8C423.994 61.216 423.802 61.664 423.386 61.952ZM427.418 57.504H433.082C433.082 56.928 433.05 56.384 433.05 55.968C433.018 55.232 432.986 55.136 430.33 55.136C429.53 55.136 428.73 55.136 428.41 55.168C427.418 55.232 427.418 55.68 427.418 57.504ZM433.082 59.712H427.418C427.418 60.416 427.418 60.992 427.45 61.376C427.514 62.24 428.25 62.24 430.33 62.24C431.13 62.24 431.898 62.24 432.218 62.208C433.082 62.144 433.082 61.568 433.082 59.712ZM472.314 73.056C466.074 78.144 455.834 79.072 455.546 70.432C455.418 67.072 455.77 64.352 455.93 60.96C456.026 58.88 456.25 55.744 456.186 53.76C456.122 51.392 459.738 51.584 459.674 53.696C459.61 55.712 459.386 58.752 459.226 60.896C459.002 64.288 458.522 67.2 458.65 70.304C458.842 74.976 464.538 74.656 470.106 70.272C472.186 68.64 474.138 71.584 472.314 73.056ZM493.21 64.128H493.37C495.77 64.224 498.138 64.768 500.314 65.536C500.506 64.224 500.378 63.04 499.866 62.176C498.97 60.672 501.85 59.456 502.906 61.44C503.61 62.72 503.706 64.64 503.226 66.752C504.89 67.552 506.394 68.512 507.642 69.472C509.658 71.04 507.482 73.984 505.658 72.32C504.602 71.36 503.45 70.496 502.17 69.728C500.986 72.128 498.97 74.528 496.09 76.224C493.85 77.536 492.25 75.04 494.33 73.76C496.73 72.288 498.394 70.304 499.386 68.352C497.018 67.36 494.49 66.784 491.93 66.752C490.746 69.216 489.658 71.2 487.834 72.608C485.914 74.112 483.098 74.304 481.722 72.608C480.09 70.56 481.274 67.232 484.954 65.6C486.65 64.864 488.442 64.416 490.202 64.224C491.322 61.824 492.794 58.912 493.69 56.896C493.882 56.448 493.978 56.192 493.498 56.32C492.25 56.64 491.034 57.056 489.722 57.088C487.61 57.152 487.706 54.176 489.626 54.048C490.906 53.984 492.858 53.504 494.234 53.248C497.146 52.672 498.426 54.56 496.986 56.896C495.642 59.136 494.362 61.728 493.21 64.128ZM488.826 67.008C487.994 67.136 487.034 67.392 485.85 67.968C485.018 68.384 483.514 69.728 484.058 70.528C484.442 71.072 485.594 70.88 486.17 70.432C487.226 69.632 488.09 68.32 488.826 67.008ZM534.842 60.256C532.538 59.776 530.106 59.68 527.418 60.352C525.658 60.8 524.634 57.952 526.97 57.376C529.818 56.672 533.146 56.64 535.386 57.184C537.626 57.728 537.018 60.736 534.842 60.256ZM536.57 74.848C533.146 75.712 527.898 75.616 525.594 73.12C524.282 71.68 526.202 69.408 527.866 70.912C529.594 72.48 533.434 71.968 535.93 71.456C538.522 70.912 538.682 74.304 536.57 74.848ZM519.642 76.384C518.842 77.088 517.658 76.96 517.018 75.392C514.458 69.088 516.986 59.616 517.562 55.808C517.914 53.44 521.018 54.144 520.666 56C520.154 58.592 518.234 66.112 519.002 69.088C519.098 69.504 519.226 69.408 519.354 69.12C519.418 68.96 519.77 68.32 519.898 68.096C520.89 66.528 522.874 68.064 522.138 69.344C520.954 71.424 520.442 72.896 520.25 73.824C520.058 74.688 520.442 75.68 519.642 76.384ZM568.314 73.056C562.074 78.144 551.834 79.072 551.546 70.432C551.418 67.072 551.77 64.352 551.93 60.96C552.026 58.88 552.25 55.744 552.186 53.76C552.122 51.392 555.738 51.584 555.674 53.696C555.61 55.712 555.386 58.752 555.226 60.896C555.002 64.288 554.522 67.2 554.65 70.304C554.842 74.976 560.538 74.656 566.106 70.272C568.186 68.64 570.138 71.584 568.314 73.056ZM593.766 76.672C584.102 76.64 580.774 67.776 584.262 61.344C584.582 60.736 584.87 60.224 585.286 59.68C585.798 59.008 585.638 59.04 585.03 59.232C582.63 60 583.174 60 580.998 60.832C579.974 61.216 579.078 61.536 578.118 61.792C575.302 62.56 574.47 58.88 577.03 58.336C577.702 58.176 579.558 57.824 580.582 57.568C582.15 57.184 584.934 56.544 588.198 55.616C591.494 54.688 594.118 53.92 596.934 53.728C598.918 53.6 599.462 55.168 599.11 56.192C598.918 56.736 598.214 57.376 595.974 57.248C594.342 57.152 592.294 57.76 591.206 58.144C589.414 58.784 587.814 60.704 587.11 61.888C584.294 66.592 586.438 73.312 593.606 73.056C596.966 72.928 597.158 76.704 593.766 76.672ZM631.974 66.176C632.23 68.512 629.062 69.152 628.614 66.944C628.102 64.384 626.79 61.92 625.062 60.736C623.526 59.68 625.254 57.312 627.174 58.752C629.446 60.448 631.654 63.456 631.974 66.176ZM617.99 71.456C615.942 74.784 613.094 74.496 611.302 72.576C608.998 70.08 607.942 66.368 607.686 62.336C607.558 60.512 607.494 59.936 607.526 58.784C607.59 56.768 610.694 56.352 610.79 58.752C610.854 60 610.726 60.064 610.79 61.536C610.918 64.896 611.526 68.064 613.318 69.792C614.15 70.592 614.566 70.688 615.27 69.728C615.654 69.184 616.102 68.352 616.326 67.84C617.19 65.984 619.846 67.328 619.238 68.992C618.918 69.888 618.342 70.88 617.99 71.456ZM650.982 58.944L650.662 58.976C648.998 59.232 647.398 59.392 645.638 59.36C643.174 59.296 643.046 55.968 645.958 56.32C647.27 56.48 648.742 56.416 650.918 56.096C650.886 54.4 650.886 52.896 650.918 51.872C650.982 49.408 654.31 49.984 654.182 51.84C654.086 52.992 654.022 54.272 653.99 55.552C654.662 55.424 655.398 55.232 656.166 55.072C658.278 54.592 659.142 57.568 656.358 58.016C655.494 58.144 654.694 58.304 653.958 58.432C653.958 59.616 653.958 60.8 653.99 61.984C654.758 61.76 655.558 61.536 656.422 61.248C658.79 60.48 660.006 63.424 657.158 64.224C656.038 64.544 655.014 64.832 654.086 65.056C654.15 66.144 654.214 67.136 654.31 68.064C654.406 68.928 654.502 70.08 654.566 71.232C656.166 71.84 657.542 72.704 658.534 73.504C660.678 75.264 658.598 78.176 656.582 76.32C655.91 75.712 655.11 75.104 654.246 74.592C653.126 77.312 649.222 79.456 645.286 77.504C642.246 76 642.054 72.416 645.542 70.944C647.494 70.112 649.638 70.048 651.654 70.4C651.622 69.728 651.558 69.056 651.494 68.32C651.43 67.552 651.366 66.656 651.302 65.664C648.774 66.144 647.078 66.24 645.478 66.016C643.206 65.696 643.59 62.4 646.15 62.944C647.078 63.136 648.678 63.136 651.142 62.656C651.078 61.44 651.014 60.192 650.982 58.944ZM651.366 73.28C649.638 72.736 647.942 72.64 646.534 73.248C645.702 73.6 645.542 74.624 646.438 75.072C648.39 76.032 650.886 75.072 651.366 73.28ZM683.397 70.464C681.285 71.552 678.501 70.944 677.477 68.064C676.357 64.96 678.085 62.656 680.037 62.048C680.965 61.76 681.925 61.632 682.789 61.76C682.757 61.056 682.725 60.096 682.693 59.168C680.005 59.424 677.349 59.808 675.685 60.064C673.381 60.416 671.877 60.832 670.917 60.992C668.773 61.376 668.133 58.176 670.661 57.76C671.941 57.536 674.021 57.312 675.365 57.088C676.965 56.832 679.845 56.48 682.661 56.224C682.661 56.032 682.661 55.808 682.661 55.648C682.693 53.664 682.501 53.536 682.501 52.512C682.501 50.176 685.733 50.4 685.861 52.416C685.893 53.152 685.797 54.624 685.733 55.488C685.733 55.648 685.701 55.808 685.701 55.968C686.629 55.904 687.461 55.872 688.165 55.872C689.733 55.872 690.853 55.84 693.029 55.872C695.717 55.936 695.589 59.328 693.029 59.136C690.757 58.944 689.989 58.944 688.005 58.912C687.269 58.912 686.501 58.944 685.669 58.976C685.701 60 685.733 60.992 685.733 61.92C685.733 62.368 685.797 63.04 685.829 63.744C688.677 68.224 685.285 75.008 681.893 77.728C679.749 79.424 676.965 77.152 679.749 75.168C681.285 74.08 682.629 72.288 683.397 70.464ZM683.365 65.248C683.205 65.056 683.045 64.864 682.853 64.704C682.405 64.32 681.477 64.256 680.805 64.576C680.037 64.928 679.525 65.92 679.877 67.008C680.453 68.736 683.237 68.736 683.557 66.464C683.653 65.792 683.557 65.504 683.365 65.248Z" fill="#E89A08"/>
<path d="M112.359 31.2H585.641V32.8H112.359V31.2ZM0.203125 79.2H697.797V80.8H0.203125V79.2Z" fill="#E89A08"/>
</svg>
