<svg width="573" height="159" viewBox="0 0 573 159" fill="none" xmlns="http://www.w3.org/2000/svg">
<path d="M42.2355 131.784H6.1875C4.7955 131.784 4.1235 130.872 4.1235 129.912C4.1235 128.904 4.8435 127.848 6.1875 127.848H11.8515V121.56H5.2275C3.8355 121.56 3.2115 120.648 3.2115 119.688C3.2115 118.728 3.9315 117.672 5.2275 117.672H11.8515V112.44C9.0675 115.752 8.0595 116.376 7.0515 116.376C5.8035 116.376 4.6515 115.416 4.6515 114.264C4.6515 113.736 4.8915 113.16 5.5155 112.632C9.0195 109.608 11.3715 106.488 13.3395 102.456C13.7235 101.688 14.3955 101.352 15.0675 101.352C16.2675 101.352 17.5635 102.312 17.5635 103.608C17.5635 104.04 17.3235 104.712 15.3075 107.784H39.7395C41.0355 107.784 41.7075 108.744 41.7075 109.704C41.7075 110.712 41.0355 111.672 39.7395 111.672H36.9075V117.672H43.3875C44.6835 117.672 45.3555 118.632 45.3555 119.592C45.3555 120.6 44.6835 121.56 43.3875 121.56H36.9075V127.848H42.2355C43.5795 127.848 44.2035 128.808 44.2035 129.816C44.2035 130.776 43.5795 131.784 42.2355 131.784ZM43.8195 141.144C43.8195 142.632 42.4755 143.688 41.1795 143.688C40.3635 143.688 39.5955 143.304 39.1155 142.344C38.0595 140.136 36.2835 138.216 34.5555 136.776C34.0755 136.392 33.8835 136.008 33.8835 135.576C33.8835 134.616 35.0835 133.752 36.3315 133.752C38.3475 133.752 43.8195 138.648 43.8195 141.144ZM32.8275 141.576C32.8275 143.112 31.4835 144.024 30.2835 144.024C29.2755 144.024 28.3635 143.448 28.1235 142.152C27.6435 139.656 26.7315 137.832 25.7715 136.344C25.5795 136.008 25.4835 135.72 25.4835 135.432C25.4835 134.424 26.4915 133.752 27.5955 133.752C30.6675 133.752 32.8275 140.472 32.8275 141.576ZM23.0355 141.528C23.0355 143.208 21.6915 144.12 20.4435 144.12C19.3875 144.12 18.3795 143.4 18.3795 141.96C18.3795 141.912 18.3795 141.912 18.3795 141.864C18.3795 141.72 18.3795 141.576 18.3795 141.432C18.3795 139.416 18.0435 137.448 17.4675 135.96C17.3715 135.72 17.3235 135.48 17.3235 135.288C17.3235 134.28 18.3315 133.752 19.3395 133.752C20.1075 133.752 20.8755 134.04 21.3075 134.664C22.3635 136.248 23.0355 139.272 23.0355 141.528ZM7.5315 144.36C6.0915 144.36 4.9875 143.4 4.9875 142.248C4.9875 141.576 5.3715 140.856 6.3315 140.232C7.6275 139.416 9.8355 137.256 10.3155 135.384C10.6035 134.232 11.5155 133.752 12.4275 133.752C13.5795 133.752 14.7795 134.52 14.7795 135.768C14.7795 138.312 10.7475 144.36 7.5315 144.36ZM32.9715 117.672V111.672H29.5155V117.672H32.9715ZM26.0115 117.672V111.672H22.6035V117.672H26.0115ZM32.9715 127.848V121.56H29.5155V127.848H32.9715ZM19.0515 117.672V111.672H15.7395V117.672H19.0515ZM26.0115 127.848V121.56H22.6035V127.848H26.0115ZM19.0515 127.848V121.56H15.7395V127.848H19.0515ZM78.7155 114.792C78.1875 114.792 77.6595 114.552 77.1315 113.976C75.7875 112.488 73.9155 111.144 72.7155 110.472C72.0915 110.136 71.8515 109.656 71.8515 109.128C71.8515 108.12 72.9075 107.064 74.2035 107.064C75.8355 107.064 79.4355 109.8 80.1555 110.568C80.6835 111.144 80.8755 111.768 80.8755 112.392C80.8755 113.64 79.9155 114.792 78.7155 114.792ZM82.9875 142.344L83.0835 131.208L70.8915 134.616C70.6035 134.712 70.3635 134.712 70.1235 134.712C68.8755 134.712 68.1075 133.704 68.1075 132.648C68.1075 131.784 68.6355 130.92 69.7395 130.584L83.0835 126.888L82.9875 104.184C82.9875 102.792 84.0915 102.12 85.2435 102.12C86.3955 102.12 87.5955 102.84 87.5955 104.184L87.4995 125.64L91.9635 124.392C92.2035 124.344 92.4435 124.296 92.6355 124.296C93.8835 124.296 94.6995 125.4 94.6995 126.456C94.6995 127.272 94.2195 128.088 93.1635 128.376L87.4995 129.96L87.5955 142.344C87.5955 143.592 86.4435 144.216 85.2915 144.216C84.1395 144.216 82.9875 143.592 82.9875 142.344ZM78.2835 124.344C77.8035 124.344 77.2755 124.152 76.7955 123.72C75.2595 122.424 73.2435 121.272 72.0915 120.696C71.3235 120.312 70.9875 119.736 70.9875 119.16C70.9875 118.2 71.9955 117.192 73.3875 117.192C75.2595 117.192 78.5715 119.304 79.4355 120.024C80.1075 120.6 80.3955 121.32 80.3955 121.992C80.3955 123.24 79.4355 124.344 78.2835 124.344ZM56.2035 115.176C55.5795 115.176 54.9555 114.84 54.6195 114.072C53.9475 112.44 52.5555 110.424 52.0275 109.8C51.7395 109.464 51.5955 109.08 51.5955 108.792C51.5955 107.784 52.7475 107.016 53.8515 107.016C56.0115 107.016 58.4115 111.816 58.4115 112.92C58.4115 114.264 57.3075 115.176 56.2035 115.176ZM63.3075 142.392V142.44C63.3075 143.736 62.1555 144.408 61.0035 144.408C59.8515 144.408 58.6995 143.736 58.6995 142.44V142.392L58.8915 127.944C54.5235 135.048 52.9395 135.384 52.1715 135.384C50.9235 135.384 49.8195 134.376 49.8195 133.224C49.8195 132.696 50.0595 132.168 50.6355 131.688C53.1795 129.528 56.6355 125.4 58.8915 121.32V121.176L53.4675 121.272H53.4195C51.9795 121.272 51.3555 120.312 51.3555 119.352C51.3555 118.296 52.0755 117.192 53.4675 117.192H58.8435L58.6995 104.28V104.232C58.6995 102.84 59.8515 102.12 61.0035 102.12C62.1555 102.12 63.3075 102.84 63.3075 104.232V104.28C63.3075 104.28 63.2115 108.264 63.1635 112.92C63.2115 112.776 63.3075 112.632 63.4035 112.488C64.1715 111.384 65.4675 109.32 66.1395 107.832C66.4755 107.112 67.0515 106.824 67.6755 106.824C68.7315 106.824 69.9315 107.736 69.9315 108.888C69.9315 109.8 68.0115 112.68 66.4275 114.504C65.9955 114.984 65.4675 115.224 64.9395 115.224C64.1715 115.224 63.4515 114.792 63.1635 114.12L63.1155 117.192H68.2035C69.4995 117.192 70.1715 118.2 70.1715 119.208C70.1715 120.216 69.4995 121.272 68.2515 121.272H68.2035L63.0675 121.176V123.624C63.3555 123.48 63.6915 123.384 64.0275 123.384C65.1795 123.384 69.5955 126.456 69.5955 128.28C69.5955 129.528 68.4915 130.584 67.3875 130.584C66.8595 130.584 66.2835 130.344 65.8515 129.768C64.9875 128.616 63.9795 127.464 63.0675 126.696C63.1155 133.704 63.3075 142.392 63.3075 142.392ZM133.772 131.064C133.676 135.672 130.124 137.112 126.476 137.304C121.388 137.592 113.468 137.64 108.523 137.64C104.924 137.64 104.924 132.504 108.476 132.648C113.612 132.84 122.348 132.84 125.9 132.6C127.34 132.504 128.588 131.688 128.684 129.912C128.828 127.032 128.828 122.136 128.732 119.64C128.684 118.056 127.532 117.192 125.708 117.144C121.484 117 113.9 117.288 108.908 117.528C105.164 117.72 104.972 113.016 108.668 112.872C113.948 112.632 122.588 112.536 127.388 112.632C132.14 112.728 133.82 115.56 133.82 118.776C133.82 121.704 133.868 126.792 133.772 131.064ZM183.404 125.16H153.26C151.532 125.16 150.716 124.008 150.716 122.856C150.716 121.656 151.628 120.408 153.26 120.408H183.404C185.036 120.408 185.852 121.608 185.852 122.808C185.852 123.96 185.036 125.16 183.404 125.16ZM219.788 124.728C219.404 130.824 215.468 139.656 205.58 143.064C200.732 144.744 199.532 139.464 202.988 138.6C211.148 136.536 214.364 129.288 214.94 124.728C209.756 124.728 204.572 124.824 200.78 124.92C197.9 125.016 197.612 120.648 200.78 120.6C204.332 120.504 209.66 120.456 215.036 120.456C215.036 118.44 214.988 116.28 214.988 114.696C211.484 115.272 208.124 115.56 205.58 115.512C202.028 115.416 202.172 110.856 205.676 111.096C210.572 111.432 219.356 109.608 223.292 107.976C227.42 106.248 228.332 111.192 225.692 112.104C223.964 112.728 221.948 113.256 219.884 113.736C219.932 115.608 219.932 118.152 219.884 120.456C224.924 120.456 229.34 120.504 231.596 120.552C234.956 120.6 234.86 124.968 231.5 124.872C228.86 124.776 224.54 124.728 219.788 124.728ZM281.756 116.376C275.804 127.176 265.868 137.016 254.828 140.52C250.748 141.816 249.212 136.344 253.196 135.336C262.844 132.888 272.54 122.952 277.388 113.544C278.924 110.568 283.868 112.584 281.756 116.376ZM261.74 120.264C260.972 121.368 259.292 122.04 257.804 120.696C256.028 119.064 252.956 117.672 250.7 117.144C247.82 116.472 249.02 111.624 252.668 112.632C255.212 113.352 258.812 114.648 261.116 116.28C262.604 117.336 262.508 119.16 261.74 120.264ZM330.714 106.776C330.042 106.056 327.738 104.424 326.778 104.04C324.33 103.08 326.058 100.2 328.314 100.92C329.61 101.352 332.058 102.552 333.162 103.656C335.082 105.576 332.346 108.6 330.714 106.776ZM326.346 111.048C325.722 110.28 323.37 108.6 322.41 108.168C319.962 107.16 321.882 104.28 324.09 105.096C325.386 105.576 327.786 106.824 328.842 107.976C330.714 109.992 327.93 112.92 326.346 111.048ZM312.666 110.28L312.33 110.712C314.394 110.568 316.746 110.424 318.666 110.328C322.362 110.136 325.578 112.728 323.802 116.136C317.946 127.32 311.322 137.016 297.834 142.344C293.754 143.928 291.786 139.224 295.77 137.832C306.426 134.136 314.346 124.584 317.898 116.424C318.282 115.512 317.898 114.6 316.746 114.648C314.73 114.696 311.226 115.032 309.066 115.272C305.802 119.592 301.578 124.632 298.266 126.888C295.05 129.048 292.218 124.872 295.482 122.856C300.09 120.024 306.33 111.24 308.538 107.448C310.122 104.76 314.922 107.064 312.666 110.28Z" fill="#52AA80"/>
<path d="M358.122 115.416L357.642 115.464C355.146 115.848 352.746 116.088 350.106 116.04C346.41 115.944 346.218 110.952 350.586 111.48C352.554 111.72 354.762 111.624 358.026 111.144C357.978 108.6 357.978 106.344 358.026 104.808C358.122 101.112 363.114 101.976 362.922 104.76C362.778 106.488 362.682 108.408 362.634 110.328C363.642 110.136 364.746 109.848 365.898 109.608C369.066 108.888 370.362 113.352 366.186 114.024C364.89 114.216 363.69 114.456 362.586 114.648C362.586 116.424 362.586 118.2 362.634 119.976C363.786 119.64 364.986 119.304 366.282 118.872C369.834 117.72 371.658 122.136 367.386 123.336C365.706 123.816 364.17 124.248 362.778 124.584C362.874 126.216 362.97 127.704 363.114 129.096C363.258 130.392 363.402 132.12 363.498 133.848C365.898 134.76 367.962 136.056 369.45 137.256C372.666 139.896 369.546 144.264 366.522 141.48C365.514 140.568 364.314 139.656 363.018 138.888C361.338 142.968 355.482 146.184 349.578 143.256C345.018 141 344.73 135.624 349.962 133.416C352.89 132.168 356.106 132.072 359.13 132.6C359.082 131.592 358.986 130.584 358.89 129.48C358.794 128.328 358.698 126.984 358.602 125.496C354.81 126.216 352.266 126.36 349.866 126.024C346.458 125.544 347.034 120.6 350.874 121.416C352.266 121.704 354.666 121.704 358.362 120.984C358.266 119.16 358.17 117.288 358.122 115.416ZM358.698 136.92C356.106 136.104 353.562 135.96 351.45 136.872C350.202 137.4 349.962 138.936 351.306 139.608C354.234 141.048 357.978 139.608 358.698 136.92ZM424.157 120.84C423.485 120.072 420.989 118.392 419.981 118.008C417.389 117 419.261 113.928 421.613 114.696C422.957 115.128 425.549 116.424 426.701 117.576C428.717 119.592 425.885 122.76 424.157 120.84ZM419.213 125.208C418.541 124.44 416.141 122.616 415.133 122.184C412.589 121.08 414.509 118.104 416.861 118.968C418.205 119.448 420.797 120.792 421.901 121.992C423.869 124.104 420.893 127.176 419.213 125.208ZM414.605 142.008C400.109 141.96 395.117 128.664 400.349 119.016C400.829 118.104 401.261 117.336 401.885 116.52C402.653 115.512 402.413 115.56 401.501 115.848C397.901 117 398.717 117 395.453 118.248C393.917 118.824 392.573 119.304 391.133 119.688C386.909 120.84 385.613 115.32 389.453 114.504C390.461 114.264 393.245 113.736 394.781 113.352C397.133 112.776 401.357 111.816 406.253 110.424C411.197 109.032 415.085 107.88 419.309 107.592C422.285 107.4 423.101 109.752 422.573 111.288C422.285 112.104 421.229 113.064 417.869 112.872C415.421 112.728 412.397 113.64 410.765 114.216C408.077 115.176 405.629 118.056 404.573 119.832C400.349 126.888 403.565 136.968 414.317 136.584C419.357 136.392 419.693 142.056 414.605 142.008ZM455.117 114.072C455.645 114.552 455.932 115.32 455.789 116.28C455.021 122.376 450.701 131.448 446.093 135.72C442.397 139.128 438.365 137.256 436.253 133.128C433.229 127.176 436.445 118.248 442.877 113.784C448.781 109.704 457.565 109.032 463.613 112.68C471.053 117.144 472.253 125.976 468.077 132.84C465.821 136.536 461.117 139.512 456.365 140.76C452.141 141.864 450.653 137.016 454.781 136.056C458.429 135.24 462.125 133.176 463.709 130.68C467.117 125.304 465.821 119.016 461.069 115.992C459.197 114.792 457.181 114.216 455.117 114.072ZM451.325 114.312C449.117 114.792 446.957 115.8 445.133 117.192C440.669 120.648 438.269 127.032 440.285 130.728C441.005 132.12 442.253 132.84 443.453 131.784C447.053 128.616 450.413 120.984 450.893 115.8C450.941 115.224 451.085 114.696 451.325 114.312ZM518.765 111.24H506.045C505.661 112.296 504.557 114.984 503.645 116.856C506.525 116.712 509.357 116.472 511.997 116.184C510.845 115.416 510.317 114.984 510.317 114.216C510.317 113.304 511.229 112.392 512.381 112.392C513.917 112.392 520.013 116.52 520.013 119.064C520.013 120.312 518.957 121.32 517.805 121.32C517.085 121.32 516.365 120.984 515.837 120.12C515.597 119.736 515.405 119.448 515.117 119.112C504.221 120.936 495.341 121.032 495.101 121.032C493.613 121.032 492.893 120.024 492.893 119.016C492.893 118.056 493.565 117.096 494.909 117.096H494.957C496.301 117.096 497.693 117.096 499.085 117.048C499.565 116.04 500.621 113.064 501.245 111.24H494.765C493.325 111.24 492.605 110.28 492.605 109.272C492.605 108.312 493.325 107.304 494.765 107.304H503.741L503.693 104.088V104.04C503.693 102.552 504.893 101.832 506.045 101.832C507.245 101.832 508.445 102.6 508.445 104.04V104.088L508.397 107.304H518.765C520.205 107.304 520.877 108.264 520.877 109.272C520.877 110.232 520.205 111.24 518.765 111.24ZM517.997 135.96V135.912C517.997 134.616 519.005 134.04 520.013 134.04C521.213 134.04 522.365 134.712 522.365 136.248C522.365 143.064 519.149 143.4 515.597 143.4C512.621 143.4 510.413 142.68 510.413 138.744C510.413 137.208 510.509 125.736 510.509 124.536C510.509 123.24 511.565 122.616 512.669 122.616C514.829 122.616 514.829 124.296 514.829 125.496C514.829 128.184 514.733 135.048 514.733 137.64C514.733 138.024 514.733 138.312 514.733 138.456C514.733 139.368 515.117 139.608 516.029 139.608C517.133 139.608 517.997 139.56 517.997 136.344C517.997 136.2 517.997 136.104 517.997 135.96ZM489.341 111.624C488.812 111.624 488.237 111.384 487.757 110.808C486.269 108.984 484.109 107.64 482.957 106.92C482.333 106.536 482.045 105.96 482.045 105.432C482.045 104.376 483.148 103.272 484.445 103.272C485.597 103.272 491.789 106.344 491.789 109.032C491.789 110.376 490.589 111.624 489.341 111.624ZM503.26 140.184L503.357 124.824C503.357 123.48 504.413 122.808 505.469 122.808C506.525 122.808 507.581 123.48 507.581 124.824L507.677 140.184C507.677 141.528 506.573 142.2 505.469 142.2C504.365 142.2 503.26 141.528 503.26 140.184ZM487.181 122.136C486.749 122.136 486.269 121.992 485.837 121.608C483.965 120.072 481.997 119.16 480.269 118.536C479.405 118.248 479.069 117.576 479.069 116.952C479.069 115.848 480.029 114.648 481.373 114.648C482.477 114.648 486.365 115.944 488.381 117.48C489.101 118.008 489.389 118.776 489.389 119.496C489.389 120.84 488.381 122.136 487.181 122.136ZM496.541 125.208V125.16C496.541 123.768 497.645 123.048 498.701 123.048C499.805 123.048 500.909 123.768 500.909 125.16C500.909 136.776 497.309 141.528 491.981 144.024C491.549 144.216 491.165 144.312 490.781 144.312C489.389 144.312 488.477 143.112 488.477 142.008C488.477 141.336 488.812 140.712 489.533 140.376C495.821 137.592 496.541 132.072 496.541 126.552C496.541 126.072 496.541 125.64 496.541 125.208ZM484.157 142.104C483.485 142.872 482.669 143.208 481.949 143.208C480.605 143.208 479.453 142.104 479.453 140.856C479.453 140.328 479.645 139.752 480.125 139.272C483.148 136.104 485.165 132.6 487.277 127.8C487.661 126.936 488.429 126.552 489.197 126.552C490.301 126.552 491.453 127.416 491.453 128.76C491.453 129.912 488.621 137.016 484.157 142.104ZM538.733 131.736C537.725 133.464 536.861 135.288 536.093 136.68C533.933 140.472 529.085 137.544 531.725 134.424C531.868 134.232 532.013 134.088 532.109 133.992C534.221 131.112 537.341 126.936 539.261 123.288C539.357 122.328 539.405 121.416 539.501 120.456C538.397 120.84 537.053 121.416 535.853 122.184C532.541 124.296 531.053 119.592 533.645 118.392C535.373 117.576 537.677 116.616 539.933 115.752C540.269 112.152 540.653 108.936 540.893 106.824C541.277 103.656 545.789 104.664 545.309 107.304C544.973 109.032 544.637 111.432 544.301 114.216C545.837 114.024 547.181 115.464 546.461 117.72C547.037 117.192 547.613 116.664 548.141 116.232C555.581 110.136 562.541 110.568 561.917 120.12C561.725 123 560.957 128.088 560.717 130.824C560.237 136.296 563.069 135.72 566.285 132.312C568.733 129.72 571.757 133.224 569.741 135.48C563.645 142.152 555.053 141.384 556.157 130.776C556.397 128.232 557.261 123.048 557.405 120.168C557.549 116.76 556.829 114.168 550.109 119.736C547.805 121.656 545.549 123.384 543.245 125.976C542.957 131.304 543.005 136.584 543.629 140.232C544.205 143.544 539.165 144.648 538.781 140.616C538.589 138.504 538.589 135.336 538.733 131.736Z" fill="black"/>
<path d="M0.1875 145.8H334.266V148.2H0.1875V145.8Z" fill="#52AA80"/>
<rect x="33" width="507" height="54" rx="27" fill="#52AA80"/>
<path d="M98.8148 25.688C97.2468 25.156 94.6988 24.848 93.2148 25.408C91.7588 25.94 90.8908 23.644 92.7388 23C94.1668 22.496 96.7148 22.16 99.4588 23.14C101.335 23.812 100.579 26.276 98.8148 25.688ZM98.8148 37.028C94.7548 37.84 91.2828 36.552 90.0508 35.18C88.8468 33.836 90.5828 31.624 92.0388 33.108C93.4668 34.564 95.1748 34.424 98.4508 34.144C100.495 33.976 100.663 36.664 98.8148 37.028ZM88.3708 22.356C86.6068 28.488 84.6188 33.332 83.2468 36.44C82.4068 38.316 79.4388 37.504 80.6148 35.124C81.8188 32.66 83.8068 28.404 85.5148 22.972C84.0308 23.14 82.6028 23.084 81.4268 22.58C79.9988 21.964 80.2788 19.416 82.3788 20.172C83.5548 20.592 84.9268 20.592 86.2428 20.34C86.4108 19.304 86.2988 18.548 86.2148 17.316C86.1028 15.72 88.7348 15.636 89.0148 17.176C89.1268 17.876 89.1268 18.632 89.0428 19.416C89.4348 19.22 89.7708 19.024 90.1068 18.828C91.5628 17.876 93.2988 20.2 91.1988 21.236C90.4148 21.628 89.4068 22.048 88.3708 22.356ZM124.071 34.676C122.391 36.076 120.179 37.084 117.127 37.588C114.915 37.952 114.691 35.264 116.623 34.984C119.171 34.62 121.103 33.864 122.503 32.632C124.183 31.148 124.267 29.608 123.427 28.656C122.223 27.284 120.011 27.312 118.191 27.844C116.175 28.46 114.355 29.58 112.451 30.448C110.519 31.344 109.427 28.74 111.247 27.984C113.039 27.256 115.475 26.136 117.687 25.576C120.039 24.988 123.259 24.96 125.219 27.004C127.571 29.44 126.619 32.548 124.071 34.676ZM154.815 25.688C153.247 25.156 150.699 24.848 149.215 25.408C147.759 25.94 146.891 23.644 148.739 23C150.167 22.496 152.715 22.16 155.459 23.14C157.335 23.812 156.579 26.276 154.815 25.688ZM154.815 37.028C150.755 37.84 147.283 36.552 146.051 35.18C144.847 33.836 146.583 31.624 148.039 33.108C149.467 34.564 151.175 34.424 154.451 34.144C156.495 33.976 156.663 36.664 154.815 37.028ZM144.371 22.356C142.607 28.488 140.619 33.332 139.247 36.44C138.407 38.316 135.439 37.504 136.615 35.124C137.819 32.66 139.807 28.404 141.515 22.972C140.031 23.14 138.603 23.084 137.427 22.58C135.999 21.964 136.279 19.416 138.379 20.172C139.555 20.592 140.927 20.592 142.243 20.34C142.411 19.304 142.299 18.548 142.215 17.316C142.103 15.72 144.735 15.636 145.015 17.176C145.127 17.876 145.127 18.632 145.043 19.416C145.435 19.22 145.771 19.024 146.107 18.828C147.563 17.876 149.299 20.2 147.199 21.236C146.415 21.628 145.407 22.048 144.371 22.356ZM167.751 24.064H168.591C170.299 24.008 171.111 22.888 171.111 21.236C171.111 19.836 169.907 18.716 168.199 18.716C166.855 18.716 165.959 19.416 165.231 20.172C164.951 20.452 164.587 20.592 164.251 20.592C163.467 20.592 162.683 19.864 162.683 19.024C162.683 17.456 165.903 15.832 168.339 15.832C171.895 15.832 174.163 18.1 174.163 21.236C174.163 23.14 173.267 24.624 171.895 25.352C175.171 26.864 175.227 30.224 175.227 30.756C175.227 34.704 172.203 37.504 167.975 37.504C163.803 37.504 161.283 35.04 161.283 33.724C161.283 32.828 162.095 32.044 162.935 32.044C163.299 32.044 163.691 32.212 164.027 32.576C165.287 33.976 166.183 34.508 168.115 34.508C170.131 34.508 172.147 33.024 172.147 30.7C172.147 27.844 170.439 26.976 168.451 26.976C168.367 26.976 168.283 26.976 168.199 26.976C168.031 26.976 167.891 27.004 167.779 27.004C166.911 27.004 166.295 26.248 166.295 25.52C166.295 24.792 166.883 24.064 167.751 24.064ZM185.324 37.532C181.6 37.532 178.94 34.956 178.492 30.252C178.38 29.048 178.324 27.872 178.324 26.696C178.324 25.632 178.38 24.54 178.464 23.392C178.856 18.52 181.516 15.832 185.324 15.832C189.076 15.832 191.708 18.408 192.156 23.084C192.268 24.316 192.352 25.548 192.352 26.752C192.352 29.916 192.1 37.532 185.324 37.532ZM185.324 34.592C187.06 34.592 188.516 33.024 188.908 30.364C189.076 29.132 189.16 27.76 189.16 26.416C189.16 24.26 189.16 18.716 185.324 18.716C183.364 18.716 181.88 20.508 181.6 23.504C181.516 24.54 181.46 25.576 181.46 26.584C181.46 27.76 181.516 28.936 181.656 30.084C181.992 32.94 183.504 34.592 185.324 34.592ZM219.193 24.876C218.773 24.876 218.353 24.68 218.101 24.148C217.429 22.748 216.253 21.348 215.105 20.424C214.825 20.2 214.713 19.92 214.713 19.668C214.713 19.08 215.357 18.492 216.057 18.492C217.233 18.492 220.705 22.076 220.705 23.364C220.705 24.204 219.921 24.876 219.193 24.876ZM211.017 15.412V15.384C211.017 14.572 211.661 14.152 212.333 14.152C213.005 14.152 213.677 14.572 213.677 15.412C213.705 16.364 213.705 17.4 213.705 18.408C213.705 20.48 213.677 22.524 213.677 23.756C213.677 24.204 213.733 26.136 213.761 27.116C213.761 27.144 213.761 27.2 213.761 27.228C213.761 28.992 212.753 30.616 209.953 30.616C207.881 30.616 207.069 30.084 207.069 29.104C207.069 28.46 207.517 27.844 208.301 27.844C208.413 27.844 208.497 27.844 208.609 27.872C209.169 27.984 209.673 28.096 210.065 28.096C210.709 28.096 211.073 27.788 211.073 26.556C211.073 26.556 211.073 19.08 211.017 15.412ZM206.677 25.828C206.285 26.276 205.809 26.444 205.389 26.444C204.717 26.444 204.129 25.968 204.129 25.296C204.129 24.96 204.297 24.568 204.689 24.148C205.725 23.056 206.761 21.124 207.293 19.5C207.489 18.94 207.965 18.688 208.413 18.688C209.057 18.688 209.701 19.136 209.701 19.808C209.701 20.592 208.329 23.98 206.677 25.828ZM218.969 26.948C215.357 37.952 205.361 38.68 205.277 38.68C204.353 38.68 203.821 38.008 203.821 37.308C203.821 36.776 204.185 36.216 204.997 36.076C210.401 35.068 214.517 32.324 216.309 26.08C216.477 25.464 216.981 25.212 217.485 25.212C218.241 25.212 219.025 25.744 219.025 26.528C219.025 26.668 219.025 26.808 218.969 26.948ZM202.309 37.672V37.7C202.309 38.456 201.609 38.848 200.937 38.848C200.237 38.848 199.565 38.484 199.565 37.7V37.672L199.677 28.348C198.949 29.692 198.109 30.924 197.213 31.988C196.877 32.38 196.485 32.52 196.121 32.52C195.393 32.52 194.721 31.932 194.721 31.232C194.721 30.952 194.861 30.616 195.141 30.336C196.597 28.88 198.557 26.192 199.705 23.588L199.677 23.28L196.877 23.364H196.849C196.009 23.364 195.589 22.776 195.589 22.16C195.589 21.544 196.037 20.928 196.877 20.928H199.649L199.593 18.464C198.613 18.66 197.381 18.856 197.129 18.856C196.289 18.856 195.841 18.184 195.841 17.54C195.841 17.008 196.177 16.504 196.877 16.42C199.369 16.168 201.161 15.72 203.429 14.796C203.569 14.74 203.737 14.712 203.877 14.712C204.549 14.712 205.109 15.356 205.109 16.028C205.109 16.84 204.661 17.12 202.281 17.848C202.253 18.436 202.253 19.584 202.225 20.928H204.157C204.969 20.928 205.361 21.516 205.361 22.104C205.361 22.72 204.913 23.364 204.073 23.364H204.045L202.169 23.308V25.632C202.673 25.632 205.641 27.62 205.641 28.852C205.641 29.58 204.997 30.196 204.353 30.196C204.017 30.196 203.681 30.028 203.401 29.636C203.065 29.16 202.617 28.628 202.169 28.152C202.197 32.352 202.309 37.672 202.309 37.672ZM246.997 25.24C246.605 24.792 245.149 23.812 244.561 23.588C243.049 23 244.141 21.208 245.513 21.656C246.297 21.908 247.809 22.664 248.481 23.336C249.657 24.512 248.005 26.36 246.997 25.24ZM244.113 27.788C243.721 27.34 242.321 26.276 241.733 26.024C240.249 25.38 241.369 23.644 242.741 24.148C243.525 24.428 245.037 25.212 245.681 25.912C246.829 27.144 245.093 28.936 244.113 27.788ZM241.425 37.588C232.969 37.56 230.057 29.804 233.109 24.176C233.389 23.644 233.641 23.196 234.005 22.72C234.453 22.132 234.313 22.16 233.781 22.328C231.681 23 232.157 23 230.253 23.728C229.357 24.064 228.573 24.344 227.733 24.568C225.269 25.24 224.513 22.02 226.753 21.544C227.341 21.404 228.965 21.096 229.861 20.872C231.233 20.536 233.697 19.976 236.553 19.164C239.437 18.352 241.705 17.68 244.169 17.512C245.905 17.4 246.381 18.772 246.073 19.668C245.905 20.144 245.289 20.704 243.329 20.592C241.901 20.508 240.137 21.04 239.185 21.376C237.617 21.936 236.189 23.616 235.573 24.652C233.109 28.768 234.985 34.648 241.257 34.424C244.197 34.312 244.393 37.616 241.425 37.588ZM271.553 34.452C271.497 36.412 270.097 37.84 268.081 37.924C266.849 37.98 265.337 37.98 263.853 37.98C262.397 37.98 260.941 37.98 259.793 37.924C257.357 37.84 256.153 36.608 256.069 34.536C256.013 32.716 255.985 29.664 255.985 26.612C255.985 23.896 256.013 21.152 256.069 19.276C256.125 17.484 257.469 16.308 259.569 16.224C260.633 16.196 262.453 16.168 264.245 16.168C265.729 16.168 267.185 16.196 268.137 16.224C269.845 16.28 271.497 17.484 271.553 19.5C271.609 21.208 271.637 24.008 271.637 26.808C271.637 29.888 271.609 32.968 271.553 34.452ZM258.617 25.044H268.893C268.893 23.28 268.865 21.656 268.837 20.536C268.781 18.604 268.361 18.576 263.881 18.576C259.149 18.576 258.757 18.604 258.673 20.536C258.645 21.684 258.617 23.28 258.617 25.044ZM268.893 27.508H258.617C258.617 29.86 258.617 32.1 258.673 33.444C258.729 35.264 259.037 35.376 263.797 35.376C264.889 35.376 266.009 35.376 266.737 35.348C268.305 35.292 268.781 34.564 268.837 33.36C268.893 31.96 268.893 29.748 268.893 27.508ZM299.469 15.3C301.009 15.356 302.325 16.252 302.437 17.68C302.493 18.324 302.521 19.332 302.521 20.256C302.521 23.42 302.213 24.288 296.333 24.288C290.873 24.288 290.369 23.7 290.369 20.256C290.369 19.36 290.397 18.352 290.453 17.792C290.565 16.308 291.573 15.356 293.309 15.3C294.261 15.244 295.353 15.244 296.417 15.244C297.509 15.244 298.573 15.244 299.469 15.3ZM303.389 37.952H289.361C288.577 37.952 288.185 37.392 288.185 36.832C288.185 36.272 288.577 35.712 289.361 35.712H295.073V32.884H291.545C290.845 32.884 290.509 32.352 290.509 31.848C290.509 31.316 290.845 30.784 291.545 30.784H295.073L295.045 28.32H290.985C290.229 28.32 289.865 27.76 289.865 27.2C289.865 26.668 290.229 26.108 290.985 26.108H302.185C302.941 26.108 303.305 26.668 303.305 27.2C303.305 27.76 302.941 28.32 302.185 28.32H297.649L297.621 30.784H301.177C301.905 30.784 302.269 31.316 302.269 31.82C302.269 32.352 301.905 32.884 301.177 32.884H297.621V35.712H303.389C304.089 35.712 304.453 36.272 304.453 36.832C304.453 37.392 304.089 37.952 303.389 37.952ZM286.309 37.672V37.7C286.309 38.456 285.609 38.848 284.937 38.848C284.237 38.848 283.565 38.484 283.565 37.7V37.672L283.677 28.348C282.949 29.692 282.109 30.924 281.213 31.988C280.877 32.38 280.485 32.52 280.121 32.52C279.393 32.52 278.721 31.932 278.721 31.232C278.721 30.952 278.861 30.616 279.141 30.336C280.597 28.88 282.557 26.192 283.705 23.588L283.677 23.28L280.877 23.364H280.849C280.009 23.364 279.589 22.776 279.589 22.16C279.589 21.544 280.037 20.928 280.877 20.928H283.649L283.593 18.464C282.613 18.66 281.381 18.856 281.129 18.856C280.289 18.856 279.841 18.184 279.841 17.54C279.841 17.008 280.177 16.504 280.877 16.42C283.369 16.168 285.161 15.72 287.429 14.796C287.569 14.74 287.737 14.712 287.877 14.712C288.549 14.712 289.109 15.356 289.109 16.028C289.109 16.84 288.661 17.12 286.281 17.848C286.253 18.436 286.253 19.584 286.225 20.928H288.605C289.445 20.928 289.865 21.544 289.865 22.16C289.865 22.776 289.445 23.364 288.633 23.364H288.605L286.169 23.308V25.044C287.149 25.044 289.109 27.2 289.249 27.396C289.445 27.648 289.501 27.9 289.501 28.124C289.501 28.824 288.885 29.44 288.241 29.44C287.961 29.44 287.625 29.272 287.401 28.936C287.065 28.432 286.617 27.844 286.169 27.34C286.197 31.624 286.309 37.672 286.309 37.672ZM299.861 20.872C299.861 18.772 299.861 18.66 299.833 18.464C299.749 17.624 299.413 17.512 296.585 17.512C295.689 17.512 294.793 17.54 294.093 17.568C292.973 17.596 292.917 17.988 292.917 20.34C292.917 21.824 292.973 21.964 296.361 21.964C299.189 21.964 299.861 21.88 299.861 20.872ZM321.449 32.52L321.477 35.04C321.477 35.068 321.477 35.068 321.477 35.096C321.477 36.944 320.217 38.904 316.661 38.904C315.541 38.904 313.077 38.876 313.077 37.196C313.077 36.552 313.525 35.936 314.309 35.936C314.421 35.936 314.561 35.964 314.701 35.992C315.457 36.16 316.101 36.244 316.633 36.244C318.089 36.244 318.705 35.6 318.705 34.48V26.136C315.037 26.164 311.257 26.192 309.381 26.22H309.353C308.625 26.22 308.233 25.632 308.233 25.044C308.233 24.456 308.625 23.868 309.353 23.868C311.369 23.84 315.709 23.812 319.825 23.784C318.621 22.916 316.885 22.02 315.765 21.572C315.233 21.376 315.037 21.012 315.037 20.62C315.037 20.032 315.597 19.388 316.381 19.388C317.053 19.388 319.041 20.34 319.993 20.844C320.049 20.816 324.137 18.66 324.137 18.072C324.137 17.932 324.025 17.876 321.589 17.876C318.929 17.876 314.729 17.932 312.573 18.016C312.545 18.016 312.517 18.016 312.489 18.016C311.593 18.016 311.117 17.428 311.117 16.84C311.117 16.224 311.593 15.608 312.545 15.58C313.861 15.524 315.877 15.524 317.949 15.524C320.805 15.524 323.801 15.552 325.313 15.58C327.021 15.608 327.917 16.42 327.917 17.428C327.917 17.988 327.637 18.604 327.049 19.164C326.293 19.92 324.053 21.376 322.289 22.272C322.345 22.328 322.401 22.384 322.457 22.412C322.765 22.692 322.877 23.028 322.877 23.364C322.877 23.504 322.877 23.644 322.821 23.784C325.593 23.784 327.917 23.784 328.813 23.812C330.241 23.84 331.193 24.792 331.193 25.968C331.193 27.9 327.665 31.484 326.097 31.484C325.201 31.484 324.529 30.84 324.529 30.168C324.529 29.804 324.753 29.412 325.257 29.104C325.873 28.74 328.141 27.004 328.141 26.416C328.141 26.248 327.973 26.136 327.609 26.136C327.609 26.136 327.609 26.136 321.449 26.136V32.52ZM355.049 21.236C355.049 21.236 355.049 21.236 349.897 21.236C347.965 24.82 347.349 24.904 346.789 24.904C346.089 24.904 345.473 24.428 345.473 23.756C345.473 23.504 345.585 23.196 345.837 22.888C347.517 20.9 348.889 17.596 349.477 15.244C349.645 14.6 350.149 14.292 350.709 14.292C351.409 14.292 352.137 14.768 352.137 15.552C352.137 16.392 351.101 18.688 351.045 18.828C352.165 18.8 353.649 18.772 354.797 18.772C356.141 18.772 358.885 18.8 359.081 22.076C359.137 23.056 359.193 24.372 359.193 25.828C359.193 34.564 357.177 38.624 352.109 38.624C351.269 38.624 350.373 38.484 349.393 38.26C348.637 38.064 348.273 37.42 348.273 36.804C348.273 36.132 348.693 35.488 349.533 35.488C349.673 35.488 349.813 35.516 349.981 35.544C350.765 35.74 351.493 35.852 352.109 35.852C354.797 35.852 356.449 33.472 356.449 25.8C356.449 22.132 356.393 21.236 355.049 21.236ZM352.277 30.224C351.913 30.224 351.577 30.084 351.297 29.72C350.541 28.74 349.281 27.788 348.105 27.2C347.601 26.948 347.405 26.556 347.405 26.192C347.405 25.576 347.937 24.96 348.721 24.96C349.673 24.96 353.705 27.06 353.705 28.74C353.705 29.552 353.005 30.224 352.277 30.224ZM339.789 37.672V37.644L339.873 27.844C339.845 27.844 336.765 28.264 336.429 28.264C335.757 28.264 335.393 27.676 335.393 27.116C335.393 26.612 335.701 26.108 336.289 26.08C336.653 26.052 337.045 26.024 337.521 25.996C338.025 25.408 338.585 24.68 339.145 23.896C338.305 22.972 336.793 21.824 336.009 21.32C335.617 21.068 335.477 20.732 335.477 20.396C335.477 19.836 335.925 19.276 336.569 19.276C336.765 19.276 336.989 19.332 337.213 19.444L337.353 19.5C338.137 18.268 339.117 16.196 339.509 14.684C339.649 14.124 340.125 13.872 340.629 13.872C341.301 13.872 342.029 14.348 342.029 15.02C342.029 15.58 340.573 18.8 339.173 20.816C339.621 21.18 340.069 21.572 340.433 21.936C341.329 20.48 342.113 18.968 342.561 17.876C342.757 17.372 343.177 17.176 343.597 17.176C344.297 17.176 344.997 17.68 344.997 18.408C344.997 19.192 342.589 23.028 340.545 25.716C341.553 25.604 342.505 25.492 343.205 25.408C342.561 24.512 342.505 24.428 342.505 24.148C342.505 23.644 343.009 23.252 343.541 23.252C344.941 23.252 346.481 26.556 346.481 27.284C346.481 28.068 345.893 28.6 345.305 28.6C344.885 28.6 344.493 28.32 344.297 27.704C344.241 27.508 344.185 27.34 344.101 27.144C343.681 27.228 343.065 27.34 342.365 27.452L342.421 37.644C342.421 38.512 341.749 38.96 341.077 38.96C340.433 38.96 339.789 38.54 339.789 37.672ZM345.557 35.292C345.081 35.292 344.605 34.984 344.465 34.256C344.241 33.052 343.625 31.624 343.121 30.784C342.981 30.56 342.925 30.364 342.925 30.168C342.925 29.636 343.429 29.272 343.989 29.272C344.353 29.272 344.717 29.412 344.997 29.72C346.061 30.896 346.901 33.304 346.901 33.892C346.901 34.732 346.229 35.292 345.557 35.292ZM337.297 36.468C337.017 36.916 336.597 37.112 336.149 37.112C335.505 37.112 334.889 36.664 334.889 35.992C334.889 35.768 334.945 35.544 335.085 35.292C335.813 34.032 336.569 31.988 336.765 30.364C336.849 29.692 337.353 29.384 337.885 29.384C338.529 29.384 339.173 29.832 339.173 30.616C339.173 31.148 338.389 34.732 337.297 36.468ZM375.629 22.076L375.349 22.104C373.893 22.328 372.493 22.468 370.953 22.44C368.797 22.384 368.685 19.472 371.233 19.78C372.381 19.92 373.669 19.864 375.573 19.584C375.545 18.1 375.545 16.784 375.573 15.888C375.629 13.732 378.541 14.236 378.429 15.86C378.345 16.868 378.289 17.988 378.261 19.108C378.849 18.996 379.493 18.828 380.165 18.688C382.013 18.268 382.769 20.872 380.333 21.264C379.577 21.376 378.877 21.516 378.233 21.628C378.233 22.664 378.233 23.7 378.261 24.736C378.933 24.54 379.633 24.344 380.389 24.092C382.461 23.42 383.525 25.996 381.033 26.696C380.053 26.976 379.157 27.228 378.345 27.424C378.401 28.376 378.457 29.244 378.541 30.056C378.625 30.812 378.709 31.82 378.765 32.828C380.165 33.36 381.369 34.116 382.237 34.816C384.113 36.356 382.293 38.904 380.529 37.28C379.941 36.748 379.241 36.216 378.485 35.768C377.505 38.148 374.089 40.024 370.645 38.316C367.985 37 367.817 33.864 370.869 32.576C372.577 31.848 374.453 31.792 376.217 32.1C376.189 31.512 376.133 30.924 376.077 30.28C376.021 29.608 375.965 28.824 375.909 27.956C373.697 28.376 372.213 28.46 370.813 28.264C368.825 27.984 369.161 25.1 371.401 25.576C372.213 25.744 373.613 25.744 375.769 25.324C375.713 24.26 375.657 23.168 375.629 22.076ZM375.965 34.62C374.453 34.144 372.969 34.06 371.737 34.592C371.009 34.9 370.869 35.796 371.653 36.188C373.361 37.028 375.545 36.188 375.965 34.62ZM414.149 25.24C413.757 24.792 412.301 23.812 411.713 23.588C410.201 23 411.293 21.208 412.665 21.656C413.449 21.908 414.961 22.664 415.633 23.336C416.809 24.512 415.157 26.36 414.149 25.24ZM411.265 27.788C410.873 27.34 409.473 26.276 408.885 26.024C407.401 25.38 408.521 23.644 409.893 24.148C410.677 24.428 412.189 25.212 412.833 25.912C413.981 27.144 412.245 28.936 411.265 27.788ZM408.577 37.588C400.121 37.56 397.209 29.804 400.261 24.176C400.541 23.644 400.793 23.196 401.157 22.72C401.605 22.132 401.465 22.16 400.933 22.328C398.833 23 399.309 23 397.405 23.728C396.509 24.064 395.725 24.344 394.885 24.568C392.421 25.24 391.665 22.02 393.905 21.544C394.493 21.404 396.117 21.096 397.013 20.872C398.385 20.536 400.849 19.976 403.705 19.164C406.589 18.352 408.857 17.68 411.321 17.512C413.057 17.4 413.533 18.772 413.225 19.668C413.057 20.144 412.441 20.704 410.481 20.592C409.053 20.508 407.289 21.04 406.337 21.376C404.769 21.936 403.341 23.616 402.725 24.652C400.261 28.768 402.137 34.648 408.409 34.424C411.349 34.312 411.545 37.616 408.577 37.588ZM432.377 15.104V17.176C434.477 17.176 436.577 17.204 438.677 17.232C440.217 17.26 441.785 18.492 441.841 20.172C441.869 20.592 441.869 21.152 441.869 21.656C441.869 22.048 441.869 22.412 441.841 22.692C441.785 23.56 441.029 24.008 440.301 24.008C439.601 24.008 438.929 23.588 438.929 22.776C438.929 22.748 438.929 22.748 438.929 22.72C438.929 19.92 438.929 19.612 437.193 19.584C434.981 19.556 432.517 19.528 430.109 19.528C428.121 19.528 426.161 19.556 424.453 19.584C422.941 19.612 422.717 20.06 422.633 21.096C422.633 21.096 422.633 21.096 422.633 22.776V22.804C422.633 23.644 421.905 24.092 421.205 24.092C420.533 24.092 419.861 23.672 419.833 22.776C419.833 22.412 419.805 21.964 419.805 21.488C419.805 20.984 419.833 20.48 419.833 20.032C419.889 18.66 420.925 17.26 423.081 17.232C425.209 17.204 427.337 17.176 429.465 17.176V15.104C429.465 14.264 430.193 13.844 430.921 13.844C431.649 13.844 432.377 14.264 432.377 15.104ZM436.437 24.176H425.209C424.369 24.176 423.949 23.588 423.949 23C423.949 22.412 424.369 21.824 425.209 21.824H436.437C437.221 21.824 437.613 22.412 437.613 23C437.613 23.588 437.221 24.176 436.437 24.176ZM440.777 28.628L434.365 28.572C434.337 30.28 434.309 32.688 434.309 33.948C434.309 35.376 434.337 35.936 436.773 35.936C438.201 35.936 439.993 35.936 439.993 33.192C439.993 32.296 440.637 31.876 441.309 31.876C441.477 31.876 442.793 31.904 442.793 33.388C442.793 38.316 439.097 38.456 436.661 38.456C434.309 38.456 431.649 38.4 431.649 35.124C431.649 34.312 431.649 30.784 431.677 28.572H430.641L421.205 28.628C420.393 28.628 419.973 28.04 419.973 27.452C419.973 26.864 420.393 26.276 421.205 26.276H440.777C441.561 26.276 441.953 26.864 441.953 27.452C441.953 28.04 441.561 28.628 440.777 28.628ZM429.577 30.728C427.981 37.7 421.037 39.072 420.197 39.072C419.217 39.072 418.713 38.4 418.713 37.728C418.713 37.112 419.133 36.468 419.945 36.328C424.593 35.488 426.217 32.828 426.777 30.14C426.945 29.356 427.561 29.02 428.177 29.02C428.877 29.02 429.633 29.496 429.633 30.364C429.633 30.476 429.605 30.588 429.577 30.728ZM461.105 23.588C462.141 25.352 462.589 27.648 462.589 29.86C462.589 37.476 458.109 38.652 455.477 38.652C454.329 38.652 452.369 38.596 452.369 37.028C452.369 36.328 452.873 35.628 453.741 35.628C453.881 35.628 454.021 35.656 454.161 35.684C454.637 35.796 455.113 35.852 455.561 35.852C458.109 35.852 459.705 34.06 459.705 29.692C459.705 26.948 458.837 23.952 456.317 22.972C455.841 22.776 455.645 22.44 455.645 22.048C455.645 21.376 456.289 20.592 457.185 20.592C457.829 20.592 458.725 21.068 459.481 21.656C460.657 20.872 463.597 18.688 463.597 18.212C463.597 18.072 463.457 17.96 463.177 17.96C462.421 17.932 461.441 17.932 460.349 17.932C457.381 17.932 453.629 17.988 451.221 18.072C451.193 18.072 451.193 18.072 451.165 18.072C450.325 18.072 449.877 17.456 449.877 16.84C449.877 16.224 450.297 15.608 451.193 15.58C452.929 15.524 455.505 15.496 458.053 15.496C460.601 15.496 463.121 15.524 464.773 15.552C466.509 15.58 467.377 16.504 467.377 17.568C467.377 18.156 467.125 18.772 466.593 19.332C465.193 20.816 462.421 22.776 461.105 23.588ZM485.661 30.924V30.896C485.661 30.728 485.661 30.532 485.661 30.308C485.661 27.592 485.381 21.068 485.213 16.672C485.213 16.644 485.213 16.616 485.213 16.588C485.213 15.552 486.025 15.048 486.837 15.048C487.677 15.048 488.517 15.58 488.517 16.672C488.517 19.976 488.069 27.676 488.069 30.392C488.069 31.064 488.069 32.24 486.837 32.24C486.249 32.24 485.661 31.792 485.661 30.924ZM488.797 36.16C488.797 37.504 487.621 38.008 486.865 38.008C485.801 38.008 484.933 37.112 484.933 36.16C484.933 34.928 486.109 34.228 486.865 34.228C487.957 34.228 488.797 34.9 488.797 36.16Z" fill="white"/>
<path d="M286.5 75L272.211 51.75H300.789L286.5 75Z" fill="#52AA80"/>
</svg>
