<svg width="578" height="180" viewBox="0 0 578 180" fill="none" xmlns="http://www.w3.org/2000/svg">
<path d="M147.945 25.088C147.945 26.132 146.937 27.068 145.785 27.068C145.353 27.068 144.921 26.924 144.489 26.636C141.285 24.404 136.713 20.012 133.473 16.484C133.077 16.016 132.717 15.8 132.393 15.8C132.069 15.8 131.781 16.016 131.385 16.484C128.505 20.012 123.933 24.692 120.549 27.284C119.901 27.788 119.289 27.968 118.749 27.968C117.597 27.968 116.805 27.104 116.805 26.132C116.805 25.556 117.129 24.908 117.885 24.44C121.737 22.064 126.201 17.348 128.829 14.036C129.729 12.92 130.881 12.308 132.105 12.308C133.293 12.308 134.517 12.884 135.669 14.036C139.017 17.492 142.797 20.804 146.793 23.324C147.621 23.828 147.945 24.476 147.945 25.088ZM137.397 24.944H127.749C126.633 24.944 126.093 24.152 126.093 23.396C126.093 22.604 126.633 21.812 127.749 21.812H137.397C138.513 21.812 139.053 22.604 139.053 23.396C139.053 24.152 138.513 24.944 137.397 24.944ZM138.729 28.256C141.249 28.328 142.401 29.3 142.401 30.956C142.401 35.348 134.805 42.98 131.961 42.98C130.809 42.98 129.873 42.116 129.873 41.216C129.873 40.64 130.233 40.064 131.097 39.668C134.445 38.12 138.261 33.476 138.261 31.964C138.261 31.568 137.937 31.424 137.613 31.424C135.093 31.424 124.509 31.496 123.141 31.532C123.105 31.532 123.105 31.532 123.069 31.532C121.989 31.532 121.485 30.776 121.485 29.984C121.485 29.156 122.025 28.328 123.069 28.292C124.257 28.256 130.089 28.256 134.481 28.256C136.281 28.256 137.865 28.256 138.729 28.256ZM173.721 20.804C174.117 21.164 174.333 21.74 174.225 22.46C173.649 27.032 170.409 33.836 166.953 37.04C164.181 39.596 161.157 38.192 159.573 35.096C157.305 30.632 159.717 23.936 164.541 20.588C168.969 17.528 175.557 17.024 180.093 19.76C185.673 23.108 186.573 29.732 183.441 34.88C181.749 37.652 178.221 39.884 174.657 40.82C171.489 41.648 170.373 38.012 173.469 37.292C176.205 36.68 178.977 35.132 180.165 33.26C182.721 29.228 181.749 24.512 178.185 22.244C176.781 21.344 175.269 20.912 173.721 20.804ZM170.877 20.984C169.221 21.344 167.601 22.1 166.233 23.144C162.885 25.736 161.085 30.524 162.597 33.296C163.137 34.34 164.073 34.88 164.973 34.088C167.673 31.712 170.193 25.988 170.553 22.1C170.589 21.668 170.697 21.272 170.877 20.984ZM211.665 16.268C214.257 16.268 216.921 16.268 218.325 16.376C220.845 16.52 222.645 18.104 222.717 20.48C222.789 22.784 222.825 26.42 222.825 29.912C222.825 32.9 222.789 35.816 222.753 37.616C222.645 40.964 220.737 42.368 217.245 42.512C215.841 42.584 214.077 42.62 212.313 42.62C203.709 42.62 200.793 42.548 200.649 37.688C200.577 35.528 200.541 32.468 200.541 29.372C200.541 26.24 200.577 23.072 200.649 20.696C200.829 16.34 204.105 16.304 207.921 16.304C208.353 14.972 208.713 13.424 208.857 12.488C208.965 11.696 209.793 11.336 210.657 11.336C211.665 11.336 212.781 11.876 212.781 12.92C212.781 13.532 212.313 14.756 211.665 16.268ZM203.853 23.936H219.441C219.441 23.108 219.405 22.352 219.369 21.74C219.261 19.292 218.469 19.292 211.845 19.292C209.721 19.292 207.669 19.328 206.517 19.4C203.961 19.544 203.853 20.588 203.853 23.936ZM219.477 31.352V26.996H203.817V31.352H219.477ZM219.441 34.412H203.853C203.853 35.384 203.889 36.284 203.925 36.968C203.997 39.344 204.861 39.416 211.917 39.416C213.681 39.416 215.481 39.38 216.669 39.308C219.441 39.164 219.441 37.76 219.441 34.412ZM252.093 16.124L246.945 16.304C246.909 16.304 246.909 16.304 246.873 16.304C245.757 16.304 245.181 15.476 245.181 14.612C245.181 13.784 245.721 12.92 246.873 12.92L252.777 12.812C252.813 12.812 252.885 12.812 252.921 12.812C254.721 12.812 256.341 13.388 257.097 15.044C259.185 19.4 261.921 22.892 266.241 25.592C266.997 26.06 267.285 26.672 267.285 27.32C267.285 28.4 266.349 29.444 265.161 29.444C263.145 29.444 257.709 24.296 254.325 17.24C253.965 16.412 253.281 16.124 252.273 16.124C252.201 16.124 252.165 16.124 252.093 16.124ZM255.585 27.356H251.625C249.753 40.208 239.565 43.088 238.413 43.088C237.333 43.088 236.613 42.224 236.613 41.324C236.613 40.676 237.009 39.992 237.981 39.704C244.713 37.616 247.233 32.828 248.025 27.356C246.873 27.356 245.757 27.392 244.785 27.392C243.777 27.392 243.237 26.672 243.237 25.916C243.237 25.844 243.237 25.772 243.237 25.7C241.617 27.572 239.061 30.092 237.477 30.092C236.361 30.092 235.533 29.192 235.533 28.256C235.533 27.716 235.821 27.14 236.505 26.708C240.033 24.512 241.905 21.92 243.633 18.644C244.065 17.852 244.677 17.528 245.289 17.528C246.297 17.528 247.233 18.356 247.233 19.364C247.233 20.552 244.497 24.188 244.317 24.404C244.461 24.368 244.605 24.332 244.785 24.332C246.297 24.296 247.989 24.296 249.717 24.296C252.093 24.296 254.541 24.296 256.593 24.332C259.005 24.368 260.409 25.844 260.409 28.292C260.409 35.276 260.193 42.944 252.237 42.944C251.121 42.944 249.933 42.764 248.673 42.44C247.845 42.224 247.449 41.504 247.449 40.784C247.449 39.848 248.097 38.912 249.177 38.912C249.357 38.912 249.537 38.948 249.717 38.984C250.797 39.272 251.733 39.416 252.525 39.416C255.045 39.416 256.845 38.192 256.845 29.3C256.845 29.12 256.845 28.94 256.845 28.76C256.845 27.752 256.341 27.356 255.585 27.356ZM291.333 16.52L291.261 16.664C291.837 16.448 292.377 16.232 292.773 16.016C294.753 14.828 296.697 17.816 294.033 19.148C293.133 19.58 291.585 20.012 290.073 20.336C289.605 21.488 288.993 22.784 288.345 23.972C290.829 23.54 293.205 24.44 294.393 27.104C295.869 26.348 297.381 25.592 298.785 24.98C299.649 24.62 300.621 24.188 301.593 23.648C304.293 22.136 305.913 25.736 303.609 26.888C302.457 27.464 301.629 27.644 299.721 28.364C298.209 28.94 296.589 29.66 295.149 30.344C295.257 31.532 295.293 33.008 295.221 34.304C295.149 35.744 294.213 36.5 293.313 36.536C292.413 36.572 291.585 35.888 291.693 34.484C291.729 33.728 291.765 32.9 291.765 32.144C291.441 32.324 291.117 32.504 290.829 32.684C286.365 35.564 286.905 37.724 288.921 38.732C290.829 39.704 294.357 38.984 296.049 38.444C299.217 37.472 300.225 41.36 296.913 42.224C294.789 42.764 289.893 43.304 287.085 41.72C282.225 38.984 283.089 34.124 289.605 29.84C290.109 29.516 290.685 29.12 291.369 28.724C290.397 25.7 287.625 26.06 285.285 28.76C285.249 28.796 285.177 28.868 285.141 28.904C284.817 29.3 284.565 29.624 284.313 29.84C282.333 31.604 279.705 29.552 281.865 27.608C282.801 26.744 284.025 25.448 284.781 24.224C285.393 23.216 285.969 22.136 286.473 21.02C284.529 21.308 283.161 21.2 282.009 20.624C279.417 19.328 281.181 15.944 283.701 17.636C284.385 18.104 285.825 17.924 287.085 17.708C287.229 17.672 287.445 17.672 287.625 17.636C287.877 16.592 287.949 15.872 288.021 14.612C288.165 12.452 291.549 12.668 291.621 14.432C291.657 15.152 291.513 15.836 291.333 16.52ZM342.849 19.112L330.321 19.04L318.189 19.112C317.037 19.112 316.425 18.284 316.425 17.456C316.425 16.664 317.037 15.836 318.189 15.836L328.557 15.908L328.521 13.208V13.172C328.521 12.056 329.457 11.48 330.393 11.48C331.329 11.48 332.265 12.056 332.265 13.172V13.208L332.229 15.908L342.849 15.836C343.965 15.836 344.505 16.664 344.505 17.456C344.505 18.284 343.965 19.112 342.849 19.112ZM344.253 35.096L332.121 35.06V42.116C332.121 43.088 331.257 43.592 330.357 43.592C329.493 43.592 328.629 43.088 328.629 42.116V35.06L316.641 35.096C315.453 35.096 314.913 34.34 314.913 33.584C314.913 32.756 315.525 31.892 316.641 31.892L328.629 31.928V31.028C328.629 30.38 328.953 29.948 329.385 29.696C328.845 29.408 328.485 28.868 328.485 28.292C328.485 27.896 328.665 27.5 329.133 27.212C331.437 25.808 333.273 23.468 334.497 20.372C334.749 19.688 335.289 19.436 335.829 19.436C336.657 19.436 337.521 20.048 337.521 20.948C337.521 21.164 337.485 21.524 336.765 22.82C338.313 24.296 340.257 25.412 342.021 26.276C342.669 26.6 342.957 27.14 342.957 27.716C342.957 28.616 342.237 29.516 341.229 29.516C339.933 29.516 337.161 27.356 335.253 25.268C334.029 26.996 332.697 28.508 331.185 29.516L331.077 29.588C331.653 29.804 332.121 30.272 332.121 31.028V31.928L344.253 31.892C345.333 31.892 345.909 32.72 345.909 33.548C345.909 34.304 345.369 35.096 344.253 35.096ZM324.417 25.232C323.085 27.284 320.781 30.02 319.341 30.02C318.405 30.02 317.577 29.264 317.577 28.4C317.577 27.932 317.829 27.428 318.405 26.996C320.709 25.304 322.401 23.324 323.373 20.66C323.661 19.832 324.273 19.508 324.885 19.508C325.677 19.508 326.469 20.084 326.469 20.984C326.469 21.524 325.821 22.748 325.749 22.892C326.613 23.216 329.097 24.476 329.097 25.988C329.097 26.852 328.449 27.68 327.693 27.68C327.369 27.68 327.045 27.536 326.757 27.212C325.965 26.348 325.029 25.628 324.417 25.232ZM383.457 34.16H383.421L374.349 33.98H373.269C377.013 36.644 380.793 37.94 384.897 39.308C385.689 39.56 386.013 40.136 386.013 40.712C386.013 41.648 385.221 42.692 384.105 42.692C383.385 42.692 377.121 40.352 371.649 36.104L371.721 42.296V42.332C371.721 43.232 370.857 43.7 370.029 43.7C369.165 43.7 368.337 43.268 368.337 42.332V42.296L368.409 36.14C363.945 39.74 357.105 42.836 355.953 42.836C354.873 42.836 354.117 42.044 354.117 41.216C354.117 40.64 354.513 40.1 355.377 39.776C359.769 38.264 363.117 36.68 366.573 33.98H365.385L356.637 34.16H356.601C355.701 34.16 355.269 33.512 355.269 32.828C355.269 32.144 355.737 31.46 356.637 31.46L368.409 31.532L368.373 29.948L360.237 29.984C359.445 29.984 359.013 29.372 359.013 28.76C359.013 28.184 359.445 27.572 360.237 27.572L368.337 27.608V26.06L358.401 26.096C357.501 26.096 357.033 25.448 357.033 24.764C357.033 24.116 357.501 23.468 358.401 23.468L364.701 23.504C364.485 22.964 364.233 22.424 363.981 22.028C363.837 21.848 363.801 21.668 363.801 21.488C363.801 21.056 364.197 20.696 364.701 20.552L356.457 20.588C355.449 20.588 354.945 19.832 354.945 19.076C354.945 18.32 355.449 17.6 356.421 17.6H356.457L361.173 17.672C360.669 16.844 359.985 16.088 359.301 15.368C359.085 15.116 358.977 14.864 358.977 14.612C358.977 13.856 359.913 13.172 360.777 13.172C361.065 13.172 361.353 13.208 361.605 13.388C362.253 13.82 364.161 16.268 364.521 17.708L365.781 17.744L365.745 12.956V12.92C365.745 11.912 366.537 11.444 367.329 11.444C368.121 11.444 368.949 11.948 368.949 12.956V17.744H371.037V12.956C371.037 11.948 371.829 11.444 372.657 11.444C373.449 11.444 374.241 11.948 374.241 12.92V12.956L374.169 17.744L375.393 17.708C376.113 16.628 376.761 15.188 377.193 14.108C377.481 13.352 378.093 13.028 378.705 13.028C379.641 13.028 380.577 13.748 380.577 14.648C380.577 14.756 380.577 15.476 378.849 17.672L383.745 17.6H383.781C384.753 17.6 385.221 18.32 385.221 19.076C385.221 19.832 384.753 20.588 383.745 20.588L375.069 20.552C375.573 20.804 375.969 21.2 375.969 21.74C375.969 22.136 375.429 23.288 375.321 23.504L381.585 23.468C382.485 23.468 382.917 24.116 382.917 24.8C382.917 25.448 382.485 26.096 381.585 26.096L371.721 26.06V27.608L379.749 27.572C380.577 27.572 380.973 28.184 380.973 28.796C380.973 29.372 380.577 29.984 379.749 29.984L371.685 29.948L371.649 31.532L383.421 31.46C384.321 31.46 384.789 32.144 384.753 32.828C384.789 33.512 384.321 34.16 383.457 34.16ZM373.161 20.552H366.213C366.573 20.732 367.689 21.596 368.049 23.396L368.085 23.504H372.045C372.333 22.856 372.693 21.884 372.801 21.164C372.837 20.876 372.981 20.696 373.161 20.552ZM420.897 37.688C413.877 43.412 402.357 44.456 402.033 34.736C401.889 30.956 402.285 27.896 402.465 24.08C402.573 21.74 402.825 18.212 402.753 15.98C402.681 13.316 406.749 13.532 406.677 15.908C406.605 18.176 406.353 21.596 406.173 24.008C405.921 27.824 405.381 31.1 405.525 34.592C405.741 39.848 412.149 39.488 418.413 34.556C420.753 32.72 422.949 36.032 420.897 37.688ZM453.132 41.756C442.26 41.72 438.516 31.748 442.44 24.512C442.8 23.828 443.124 23.252 443.592 22.64C444.168 21.884 443.988 21.92 443.304 22.136C440.604 23 441.216 23 438.768 23.936C437.616 24.368 436.608 24.728 435.528 25.016C432.36 25.88 431.424 21.74 434.304 21.128C435.06 20.948 437.148 20.552 438.3 20.264C440.064 19.832 443.196 19.112 446.868 18.068C450.576 17.024 453.528 16.16 456.696 15.944C458.928 15.8 459.54 17.564 459.144 18.716C458.928 19.328 458.136 20.048 455.616 19.904C453.78 19.796 451.476 20.48 450.252 20.912C448.236 21.632 446.436 23.792 445.644 25.124C442.476 30.416 444.888 37.976 452.952 37.688C456.732 37.544 456.948 41.792 453.132 41.756ZM24.3765 107.852H20.0925V114.044C20.0925 115.016 19.2285 115.52 18.3645 115.52C17.5005 115.52 16.6365 115.016 16.6365 114.044V107.852H12.3885C11.2725 107.852 10.7685 107.132 10.7685 106.376C10.7685 105.584 11.3445 104.792 12.3885 104.792H16.6365V103.892L16.7445 96.872C13.9725 101.516 10.0125 106.016 5.44048 109.508C5.00848 109.832 4.54048 109.976 4.14448 109.976C3.13648 109.976 2.34448 109.184 2.34448 108.284C2.34448 107.744 2.63248 107.168 3.28048 106.736C7.96048 103.568 12.1005 99.212 15.1245 93.92L5.15248 94.064H5.11648C4.00048 94.064 3.49648 93.308 3.49648 92.552C3.49648 91.724 4.07248 90.86 5.15248 90.86H16.6365V84.848C16.6365 83.804 17.4645 83.3 18.3285 83.3C19.1925 83.3 20.0925 83.84 20.0925 84.848V90.86H31.5405C32.5845 90.86 33.0885 91.652 33.0885 92.48C33.0885 93.272 32.5845 94.064 31.5405 94.064H31.5045L21.5325 93.92C24.7005 99.104 29.1645 102.884 33.4845 105.728C34.0965 106.16 34.3485 106.664 34.3485 107.204C34.3485 108.212 33.4125 109.184 32.2605 109.184C31.8645 109.184 31.4325 109.04 31.0005 108.752C27.1845 105.98 22.9365 101.408 19.9845 96.656L20.0925 103.856V104.792H24.3765C25.4205 104.792 25.9245 105.548 25.9245 106.304C25.9245 107.096 25.4205 107.852 24.3765 107.852ZM69.7725 89.492C65.5605 94.928 64.5165 95.18 63.7965 95.18C62.8605 95.18 62.0685 94.424 62.0685 93.56C62.0685 93.128 62.2485 92.696 62.6805 92.3C63.9765 91.076 66.0285 88.484 66.7845 87.224C67.1445 86.648 67.6125 86.432 68.1165 86.432C69.1245 86.432 70.1685 87.368 70.1685 88.412C70.1685 88.772 70.0245 89.132 69.7725 89.492ZM67.0365 107.168H48.0645C46.9845 107.168 46.4085 106.376 46.4085 105.584C46.4085 104.828 46.9845 104.036 48.0645 104.036H67.0365C67.0365 100.832 66.7485 100.544 65.2005 100.472C63.6165 100.4 60.4125 100.364 57.0645 100.364C53.2125 100.364 49.2165 100.4 47.2725 100.472C47.2365 100.472 47.2365 100.472 47.2005 100.472C46.1565 100.472 45.6525 99.752 45.6525 98.996C45.6525 98.204 46.2285 97.412 47.3445 97.376C49.0725 97.34 52.6005 97.34 56.2365 97.34L56.1645 85.208C56.1645 84.128 57.0645 83.624 57.9645 83.624C58.9005 83.624 59.8365 84.164 59.8365 85.208L59.7645 97.376C62.5365 97.376 65.0205 97.412 66.3165 97.448C69.0885 97.52 70.2045 98.78 70.3485 101.12C70.4205 102.488 70.4565 104.288 70.4565 106.124C70.4565 107.744 70.4205 109.4 70.3485 110.696C70.2045 112.892 68.6205 114.296 66.1005 114.368C63.9045 114.44 59.5845 114.44 55.5165 114.44C52.2045 114.44 49.0365 114.44 47.3085 114.404C46.1925 114.404 45.6525 113.612 45.6525 112.82C45.6525 112.064 46.1925 111.272 47.2365 111.272H47.2725C49.2525 111.308 52.9605 111.308 56.5605 111.308C60.1605 111.308 63.6885 111.308 65.3445 111.272C66.2445 111.236 66.8565 111.164 66.9285 109.796C66.9645 109.076 67.0005 108.14 67.0365 107.168ZM51.8085 95.144C51.2685 95.144 50.7285 94.856 50.3685 94.208C49.5045 92.66 47.4165 90.752 46.6245 90.212C46.1565 89.888 45.9405 89.456 45.9405 89.024C45.9405 88.124 46.8045 87.26 47.8125 87.26C49.4685 87.26 53.0325 91.292 53.4645 92.048C53.6805 92.408 53.7525 92.768 53.7525 93.128C53.7525 94.244 52.7805 95.144 51.8085 95.144ZM106.924 110.12C105.556 112.964 101.164 115.376 97.2405 113.144C94.1085 111.344 94.0365 107.24 97.7805 105.584C99.7245 104.72 101.92 104.684 104.116 105.152C104.116 104.576 104.044 104.036 104.008 103.352C103.9 101.876 103.828 99.104 103.72 96.26C101.776 96.548 99.8685 96.692 97.8165 96.512C95.3325 96.296 95.7645 92.624 98.5365 93.092C100.12 93.38 101.848 93.272 103.612 92.984C103.576 90.968 103.54 89.132 103.576 88.016C103.648 85.676 107.176 86 107.032 87.944C106.96 88.952 106.924 90.464 106.924 92.228C107.536 92.048 108.184 91.904 108.76 91.724C111.1 91.004 112.648 94.28 109.552 95.036C108.688 95.252 107.824 95.468 106.96 95.648C106.996 98.456 107.104 101.264 107.176 103.028C107.212 103.928 107.356 105.116 107.392 106.268C108.904 106.988 110.344 107.888 111.46 108.896C113.512 110.768 110.956 113.9 109.156 111.992C108.508 111.344 107.752 110.696 106.924 110.12ZM89.2125 113.612C88.2765 114.476 86.6565 114.332 86.0445 112.388C84.8925 108.752 85.0005 104.108 85.4685 99.752C85.9365 95.396 86.7285 91.364 86.9085 89.024C87.1245 86.108 90.9045 86.828 90.5445 89.096C90.2925 90.716 89.6805 93.848 89.2125 96.908C88.7445 99.968 88.3845 102.992 88.5285 104.432C88.6005 105.08 88.6365 105.188 88.9965 104.468C89.1045 104.252 89.3565 103.604 89.4285 103.424C90.2565 101.696 92.9925 102.92 91.6965 105.62C91.2285 106.592 90.8685 107.564 90.5805 108.464C90.2925 109.364 90.0765 110.156 89.9325 110.732C89.6445 111.74 90.1125 112.748 89.2125 113.612ZM103.828 108.428H103.792C101.992 107.744 100.192 107.564 98.8245 108.212C97.9605 108.608 97.7445 109.832 98.6085 110.336C100.336 111.308 103.252 110.552 103.828 108.428ZM150.064 88.424C145.6 87.464 140.512 87.368 135.808 88.28C132.016 89 131.392 83.912 135.664 83.288C140.224 82.616 146.992 82.568 150.976 83.432C155.008 84.296 153.952 89.24 150.064 88.424ZM154.768 111.8C145.264 114.776 133.744 112.52 130.432 107.864C128.704 105.416 131.824 102.104 134.416 104.744C138.496 108.92 146.272 108.584 153.52 106.52C157.504 105.416 158.656 110.6 154.768 111.8ZM210.208 110.6C205.024 114.68 195.424 115.736 195.52 106.664C195.52 104.456 195.856 103.112 195.76 100.952C195.52 95.624 188.224 100.136 186.88 102.536C185.728 104.6 184.384 106.712 183.856 109.064C182.992 112.76 181.936 113 180.976 113.144C179.296 113.384 177.04 112.232 178.144 109.448C180.304 104.024 183.04 99.224 185.824 94.904C188.608 90.584 191.104 86.504 193.456 82.76C194.272 81.416 195.568 79.736 196.096 78.776C197.68 75.944 202.144 78.344 200.56 81.368C200.176 82.04 199.84 82.568 199.456 83.048C199.072 83.528 198.592 84.056 198.064 84.68C195.76 87.272 194.224 89.288 192.976 91.064C191.728 92.84 190.768 94.376 189.712 95.96C189.376 96.44 189.52 96.344 189.856 96.056C191.584 94.52 199.888 92.264 200.56 100.376C200.704 102.248 200.32 103.88 200.32 105.656C200.32 109.928 204.448 109.4 207.28 106.856C209.728 104.648 210.784 102.344 211.648 100.136C213.04 96.584 218.08 99.032 216.256 102.632C214.912 105.272 213.04 108.392 210.208 110.6ZM263.872 91.832C261.616 90.392 259.168 89.672 256.384 89.816C253.744 89.96 253.552 85.976 256.624 85.688C259.792 85.4 263.152 85.976 265.456 87.368C268.72 89.336 266.224 93.32 263.872 91.832ZM242.224 87.032C239.776 87.512 237.712 87.32 235.888 86.792C232.96 85.976 233.872 81.56 237.28 82.664C238.864 83.192 241.36 83.144 243.856 82.52C244.336 80.936 244.576 79.4 244.816 77.672C245.248 74.84 249.472 75.368 249.376 78.104C249.328 78.824 249.04 79.88 248.704 81.032C249.28 80.744 249.808 80.504 250.24 80.216C252.4 78.68 255.424 81.656 252.352 83.864C251.152 84.728 249.184 85.496 247.216 86.072C244.96 91.496 241.696 97.256 238.624 102.248C236.848 105.128 232.24 103.256 234.352 100.136C237.04 96.152 239.872 92.072 242.224 87.032ZM257.344 109.544C255.952 113.384 249.952 116.744 244.144 113.816C239.68 111.56 239.152 106.376 244.096 104.168C247.072 102.824 250.336 102.728 253.312 103.256C253.312 102.728 253.312 102.2 253.312 101.576C253.312 100.376 253.216 99.176 253.168 97.976C253.12 97.016 253.216 95.672 253.408 94.76C253.984 92.12 258.208 92.744 257.728 95.624C257.584 96.344 257.44 96.872 257.44 97.88C257.44 98.984 257.44 100.184 257.488 101.576C257.536 102.488 257.632 103.496 257.68 104.552C260.224 105.608 262.336 107.096 263.536 108.392C266.272 111.416 262.384 114.824 260.08 112.04C259.36 111.176 258.448 110.312 257.344 109.544ZM253.072 107.288C250.624 106.472 248.032 106.376 245.68 107.528C244.384 108.2 244.288 109.592 245.728 110.312C248.608 111.752 252.496 110.36 253.024 107.768C253.072 107.624 253.024 107.432 253.072 107.288ZM321.808 114.344H295.072C293.68 114.344 293.056 113.432 293.056 112.52C293.056 111.512 293.776 110.504 295.072 110.504H307.12V105.8H299.872C298.48 105.8 297.808 104.888 297.808 103.976C297.808 103.016 298.528 102.008 299.872 102.008H307.12V97.304C305.776 97.304 304.48 97.256 303.232 97.208C299.872 97.064 298.24 95.192 298.144 92.552C298.096 90.584 298.048 88.424 298.048 86.264C298.048 84.104 298.096 81.944 298.144 80.024C298.24 77.864 299.632 75.656 303.28 75.512C305.2 75.416 307.216 75.416 309.328 75.416C311.392 75.416 313.552 75.416 315.664 75.512C318.88 75.608 320.752 77.672 320.848 79.976C320.944 82.136 320.992 84.392 320.992 86.648C320.992 88.568 320.944 90.584 320.848 92.504C320.704 95 318.736 97.064 315.664 97.208C314.272 97.256 312.88 97.304 311.488 97.304V102.008H319.12C320.464 102.008 321.088 102.968 321.088 103.88C321.088 104.84 320.464 105.8 319.12 105.8H311.488V110.504H321.808C323.104 110.504 323.728 111.464 323.728 112.424C323.728 113.384 323.104 114.344 321.808 114.344ZM287.008 102.392V92.888H283.36C282.016 92.888 281.392 91.928 281.392 90.968C281.392 89.912 282.112 88.856 283.36 88.856H287.008V81.512H282.64C281.296 81.512 280.672 80.552 280.672 79.592C280.672 78.536 281.392 77.48 282.64 77.48H295.456C296.704 77.48 297.328 78.488 297.328 79.496C297.328 80.504 296.704 81.512 295.456 81.512H291.232V88.856H294.592C295.84 88.856 296.464 89.864 296.464 90.872C296.464 91.88 295.84 92.888 294.592 92.888H291.232V100.952C292.48 100.472 293.68 99.944 294.832 99.416C295.216 99.224 295.552 99.176 295.936 99.176C297.088 99.176 297.952 100.088 297.952 101.096C297.952 101.768 297.52 102.536 296.464 103.016C291.952 105.08 284.032 108.2 282.256 108.2C280.864 108.2 280.144 107.096 280.144 105.992C280.144 105.08 280.672 104.168 281.776 103.88C283.552 103.4 285.28 102.92 287.008 102.392ZM311.488 84.44H316.624C316.624 83.24 316.624 82.04 316.576 80.888C316.48 78.92 315.376 78.92 311.488 78.92V84.44ZM316.672 87.944H311.488V93.656C312.496 93.656 313.552 93.656 314.512 93.608C316.576 93.512 316.672 92.84 316.672 87.944ZM307.12 84.44V78.968C306.16 78.968 305.248 78.968 304.432 79.016C302.32 79.064 302.224 80.12 302.224 84.44H307.12ZM307.12 93.656V87.944H302.224C302.224 89.192 302.272 90.488 302.32 91.736C302.416 93.656 303.856 93.656 307.12 93.656ZM372.544 96.008C372.448 98.312 370.672 100.232 367.936 100.376C366.736 100.424 365.392 100.472 364.096 100.472C362.464 100.472 360.88 100.424 359.488 100.376C356.512 100.28 355.12 98.504 355.024 96.056C354.976 93.896 354.928 91.16 354.928 88.328C354.928 85.496 354.976 82.616 355.024 80.264C355.072 78.248 356.272 76.28 359.536 76.088C360.784 75.992 362.224 75.992 363.712 75.992C365.152 75.992 366.64 75.992 367.936 76.088C370.816 76.232 372.448 78.056 372.544 80.216C372.64 82.472 372.688 85.352 372.688 88.184C372.688 91.016 372.64 93.848 372.544 96.008ZM375.184 111.176C375.184 112.568 373.936 113.672 372.64 113.672C371.968 113.672 371.248 113.336 370.816 112.52C369.568 110.312 367.6 108.536 366.16 107.48C365.536 107 365.296 106.472 365.296 105.992C365.296 104.936 366.304 104.024 367.552 104.024C369.424 104.024 375.184 108.824 375.184 111.176ZM347.056 99.128V99.176C347.056 100.424 345.952 101.048 344.848 101.048C343.744 101.048 342.64 100.424 342.64 99.176V99.128L342.832 89.24C340.96 91.88 338.896 94.376 336.784 96.248C336.304 96.68 335.776 96.872 335.296 96.872C334.096 96.872 333.088 95.768 333.088 94.664C333.088 94.088 333.328 93.512 334 93.032C336.592 91.16 340.144 87.608 342.688 83.864L336.976 83.96H336.928C335.584 83.96 334.864 83 334.864 81.992C334.864 81.032 335.584 80.024 336.976 80.024H342.736L342.64 75.944V75.896C342.64 74.552 343.744 73.88 344.848 73.88C345.952 73.88 347.056 74.552 347.056 75.848C347.056 75.896 347.056 75.896 347.056 75.944C347.056 75.944 346.96 77.624 346.912 80.024H351.76C353.008 80.024 353.632 80.984 353.632 81.944C353.632 82.952 352.96 83.96 351.808 83.96H351.76L346.864 83.864C346.864 84.728 346.816 85.64 346.816 86.504C347.104 86.36 347.392 86.264 347.728 86.264C348.208 86.264 353.296 88.568 353.296 90.824C353.296 91.976 352.336 93.08 351.328 93.08C350.848 93.08 350.416 92.888 349.984 92.408C348.976 91.304 347.824 90.152 346.816 89.48C346.864 95.48 347.056 99.128 347.056 99.128ZM357.136 107.576C356.56 107.576 356.032 107.336 355.552 106.76C354.4 105.224 352.768 104.12 351.472 103.352C350.848 102.968 350.56 102.44 350.56 101.96C350.56 100.952 351.616 99.944 352.864 99.944C353.68 99.944 359.488 102.584 359.488 105.176C359.488 106.472 358.336 107.576 357.136 107.576ZM365.392 109.448C365.392 114.872 362.224 115.832 354.544 115.832C346.384 115.832 345.136 113.912 345.136 110.36C345.136 109.976 345.088 108.056 345.088 106.52C345.088 104.504 345.136 102.632 347.44 102.632C348.592 102.632 349.744 103.352 349.744 104.648C349.744 105.704 349.696 109.352 349.696 109.88C349.792 111.848 351.424 111.944 354.64 111.944C358.912 111.944 360.784 111.656 360.784 109.352C360.784 108.104 361.792 107.576 362.848 107.576C364.096 107.576 365.392 108.296 365.392 109.448ZM336.064 115.064C334.672 115.064 333.712 113.864 333.712 112.712C333.712 111.992 334.096 111.272 334.96 110.84C336.16 110.264 338.704 107.816 339.328 106.232C339.712 105.272 340.432 104.888 341.2 104.888C342.352 104.888 343.552 105.8 343.552 107C343.552 109.016 339.04 115.064 336.064 115.064ZM358.912 82.952H368.56C368.56 82.424 368.512 81.896 368.512 81.416C368.416 79.592 367.888 79.544 363.52 79.544C359.92 79.544 359.056 79.592 358.96 81.464C358.96 81.944 358.912 82.424 358.912 82.952ZM368.608 89.816V86.408H358.864V89.816H368.608ZM368.56 93.224H358.912C358.912 93.896 358.96 94.52 358.96 95.096C359.056 96.872 360.016 96.92 363.232 96.92C368.032 96.92 368.464 96.872 368.512 95.048C368.512 94.472 368.56 93.848 368.56 93.224ZM409.504 86.072C410.032 86.552 410.32 87.32 410.176 88.28C409.408 94.376 405.088 103.448 400.48 107.72C396.784 111.128 392.752 109.256 390.64 105.128C387.616 99.176 390.832 90.248 397.264 85.784C403.168 81.704 411.952 81.032 418 84.68C425.44 89.144 426.64 97.976 422.464 104.84C420.208 108.536 415.504 111.512 410.752 112.76C406.528 113.864 405.04 109.016 409.168 108.056C412.816 107.24 416.512 105.176 418.096 102.68C421.504 97.304 420.208 91.016 415.456 87.992C413.584 86.792 411.568 86.216 409.504 86.072ZM405.712 86.312C403.504 86.792 401.344 87.8 399.52 89.192C395.056 92.648 392.656 99.032 394.672 102.728C395.392 104.12 396.64 104.84 397.84 103.784C401.44 100.616 404.8 92.984 405.28 87.8C405.328 87.224 405.472 86.696 405.712 86.312ZM460.096 80.024C463.552 80.024 467.104 80.024 468.976 80.168C472.336 80.36 474.736 82.472 474.832 85.64C474.928 88.712 474.976 93.56 474.976 98.216C474.976 102.2 474.928 106.088 474.88 108.488C474.736 112.952 472.192 114.824 467.536 115.016C465.664 115.112 463.312 115.16 460.96 115.16C449.488 115.16 445.6 115.064 445.408 108.584C445.312 105.704 445.264 101.624 445.264 97.496C445.264 93.32 445.312 89.096 445.408 85.928C445.648 80.12 450.016 80.072 455.104 80.072C455.68 78.296 456.16 76.232 456.352 74.984C456.496 73.928 457.6 73.448 458.752 73.448C460.096 73.448 461.584 74.168 461.584 75.56C461.584 76.376 460.96 78.008 460.096 80.024ZM449.68 90.248H470.464C470.464 89.144 470.416 88.136 470.368 87.32C470.224 84.056 469.168 84.056 460.336 84.056C457.504 84.056 454.768 84.104 453.232 84.2C449.824 84.392 449.68 85.784 449.68 90.248ZM470.512 100.136V94.328H449.632V100.136H470.512ZM470.464 104.216H449.68C449.68 105.512 449.728 106.712 449.776 107.624C449.872 110.792 451.024 110.888 460.432 110.888C462.784 110.888 465.184 110.84 466.768 110.744C470.464 110.552 470.464 108.68 470.464 104.216ZM514 79.832L507.136 80.072C507.088 80.072 507.088 80.072 507.04 80.072C505.552 80.072 504.784 78.968 504.784 77.816C504.784 76.712 505.504 75.56 507.04 75.56L514.912 75.416C514.96 75.416 515.056 75.416 515.104 75.416C517.504 75.416 519.664 76.184 520.672 78.392C523.456 84.2 527.104 88.856 532.864 92.456C533.872 93.08 534.256 93.896 534.256 94.76C534.256 96.2 533.008 97.592 531.424 97.592C528.736 97.592 521.488 90.728 516.976 81.32C516.496 80.216 515.584 79.832 514.24 79.832C514.144 79.832 514.096 79.832 514 79.832ZM518.656 94.808H513.376C510.88 111.944 497.296 115.784 495.76 115.784C494.32 115.784 493.36 114.632 493.36 113.432C493.36 112.568 493.888 111.656 495.184 111.272C504.16 108.488 507.52 102.104 508.576 94.808C507.04 94.808 505.552 94.856 504.256 94.856C502.912 94.856 502.192 93.896 502.192 92.888C502.192 92.792 502.192 92.696 502.192 92.6C500.032 95.096 496.624 98.456 494.512 98.456C493.024 98.456 491.92 97.256 491.92 96.008C491.92 95.288 492.304 94.52 493.216 93.944C497.92 91.016 500.416 87.56 502.72 83.192C503.296 82.136 504.112 81.704 504.928 81.704C506.272 81.704 507.52 82.808 507.52 84.152C507.52 85.736 503.872 90.584 503.632 90.872C503.824 90.824 504.016 90.776 504.256 90.776C506.272 90.728 508.528 90.728 510.832 90.728C514 90.728 517.264 90.728 520 90.776C523.216 90.824 525.088 92.792 525.088 96.056C525.088 105.368 524.8 115.592 514.192 115.592C512.704 115.592 511.12 115.352 509.44 114.92C508.336 114.632 507.808 113.672 507.808 112.712C507.808 111.464 508.672 110.216 510.112 110.216C510.352 110.216 510.592 110.264 510.832 110.312C512.272 110.696 513.52 110.888 514.576 110.888C517.936 110.888 520.336 109.256 520.336 97.4C520.336 97.16 520.336 96.92 520.336 96.68C520.336 95.336 519.664 94.808 518.656 94.808ZM569.248 95.288C566.656 94.748 563.92 94.64 560.896 95.396C558.916 95.9 557.764 92.696 560.392 92.048C563.596 91.256 567.34 91.22 569.86 91.832C572.38 92.444 571.696 95.828 569.248 95.288ZM571.192 111.704C567.34 112.676 561.436 112.568 558.844 109.76C557.368 108.14 559.528 105.584 561.4 107.276C563.344 109.04 567.664 108.464 570.472 107.888C573.388 107.276 573.568 111.092 571.192 111.704ZM552.148 113.432C551.248 114.224 549.916 114.08 549.196 112.316C546.316 105.224 549.16 94.568 549.808 90.284C550.204 87.62 553.696 88.412 553.3 90.5C552.724 93.416 550.564 101.876 551.428 105.224C551.536 105.692 551.68 105.584 551.824 105.26C551.896 105.08 552.292 104.36 552.436 104.108C553.552 102.344 555.784 104.072 554.956 105.512C553.624 107.852 553.048 109.508 552.832 110.552C552.616 111.524 553.048 112.64 552.148 113.432ZM123.194 151.124C121.502 150.044 119.666 149.504 117.578 149.612C115.598 149.72 115.454 146.732 117.758 146.516C120.134 146.3 122.654 146.732 124.382 147.776C126.83 149.252 124.958 152.24 123.194 151.124ZM106.958 147.524C105.122 147.884 103.574 147.74 102.206 147.344C100.01 146.732 100.694 143.42 103.25 144.248C104.438 144.644 106.31 144.608 108.182 144.14C108.542 142.952 108.722 141.8 108.902 140.504C109.226 138.38 112.394 138.776 112.322 140.828C112.286 141.368 112.07 142.16 111.818 143.024C112.25 142.808 112.646 142.628 112.97 142.412C114.59 141.26 116.858 143.492 114.554 145.148C113.654 145.796 112.178 146.372 110.702 146.804C109.01 150.872 106.562 155.192 104.258 158.936C102.926 161.096 99.4703 159.692 101.054 157.352C103.07 154.364 105.194 151.304 106.958 147.524ZM118.298 164.408C117.254 167.288 112.754 169.808 108.398 167.612C105.05 165.92 104.654 162.032 108.362 160.376C110.594 159.368 113.042 159.296 115.274 159.692C115.274 159.296 115.274 158.9 115.274 158.432C115.274 157.532 115.202 156.632 115.166 155.732C115.13 155.012 115.202 154.004 115.346 153.32C115.778 151.34 118.946 151.808 118.586 153.968C118.478 154.508 118.37 154.904 118.37 155.66C118.37 156.488 118.37 157.388 118.406 158.432C118.442 159.116 118.514 159.872 118.55 160.664C120.458 161.456 122.042 162.572 122.942 163.544C124.994 165.812 122.078 168.368 120.35 166.28C119.81 165.632 119.126 164.984 118.298 164.408ZM115.094 162.716C113.258 162.104 111.314 162.032 109.55 162.896C108.578 163.4 108.506 164.444 109.586 164.984C111.746 166.064 114.662 165.02 115.058 163.076C115.094 162.968 115.058 162.824 115.094 162.716ZM151.238 168.872C148.322 171.032 145.694 168.044 148.718 166.064C154.298 162.428 157.466 154.652 154.982 147.128C153.794 143.528 150.374 144.86 149.33 147.092C148.286 149.288 148.214 150.764 148.394 153.896C148.574 157.388 144.686 157.352 144.47 154.76C144.254 151.916 144.866 148.46 145.298 146.444C145.694 144.608 146.378 142.232 146.666 140.036C146.954 137.768 150.446 138.2 150.266 140.36C150.158 141.584 149.726 142.844 149.33 143.708C148.862 144.68 149.222 144.212 149.582 143.744C152.21 140.36 156.89 141.836 158.366 145.904C160.994 153.176 159.698 162.644 151.238 168.872ZM201.16 152.456C199.144 151.772 195.868 151.376 193.96 152.096C192.088 152.78 190.972 149.828 193.348 149C195.184 148.352 198.46 147.92 201.988 149.18C204.4 150.044 203.428 153.212 201.16 152.456ZM201.16 167.036C195.94 168.08 191.476 166.424 189.892 164.66C188.344 162.932 190.576 160.088 192.448 161.996C194.284 163.868 196.48 163.688 200.692 163.328C203.32 163.112 203.536 166.568 201.16 167.036ZM187.732 148.172C185.464 156.056 182.908 162.284 181.144 166.28C180.064 168.692 176.248 167.648 177.76 164.588C179.308 161.42 181.864 155.948 184.06 148.964C182.152 149.18 180.316 149.108 178.804 148.46C176.968 147.668 177.328 144.392 180.028 145.364C181.54 145.904 183.304 145.904 184.996 145.58C185.212 144.248 185.068 143.276 184.96 141.692C184.816 139.64 188.2 139.532 188.56 141.512C188.704 142.412 188.704 143.384 188.596 144.392C189.1 144.14 189.532 143.888 189.964 143.636C191.836 142.412 194.068 145.4 191.368 146.732C190.36 147.236 189.064 147.776 187.732 148.172ZM235.324 165.524C236.44 167.936 232.948 170.06 231.796 167.756C229.708 163.652 226.648 158.972 224.164 156.056C221.788 153.284 221.788 150.728 224.596 147.812C227.044 145.256 229.816 142.592 231.976 139.676C233.632 137.48 236.872 140.036 235.18 142.124C233.38 144.32 229.564 147.452 227.332 149.684C225.784 151.232 225.712 152.312 226.9 153.788C230.5 158.288 233.56 161.672 235.324 165.524ZM280.504 151.124C278.812 150.044 276.976 149.504 274.888 149.612C272.908 149.72 272.764 146.732 275.068 146.516C277.444 146.3 279.964 146.732 281.692 147.776C284.14 149.252 282.268 152.24 280.504 151.124ZM264.268 147.524C262.432 147.884 260.884 147.74 259.516 147.344C257.32 146.732 258.004 143.42 260.56 144.248C261.748 144.644 263.62 144.608 265.492 144.14C265.852 142.952 266.032 141.8 266.212 140.504C266.536 138.38 269.704 138.776 269.632 140.828C269.596 141.368 269.38 142.16 269.128 143.024C269.56 142.808 269.956 142.628 270.28 142.412C271.9 141.26 274.168 143.492 271.864 145.148C270.964 145.796 269.488 146.372 268.012 146.804C266.32 150.872 263.872 155.192 261.568 158.936C260.236 161.096 256.78 159.692 258.364 157.352C260.38 154.364 262.504 151.304 264.268 147.524ZM275.608 164.408C274.564 167.288 270.064 169.808 265.708 167.612C262.36 165.92 261.964 162.032 265.672 160.376C267.904 159.368 270.352 159.296 272.584 159.692C272.584 159.296 272.584 158.9 272.584 158.432C272.584 157.532 272.512 156.632 272.476 155.732C272.44 155.012 272.512 154.004 272.656 153.32C273.088 151.34 276.256 151.808 275.896 153.968C275.788 154.508 275.68 154.904 275.68 155.66C275.68 156.488 275.68 157.388 275.716 158.432C275.752 159.116 275.824 159.872 275.86 160.664C277.768 161.456 279.352 162.572 280.252 163.544C282.304 165.812 279.388 168.368 277.66 166.28C277.12 165.632 276.436 164.984 275.608 164.408ZM272.404 162.716C270.568 162.104 268.624 162.032 266.86 162.896C265.888 163.4 265.816 164.444 266.896 164.984C269.056 166.064 271.972 165.02 272.368 163.076C272.404 162.968 272.368 162.824 272.404 162.716ZM323.308 155.948C323.596 158.576 320.032 159.296 319.528 156.812C318.952 153.932 317.476 151.16 315.532 149.828C313.804 148.64 315.748 145.976 317.908 147.596C320.464 149.504 322.948 152.888 323.308 155.948ZM307.576 161.888C305.272 165.632 302.068 165.308 300.052 163.148C297.46 160.34 296.272 156.164 295.984 151.628C295.84 149.576 295.768 148.928 295.804 147.632C295.876 145.364 299.368 144.896 299.476 147.596C299.548 149 299.404 149.072 299.476 150.728C299.62 154.508 300.304 158.072 302.32 160.016C303.256 160.916 303.724 161.024 304.516 159.944C304.948 159.332 305.452 158.396 305.704 157.82C306.676 155.732 309.664 157.244 308.98 159.116C308.62 160.124 307.972 161.24 307.576 161.888ZM361.819 151.88C361.315 151.304 359.443 150.044 358.687 149.756C356.743 149 358.147 146.696 359.911 147.272C360.919 147.596 362.863 148.568 363.727 149.432C365.239 150.944 363.115 153.32 361.819 151.88ZM358.111 155.156C357.607 154.58 355.807 153.212 355.051 152.888C353.143 152.06 354.583 149.828 356.347 150.476C357.355 150.836 359.299 151.844 360.127 152.744C361.603 154.328 359.371 156.632 358.111 155.156ZM354.655 167.756C343.783 167.72 340.039 157.748 343.963 150.512C344.323 149.828 344.647 149.252 345.115 148.64C345.691 147.884 345.511 147.92 344.827 148.136C342.127 149 342.739 149 340.291 149.936C339.139 150.368 338.131 150.728 337.051 151.016C333.883 151.88 332.911 147.74 335.791 147.128C336.547 146.948 338.635 146.552 339.787 146.264C341.551 145.832 344.719 145.112 348.391 144.068C352.099 143.024 355.015 142.16 358.183 141.944C360.415 141.8 361.027 143.564 360.631 144.716C360.415 145.328 359.623 146.048 357.103 145.904C355.267 145.796 352.999 146.48 351.775 146.912C349.759 147.632 347.923 149.792 347.131 151.124C343.963 156.416 346.375 163.976 354.439 163.688C358.219 163.544 358.471 167.792 354.655 167.756ZM388.711 160.772C386.335 161.996 383.203 161.312 382.051 158.072C380.791 154.58 382.735 151.988 384.931 151.304C385.975 150.98 387.055 150.836 388.027 150.98C387.991 150.188 387.955 149.108 387.919 148.064C384.895 148.352 381.907 148.784 380.035 149.072C377.443 149.468 375.751 149.936 374.671 150.116C372.259 150.548 371.539 146.948 374.383 146.48C375.823 146.228 378.163 145.976 379.675 145.724C381.475 145.436 384.715 145.04 387.883 144.752C387.883 144.536 387.883 144.284 387.883 144.104C387.919 141.872 387.703 141.728 387.703 140.576C387.703 137.948 391.339 138.2 391.483 140.468C391.519 141.296 391.411 142.952 391.339 143.924C391.339 144.104 391.303 144.284 391.303 144.464C392.347 144.392 393.283 144.356 394.075 144.356C395.839 144.356 397.099 144.32 399.547 144.356C402.571 144.428 402.427 148.244 399.547 148.028C396.991 147.812 396.127 147.812 393.895 147.776C393.067 147.776 392.203 147.812 391.267 147.848C391.303 149 391.339 150.116 391.339 151.16C391.339 151.664 391.411 152.42 391.447 153.212C394.651 158.252 390.835 165.884 387.019 168.944C384.607 170.852 381.475 168.296 384.607 166.064C386.335 164.84 387.847 162.824 388.711 160.772ZM388.675 154.904C388.495 154.688 388.315 154.472 388.099 154.292C387.595 153.86 386.551 153.788 385.795 154.148C384.931 154.544 384.355 155.66 384.751 156.884C385.399 158.828 388.531 158.828 388.891 156.272C388.999 155.516 388.891 155.192 388.675 154.904ZM442.387 154.436C443.287 156.812 440.047 158.396 439.075 156.164C438.211 154.184 436.591 151.448 433.927 149.972C432.163 149 433.747 146.3 435.979 147.596C438.859 149.288 441.415 151.844 442.387 154.436ZM424.639 148.172L425.827 148.064C428.851 147.812 431.155 149.576 431.299 153.608C431.371 156.128 431.011 159.368 430.075 161.636C428.599 165.2 425.071 166.964 421.615 165.956C418.771 165.128 419.923 161.816 422.119 162.356C424.171 162.86 425.683 162.536 426.691 160.412C427.519 158.648 427.843 156.092 427.843 154.184C427.843 151.988 427.087 150.944 425.431 151.088C424.891 151.124 424.351 151.196 423.775 151.268C422.011 156.848 419.599 161.744 416.791 165.74C415.063 168.188 411.319 166.1 413.659 163.472C416.143 160.7 418.375 156.596 420.031 151.772L419.599 151.844C418.051 152.132 416.647 152.348 415.711 152.348C413.263 152.348 413.299 149.108 415.603 148.892C416.719 148.784 417.835 148.82 419.131 148.712L420.931 148.532C421.363 146.948 421.831 144.824 422.047 142.808C422.299 140.468 425.971 140.684 425.683 143.096C425.539 144.32 425.071 146.48 424.639 148.172ZM465.607 160.844C464.671 160.844 463.771 160.196 463.771 158.864C463.771 154.292 468.487 152.204 469.783 149.828C470.323 148.856 470.575 147.812 470.575 146.876C470.575 143.348 467.911 142.52 466.471 142.52C463.591 142.52 462.403 144.896 462.115 145.868C461.935 146.588 461.107 146.948 460.279 146.948C459.307 146.948 458.299 146.408 458.299 145.22C458.299 143.888 460.495 138.92 466.435 138.92C470.683 138.92 474.355 141.872 474.355 146.804C474.355 147.956 474.103 149.216 473.635 150.404C472.339 153.644 467.623 155.48 467.623 158.756C467.623 160.124 466.579 160.844 465.607 160.844ZM468.199 165.92C468.199 167.648 466.687 168.296 465.715 168.296C464.347 168.296 463.231 167.144 463.231 165.92C463.231 164.336 464.743 163.436 465.715 163.436C467.119 163.436 468.199 164.3 468.199 165.92Z" fill="#E89D4F"/>
<path d="M119.2 117.8H541.6V120.2H119.2V117.8Z" fill="#E89D4F"/>
</svg>
