<svg width="653" height="192" viewBox="0 0 653 192" fill="none" xmlns="http://www.w3.org/2000/svg">
<path d="M137.92 66.304L137.728 65.92C135.36 67.648 132.992 69.12 130.752 70.272C126.784 72.32 120.704 71.296 121.408 62.72C121.92 56.448 127.04 49.472 132.864 45.76C133.696 45.248 134.592 44.736 135.552 44.224C135.744 41.792 136 39.232 136.32 36.608C133.248 36.8 130.496 36.608 128.32 35.968C124.544 34.88 125.824 28.992 130.112 30.336C131.904 30.912 134.336 31.04 137.024 30.848C137.28 28.992 137.6 27.072 137.856 25.152C138.56 20.416 144.768 21.44 144.064 25.28C143.808 26.88 143.488 28.48 143.232 29.952C146.176 29.312 149.12 28.48 151.872 27.456C155.584 26.048 158.4 31.488 153.344 33.152C149.824 34.304 145.984 35.328 142.272 35.968C141.952 38.016 141.696 39.872 141.44 41.664C143.68 40.896 145.984 40.384 148.16 40.256C148.416 40.256 148.672 40.256 148.928 40.256V40.128C149.376 36.352 155.264 37.568 155.008 40.64C173.696 44.032 172.736 67.584 150.912 74.752C145.152 76.672 143.552 70.72 148.8 68.992C164.736 63.808 165.376 48.704 153.792 45.824C151.68 51.84 147.52 57.28 142.72 61.76C142.912 62.208 143.168 62.656 143.424 63.04C145.664 66.752 140.352 70.848 137.92 66.304ZM147.648 45.44H147.456C145.6 45.632 143.168 46.272 140.864 47.168C140.608 50.432 140.672 53.312 140.992 55.872C143.872 52.864 146.24 49.344 147.648 45.44ZM135.936 60.416C135.36 57.408 135.168 53.952 135.232 50.176C130.176 53.888 127.296 58.432 127.04 62.208C126.848 64.768 128.576 65.024 130.24 64.128C132.16 63.04 134.08 61.824 135.936 60.416ZM228.096 43.776C225.088 41.856 221.824 40.896 218.112 41.088C214.592 41.28 214.336 35.968 218.432 35.584C222.656 35.2 227.136 35.968 230.208 37.824C234.56 40.448 231.232 45.76 228.096 43.776ZM199.232 37.376C195.968 38.016 193.216 37.76 190.784 37.056C186.88 35.968 188.096 30.08 192.64 31.552C194.752 32.256 198.08 32.192 201.408 31.36C202.048 29.248 202.368 27.2 202.688 24.896C203.264 21.12 208.896 21.824 208.768 25.472C208.704 26.432 208.32 27.84 207.872 29.376C208.64 28.992 209.344 28.672 209.92 28.288C212.8 26.24 216.832 30.208 212.736 33.152C211.136 34.304 208.512 35.328 205.888 36.096C202.88 43.328 198.528 51.008 194.432 57.664C192.064 61.504 185.92 59.008 188.736 54.848C192.32 49.536 196.096 44.096 199.232 37.376ZM219.392 67.392C217.536 72.512 209.536 76.992 201.792 73.088C195.84 70.08 195.136 63.168 201.728 60.224C205.696 58.432 210.048 58.304 214.016 59.008C214.016 58.304 214.016 57.6 214.016 56.768C214.016 55.168 213.888 53.568 213.824 51.968C213.76 50.688 213.888 48.896 214.144 47.68C214.912 44.16 220.544 44.992 219.904 48.832C219.712 49.792 219.52 50.496 219.52 51.84C219.52 53.312 219.52 54.912 219.584 56.768C219.648 57.984 219.776 59.328 219.84 60.736C223.232 62.144 226.048 64.128 227.648 65.856C231.296 69.888 226.112 74.432 223.04 70.72C222.08 69.568 220.864 68.416 219.392 67.392ZM213.696 64.384C210.432 63.296 206.976 63.168 203.84 64.704C202.112 65.6 201.984 67.456 203.904 68.416C207.744 70.336 212.928 68.48 213.632 65.024C213.696 64.832 213.632 64.576 213.696 64.384ZM291.84 46.144C288.256 44.928 282.432 44.224 279.04 45.504C275.712 46.72 273.728 41.472 277.952 40C281.216 38.848 287.04 38.08 293.312 40.32C297.6 41.856 295.872 47.488 291.84 46.144ZM291.84 72.064C282.56 73.92 274.624 70.976 271.808 67.84C269.056 64.768 273.024 59.712 276.352 63.104C279.616 66.432 283.52 66.112 291.008 65.472C295.68 65.088 296.064 71.232 291.84 72.064ZM267.968 38.528C263.936 52.544 259.392 63.616 256.256 70.72C254.336 75.008 247.552 73.152 250.24 67.712C252.992 62.08 257.536 52.352 261.44 39.936C258.048 40.32 254.784 40.192 252.096 39.04C248.832 37.632 249.472 31.808 254.272 33.536C256.96 34.496 260.096 34.496 263.104 33.92C263.488 31.552 263.232 29.824 263.04 27.008C262.784 23.36 268.8 23.168 269.44 26.688C269.696 28.288 269.696 30.016 269.504 31.808C270.4 31.36 271.168 30.912 271.936 30.464C275.264 28.288 279.232 33.6 274.432 35.968C272.64 36.864 270.336 37.824 267.968 38.528ZM339.072 36.096C339.776 36.736 340.16 37.76 339.968 39.04C338.944 47.168 333.184 59.264 327.04 64.96C322.112 69.504 316.736 67.008 313.92 61.504C309.888 53.568 314.176 41.664 322.752 35.712C330.624 30.272 342.336 29.376 350.4 34.24C360.32 40.192 361.92 51.968 356.352 61.12C353.344 66.048 347.072 70.016 340.736 71.68C335.104 73.152 333.12 66.688 338.624 65.408C343.488 64.32 348.416 61.568 350.528 58.24C355.072 51.072 353.344 42.688 347.008 38.656C344.512 37.056 341.824 36.288 339.072 36.096ZM334.016 36.416C331.072 37.056 328.192 38.4 325.76 40.256C319.808 44.864 316.608 53.376 319.296 58.304C320.256 60.16 321.92 61.12 323.52 59.712C328.32 55.488 332.8 45.312 333.44 38.4C333.504 37.632 333.696 36.928 334.016 36.416ZM528.96 28.48L528.832 28.736C529.856 28.352 530.816 27.968 531.52 27.584C535.04 25.472 538.496 30.784 533.76 33.152C532.16 33.92 529.408 34.688 526.72 35.264C525.888 37.312 524.8 39.616 523.648 41.728C528.064 40.96 532.288 42.56 534.4 47.296C537.024 45.952 539.712 44.608 542.208 43.52C543.744 42.88 545.472 42.112 547.2 41.152C552 38.464 554.88 44.864 550.784 46.912C548.736 47.936 547.264 48.256 543.872 49.536C541.184 50.56 538.304 51.84 535.744 53.056C535.936 55.168 536 57.792 535.872 60.096C535.744 62.656 534.08 64 532.48 64.064C530.88 64.128 529.408 62.912 529.6 60.416C529.664 59.072 529.728 57.6 529.728 56.256C529.152 56.576 528.576 56.896 528.064 57.216C520.128 62.336 521.088 66.176 524.672 67.968C528.064 69.696 534.336 68.416 537.344 67.456C542.976 65.728 544.768 72.64 538.88 74.176C535.104 75.136 526.4 76.096 521.408 73.28C512.768 68.416 514.304 59.776 525.888 52.16C526.784 51.584 527.808 50.88 529.024 50.176C527.296 44.8 522.368 45.44 518.208 50.24C518.144 50.304 518.016 50.432 517.952 50.496C517.376 51.2 516.928 51.776 516.48 52.16C512.96 55.296 508.288 51.648 512.128 48.192C513.792 46.656 515.968 44.352 517.312 42.176C518.4 40.384 519.424 38.464 520.32 36.48C516.864 36.992 514.432 36.8 512.384 35.776C507.776 33.472 510.912 27.456 515.392 30.464C516.608 31.296 519.168 30.976 521.408 30.592C521.664 30.528 522.048 30.528 522.368 30.464C522.816 28.608 522.944 27.328 523.072 25.088C523.328 21.248 529.344 21.632 529.472 24.768C529.536 26.048 529.28 27.264 528.96 28.48ZM389.378 162.112C376.898 172.288 356.418 174.144 355.842 156.864C355.586 150.144 356.29 144.704 356.61 137.92C356.802 133.76 357.25 127.488 357.122 123.52C356.994 118.784 364.226 119.168 364.098 123.392C363.97 127.424 363.522 133.504 363.202 137.792C362.754 144.576 361.794 150.4 362.05 156.608C362.434 165.952 373.826 165.312 384.962 156.544C389.122 153.28 393.026 159.168 389.378 162.112ZM433.09 133.888L432.45 133.952C429.122 134.464 425.922 134.784 422.402 134.72C417.474 134.592 417.218 127.936 423.042 128.64C425.666 128.96 428.61 128.832 432.962 128.192C432.898 124.8 432.898 121.792 432.962 119.744C433.09 114.816 439.746 115.968 439.49 119.68C439.298 121.984 439.17 124.544 439.106 127.104C440.45 126.848 441.922 126.464 443.458 126.144C447.682 125.184 449.41 131.136 443.842 132.032C442.114 132.288 440.514 132.608 439.042 132.864C439.042 135.232 439.042 137.6 439.106 139.968C440.642 139.52 442.242 139.072 443.97 138.496C448.706 136.96 451.138 142.848 445.442 144.448C443.202 145.088 441.154 145.664 439.298 146.112C439.426 148.288 439.554 150.272 439.746 152.128C439.938 153.856 440.13 156.16 440.258 158.464C443.458 159.68 446.21 161.408 448.194 163.008C452.482 166.528 448.322 172.352 444.29 168.64C442.946 167.424 441.346 166.208 439.618 165.184C437.378 170.624 429.57 174.912 421.698 171.008C415.618 168 415.234 160.832 422.21 157.888C426.114 156.224 430.402 156.096 434.434 156.8C434.37 155.456 434.242 154.112 434.114 152.64C433.986 151.104 433.858 149.312 433.73 147.328C428.674 148.288 425.282 148.48 422.082 148.032C417.538 147.392 418.306 140.8 423.426 141.888C425.282 142.272 428.482 142.272 433.41 141.312C433.282 138.88 433.154 136.384 433.09 133.888ZM433.858 162.56C430.402 161.472 427.01 161.28 424.194 162.496C422.53 163.2 422.21 165.248 424.002 166.144C427.906 168.064 432.898 166.144 433.858 162.56ZM497.919 156.928C493.695 159.104 488.127 157.888 486.079 152.128C483.839 145.92 487.295 141.312 491.199 140.096C493.055 139.52 494.975 139.264 496.703 139.52C496.639 138.112 496.575 136.192 496.511 134.336C491.135 134.848 485.823 135.616 482.495 136.128C477.887 136.832 474.879 137.664 472.959 137.984C468.671 138.752 467.391 132.352 472.447 131.52C475.007 131.072 479.167 130.624 481.855 130.176C485.055 129.664 490.815 128.96 496.447 128.448C496.447 128.064 496.447 127.616 496.447 127.296C496.511 123.328 496.127 123.072 496.127 121.024C496.127 116.352 502.591 116.8 502.847 120.832C502.911 122.304 502.719 125.248 502.591 126.976C502.591 127.296 502.527 127.616 502.527 127.936C504.383 127.808 506.047 127.744 507.455 127.744C510.591 127.744 512.831 127.68 517.183 127.744C522.559 127.872 522.303 134.656 517.183 134.272C512.639 133.888 511.103 133.888 507.135 133.824C505.663 133.824 504.127 133.888 502.463 133.952C502.527 136 502.591 137.984 502.591 139.84C502.591 140.736 502.719 142.08 502.783 143.488C508.479 152.448 501.695 166.016 494.911 171.456C490.623 174.848 485.055 170.304 490.623 166.336C493.695 164.16 496.383 160.576 497.919 156.928ZM497.855 146.496C497.535 146.112 497.215 145.728 496.831 145.408C495.935 144.64 494.079 144.512 492.735 145.152C491.199 145.856 490.175 147.84 490.879 150.016C492.031 153.472 497.599 153.472 498.239 148.928C498.431 147.584 498.239 147.008 497.855 146.496ZM555.967 154.112V154.048C555.967 153.664 555.967 153.216 555.967 152.704C555.967 146.496 555.327 131.584 554.943 121.536C554.943 121.472 554.943 121.408 554.943 121.344C554.943 118.976 556.799 117.824 558.655 117.824C560.575 117.824 562.495 119.04 562.495 121.536C562.495 129.088 561.471 146.688 561.471 152.896C561.471 154.432 561.471 157.12 558.655 157.12C557.311 157.12 555.967 156.096 555.967 154.112ZM563.135 166.08C563.135 169.152 560.447 170.304 558.719 170.304C556.287 170.304 554.303 168.256 554.303 166.08C554.303 163.264 556.991 161.664 558.719 161.664C561.215 161.664 563.135 163.2 563.135 166.08Z" fill="black"/>
<path d="M423.552 49.152H423.488L405.12 48.96C410.816 56.064 418.688 61.76 426.176 65.6C427.456 66.24 428.032 67.264 428.032 68.288C428.032 70.08 426.368 71.872 424.32 71.872C421.376 71.872 410.496 63.36 402.88 53.888C402.944 60.608 403.072 67.712 403.072 73.792C403.072 75.456 401.472 76.288 399.808 76.288C398.272 76.288 396.672 75.52 396.672 73.856V73.792L396.928 54.464C390.144 63.04 378.624 72.448 375.36 72.448C373.44 72.448 372.032 70.976 372.032 69.312C372.032 68.288 372.608 67.264 374.016 66.496C381.568 62.528 388.864 56.512 394.432 48.96L376.896 49.152H376.832C374.976 49.152 374.144 47.808 374.144 46.4C374.144 44.864 375.104 43.264 376.896 43.264L396.992 43.392L396.928 36.224H381.888C380.032 36.224 379.2 34.88 379.2 33.472C379.2 32 380.16 30.464 381.888 30.464H396.864L396.736 22.208V22.144C396.736 20.352 398.272 19.52 399.808 19.52C401.472 19.52 403.072 20.416 403.072 22.208C403.072 25.152 403.072 27.84 403.008 30.464H418.176C419.904 30.464 420.736 31.936 420.736 33.344C420.736 34.816 419.904 36.224 418.176 36.224H402.88C402.816 38.464 402.816 40.832 402.816 43.392L423.488 43.264C425.216 43.264 426.112 44.8 426.112 46.272C426.112 47.744 425.28 49.152 423.552 49.152ZM488.448 51.968H488.384L469.696 51.712C476.032 58.944 483.712 63.936 491.328 67.648C492.672 68.288 493.184 69.312 493.184 70.336C493.184 72.064 491.52 73.792 489.472 73.792C486.272 73.792 474.176 64.64 466.88 56.064C466.944 62.144 467.072 68.224 467.072 74.368C467.072 76.096 465.472 76.928 463.872 76.928C462.336 76.928 460.8 76.096 460.8 74.432V74.368L460.992 56.512C455.488 63.232 448.64 68.992 440.32 73.792C439.552 74.24 438.848 74.432 438.208 74.432C436.352 74.432 434.944 72.96 434.944 71.36C434.944 70.4 435.52 69.312 436.928 68.608C445.12 64.448 452.032 59.072 457.984 51.712L440 51.968H439.936C438.144 51.968 437.248 50.688 437.248 49.344C437.248 47.936 438.208 46.528 440 46.528L461.056 46.592L460.992 34.368H442.88C441.024 34.368 440.128 33.024 440.128 31.68C440.128 30.272 441.088 28.864 442.88 28.864H460.928L460.864 21.632C460.864 19.776 462.4 18.88 463.872 18.88C465.472 18.88 467.008 19.84 467.008 21.632C467.008 24.064 466.944 26.432 466.944 28.864H483.904C485.632 28.864 486.528 30.272 486.528 31.616C486.528 33.024 485.632 34.368 483.904 34.368H466.88C466.816 38.464 466.816 42.496 466.816 46.592H469.184C471.168 44.224 473.344 40.256 474.688 36.672C475.072 35.584 475.968 35.072 476.928 35.072C478.592 35.072 480.512 36.544 480.512 38.208C480.512 39.104 478.144 43.456 475.392 46.592L488.384 46.528C490.112 46.528 491.008 47.936 491.008 49.28C491.008 50.624 490.176 51.968 488.448 51.968ZM453.568 45.952C452.8 45.952 451.968 45.568 451.392 44.608C449.984 42.368 448.192 40.448 447.296 39.68C446.592 39.104 446.336 38.528 446.336 37.888C446.336 36.672 447.68 35.52 449.216 35.52C451.968 35.52 456.704 40.384 456.704 42.688C456.704 44.48 455.104 45.952 453.568 45.952Z" fill="#E89A08"/>
<path d="M139.842 138.304C138.754 139.456 136.834 139.776 135.234 138.368C133.57 136.896 130.05 135.36 126.786 135.744C122.882 136.192 121.858 130.496 126.466 130.112C131.074 129.728 137.474 131.328 139.778 133.76C141.314 135.36 140.93 137.152 139.842 138.304ZM109.186 151.168C109.314 154.56 109.57 157.888 109.698 160.64C110.21 169.792 102.018 169.664 96.7697 167.104C89.1537 163.392 91.2657 158.848 94.6577 155.136C96.6417 153.024 99.9057 150.528 103.682 148.352C103.618 145.664 103.554 142.912 103.554 140.352C100.93 140.864 98.3057 140.928 95.8737 140.608C91.1377 140.032 91.9057 133.632 97.2177 134.72C98.8177 135.04 101.186 134.784 103.682 134.144C103.682 131.136 103.554 129.088 103.426 126.656C103.17 121.92 110.21 122.048 109.89 126.592C109.762 128 109.698 130.048 109.57 131.968C110.53 131.52 111.362 131.008 112.13 130.496C115.586 128.192 119.49 133.248 115.01 135.936C113.09 137.088 111.042 138.048 108.994 138.816C108.93 140.8 108.93 143.168 108.994 145.6C110.786 144.768 112.642 144.128 114.37 143.616C119.874 142.016 125.314 142.528 128.578 143.68C139.138 147.328 137.41 155.968 134.146 160.704C129.986 166.72 121.026 168.768 113.602 164.544C109.954 162.432 112.45 157.184 116.354 159.104C121.346 161.536 125.442 161.6 128.514 157.504C130.05 155.456 131.842 150.912 126.274 148.864C123.778 147.904 120.386 147.712 115.906 148.736C113.602 149.248 111.362 150.144 109.186 151.168ZM103.746 154.368C101.89 155.712 100.29 157.12 98.9457 158.592C97.6017 160.064 97.6017 161.728 99.0737 162.432C101.826 163.776 103.682 163.584 103.746 161.088C103.81 159.36 103.81 156.992 103.746 154.368ZM202.05 153.28L184.386 153.152C184.322 155.456 184.066 157.824 183.746 160.256C182.786 166.784 177.922 172.032 170.178 172.032C166.018 172.032 162.05 171.072 162.05 167.808C162.05 166.208 163.138 164.672 164.93 164.672C165.25 164.672 165.634 164.736 166.018 164.864C167.49 165.312 168.898 165.568 170.242 165.568C177.154 165.568 177.538 159.232 177.922 153.152L152.706 153.28C150.53 153.28 149.57 151.872 149.57 150.464C149.57 148.864 150.722 147.264 152.706 147.264L177.922 147.392C177.794 144.96 177.538 142.528 177.154 140.224L156.866 140.352C154.69 140.352 153.73 138.944 153.73 137.536C153.73 135.936 154.882 134.336 156.866 134.336L175.682 134.464C174.594 131.264 173.122 128.704 171.33 127.168C166.338 127.552 161.666 127.744 158.338 127.744C156.226 127.744 155.138 126.208 155.138 124.736C155.138 123.264 156.162 121.856 158.21 121.856H158.274C159.17 121.856 160.13 121.92 161.09 121.92C170.946 121.92 182.018 120.704 191.042 118.464C191.362 118.4 191.682 118.336 192.002 118.336C193.922 118.336 194.946 120 194.946 121.6C194.946 122.816 194.306 123.968 193.026 124.288C189.442 125.12 184.13 125.952 178.562 126.528C179.97 128.448 181.314 131.136 182.274 134.464L197.89 134.336C199.874 134.336 200.898 135.872 200.898 137.408C200.898 138.88 199.938 140.352 197.89 140.352L183.618 140.224C184.002 142.464 184.194 144.896 184.322 147.392L202.05 147.264C204.034 147.264 205.058 148.8 205.058 150.336C205.058 151.808 204.098 153.28 202.05 153.28ZM261.058 128.32H237.058C235.01 128.32 234.05 126.976 234.05 125.568C234.05 124.096 235.074 122.56 237.058 122.56H261.058C263.106 122.56 264.13 124.032 264.13 125.44C264.13 126.912 263.106 128.32 261.058 128.32ZM265.73 143.744H249.282C247.874 149.44 245.634 156.48 243.01 162.24C248.322 161.6 253.634 160.768 258.434 159.872C257.09 157.824 255.682 155.904 254.082 154.048C253.506 153.408 253.314 152.704 253.314 152.128C253.314 150.656 254.658 149.504 256.194 149.504C257.026 149.504 257.986 149.888 258.754 150.72C266.562 159.488 268.674 164.608 268.674 166.272C268.674 168.384 266.818 169.856 265.09 169.856C263.874 169.856 262.722 169.152 262.21 167.552C261.89 166.592 261.506 165.632 261.122 164.736C247.554 167.936 233.73 169.472 231.874 169.472C230.018 169.472 229.058 167.808 229.058 166.144C229.058 164.672 229.826 163.264 231.554 163.2C233.218 163.136 234.946 163.008 236.738 162.88C239.298 156.928 241.538 149.76 242.754 143.744H232.258C230.21 143.744 229.25 142.4 229.25 141.056C229.25 139.584 230.274 138.112 232.258 138.112H265.73C267.778 138.112 268.802 139.52 268.802 140.928C268.802 142.336 267.778 143.744 265.73 143.744ZM219.906 169.728L220.802 139.968C217.026 144.704 215.49 145.536 214.146 145.536C212.482 145.536 211.138 144.192 211.138 142.656C211.138 141.888 211.458 141.12 212.226 140.416C218.306 134.72 222.914 127.616 226.306 118.912C226.882 117.504 227.97 116.864 229.122 116.864C230.85 116.864 232.642 118.208 232.642 120.064C232.642 121.6 228.994 127.872 227.01 131.136L226.306 169.728C226.242 171.648 224.642 172.608 223.042 172.608C221.442 172.608 219.906 171.712 219.906 169.856C219.906 169.792 219.906 169.792 219.906 169.728ZM331.074 148.352C331.586 153.024 325.25 154.304 324.354 149.888C323.33 144.768 320.706 139.84 317.25 137.472C314.178 135.36 317.634 130.624 321.474 133.504C326.018 136.896 330.434 142.912 331.074 148.352ZM303.106 158.912C299.01 165.568 293.314 164.992 289.73 161.152C285.122 156.16 283.01 148.736 282.498 140.672C282.242 137.024 282.114 135.872 282.178 133.568C282.306 129.536 288.514 128.704 288.706 133.504C288.834 136 288.578 136.128 288.706 139.072C288.962 145.792 290.178 152.128 293.762 155.584C295.426 157.184 296.258 157.376 297.666 155.456C298.434 154.368 299.33 152.704 299.778 151.68C301.506 147.968 306.818 150.656 305.602 153.984C304.962 155.776 303.81 157.76 303.106 158.912Z" fill="#E89A08"/>
<path d="M633.175 113.894C636.293 113.891 639.283 112.52 641.488 110.083C643.694 107.646 644.934 104.341 644.937 100.895C644.934 97.4478 643.694 94.143 641.488 91.7058C639.283 89.2686 636.293 87.8981 633.175 87.895C630.056 87.8976 627.066 89.268 624.861 91.7053C622.655 94.1426 621.415 97.4477 621.413 100.895C621.415 104.341 622.655 107.646 624.861 110.084C627.066 112.521 630.056 113.891 633.175 113.894ZM633.175 91.9802C635.314 91.9827 637.365 92.9229 638.878 94.5948C640.391 96.2666 641.243 98.5337 641.245 100.898C641.243 103.263 640.391 105.529 638.878 107.201C637.365 108.873 635.314 109.814 633.175 109.816C631.036 109.813 628.985 108.873 627.472 107.201C625.96 105.529 625.109 103.263 625.106 100.898C625.109 98.534 625.96 96.2675 627.472 94.5957C628.985 92.9239 631.036 91.9832 633.175 91.9802Z" fill="#D2B9DE"/>
<path d="M641.239 42.5704C644.358 42.5673 647.348 41.1968 649.553 38.7596C651.758 36.3224 652.998 33.0176 653.001 29.5708C653.001 26.1232 651.762 22.8167 649.556 20.3788C647.35 17.9409 644.359 16.5713 641.239 16.5713C638.12 16.5713 635.128 17.9409 632.922 20.3788C630.717 22.8167 629.478 26.1232 629.478 29.5708C629.48 33.0177 630.72 36.3227 632.925 38.7601C635.13 41.1974 638.121 42.5678 641.239 42.5704Z" fill="#FFB01C"/>
<path d="M586.246 45.3081C586.735 45.3081 587.204 45.0934 587.549 44.7112C587.895 44.329 588.089 43.8109 588.089 43.2704V34.2856C588.089 33.745 587.895 33.2264 587.549 32.8439C587.204 32.4615 586.735 32.2461 586.246 32.2456C585.756 32.2461 585.287 32.4615 584.942 32.8439C584.596 33.2264 584.402 33.745 584.402 34.2856V43.2704C584.402 43.8109 584.596 44.329 584.942 44.7112C585.288 45.0934 585.757 45.3081 586.246 45.3081Z" fill="#FFB01C"/>
<path d="M586.246 61.0411C586.735 61.0411 587.204 60.8263 587.549 60.4441C587.895 60.0619 588.089 59.5438 588.089 59.0034V50.0185C588.089 49.4779 587.895 48.9593 587.549 48.5768C587.204 48.1944 586.735 47.979 586.246 47.9785C585.756 47.979 585.287 48.1944 584.942 48.5768C584.596 48.9593 584.402 49.4779 584.402 50.0185V59.0034C584.402 59.5438 584.596 60.0619 584.942 60.4441C585.288 60.8263 585.757 61.0411 586.246 61.0411Z" fill="#FFB01C"/>
<path d="M574.845 48.6876H582.151C582.64 48.6871 583.109 48.4717 583.455 48.0893C583.8 47.7068 583.995 47.1887 583.995 46.648C583.995 46.1076 583.8 45.589 583.455 45.2068C583.109 44.8246 582.64 44.6099 582.151 44.6099H574.845C574.356 44.6099 573.887 44.8246 573.541 45.2068C573.195 45.589 573.001 46.1076 573.001 46.648C573.001 47.1887 573.195 47.7068 573.541 48.0893C573.887 48.4717 574.356 48.6871 574.845 48.6876Z" fill="#FFB01C"/>
<path d="M590.393 48.6876H597.699C598.188 48.6876 598.658 48.4727 599.004 48.0902C599.35 47.7077 599.544 47.189 599.544 46.648C599.544 46.1074 599.349 45.5889 599.003 45.2068C598.657 44.8247 598.188 44.6099 597.699 44.6099H590.393C589.904 44.6099 589.435 44.8246 589.089 45.2068C588.743 45.589 588.549 46.1076 588.549 46.648C588.549 47.1887 588.743 47.7068 589.089 48.0893C589.435 48.4717 589.904 48.6871 590.393 48.6876Z" fill="#FFB01C"/>
<path d="M60.1743 168.603C63.2929 168.6 66.2828 167.229 68.488 164.792C70.6932 162.355 71.9333 159.05 71.936 155.604C71.9333 152.157 70.6932 148.852 68.488 146.415C66.2828 143.978 63.2929 142.607 60.1743 142.604C57.0556 142.607 54.0653 143.977 51.86 146.414C49.6548 148.852 48.4148 152.157 48.4125 155.604C48.4148 159.05 49.6548 162.355 51.86 164.793C54.0653 167.23 57.0556 168.6 60.1743 168.603ZM60.1743 146.689C62.3138 146.692 64.365 147.632 65.878 149.304C67.391 150.976 68.2421 153.243 68.2449 155.607C68.2421 157.972 67.391 160.238 65.878 161.91C64.365 163.582 62.3138 164.523 60.1743 164.525C58.0352 164.522 55.9844 163.582 54.4717 161.91C52.9591 160.238 52.1081 157.972 52.1054 155.607C52.1081 153.243 52.9591 150.976 54.4717 149.305C55.9844 147.633 58.0352 146.692 60.1743 146.689Z" fill="#D2B9DE"/>
<path d="M68.239 97.2793C71.3576 97.2763 74.3476 95.9058 76.5528 93.4686C78.758 91.0314 79.998 87.7265 80.0007 84.2798C80.0007 80.8321 78.7616 77.5256 76.5559 75.0878C74.3501 72.6499 71.3584 71.2803 68.239 71.2803C65.1196 71.2803 62.1279 72.6499 59.9222 75.0878C57.7164 77.5256 56.4773 80.8321 56.4773 84.2798C56.4796 87.7267 57.7195 91.0317 59.9247 93.469C62.13 95.9064 65.1203 97.2768 68.239 97.2793Z" fill="#FFB01C"/>
<path d="M13.2453 100.017C13.7343 100.017 14.2033 99.8024 14.5491 99.4202C14.8949 99.038 15.0891 98.5199 15.0891 97.9794V88.9946C15.0891 88.454 14.895 87.9354 14.5492 87.5529C14.2035 87.1704 13.7345 86.9551 13.2453 86.9546C12.7562 86.9551 12.2872 87.1704 11.9414 87.5529C11.5957 87.9354 11.4015 88.454 11.4015 88.9946V97.9794C11.4015 98.5199 11.5957 99.038 11.9415 99.4202C12.2873 99.8024 12.7563 100.017 13.2453 100.017Z" fill="#FFB01C"/>
<path d="M13.2453 115.75C13.7343 115.75 14.2033 115.535 14.5491 115.153C14.8949 114.771 15.0891 114.253 15.0891 113.712V104.728C15.0891 104.187 14.895 103.668 14.5492 103.286C14.2035 102.903 13.7345 102.688 13.2453 102.688C12.7562 102.688 12.2872 102.903 11.9414 103.286C11.5957 103.668 11.4015 104.187 11.4015 104.728V113.712C11.4015 114.253 11.5957 114.771 11.9415 115.153C12.2873 115.535 12.7563 115.75 13.2453 115.75Z" fill="#FFB01C"/>
<path d="M1.84449 103.397H9.1506C9.63977 103.396 10.1088 103.181 10.4545 102.798C10.8002 102.416 10.9944 101.898 10.9944 101.357C10.9944 100.817 10.8002 100.298 10.4544 99.9158C10.1086 99.5336 9.63961 99.3188 9.1506 99.3188H1.84449C1.35548 99.3188 0.886483 99.5336 0.540699 99.9158C0.194915 100.298 0.000600815 100.817 0.000600815 101.357C0.000600815 101.898 0.19486 102.416 0.540593 102.798C0.886328 103.181 1.35532 103.396 1.84449 103.397Z" fill="#FFB01C"/>
<path d="M17.3925 103.397H24.6986C25.1881 103.397 25.6576 103.182 26.0037 102.799C26.3498 102.417 26.5442 101.898 26.5442 101.357C26.5437 100.816 26.3491 100.298 26.003 99.9158C25.657 99.5337 25.1878 99.3188 24.6986 99.3188H17.3925C16.9035 99.3188 16.4346 99.5336 16.0888 99.9158C15.743 100.298 15.5487 100.817 15.5487 101.357C15.5487 101.898 15.743 102.416 16.0887 102.798C16.4344 103.181 16.9033 103.396 17.3925 103.397Z" fill="#FFB01C"/>
</svg>
