<svg width="639" height="304" viewBox="0 0 639 304" fill="none" xmlns="http://www.w3.org/2000/svg">
<path d="M180.031 17.78H178.735C178.267 19.868 177.367 22.064 175.855 23.936C177.151 24.836 178.735 25.484 180.643 25.844C181.435 25.988 181.795 26.528 181.795 27.104C181.795 27.932 181.075 28.868 179.959 28.868C179.203 28.868 176.539 28.22 173.803 25.952C171.427 27.824 168.691 28.544 168.043 28.544C167.035 28.544 166.459 27.752 166.459 27.032C166.459 26.492 166.747 25.988 167.431 25.808C169.231 25.304 170.635 24.656 171.751 23.864C170.815 22.712 170.095 21.452 169.627 20.192C168.655 21.452 168.331 21.632 167.683 21.632C166.927 21.632 166.207 21.02 166.207 20.3C166.207 19.976 166.315 19.652 166.639 19.328C168.367 17.564 169.699 14.684 170.167 12.596C170.347 11.876 170.887 11.588 171.463 11.588C172.219 11.588 173.011 12.128 173.011 13.064C173.011 13.388 172.939 13.676 172.435 15.044L180.031 14.972C180.967 14.972 181.435 15.656 181.435 16.376C181.435 17.06 180.967 17.78 180.031 17.78ZM157.783 27.824L157.819 22.388C157.099 24.368 156.343 25.88 155.299 25.88C154.903 25.88 154.507 25.7 154.327 25.412C154.327 26.42 154.327 27.428 154.363 28.256V28.292C154.363 29.156 153.679 29.588 152.995 29.588C152.275 29.588 151.591 29.156 151.555 28.256C151.555 27.464 151.555 26.636 151.555 25.772C151.555 23.72 151.555 21.56 151.591 19.832C151.627 18.248 152.635 17.312 154.291 17.24C154.219 17.168 154.075 17.096 154.003 16.988C153.247 16.052 152.455 15.62 152.095 15.332C151.843 15.116 151.735 14.864 151.735 14.612C151.735 13.928 152.563 13.172 153.355 13.172C154.147 13.172 156.451 14.792 156.451 15.8C156.451 16.34 156.091 16.88 155.623 17.204H157.495L157.423 12.812C157.423 11.984 158.143 11.552 158.899 11.552C159.619 11.552 160.375 11.984 160.375 12.812L160.339 17.204H161.059C160.987 17.06 160.915 16.88 160.915 16.7C160.915 16.448 161.023 16.124 161.275 15.8C161.959 14.9 162.355 14.144 162.895 13.208C163.111 12.848 163.471 12.704 163.867 12.704C164.731 12.704 165.739 13.388 165.739 14.216C165.739 14.396 165.667 14.612 165.523 14.828C164.839 15.728 163.867 16.7 163.399 17.24C164.947 17.348 165.955 18.392 166.027 19.868C166.063 20.588 166.063 21.308 166.063 21.956C166.063 25.34 166.099 25.772 166.099 25.88C166.099 25.916 166.099 25.988 166.099 26.024C166.099 27.608 165.127 29.048 162.859 29.048C161.311 29.048 160.519 28.616 160.519 27.608C160.519 26.96 160.951 26.276 161.671 26.276C161.743 26.276 161.815 26.276 161.923 26.312C162.319 26.384 162.607 26.456 162.859 26.456C163.291 26.456 163.471 26.24 163.471 25.628C163.471 25.628 163.471 24.764 163.471 23.684C163.471 19.94 163.471 19.4 162.571 19.4C161.779 19.364 160.915 19.364 160.015 19.364V21.38C160.159 21.056 160.519 20.84 160.951 20.84C162.103 20.84 163.327 23.288 163.327 23.792C163.327 24.404 162.751 24.872 162.211 24.872C161.851 24.872 161.527 24.692 161.347 24.224C161.059 23.432 160.555 22.712 160.159 22.172C160.087 22.1 160.051 22.028 160.015 21.956L160.051 27.824C160.051 28.508 159.475 28.868 158.935 28.868C158.359 28.868 157.783 28.508 157.783 27.824ZM179.995 35.384H172.183V41.864C172.183 42.98 171.319 43.556 170.455 43.556C169.591 43.556 168.727 42.98 168.727 41.864V35.348H163.075C161.239 43.124 153.211 43.88 153.211 43.88C152.059 43.88 151.447 42.98 151.447 42.08C151.447 41.396 151.807 40.748 152.599 40.568C156.739 39.668 158.719 37.796 159.547 35.384H152.455C151.267 35.384 150.763 34.664 150.763 33.944C150.763 33.116 151.375 32.288 152.455 32.288H160.087C160.087 32.144 160.087 32 160.087 31.856C160.087 31.496 160.087 31.172 160.051 30.812C160.051 30.776 160.051 30.776 160.051 30.74C160.051 29.696 160.879 29.156 161.707 29.156C163.471 29.156 163.471 30.668 163.471 31.856C163.471 32 163.471 32.18 163.471 32.324H168.727V30.416C168.727 29.3 169.591 28.76 170.419 28.76C171.319 28.76 172.183 29.336 172.183 30.416V32.288H179.995C181.075 32.288 181.615 33.08 181.615 33.872C181.615 34.628 181.111 35.384 179.995 35.384ZM175.711 17.78H171.535C172.003 19.328 172.687 20.768 173.731 21.992C174.739 20.732 175.315 19.328 175.711 17.78ZM157.819 21.308V19.364C156.883 19.364 156.019 19.364 155.227 19.4C154.759 19.436 154.363 19.796 154.363 20.336C154.327 21.488 154.327 23 154.327 24.476C154.363 24.404 154.399 24.404 154.435 24.332C155.083 23.504 155.587 22.388 155.983 21.344C156.127 20.948 156.487 20.768 156.811 20.768C157.207 20.768 157.603 20.984 157.819 21.308ZM216.463 41.792H198.787C197.671 41.792 197.131 40.964 197.131 40.172C197.131 39.344 197.671 38.552 198.787 38.552L205.915 38.588L205.879 26.024L201.199 26.06C200.083 26.06 199.543 25.232 199.543 24.44C199.543 23.612 200.083 22.82 201.163 22.82H201.199L205.879 22.856V13.856C205.879 12.74 206.779 12.2 207.715 12.2C208.615 12.2 209.515 12.74 209.515 13.856L209.479 22.892L214.699 22.82H214.735C215.851 22.82 216.427 23.612 216.427 24.44C216.427 25.232 215.851 26.06 214.699 26.06L209.479 26.024V38.588L216.463 38.552C217.615 38.552 218.191 39.38 218.191 40.172C218.191 41 217.615 41.792 216.463 41.792ZM200.443 32.396C200.047 32.396 199.651 32.216 199.327 31.748C198.571 30.668 197.455 29.768 196.555 29.264C196.159 29.048 195.979 28.688 195.979 28.364C195.979 27.572 196.771 26.744 197.671 26.744C198.355 26.744 202.207 28.724 202.207 30.488C202.207 31.496 201.343 32.396 200.443 32.396ZM195.511 41.864V41.9C195.511 42.908 194.647 43.376 193.783 43.376C192.883 43.376 191.983 42.872 191.983 41.9V41.864L192.163 30.344C190.903 31.424 188.779 32.936 187.735 32.936C186.691 32.936 185.899 32.144 185.899 31.28C185.899 30.74 186.223 30.2 186.943 29.804C193.423 26.312 195.979 20.516 195.979 20.3C195.979 19.94 195.439 19.904 195.187 19.904C194.971 19.904 194.755 19.904 194.539 19.904C192.487 19.904 190.939 20.048 188.707 20.084H188.671C187.591 20.084 187.015 19.292 187.015 18.536C187.015 17.78 187.555 16.988 188.635 16.988C189.751 16.952 190.867 16.952 191.983 16.916L191.947 13.316C191.947 12.236 192.847 11.696 193.711 11.696C194.611 11.696 195.511 12.236 195.511 13.316V16.88H196.699C198.787 16.916 199.795 17.924 199.795 19.292C199.795 21.164 197.059 25.016 195.331 27.068C195.367 32.648 195.511 41.864 195.511 41.864ZM246.559 35.852C246.559 37.724 242.275 41.648 235.651 41.648C226.687 41.648 221.863 34.988 221.863 27.968C221.863 20.66 227.011 13.712 235.795 13.712C241.519 13.712 245.407 17.024 245.407 18.968C245.407 20.192 244.363 21.2 243.211 21.2C242.563 21.2 241.915 20.912 241.375 20.228C239.971 18.5 237.703 17.672 235.435 17.672C229.351 17.672 226.111 22.856 226.111 27.716C226.111 30.74 227.875 37.508 235.471 37.508C238.207 37.508 240.907 36.464 242.383 34.484C242.887 33.8 243.499 33.548 244.147 33.548C245.371 33.548 246.559 34.628 246.559 35.852ZM263.499 41.684C255.579 41.684 249.639 36.104 249.639 27.716C249.639 19.616 255.579 13.748 263.499 13.748C271.419 13.748 277.395 19.616 277.395 27.716C277.395 36.104 271.419 41.684 263.499 41.684ZM263.499 37.904C268.827 37.904 273.147 33.908 273.147 27.716C273.147 21.488 268.827 17.456 263.499 17.456C258.171 17.456 253.851 21.488 253.851 27.716C253.851 33.908 258.171 37.904 263.499 37.904ZM295.174 41.684C287.254 41.684 281.314 36.104 281.314 27.716C281.314 19.616 287.254 13.748 295.174 13.748C303.094 13.748 309.07 19.616 309.07 27.716C309.07 36.104 303.094 41.684 295.174 41.684ZM295.174 37.904C300.502 37.904 304.822 33.908 304.822 27.716C304.822 21.488 300.502 17.456 295.174 17.456C289.846 17.456 285.526 21.488 285.526 27.716C285.526 33.908 289.846 37.904 295.174 37.904ZM326.994 38.66L326.958 14.36C326.958 13.316 327.894 12.776 328.794 12.776C329.766 12.776 330.702 13.316 330.702 14.36L330.666 38.66C332.898 38.66 335.022 38.624 336.642 38.552C338.082 38.48 338.838 37.76 338.946 36.356C338.982 35.708 339.018 33.944 339.018 31.892C339.018 28.22 338.946 23.54 338.91 22.496C338.91 22.46 338.91 22.46 338.91 22.424C338.91 21.38 339.774 20.84 340.674 20.84C341.61 20.84 342.546 21.38 342.582 22.496C342.618 23.396 342.654 26.528 342.654 29.696C342.654 32.864 342.618 36.032 342.582 37.04C342.474 40.136 340.35 41.72 337.686 41.792C335.202 41.9 331.854 41.936 328.614 41.936C325.338 41.936 322.17 41.9 319.938 41.792C316.986 41.684 315.438 40.136 315.366 37.112C315.366 36.14 315.33 32.936 315.33 29.732C315.33 26.564 315.366 23.36 315.366 22.388C315.402 21.236 316.266 20.696 317.166 20.696C318.066 20.696 319.002 21.272 319.002 22.316C319.002 22.352 319.002 22.352 319.002 22.388C318.966 23.432 318.93 27.464 318.93 30.956C318.93 33.44 318.966 35.636 318.966 36.248C319.002 37.688 319.434 38.48 321.126 38.552C322.746 38.624 324.834 38.66 326.994 38.66ZM366.954 12.848V15.224C369.834 15.224 372.714 15.26 375.45 15.296C377.43 15.332 379.446 16.916 379.518 19.076C379.554 19.616 379.554 20.336 379.554 20.984C379.554 21.488 379.554 21.956 379.518 22.316C379.446 23.432 378.474 24.008 377.538 24.008C376.638 24.008 375.774 23.468 375.774 22.424C375.774 22.388 375.774 22.388 375.774 22.352C375.774 18.752 375.738 18.356 373.542 18.32C370.698 18.284 367.278 18.248 363.966 18.248C361.23 18.248 358.566 18.284 356.37 18.32C354.426 18.356 354.138 18.932 354.03 20.264C354.03 20.264 354.03 20.264 354.03 22.424V22.46C354.03 23.54 353.094 24.116 352.194 24.116C351.33 24.116 350.466 23.576 350.43 22.424C350.43 21.956 350.394 21.38 350.394 20.768C350.394 20.12 350.43 19.472 350.43 18.896C350.502 17.132 351.834 15.332 354.606 15.296C357.378 15.26 360.294 15.224 363.21 15.224V12.848C363.21 11.732 364.146 11.192 365.082 11.192C366.018 11.192 366.954 11.732 366.954 12.848ZM366.522 30.056C366.414 30.632 366.09 31.532 365.766 32.288C368.214 32.288 370.698 32.288 373.11 32.324C375.09 32.36 376.494 33.656 376.566 34.988C376.602 35.636 376.638 36.428 376.638 37.256C376.638 38.084 376.602 38.912 376.566 39.632C376.494 41.216 375.126 42.656 372.966 42.692C369.906 42.764 366.99 42.8 364.218 42.8C361.806 42.8 359.502 42.764 357.378 42.692C355.002 42.62 353.778 41.36 353.706 39.668C353.67 39.128 353.67 38.48 353.67 37.796C353.67 36.86 353.67 35.924 353.706 35.24C353.742 33.836 354.714 32.36 357.306 32.324C358.926 32.288 360.726 32.288 362.562 32.288C362.778 31.532 362.958 30.74 363.102 30.056C357.738 30.056 356.154 30.056 356.154 25.448C356.154 24.764 356.154 24.08 356.19 23.504C356.262 22.1 357.198 20.696 359.682 20.624C361.23 20.552 363.066 20.552 365.01 20.552C366.918 20.552 368.898 20.552 370.734 20.624C372.642 20.66 373.974 21.92 374.082 23.252C374.118 23.792 374.154 24.44 374.154 25.088C374.154 25.736 374.118 26.384 374.082 26.96C373.974 28.544 372.678 29.912 370.59 29.984C369.258 30.02 367.89 30.056 366.522 30.056ZM370.662 26.132C370.698 25.844 370.698 25.556 370.698 25.232C370.698 24.944 370.698 24.62 370.662 24.332C370.626 23.324 370.338 23.216 365.406 23.216C363.858 23.216 362.31 23.252 360.942 23.288C359.466 23.36 359.466 24.152 359.466 25.232C359.466 25.556 359.502 25.844 359.502 26.132C359.61 27.284 359.97 27.284 365.01 27.284C370.05 27.284 370.626 27.284 370.662 26.132ZM358.638 39.812C360.69 39.848 362.742 39.884 364.902 39.884C367.026 39.884 369.258 39.848 371.598 39.812C373.11 39.812 373.11 38.804 373.11 37.436C373.11 35.924 373.11 35.132 371.526 35.096C369.438 35.06 367.422 35.024 365.442 35.024C363.066 35.024 360.798 35.06 358.602 35.096C357.198 35.096 357.09 35.852 357.09 37.508C357.09 39.236 357.234 39.74 358.638 39.812ZM415.302 35.312H409.974V37.148C409.974 38.12 409.218 38.624 408.462 38.624C407.742 38.624 406.986 38.12 406.986 37.148L407.022 35.312H403.026C402.126 35.312 401.694 34.628 401.694 33.98C401.694 33.296 402.126 32.648 403.026 32.648H407.022L407.058 30.74H404.358C403.458 30.74 402.99 30.092 402.99 29.444C402.99 28.832 403.458 28.184 404.358 28.184H407.058V26.384C406.086 26.384 405.15 26.384 404.286 26.348C403.53 26.348 403.134 25.7 403.134 25.088C403.134 24.476 403.53 23.864 404.286 23.864H404.322C405.222 23.9 406.122 23.9 407.058 23.9V22.064H402.594C401.766 22.064 401.334 21.38 401.334 20.732C401.334 20.048 401.766 19.4 402.594 19.4H407.022V17.6H403.998H403.962C403.062 17.6 402.63 16.952 402.63 16.304C402.63 15.62 403.062 14.972 403.962 14.972C404.826 14.972 405.942 14.936 407.022 14.936L406.986 13.604C406.986 12.632 407.742 12.128 408.462 12.128C409.218 12.128 409.974 12.632 409.974 13.604V14.972H411.594C414.87 15.008 415.194 16.232 415.194 19.292H416.31C417.21 19.292 417.678 20.012 417.678 20.732C417.678 21.452 417.21 22.172 416.31 22.172H415.194C415.158 22.712 415.158 23.216 415.122 23.684C414.978 25.592 413.574 26.276 411.63 26.312C411.09 26.312 410.478 26.348 409.902 26.348L409.938 28.184H413.934C414.798 28.184 415.23 28.832 415.23 29.444C415.23 30.092 414.798 30.74 413.934 30.74H409.938V32.648H415.302C416.166 32.648 416.598 33.296 416.598 33.98C416.598 34.628 416.166 35.312 415.302 35.312ZM399.03 25.592H397.302C396.906 26.132 396.33 26.348 395.79 26.348C394.962 26.348 394.242 25.844 394.242 25.16C394.242 24.98 394.278 24.8 394.386 24.62C394.674 24.08 397.95 17.672 397.95 17.06C397.95 16.808 397.734 16.7 397.554 16.7H395.79C394.962 16.7 394.53 16.016 394.53 15.368C394.53 14.684 394.962 14 395.754 14C396.978 13.964 398.202 13.964 398.886 13.964C400.29 13.964 401.442 14.684 401.442 15.98C401.442 16.592 401.226 17.132 398.562 22.964C399.39 22.964 400.002 22.928 400.11 22.928C401.73 22.928 402.918 23.756 402.918 25.592C402.918 26.528 402.162 32.468 400.254 36.572C402.234 38.516 405.726 39.344 410.838 39.344C412.278 39.344 413.826 39.272 415.518 39.164C415.59 39.164 415.626 39.164 415.698 39.164C416.706 39.164 417.282 39.956 417.282 40.784C417.282 41.612 416.706 42.44 415.446 42.512C414.006 42.584 412.674 42.656 411.378 42.656C405.618 42.656 401.406 41.684 398.778 39.128C397.446 41.072 395.322 43.196 394.35 43.196C393.486 43.196 392.622 42.368 392.622 41.504C392.622 41.072 392.838 40.64 393.342 40.316C394.89 39.272 396.078 38.012 396.978 36.68C396.438 35.6 396.006 34.412 395.754 32.972C395.574 33.152 395.466 33.332 395.286 33.512C394.962 33.872 394.566 34.016 394.17 34.016C393.414 34.016 392.694 33.404 392.694 32.612C392.694 32.216 392.874 31.748 393.378 31.316C394.602 30.272 395.322 28.94 395.682 27.896C395.862 27.428 396.33 27.176 396.834 27.176C397.59 27.176 398.346 27.608 398.346 28.364C398.346 28.544 398.238 28.94 398.202 29.012C398.13 29.588 398.13 30.128 398.13 30.632C398.13 31.748 398.238 32.72 398.49 33.62C399.498 30.704 399.75 27.248 399.75 26.276C399.75 25.808 399.354 25.592 399.03 25.592ZM388.806 42.044V42.008L389.166 25.736C387.51 28.148 386.718 29.192 385.602 29.192C384.738 29.192 384.018 28.508 384.018 27.68C384.018 27.32 384.162 26.924 384.486 26.528C387.546 23.036 390.21 18.176 391.398 13.136C391.578 12.272 392.262 11.912 392.946 11.912C393.882 11.912 394.854 12.56 394.854 13.532C394.854 14.288 393.738 17.204 392.622 19.544L392.226 42.008C392.19 43.052 391.326 43.592 390.462 43.592C389.634 43.592 388.806 43.088 388.806 42.044ZM409.938 19.4H412.422C412.422 18.032 412.278 17.636 411.306 17.6H409.938V19.4ZM412.422 22.064H409.938L409.902 23.9C410.406 23.9 410.874 23.864 411.306 23.864C411.918 23.828 412.35 23.504 412.386 22.856C412.386 22.604 412.422 22.352 412.422 22.064ZM450.366 24.404H450.33L439.674 24.26C442.122 31.244 446.766 36.248 452.13 38.912C452.85 39.272 453.138 39.848 453.138 40.46C453.138 41.576 452.13 42.8 450.834 42.8C448.566 42.8 440.862 36.14 437.442 27.644C433.482 38.408 424.446 43.124 423.006 43.124C421.89 43.124 421.062 42.188 421.062 41.216C421.062 40.568 421.422 39.956 422.25 39.56C429.594 36.212 433.266 29.984 434.634 24.26L423.978 24.404H423.942C422.718 24.404 422.106 23.54 422.106 22.64C422.106 21.776 422.754 20.876 423.978 20.876H435.21C435.282 20.264 435.282 19.616 435.282 19.04C435.318 17.744 435.318 16.592 435.318 15.332C435.318 14.828 435.318 14.288 435.318 13.712V13.676C435.318 12.524 436.254 11.984 437.226 11.984C438.198 11.984 439.17 12.56 439.206 13.64C439.206 13.928 439.206 14.18 439.206 14.432C439.206 16.052 439.134 17.456 439.098 19.112C439.098 19.688 439.062 20.3 438.99 20.876H450.33C451.518 20.876 452.13 21.776 452.13 22.64C452.13 23.54 451.518 24.404 450.366 24.404ZM439.026 41.252C438.594 41.252 438.126 41.036 437.766 40.604C436.902 39.524 435.318 38.228 434.13 37.58C433.482 37.22 433.23 36.752 433.23 36.284C433.23 35.456 434.058 34.628 435.102 34.628C436.29 34.628 439.494 36.788 440.538 37.976C440.898 38.372 441.042 38.84 441.042 39.236C441.042 40.316 440.034 41.252 439.026 41.252ZM484.134 37.652V31.532H477.51C476.826 35.564 475.026 40.028 470.31 43.16C469.914 43.412 469.518 43.52 469.158 43.52C468.114 43.52 467.322 42.656 467.322 41.792C467.322 41.324 467.574 40.82 468.15 40.46C474.054 36.896 474.738 30.668 474.738 26.492C474.738 25.376 474.666 24.404 474.666 23.684C474.666 21.128 474.594 19.04 474.594 16.484C474.594 12.848 477.402 12.848 481.362 12.848C485.034 12.848 487.41 13.28 487.446 16.484C487.446 17.744 487.446 19.04 487.446 20.372C487.446 31.496 487.482 32.648 487.482 33.116L487.554 38.192C487.554 38.228 487.554 38.228 487.554 38.264C487.554 40.388 486.186 43.052 481.614 43.052C478.878 43.052 477.87 42.548 477.87 41.108C477.87 40.28 478.374 39.452 479.274 39.452C479.382 39.452 479.49 39.452 479.598 39.488C480.354 39.632 481.11 39.74 481.758 39.74C483.126 39.74 484.134 39.272 484.134 37.652ZM469.014 35.924L468.942 35.78C466.566 36.932 459.042 40.28 458.25 40.28C457.314 40.28 456.666 39.344 456.666 38.48C456.666 37.868 456.954 37.328 457.638 37.112C458.106 36.968 458.646 36.788 459.258 36.572C459.258 35.852 459.258 34.808 459.258 33.584C459.258 28.4 459.294 19.94 459.33 18.464C459.402 15.548 461.922 15.332 463.974 15.332L463.938 13.064V13.028C463.938 12.128 464.802 11.66 465.666 11.66C466.53 11.66 467.394 12.128 467.394 13.028V13.064L467.358 15.368C469.626 15.368 471.858 15.62 471.966 18.392C472.002 19.904 472.074 21.668 472.074 23.324C472.074 24.26 472.038 25.196 472.002 25.988C471.93 27.716 470.778 28.94 468.834 29.156C468.15 29.228 466.746 29.264 465.414 29.264C464.262 29.264 463.146 29.228 462.534 29.192C462.534 29.696 462.498 33.008 462.498 35.348C464.478 34.592 466.458 33.836 467.61 33.368C466.566 31.784 466.386 31.46 466.386 31.028C466.386 30.272 467.142 29.768 467.898 29.768C468.33 29.768 468.762 29.912 469.086 30.272C469.698 30.92 472.146 33.908 472.146 35.276C472.146 36.284 471.318 37.004 470.49 37.004C469.95 37.004 469.374 36.68 469.014 35.924ZM477.906 20.588H484.134C484.134 19.292 484.098 18.068 484.062 16.988C484.026 16.016 483.414 15.764 481.398 15.764C478.554 15.764 477.942 15.8 477.942 16.988C477.906 18.104 477.906 19.328 477.906 20.588ZM484.17 28.472V23.648H477.906V23.864C477.906 26.996 477.87 27.68 477.834 28.472H484.17ZM462.57 20.804H468.906C468.906 20.192 468.87 19.616 468.87 19.112C468.834 18.14 468.798 17.996 465.738 17.996C463.002 17.996 462.606 18.068 462.57 19.184V20.804ZM468.906 23.432H462.534C462.534 24.692 462.57 25.916 462.57 26.492C463.002 26.528 464.154 26.528 465.27 26.528C466.422 26.528 467.538 26.528 467.862 26.492C468.906 26.348 468.906 25.664 468.906 23.432ZM74.2183 97.196C74.2183 97.592 73.9303 97.952 73.4263 97.952C72.1303 97.952 62.9143 92.696 62.9143 81.284C62.9143 69.944 72.0583 64.76 73.2103 64.76C73.8223 64.76 74.2183 65.228 74.2183 65.732C74.2183 66.056 74.0383 66.416 73.6063 66.632C67.6663 69.656 64.7503 75.452 64.7503 81.284C64.7503 87.224 67.7743 93.2 73.6423 96.296C74.0383 96.476 74.2183 96.836 74.2183 97.196ZM86.1703 93.2V84.56C86.1703 83.912 86.1703 83.912 85.8103 83.372C83.1823 79.412 79.5463 74.048 77.8183 71.456C77.5303 71.024 77.3863 70.592 77.3863 70.196C77.3863 68.972 78.5383 68 79.6543 68C80.3023 68 80.9503 68.324 81.3823 69.08C82.8943 71.708 85.4143 75.452 87.9343 79.196C88.0783 79.412 88.2223 79.484 88.3663 79.484C88.5463 79.484 88.6903 79.412 88.7983 79.232C91.0303 76.172 93.8743 71.744 95.3143 69.044C95.7103 68.324 96.2863 68.036 96.9343 68.036C98.0863 68.036 99.3463 69.08 99.3463 70.268C99.3463 70.628 99.2383 70.952 99.0223 71.312C97.4023 73.904 93.3703 79.916 91.0303 83.192C90.6343 83.768 90.5983 83.912 90.5983 84.596C90.5983 86.756 90.6343 90.392 90.6343 93.308C90.6343 94.64 89.5183 95.324 88.4383 95.324C87.2863 95.324 86.1703 94.64 86.1703 93.2ZM107.424 95.54C102.276 95.54 98.3521 91.868 98.3521 86.432C98.3521 81.176 102.276 77.324 107.424 77.324C112.572 77.324 116.46 81.176 116.46 86.432C116.46 91.868 112.572 95.54 107.424 95.54ZM107.424 92.156C110.412 92.156 112.824 89.96 112.824 86.432C112.824 82.868 110.376 80.636 107.424 80.636C104.472 80.636 101.988 82.868 101.988 86.432C101.988 89.96 104.436 92.156 107.424 92.156ZM124.59 79.304V79.34C124.554 80.816 124.518 83.516 124.518 85.748C124.518 87.152 124.554 88.376 124.59 88.952C124.734 91.292 126.066 92.264 127.578 92.264C129.594 92.264 131.898 90.5 132.006 88.196C132.042 87.404 132.078 86.288 132.078 84.812C132.078 83.336 132.042 81.5 131.97 79.34C131.934 78.08 132.87 77.504 133.806 77.504C134.742 77.504 135.714 78.116 135.714 79.304C135.714 79.34 135.714 79.34 135.714 79.376C135.606 83.228 135.534 85.424 135.534 87.764C135.534 89.348 135.858 90.896 136.506 92.156C136.758 92.624 136.83 93.056 136.83 93.416C136.83 94.568 135.894 95.288 134.958 95.288C133.734 95.288 133.23 94.424 132.834 93.236C132.798 93.128 132.762 93.056 132.726 93.056C132.69 93.056 132.654 93.092 132.582 93.164C131.178 94.748 129.126 95.54 127.146 95.54C124.014 95.54 121.026 93.524 120.882 89.492C120.846 88.34 120.81 85.748 120.81 83.336C120.81 81.86 120.81 80.42 120.846 79.448C120.882 78.152 121.818 77.54 122.754 77.54C123.654 77.54 124.59 78.152 124.59 79.304ZM148.219 93.488V93.452C148.291 90.644 148.327 85.424 148.327 80.672C148.327 77.504 148.327 74.516 148.255 72.608C148.255 71.888 148.147 71.888 146.023 71.888C144.655 71.888 142.963 71.96 141.271 71.96C139.903 71.96 139.219 70.988 139.219 70.016C139.219 69.044 139.867 68.108 141.199 68.108C141.235 68.108 141.235 68.108 141.271 68.108C143.431 68.144 147.247 68.18 150.991 68.18C154.051 68.18 157.111 68.144 159.163 68.108C160.567 68.072 161.035 69.26 161.035 70.052C161.035 71.024 160.459 71.96 159.307 71.96C159.235 71.96 159.199 71.96 159.163 71.96C157.939 71.888 156.895 71.888 156.031 71.888C152.467 71.888 152.467 71.888 152.467 72.608C152.395 75.056 152.359 78.548 152.359 82.076C152.359 86.396 152.431 90.788 152.539 93.452C152.611 94.712 151.495 95.324 150.379 95.324C149.299 95.324 148.219 94.712 148.219 93.488ZM166.32 79.304V79.34C166.284 80.816 166.248 83.516 166.248 85.748C166.248 87.152 166.284 88.376 166.32 88.952C166.464 91.292 167.796 92.264 169.308 92.264C171.324 92.264 173.628 90.5 173.736 88.196C173.772 87.404 173.808 86.288 173.808 84.812C173.808 83.336 173.772 81.5 173.7 79.34C173.664 78.08 174.6 77.504 175.536 77.504C176.472 77.504 177.444 78.116 177.444 79.304C177.444 79.34 177.444 79.34 177.444 79.376C177.336 83.228 177.264 85.424 177.264 87.764C177.264 89.348 177.588 90.896 178.236 92.156C178.488 92.624 178.56 93.056 178.56 93.416C178.56 94.568 177.624 95.288 176.688 95.288C175.464 95.288 174.96 94.424 174.564 93.236C174.528 93.128 174.492 93.056 174.456 93.056C174.42 93.056 174.384 93.092 174.312 93.164C172.908 94.748 170.856 95.54 168.876 95.54C165.744 95.54 162.756 93.524 162.612 89.492C162.576 88.34 162.54 85.748 162.54 83.336C162.54 81.86 162.54 80.42 162.576 79.448C162.612 78.152 163.548 77.54 164.484 77.54C165.384 77.54 166.32 78.152 166.32 79.304ZM192.253 95.468C190.309 95.468 188.653 94.82 187.321 93.704C187.249 93.632 187.177 93.596 187.105 93.596C187.069 93.596 187.033 93.632 186.997 93.776C186.817 94.784 185.989 95.288 185.197 95.288C184.297 95.288 183.361 94.64 183.361 93.308C183.361 89.708 183.469 82.148 183.469 76.46C183.469 73.616 183.433 71.24 183.361 70.052C183.253 68.288 184.837 68 185.233 68C186.169 68 187.069 68.612 187.069 69.8C187.069 69.836 187.069 69.836 187.069 69.872C187.033 71.384 186.961 75.02 186.961 79.196C186.961 79.34 186.997 79.376 187.069 79.376C187.105 79.376 187.177 79.376 187.249 79.304C188.581 78.116 190.273 77.396 192.253 77.396C197.221 77.396 200.965 81.176 200.965 86.432C200.965 91.868 197.221 95.468 192.253 95.468ZM192.181 92.12C195.061 92.12 197.365 89.96 197.365 86.432C197.365 82.868 195.061 80.672 192.181 80.672C189.301 80.672 186.997 82.868 186.997 86.432C186.997 89.96 189.301 92.12 192.181 92.12ZM220.156 92.624C218.428 94.424 216.484 95.612 212.848 95.612C207.916 95.612 204.244 91.904 204.244 86.54C204.244 81.032 208.132 77.252 212.776 77.252C217.744 77.252 220.552 80.888 220.552 83.624C220.552 85.316 219.436 86.684 217.132 86.756C216.016 86.792 215.26 86.792 208.276 86.792C208.06 86.792 207.988 87.08 207.988 87.476C208.024 90.464 210.328 92.264 212.884 92.264C215.152 92.264 216.52 91.184 217.564 90.068C217.924 89.672 218.356 89.492 218.788 89.492C219.76 89.492 220.696 90.356 220.696 91.364C220.696 91.796 220.552 92.228 220.156 92.624ZM216.088 83.804C216.52 83.768 216.808 83.444 216.808 83.012C216.808 82.508 216.052 80.384 212.812 80.384C209.896 80.384 208.312 82.904 208.312 83.516C208.312 83.84 208.672 83.84 212.02 83.84C213.496 83.84 215.116 83.84 216.088 83.804ZM232.036 66.596H232.072C232.54 66.596 232.972 66.596 233.368 66.596C234.484 66.596 235.348 66.596 236.464 66.596C236.86 66.596 237.292 66.596 237.796 66.596C239.308 66.596 240.136 67.1 240.532 67.82C240.712 67.748 240.856 67.748 241.036 67.748C241.432 67.748 241.864 67.892 242.152 68.324C242.656 69.008 243.16 69.728 243.736 70.376C244.708 69.44 245.68 68.288 246.256 67.388C246.58 66.884 247.012 66.704 247.444 66.704C248.38 66.704 249.316 67.532 249.316 68.468C249.316 69.296 247.912 70.916 245.788 72.572C246.364 73.148 246.976 73.688 247.588 74.192C248.74 73.22 250 71.996 250.648 71.096C250.972 70.664 251.368 70.484 251.8 70.484C252.7 70.484 253.672 71.384 253.672 72.32C253.672 73.472 251.008 75.488 250.144 76.1C251.548 77.036 253.06 77.828 254.644 78.476C255.436 78.8 255.796 79.412 255.796 79.988C255.796 80.924 254.968 81.86 253.78 81.86C251.836 81.86 244.852 77.36 240.244 70.88C240.208 70.952 240.136 71.06 240.064 71.132C234.916 78.332 227.644 82.364 226.42 82.364C225.448 82.364 224.728 81.5 224.728 80.6C224.728 80.024 225.016 79.448 225.736 79.124C232.9 75.704 236.608 70.34 236.608 69.944C236.608 69.692 236.392 69.584 236.032 69.584C234.7 69.62 234.088 69.656 232.036 69.656C231.028 69.656 230.524 68.9 230.524 68.144C230.524 67.352 231.028 66.596 232.036 66.596ZM244.096 79.196H236.5C235.42 79.196 234.88 78.44 234.88 77.72C234.88 76.964 235.42 76.208 236.5 76.208H244.096C245.176 76.208 245.716 76.964 245.716 77.72C245.716 78.44 245.176 79.196 244.096 79.196ZM230.884 75.092C230.56 75.092 230.236 74.984 229.948 74.732C228.796 73.76 227.536 73.076 226.924 72.824C226.312 72.572 226.06 72.104 226.06 71.636C226.06 70.844 226.816 70.016 227.824 70.016C228.436 70.016 232.684 71.348 232.684 73.184C232.684 74.156 231.82 75.092 230.884 75.092ZM253.564 96.476H226.528C225.484 96.476 224.944 95.756 224.944 95C224.944 94.244 225.484 93.488 226.528 93.488L234.88 93.56C234.556 93.02 234.196 92.516 233.764 91.976C233.584 91.76 233.512 91.544 233.512 91.328C233.512 90.716 234.16 90.176 234.88 90.032L233.98 89.996C231.82 89.924 230.74 88.844 230.668 87.332C230.668 86.828 230.632 86.18 230.632 85.496C230.632 84.848 230.668 84.2 230.668 83.768C230.74 82.508 231.604 81.212 233.944 81.176C236.032 81.104 238.156 81.104 240.244 81.104C242.332 81.104 244.456 81.104 246.508 81.176C248.488 81.212 249.532 82.364 249.64 83.552C249.676 84.02 249.712 84.704 249.712 85.388C249.712 86.072 249.676 86.792 249.64 87.296C249.532 88.736 248.344 89.96 246.364 89.996L245.284 90.032C245.968 90.284 246.58 90.86 246.58 91.58C246.58 91.976 246.04 92.948 245.644 93.56L253.564 93.488C254.572 93.488 255.112 94.28 255.112 95.036C255.112 95.756 254.644 96.476 253.564 96.476ZM245.284 87.368C246.364 87.296 246.4 86.72 246.4 85.532C246.4 85.136 246.4 84.704 246.364 84.524C246.292 83.66 246.076 83.66 240.964 83.66C238.912 83.66 236.752 83.66 234.952 83.696C233.944 83.696 233.836 84.056 233.836 85.532C233.836 86.972 233.944 87.368 234.988 87.368C236.5 87.404 238.3 87.404 240.1 87.404C241.9 87.404 243.736 87.404 245.284 87.368ZM238.552 93.56H242.08C242.512 92.696 242.908 91.688 243.16 90.932C243.304 90.5 243.592 90.212 243.916 90.068C242.368 90.104 240.856 90.104 239.308 90.104C238.192 90.104 237.04 90.104 235.924 90.068C236.068 90.104 236.248 90.176 236.356 90.284C237.004 90.824 238.084 92.408 238.552 93.56ZM281.104 92.156V89.312C281.032 89.456 280.924 89.6 280.78 89.708C280.276 90.212 275.956 94.172 274.048 94.172C273.076 94.172 272.392 93.38 272.392 92.588C272.392 92.444 272.428 92.3 272.464 92.156C268.108 94.604 262.564 96.44 261.592 96.44C260.476 96.44 259.864 95.612 259.864 94.784C259.864 94.136 260.296 93.452 261.16 93.236C262.888 92.804 264.4 92.336 265.84 91.832V82.328H262.24C261.232 82.328 260.764 81.68 260.764 80.996C260.764 80.276 261.304 79.52 262.24 79.52H265.84V76.964H264.616C263.968 76.964 263.536 76.676 263.32 76.28C262.564 77.396 261.952 77.576 261.448 77.576C260.548 77.576 259.684 76.928 259.684 76.1C259.684 75.74 259.828 75.38 260.152 75.02C261.736 73.256 263.536 70.448 264.688 67.964C265.3 66.632 266.308 65.948 267.316 65.948C268.36 65.948 269.44 66.632 270.232 67.964C271.06 69.332 272.752 71.636 273.832 72.968C274.084 73.256 274.192 73.58 274.192 73.868C274.192 74.732 273.364 75.524 272.464 75.524C272.248 75.524 272.032 75.488 271.816 75.38C271.816 75.416 271.816 75.488 271.816 75.524C271.816 76.244 271.348 76.964 270.412 76.964H269.008V79.52H272.32C273.256 79.52 273.724 80.204 273.724 80.924C273.724 81.608 273.256 82.328 272.32 82.328H269.008V90.572C269.908 90.176 270.772 89.744 271.564 89.276C271.924 89.06 272.284 88.988 272.608 88.988C273.436 88.988 274.084 89.564 274.084 90.32C274.084 90.5 274.048 90.68 273.94 90.896C275.776 89.96 277.324 88.772 278.872 87.368C279.196 87.08 279.52 86.972 279.844 86.972C280.348 86.972 280.816 87.296 281.068 87.728L281.032 78.764H274.516C273.472 78.764 273.004 78.116 273.004 77.432C273.004 76.712 273.544 75.992 274.516 75.992H284.992C284.992 75.416 285.064 74.696 285.064 73.976H277.18C276.136 73.976 275.668 73.328 275.668 72.68C275.668 72.032 276.208 71.312 277.18 71.312H285.1V70.412C285.064 69.404 284.704 69.404 282.796 69.404C281.356 69.404 279.16 69.404 277.792 69.404C277.252 69.404 276.856 69.404 276.64 69.404C275.704 69.368 275.128 68.648 275.128 67.892C275.128 67.172 275.668 66.488 276.784 66.488C278.548 66.488 283.336 66.488 284.92 66.524C287.224 66.596 288.304 67.604 288.304 69.908C288.304 71.276 288.232 74.12 288.196 75.992H290.896C291.868 75.992 292.336 76.676 292.336 77.36C292.336 78.08 291.868 78.764 290.896 78.764H284.128C284.452 80.564 285.028 82.364 285.856 84.092C287.116 83.156 288.448 81.824 289.204 80.78C289.528 80.348 289.924 80.168 290.356 80.168C291.256 80.168 292.156 81.032 292.156 81.968C292.156 83.372 288.592 85.82 287.26 86.612C288.592 88.7 290.32 90.572 292.264 92.012C292.66 92.3 292.84 92.696 292.84 93.092C292.84 93.992 291.976 94.928 290.968 94.928C289.276 94.928 285.964 90.608 284.128 85.568L284.164 87.764L284.308 92.912C284.308 92.984 284.308 93.02 284.308 93.092C284.308 94.964 283.264 97.412 279.196 97.412C276.136 97.412 275.488 96.728 275.488 95.576C275.488 94.748 276.028 93.956 276.964 93.956C277.072 93.956 277.18 93.956 277.288 93.992C277.972 94.136 278.656 94.244 279.232 94.244C280.348 94.244 281.104 93.812 281.104 92.156ZM278.332 86.108C277.864 86.108 277.432 85.892 277.144 85.352C276.388 84.02 275.524 83.192 274.876 82.652C274.552 82.364 274.408 82.076 274.408 81.752C274.408 81.032 275.236 80.348 276.028 80.348C277.108 80.348 280.096 82.976 280.096 84.308C280.096 85.28 279.196 86.108 278.332 86.108ZM270.664 88.628C269.98 88.628 269.332 88.124 269.332 87.44C269.332 87.188 269.44 86.9 269.656 86.576C270.088 85.964 270.484 84.956 270.736 84.164C270.88 83.624 271.348 83.408 271.816 83.408C272.644 83.408 273.58 84.02 273.58 84.848C273.58 85.172 272.32 88.628 270.664 88.628ZM263.716 90.644C263.176 90.644 262.636 90.32 262.492 89.564C262.204 88.196 261.34 86.504 260.908 85.748C260.764 85.532 260.728 85.316 260.728 85.1C260.728 84.38 261.556 83.912 262.348 83.912C262.78 83.912 263.176 84.02 263.464 84.344C264.292 85.316 265.408 87.836 265.408 88.916C265.408 89.996 264.508 90.644 263.716 90.644ZM264.796 74.156H270.628C269.584 72.68 268.54 70.736 267.928 69.764C267.856 69.62 267.748 69.548 267.64 69.548C267.532 69.548 267.424 69.62 267.352 69.764C266.632 71.276 265.696 72.788 264.796 74.156ZM325.492 79.556H325.456L315.952 79.448C314.764 80.42 313.504 81.356 312.244 82.22C313.036 82.22 313.864 82.184 314.692 82.184C316.168 82.184 317.608 82.22 318.832 82.292C320.92 82.4 322.36 83.804 322.468 85.388C322.54 86.54 322.576 87.98 322.576 89.42C322.576 90.68 322.54 91.904 322.468 92.984C322.324 94.892 320.956 96.44 318.652 96.62C317.284 96.728 315.844 96.8 314.404 96.8C312.712 96.8 311.056 96.728 309.58 96.62C307.06 96.476 305.836 95.108 305.728 93.056C305.692 92.336 305.692 91.544 305.692 90.716C305.692 89.168 305.728 87.476 305.8 86.108C304.324 86.9 298.672 89.492 297.484 89.492C296.44 89.492 295.792 88.664 295.792 87.8C295.792 87.116 296.224 86.396 297.232 86.108C302.344 84.596 307.024 82.364 311.128 79.412L298.852 79.556H298.816C297.628 79.556 297.124 78.836 297.124 78.116C297.124 77.288 297.736 76.424 298.852 76.424L308.68 76.46L308.644 72.86H302.056C300.868 72.86 300.328 72.14 300.328 71.384C300.328 70.592 300.94 69.764 302.056 69.764L308.644 69.8V66.812C308.644 65.768 309.508 65.3 310.372 65.3C311.236 65.3 312.136 65.804 312.136 66.812L312.1 69.8L317.14 69.764C318.22 69.764 318.76 70.556 318.76 71.348C318.76 72.104 318.256 72.86 317.14 72.86H312.1V76.46H314.764C317.5 73.976 319.912 71.168 321.964 67.928C322.324 67.388 322.792 67.172 323.26 67.172C324.232 67.172 325.204 68.072 325.204 69.044C325.204 70.448 320.092 75.704 319.336 76.46L325.456 76.424C326.536 76.424 327.112 77.252 327.112 78.08C327.112 78.836 326.608 79.556 325.492 79.556ZM308.968 87.764H319.192C319.192 85.064 318.976 85.064 314.656 85.064C313.288 85.064 311.812 85.064 310.696 85.1C309.4 85.136 308.968 85.928 308.968 87.764ZM319.228 90.5H308.932C308.932 91.04 308.968 91.58 308.968 92.12C309.004 93.596 309.508 93.812 314.116 93.812C318.868 93.812 319.228 93.812 319.228 90.5ZM345.472 71.888C345.22 72.176 344.86 72.284 344.536 72.284C343.852 72.284 343.132 71.78 343.132 71.096C343.132 70.844 343.24 70.556 343.492 70.268C344.104 69.548 344.644 68.684 345.184 67.712C345.364 67.352 345.688 67.208 346.048 67.208C346.84 67.208 347.812 68 347.812 68.828C347.812 69.188 347.704 69.512 345.472 71.888ZM362.608 76.316H360.88C360.52 80.78 359.296 84.956 357.136 88.556C358.72 90.572 360.772 92.228 363.364 93.452C364.084 93.776 364.372 94.352 364.372 94.964C364.372 95.972 363.544 97.016 362.5 97.016C361.492 97.016 357.928 94.856 355.228 91.256C351.952 95.288 348.028 97.304 347.2 97.304C346.192 97.304 345.472 96.404 345.472 95.504C345.472 95.108 345.58 94.748 345.904 94.424C345.868 94.424 345.796 94.424 345.76 94.424C345.472 94.424 345.184 94.352 344.896 94.136C344.248 93.668 343.564 93.236 342.88 92.876C340.252 96.152 336.472 96.98 333.88 96.98C332.944 96.98 332.44 96.26 332.44 95.54C332.44 94.856 332.908 94.172 333.88 94.136C336.76 94.028 338.776 93.128 340.18 91.76C339.388 91.508 338.596 91.364 337.732 91.22L337.588 91.508C337.3 92.12 336.724 92.372 336.148 92.372C335.356 92.372 334.564 91.868 334.564 91.112C334.564 90.86 334.636 90.608 334.816 90.32C335.572 89.096 336.256 87.836 336.796 86.54L334.312 86.576H334.276C333.268 86.576 332.8 85.892 332.8 85.208C332.8 84.488 333.304 83.768 334.312 83.768H337.768C337.948 83.192 338.056 82.616 338.164 82.04C338.272 81.392 338.884 81.104 339.532 81.104C339.64 81.104 339.748 81.14 339.856 81.14C339.64 80.888 339.532 80.564 339.532 80.132L339.604 77.972C337.408 80.132 334.528 82.292 333.448 82.292C332.548 82.292 331.864 81.464 331.864 80.672C331.864 80.168 332.116 79.7 332.764 79.412C334.6 78.584 336.724 77.18 338.56 75.452L334.528 75.524H334.492C333.484 75.524 332.944 74.84 332.944 74.12C332.944 73.436 333.484 72.716 334.528 72.716H339.64L339.532 67.64V67.604C339.532 66.56 340.324 66.02 341.152 66.02C341.944 66.02 342.736 66.524 342.736 67.604V67.64L342.628 72.716H347.02C348.028 72.716 348.532 73.4 348.532 74.12C348.532 74.804 348.028 75.524 347.056 75.524H347.02L342.628 75.452L342.664 76.892C342.88 76.532 343.24 76.208 343.672 76.208C344.068 76.208 345.364 76.676 346.876 77.792C347.308 78.152 347.488 78.62 347.488 79.052C347.488 79.88 346.912 80.672 346.228 80.672C345.94 80.672 345.652 80.528 345.364 80.24C344.68 79.52 343.924 79.016 342.916 78.548C342.808 78.512 342.772 78.44 342.7 78.368L342.736 80.132C342.736 80.168 342.736 80.168 342.736 80.204C342.736 81.176 341.944 81.68 341.116 81.68C341.08 81.68 341.008 81.68 340.972 81.68C341.152 81.824 341.224 82.04 341.224 82.292C341.224 82.364 341.224 82.436 341.188 82.544C341.116 82.94 341.008 83.336 340.864 83.768H347.632C348.64 83.768 349.144 84.452 349.144 85.172C349.144 85.856 348.64 86.576 347.668 86.576H347.632L345.616 86.54C345.4 87.8 345.004 89.132 344.392 90.428C347.164 91.58 347.344 92.048 347.344 92.732C347.344 93.128 347.164 93.524 346.912 93.848C349.72 92.444 351.88 90.608 353.5 88.448C352.096 85.856 351.16 83.048 350.62 80.312C350.008 81.536 349.36 81.932 348.712 81.932C347.956 81.932 347.272 81.32 347.272 80.564C347.272 80.276 347.344 79.988 347.524 79.7C349.324 76.784 351.196 72.608 351.664 67.64C351.736 66.704 352.492 66.272 353.248 66.272C354.148 66.272 355.12 66.848 355.12 67.784C355.12 68.684 354.148 72.068 353.752 73.328L362.608 73.292C363.616 73.292 364.084 74.048 364.084 74.804C364.084 75.56 363.616 76.316 362.608 76.316ZM337.012 72.428C336.652 72.428 336.292 72.248 336.04 71.78C335.5 70.736 334.78 70.196 334.132 69.368C333.952 69.152 333.88 68.936 333.88 68.72C333.88 67.964 334.78 67.28 335.536 67.28C336.616 67.28 338.56 69.692 338.56 70.7C338.56 71.6 337.768 72.428 337.012 72.428ZM357.532 76.316L352.888 76.28C353.14 79.664 353.896 82.832 355.264 85.568C356.596 82.868 357.28 79.772 357.532 76.316ZM342.7 86.504L340.108 86.468H339.892C339.568 87.296 339.172 88.124 338.812 88.952C339.712 89.06 340.72 89.276 341.764 89.564C342.232 88.628 342.556 87.548 342.7 86.504ZM382.768 95.216H369.88C368.62 95.216 367.864 94.28 367.864 93.092C367.864 92.3 368.188 91.436 368.908 90.644C371.392 87.836 375.568 83.552 378.736 79.664C380.176 77.936 380.752 76.352 380.752 75.056C380.752 72.788 379.024 71.384 377.008 71.384C375.46 71.384 373.768 72.212 372.58 74.156C372.112 74.912 371.392 75.236 370.708 75.236C369.628 75.236 368.584 74.444 368.584 73.328C368.584 72.068 371.32 67.784 376.972 67.784C381.148 67.784 385.108 70.376 385.108 74.66C385.108 76.712 384.244 79.088 382.12 81.788C379.384 85.244 375.856 88.304 372.868 91.544C375.856 91.508 379.924 91.22 382.876 91.22C384.352 91.22 385.036 92.156 385.036 93.092C385.036 94.136 384.244 95.216 382.768 95.216ZM394.922 92.804C394.922 93.74 394.166 95.36 392.366 95.36C391.394 95.36 389.846 94.928 389.846 92.84C389.846 91.076 391.358 90.392 392.366 90.392C393.554 90.392 394.922 91.256 394.922 92.804ZM416.585 86.216C416.585 91.472 412.661 95.468 406.757 95.468C403.445 95.468 398.873 93.74 398.873 91.364C398.873 90.284 399.701 89.312 400.745 89.312C401.141 89.312 401.573 89.492 402.005 89.852C403.481 91.148 405.281 91.724 406.937 91.724C410.681 91.724 412.661 88.988 412.661 86.252C412.661 84.848 411.905 81.428 407.729 81.428C406.757 81.428 405.749 81.644 404.885 81.932C404.381 82.112 404.057 82.4 403.481 82.436C403.301 82.436 403.121 82.472 402.941 82.472C401.357 82.472 400.349 81.752 400.349 80.024C400.349 79.736 401.069 74.156 401.609 70.988C401.969 69.008 402.797 68.108 405.101 68.108C405.173 68.108 405.245 68.108 405.353 68.108C406.397 68.144 406.937 68.144 412.841 68.144C414.101 68.144 414.749 69.116 414.749 70.088C414.749 70.988 414.137 71.924 412.913 71.924C411.905 71.924 407.045 71.888 405.965 71.888C405.281 71.888 404.993 72.212 404.885 72.86C404.705 74.12 404.165 77 404.057 77.72C404.057 77.828 404.057 77.9 404.057 77.972C404.057 78.26 404.129 78.368 404.345 78.368C404.525 78.368 404.813 78.26 405.173 78.188C405.821 78.044 406.793 77.936 407.873 77.936C414.317 77.936 416.585 82.292 416.585 86.216ZM450.087 72.068L437.055 71.96C436.983 73.652 436.803 75.308 436.551 76.892C438.063 76.856 439.863 76.856 441.519 76.856C442.239 76.856 442.887 76.856 443.535 76.856C445.911 76.892 447.387 78.404 447.387 80.888C447.387 92.624 443.823 96.764 438.099 96.764C436.623 96.764 435.003 96.476 433.239 95.864C432.483 95.612 432.159 94.892 432.159 94.172C432.159 93.2 432.771 92.156 433.779 92.156C433.995 92.156 434.211 92.192 434.463 92.3C435.723 92.84 436.947 93.128 438.063 93.128C442.527 93.128 443.715 87.8 443.715 81.464C443.715 80.456 443.103 80.096 442.383 80.096C441.987 80.096 441.591 80.096 441.159 80.096C439.431 80.096 437.487 80.132 435.939 80.132C434.139 87.476 430.287 93.2 423.807 96.764C423.447 96.98 423.051 97.052 422.727 97.052C421.611 97.052 420.747 96.08 420.747 95.072C420.747 94.46 421.071 93.848 421.863 93.416C430.143 89.132 433.239 80.42 433.383 71.96L423.195 72.068H423.159C422.007 72.068 421.431 71.204 421.431 70.34C421.431 69.476 422.043 68.612 423.195 68.612H450.087C451.167 68.612 451.707 69.512 451.707 70.376C451.707 71.24 451.203 72.068 450.087 72.068ZM474.207 73.472V73.616C474.243 73.688 474.243 73.796 474.243 73.904C474.927 82.724 481.407 90.392 487.419 92.624C488.427 92.984 488.823 93.668 488.823 94.388C488.823 95.468 487.887 96.584 486.447 96.584C483.387 96.584 475.791 90.032 472.659 81.824C470.643 88.052 466.575 93.596 459.699 96.8C459.339 96.98 458.979 97.052 458.655 97.052C457.467 97.052 456.567 96.08 456.567 95.072C456.567 94.388 456.963 93.74 457.899 93.308C470.175 87.836 470.499 75.2 470.499 72.5C470.499 71.42 470.427 70.196 470.355 69.116C470.355 69.08 470.355 69.044 470.355 69.008C470.355 67.82 471.363 67.208 472.371 67.208C473.343 67.208 474.351 67.82 474.351 69.116C474.351 70.376 474.315 71.924 474.207 73.472ZM510.603 67.244V69.584C513.447 69.584 516.219 69.62 518.919 69.656C521.115 69.692 523.059 70.916 523.131 73.292C523.167 73.724 523.167 74.012 523.167 74.336C523.167 76.208 522.591 76.64 521.511 76.748C521.511 76.82 521.547 76.856 521.547 76.928C521.547 80.06 519.387 80.816 515.571 80.816C512.655 80.816 510.279 80.456 510.279 77.252C510.279 77 510.243 76.244 510.243 75.452C510.243 74.048 510.351 73.112 511.791 73.112C512.583 73.112 513.339 73.544 513.339 74.3C513.339 75.2 513.303 76.604 513.303 76.964C513.375 78.044 514.275 78.08 515.751 78.08C517.443 78.08 518.523 77.9 518.523 76.892C518.523 76.208 519.027 75.812 519.639 75.74C519.567 75.56 519.567 75.416 519.567 75.2C519.567 73.076 519.495 72.608 517.623 72.572C514.743 72.536 511.071 72.5 507.507 72.5C504.591 72.5 501.747 72.536 499.551 72.572C497.607 72.608 497.499 73.22 497.463 74.156V75.74V75.776C497.463 76.784 496.599 77.36 495.735 77.36C494.043 77.36 494.007 76.028 494.007 74.48C494.007 72.788 494.043 69.692 498.039 69.656C500.883 69.62 503.835 69.584 506.859 69.584V67.244C506.859 66.02 507.795 65.408 508.731 65.408C509.667 65.408 510.603 66.02 510.603 67.244ZM507.039 74.804C507.039 76.964 500.127 82.004 497.499 82.004C496.419 82.004 495.771 81.176 495.771 80.348C495.771 79.772 496.131 79.16 496.959 78.944C499.227 78.332 502.323 76.82 504.123 73.94C504.411 73.472 504.879 73.256 505.347 73.256C506.175 73.256 507.039 73.904 507.039 74.804ZM521.547 87.116L511.467 87.044C513.627 90.788 517.659 92.588 521.979 93.416C523.059 93.632 523.563 94.352 523.563 95.108C523.563 96.044 522.771 96.98 521.475 96.98C520.899 96.98 512.691 95.396 508.983 88.412C505.563 96.008 495.879 97.232 495.627 97.232C494.475 97.232 493.755 96.332 493.755 95.504C493.755 94.82 494.223 94.136 495.267 93.92C501.027 92.696 504.591 90.824 506.139 87.044L495.807 87.116C494.727 87.116 494.187 86.324 494.187 85.568C494.187 84.776 494.727 84.02 495.807 84.02L506.931 84.092C507.003 83.696 507.003 83.264 507.039 82.832C507.039 82.832 507.039 82.832 507.039 80.708C507.039 79.844 507.831 79.412 508.623 79.412C509.487 79.412 510.387 79.88 510.387 80.78C510.387 82.796 510.279 83.768 510.207 84.092L521.547 84.02C522.627 84.02 523.167 84.776 523.167 85.568C523.167 86.324 522.627 87.116 521.547 87.116ZM553.191 73.04V78.224C553.767 78.224 554.307 78.26 554.811 78.26C557.115 78.332 558.267 79.196 558.267 80.96C558.267 82.4 557.115 86.612 554.307 90.5C555.639 91.904 557.331 92.984 559.419 93.848C560.211 94.172 560.535 94.784 560.535 95.432C560.535 96.332 559.815 97.268 558.627 97.268C556.827 97.268 553.803 94.748 552.255 92.984C549.375 95.972 546.135 97.484 545.307 97.484C544.299 97.484 543.507 96.656 543.507 95.792C543.507 95.252 543.831 94.676 544.659 94.352C546.855 93.452 548.763 92.084 550.311 90.428C548.043 86.936 547.503 83.912 547.503 83.552C547.503 82.616 548.295 82.076 549.051 82.076C549.699 82.076 550.347 82.436 550.527 83.192C550.959 84.92 551.571 86.432 552.327 87.8C553.731 85.604 554.775 82.508 554.775 81.716C554.775 81.284 554.523 81.068 553.875 81.068C553.479 81.068 553.047 81.068 552.579 81.068C550.671 81.068 548.403 81.104 546.567 81.14C546.531 86.396 545.775 91.94 541.491 96.188C541.059 96.62 540.591 96.764 540.159 96.764C539.259 96.764 538.467 96.08 538.467 95.18C538.467 94.784 538.647 94.316 539.079 93.884C542.643 90.248 543.327 85.604 543.327 80.744C543.327 78.368 543.147 75.956 543.111 73.58C543.111 73.544 543.111 73.508 543.111 73.508C543.111 71.6 544.299 70.34 546.783 70.268C547.683 70.232 548.763 70.232 549.879 70.196L549.843 67.172C549.843 66.128 550.671 65.624 551.535 65.624C552.363 65.624 553.227 66.128 553.227 67.172V70.196C554.559 70.196 555.819 70.196 556.935 70.268C558.951 70.376 559.995 71.456 559.995 73.004C559.995 73.4 559.923 73.832 559.779 74.3C558.879 77 558.411 77.504 557.259 77.504C556.395 77.504 555.531 76.928 555.531 76.136C555.531 75.92 555.603 75.704 555.711 75.488C556.431 74.084 556.431 73.94 556.431 73.76C556.431 73.4 556.251 73.076 555.747 73.076C555.063 73.076 554.163 73.04 553.191 73.04ZM540.447 71.24H536.523C536.127 73.148 535.695 74.948 535.119 76.676C535.407 76.676 535.659 76.676 535.911 76.676C536.523 76.676 537.099 76.676 537.819 76.712C539.475 76.784 540.699 78.08 540.735 79.736C540.807 81.356 540.807 83.012 540.807 84.632C540.807 86.288 540.807 87.908 540.735 89.456C540.627 92.768 537.963 92.84 536.019 92.84C533.283 92.84 531.591 92.66 531.591 88.412C531.591 86.972 531.627 85.496 531.663 84.056C531.483 84.344 531.339 84.632 531.159 84.92C530.763 85.532 530.223 85.82 529.719 85.82C528.927 85.82 528.207 85.136 528.207 84.272C528.207 83.948 528.315 83.552 528.567 83.192C531.195 79.484 532.563 76.1 533.499 71.24H531.159C530.043 71.24 529.539 70.52 529.539 69.8C529.539 69.008 530.115 68.216 531.159 68.216H540.447C541.491 68.216 542.031 68.972 542.031 69.728C542.031 70.484 541.491 71.24 540.447 71.24ZM549.915 78.224L549.879 73.04C547.251 73.04 546.459 73.04 546.459 74.48C546.459 75.668 546.495 76.964 546.531 78.26C547.539 78.26 548.727 78.224 549.915 78.224ZM536.595 89.852C537.207 89.744 537.567 89.456 537.603 88.772C537.639 87.692 537.639 86.54 537.639 85.316C537.639 83.696 537.639 82.004 537.603 80.528C537.603 79.628 536.991 79.484 536.127 79.484C535.119 79.484 534.651 79.628 534.651 80.564C534.615 81.932 534.579 83.516 534.579 85.064C534.579 89.564 534.579 89.672 535.623 89.852C535.803 89.888 535.983 89.888 536.127 89.888C536.307 89.888 536.451 89.888 536.595 89.852ZM565.575 97.952C565.071 97.952 564.783 97.592 564.783 97.196C564.783 96.836 564.963 96.476 565.359 96.296C571.227 93.2 574.251 87.224 574.251 81.284C574.251 75.452 571.335 69.656 565.395 66.632C564.963 66.416 564.783 66.056 564.783 65.732C564.783 65.228 565.179 64.76 565.791 64.76C566.943 64.76 576.087 69.944 576.087 81.284C576.087 92.696 566.871 97.952 565.575 97.952Z" fill="black"/>
<path d="M31.6213 160.72C31.5413 164.56 28.5813 165.76 25.5413 165.92C21.3013 166.16 14.7013 166.2 10.5813 166.2C7.58127 166.2 7.58127 161.92 10.5413 162.04C14.8213 162.2 22.1013 162.2 25.0613 162C26.2613 161.92 27.3013 161.24 27.3813 159.76C27.5013 157.36 27.5013 153.28 27.4213 151.2C27.3813 149.88 26.4213 149.16 24.9013 149.12C21.3813 149 15.0613 149.24 10.9013 149.44C7.78127 149.6 7.62127 145.68 10.7013 145.56C15.1013 145.36 22.3013 145.28 26.3013 145.36C30.2613 145.44 31.6613 147.8 31.6613 150.48C31.6613 152.92 31.7013 157.16 31.6213 160.72ZM72.9813 155.8H47.8613C46.4213 155.8 45.7413 154.84 45.7413 153.88C45.7413 152.88 46.5013 151.84 47.8613 151.84H72.9813C74.3413 151.84 75.0213 152.84 75.0213 153.84C75.0213 154.8 74.3413 155.8 72.9813 155.8ZM103.301 155.44C102.981 160.52 99.7013 167.88 91.4613 170.72C87.4213 172.12 86.4213 167.72 89.3013 167C96.1013 165.28 98.7813 159.24 99.2613 155.44C94.9413 155.44 90.6213 155.52 87.4613 155.6C85.0613 155.68 84.8213 152.04 87.4613 152C90.4213 151.92 94.8613 151.88 99.3413 151.88C99.3413 150.2 99.3013 148.4 99.3013 147.08C96.3813 147.56 93.5813 147.8 91.4613 147.76C88.5013 147.68 88.6213 143.88 91.5413 144.08C95.6213 144.36 102.941 142.84 106.221 141.48C109.661 140.04 110.421 144.16 108.221 144.92C106.781 145.44 105.101 145.88 103.381 146.28C103.421 147.84 103.421 149.96 103.381 151.88C107.581 151.88 111.261 151.92 113.141 151.96C115.941 152 115.861 155.64 113.061 155.56C110.861 155.48 107.261 155.44 103.301 155.44ZM154.941 148.48C149.981 157.48 141.701 165.68 132.501 168.6C129.101 169.68 127.821 165.12 131.141 164.28C139.181 162.24 147.261 153.96 151.301 146.12C152.581 143.64 156.701 145.32 154.941 148.48ZM138.261 151.72C137.621 152.64 136.221 153.2 134.981 152.08C133.501 150.72 130.941 149.56 129.061 149.12C126.661 148.56 127.661 144.52 130.701 145.36C132.821 145.96 135.821 147.04 137.741 148.4C138.981 149.28 138.901 150.8 138.261 151.72ZM195.74 140.48C195.18 139.88 193.26 138.52 192.46 138.2C190.42 137.4 191.86 135 193.74 135.6C194.82 135.96 196.86 136.96 197.78 137.88C199.38 139.48 197.1 142 195.74 140.48ZM192.1 144.04C191.58 143.4 189.62 142 188.82 141.64C186.78 140.8 188.38 138.4 190.22 139.08C191.3 139.48 193.3 140.52 194.18 141.48C195.74 143.16 193.42 145.6 192.1 144.04ZM180.7 143.4L180.42 143.76C182.14 143.64 184.1 143.52 185.7 143.44C188.78 143.28 191.46 145.44 189.98 148.28C185.1 157.6 179.58 165.68 168.34 170.12C164.94 171.44 163.3 167.52 166.62 166.36C175.5 163.28 182.1 155.32 185.06 148.52C185.38 147.76 185.06 147 184.1 147.04C182.42 147.08 179.5 147.36 177.7 147.56C174.98 151.16 171.46 155.36 168.7 157.24C166.02 159.04 163.66 155.56 166.38 153.88C170.22 151.52 175.42 144.2 177.26 141.04C178.58 138.8 182.58 140.72 180.7 143.4ZM214.22 170.04V170.08C214.22 171.04 213.42 171.56 212.58 171.56C211.78 171.56 210.94 171.04 210.9 170.04C210.9 169.28 210.9 168.4 210.9 167.48C210.9 163.68 210.94 158.68 210.94 155.48C210.94 152.6 212.66 152.28 216.3 152.28C217.18 152.28 218.1 152.32 218.7 152.36C220.58 152.48 221.7 153.64 221.74 155.52C221.78 156.16 221.78 157.32 221.78 158.48C221.78 159.6 221.78 160.72 221.78 161.32C221.82 162.6 221.82 164.24 221.82 165.28C221.82 166.32 221.58 167.32 220.94 168.08C223.5 166.28 225.38 163.92 226.74 161.32C225.78 159.08 224.98 156.6 224.46 153.96C224.1 154.32 223.7 154.44 223.26 154.44C222.42 154.44 221.62 153.84 221.62 152.84C221.62 152.52 221.7 152.2 221.86 151.84C222.06 151.48 222.26 151.08 222.42 150.64C222.22 150.76 222.02 150.8 221.82 150.8C221.34 150.8 220.9 150.52 220.62 149.88L220.58 149.8C217.9 150.36 212.3 151.28 211.42 151.28C210.54 151.28 210.06 150.44 210.06 149.64C210.06 148.92 210.46 148.2 211.26 148.16C211.54 148.16 211.7 148.16 212.02 148.12C212.5 146.92 213.06 145.36 213.5 143.96H211.26C210.1 143.96 209.5 143.16 209.5 142.36C209.5 141.56 210.06 140.8 211.22 140.8H211.26L214.42 140.84V138.4C214.42 137.28 215.34 136.72 216.26 136.72C217.18 136.72 218.1 137.28 218.1 138.4L218.06 140.84L222.14 140.8H222.18C223.26 140.8 223.82 141.56 223.82 142.36C223.82 143.16 223.26 143.96 222.14 143.96L217.02 143.92C216.58 145.12 215.98 146.6 215.38 147.8C216.62 147.64 217.86 147.48 218.9 147.36C218.02 146.48 217.94 146.08 217.94 145.84C217.94 145.2 218.58 144.72 219.26 144.72C220.86 144.72 222.94 148.12 223.06 148.44C223.1 148.48 223.14 148.56 223.14 148.6C224.18 145.28 224.9 141.16 225.22 138.64C225.34 137.64 226.14 137.2 226.98 137.2C227.94 137.2 228.9 137.76 228.9 138.84C228.9 139.2 228.38 141.68 227.66 144.72H234.86C235.98 144.72 236.54 145.52 236.54 146.32C236.54 147.16 235.98 147.96 234.86 147.96H233.5C233.26 152.04 232.54 157.12 230.46 161.76C231.98 164.28 233.86 166.36 235.98 167.76C236.58 168.16 236.86 168.72 236.86 169.28C236.86 170.32 236.02 171.32 234.9 171.32C233.26 171.32 230.58 168.32 228.66 165.08C226.06 169.08 222.66 171.72 221.3 171.72C220.22 171.72 219.38 170.84 219.38 169.96C219.38 169.6 219.46 169.28 219.74 168.96C219.18 169.2 218.5 169.36 217.7 169.36C216.18 169.36 215.02 169.08 215.02 167.64C215.02 166.88 215.5 166.08 216.26 166.08C216.34 166.08 216.46 166.12 216.54 166.12C216.94 166.2 217.26 166.24 217.54 166.24C218.34 166.24 218.7 165.84 218.7 164.88V163.48H214.18C214.18 166 214.18 168.44 214.22 170.04ZM202.02 148.44C201.02 148.44 200.3 147.6 200.3 146.68C200.3 146.16 200.58 145.6 201.18 145.16C203.74 143.36 205.66 141.16 207.14 138.2C207.46 137.52 208.02 137.28 208.58 137.28C209.54 137.28 210.54 138.08 210.54 139.12C210.54 140.72 204.5 148.44 202.02 148.44ZM204.14 170.24L204.58 155.24C202.38 157.28 202.06 157.4 201.42 157.4C200.38 157.4 199.62 156.44 199.62 155.52C199.62 155 199.86 154.48 200.42 154.08C203.14 152.32 205.54 149.68 207.5 146.32C207.86 145.72 208.34 145.48 208.86 145.48C209.82 145.48 210.82 146.4 210.82 147.36C210.82 147.6 210.82 148.16 208.22 151.4L207.9 170.24C207.86 171.36 206.9 171.92 205.98 171.92C205.06 171.92 204.14 171.4 204.14 170.32C204.14 170.28 204.14 170.28 204.14 170.24ZM229.98 147.96H226.82L226.7 148.32C226.78 151.52 227.38 154.6 228.38 157.36C229.42 154.16 229.86 150.84 229.98 147.96ZM218.66 156.92L218.62 156C218.62 155.08 218.14 155 216.5 155C214.5 155 214.22 155.12 214.22 156V156.92H218.66ZM218.66 159.28H214.18V161.12H218.7C218.7 160.52 218.66 159.88 218.66 159.28ZM272.66 156.04L265.02 156.08C266.14 162.2 269.74 165.44 270.54 165.44C271.42 165.44 271.74 163.84 271.94 162.92C272.14 161.92 272.82 161.48 273.54 161.48C274.54 161.48 275.62 162.24 275.62 163.36C275.62 163.52 274.74 169.44 270.7 169.44C269.54 169.44 268.46 168.92 267.58 168.12C264.06 164.8 262.46 160.8 261.58 156.08L254.74 156.16C254.74 157.72 254.78 159.48 254.78 161.56C256.74 161.16 258.66 160.68 260.02 160.2C260.22 160.12 260.38 160.12 260.54 160.12C261.42 160.12 262.06 160.92 262.06 161.72C262.06 162.32 261.74 162.88 260.9 163.2C255.9 165.04 249.34 166 249.06 166C247.9 166 247.26 165.08 247.26 164.2C247.26 163.44 247.74 162.68 248.74 162.56C249.42 162.48 250.22 162.36 251.06 162.24C251.02 160.8 251.02 159.32 251.02 157.8C251.02 155.36 251.06 152.92 251.1 150.72C251.14 148.36 252.18 146.48 255.06 146.28C258.86 146 263.18 145.72 267.18 144.76C267.38 144.72 267.58 144.68 267.78 144.68C268.94 144.68 269.66 145.64 269.66 146.52C269.66 147.28 269.18 148 268.14 148.2C266.98 148.4 265.7 148.56 264.34 148.72C264.42 150.12 264.5 151.56 264.62 152.96L272.62 152.84H272.66C273.78 152.84 274.38 153.64 274.38 154.44C274.38 155.24 273.82 156.04 272.66 156.04ZM273.1 143.52H273.06C270.86 143.48 266.74 143.44 262.5 143.44C257.3 143.44 251.9 143.48 249.5 143.52C248.5 143.52 247.9 144.24 247.9 145.24C247.9 147.04 247.98 149.08 247.98 151.2C247.98 157.56 247.5 164.76 244.22 169.64C243.7 170.4 243.02 170.72 242.38 170.72C241.34 170.72 240.42 169.96 240.42 169C240.42 168.72 240.54 168.36 240.74 168.04C243.74 163.4 244.3 157.88 244.3 152.32C244.3 149.56 244.14 146.76 244.1 144.08C244.1 144.04 244.1 144.04 244.1 144C244.1 141.88 245.66 140.28 248.38 140.2C250.26 140.16 253.5 140.12 257.1 140.12V137.72C257.1 136.52 258.1 135.92 259.14 135.92C260.14 135.92 261.18 136.52 261.18 137.72V140.12C265.9 140.12 270.58 140.16 273.1 140.2C274.34 140.2 274.9 141 274.9 141.8C274.9 142.68 274.26 143.52 273.1 143.52ZM264.18 170.72H250.82C249.66 170.72 249.06 169.88 249.06 169.08C249.06 168.24 249.66 167.4 250.82 167.4H264.18C265.34 167.4 265.94 168.24 265.94 169.08C265.94 169.88 265.34 170.72 264.18 170.72ZM254.78 153.08L261.1 153C260.94 151.72 260.82 150.4 260.7 149.04C259.22 149.16 257.74 149.24 256.5 149.36C255.02 149.48 254.86 150.4 254.82 151.52C254.82 152.04 254.78 152.56 254.78 153.08ZM310.74 141.4H307.62C306.7 148.36 300.94 151.12 299.7 151.12C298.62 151.12 297.98 150.2 297.98 149.32C297.98 148.76 298.26 148.24 298.82 147.96C302.34 146.36 303.62 143.96 304.06 141.4C302.78 141.4 301.5 141.44 300.18 141.48H300.14C299.06 141.48 298.5 140.68 298.5 139.88C298.5 139.08 299.1 138.24 300.22 138.2C302.14 138.16 304.06 138.16 306.02 138.16C307.94 138.16 309.9 138.16 311.9 138.2C314.46 138.24 315.5 139.6 315.5 142.12C315.5 144.4 315.14 150.36 309.74 150.36C308.82 150.36 307.78 150.2 306.62 149.84C305.82 149.6 305.5 148.92 305.5 148.24C305.5 147.28 306.14 146.28 307.18 146.28C307.46 146.28 307.74 146.36 308.02 146.48C308.7 146.8 309.22 146.92 309.66 146.92C311.58 146.92 311.9 143.48 311.9 142.64C311.9 141.72 311.54 141.4 310.74 141.4ZM315.22 164.32L309.26 164.28L309.3 169.84C309.3 171.04 308.38 171.68 307.42 171.68C306.54 171.68 305.62 171.08 305.62 169.84L305.66 164.28L299.74 164.32C298.54 164.32 298.02 163.6 298.02 162.84C298.02 162.04 298.62 161.2 299.74 161.2L305.66 161.24V157.8H302.54C301.3 160.12 300.66 160.6 299.78 160.6C298.78 160.6 297.9 159.84 297.9 159C297.9 158.72 297.98 158.44 298.18 158.16C299.7 156.04 300.34 154.72 300.98 152.32C301.18 151.6 301.78 151.28 302.46 151.28C303.38 151.28 304.38 151.88 304.38 152.8C304.38 153.16 304.26 153.52 303.82 154.76H305.62V152.52C305.62 151.36 306.54 150.76 307.46 150.76C308.38 150.76 309.3 151.36 309.3 152.52L309.26 154.76L313.82 154.72C314.94 154.72 315.5 155.48 315.5 156.28C315.5 157.04 314.94 157.84 313.82 157.84L309.26 157.8V161.24L315.22 161.2C316.34 161.2 316.86 161.96 316.86 162.76C316.86 163.52 316.34 164.32 315.22 164.32ZM294.26 161.92H286.1C285.74 164.92 285.02 167.84 283.74 170.44C283.34 171.24 282.66 171.6 282.02 171.6C281.1 171.6 280.26 170.92 280.26 170.04C280.26 169.76 280.3 169.52 280.46 169.24C282.86 164.64 283.3 159.44 283.3 154.28C283.3 152.96 283.26 151.64 283.22 150.32C282.86 150.84 282.3 151.08 281.74 151.08C280.82 151.08 279.94 150.44 279.94 149.56C279.94 149.2 280.06 148.84 280.34 148.44C282.74 145.24 284.86 140.84 285.66 137.4C285.86 136.52 286.62 136.12 287.42 136.12C288.34 136.12 289.3 136.68 289.3 137.64C289.3 137.76 289.22 138.36 288.9 139.2C289.62 139.2 290.58 139.2 291.3 139.2C292.3 139.2 294.86 139.2 294.86 141.32C294.86 141.64 294.78 142.64 293.18 145.6C293.46 145.6 293.7 145.64 293.94 145.64C296.42 145.72 297.42 146.88 297.46 149.08C297.46 150.44 297.46 152.12 297.46 153.76C297.46 161.6 297.46 163.16 297.58 166.56C297.58 166.6 297.58 166.68 297.58 166.72C297.58 169.08 296.1 171.36 292.26 171.36C290.42 171.36 288.54 171.2 288.54 169.36C288.54 168.48 289.1 167.6 290.02 167.6C290.14 167.6 290.26 167.6 290.38 167.64C291.02 167.76 291.66 167.92 292.26 167.92C293.38 167.92 294.22 167.44 294.22 165.64C294.22 165.64 294.26 164.12 294.26 161.92ZM286.74 143.96L285.78 145.76C286.1 145.72 286.42 145.64 286.78 145.64C287.5 145.64 288.5 145.6 289.58 145.6C290.1 144.6 290.78 143.24 290.78 142.76C290.78 142.2 290.22 142.2 289.5 142.2C288.86 142.2 288.1 142.2 287.58 142.24C287.3 142.8 287.02 143.4 286.74 143.96ZM291.62 152.32H294.22C294.22 148.84 294.1 148.48 292.82 148.44H291.62V152.32ZM288.86 152.32V148.48H287.82C286.74 148.48 286.46 149.04 286.46 149.8C286.46 150.6 286.5 151.44 286.5 152.32H288.86ZM294.26 159.08V155.04H291.62V159.08H294.26ZM288.86 159.08V155.04H286.5C286.5 156.36 286.42 157.72 286.34 159.08H288.86ZM344.06 141.84C344.06 142.96 343.02 143.8 342.06 143.8C341.5 143.8 340.94 143.48 340.62 142.8C339.98 141.36 339.02 140.32 338.42 139.68C338.14 139.36 338.02 139 338.02 138.68C338.02 137.88 338.86 137.16 339.82 137.16C341.66 137.16 344.06 140.64 344.06 141.84ZM353.66 164.04V164C353.66 162.88 354.46 162.4 355.3 162.4C356.22 162.4 357.22 163 357.22 164.04C357.22 164.12 357.22 164.24 357.22 164.32C357.22 169.12 355.82 171 350.82 171C346.7 171 345.9 169.28 345.9 166.48C345.9 165.08 345.94 158.72 345.98 156.32C338.42 156.32 336.78 156.32 336.78 150.8C336.78 147.36 336.78 144.4 340.98 144.2C342.5 144.12 344.22 144.12 345.9 144.12C346.86 142.4 348.1 139.76 348.62 138.16C348.9 137.28 349.58 136.92 350.3 136.92C351.34 136.92 352.5 137.72 352.5 138.8C352.5 139.68 350.66 142.52 349.58 144.16L350.18 144.2C352.46 144.28 354.22 145.48 354.3 147.52C354.38 148.68 354.46 150.2 354.46 151.4C354.46 153.68 354.14 155.92 350.18 156.2C349.98 156.2 349.74 156.24 349.5 156.24C349.5 158.32 349.42 163 349.42 165.2C349.42 166.92 349.46 167.56 350.9 167.56C353.1 167.56 353.66 167.24 353.66 164.44C353.66 164.32 353.66 164.16 353.66 164.04ZM332.86 140.8H324.22C323.14 140.8 322.62 140 322.62 139.2C322.62 138.4 323.14 137.6 324.22 137.6H332.86C333.94 137.6 334.5 138.4 334.5 139.2C334.5 140 333.94 140.8 332.86 140.8ZM334.18 146.28H322.58C321.42 146.28 320.86 145.48 320.86 144.64C320.86 143.84 321.42 143 322.58 143H334.18C335.34 143 335.9 143.8 335.9 144.64C335.9 145.44 335.34 146.28 334.18 146.28ZM332.94 151.48H324.3C323.22 151.48 322.7 150.68 322.7 149.88C322.7 149.08 323.22 148.28 324.3 148.28H332.94C334.02 148.28 334.58 149.08 334.58 149.88C334.58 150.68 334.02 151.48 332.94 151.48ZM332.94 156.64H324.3C323.22 156.64 322.7 155.84 322.7 155.04C322.7 154.24 323.22 153.44 324.3 153.44H332.94C334.02 153.44 334.58 154.24 334.58 155.04C334.58 155.84 334.02 156.64 332.94 156.64ZM334.42 168.12L334.66 168C339.06 166.36 340.54 162.76 340.7 158.36C340.74 157.2 341.58 156.64 342.46 156.64C343.38 156.64 344.34 157.28 344.34 158.48C344.34 158.52 344.34 158.56 344.34 158.6C343.94 168.36 337.02 171.52 335.58 171.52C334.38 171.52 333.58 170.48 333.58 169.52C332.78 170.28 332.34 170.52 328.22 170.52C327.14 170.52 326.06 170.48 325.26 170.44C323.46 170.32 322.34 169.04 322.3 167.28C322.3 166.24 322.26 165.32 322.26 164.4C322.26 163.48 322.3 162.6 322.3 161.72C322.34 160.2 323.3 158.8 325.22 158.68C325.98 158.64 326.98 158.6 327.98 158.6C329.18 158.6 330.46 158.64 331.38 158.68C332.9 158.76 334.54 159.8 334.58 161.52C334.62 162.44 334.62 163.44 334.62 164.44C334.62 165.4 334.62 166.36 334.58 167.24C334.58 167.56 334.5 167.84 334.42 168.12ZM350.62 150.8C350.62 150.08 350.62 149.24 350.58 148.56C350.5 147.16 349.66 147.12 345.98 147.12C344.58 147.12 343.18 147.12 342.1 147.16C340.78 147.2 340.38 147.64 340.38 150.12C340.38 153.2 340.46 153.32 345.58 153.32C350.18 153.32 350.62 153.28 350.62 150.8ZM331.26 166.4C331.3 165.84 331.3 165.2 331.3 164.52C331.3 163.88 331.3 163.2 331.26 162.64C331.18 161.64 330.46 161.56 328.38 161.56C327.74 161.56 327.06 161.56 326.62 161.6C325.54 161.68 325.5 162.36 325.5 164.52C325.5 165.16 325.54 165.84 325.54 166.44C325.58 167.04 325.62 167.4 328.3 167.4C330.78 167.4 331.22 167.12 331.26 166.4ZM369.18 165.16L369.22 162.76L363.9 162.88H363.86C362.82 162.88 362.3 162.2 362.3 161.48C362.3 160.8 362.86 160.08 363.9 160.08L369.22 160.04V158.48C363.34 158.48 362.82 158.36 362.82 152.8C362.82 147.88 363.94 147.84 369.26 147.84L369.22 146.2H363.14C362.1 146.2 361.54 145.48 361.54 144.76C361.54 144.04 362.1 143.32 363.14 143.32L369.22 143.36V141.68C366.94 141.8 365.02 141.8 364.22 141.8C363.1 141.8 362.54 141 362.54 140.2C362.54 139.44 363.1 138.68 364.18 138.68C364.22 138.68 364.26 138.68 364.3 138.68C365.1 138.72 365.9 138.76 366.74 138.76C369.82 138.76 373.06 138.4 376.58 137.64C376.7 137.6 376.86 137.6 376.98 137.6C377.94 137.6 378.62 138.4 378.62 139.24C378.62 140.44 377.82 140.84 372.54 141.4L372.5 143.36L378.42 143.32C379.5 143.32 380.06 144.04 380.06 144.76C380.06 144.84 380.02 144.96 380.02 145.04C380.26 144.88 380.58 144.8 380.94 144.8C381.98 144.8 383.1 144.76 384.22 144.76V138.52C384.22 137.32 385.14 136.76 386.06 136.76C387.02 136.76 387.98 137.36 387.98 138.52L387.94 144.76C388.94 144.76 389.98 144.8 390.94 144.8C393.58 144.84 395.18 146.56 395.22 149.24C395.22 150.4 395.26 151.6 395.26 152.8C395.26 160.48 394.54 170.44 387.1 170.44C386.02 170.44 384.86 170.24 383.62 169.84C382.74 169.52 382.34 168.8 382.34 168.04C382.34 167.08 382.98 166.16 384.06 166.16C384.3 166.16 384.54 166.2 384.82 166.28C385.62 166.52 386.3 166.68 386.94 166.68C388.66 166.68 391.54 165.64 391.54 152.48C391.54 151.52 391.5 150.6 391.5 149.72C391.46 148.6 390.86 148.24 390.02 148.2C389.38 148.2 388.66 148.16 387.9 148.16C387.62 156.6 385.38 165.68 377.86 170.8C377.42 171.12 376.98 171.24 376.54 171.24C375.46 171.24 374.66 170.36 374.66 169.4C374.66 168.84 374.94 168.28 375.58 167.84C376.18 167.44 376.78 166.96 377.3 166.52C372.82 167.76 363.86 169.08 362.74 169.08C361.7 169.08 361.14 168.24 361.14 167.4C361.14 166.64 361.58 165.88 362.54 165.84C364.7 165.68 366.98 165.48 369.18 165.16ZM375.78 152V151.44C375.74 150.16 375.26 150.16 372.5 150.16V152H375.78ZM377.5 162.6L372.54 162.68V164.64C374.38 164.32 376.06 163.96 377.54 163.6C377.66 163.56 377.78 163.56 377.9 163.56C378.58 163.56 379.06 164.04 379.18 164.64C383.06 160.12 384.06 154.2 384.22 148.2C383.1 148.2 381.94 148.24 380.94 148.24C379.82 148.24 379.26 147.4 379.26 146.52C379.26 146.36 379.3 146.16 379.34 146C379.1 146.12 378.78 146.2 378.42 146.2H372.5V147.8C377.74 147.8 379.02 147.88 379.02 152.92C379.02 158.36 378.22 158.48 372.5 158.48V160L377.5 159.88H377.54C378.5 159.88 379.02 160.56 379.02 161.24C379.02 161.92 378.5 162.6 377.5 162.6ZM375.82 154.12H372.5V156.08C375.02 156.08 375.74 156.04 375.78 154.8C375.78 154.56 375.82 154.36 375.82 154.12ZM369.26 152V150.16C366.26 150.16 366.06 150.24 365.98 151.6V152H369.26ZM369.22 156.08V154.12H365.94C365.94 154.4 365.98 154.64 365.98 154.84C366.1 156.04 366.46 156.08 369.22 156.08ZM432.74 142.76H420.38V145.8C421.38 145.8 422.5 145.8 423.82 145.84C426.14 145.88 427.82 147.6 427.9 149.32C427.98 150.56 427.98 152.64 427.98 154.72C427.98 156.8 427.98 158.88 427.9 160.04C427.82 162.12 426.18 163.92 423.62 164C421.34 164.08 420.18 164.12 419.06 164.12C417.78 164.12 416.58 164.08 413.98 164C411.18 163.92 409.62 162.28 409.54 160.08C409.5 158.76 409.46 156.72 409.46 154.72C409.46 152.72 409.5 150.76 409.54 149.64C409.62 147.84 410.74 145.92 413.78 145.84C414.9 145.8 415.82 145.76 416.74 145.76V142.76H404.9C403.62 142.76 403.02 141.88 403.02 141C403.02 140.08 403.7 139.12 404.9 139.12H432.74C433.94 139.12 434.54 140.04 434.54 140.96C434.54 141.84 433.94 142.76 432.74 142.76ZM407.06 149.4V149.44C407.02 151.96 406.98 155.12 406.98 158.12C406.98 160.28 406.98 162.4 407.06 164.04C407.14 165.64 407.7 166.52 409.58 166.6C411.94 166.68 415.26 166.72 418.62 166.72C421.94 166.72 425.26 166.68 427.54 166.6C429.14 166.52 430.14 165.72 430.22 164.16C430.3 162.16 430.34 159.8 430.34 157.36C430.34 154.64 430.3 151.88 430.22 149.56C430.22 149.52 430.22 149.52 430.22 149.48C430.22 148.32 431.18 147.72 432.18 147.72C433.18 147.72 434.18 148.32 434.22 149.56C434.3 151.32 434.3 154 434.3 156.8C434.3 159.6 434.3 162.56 434.22 164.92C434.1 168.36 431.5 170.12 428.54 170.2C425.78 170.32 421.98 170.36 418.26 170.36C414.54 170.36 410.9 170.32 408.42 170.2C405.14 170.08 403.3 168.36 403.22 165C403.18 162.44 403.14 159.56 403.14 156.64C403.14 154.2 403.18 151.76 403.22 149.44C403.26 148.16 404.18 147.56 405.1 147.56C406.06 147.56 407.06 148.2 407.06 149.4ZM420.38 153.24H424.38C424.38 152.08 424.38 151.08 424.34 150.36C424.3 148.8 423.34 148.72 420.38 148.72V153.24ZM416.74 153.24V148.76L414.74 148.8C413.5 148.84 413.02 149.56 412.98 150.4C412.94 151.04 412.94 152.08 412.94 153.24H416.74ZM420.38 161L422.62 160.96C423.66 160.96 424.3 160.6 424.34 159.36C424.38 158.64 424.38 157.44 424.38 156.12H420.38V161ZM416.74 161V156.12H412.94C412.94 157.44 412.94 158.64 412.98 159.4C413.02 160.92 413.58 161 416.74 161ZM462.94 153.8C462.94 156.16 461.06 158.04 458.7 158.04C456.34 158.04 454.46 156.16 454.46 153.8C454.46 151.44 456.34 149.56 458.7 149.56C461.06 149.56 462.94 151.44 462.94 153.8ZM513.74 164.04V164C513.74 162.88 514.54 162.4 515.38 162.4C516.18 162.4 517.3 162.84 517.3 164.36C517.3 168.72 516.26 171.08 511.02 171.08C506.86 171.08 506.18 169.08 506.18 166.48C506.18 164.16 506.22 161.76 506.3 159.52C504.86 159.52 503.5 159.48 502.18 159.44C499.42 159.36 498.06 157.8 498.02 155.6C497.98 153.16 497.94 150.48 497.94 147.8C497.94 145.6 497.98 143.36 498.02 141.16C498.06 139.4 499.18 137.6 502.22 137.44C503.38 137.36 504.66 137.36 505.94 137.36C507.26 137.36 508.54 137.36 509.74 137.44C512.38 137.56 513.9 139.24 513.98 141.12C514.06 143.44 514.1 145.88 514.1 148.36C514.1 150.8 514.06 153.24 513.98 155.56C513.9 157.56 512.38 159.24 509.98 159.44C509.9 161.92 509.82 164.16 509.82 166.08C509.82 167.12 510.18 167.6 511.42 167.6C513.02 167.6 513.74 167.44 513.74 164.44C513.74 164.32 513.74 164.16 513.74 164.04ZM490.86 170.16V170.2C490.86 171.28 489.94 171.84 489.02 171.84C488.1 171.84 487.14 171.28 487.14 170.2V170.16L487.3 157.08C485.26 158.84 483.38 160.08 482.46 160.08C481.38 160.08 480.54 159.2 480.54 158.24C480.54 157.64 480.86 157.04 481.58 156.6C488.34 152.64 490.98 146.92 490.98 146.44C490.98 146.04 490.46 146 490.18 146C489.94 146 489.74 146 489.54 146C487.38 146 485.94 146.16 483.7 146.2H483.66C482.58 146.2 482.02 145.32 482.02 144.48C482.02 143.64 482.54 142.8 483.62 142.8C484.74 142.76 485.94 142.76 487.14 142.72L487.1 138.24C487.1 137.04 488.02 136.44 488.98 136.44C489.9 136.44 490.86 137.04 490.86 138.24L490.82 142.68H492.06C494.18 142.72 495.18 143.8 495.18 145.28C495.18 145.6 495.14 147.84 491.3 152.8C491.38 152.8 491.5 152.76 491.62 152.76C492.38 152.76 496.62 154.72 496.62 156.72C496.62 157.76 495.78 158.68 494.94 158.68C494.54 158.68 494.14 158.52 493.78 158.04C492.94 156.92 491.7 155.96 490.7 155.44C490.74 161.72 490.86 170.16 490.86 170.16ZM504.7 162.16C502.66 169.88 495.26 171.76 493.5 171.76C492.18 171.76 491.54 170.8 491.54 169.84C491.54 169.04 492.02 168.28 492.94 168.16C497.74 167.52 500.34 164.44 501.18 161.24C501.42 160.24 502.14 159.84 502.86 159.84C503.78 159.84 504.78 160.56 504.78 161.64C504.78 161.8 504.74 162 504.7 162.16ZM510.46 143.72L510.42 142.08C510.42 140.4 509.86 140.4 505.78 140.4C502.62 140.4 501.54 140.4 501.54 142.12L501.5 143.72H510.46ZM510.5 149.92V146.72H501.5V149.92H510.5ZM510.46 152.92H501.5C501.5 153.56 501.54 154.24 501.54 154.88C501.62 156.52 502.5 156.56 505.5 156.56C509.98 156.56 510.38 156.48 510.42 154.84C510.42 154.2 510.46 153.56 510.46 152.92ZM555.58 167.76C555.02 167.76 554.42 167.48 554.02 166.72C553.22 165.24 552.06 163.96 550.94 163.12C550.42 162.72 550.22 162.28 550.22 161.88C550.22 161.08 551.02 160.36 551.98 160.36C553.7 160.36 557.5 164 557.5 165.8C557.5 166.92 556.58 167.76 555.58 167.76ZM547.62 162.24C547.26 162.24 546.9 162.08 546.58 161.72C545.5 160.44 543.62 159.72 542.86 159.4C542.26 159.16 541.98 158.72 541.98 158.24C541.98 157.44 542.78 156.52 543.74 156.52C543.98 156.52 549.38 157.8 549.38 160.28C549.38 161.32 548.5 162.24 547.62 162.24ZM533.78 169.16V170.12C533.78 171.16 532.94 171.68 532.06 171.68C531.22 171.68 530.34 171.16 530.34 170.12L530.38 163.4C528.82 164.08 523.66 166.16 522.34 166.16C521.26 166.16 520.66 165.28 520.66 164.36C520.66 163.6 521.06 162.84 521.98 162.6L523.34 162.24L523.38 141.36H522.82C521.66 141.36 521.1 140.52 521.1 139.68C521.1 138.84 521.66 138 522.82 138H534.42C535.62 138 536.22 138.84 536.22 139.68C536.22 139.88 536.18 140.08 536.1 140.28C536.26 140.24 536.38 140.24 536.58 140.24L543.06 140.28V138.24C543.06 137 543.98 136.4 544.94 136.4C545.9 136.4 546.86 137.04 546.86 138.24V140.28L554.58 140.24C555.66 140.24 556.22 141.04 556.22 141.88C556.22 142.68 555.66 143.52 554.58 143.52L546.86 143.48L546.82 146C548.38 146 549.9 146 551.34 146.04C555.06 146.12 555.06 148.68 555.06 151.24C555.06 153.8 554.74 156.16 551.34 156.28C549.5 156.36 547.5 156.4 545.54 156.4C543.26 156.4 541.06 156.36 539.22 156.28C535.62 156.2 535.38 154.24 535.38 151.4C535.38 148.72 535.42 146.08 539.1 146.04C540.38 146 541.7 146 543.1 146L543.06 143.48L536.58 143.52C535.46 143.52 534.9 142.68 534.9 141.84C534.9 141.64 534.9 141.48 534.98 141.28C534.82 141.32 534.62 141.36 534.42 141.36H533.7L533.78 166.56C535.1 165.2 535.94 163.48 536.46 161.96C536.74 161.16 537.3 160.84 537.9 160.84C538.78 160.84 539.7 161.52 539.7 162.48C539.7 163.16 537.54 169.44 534.82 169.44C534.46 169.44 534.1 169.36 533.78 169.16ZM544.02 161.72V161.76C543.98 162.96 543.9 164.2 543.9 165.36C543.9 167.28 543.98 167.8 546.06 167.8C548.1 167.8 548.58 167.24 548.58 166.08C548.58 164.96 549.38 164.44 550.18 164.44C550.54 164.44 552.18 164.56 552.18 166.48C552.18 170.8 548.82 171.12 545.3 171.12C542.66 171.12 540.38 170.72 540.38 166.96C540.38 165.52 540.42 163.52 540.46 161.76C540.5 160.72 541.34 160.24 542.18 160.24C543.1 160.24 544.02 160.8 544.02 161.72ZM548.98 153.52L550.38 153.48C551.7 153.48 551.74 152.6 551.74 151.6C551.74 149.16 551.74 148.96 550.34 148.92L548.98 148.88V153.52ZM546.22 153.52V148.88H543.82V153.52H546.22ZM541.02 153.52V148.88L539.98 148.92C538.74 148.96 538.54 149.16 538.54 151.28C538.54 153.08 538.7 153.44 540.06 153.48L541.02 153.52ZM530.46 145.56V141.36H526.62V145.56H530.46ZM530.42 152.6V148.72H526.62L526.66 152.6H530.42ZM530.38 159.96L530.42 155.76H526.66V161.28C527.94 160.88 529.18 160.48 530.38 159.96ZM594.42 164.96C594.26 167.76 592.34 169.8 589.46 169.92C586.38 170.04 582.1 170.12 577.98 170.12C574.46 170.12 571.06 170.04 568.58 169.92C565.1 169.76 563.38 168.04 563.26 165.08C563.18 162.8 563.1 158.6 563.1 154.32C563.1 150 563.18 145.56 563.26 142.88C563.34 140.32 565.26 138.64 568.26 138.52C570.82 138.44 575.18 138.4 579.46 138.4C583.3 138.4 587.1 138.44 589.54 138.52C591.98 138.64 594.34 140.32 594.42 143.2C594.5 146.08 594.58 150.88 594.58 155.4C594.58 159.16 594.54 162.72 594.42 164.96ZM590.54 163.52C590.66 161.48 590.7 157.8 590.7 154.16C590.7 150.48 590.66 146.76 590.54 144.68C590.42 142.4 589.66 142 587.7 141.96C584.7 141.92 580.7 141.88 577.1 141.88C574.14 141.88 571.46 141.92 569.94 141.96C567.66 142.04 567.06 142.64 566.98 144.68C566.9 146.76 566.82 150.96 566.82 155.08C566.82 158.44 566.86 161.72 566.98 163.64C567.1 165.92 567.86 166.28 570.34 166.36C572.62 166.44 575.78 166.48 578.94 166.48C582.1 166.48 585.26 166.44 587.54 166.36C589.78 166.28 590.46 165.24 590.54 163.52ZM586.26 157.96C586.1 159.96 584.66 161.56 582.54 161.68C581.42 161.72 579.98 161.76 578.5 161.76C577.06 161.76 575.62 161.72 574.54 161.68C572.62 161.56 571.26 160.04 571.18 158.04C571.14 156.88 571.14 155.48 571.14 154.04C571.14 152.64 571.14 151.2 571.18 150C571.26 148.32 572.42 146.68 574.46 146.56C575.42 146.52 576.74 146.48 578.06 146.48C579.74 146.48 581.42 146.52 582.66 146.56C584.26 146.64 586.18 147.8 586.26 149.72C586.34 151.08 586.38 152.8 586.38 154.44C586.38 155.72 586.34 156.96 586.26 157.96ZM578.9 158.48C582.74 158.48 582.74 158.44 582.74 154.64C582.74 153.32 582.7 151.96 582.66 151C582.62 150.24 581.98 149.8 581.3 149.76C580.62 149.72 579.58 149.72 578.54 149.72C577.54 149.72 576.54 149.72 575.9 149.76C575.14 149.8 574.7 150.4 574.66 151.04C574.62 151.92 574.62 153.08 574.62 154.2C574.62 155.28 574.62 156.4 574.66 157.24C574.74 158.44 575.66 158.48 578.9 158.48ZM615.78 143.32C615.5 143.64 615.1 143.76 614.74 143.76C613.98 143.76 613.18 143.2 613.18 142.44C613.18 142.16 613.3 141.84 613.58 141.52C614.26 140.72 614.86 139.76 615.46 138.68C615.66 138.28 616.02 138.12 616.42 138.12C617.3 138.12 618.38 139 618.38 139.92C618.38 140.32 618.26 140.68 615.78 143.32ZM634.82 148.24H632.9C632.5 153.2 631.14 157.84 628.74 161.84C630.5 164.08 632.78 165.92 635.66 167.28C636.46 167.64 636.78 168.28 636.78 168.96C636.78 170.08 635.86 171.24 634.7 171.24C633.58 171.24 629.62 168.84 626.62 164.84C622.98 169.32 618.62 171.56 617.7 171.56C616.58 171.56 615.78 170.56 615.78 169.56C615.78 169.12 615.9 168.72 616.26 168.36C616.22 168.36 616.14 168.36 616.1 168.36C615.78 168.36 615.46 168.28 615.14 168.04C614.42 167.52 613.66 167.04 612.9 166.64C609.98 170.28 605.78 171.2 602.9 171.2C601.86 171.2 601.3 170.4 601.3 169.6C601.3 168.84 601.82 168.08 602.9 168.04C606.1 167.92 608.34 166.92 609.9 165.4C609.02 165.12 608.14 164.96 607.18 164.8L607.02 165.12C606.7 165.8 606.06 166.08 605.42 166.08C604.54 166.08 603.66 165.52 603.66 164.68C603.66 164.4 603.74 164.12 603.94 163.8C604.78 162.44 605.54 161.04 606.14 159.6L603.38 159.64H603.34C602.22 159.64 601.7 158.88 601.7 158.12C601.7 157.32 602.26 156.52 603.38 156.52H607.22C607.42 155.88 607.54 155.24 607.66 154.6C607.78 153.88 608.46 153.56 609.18 153.56C609.3 153.56 609.42 153.6 609.54 153.6C609.3 153.32 609.18 152.96 609.18 152.48L609.26 150.08C606.82 152.48 603.62 154.88 602.42 154.88C601.42 154.88 600.66 153.96 600.66 153.08C600.66 152.52 600.94 152 601.66 151.68C603.7 150.76 606.06 149.2 608.1 147.28L603.62 147.36H603.58C602.46 147.36 601.86 146.6 601.86 145.8C601.86 145.04 602.46 144.24 603.62 144.24H609.3L609.18 138.6V138.56C609.18 137.4 610.06 136.8 610.98 136.8C611.86 136.8 612.74 137.36 612.74 138.56V138.6L612.62 144.24H617.5C618.62 144.24 619.18 145 619.18 145.8C619.18 146.56 618.62 147.36 617.54 147.36H617.5L612.62 147.28L612.66 148.88C612.9 148.48 613.3 148.12 613.78 148.12C614.22 148.12 615.66 148.64 617.34 149.88C617.82 150.28 618.02 150.8 618.02 151.28C618.02 152.2 617.38 153.08 616.62 153.08C616.3 153.08 615.98 152.92 615.66 152.6C614.9 151.8 614.06 151.24 612.94 150.72C612.82 150.68 612.78 150.6 612.7 150.52L612.74 152.48C612.74 152.52 612.74 152.52 612.74 152.56C612.74 153.64 611.86 154.2 610.94 154.2C610.9 154.2 610.82 154.2 610.78 154.2C610.98 154.36 611.06 154.6 611.06 154.88C611.06 154.96 611.06 155.04 611.02 155.16C610.94 155.6 610.82 156.04 610.66 156.52H618.18C619.3 156.52 619.86 157.28 619.86 158.08C619.86 158.84 619.3 159.64 618.22 159.64H618.18L615.94 159.6C615.7 161 615.26 162.48 614.58 163.92C617.66 165.2 617.86 165.72 617.86 166.48C617.86 166.92 617.66 167.36 617.38 167.72C620.5 166.16 622.9 164.12 624.7 161.72C623.14 158.84 622.1 155.72 621.5 152.68C620.82 154.04 620.1 154.48 619.38 154.48C618.54 154.48 617.78 153.8 617.78 152.96C617.78 152.64 617.86 152.32 618.06 152C620.06 148.76 622.14 144.12 622.66 138.6C622.74 137.56 623.58 137.08 624.42 137.08C625.42 137.08 626.5 137.72 626.5 138.76C626.5 139.76 625.42 143.52 624.98 144.92L634.82 144.88C635.94 144.88 636.46 145.72 636.46 146.56C636.46 147.4 635.94 148.24 634.82 148.24ZM606.38 143.92C605.98 143.92 605.58 143.72 605.3 143.2C604.7 142.04 603.9 141.44 603.18 140.52C602.98 140.28 602.9 140.04 602.9 139.8C602.9 138.96 603.9 138.2 604.74 138.2C605.94 138.2 608.1 140.88 608.1 142C608.1 143 607.22 143.92 606.38 143.92ZM629.18 148.24L624.02 148.2C624.3 151.96 625.14 155.48 626.66 158.52C628.14 155.52 628.9 152.08 629.18 148.24ZM612.7 159.56L609.82 159.52H609.58C609.22 160.44 608.78 161.36 608.38 162.28C609.38 162.4 610.5 162.64 611.66 162.96C612.18 161.92 612.54 160.72 612.7 159.56ZM389.264 239.992V243.112C393.056 243.112 396.752 243.16 400.352 243.208C403.28 243.256 405.872 244.888 405.968 248.056C406.016 248.632 406.016 249.016 406.016 249.448C406.016 251.944 405.248 252.52 403.808 252.664C403.808 252.76 403.856 252.808 403.856 252.904C403.856 257.08 400.976 258.088 395.888 258.088C392 258.088 388.832 257.608 388.832 253.336C388.832 253 388.784 251.992 388.784 250.936C388.784 249.064 388.928 247.816 390.848 247.816C391.904 247.816 392.912 248.392 392.912 249.4C392.912 250.6 392.864 252.472 392.864 252.952C392.96 254.392 394.16 254.44 396.128 254.44C398.384 254.44 399.824 254.2 399.824 252.856C399.824 251.944 400.496 251.416 401.312 251.32C401.216 251.08 401.216 250.888 401.216 250.6C401.216 247.768 401.12 247.144 398.624 247.096C394.784 247.048 389.888 247 385.136 247C381.248 247 377.456 247.048 374.528 247.096C371.936 247.144 371.792 247.96 371.744 249.208V251.32V251.368C371.744 252.712 370.592 253.48 369.44 253.48C367.184 253.48 367.136 251.704 367.136 249.64C367.136 247.384 367.184 243.256 372.512 243.208C376.304 243.16 380.24 243.112 384.272 243.112V239.992C384.272 238.36 385.52 237.544 386.768 237.544C388.016 237.544 389.264 238.36 389.264 239.992ZM384.512 250.072C384.512 252.952 375.296 259.672 371.792 259.672C370.352 259.672 369.488 258.568 369.488 257.464C369.488 256.696 369.968 255.88 371.072 255.592C374.096 254.776 378.224 252.76 380.624 248.92C381.008 248.296 381.632 248.008 382.256 248.008C383.36 248.008 384.512 248.872 384.512 250.072ZM403.856 266.488L390.416 266.392C393.296 271.384 398.672 273.784 404.432 274.888C405.872 275.176 406.544 276.136 406.544 277.144C406.544 278.392 405.488 279.64 403.76 279.64C402.992 279.64 392.048 277.528 387.104 268.216C382.544 278.344 369.632 279.976 369.296 279.976C367.76 279.976 366.8 278.776 366.8 277.672C366.8 276.76 367.424 275.848 368.816 275.56C376.496 273.928 381.248 271.432 383.312 266.392L369.536 266.488C368.096 266.488 367.376 265.432 367.376 264.424C367.376 263.368 368.096 262.36 369.536 262.36L384.368 262.456C384.464 261.928 384.464 261.352 384.512 260.776C384.512 260.776 384.512 260.776 384.512 257.944C384.512 256.792 385.568 256.216 386.624 256.216C387.776 256.216 388.976 256.84 388.976 258.04C388.976 260.728 388.832 262.024 388.736 262.456L403.856 262.36C405.296 262.36 406.016 263.368 406.016 264.424C406.016 265.432 405.296 266.488 403.856 266.488ZM446.048 247.72V254.632C446.816 254.632 447.536 254.68 448.208 254.68C451.28 254.776 452.816 255.928 452.816 258.28C452.816 260.2 451.28 265.816 447.536 271C449.312 272.872 451.568 274.312 454.352 275.464C455.408 275.896 455.84 276.712 455.84 277.576C455.84 278.776 454.88 280.024 453.296 280.024C450.896 280.024 446.864 276.664 444.8 274.312C440.96 278.296 436.64 280.312 435.536 280.312C434.192 280.312 433.136 279.208 433.136 278.056C433.136 277.336 433.568 276.568 434.672 276.136C437.6 274.936 440.144 273.112 442.208 270.904C439.184 266.248 438.464 262.216 438.464 261.736C438.464 260.488 439.52 259.768 440.528 259.768C441.392 259.768 442.256 260.248 442.496 261.256C443.072 263.56 443.888 265.576 444.896 267.4C446.768 264.472 448.16 260.344 448.16 259.288C448.16 258.712 447.824 258.424 446.96 258.424C446.432 258.424 445.856 258.424 445.232 258.424C442.688 258.424 439.664 258.472 437.216 258.52C437.168 265.528 436.16 272.92 430.448 278.584C429.872 279.16 429.248 279.352 428.672 279.352C427.472 279.352 426.416 278.44 426.416 277.24C426.416 276.712 426.656 276.088 427.232 275.512C431.984 270.664 432.896 264.472 432.896 257.992C432.896 254.824 432.656 251.608 432.608 248.44C432.608 248.392 432.608 248.344 432.608 248.344C432.608 245.8 434.192 244.12 437.504 244.024C438.704 243.976 440.144 243.976 441.632 243.928L441.584 239.896C441.584 238.504 442.688 237.832 443.84 237.832C444.944 237.832 446.096 238.504 446.096 239.896V243.928C447.872 243.928 449.552 243.928 451.04 244.024C453.728 244.168 455.12 245.608 455.12 247.672C455.12 248.2 455.024 248.776 454.832 249.4C453.632 253 453.008 253.672 451.472 253.672C450.32 253.672 449.168 252.904 449.168 251.848C449.168 251.56 449.264 251.272 449.408 250.984C450.368 249.112 450.368 248.92 450.368 248.68C450.368 248.2 450.128 247.768 449.456 247.768C448.544 247.768 447.344 247.72 446.048 247.72ZM429.056 245.32H423.824C423.296 247.864 422.72 250.264 421.952 252.568C422.336 252.568 422.672 252.568 423.008 252.568C423.824 252.568 424.592 252.568 425.552 252.616C427.76 252.712 429.392 254.44 429.44 256.648C429.536 258.808 429.536 261.016 429.536 263.176C429.536 265.384 429.536 267.544 429.44 269.608C429.296 274.024 425.744 274.12 423.152 274.12C419.504 274.12 417.248 273.88 417.248 268.216C417.248 266.296 417.296 264.328 417.344 262.408C417.104 262.792 416.912 263.176 416.672 263.56C416.144 264.376 415.424 264.76 414.752 264.76C413.696 264.76 412.736 263.848 412.736 262.696C412.736 262.264 412.88 261.736 413.216 261.256C416.72 256.312 418.544 251.8 419.792 245.32H416.672C415.184 245.32 414.512 244.36 414.512 243.4C414.512 242.344 415.28 241.288 416.672 241.288H429.056C430.448 241.288 431.168 242.296 431.168 243.304C431.168 244.312 430.448 245.32 429.056 245.32ZM441.68 254.632L441.632 247.72C438.128 247.72 437.072 247.72 437.072 249.64C437.072 251.224 437.12 252.952 437.168 254.68C438.512 254.68 440.096 254.632 441.68 254.632ZM423.92 270.136C424.736 269.992 425.216 269.608 425.264 268.696C425.312 267.256 425.312 265.72 425.312 264.088C425.312 261.928 425.312 259.672 425.264 257.704C425.264 256.504 424.448 256.312 423.296 256.312C421.952 256.312 421.328 256.504 421.328 257.752C421.28 259.576 421.232 261.688 421.232 263.752C421.232 269.752 421.232 269.896 422.624 270.136C422.864 270.184 423.104 270.184 423.296 270.184C423.536 270.184 423.728 270.184 423.92 270.136ZM480.608 266.584V266.536C480.608 266.248 480.608 265.912 480.608 265.528C480.608 260.872 480.128 249.688 479.84 242.152C479.84 242.104 479.84 242.056 479.84 242.008C479.84 240.232 481.232 239.368 482.624 239.368C484.064 239.368 485.504 240.28 485.504 242.152C485.504 247.816 484.736 261.016 484.736 265.672C484.736 266.824 484.736 268.84 482.624 268.84C481.616 268.84 480.608 268.072 480.608 266.584ZM485.984 275.56C485.984 277.864 483.968 278.728 482.672 278.728C480.848 278.728 479.36 277.192 479.36 275.56C479.36 273.448 481.376 272.248 482.672 272.248C484.544 272.248 485.984 273.4 485.984 275.56Z" fill="black"/>
<path d="M159.041 274.048C159.041 276.568 156.953 277.864 154.865 277.864C152.777 277.864 150.617 276.496 150.617 273.904C150.617 267.208 150.905 251.872 150.905 242.368C150.905 232.288 150.545 231.496 148.097 231.496C147.881 231.496 147.665 231.496 147.449 231.496C147.305 231.496 147.233 231.496 147.089 231.496C144.641 231.496 143.417 229.624 143.417 227.68C143.417 225.592 144.713 223.504 147.161 223.288C148.601 223.216 149.177 223.216 150.689 223.216C155.657 223.216 158.825 226.168 159.041 230.92C159.113 231.856 159.113 233.152 159.113 234.736C159.113 240.496 158.897 250.144 158.897 260.44C158.897 264.904 158.897 269.44 159.041 273.904C159.041 273.976 159.041 273.976 159.041 274.048ZM214.524 259.432C214.524 269.944 206.676 277.936 194.868 277.936C188.244 277.936 179.1 274.48 179.1 269.728C179.1 267.568 180.756 265.624 182.844 265.624C183.636 265.624 184.5 265.984 185.364 266.704C188.316 269.296 191.916 270.448 195.228 270.448C202.716 270.448 206.676 264.976 206.676 259.504C206.676 256.696 205.164 249.856 196.812 249.856C194.868 249.856 192.852 250.288 191.124 250.864C190.116 251.224 189.468 251.8 188.316 251.872C187.956 251.872 187.596 251.944 187.236 251.944C184.068 251.944 182.052 250.504 182.052 247.048C182.052 246.472 183.492 235.312 184.572 228.976C185.292 225.016 186.948 223.216 191.556 223.216C191.7 223.216 191.844 223.216 192.06 223.216C194.148 223.288 195.228 223.288 207.036 223.288C209.556 223.288 210.852 225.232 210.852 227.176C210.852 228.976 209.628 230.848 207.18 230.848C205.164 230.848 195.444 230.776 193.284 230.776C191.916 230.776 191.34 231.424 191.124 232.72C190.764 235.24 189.684 241 189.468 242.44C189.468 242.656 189.468 242.8 189.468 242.944C189.468 243.52 189.612 243.736 190.044 243.736C190.404 243.736 190.98 243.52 191.7 243.376C192.996 243.088 194.94 242.872 197.1 242.872C209.988 242.872 214.524 251.584 214.524 259.432ZM281.528 231.136L255.464 230.92C255.32 234.304 254.96 237.616 254.456 240.784C257.48 240.712 261.08 240.712 264.392 240.712C265.832 240.712 267.128 240.712 268.424 240.712C273.176 240.784 276.128 243.808 276.128 248.776C276.128 272.248 269 280.528 257.552 280.528C254.6 280.528 251.36 279.952 247.832 278.728C246.32 278.224 245.672 276.784 245.672 275.344C245.672 273.4 246.896 271.312 248.912 271.312C249.344 271.312 249.776 271.384 250.28 271.6C252.8 272.68 255.248 273.256 257.48 273.256C266.408 273.256 268.784 262.6 268.784 249.928C268.784 247.912 267.56 247.192 266.12 247.192C265.328 247.192 264.536 247.192 263.672 247.192C260.216 247.192 256.328 247.264 253.232 247.264C249.632 261.952 241.928 273.4 228.968 280.528C228.248 280.96 227.456 281.104 226.808 281.104C224.576 281.104 222.848 279.16 222.848 277.144C222.848 275.92 223.496 274.696 225.08 273.832C241.64 265.264 247.832 247.84 248.12 230.92L227.744 231.136H227.672C225.368 231.136 224.216 229.408 224.216 227.68C224.216 225.952 225.44 224.224 227.744 224.224H281.528C283.688 224.224 284.768 226.024 284.768 227.752C284.768 229.48 283.76 231.136 281.528 231.136ZM354.968 269.728C354.68 274.768 351.224 278.44 346.04 278.656C340.496 278.872 332.792 279.016 325.376 279.016C319.04 279.016 312.92 278.872 308.456 278.656C302.192 278.368 299.096 275.272 298.88 269.944C298.736 265.84 298.592 258.28 298.592 250.576C298.592 242.8 298.736 234.808 298.88 229.984C299.024 225.376 302.48 222.352 307.88 222.136C312.488 221.992 320.336 221.92 328.04 221.92C334.952 221.92 341.792 221.992 346.184 222.136C350.576 222.352 354.824 225.376 354.968 230.56C355.112 235.744 355.256 244.384 355.256 252.52C355.256 259.288 355.184 265.696 354.968 269.728ZM347.984 267.136C348.2 263.464 348.272 256.84 348.272 250.288C348.272 243.664 348.2 236.968 347.984 233.224C347.768 229.12 346.4 228.4 342.872 228.328C337.472 228.256 330.272 228.184 323.792 228.184C318.464 228.184 313.64 228.256 310.904 228.328C306.8 228.472 305.72 229.552 305.576 233.224C305.432 236.968 305.288 244.528 305.288 251.944C305.288 257.992 305.36 263.896 305.576 267.352C305.792 271.456 307.16 272.104 311.624 272.248C315.728 272.392 321.416 272.464 327.104 272.464C332.792 272.464 338.48 272.392 342.584 272.248C346.616 272.104 347.84 270.232 347.984 267.136ZM340.28 257.128C339.992 260.728 337.4 263.608 333.584 263.824C331.568 263.896 328.976 263.968 326.312 263.968C323.72 263.968 321.128 263.896 319.184 263.824C315.728 263.608 313.28 260.872 313.136 257.272C313.064 255.184 313.064 252.664 313.064 250.072C313.064 247.552 313.064 244.96 313.136 242.8C313.28 239.776 315.368 236.824 319.04 236.608C320.768 236.536 323.144 236.464 325.52 236.464C328.544 236.464 331.568 236.536 333.8 236.608C336.68 236.752 340.136 238.84 340.28 242.296C340.424 244.744 340.496 247.84 340.496 250.792C340.496 253.096 340.424 255.328 340.28 257.128ZM327.032 258.064C333.944 258.064 333.944 257.992 333.944 251.152C333.944 248.776 333.872 246.328 333.8 244.6C333.728 243.232 332.576 242.44 331.352 242.368C330.128 242.296 328.256 242.296 326.384 242.296C324.584 242.296 322.784 242.296 321.632 242.368C320.264 242.44 319.472 243.52 319.4 244.672C319.328 246.256 319.328 248.344 319.328 250.36C319.328 252.304 319.328 254.32 319.4 255.832C319.544 257.992 321.2 258.064 327.032 258.064Z" fill="#E89D4F"/>
<path d="M505.971 266.664C509.031 263.324 512.091 259.994 515.151 256.654C516.661 255.004 518.161 253.354 519.671 251.694C521.081 250.144 522.901 248.624 523.871 246.754C524.001 246.494 523.891 245.824 523.481 246.044C522.611 246.504 522.011 247.284 521.361 247.994C520.581 248.834 519.811 249.674 519.021 250.504C517.501 252.124 515.981 253.744 514.471 255.374C511.441 258.634 508.411 261.894 505.381 265.154C505.081 265.474 504.881 266.024 505.081 266.454C505.241 266.804 505.671 266.994 505.981 266.664H505.971Z" fill="black"/>
<mask id="path-4-inside-1_134_642" fill="white">
<path d="M511.451 273.985C513.281 272.025 515.231 270.195 517.251 268.435C518.251 267.565 519.271 266.725 520.311 265.905C520.831 265.495 521.361 265.095 521.891 264.705C522.421 264.315 523.081 263.935 523.581 263.455C523.861 263.185 523.911 262.205 523.311 262.455C522.711 262.705 522.191 263.155 521.681 263.515C521.131 263.895 520.591 264.285 520.051 264.675C518.961 265.475 517.901 266.305 516.861 267.175C514.781 268.905 512.821 270.785 510.961 272.745C510.701 273.015 510.561 273.445 510.721 273.805C510.851 274.105 511.201 274.235 511.451 273.975V273.985Z"/>
</mask>
<path d="M511.451 273.985C513.281 272.025 515.231 270.195 517.251 268.435C518.251 267.565 519.271 266.725 520.311 265.905C520.831 265.495 521.361 265.095 521.891 264.705C522.421 264.315 523.081 263.935 523.581 263.455C523.861 263.185 523.911 262.205 523.311 262.455C522.711 262.705 522.191 263.155 521.681 263.515C521.131 263.895 520.591 264.285 520.051 264.675C518.961 265.475 517.901 266.305 516.861 267.175C514.781 268.905 512.821 270.785 510.961 272.745C510.701 273.015 510.561 273.445 510.721 273.805C510.851 274.105 511.201 274.235 511.451 273.975V273.985Z" fill="black"/>
<path d="M511.451 273.985H505.451V289.203L515.837 278.079L511.451 273.985ZM517.251 268.435L513.313 263.908L513.31 263.911L517.251 268.435ZM523.581 263.455L527.736 267.783L527.746 267.774L523.581 263.455ZM521.681 263.515L525.092 268.451L525.117 268.434L525.141 268.416L521.681 263.515ZM520.051 264.675L516.538 259.81L516.52 259.824L516.501 259.837L520.051 264.675ZM516.861 267.175L520.698 271.787L520.705 271.782L520.711 271.777L516.861 267.175ZM510.961 272.745L515.283 276.906L515.298 276.891L515.313 276.875L510.961 272.745ZM510.721 273.805L516.227 271.419L516.215 271.393L516.204 271.368L510.721 273.805ZM511.451 273.975H517.451V259.078L507.126 269.816L511.451 273.975ZM515.837 278.079C517.489 276.309 519.281 274.624 521.193 272.958L513.31 263.911C511.181 265.765 509.073 267.74 507.066 269.89L515.837 278.079ZM521.189 272.961C522.108 272.162 523.053 271.384 524.026 270.616L516.596 261.193C515.49 262.065 514.394 262.967 513.313 263.908L521.189 272.961ZM524.026 270.616C524.481 270.258 524.956 269.899 525.447 269.537L518.335 259.872C517.767 260.29 517.182 260.731 516.596 261.193L524.026 270.616ZM525.447 269.537C525.644 269.392 525.631 269.415 526.167 269.043C526.532 268.79 527.136 268.359 527.736 267.783L519.426 259.126C519.526 259.03 519.55 259.029 519.328 259.183C519.213 259.263 519.123 259.323 518.937 259.449C518.781 259.555 518.563 259.704 518.335 259.872L525.447 269.537ZM527.746 267.774C528.903 266.658 529.348 265.388 529.526 264.742C529.736 263.981 529.848 263.072 529.74 262.097C529.653 261.314 529.288 259.315 527.42 257.803C525.082 255.911 522.439 256.318 521.004 256.916L525.619 267.993C524.484 268.466 522.059 268.902 519.872 267.132C518.154 265.742 517.872 263.957 517.813 263.422C517.732 262.694 517.817 262.065 517.957 261.556C518.065 261.162 518.4 260.116 519.416 259.135L527.746 267.774ZM521.004 256.916C520.12 257.284 519.431 257.741 519.014 258.033C518.801 258.183 518.606 258.329 518.482 258.42C518.336 258.529 518.274 258.576 518.221 258.613L525.141 268.416C525.344 268.273 525.537 268.129 525.651 268.044C525.787 267.942 525.855 267.893 525.911 267.853C525.961 267.818 525.957 267.823 525.917 267.847C525.874 267.872 525.772 267.929 525.619 267.993L521.004 256.916ZM518.271 258.578C517.661 259 517.07 259.426 516.538 259.81L523.564 269.539C524.112 269.143 524.602 268.789 525.092 268.451L518.271 258.578ZM516.501 259.837C515.31 260.711 514.15 261.62 513.011 262.572L520.711 271.777C521.652 270.989 522.612 270.238 523.601 269.512L516.501 259.837ZM513.024 262.562C510.729 264.471 508.597 266.52 506.609 268.614L515.313 276.875C517.046 275.049 518.834 273.338 520.698 271.787L513.024 262.562ZM506.639 268.583C505.219 270.057 503.808 273.023 505.238 276.241L516.204 271.368C516.766 272.631 516.721 273.846 516.498 274.723C516.28 275.578 515.85 276.318 515.283 276.906L506.639 268.583ZM505.216 276.19C505.913 277.798 507.351 279.302 509.435 279.881C511.759 280.526 514.169 279.805 515.776 278.133L507.126 269.816C508.483 268.404 510.593 267.748 512.647 268.318C514.462 268.822 515.66 270.111 516.227 271.419L505.216 276.19ZM505.451 273.975V273.985H517.451V273.975H505.451Z" fill="#595555" mask="url(#path-4-inside-1_134_642)"/>
<path d="M99.1257 245.162C102.596 248.862 106.066 252.562 109.536 256.272C111.226 258.072 112.906 259.872 114.596 261.662C115.486 262.612 116.376 263.572 117.276 264.512C118.066 265.352 118.846 266.372 119.836 266.972C120.326 267.272 120.516 266.372 120.336 266.072C119.726 265.002 118.746 264.132 117.906 263.242C117.066 262.352 116.216 261.452 115.366 260.562C113.626 258.722 111.886 256.882 110.146 255.032C106.706 251.402 103.276 247.772 99.8457 244.142C99.3357 243.602 98.7357 244.742 99.1257 245.162Z" fill="black"/>
<path d="M102.986 263.442C104.916 264.722 106.846 266.012 108.766 267.292C110.686 268.572 112.566 269.932 114.646 270.932C115.256 271.222 115.556 270.142 115.156 269.782C113.406 268.242 111.406 267.002 109.466 265.712C107.526 264.422 105.616 263.142 103.686 261.852C102.946 261.362 102.326 263.012 102.986 263.452V263.442Z" fill="black"/>
</svg>
