<svg width="658" height="295" viewBox="0 0 658 295" fill="none" xmlns="http://www.w3.org/2000/svg">
<g filter="url(#filter0_d_249_42)">
<path d="M4 0H654V107.143H4V0Z" fill="white"/>
<path d="M45.6667 119.048H613.524V226.19H45.6667V119.048Z" fill="white"/>
<path d="M554.295 181.086V181.01C554.295 180.552 554.295 180.019 554.295 179.41C554.295 172.019 553.533 154.267 553.076 142.305C553.076 142.229 553.076 142.152 553.076 142.076C553.076 139.257 555.286 137.886 557.495 137.886C559.781 137.886 562.067 139.333 562.067 142.305C562.067 151.295 560.848 172.248 560.848 179.638C560.848 181.467 560.848 184.667 557.495 184.667C555.895 184.667 554.295 183.448 554.295 181.086ZM562.829 195.333C562.829 198.99 559.629 200.362 557.572 200.362C554.676 200.362 552.314 197.924 552.314 195.333C552.314 191.981 555.514 190.076 557.572 190.076C560.543 190.076 562.829 191.905 562.829 195.333Z" fill="#5C6A82"/>
<path d="M512.086 174.229C512.695 179.79 505.153 181.314 504.086 176.057C502.867 169.962 499.743 164.095 495.629 161.276C491.972 158.762 496.086 153.124 500.657 156.552C506.067 160.59 511.324 167.752 512.086 174.229ZM478.791 186.8C473.914 194.724 467.133 194.038 462.867 189.467C457.381 183.524 454.867 174.686 454.257 165.086C453.953 160.743 453.8 159.371 453.876 156.629C454.029 151.829 461.419 150.838 461.648 156.552C461.8 159.524 461.495 159.676 461.648 163.181C461.953 171.181 463.4 178.724 467.667 182.838C469.648 184.743 470.638 184.971 472.314 182.686C473.229 181.39 474.295 179.41 474.829 178.19C476.886 173.771 483.21 176.971 481.762 180.933C481 183.067 479.629 185.429 478.791 186.8Z" fill="#5C6A82"/>
<path d="M429.115 164.019C425.534 161.733 421.648 160.59 417.229 160.819C413.038 161.048 412.734 154.724 417.61 154.267C422.638 153.81 427.972 154.724 431.629 156.933C436.81 160.057 432.848 166.381 429.115 164.019ZM394.753 156.4C390.867 157.162 387.591 156.857 384.696 156.019C380.048 154.724 381.496 147.714 386.905 149.467C389.419 150.305 393.381 150.229 397.343 149.238C398.105 146.724 398.486 144.286 398.867 141.543C399.553 137.048 406.257 137.886 406.105 142.229C406.029 143.371 405.572 145.048 405.038 146.876C405.953 146.419 406.791 146.038 407.476 145.581C410.905 143.143 415.705 147.867 410.829 151.371C408.924 152.743 405.8 153.962 402.676 154.876C399.096 163.486 393.915 172.629 389.038 180.552C386.219 185.124 378.905 182.152 382.257 177.2C386.524 170.876 391.019 164.4 394.753 156.4ZM418.753 192.133C416.543 198.229 407.019 203.562 397.8 198.914C390.715 195.333 389.876 187.105 397.724 183.6C402.448 181.467 407.629 181.314 412.353 182.152C412.353 181.314 412.353 180.476 412.353 179.486C412.353 177.581 412.2 175.676 412.124 173.771C412.048 172.248 412.2 170.114 412.505 168.667C413.419 164.476 420.124 165.467 419.362 170.038C419.134 171.181 418.905 172.019 418.905 173.619C418.905 175.371 418.905 177.276 418.981 179.486C419.057 180.933 419.21 182.533 419.286 184.21C423.324 185.886 426.676 188.248 428.581 190.305C432.924 195.105 426.753 200.514 423.096 196.095C421.953 194.724 420.505 193.352 418.753 192.133ZM411.972 188.552C408.086 187.257 403.972 187.105 400.238 188.933C398.181 190 398.029 192.21 400.315 193.352C404.886 195.638 411.057 193.429 411.896 189.314C411.972 189.086 411.896 188.781 411.972 188.552Z" fill="#5C6A82"/>
<path d="M341.115 194.495C343.477 199.6 336.086 204.095 333.648 199.219C329.229 190.533 322.753 180.629 317.496 174.457C312.467 168.59 312.467 163.181 318.41 157.01C323.591 151.6 329.457 145.962 334.029 139.79C337.534 135.143 344.391 140.552 340.81 144.971C337 149.619 328.924 156.248 324.2 160.971C320.924 164.248 320.772 166.533 323.286 169.657C330.905 179.181 337.381 186.343 341.115 194.495Z" fill="#5C6A82"/>
<path d="M276.429 166.838C272.162 165.39 265.229 164.552 261.191 166.076C257.229 167.524 254.867 161.276 259.895 159.524C263.781 158.152 270.715 157.238 278.181 159.905C283.286 161.733 281.229 168.438 276.429 166.838ZM276.429 197.695C265.381 199.905 255.934 196.4 252.581 192.667C249.305 189.01 254.029 182.99 257.991 187.029C261.876 190.99 266.524 190.61 275.438 189.848C281 189.39 281.457 196.705 276.429 197.695ZM248.01 157.771C243.21 174.457 237.8 187.638 234.067 196.095C231.781 201.2 223.705 198.99 226.905 192.514C230.181 185.81 235.591 174.229 240.238 159.448C236.2 159.905 232.315 159.752 229.115 158.381C225.229 156.705 225.991 149.771 231.705 151.829C234.905 152.971 238.638 152.971 242.219 152.286C242.676 149.467 242.372 147.41 242.143 144.057C241.838 139.714 249 139.486 249.762 143.676C250.067 145.581 250.067 147.638 249.838 149.771C250.905 149.238 251.819 148.705 252.734 148.171C256.695 145.581 261.419 151.905 255.705 154.724C253.572 155.79 250.829 156.933 248.01 157.771Z" fill="#5C6A82"/>
<path d="M174.105 169.352H174.486C180.2 169.581 185.838 170.876 191.019 172.705C191.476 169.581 191.171 166.762 189.952 164.705C187.819 161.124 194.676 158.229 197.19 162.952C198.867 166 199.095 170.571 197.952 175.6C201.914 177.505 205.495 179.79 208.467 182.076C213.267 185.81 208.086 192.819 203.743 188.857C201.229 186.571 198.486 184.514 195.438 182.686C192.619 188.4 187.819 194.114 180.962 198.152C175.629 201.276 171.819 195.333 176.771 192.286C182.486 188.781 186.448 184.057 188.81 179.41C183.171 177.048 177.152 175.676 171.057 175.6C168.238 181.467 165.648 186.19 161.305 189.543C156.733 193.124 150.029 193.581 146.752 189.543C142.867 184.667 145.686 176.743 154.448 172.857C158.486 171.105 162.752 170.038 166.943 169.581C169.61 163.867 173.114 156.933 175.248 152.133C175.705 151.067 175.933 150.457 174.791 150.762C171.819 151.524 168.924 152.514 165.8 152.59C160.771 152.743 161 145.657 165.571 145.352C168.619 145.2 173.267 144.057 176.543 143.448C183.476 142.076 186.524 146.571 183.095 152.133C179.895 157.467 176.848 163.638 174.105 169.352ZM163.667 176.21C161.686 176.514 159.4 177.124 156.581 178.495C154.6 179.486 151.019 182.686 152.314 184.59C153.229 185.886 155.971 185.429 157.343 184.362C159.857 182.457 161.914 179.333 163.667 176.21Z" fill="#5C6A82"/>
<path d="M123.438 157.162C122.524 158.305 121.381 158.762 120.314 158.762C118.41 158.762 116.657 157.39 116.657 155.562C116.657 154.952 116.886 154.19 117.495 153.429C120.848 149.162 123.057 144.21 124.733 139.943C125.267 138.571 126.486 137.962 127.781 137.962C129.838 137.962 132.124 139.41 132.124 141.543C132.124 142.99 127.857 151.676 123.438 157.162ZM111.172 154.19C109.8 154.19 108.505 153.352 108.2 151.524C107.667 148.4 105.914 144.286 104.162 141.848C103.705 141.238 103.552 140.705 103.552 140.095C103.552 138.419 105.229 137.048 107.057 137.048C111.781 137.048 114.905 148.705 114.905 150.229C114.905 152.743 113 154.19 111.172 154.19ZM98.981 156.248C97.6858 156.248 96.4667 155.562 96.0096 153.81C95.0953 150.762 92.962 146.876 90.7525 144.667C90.1429 144.057 89.8382 143.371 89.8382 142.686C89.8382 141.086 91.5144 139.638 93.3429 139.638C97.381 139.638 102.867 149.086 102.867 152.286C102.867 154.648 100.81 156.248 98.981 156.248ZM113.305 181.238C110.333 185.81 105.686 191.524 102.638 191.524C100.733 191.524 99.2096 190.076 99.2096 188.4C99.2096 187.562 99.6667 186.648 100.657 185.886C103.629 183.676 106.372 180.324 108.581 176.743C106.143 174.686 103.629 172.933 101.495 171.79C100.352 171.181 99.8191 170.267 99.8191 169.352C99.8191 167.829 101.267 166.305 103.172 166.305C104.238 166.305 105.686 166.686 111.629 170.952C112.695 168.514 113.533 166.076 113.991 163.867C114.371 162.19 115.743 161.429 117.191 161.429C119.019 161.429 120.924 162.648 120.924 164.705C120.924 165.467 119.857 169.581 116.886 175.219C121.762 179.638 122.752 181.39 122.752 182.914C122.752 184.971 120.848 186.8 118.943 186.8C118.029 186.8 117.114 186.343 116.429 185.276C115.667 184.057 114.6 182.61 113.305 181.238ZM97.762 165.39V165.467C97.6858 168.971 97.6858 173.695 97.6858 178.343C97.6858 182.99 97.6858 187.638 97.762 191.067C97.762 194.343 99.4382 194.343 110.867 194.343C114.524 194.343 118.333 194.267 121.076 194.114C123.21 193.962 124.2 192.59 124.276 191.143C124.352 187.638 124.429 181.924 124.429 176.362C124.429 172.4 124.352 168.514 124.352 165.543C124.352 163.486 126.105 162.419 127.933 162.419C129.686 162.419 131.514 163.486 131.514 165.543C131.514 169.048 131.591 173.01 131.591 176.971C131.591 182.61 131.514 188.171 131.438 192.286C131.362 197.162 128.162 200.59 122.524 200.819C118.943 200.971 114.829 201.048 110.714 201.048C106.676 201.048 102.638 200.971 99.1334 200.819C93.4191 200.59 90.7525 197.543 90.6763 192.59C90.6763 188.781 90.6001 183.905 90.6001 179.105C90.6001 174.229 90.6763 169.352 90.6763 165.467C90.7525 163.562 92.581 162.495 94.3334 162.495C96.0858 162.495 97.762 163.486 97.762 165.39ZM76.5048 199.6V139.105C76.5048 136.819 78.2572 135.752 80.0858 135.752C81.9144 135.752 83.7429 136.895 83.7429 139.105V150.457C84.3525 150.076 85.0382 149.848 85.8001 149.848C88.162 149.848 92.8858 155.257 92.8858 157.543C92.8858 159.448 91.0572 160.971 89.381 160.971C88.5429 160.971 87.7048 160.514 87.1715 159.524C86.181 157.467 84.7334 155.486 83.7429 154.419V199.6C83.7429 201.733 81.9144 202.8 80.0858 202.8C78.2572 202.8 76.5048 201.733 76.5048 199.6ZM67.9715 170.648C66.2191 170.648 64.6953 169.276 64.6953 167.371C64.6953 166.61 64.9239 165.771 65.4572 164.857C67.362 161.733 68.3525 157.771 68.3525 153.886C68.3525 151.752 69.8001 150.838 71.4001 150.838C72.162 150.838 74.981 151.219 74.981 154.267C74.981 157.848 73.0001 170.648 67.9715 170.648Z" fill="#5C6A82"/>
<path d="M622.577 51.3333C621.51 50.1143 617.548 47.4476 615.948 46.8381C611.834 45.2381 614.806 40.3619 618.539 41.5809C620.672 42.2667 624.786 44.3238 626.615 46.1524C629.815 49.3524 625.32 54.3809 622.577 51.3333ZM614.729 58.2667C613.663 57.0476 609.853 54.1524 608.253 53.4667C604.215 51.7143 607.263 46.9905 610.996 48.3619C613.129 49.1238 617.244 51.2571 618.996 53.1619C622.12 56.5143 617.396 61.3905 614.729 58.2667ZM607.415 84.9333C584.406 84.8571 576.482 63.7524 584.786 48.4381C585.548 46.9905 586.234 45.7714 587.225 44.4762C588.444 42.8762 588.063 42.9524 586.615 43.4095C580.901 45.2381 582.196 45.2381 577.015 47.219C574.577 48.1333 572.444 48.8952 570.158 49.5048C563.453 51.3333 561.396 42.5714 567.491 41.2762C569.091 40.8952 573.51 40.0571 575.948 39.4476C579.682 38.5333 586.386 37.0095 594.158 34.8C602.006 32.5905 608.177 30.7619 614.882 30.3048C619.606 30 620.901 33.7333 620.063 36.1714C619.605 37.4667 617.929 38.9905 612.596 38.6857C608.71 38.4571 603.91 39.9048 601.32 40.819C597.053 42.3429 593.167 46.9143 591.491 49.7333C584.786 60.9333 589.891 76.9333 606.958 76.3238C614.958 76.019 615.491 85.0095 607.415 84.9333Z" fill="#5C6A82"/>
<path d="M509.815 53.3143C507.834 47.2952 504.177 39.8286 500.672 35.5619C496.71 30.6857 504.177 26.5714 507.224 30.9143C510.501 35.5619 513.929 42.3429 516.139 48.6667C520.253 45.7714 524.596 43.0286 529.548 40.2857C534.729 37.3905 538.691 44.7048 532.824 47.6762C525.053 51.6381 517.205 56.0571 511.186 61.1619C503.644 67.5619 503.415 73.2762 509.358 76.1714C514.691 78.8381 525.586 76.8571 530.158 75.181C536.558 72.7429 538.844 81.5048 532.063 83.4095C526.044 85.0857 513.32 86.6095 505.777 82.8C494.805 77.2381 495.263 64.8952 507.605 55.0667C508.367 54.4571 509.053 53.8476 509.815 53.3143Z" fill="#5C6A82"/>
<path d="M450.387 44.3238C443.301 42.8 435.225 42.6476 427.758 44.0952C421.739 45.2381 420.748 37.1619 427.529 36.1714C434.767 35.1048 445.51 35.0286 451.834 36.4C458.234 37.7714 456.558 45.619 450.387 44.3238ZM457.853 81.4286C442.767 86.1524 424.482 82.5714 419.225 75.181C416.482 71.2952 421.434 66.0381 425.548 70.2286C432.025 76.8571 444.367 76.3238 455.872 73.0476C462.196 71.2952 464.025 79.5238 457.853 81.4286Z" fill="#5C6A82"/>
<path d="M383.872 39.5238C382.729 38.3048 378.691 35.4857 377.015 34.8762C372.748 33.2762 375.872 28.2476 379.757 29.5429C381.967 30.3048 386.157 32.2857 388.062 34.1905C391.415 37.4667 386.691 42.6476 383.872 39.5238ZM375.719 46.8381C374.653 45.5429 370.615 42.5714 368.938 41.8857C364.748 40.1333 368.024 35.2571 371.834 36.7048C374.043 37.5429 378.234 39.6762 380.062 41.5809C383.262 45.0095 378.462 50.0381 375.719 46.8381ZM386.996 76.3238C372.138 88.4381 347.757 90.6476 347.072 70.0762C346.767 62.0762 347.605 55.6 347.986 47.5238C348.215 42.5714 348.748 35.1048 348.596 30.3809C348.443 24.7428 357.053 25.2 356.9 30.2286C356.748 35.0286 356.215 42.2667 355.834 47.3714C355.3 55.4476 354.157 62.3809 354.462 69.7714C354.919 80.8952 368.481 80.1333 381.738 69.6952C386.691 65.8095 391.338 72.819 386.996 76.3238Z" fill="#5C6A82"/>
<path d="M300.824 43.4857H273.777C271.796 43.4857 270.805 41.9619 270.805 40.4381C270.805 38.8381 271.796 37.3143 273.777 37.3143H300.824C302.805 37.3143 303.72 38.8381 303.72 40.3619C303.72 41.9619 302.805 43.4857 300.824 43.4857ZM316.9 66.8L317.053 77.5429C317.053 77.619 317.053 77.619 317.053 77.6952C317.053 82.1905 314.234 87.9048 303.948 87.9048C297.167 87.9048 295.186 86.6095 295.186 83.4857C295.186 81.6571 296.329 79.9048 298.31 79.9048C298.539 79.9048 298.767 79.9048 298.996 79.9809C300.672 80.2857 302.348 80.5143 303.872 80.5143C306.996 80.5143 309.358 79.5238 309.358 76.0952C309.358 43.7905 309.358 43.0286 309.129 36.8571C308.977 32.3619 306.996 31.9048 303.72 31.8286C298.158 31.7524 292.596 31.6762 287.11 31.6762C281.624 31.6762 276.215 31.7524 271.034 31.8286C266.691 31.9048 265.472 33.2 265.396 37.0857C265.167 46.0762 265.091 55.7524 265.091 65.8857C265.091 72.2857 265.091 78.8381 265.167 85.5429V85.619C265.167 87.8286 263.262 88.8952 261.434 88.8952C259.453 88.8952 257.548 87.7524 257.548 85.619C257.548 65.1238 257.853 40.9714 258.005 34.3429C258.081 29.0095 261.586 25.4286 267.529 25.2762C274.234 25.1238 281.32 25.0476 288.558 25.0476C294.805 25.0476 301.129 25.1238 307.3 25.2762C312.786 25.4286 316.443 28.6286 316.596 33.8857C316.9 45.4667 316.748 58.1905 316.9 66.8ZM301.281 61.0857C301.281 72.3619 300.977 73.5048 287.034 73.5048C274.996 73.5048 273.015 73.2 273.015 61.9238C273.015 59.6381 273.091 57.2 273.167 55.3714C273.396 51.7905 275.529 49.2762 279.643 49.1238C282.31 49.0476 285.053 48.9714 287.796 48.9714C290.081 48.9714 292.367 49.0476 294.577 49.1238C298.539 49.2762 300.977 51.6381 301.129 55.3714C301.205 57.0476 301.281 59.1048 301.281 61.0857ZM294.424 65.1238C294.5 64.2857 294.5 63.1429 294.5 61.9238C294.5 60.1714 294.5 58.3429 294.424 57.1238C294.272 54.7619 292.367 54.6857 286.805 54.6857C285.129 54.6857 283.453 54.7619 281.929 54.8381C279.567 54.9905 279.491 56.5143 279.491 60.5524C279.491 62.1524 279.491 63.8286 279.567 64.9714C279.72 67.3333 281.015 67.4857 287.262 67.4857C292.9 67.4857 294.348 66.9524 294.424 65.1238Z" fill="#5C6A82"/>
<path d="M191.186 88.9714C190.12 88.9714 189.053 88.4381 188.291 87.2952C186.386 84.4762 182.196 80.9714 178.92 79.2952C177.472 78.5333 176.863 77.3905 176.863 76.2476C176.863 74.4952 178.234 72.8952 180.443 72.8952C183.11 72.8952 195.301 79.6 195.301 84.781C195.301 87.2191 193.243 88.9714 191.186 88.9714Z" fill="#5C6A82"/>
<path d="M143.57 33.3524C138.161 32.3619 132.675 30.0762 129.475 28.2476C125.132 25.8095 128.332 19.8667 133.666 22.3048C136.942 23.7524 141.285 24.9714 145.475 25.6571C151.723 26.7238 149.208 34.419 143.57 33.3524ZM136.637 88.4381C131.608 92.1714 126.58 85.9238 131.075 82.7238C144.713 73.1238 148.904 59.6381 145.78 50.8C143.647 44.8571 137.932 44.5524 132.675 47.6762C131.151 48.5905 126.961 50.7238 125.285 51.1809C119.266 52.7048 117.361 45.2381 122.923 43.2571C124.904 42.5714 127.342 41.7333 129.475 40.819C137.247 37.3905 148.447 37.6952 152.485 46.4571C158.351 59.181 151.875 77.2381 136.637 88.4381Z" fill="#5C6A82"/>
<path d="M62.471 66.1143C62.3186 68.3238 62.3186 70.381 62.3948 72.2857C62.8519 83.181 74.7377 82.7238 78.6996 74.2667C81.3662 68.5524 79.2329 63.5238 74.9662 58.8762C71.0043 54.5333 77.5567 50.4952 80.9091 54.381C86.8519 61.2381 88.9853 68.4762 86.09 76.1714C80.6043 90.6476 56.2996 93.1619 55.69 72.819C55.6138 70.6857 55.6138 68.4 55.7662 66.0381C53.0234 65.8095 50.89 65.3524 49.8996 65.1238C43.7281 63.4476 46.09 56.2095 50.4329 57.6571C52.1853 58.1905 54.1662 58.6476 56.2996 58.8C56.6043 55.4476 56.9853 52.0952 57.3662 48.6667C54.471 48.2857 52.0329 47.7524 51.0424 47.3714C45.2519 45.3905 48.6043 38.381 52.6424 40.0571C54.3186 40.7429 56.2234 41.2762 58.1281 41.5048C58.2043 40.5905 58.3567 39.6 58.4329 38.6857C58.89 33.8857 59.0424 30.9905 59.271 27.4095C59.6519 22.0762 66.89 23.2952 66.89 27.7905C66.89 31.3714 66.1281 34.2667 65.5948 38.7619C65.5186 39.6762 65.3662 40.5905 65.29 41.5048C65.9757 41.4286 66.5853 41.2762 67.1948 41.1238C72.1472 39.981 73.4424 46.7619 68.9472 48.0571C67.4234 48.5143 65.8996 48.6667 64.2996 48.819C63.8424 52.2476 63.4615 55.5238 63.1567 58.7238C64.4519 58.5714 65.671 58.3429 66.8138 58.0381C71.8424 56.6667 73.7472 63.3714 69.2519 64.8952C67.1948 65.581 64.8329 65.9619 62.471 66.1143Z" fill="#5C6A82"/>
</g>
<path d="M101.16 272.888H76.872C75.688 272.888 75.08 272.024 75.08 271.16C75.08 270.296 75.688 269.432 76.872 269.432H101.16C102.312 269.432 102.856 270.296 102.856 271.128C102.856 272.024 102.28 272.888 101.16 272.888ZM122.376 263.864V263.992C122.408 264.056 122.408 264.152 122.408 264.248C123.016 272.088 128.776 278.904 134.12 280.888C135.016 281.208 135.368 281.816 135.368 282.456C135.368 283.416 134.536 284.408 133.256 284.408C130.536 284.408 123.784 278.584 121 271.288C119.208 276.824 115.592 281.752 109.48 284.6C109.16 284.76 108.84 284.824 108.552 284.824C107.496 284.824 106.696 283.96 106.696 283.064C106.696 282.456 107.048 281.88 107.88 281.496C118.792 276.632 119.08 265.4 119.08 263C119.08 262.04 119.016 260.952 118.952 259.992C118.952 259.96 118.952 259.928 118.952 259.896C118.952 258.84 119.848 258.296 120.744 258.296C121.608 258.296 122.504 258.84 122.504 259.992C122.504 261.112 122.472 262.488 122.376 263.864ZM165.896 269.56C165.448 269.048 163.784 267.928 163.112 267.672C161.384 267 162.632 264.952 164.2 265.464C165.096 265.752 166.824 266.616 167.592 267.384C168.936 268.728 167.048 270.84 165.896 269.56ZM162.6 272.472C162.152 271.96 160.552 270.744 159.88 270.456C158.184 269.72 159.464 267.736 161.032 268.312C161.928 268.632 163.656 269.528 164.392 270.328C165.704 271.736 163.72 273.784 162.6 272.472ZM159.528 283.672C149.864 283.64 146.536 274.776 150.024 268.344C150.344 267.736 150.632 267.224 151.048 266.68C151.56 266.008 151.4 266.04 150.792 266.232C148.392 267 148.936 267 146.76 267.832C145.736 268.216 144.84 268.536 143.88 268.792C141.064 269.56 140.2 265.88 142.76 265.336C143.432 265.176 145.288 264.824 146.312 264.568C147.88 264.184 150.696 263.544 153.96 262.616C157.256 261.688 159.848 260.92 162.664 260.728C164.648 260.6 165.192 262.168 164.84 263.192C164.648 263.736 163.944 264.376 161.704 264.248C160.072 264.152 158.056 264.76 156.968 265.144C155.176 265.784 153.544 267.704 152.84 268.888C150.024 273.592 152.168 280.312 159.336 280.056C162.696 279.928 162.92 283.704 159.528 283.672ZM175.336 280.856V274.456C172.776 275.416 172.552 275.448 172.264 275.448C171.24 275.448 170.664 274.68 170.664 273.912C170.664 273.336 170.984 272.76 171.752 272.536C173.032 272.152 174.216 271.768 175.336 271.352V265.944H172.456C171.496 265.944 171.016 265.24 171.016 264.536C171.016 263.832 171.496 263.128 172.456 263.128H175.336L175.304 258.296C175.304 257.304 176.072 256.792 176.84 256.792C177.608 256.792 178.344 257.272 178.344 258.296V263.128H179.976C180.904 263.128 181.416 263.864 181.416 264.568C181.416 264.696 181.384 264.824 181.352 264.952C183.112 262.904 184.296 260.312 185.096 258.008C185.32 257.4 185.832 257.144 186.376 257.144C187.208 257.144 188.104 257.72 188.104 258.552C188.104 258.776 187.816 259.64 187.208 260.92C189.352 260.888 192.488 260.856 194.184 260.856C196.232 260.888 197.544 262.136 197.64 263.96C197.672 264.696 197.704 265.496 197.704 266.328C197.704 275.352 196.264 278.264 192.52 278.264C191.528 278.264 189.352 278.264 189.352 276.504C189.352 275.768 189.864 275.064 190.824 275.064C190.984 275.064 191.144 275.096 191.304 275.128C191.72 275.224 192.104 275.256 192.392 275.256C193.48 275.256 193.896 274.616 194.248 272.76C194.6 270.936 194.76 268.6 194.76 266.552C194.76 263.864 194.728 263.448 193.704 263.448C193.16 263.448 192.456 263.448 191.656 263.448C189.768 263.448 187.432 263.448 185.832 263.48C185.448 264.12 185.064 264.76 184.616 265.368C185.768 265.368 188.072 265.4 189.064 265.4C191.272 265.432 191.816 266.232 191.816 269.72C191.816 272.856 191.592 273.944 188.552 273.944C188.072 273.944 187.56 273.944 187.08 273.944C185.288 273.944 185.288 274.2 185.288 277.72C185.288 278.616 185.32 279.512 185.352 280.376C185.416 281.816 186.568 281.848 189.416 281.848C191.144 281.848 193.064 281.816 193.768 281.688C195.432 281.432 195.912 280.12 195.912 278.648C195.912 277.624 196.648 277.176 197.384 277.176C198.216 277.176 199.048 277.72 199.048 278.68C199.048 284.6 194.856 284.632 189.928 284.632C185.224 284.632 182.472 284.504 182.408 280.92C182.408 279.992 182.376 279 182.376 278.008C182.376 276.76 182.408 275.512 182.472 274.392C182.568 272.632 183.464 271.576 185.64 271.512C185.64 271.512 185.64 271.512 188.136 271.512C188.68 271.512 189.096 271.384 189.096 269.944C189.096 267.896 189.064 267.896 187.144 267.896C186.248 267.896 185.16 267.896 184.488 267.928C184.456 267.928 184.424 267.928 184.424 267.928C183.784 267.928 183.4 267.544 183.24 267.128C182.76 267.672 182.312 268.216 181.576 268.216C180.776 268.216 180.04 267.576 180.04 266.84C180.04 266.52 180.168 266.2 180.456 265.88C180.328 265.912 180.136 265.944 179.976 265.944H178.344V270.168C178.952 269.912 179.528 269.592 180.104 269.304C180.296 269.208 180.52 269.144 180.712 269.144C181.416 269.144 181.96 269.784 181.96 270.488C181.96 271.384 181.672 271.544 178.312 273.176V276.696C178.312 277.208 178.408 280.12 178.44 281.24C178.44 281.272 178.44 281.336 178.44 281.368C178.44 283.384 177.288 284.952 174.568 284.952C173.032 284.952 171.688 284.696 171.688 283.224C171.688 282.488 172.136 281.752 172.936 281.752C173.032 281.752 173.128 281.752 173.224 281.784C173.512 281.848 173.864 281.912 174.184 281.912C174.792 281.912 175.336 281.688 175.336 280.856ZM219.208 263.384C217.32 262.712 215.112 261.304 214.44 260.76C212.808 259.448 214.728 257.368 216.616 258.552C217.704 259.224 219.016 259.928 220.616 260.472C222.952 261.272 221.416 264.152 219.208 263.384ZM214.248 277.144C215.464 276.696 217.32 276.76 218.248 278.776C218.792 279.96 219.56 280.952 221.096 280.888C222.504 280.824 224.712 280.504 226.152 279.864C228.584 278.776 229.736 282.072 227.176 283.032C225.256 283.736 222.216 284.12 219.912 283.8C217.8 283.48 216.488 282.456 215.72 280.504C215.016 278.776 212.648 278.52 210.568 281.848C209.448 283.64 208.52 283.8 207.88 283.832C206.824 283.896 205.384 282.84 206.792 281.24C207.848 280.024 209.512 278.2 210.632 277.208C211.752 276.216 212.648 275.224 213.672 274.232C215.144 272.792 217.224 270.648 218.824 268.792C219.176 268.376 218.952 268.44 218.664 268.568C216.296 269.72 214.056 270.648 212.072 271.096C209.352 271.704 208.904 268.376 211.112 268.056C212.552 267.832 215.048 267.192 216.744 266.552C217.576 266.232 218.344 265.848 219.24 265.72C221.896 265.368 223.848 267.768 222.184 269.496C220.68 271.096 215.848 275.544 214.248 277.144ZM250.728 261.112L246.984 261.304C246.952 261.304 246.92 261.304 246.888 261.304C245.992 261.304 245.512 260.6 245.512 259.928C245.512 259.224 245.992 258.52 246.92 258.52C248.136 258.488 249.64 258.456 251.016 258.456C252.584 258.456 253.928 259.256 253.992 260.76C254.184 265.944 257 273.112 261.928 276.088C262.472 276.408 262.696 276.888 262.696 277.336C262.696 278.264 261.864 279.16 260.904 279.16C259.368 279.16 255.272 275.256 252.904 268.28C251.72 272.536 249.64 276.376 246.088 278.936C245.8 279.16 245.48 279.224 245.192 279.224C244.296 279.224 243.496 278.424 243.496 277.592C243.496 277.208 243.688 276.792 244.168 276.472C248.936 273.336 250.952 267.512 251.368 261.976C251.336 261.784 251.304 261.624 251.304 261.432C251.304 261.304 251.176 261.112 250.792 261.112C250.792 261.112 250.76 261.112 250.728 261.112ZM241.672 264.696C241.256 264.696 240.84 264.472 240.52 264.024C239.592 262.68 238.152 261.656 237.224 261.144C236.744 260.888 236.552 260.504 236.552 260.152C236.552 259.384 237.352 258.616 238.248 258.616C239.08 258.616 243.368 261.048 243.368 262.904C243.368 263.864 242.536 264.696 241.672 264.696ZM241.48 281.08C238.984 283.64 237.32 284.856 236.456 284.856C235.432 284.856 234.664 283.832 234.664 283.096C234.664 282.648 234.888 282.2 235.464 281.88C237.192 280.92 238.824 279.736 239.944 278.584C239.976 277.144 240.008 275.896 240.008 274.68C240.008 274.232 240.008 273.816 240.008 273.368C240.008 272.6 239.688 272.504 238.536 272.504C238.056 272.504 237.576 272.504 237.128 272.504C236.456 272.504 235.304 272.472 235.304 271.16C235.304 270.392 235.816 269.624 236.712 269.624C237.864 269.624 238.92 269.624 239.976 269.656C242.056 269.72 243.016 270.616 243.016 272.664C243.016 274.52 242.952 276.728 242.952 278.776C245 281.304 248.104 282.008 252.584 282.008C255.72 282.008 259.08 281.656 261.576 281.464C261.64 281.464 261.672 281.464 261.736 281.464C262.728 281.464 263.304 282.232 263.304 283C263.304 283.736 262.792 284.504 261.672 284.6C259.688 284.792 256.776 284.984 253.896 284.984C245.416 284.984 243.56 283.224 241.48 281.08ZM292.84 269.848C292.168 270.264 291.208 270.264 290.632 269.368C289.96 268.344 288.584 267.096 286.952 267.032C285 266.968 285.128 264.024 287.432 264.184C289.704 264.344 292.424 265.848 293.416 267.64C293.928 268.6 293.512 269.432 292.84 269.848ZM273.672 277.112C272.648 277.016 271.656 276.44 271.112 275.512C268.872 271.768 271.624 268.344 274.76 268.696C274.952 268.728 275.112 268.76 275.304 268.792C275.336 268.024 275.4 267.224 275.464 266.456C273.576 266.68 272.424 266.36 271.88 266.136C270.152 265.464 271.08 262.648 273 263.416C273.736 263.704 274.632 263.768 275.656 263.608C275.688 262.232 275.464 261.336 275.4 260.632C275.144 258.168 278.696 258.328 278.792 260.472C278.824 260.984 278.824 261.816 278.76 262.616C279.08 262.456 279.4 262.296 279.656 262.104C281.288 261.016 282.984 263.576 280.872 264.792C280.232 265.144 279.304 265.496 278.408 265.784C278.344 266.808 278.312 267.832 278.248 269.016C278.216 269.464 278.184 270.136 278.152 270.808C278.568 271.576 278.664 272.568 278.248 273.752C277.896 274.744 277.128 276.12 276.616 277.304C276.008 278.744 275.816 280.152 277 280.888C278.344 281.72 281.832 281.688 284.104 280.92C286.536 280.088 286.952 278.2 286.248 275.16C285.768 273.08 288.968 272.344 289.48 274.84C290.44 279.352 289.416 282.392 285 283.864C282.28 284.76 277.736 284.792 275.336 283.352C273.32 282.136 272.712 280.024 273.672 277.112ZM275.464 272.792V272.76C275.496 272.408 275.464 272.088 275.368 271.832L275.336 271.8C275.176 271.448 274.92 271.224 274.472 271.16C273.032 270.968 272.36 272.44 272.808 273.624C273.096 274.36 274.472 275.416 275.304 273.336C275.368 273.144 275.432 272.952 275.464 272.792ZM314.536 265.048C314.888 265.368 315.08 265.88 314.984 266.52C314.472 270.584 311.592 276.632 308.52 279.48C306.056 281.752 303.368 280.504 301.96 277.752C299.944 273.784 302.088 267.832 306.376 264.856C310.312 262.136 316.168 261.688 320.2 264.12C325.16 267.096 325.96 272.984 323.176 277.56C321.672 280.024 318.536 282.008 315.368 282.84C312.552 283.576 311.56 280.344 314.312 279.704C316.744 279.16 319.208 277.784 320.264 276.12C322.536 272.536 321.672 268.344 318.504 266.328C317.256 265.528 315.912 265.144 314.536 265.048ZM312.008 265.208C310.536 265.528 309.096 266.2 307.88 267.128C304.904 269.432 303.304 273.688 304.648 276.152C305.128 277.08 305.96 277.56 306.76 276.856C309.16 274.744 311.4 269.656 311.72 266.2C311.752 265.816 311.848 265.464 312.008 265.208ZM353.288 280.44C352.072 282.968 348.168 285.112 344.68 283.128C341.896 281.528 341.832 277.88 345.16 276.408C346.888 275.64 348.84 275.608 350.792 276.024C350.792 275.512 350.728 275.032 350.696 274.424C350.6 273.112 350.536 270.648 350.44 268.12C348.712 268.376 347.016 268.504 345.192 268.344C342.984 268.152 343.368 264.888 345.832 265.304C347.24 265.56 348.776 265.464 350.344 265.208C350.312 263.416 350.28 261.784 350.312 260.792C350.376 258.712 353.512 259 353.384 260.728C353.32 261.624 353.288 262.968 353.288 264.536C353.832 264.376 354.408 264.248 354.92 264.088C357 263.448 358.376 266.36 355.624 267.032C354.856 267.224 354.088 267.416 353.32 267.576C353.352 270.072 353.448 272.568 353.512 274.136C353.544 274.936 353.672 275.992 353.704 277.016C355.048 277.656 356.328 278.456 357.32 279.352C359.144 281.016 356.872 283.8 355.272 282.104C354.696 281.528 354.024 280.952 353.288 280.44ZM337.544 283.544C336.712 284.312 335.272 284.184 334.728 282.456C333.704 279.224 333.8 275.096 334.216 271.224C334.632 267.352 335.336 263.768 335.496 261.688C335.688 259.096 339.048 259.736 338.728 261.752C338.504 263.192 337.96 265.976 337.544 268.696C337.128 271.416 336.808 274.104 336.936 275.384C337 275.96 337.032 276.056 337.352 275.416C337.448 275.224 337.672 274.648 337.736 274.488C338.472 272.952 340.904 274.04 339.752 276.44C339.336 277.304 339.016 278.168 338.76 278.968C338.504 279.768 338.312 280.472 338.184 280.984C337.928 281.88 338.344 282.776 337.544 283.544ZM350.536 278.936H350.504C348.904 278.328 347.304 278.168 346.088 278.744C345.32 279.096 345.128 280.184 345.896 280.632C347.432 281.496 350.024 280.824 350.536 278.936ZM390.824 268.856C390.824 269.784 389.928 270.616 388.904 270.616C388.52 270.616 388.136 270.488 387.752 270.232C384.904 268.248 380.84 264.344 377.96 261.208C377.608 260.792 377.288 260.6 377 260.6C376.712 260.6 376.456 260.792 376.104 261.208C373.544 264.344 369.48 268.504 366.472 270.808C365.896 271.256 365.352 271.416 364.872 271.416C363.848 271.416 363.144 270.648 363.144 269.784C363.144 269.272 363.432 268.696 364.104 268.28C367.528 266.168 371.496 261.976 373.832 259.032C374.632 258.04 375.656 257.496 376.744 257.496C377.8 257.496 378.888 258.008 379.912 259.032C382.888 262.104 386.248 265.048 389.8 267.288C390.536 267.736 390.824 268.312 390.824 268.856ZM381.448 268.728H372.872C371.88 268.728 371.4 268.024 371.4 267.352C371.4 266.648 371.88 265.944 372.872 265.944H381.448C382.44 265.944 382.92 266.648 382.92 267.352C382.92 268.024 382.44 268.728 381.448 268.728ZM382.632 271.672C384.872 271.736 385.896 272.6 385.896 274.072C385.896 277.976 379.144 284.76 376.616 284.76C375.592 284.76 374.76 283.992 374.76 283.192C374.76 282.68 375.08 282.168 375.848 281.816C378.824 280.44 382.216 276.312 382.216 274.968C382.216 274.616 381.928 274.488 381.64 274.488C379.4 274.488 369.992 274.552 368.776 274.584C368.744 274.584 368.744 274.584 368.712 274.584C367.752 274.584 367.304 273.912 367.304 273.208C367.304 272.472 367.784 271.736 368.712 271.704C369.768 271.672 374.952 271.672 378.856 271.672C380.456 271.672 381.864 271.672 382.632 271.672ZM417.96 280.088C417.896 282.328 416.296 283.96 413.992 284.056C412.584 284.12 410.856 284.12 409.16 284.12C407.496 284.12 405.832 284.12 404.52 284.056C401.736 283.96 400.36 282.552 400.264 280.184C400.2 278.104 400.168 274.616 400.168 271.128C400.168 268.024 400.2 264.888 400.264 262.744C400.328 260.696 401.864 259.352 404.264 259.256C405.48 259.224 407.56 259.192 409.608 259.192C411.304 259.192 412.968 259.224 414.056 259.256C416.008 259.32 417.896 260.696 417.96 263C418.024 264.952 418.056 268.152 418.056 271.352C418.056 274.872 418.024 278.392 417.96 280.088ZM403.176 269.336H414.92C414.92 267.32 414.888 265.464 414.856 264.184C414.792 261.976 414.312 261.944 409.192 261.944C403.784 261.944 403.336 261.976 403.24 264.184C403.208 265.496 403.176 267.32 403.176 269.336ZM414.92 272.152H403.176C403.176 274.84 403.176 277.4 403.24 278.936C403.304 281.016 403.656 281.144 409.096 281.144C410.344 281.144 411.624 281.144 412.456 281.112C414.248 281.048 414.792 280.216 414.856 278.84C414.92 277.24 414.92 274.712 414.92 272.152ZM453.896 269.56C453.448 269.048 451.784 267.928 451.112 267.672C449.384 267 450.632 264.952 452.2 265.464C453.096 265.752 454.824 266.616 455.592 267.384C456.936 268.728 455.048 270.84 453.896 269.56ZM450.6 272.472C450.152 271.96 448.552 270.744 447.88 270.456C446.184 269.72 447.464 267.736 449.032 268.312C449.928 268.632 451.656 269.528 452.392 270.328C453.704 271.736 451.72 273.784 450.6 272.472ZM447.528 283.672C437.864 283.64 434.536 274.776 438.024 268.344C438.344 267.736 438.632 267.224 439.048 266.68C439.56 266.008 439.4 266.04 438.792 266.232C436.392 267 436.936 267 434.76 267.832C433.736 268.216 432.84 268.536 431.88 268.792C429.064 269.56 428.2 265.88 430.76 265.336C431.432 265.176 433.288 264.824 434.312 264.568C435.88 264.184 438.696 263.544 441.96 262.616C445.256 261.688 447.848 260.92 450.664 260.728C452.648 260.6 453.192 262.168 452.84 263.192C452.648 263.736 451.944 264.376 449.704 264.248C448.072 264.152 446.056 264.76 444.968 265.144C443.176 265.784 441.544 267.704 440.84 268.888C438.024 273.592 440.168 280.312 447.336 280.056C450.696 279.928 450.92 283.704 447.528 283.672ZM478.504 270.712C475.304 273.912 472.104 275.352 471.432 275.352C470.6 275.352 470.056 274.648 470.056 273.88C470.056 273.368 470.344 272.824 471.016 272.504C473.128 271.544 474.984 270.2 476.488 268.728C475.56 267.64 474.792 266.456 474.248 265.208C472.232 267.864 471.56 267.896 471.144 267.896C470.408 267.896 469.736 267.352 469.736 266.68C469.736 266.36 469.864 266.04 470.216 265.72C472.36 263.8 474.056 260.952 475.272 257.688C475.528 256.984 476.072 256.728 476.584 256.728C477.384 256.728 478.152 257.272 478.152 258.04C478.152 258.296 478.088 258.456 477.512 259.672C478.632 259.64 479.816 259.64 481.032 259.64C482.376 259.64 483.72 260.376 483.72 261.976C483.72 263.352 482.248 266.2 480.328 268.664C482.184 270.04 484.456 271.128 486.824 271.896C487.592 272.152 487.944 272.728 487.944 273.304C487.944 274.104 487.304 274.936 486.28 274.936C485.768 274.936 482.12 273.816 478.504 270.712ZM480.68 278.328C480.36 278.328 480.008 278.168 479.72 277.848C478.824 276.856 477.832 276.152 476.456 275.608C475.88 275.384 475.656 274.968 475.656 274.52C475.656 273.816 476.232 273.08 477.064 273.08C477.992 273.08 482.184 274.968 482.184 276.696C482.184 277.528 481.48 278.328 480.68 278.328ZM481.768 285.048C481.448 285.048 481.064 284.92 480.712 284.6C478.92 282.968 476.392 281.816 474.088 281.176C473.384 280.984 473.064 280.504 473.064 279.992C473.064 279.288 473.704 278.552 474.632 278.552C475.4 278.552 483.336 280.696 483.336 283.384C483.336 284.28 482.6 285.048 481.768 285.048ZM463.816 283.672V283.64L463.912 272.504C461.992 272.792 460.104 272.984 459.976 272.984C459.208 272.984 458.792 272.344 458.792 271.704C458.792 271.128 459.144 270.552 459.816 270.52C460.264 270.488 460.808 270.456 461.384 270.424C461.992 269.752 462.632 268.92 463.272 268.024C462.184 266.936 460.424 265.592 459.656 265.08C459.24 264.792 459.048 264.408 459.048 264.024C459.048 263.384 459.56 262.776 460.296 262.776C460.52 262.776 460.68 262.808 461.224 263.096C462.12 261.656 463.24 259.352 463.656 257.624C463.816 256.984 464.36 256.728 464.904 256.728C465.704 256.728 466.536 257.24 466.536 258.04C466.536 259.32 463.752 263.928 463.304 264.568C463.816 264.984 464.296 265.4 464.744 265.816C465.736 264.216 466.632 262.552 467.176 261.24C467.4 260.664 467.88 260.44 468.36 260.44C469.128 260.44 469.96 261.016 469.96 261.848C469.96 262.776 467.208 267.096 464.872 270.072C465.96 269.944 466.952 269.848 467.688 269.752C467.528 269.464 467.336 269.24 467.176 269.016C467.016 268.824 466.952 268.6 466.952 268.408C466.952 267.8 467.624 267.32 468.264 267.32C469.672 267.32 471.144 270.808 471.144 271.512C471.144 272.344 470.376 272.92 469.704 272.92C469.256 272.92 468.808 272.696 468.584 271.736C468.136 271.832 467.496 271.928 466.76 272.056L466.824 283.64C466.824 284.632 466.056 285.144 465.288 285.144C464.552 285.144 463.816 284.664 463.816 283.672ZM470.216 280.952C469.672 280.952 469.128 280.6 469 279.8C468.776 278.456 468.072 276.792 467.528 275.864C467.368 275.608 467.304 275.384 467.304 275.16C467.304 274.552 467.88 274.136 468.52 274.136C470.44 274.136 471.784 278.936 471.784 279.352C471.784 280.344 470.984 280.952 470.216 280.952ZM461 282.2C460.648 282.744 460.104 282.968 459.592 282.968C458.856 282.968 458.184 282.488 458.184 281.752C458.184 281.496 458.28 281.208 458.472 280.888C459.368 279.448 460.136 277.208 460.36 275.384C460.456 274.616 461.032 274.264 461.64 274.264C462.376 274.264 463.112 274.776 463.112 275.672C463.112 276.568 462.184 280.408 461 282.2ZM478.248 266.776C479.688 264.952 480.488 263.192 480.488 262.552C480.488 262.264 480.328 262.104 479.88 262.104C478.728 262.104 477.416 262.136 476.264 262.136C476.168 262.328 476.04 262.52 475.944 262.68C476.36 264.216 477.16 265.56 478.248 266.776ZM498.12 277.944L497.928 278.264C497.48 279 497 279.864 496.424 280.856C495.112 283.16 492.072 281.368 493.48 279.256C493.896 278.616 494.184 278.296 494.44 277.976C495.88 275.8 497.704 272.664 498.696 270.168L498.76 269.4C498.664 269.368 498.536 269.368 498.344 269.464C497.512 269.848 496.808 270.36 496.04 270.84C493.736 272.28 492.68 269.08 494.504 268.216C495.688 267.672 497.416 266.84 499.048 266.168C499.272 263.832 499.464 261.816 499.592 260.44C499.784 258.2 503.016 258.648 502.728 260.536C502.568 261.688 502.344 263.256 502.12 265.112C503.368 265.144 504.232 266.68 502.792 268.728C502.632 268.952 502.152 269.848 501.512 271V271.16C502.472 270.456 503.4 269.848 504.264 269.4C509.96 266.36 515.048 267.416 517.352 270.04C519.688 272.664 519.144 276.984 514.312 280.472C513.16 281.304 511.272 282.296 509.768 282.808C507.656 283.544 506.184 280.472 508.744 279.544C510.216 279 511.336 278.52 512.136 277.976C515.528 275.704 515.912 273.208 514.504 271.736C513.064 270.264 509.736 269.816 505.32 272.088C503.656 272.952 502.408 273.784 501.288 274.776C501.16 277.656 501.224 280.376 501.544 282.392C501.736 283.544 500.936 284.312 500.072 284.44C499.208 284.568 498.28 284.056 498.152 282.68C498.024 281.496 498.024 279.864 498.12 277.944ZM536.776 284.664C534.184 286.584 531.848 283.928 534.536 282.168C539.496 278.936 542.312 272.024 540.104 265.336C539.048 262.136 536.008 263.32 535.08 265.304C534.152 267.256 534.088 268.568 534.248 271.352C534.408 274.456 530.952 274.424 530.76 272.12C530.568 269.592 531.112 266.52 531.496 264.728C531.848 263.096 532.456 260.984 532.712 259.032C532.968 257.016 536.072 257.4 535.912 259.32C535.816 260.408 535.432 261.528 535.08 262.296C534.664 263.16 534.984 262.744 535.304 262.328C537.64 259.32 541.8 260.632 543.112 264.248C545.448 270.712 544.296 279.128 536.776 284.664ZM567.624 276.056V276.024C567.624 275.832 567.624 275.608 567.624 275.352C567.624 272.248 567.304 264.792 567.112 259.768C567.112 259.736 567.112 259.704 567.112 259.672C567.112 258.488 568.04 257.912 568.968 257.912C569.928 257.912 570.888 258.52 570.888 259.768C570.888 263.544 570.376 272.344 570.376 275.448C570.376 276.216 570.376 277.56 568.968 277.56C568.296 277.56 567.624 277.048 567.624 276.056ZM571.208 282.04C571.208 283.576 569.864 284.152 569 284.152C567.784 284.152 566.792 283.128 566.792 282.04C566.792 280.632 568.136 279.832 569 279.832C570.248 279.832 571.208 280.6 571.208 282.04Z" fill="white"/>
<defs>
<filter id="filter0_d_249_42" x="0" y="0" width="658" height="234.19" filterUnits="userSpaceOnUse" color-interpolation-filters="sRGB">
<feFlood flood-opacity="0" result="BackgroundImageFix"/>
<feColorMatrix in="SourceAlpha" type="matrix" values="0 0 0 0 0 0 0 0 0 0 0 0 0 0 0 0 0 0 127 0" result="hardAlpha"/>
<feOffset dy="4"/>
<feGaussianBlur stdDeviation="2"/>
<feComposite in2="hardAlpha" operator="out"/>
<feColorMatrix type="matrix" values="0 0 0 0 0 0 0 0 0 0 0 0 0 0 0 0 0 0 0.25 0"/>
<feBlend mode="normal" in2="BackgroundImageFix" result="effect1_dropShadow_249_42"/>
<feBlend mode="normal" in="SourceGraphic" in2="effect1_dropShadow_249_42" result="shape"/>
</filter>
</defs>
</svg>
