<svg width="609" height="352" viewBox="0 0 609 352" fill="none" xmlns="http://www.w3.org/2000/svg">
<path d="M131.242 35.852H126.958V42.044C126.958 43.016 126.094 43.52 125.23 43.52C124.366 43.52 123.502 43.016 123.502 42.044V35.852H119.254C118.138 35.852 117.634 35.132 117.634 34.376C117.634 33.584 118.21 32.792 119.254 32.792H123.502V31.892L123.61 24.872C120.838 29.516 116.878 34.016 112.306 37.508C111.874 37.832 111.406 37.976 111.01 37.976C110.002 37.976 109.21 37.184 109.21 36.284C109.21 35.744 109.498 35.168 110.146 34.736C114.826 31.568 118.966 27.212 121.99 21.92L112.018 22.064H111.982C110.866 22.064 110.362 21.308 110.362 20.552C110.362 19.724 110.938 18.86 112.018 18.86H123.502V12.848C123.502 11.804 124.33 11.3 125.194 11.3C126.058 11.3 126.958 11.84 126.958 12.848V18.86H138.406C139.45 18.86 139.954 19.652 139.954 20.48C139.954 21.272 139.45 22.064 138.406 22.064H138.37L128.398 21.92C131.566 27.104 136.03 30.884 140.35 33.728C140.962 34.16 141.214 34.664 141.214 35.204C141.214 36.212 140.278 37.184 139.126 37.184C138.73 37.184 138.298 37.04 137.866 36.752C134.05 33.98 129.802 29.408 126.85 24.656L126.958 31.856V32.792H131.242C132.286 32.792 132.79 33.548 132.79 34.304C132.79 35.096 132.286 35.852 131.242 35.852ZM173.038 17.492C168.826 22.928 167.782 23.18 167.062 23.18C166.126 23.18 165.334 22.424 165.334 21.56C165.334 21.128 165.514 20.696 165.946 20.3C167.242 19.076 169.294 16.484 170.05 15.224C170.41 14.648 170.878 14.432 171.382 14.432C172.39 14.432 173.434 15.368 173.434 16.412C173.434 16.772 173.29 17.132 173.038 17.492ZM170.302 35.168H151.33C150.25 35.168 149.674 34.376 149.674 33.584C149.674 32.828 150.25 32.036 151.33 32.036H170.302C170.302 28.832 170.014 28.544 168.466 28.472C166.882 28.4 163.678 28.364 160.33 28.364C156.478 28.364 152.482 28.4 150.538 28.472C150.502 28.472 150.502 28.472 150.466 28.472C149.422 28.472 148.918 27.752 148.918 26.996C148.918 26.204 149.494 25.412 150.61 25.376C152.338 25.34 155.866 25.34 159.502 25.34L159.43 13.208C159.43 12.128 160.33 11.624 161.23 11.624C162.166 11.624 163.102 12.164 163.102 13.208L163.03 25.376C165.802 25.376 168.286 25.412 169.582 25.448C172.354 25.52 173.47 26.78 173.614 29.12C173.686 30.488 173.722 32.288 173.722 34.124C173.722 35.744 173.686 37.4 173.614 38.696C173.47 40.892 171.886 42.296 169.366 42.368C167.17 42.44 162.85 42.44 158.782 42.44C155.47 42.44 152.302 42.44 150.574 42.404C149.458 42.404 148.918 41.612 148.918 40.82C148.918 40.064 149.458 39.272 150.502 39.272H150.538C152.518 39.308 156.226 39.308 159.826 39.308C163.426 39.308 166.954 39.308 168.61 39.272C169.51 39.236 170.122 39.164 170.194 37.796C170.23 37.076 170.266 36.14 170.302 35.168ZM155.074 23.144C154.534 23.144 153.994 22.856 153.634 22.208C152.77 20.66 150.682 18.752 149.89 18.212C149.422 17.888 149.206 17.456 149.206 17.024C149.206 16.124 150.07 15.26 151.078 15.26C152.734 15.26 156.298 19.292 156.73 20.048C156.946 20.408 157.018 20.768 157.018 21.128C157.018 22.244 156.046 23.144 155.074 23.144ZM206.914 23.288C204.322 22.748 201.586 22.64 198.562 23.396C196.582 23.9 195.43 20.696 198.058 20.048C201.262 19.256 205.006 19.22 207.526 19.832C210.046 20.444 209.362 23.828 206.914 23.288ZM208.858 39.704C205.006 40.676 199.102 40.568 196.51 37.76C195.034 36.14 197.194 33.584 199.066 35.276C201.01 37.04 205.33 36.464 208.138 35.888C211.054 35.276 211.234 39.092 208.858 39.704ZM189.814 41.432C188.914 42.224 187.582 42.08 186.862 40.316C183.982 33.224 186.826 22.568 187.474 18.284C187.87 15.62 191.362 16.412 190.966 18.5C190.39 21.416 188.23 29.876 189.094 33.224C189.202 33.692 189.346 33.584 189.49 33.26C189.562 33.08 189.958 32.36 190.102 32.108C191.218 30.344 193.45 32.072 192.622 33.512C191.29 35.852 190.714 37.508 190.498 38.552C190.282 39.524 190.714 40.64 189.814 41.432ZM246.874 18.788L239.818 18.752V20.912C239.818 21.884 238.918 22.388 238.054 22.388C237.226 22.388 236.398 21.92 236.398 21.02V18.752H229.882V20.912C229.882 21.884 228.982 22.388 228.118 22.388C227.29 22.388 226.462 21.92 226.462 21.02V18.752L219.694 18.788C218.542 18.788 218.002 18.032 218.002 17.312C218.002 16.52 218.578 15.728 219.694 15.728L226.462 15.764V13.424C226.462 12.488 227.326 12.02 228.19 12.02C229.018 12.02 229.882 12.488 229.882 13.424V15.764H236.398V13.424C236.398 12.488 237.262 12.02 238.126 12.02C238.954 12.02 239.818 12.488 239.818 13.424V15.764L246.874 15.728C247.954 15.728 248.494 16.484 248.494 17.24C248.494 18.032 247.954 18.788 246.874 18.788ZM246.874 27.572L234.814 27.536V31.1C236.542 31.1 238.306 31.1 239.854 31.136C242.05 31.172 243.598 32.684 243.706 34.196C243.742 34.916 243.778 35.672 243.778 36.464C243.778 37.22 243.742 38.048 243.706 38.876C243.598 40.712 242.086 42.296 239.674 42.368C237.586 42.44 235.354 42.476 233.158 42.476C230.998 42.476 228.838 42.44 226.822 42.368C224.194 42.296 222.826 40.856 222.718 38.912C222.682 38.156 222.682 37.508 222.682 36.86C222.682 36.032 222.682 35.24 222.718 34.484C222.79 32.9 223.87 31.208 226.75 31.136C228.01 31.1 229.63 31.1 231.358 31.1V27.536L219.694 27.572C218.542 27.572 218.002 26.816 218.002 26.096C218.002 25.304 218.578 24.512 219.694 24.512L231.322 24.548V22.316C231.322 21.308 232.186 20.804 233.05 20.804C233.95 20.804 234.85 21.344 234.85 22.316V24.548L246.874 24.512C247.954 24.512 248.494 25.268 248.494 26.024C248.494 26.816 247.954 27.572 246.874 27.572ZM238.558 39.416C239.926 39.344 240.178 38.84 240.178 36.824C240.178 34.592 240.106 33.98 238.486 33.944C237.154 33.908 235.462 33.872 233.734 33.872C231.646 33.872 229.486 33.908 227.794 33.944C226.714 33.98 226.21 34.628 226.174 35.276C226.138 35.708 226.138 36.176 226.138 36.644C226.138 37.112 226.138 37.58 226.174 38.084C226.282 39.488 226.642 39.488 233.086 39.488C234.994 39.488 236.902 39.452 238.558 39.416ZM280.57 37.688C273.55 43.412 262.03 44.456 261.706 34.736C261.562 30.956 261.958 27.896 262.138 24.08C262.246 21.74 262.498 18.212 262.426 15.98C262.354 13.316 266.422 13.532 266.35 15.908C266.278 18.176 266.026 21.596 265.846 24.008C265.594 27.824 265.054 31.1 265.198 34.592C265.414 39.848 271.822 39.488 278.086 34.556C280.426 32.72 282.622 36.032 280.57 37.688ZM318.332 29.948C318.62 32.576 315.056 33.296 314.552 30.812C313.976 27.932 312.5 25.16 310.556 23.828C308.828 22.64 310.772 19.976 312.932 21.596C315.488 23.504 317.972 26.888 318.332 29.948ZM302.6 35.888C300.296 39.632 297.092 39.308 295.076 37.148C292.484 34.34 291.296 30.164 291.008 25.628C290.864 23.576 290.792 22.928 290.828 21.632C290.9 19.364 294.392 18.896 294.5 21.596C294.572 23 294.428 23.072 294.5 24.728C294.644 28.508 295.328 32.072 297.344 34.016C298.28 34.916 298.748 35.024 299.54 33.944C299.972 33.332 300.476 32.396 300.728 31.82C301.7 29.732 304.688 31.244 304.004 33.116C303.644 34.124 302.996 35.24 302.6 35.888ZM353.242 25.88C352.738 25.304 350.866 24.044 350.11 23.756C348.166 23 349.57 20.696 351.334 21.272C352.342 21.596 354.286 22.568 355.15 23.432C356.662 24.944 354.538 27.32 353.242 25.88ZM349.534 29.156C349.03 28.58 347.23 27.212 346.474 26.888C344.566 26.06 346.006 23.828 347.77 24.476C348.778 24.836 350.722 25.844 351.55 26.744C353.026 28.328 350.794 30.632 349.534 29.156ZM346.078 41.756C335.206 41.72 331.462 31.748 335.386 24.512C335.746 23.828 336.07 23.252 336.538 22.64C337.114 21.884 336.934 21.92 336.25 22.136C333.55 23 334.162 23 331.714 23.936C330.562 24.368 329.554 24.728 328.474 25.016C325.306 25.88 324.334 21.74 327.214 21.128C327.97 20.948 330.058 20.552 331.21 20.264C332.974 19.832 336.142 19.112 339.814 18.068C343.522 17.024 346.438 16.16 349.606 15.944C351.838 15.8 352.45 17.564 352.054 18.716C351.838 19.328 351.046 20.048 348.526 19.904C346.69 19.796 344.422 20.48 343.198 20.912C341.182 21.632 339.346 23.792 338.554 25.124C335.386 30.416 337.798 37.976 345.862 37.688C349.642 37.544 349.894 41.792 346.078 41.756ZM376.534 34.772C374.158 35.996 371.026 35.312 369.874 32.072C368.614 28.58 370.558 25.988 372.754 25.304C373.798 24.98 374.878 24.836 375.85 24.98C375.814 24.188 375.778 23.108 375.742 22.064C372.718 22.352 369.73 22.784 367.858 23.072C365.266 23.468 363.574 23.936 362.494 24.116C360.082 24.548 359.362 20.948 362.206 20.48C363.646 20.228 365.986 19.976 367.498 19.724C369.298 19.436 372.538 19.04 375.706 18.752C375.706 18.536 375.706 18.284 375.706 18.104C375.742 15.872 375.526 15.728 375.526 14.576C375.526 11.948 379.162 12.2 379.306 14.468C379.342 15.296 379.234 16.952 379.162 17.924C379.162 18.104 379.126 18.284 379.126 18.464C380.17 18.392 381.106 18.356 381.898 18.356C383.662 18.356 384.922 18.32 387.37 18.356C390.394 18.428 390.25 22.244 387.37 22.028C384.814 21.812 383.95 21.812 381.718 21.776C380.89 21.776 380.026 21.812 379.09 21.848C379.126 23 379.162 24.116 379.162 25.16C379.162 25.664 379.234 26.42 379.27 27.212C382.474 32.252 378.658 39.884 374.842 42.944C372.43 44.852 369.298 42.296 372.43 40.064C374.158 38.84 375.67 36.824 376.534 34.772ZM376.498 28.904C376.318 28.688 376.138 28.472 375.922 28.292C375.418 27.86 374.374 27.788 373.618 28.148C372.754 28.544 372.178 29.66 372.574 30.884C373.222 32.828 376.354 32.828 376.714 30.272C376.822 29.516 376.714 29.192 376.498 28.904ZM413.038 38.048C411.742 41.18 407.098 43.664 402.562 41.252C399.106 39.38 399.034 35.348 403.174 33.8C405.082 33.08 407.71 33.044 410.338 33.512C410.374 32.72 410.338 31.928 410.302 31.28C409.87 24.08 409.474 20.66 409.51 15.512C409.51 12.956 413.47 13.136 413.326 15.512C413.218 17.276 413.182 18.932 413.218 20.696C413.686 20.696 414.19 20.66 414.55 20.624C415.63 20.48 416.638 20.12 417.214 19.796C419.482 18.5 421.822 21.632 419.374 23C418.69 23.36 417.898 23.612 417.106 23.756C416.314 23.9 415.522 23.972 414.91 24.044C414.406 24.116 413.866 24.116 413.326 24.08C413.398 26.096 413.506 28.328 413.578 30.956C413.614 31.82 413.614 33.116 413.578 34.376C415.45 35.024 417.178 35.96 418.474 37.076C421.03 39.272 418.438 42.944 415.954 40.316C415.126 39.452 414.118 38.696 413.038 38.048ZM409.87 36.644C407.818 36.032 405.766 35.924 404.182 36.5C403.21 36.86 403.174 37.976 404.146 38.48C406.09 39.524 409.114 38.912 409.87 36.644ZM439.714 26.888L439.822 25.844C439.786 25.844 439.714 25.88 439.642 25.88C438.814 26.132 437.95 26.528 436.834 27.212C434.35 28.724 433.306 25.232 435.25 24.368C436.834 23.684 438.454 23.072 440.146 22.496C440.434 19.544 440.65 16.988 440.65 15.476C440.686 13.064 444.214 13.604 444.106 15.62C444.034 17.06 443.746 19.256 443.458 21.848C444.43 22.1 444.826 23.036 444.502 24.152C450.226 19.004 456.742 18.968 458.47 25.916C459.334 29.48 459.082 33.656 458.038 36.32C458.686 36.788 459.334 37.256 459.91 37.76C462.034 39.668 459.19 42.404 457.498 40.64C457.03 40.136 456.526 39.704 456.058 39.272C453.682 41.612 450.262 42.476 447.166 41.252C443.422 39.74 443.494 35.384 447.67 34.016C449.974 33.26 452.53 33.62 454.906 34.592C455.698 32.144 455.626 29.264 455.122 26.816C453.79 20.444 447.058 24.044 442.666 29.696C442.342 33.728 442.27 37.652 442.81 40.352C443.314 42.836 439.534 43.772 439.138 40.784C438.922 39.2 438.958 36.752 439.138 33.98C438.166 35.888 437.482 37.904 436.654 39.452C435.358 41.9 431.758 40.64 433.522 37.904C433.846 37.436 434.134 37.004 434.458 36.464C434.71 36.068 434.962 35.672 435.214 35.276C436.33 33.476 438.634 29.552 439.714 26.888ZM453.394 37.328C451.702 36.392 450.046 36.032 448.426 36.536C447.058 36.968 447.274 38.156 448.246 38.516C449.542 38.984 451.774 39.02 453.394 37.328ZM497.35 27.248C497.35 28.904 495.838 29.876 494.686 29.876C494.254 29.876 492.13 29.804 492.13 27.284C492.13 25.484 493.714 24.764 494.722 24.764C495.982 24.764 497.35 25.7 497.35 27.248ZM485.326 27.248C485.326 28.796 484.03 29.876 482.698 29.876C482.266 29.876 480.142 29.804 480.142 27.284C480.142 25.484 481.726 24.764 482.734 24.764C484.246 24.764 485.326 25.988 485.326 27.248ZM473.338 27.248C473.338 28.076 472.654 29.876 470.71 29.876C469.09 29.876 468.118 28.76 468.118 27.284C468.118 25.484 469.702 24.764 470.746 24.764C472.258 24.764 473.338 25.988 473.338 27.248Z" fill="black"/>
<path d="M216.076 132.592C214.9 133.152 213.332 132.984 212.604 131.472C211.988 130.128 210.7 128.28 209.132 127.328C206.388 125.648 209.636 121.672 212.716 123.688C214.844 125.088 216.58 126.488 217.644 128.952C218.316 130.52 217.252 132.032 216.076 132.592ZM228.564 166.192C215.796 164.904 212.436 153.032 217.196 146.032C217.98 144.856 218.148 144.632 216.972 145.024C215.068 145.696 211.988 146.984 211.036 147.544C209.748 148.328 207.396 148.944 206.164 148.16C203.532 146.536 204.204 143.68 206.78 142.896C207.844 142.56 212.044 141.832 213.22 140.824C217.812 136.792 222.852 128.112 226.156 122.96C228.844 118.816 233.94 122.848 231.42 126.096C227.668 130.912 223.412 136.568 220.052 139.424C219.436 139.984 220.22 139.76 220.444 139.648C220.78 139.48 221.452 139.256 222.292 139.032C225.932 138.024 230.86 136.736 234.724 136.736C237.636 136.736 238.364 139.2 237.58 140.824C237.076 141.888 235.676 142.728 232.876 142.392C231.028 142.168 227.724 142.672 226.38 142.952C223.524 143.624 222.964 144.464 221.452 146.76C217.532 152.696 221.004 160.368 229.348 159.808C234.724 159.472 234.724 166.808 228.564 166.192ZM264.74 152.192C263.564 154.208 262.556 156.336 261.66 157.96C259.14 162.384 253.484 158.968 256.564 155.328C256.732 155.104 256.9 154.936 257.012 154.824C259.476 151.464 263.116 146.592 265.356 142.336C265.468 141.216 265.524 140.152 265.636 139.032C264.348 139.48 262.78 140.152 261.38 141.048C257.516 143.512 255.78 138.024 258.804 136.624C260.82 135.672 263.508 134.552 266.14 133.544C266.532 129.344 266.98 125.592 267.26 123.128C267.708 119.432 272.972 120.608 272.412 123.688C272.02 125.704 271.628 128.504 271.236 131.752C273.028 131.528 274.596 133.208 273.756 135.84C274.428 135.224 275.1 134.608 275.716 134.104C284.396 126.992 292.516 127.496 291.788 138.64C291.564 142 290.668 147.936 290.388 151.128C289.828 157.512 293.132 156.84 296.884 152.864C299.74 149.84 303.268 153.928 300.916 156.56C293.804 164.344 283.78 163.448 285.068 151.072C285.348 148.104 286.356 142.056 286.524 138.696C286.692 134.72 285.852 131.696 278.012 138.192C275.324 140.432 272.692 142.448 270.004 145.472C269.668 151.688 269.724 157.848 270.452 162.104C271.124 165.968 265.244 167.256 264.796 162.552C264.572 160.088 264.572 156.392 264.74 152.192ZM352.436 164.512H312.788C311.052 164.512 310.156 163.28 310.156 161.992C310.156 160.76 311.052 159.528 312.788 159.528L329.868 159.584V152.416L319.284 152.472C317.604 152.472 316.764 151.24 316.764 150.008C316.764 148.832 317.604 147.6 319.284 147.6L329.868 147.656V141.104L319.788 141.16C318.108 141.16 317.268 139.928 317.268 138.752C317.268 138.696 317.268 138.696 317.268 138.64C314.86 140.544 313.404 141.552 311.892 141.552C310.156 141.552 308.924 140.208 308.924 138.752C308.924 137.8 309.428 136.848 310.66 136.232C316.764 133.152 323.148 126.712 327.124 121.56C328.412 119.88 330.26 118.928 332.108 118.928C333.956 118.928 335.916 119.824 337.596 121.56C342.748 126.992 348.236 131.416 354.508 134.608C355.572 135.168 356.02 136.008 356.02 136.904C356.02 138.472 354.62 140.096 352.772 140.096C352.492 140.096 351.316 140.04 348.124 137.744C348.236 138.08 348.348 138.416 348.348 138.752C348.348 139.984 347.452 141.16 345.772 141.16L335.412 141.104V147.656L345.66 147.6C347.34 147.6 348.236 148.832 348.236 150.064C348.236 151.296 347.396 152.472 345.66 152.472L335.412 152.416V159.584L352.436 159.528C354.06 159.528 354.956 160.816 354.956 162.104C354.956 163.336 354.116 164.512 352.436 164.512ZM320.18 136.288H346.164C342.02 133.152 337.596 128.952 334.236 125.2C333.564 124.416 333.06 124.024 332.556 124.024C332.052 124.024 331.604 124.416 330.988 125.2C328.132 128.784 324.156 132.872 320.18 136.288ZM400.204 164.176C383.292 164.12 377.468 148.608 383.572 137.352C384.132 136.288 384.636 135.392 385.364 134.44C386.26 133.264 385.98 133.32 384.916 133.656C380.716 135 381.668 135 377.86 136.456C376.068 137.128 374.5 137.688 372.82 138.136C367.892 139.48 366.436 133.04 370.916 132.088C372.092 131.808 375.34 131.192 377.132 130.744C379.876 130.072 384.748 128.952 390.46 127.328C396.228 125.704 400.82 124.36 405.748 124.024C409.22 123.8 410.172 126.544 409.556 128.336C409.22 129.288 407.988 130.408 404.068 130.184C401.212 130.016 397.628 131.08 395.724 131.752C392.588 132.872 389.788 136.232 388.556 138.304C383.628 146.536 387.38 158.296 399.924 157.848C405.804 157.624 406.14 164.232 400.204 164.176Z" fill="black"/>
<path d="M104.028 242.016L103.86 241.68C101.788 243.192 99.7157 244.48 97.7557 245.488C94.2837 247.28 88.9637 246.384 89.5797 238.88C90.0277 233.392 94.5077 227.288 99.6037 224.04C100.332 223.592 101.116 223.144 101.956 222.696C102.124 220.568 102.348 218.328 102.628 216.032C99.9397 216.2 97.5317 216.032 95.6277 215.472C92.3237 214.52 93.4437 209.368 97.1957 210.544C98.7637 211.048 100.892 211.16 103.244 210.992C103.468 209.368 103.748 207.688 103.972 206.008C104.588 201.864 110.02 202.76 109.404 206.12C109.18 207.52 108.9 208.92 108.676 210.208C111.252 209.648 113.828 208.92 116.236 208.024C119.484 206.792 121.948 211.552 117.524 213.008C114.444 214.016 111.084 214.912 107.836 215.472C107.556 217.264 107.332 218.888 107.108 220.456C109.068 219.784 111.084 219.336 112.988 219.224C113.212 219.224 113.436 219.224 113.66 219.224V219.112C114.052 215.808 119.204 216.872 118.98 219.56C135.332 222.528 134.492 243.136 115.396 249.408C110.356 251.088 108.956 245.88 113.548 244.368C127.492 239.832 128.052 226.616 117.916 224.096C116.068 229.36 112.428 234.12 108.228 238.04C108.396 238.432 108.62 238.824 108.844 239.16C110.804 242.408 106.156 245.992 104.028 242.016ZM112.54 223.76H112.372C110.748 223.928 108.62 224.488 106.604 225.272C106.38 228.128 106.436 230.648 106.716 232.888C109.236 230.256 111.308 227.176 112.54 223.76ZM102.292 236.864C101.788 234.232 101.62 231.208 101.676 227.904C97.2517 231.152 94.7317 235.128 94.5077 238.432C94.3397 240.672 95.8517 240.896 97.3077 240.112C98.9877 239.16 100.668 238.096 102.292 236.864ZM182.932 222.304C180.3 220.624 177.444 219.784 174.196 219.952C171.116 220.12 170.892 215.472 174.476 215.136C178.172 214.8 182.092 215.472 184.78 217.096C188.588 219.392 185.676 224.04 182.932 222.304ZM157.676 216.704C154.82 217.264 152.412 217.04 150.284 216.424C146.868 215.472 147.932 210.32 151.908 211.608C153.756 212.224 156.668 212.168 159.58 211.44C160.14 209.592 160.42 207.8 160.7 205.784C161.204 202.48 166.132 203.096 166.02 206.288C165.964 207.128 165.628 208.36 165.236 209.704C165.908 209.368 166.524 209.088 167.028 208.752C169.548 206.96 173.076 210.432 169.492 213.008C168.092 214.016 165.796 214.912 163.5 215.584C160.868 221.912 157.06 228.632 153.476 234.456C151.404 237.816 146.028 235.632 148.492 231.992C151.628 227.344 154.932 222.584 157.676 216.704ZM175.316 242.968C173.692 247.448 166.692 251.368 159.916 247.952C154.708 245.32 154.092 239.272 159.86 236.696C163.332 235.128 167.14 235.016 170.612 235.632C170.612 235.016 170.612 234.4 170.612 233.672C170.612 232.272 170.5 230.872 170.444 229.472C170.388 228.352 170.5 226.784 170.724 225.72C171.396 222.64 176.324 223.368 175.764 226.728C175.596 227.568 175.428 228.184 175.428 229.36C175.428 230.648 175.428 232.048 175.484 233.672C175.54 234.736 175.652 235.912 175.708 237.144C178.676 238.376 181.14 240.112 182.54 241.624C185.732 245.152 181.196 249.128 178.508 245.88C177.668 244.872 176.604 243.864 175.316 242.968ZM170.332 240.336C167.476 239.384 164.452 239.272 161.708 240.616C160.196 241.4 160.084 243.024 161.764 243.864C165.124 245.544 169.66 243.92 170.276 240.896C170.332 240.728 170.276 240.504 170.332 240.336ZM238.708 224.376C235.572 223.312 230.476 222.696 227.508 223.816C224.596 224.88 222.86 220.288 226.556 219C229.412 217.992 234.508 217.32 239.996 219.28C243.748 220.624 242.236 225.552 238.708 224.376ZM238.708 247.056C230.588 248.68 223.644 246.104 221.18 243.36C218.772 240.672 222.244 236.248 225.156 239.216C228.012 242.128 231.428 241.848 237.98 241.288C242.068 240.952 242.404 246.328 238.708 247.056ZM217.82 217.712C214.292 229.976 210.316 239.664 207.572 245.88C205.892 249.632 199.956 248.008 202.308 243.248C204.716 238.32 208.692 229.808 212.108 218.944C209.14 219.28 206.284 219.168 203.932 218.16C201.076 216.928 201.636 211.832 205.836 213.344C208.188 214.184 210.932 214.184 213.564 213.68C213.9 211.608 213.676 210.096 213.508 207.632C213.284 204.44 218.548 204.272 219.108 207.352C219.332 208.752 219.332 210.264 219.164 211.832C219.948 211.44 220.62 211.048 221.292 210.656C224.204 208.752 227.676 213.4 223.476 215.472C221.908 216.256 219.892 217.096 217.82 217.712ZM280.036 215.584C280.652 216.144 280.988 217.04 280.82 218.16C279.924 225.272 274.884 235.856 269.508 240.84C265.196 244.816 260.492 242.632 258.028 237.816C254.5 230.872 258.252 220.456 265.756 215.248C272.644 210.488 282.892 209.704 289.948 213.96C298.628 219.168 300.028 229.472 295.156 237.48C292.524 241.792 287.036 245.264 281.492 246.72C276.564 248.008 274.828 242.352 279.644 241.232C283.9 240.28 288.212 237.872 290.06 234.96C294.036 228.688 292.524 221.352 286.98 217.824C284.796 216.424 282.444 215.752 280.036 215.584ZM275.612 215.864C273.036 216.424 270.516 217.6 268.388 219.224C263.18 223.256 260.38 230.704 262.732 235.016C263.572 236.64 265.028 237.48 266.428 236.248C270.628 232.552 274.548 223.648 275.108 217.6C275.164 216.928 275.332 216.312 275.612 215.864ZM322.148 228.576L321.196 228.856C316.268 230.424 314.14 231.096 312.46 231.6C308.036 232.888 306.524 226.952 311.172 225.832C313.692 225.216 317.836 224.152 320.3 223.592L321.868 223.256V222.528C321.756 219.28 321.588 216.984 321.476 214.576C321.308 210.768 327.3 210.432 327.356 214.352C327.356 216.144 327.3 218.72 327.188 221.352L327.132 222.08C330.828 221.296 335.476 220.344 340.068 219.56C340.068 217.88 340.012 216.312 340.012 214.912C340.012 213.68 340.012 213.12 339.956 212.672C339.9 212.224 339.956 211.72 339.9 210.488C339.788 207.016 345.5 206.568 345.5 210.544C345.5 212.448 345.388 214.072 345.276 215.64C345.22 216.592 345.164 217.712 345.108 218.832C345.612 218.776 346.06 218.664 346.564 218.608C349.756 218.216 352.892 217.824 355.86 217.992C360.452 218.272 359.556 223.76 355.02 223.48C352.22 223.312 349.98 223.368 347.124 223.592C346.34 223.648 345.612 223.76 344.828 223.816C344.772 224.768 344.604 225.776 344.492 226.728C343.932 230.536 342.812 234.008 340.18 235.8C338.052 237.256 335.196 237.368 333.292 234.96C332.508 234.008 331.724 233.056 331.108 231.992C329.652 229.528 332.676 226.84 334.86 229.696C336.484 231.824 337.436 231.544 338.22 230.368C339.116 228.968 339.62 226.84 339.844 224.432C335.196 225.16 330.828 226.168 327.132 227.12C327.188 229.752 327.244 232.44 327.412 234.4C327.86 240.448 329.652 242.352 334.356 242.464C337.828 242.576 340.236 241.736 343.484 240.952C347.74 239.944 349.028 245.32 345.052 246.44C341.188 247.504 336.708 247.728 333.46 247.392C326.124 246.608 323.436 243.136 322.652 235.52C322.428 233.504 322.26 230.928 322.148 228.576ZM411.916 229.808C412.364 233.896 406.82 235.016 406.036 231.152C405.14 226.672 402.844 222.36 399.82 220.288C397.132 218.44 400.156 214.296 403.516 216.816C407.492 219.784 411.356 225.048 411.916 229.808ZM387.444 239.048C383.86 244.872 378.876 244.368 375.74 241.008C371.708 236.64 369.86 230.144 369.412 223.088C369.188 219.896 369.076 218.888 369.132 216.872C369.244 213.344 374.676 212.616 374.844 216.816C374.956 219 374.732 219.112 374.844 221.688C375.068 227.568 376.132 233.112 379.268 236.136C380.724 237.536 381.452 237.704 382.684 236.024C383.356 235.072 384.14 233.616 384.532 232.72C386.044 229.472 390.692 231.824 389.628 234.736C389.068 236.304 388.06 238.04 387.444 239.048ZM466.22 223.48C465.436 222.584 462.524 220.624 461.348 220.176C458.324 219 460.508 215.416 463.252 216.312C464.82 216.816 467.844 218.328 469.188 219.672C471.54 222.024 468.236 225.72 466.22 223.48ZM460.452 228.576C459.668 227.68 456.868 225.552 455.692 225.048C452.724 223.76 454.964 220.288 457.708 221.296C459.276 221.856 462.3 223.424 463.588 224.824C465.884 227.288 462.412 230.872 460.452 228.576ZM455.076 248.176C438.164 248.12 432.34 232.608 438.444 221.352C439.004 220.288 439.508 219.392 440.236 218.44C441.132 217.264 440.852 217.32 439.788 217.656C435.588 219 436.54 219 432.732 220.456C430.94 221.128 429.372 221.688 427.692 222.136C422.764 223.48 421.252 217.04 425.732 216.088C426.908 215.808 430.156 215.192 431.948 214.744C434.692 214.072 439.62 212.952 445.332 211.328C451.1 209.704 455.636 208.36 460.564 208.024C464.036 207.8 464.988 210.544 464.372 212.336C464.036 213.288 462.804 214.408 458.884 214.184C456.028 214.016 452.5 215.08 450.596 215.752C447.46 216.872 444.604 220.232 443.372 222.304C438.444 230.536 442.196 242.296 454.74 241.848C460.62 241.624 461.012 248.232 455.076 248.176ZM514.156 242.52C512.028 246.944 505.196 250.696 499.092 247.224C494.22 244.424 494.108 238.04 499.932 235.464C502.956 234.12 506.372 234.064 509.788 234.792C509.788 233.896 509.676 233.056 509.62 231.992C509.452 229.696 509.34 225.384 509.172 220.96C506.148 221.408 503.18 221.632 499.988 221.352C496.124 221.016 496.796 215.304 501.108 216.032C503.572 216.48 506.26 216.312 509.004 215.864C508.948 212.728 508.892 209.872 508.948 208.136C509.06 204.496 514.548 205 514.324 208.024C514.212 209.592 514.156 211.944 514.156 214.688C515.108 214.408 516.116 214.184 517.012 213.904C520.652 212.784 523.06 217.88 518.244 219.056C516.9 219.392 515.556 219.728 514.212 220.008C514.268 224.376 514.436 228.744 514.548 231.488C514.604 232.888 514.828 234.736 514.884 236.528C517.236 237.648 519.476 239.048 521.212 240.616C524.404 243.528 520.428 248.4 517.628 245.432C516.62 244.424 515.444 243.416 514.156 242.52ZM486.604 247.952C485.148 249.296 482.628 249.072 481.676 246.048C479.884 240.392 480.052 233.168 480.78 226.392C481.508 219.616 482.74 213.344 483.02 209.704C483.356 205.168 489.236 206.288 488.676 209.816C488.284 212.336 487.332 217.208 486.604 221.968C485.876 226.728 485.316 231.432 485.54 233.672C485.652 234.68 485.708 234.848 486.268 233.728C486.436 233.392 486.828 232.384 486.94 232.104C488.228 229.416 492.484 231.32 490.468 235.52C489.74 237.032 489.18 238.544 488.732 239.944C488.284 241.344 487.948 242.576 487.724 243.472C487.276 245.04 488.004 246.608 486.604 247.952ZM509.34 239.888H509.284C506.484 238.824 503.684 238.544 501.556 239.552C500.212 240.168 499.876 242.072 501.22 242.856C503.908 244.368 508.444 243.192 509.34 239.888ZM161.422 326.016L161.254 325.68C159.182 327.192 157.11 328.48 155.15 329.488C151.678 331.28 146.358 330.384 146.974 322.88C147.422 317.392 151.902 311.288 156.998 308.04C157.726 307.592 158.51 307.144 159.35 306.696C159.518 304.568 159.742 302.328 160.022 300.032C157.334 300.2 154.926 300.032 153.022 299.472C149.718 298.52 150.838 293.368 154.59 294.544C156.158 295.048 158.286 295.16 160.638 294.992C160.862 293.368 161.142 291.688 161.366 290.008C161.982 285.864 167.414 286.76 166.798 290.12C166.574 291.52 166.294 292.92 166.07 294.208C168.646 293.648 171.222 292.92 173.63 292.024C176.878 290.792 179.342 295.552 174.918 297.008C171.838 298.016 168.478 298.912 165.23 299.472C164.95 301.264 164.726 302.888 164.502 304.456C166.462 303.784 168.478 303.336 170.382 303.224C170.606 303.224 170.83 303.224 171.054 303.224V303.112C171.446 299.808 176.598 300.872 176.374 303.56C192.726 306.528 191.886 327.136 172.79 333.408C167.75 335.088 166.35 329.88 170.942 328.368C184.886 323.832 185.446 310.616 175.31 308.096C173.462 313.36 169.822 318.12 165.622 322.04C165.79 322.432 166.014 322.824 166.238 323.16C168.198 326.408 163.55 329.992 161.422 326.016ZM169.934 307.76H169.766C168.142 307.928 166.014 308.488 163.998 309.272C163.774 312.128 163.83 314.648 164.11 316.888C166.63 314.256 168.702 311.176 169.934 307.76ZM159.686 320.864C159.182 318.232 159.014 315.208 159.07 311.904C154.646 315.152 152.126 319.128 151.902 322.432C151.734 324.672 153.246 324.896 154.702 324.112C156.382 323.16 158.062 322.096 159.686 320.864ZM222.35 333.912C217.814 337.272 213.726 332.624 218.43 329.544C227.11 323.888 232.038 311.792 228.174 300.088C226.326 294.488 221.006 296.56 219.382 300.032C217.758 303.448 217.646 305.744 217.926 310.616C218.206 316.048 212.158 315.992 211.822 311.96C211.486 307.536 212.438 302.16 213.11 299.024C213.726 296.168 214.79 292.472 215.238 289.056C215.686 285.528 221.118 286.2 220.838 289.56C220.67 291.464 219.998 293.424 219.382 294.768C218.654 296.28 219.214 295.552 219.774 294.824C223.862 289.56 231.142 291.856 233.438 298.184C237.526 309.496 235.51 324.224 222.35 333.912ZM278.574 301.152L278.014 301.208C275.102 301.656 272.302 301.936 269.222 301.88C264.91 301.768 264.686 295.944 269.782 296.56C272.078 296.84 274.654 296.728 278.462 296.168C278.406 293.2 278.406 290.568 278.462 288.776C278.574 284.464 284.398 285.472 284.174 288.72C284.006 290.736 283.894 292.976 283.838 295.216C285.014 294.992 286.302 294.656 287.646 294.376C291.342 293.536 292.854 298.744 287.982 299.528C286.47 299.752 285.07 300.032 283.782 300.256C283.782 302.328 283.782 304.4 283.838 306.472C285.182 306.08 286.582 305.688 288.094 305.184C292.238 303.84 294.366 308.992 289.382 310.392C287.422 310.952 285.63 311.456 284.006 311.848C284.118 313.752 284.23 315.488 284.398 317.112C284.566 318.624 284.734 320.64 284.846 322.656C287.646 323.72 290.054 325.232 291.79 326.632C295.542 329.712 291.902 334.808 288.374 331.56C287.198 330.496 285.798 329.432 284.286 328.536C282.326 333.296 275.494 337.048 268.606 333.632C263.286 331 262.95 324.728 269.054 322.152C272.47 320.696 276.222 320.584 279.75 321.2C279.694 320.024 279.582 318.848 279.47 317.56C279.358 316.216 279.246 314.648 279.134 312.912C274.71 313.752 271.742 313.92 268.942 313.528C264.966 312.968 265.638 307.2 270.118 308.152C271.742 308.488 274.542 308.488 278.854 307.648C278.742 305.52 278.63 303.336 278.574 301.152ZM279.246 326.24C276.222 325.288 273.254 325.12 270.79 326.184C269.334 326.8 269.054 328.592 270.622 329.376C274.038 331.056 278.406 329.376 279.246 326.24ZM323.542 312.576L322.59 312.856C317.662 314.424 315.534 315.096 313.854 315.6C309.43 316.888 307.918 310.952 312.566 309.832C315.086 309.216 319.23 308.152 321.694 307.592L323.262 307.256V306.528C323.15 303.28 322.982 300.984 322.87 298.576C322.702 294.768 328.694 294.432 328.75 298.352C328.75 300.144 328.694 302.72 328.582 305.352L328.526 306.08C332.222 305.296 336.87 304.344 341.462 303.56C341.462 301.88 341.406 300.312 341.406 298.912C341.406 297.68 341.406 297.12 341.35 296.672C341.294 296.224 341.35 295.72 341.294 294.488C341.182 291.016 346.894 290.568 346.894 294.544C346.894 296.448 346.782 298.072 346.67 299.64C346.614 300.592 346.558 301.712 346.502 302.832C347.006 302.776 347.454 302.664 347.958 302.608C351.15 302.216 354.286 301.824 357.254 301.992C361.846 302.272 360.95 307.76 356.414 307.48C353.614 307.312 351.374 307.368 348.518 307.592C347.734 307.648 347.006 307.76 346.222 307.816C346.166 308.768 345.998 309.776 345.886 310.728C345.326 314.536 344.206 318.008 341.574 319.8C339.446 321.256 336.59 321.368 334.686 318.96C333.902 318.008 333.118 317.056 332.502 315.992C331.046 313.528 334.07 310.84 336.254 313.696C337.878 315.824 338.83 315.544 339.614 314.368C340.51 312.968 341.014 310.84 341.238 308.432C336.59 309.16 332.222 310.168 328.526 311.12C328.582 313.752 328.638 316.44 328.806 318.4C329.254 324.448 331.046 326.352 335.75 326.464C339.222 326.576 341.63 325.736 344.878 324.952C349.134 323.944 350.422 329.32 346.446 330.44C342.582 331.504 338.102 331.728 334.854 331.392C327.518 330.608 324.83 327.136 324.046 319.52C323.822 317.504 323.654 314.928 323.542 312.576ZM402.834 328.2C396.786 332.96 385.586 334.192 385.698 323.608C385.698 321.032 386.09 319.464 385.978 316.944C385.698 310.728 377.186 315.992 375.618 318.792C374.274 321.2 372.706 323.664 372.09 326.408C371.082 330.72 369.85 331 368.73 331.168C366.77 331.448 364.138 330.104 365.426 326.856C367.946 320.528 371.138 314.928 374.386 309.888C377.634 304.848 380.546 300.088 383.29 295.72C384.242 294.152 385.754 292.192 386.37 291.072C388.218 287.768 393.426 290.568 391.578 294.096C391.13 294.88 390.738 295.496 390.29 296.056C389.842 296.616 389.282 297.232 388.666 297.96C385.978 300.984 384.186 303.336 382.73 305.408C381.274 307.48 380.154 309.272 378.922 311.12C378.53 311.68 378.698 311.568 379.09 311.232C381.106 309.44 390.794 306.808 391.578 316.272C391.746 318.456 391.298 320.36 391.298 322.432C391.298 327.416 396.114 326.8 399.418 323.832C402.274 321.256 403.506 318.568 404.514 315.992C406.138 311.848 412.018 314.704 409.89 318.904C408.322 321.984 406.138 325.624 402.834 328.2ZM439.85 318.848V318.792C439.85 318.456 439.85 318.064 439.85 317.616C439.85 312.184 439.29 299.136 438.954 290.344C438.954 290.288 438.954 290.232 438.954 290.176C438.954 288.104 440.578 287.096 442.202 287.096C443.882 287.096 445.562 288.16 445.562 290.344C445.562 296.952 444.666 312.352 444.666 317.784C444.666 319.128 444.666 321.48 442.202 321.48C441.026 321.48 439.85 320.584 439.85 318.848ZM446.122 329.32C446.122 332.008 443.77 333.016 442.258 333.016C440.13 333.016 438.394 331.224 438.394 329.32C438.394 326.856 440.746 325.456 442.258 325.456C444.442 325.456 446.122 326.8 446.122 329.32Z" fill="#E89A08"/>
<path d="M81.3477 252.6H527.652V255.4H81.3477V252.6ZM138.742 336.6H470.258V339.4H138.742V336.6Z" fill="#E89A08"/>
<path d="M29.3996 266.195C30.4174 266.195 31.3985 265.492 31.3985 264.443C31.3985 263.393 30.4174 262.69 29.3996 262.69H2.49892C1.48114 262.69 0.5 263.393 0.5 264.443C0.5 265.492 1.48114 266.195 2.49892 266.195H29.3996Z" fill="#E89A08" stroke="#E89A08"/>
<path d="M34.8534 283.603C34.8541 283.603 34.8548 283.603 34.8555 283.603C35.5695 283.331 36.0452 282.704 36.0452 282C36.0452 281.752 35.9892 281.48 35.839 281.225C35.3443 280.338 34.1715 280.033 33.2352 280.399C33.2352 280.399 33.2351 280.399 33.235 280.399L8.86464 289.894C8.86428 289.894 8.86393 289.894 8.86357 289.894C7.88396 290.272 7.34981 291.318 7.87753 292.265C8.37019 293.157 9.54633 293.464 10.4849 293.098C10.4849 293.098 10.485 293.098 10.485 293.098L34.8534 283.603Z" fill="#E89A08" stroke="#E89A08"/>
<path d="M48.6487 297.413L48.6488 297.414L48.6526 297.41C48.8393 297.22 48.9795 296.997 49.0617 296.757H49.1557V296.257C49.1557 295.713 48.8673 295.22 48.4073 294.89C47.584 294.301 46.3621 294.39 45.6552 295.093L45.6548 295.093L28.361 312.31C28.3603 312.311 28.3596 312.312 28.359 312.312C27.9856 312.677 27.8139 313.156 27.8643 313.633C27.9144 314.108 28.1791 314.541 28.6005 314.838C29.4237 315.427 30.6444 315.337 31.3508 314.635L31.3512 314.634L48.6487 297.413Z" fill="#E89A08" stroke="#E89A08"/>
<path d="M35.8417 247.658L35.8417 247.658L35.8454 247.651C35.9697 247.42 36.045 247.156 36.045 246.888C36.045 246.184 35.5693 245.558 34.8553 245.286C34.8546 245.285 34.8539 245.285 34.8532 245.285L10.4849 235.791C10.4848 235.791 10.4848 235.791 10.4847 235.791C9.54189 235.423 8.36897 235.743 7.87805 236.622C7.34686 237.574 7.89845 238.618 8.8624 238.994L8.86257 238.994L33.2349 248.49C33.2349 248.49 33.235 248.49 33.2351 248.49C34.1779 248.857 35.3508 248.537 35.8417 247.658Z" fill="#E89A08" stroke="#E89A08"/>
<path d="M49.146 232.638V232.138H49.0548C48.9751 231.899 48.8362 231.674 48.6373 231.48C48.6366 231.479 48.6359 231.478 48.6353 231.478L31.3414 214.26L31.341 214.26C30.631 213.555 29.4106 213.48 28.5926 214.055C27.7229 214.667 27.5854 215.823 28.3475 216.581C28.3477 216.581 28.3478 216.581 28.3479 216.581L45.6451 233.802L45.6455 233.802C46.3552 234.507 47.575 234.582 48.3929 234.008C48.8734 233.673 49.146 233.175 49.146 232.638Z" fill="#E89A08" stroke="#E89A08"/>
<path d="M579.256 268.148C578.238 268.148 577.257 267.445 577.257 266.396C577.257 265.346 578.238 264.643 579.256 264.643H606.157C607.175 264.643 608.156 265.346 608.156 266.396C608.156 267.445 607.175 268.148 606.157 268.148H579.256Z" fill="#E89A08" stroke="#E89A08"/>
<path d="M573.802 285.557C573.802 285.556 573.801 285.556 573.8 285.556C573.086 285.284 572.611 284.657 572.611 283.953C572.611 283.706 572.667 283.433 572.817 283.178C573.311 282.291 574.484 281.987 575.421 282.352C575.421 282.352 575.421 282.352 575.421 282.352L599.791 291.847C599.791 291.847 599.792 291.847 599.792 291.847C600.772 292.225 601.306 293.271 600.778 294.218C600.286 295.11 599.109 295.417 598.171 295.051C598.171 295.051 598.171 295.051 598.171 295.051L573.802 285.557Z" fill="#E89A08" stroke="#E89A08"/>
<path d="M560.007 299.367L560.007 299.367L560.003 299.363C559.816 299.173 559.676 298.951 559.594 298.711H559.5V298.211C559.5 297.666 559.788 297.173 560.248 296.844C561.071 296.254 562.293 296.343 563 297.046L563.001 297.046L580.295 314.263C580.295 314.264 580.296 314.265 580.297 314.265C580.67 314.63 580.842 315.109 580.791 315.586C580.741 316.061 580.476 316.494 580.055 316.791C579.232 317.38 578.011 317.29 577.305 316.588L577.304 316.588L560.007 299.367Z" fill="#E89A08" stroke="#E89A08"/>
<path d="M572.814 249.611L572.814 249.611L572.81 249.604C572.686 249.373 572.611 249.109 572.611 248.841C572.611 248.138 573.086 247.511 573.8 247.239C573.801 247.238 573.802 247.238 573.803 247.238L598.171 237.744C598.171 237.744 598.171 237.744 598.171 237.744C599.114 237.376 600.287 237.696 600.778 238.575C601.309 239.527 600.757 240.571 599.793 240.947L599.793 240.947L575.421 250.443C575.421 250.443 575.421 250.443 575.421 250.443C574.478 250.81 573.305 250.49 572.814 249.611Z" fill="#E89A08" stroke="#E89A08"/>
<path d="M559.51 234.591V234.091H559.601C559.681 233.852 559.82 233.627 560.019 233.433C560.019 233.432 560.02 233.432 560.02 233.431L577.314 216.214L577.315 216.213C578.025 215.508 579.245 215.433 580.063 216.009C580.933 216.62 581.07 217.777 580.308 218.534C580.308 218.534 580.308 218.534 580.308 218.534L563.011 235.755L563.01 235.755C562.301 236.461 561.081 236.535 560.263 235.961C559.782 235.626 559.51 235.128 559.51 234.591Z" fill="#E89A08" stroke="#E89A08"/>
</svg>
