<svg width="658" height="160" viewBox="0 0 658 160" fill="none" xmlns="http://www.w3.org/2000/svg">
<path d="M307.08 24.636C304.164 27.048 300.276 28.812 294.948 29.712C291.6 30.252 291.348 26.292 294.228 25.896C298.764 25.284 302.256 23.952 304.812 21.684C307.872 18.984 308.088 16.032 306.432 14.124C304.128 11.496 300.06 11.568 296.82 12.54C294.948 13.116 293.292 13.872 291.672 14.664C290.052 15.456 288.432 16.284 286.668 17.112C283.752 18.444 282.204 14.628 284.904 13.512C288.036 12.216 292.284 10.272 296.172 9.3C300.276 8.256 305.748 8.292 309.06 11.748C312.948 15.816 311.508 20.964 307.08 24.636ZM332.892 10.812L332.532 10.848C330.66 11.136 328.86 11.316 326.88 11.28C324.108 11.208 323.964 7.464 327.24 7.86C328.716 8.04 330.372 7.968 332.82 7.608C332.784 5.7 332.784 4.008 332.82 2.856C332.892 0.0839989 336.636 0.731999 336.492 2.82C336.384 4.116 336.312 5.556 336.276 6.996C337.032 6.852 337.86 6.636 338.724 6.456C341.1 5.916 342.072 9.264 338.94 9.768C337.968 9.912 337.068 10.092 336.24 10.236C336.24 11.568 336.24 12.9 336.276 14.232C337.14 13.98 338.04 13.728 339.012 13.404C341.676 12.54 343.044 15.852 339.84 16.752C338.58 17.112 337.428 17.436 336.384 17.688C336.456 18.912 336.528 20.028 336.636 21.072C336.744 22.044 336.852 23.34 336.924 24.636C338.724 25.32 340.272 26.292 341.388 27.192C343.8 29.172 341.46 32.448 339.192 30.36C338.436 29.676 337.536 28.992 336.564 28.416C335.304 31.476 330.912 33.888 326.484 31.692C323.064 30 322.848 25.968 326.772 24.312C328.968 23.376 331.38 23.304 333.648 23.7C333.612 22.944 333.54 22.188 333.468 21.36C333.396 20.496 333.324 19.488 333.252 18.372C330.408 18.912 328.5 19.02 326.7 18.768C324.144 18.408 324.576 14.7 327.456 15.312C328.5 15.528 330.3 15.528 333.072 14.988C333 13.62 332.928 12.216 332.892 10.812ZM333.324 26.94C331.38 26.328 329.472 26.22 327.888 26.904C326.952 27.3 326.772 28.452 327.78 28.956C329.976 30.036 332.784 28.956 333.324 26.94ZM368.748 31.872C365.832 34.032 363.204 31.044 366.228 29.064C371.808 25.428 374.976 17.652 372.492 10.128C371.304 6.528 367.884 7.86 366.84 10.092C365.796 12.288 365.724 13.764 365.904 16.896C366.084 20.388 362.196 20.352 361.98 17.76C361.764 14.916 362.376 11.46 362.808 9.444C363.204 7.608 363.888 5.232 364.176 3.036C364.464 0.767999 367.956 1.2 367.776 3.36C367.668 4.584 367.236 5.844 366.84 6.708C366.372 7.68 366.732 7.212 367.092 6.744C369.72 3.36 374.4 4.836 375.876 8.904C378.504 16.176 377.208 25.644 368.748 31.872ZM461.267 87.816C460.331 84.972 458.603 81.444 456.947 79.428C455.075 77.124 458.603 75.18 460.043 77.232C461.591 79.428 463.211 82.632 464.255 85.62C466.199 84.252 468.251 82.956 470.591 81.66C473.039 80.292 474.911 83.748 472.139 85.152C468.467 87.024 464.759 89.112 461.915 91.524C458.351 94.548 458.243 97.248 461.051 98.616C463.571 99.876 468.719 98.94 470.879 98.148C473.903 96.996 474.983 101.136 471.779 102.036C468.935 102.828 462.923 103.548 459.359 101.748C454.175 99.12 454.391 93.288 460.223 88.644C460.583 88.356 460.907 88.068 461.267 87.816ZM509.363 99.12C507.995 101.964 503.603 104.376 499.679 102.144C496.547 100.344 496.475 96.24 500.219 94.584C502.163 93.72 504.359 93.684 506.555 94.152C506.555 93.576 506.483 93.036 506.447 92.352C506.339 90.876 506.267 88.104 506.159 85.26C504.215 85.548 502.307 85.692 500.255 85.512C497.771 85.296 498.203 81.624 500.975 82.092C502.559 82.38 504.287 82.272 506.051 81.984C506.015 79.968 505.979 78.132 506.015 77.016C506.087 74.676 509.615 75 509.471 76.944C509.399 77.952 509.363 79.464 509.363 81.228C509.975 81.048 510.623 80.904 511.199 80.724C513.539 80.004 515.087 83.28 511.991 84.036C511.127 84.252 510.263 84.468 509.399 84.648C509.435 87.456 509.543 90.264 509.615 92.028C509.651 92.928 509.795 94.116 509.831 95.268C511.343 95.988 512.783 96.888 513.899 97.896C515.951 99.768 513.395 102.9 511.595 100.992C510.947 100.344 510.191 99.696 509.363 99.12ZM491.651 102.612C490.715 103.476 489.095 103.332 488.483 101.388C487.331 97.752 487.439 93.108 487.907 88.752C488.375 84.396 489.167 80.364 489.347 78.024C489.563 75.108 493.343 75.828 492.983 78.096C492.731 79.716 492.119 82.848 491.651 85.908C491.183 88.968 490.823 91.992 490.967 93.432C491.039 94.08 491.075 94.188 491.435 93.468C491.543 93.252 491.795 92.604 491.867 92.424C492.695 90.696 495.431 91.92 494.135 94.62C493.667 95.592 493.307 96.564 493.019 97.464C492.731 98.364 492.515 99.156 492.371 99.732C492.083 100.74 492.551 101.748 491.651 102.612ZM506.267 97.428H506.231C504.431 96.744 502.631 96.564 501.263 97.212C500.399 97.608 500.183 98.832 501.047 99.336C502.775 100.308 505.691 99.552 506.267 97.428ZM526.715 104.664C526.211 104.664 525.707 104.412 525.347 103.872C524.447 102.54 522.467 100.884 520.919 100.092C520.235 99.732 519.947 99.192 519.947 98.652C519.947 97.824 520.595 97.068 521.639 97.068C522.899 97.068 528.659 100.236 528.659 102.684C528.659 103.836 527.687 104.664 526.715 104.664ZM11.4099 131.268C14.0019 131.268 16.6659 131.268 18.0699 131.376C20.5899 131.52 22.3899 133.104 22.4619 135.48C22.5339 137.784 22.5699 141.42 22.5699 144.912C22.5699 147.9 22.5339 150.816 22.4979 152.616C22.3899 155.964 20.4819 157.368 16.9899 157.512C15.5859 157.584 13.8219 157.62 12.0579 157.62C3.45389 157.62 0.537891 157.548 0.393891 152.688C0.321891 150.528 0.285891 147.468 0.285891 144.372C0.285891 141.24 0.321891 138.072 0.393891 135.696C0.573891 131.34 3.84989 131.304 7.66589 131.304C8.09789 129.972 8.45789 128.424 8.60189 127.488C8.70989 126.696 9.53789 126.336 10.4019 126.336C11.4099 126.336 12.5259 126.876 12.5259 127.92C12.5259 128.532 12.0579 129.756 11.4099 131.268ZM3.59789 138.936H19.1859C19.1859 138.108 19.1499 137.352 19.1139 136.74C19.0059 134.292 18.2139 134.292 11.5899 134.292C9.46589 134.292 7.41389 134.328 6.26189 134.4C3.70589 134.544 3.59789 135.588 3.59789 138.936ZM19.2219 146.352V141.996H3.56189V146.352H19.2219ZM19.1859 149.412H3.59789C3.59789 150.384 3.63389 151.284 3.66989 151.968C3.74189 154.344 4.60589 154.416 11.6619 154.416C13.4259 154.416 15.2259 154.38 16.4139 154.308C19.1859 154.164 19.1859 152.76 19.1859 149.412ZM48.2379 131.124L43.0899 131.304C43.0539 131.304 43.0539 131.304 43.0179 131.304C41.9019 131.304 41.3259 130.476 41.3259 129.612C41.3259 128.784 41.8659 127.92 43.0179 127.92L48.9219 127.812C48.9579 127.812 49.0299 127.812 49.0659 127.812C50.8659 127.812 52.4859 128.388 53.2419 130.044C55.3299 134.4 58.0659 137.892 62.3859 140.592C63.1419 141.06 63.4299 141.672 63.4299 142.32C63.4299 143.4 62.4939 144.444 61.3059 144.444C59.2899 144.444 53.8539 139.296 50.4699 132.24C50.1099 131.412 49.4259 131.124 48.4179 131.124C48.3459 131.124 48.3099 131.124 48.2379 131.124ZM51.7299 142.356H47.7699C45.8979 155.208 35.7099 158.088 34.5579 158.088C33.4779 158.088 32.7579 157.224 32.7579 156.324C32.7579 155.676 33.1539 154.992 34.1259 154.704C40.8579 152.616 43.3779 147.828 44.1699 142.356C43.0179 142.356 41.9019 142.392 40.9299 142.392C39.9219 142.392 39.3819 141.672 39.3819 140.916C39.3819 140.844 39.3819 140.772 39.3819 140.7C37.7619 142.572 35.2059 145.092 33.6219 145.092C32.5059 145.092 31.6779 144.192 31.6779 143.256C31.6779 142.716 31.9659 142.14 32.6499 141.708C36.1779 139.512 38.0499 136.92 39.7779 133.644C40.2099 132.852 40.8219 132.528 41.4339 132.528C42.4419 132.528 43.3779 133.356 43.3779 134.364C43.3779 135.552 40.6419 139.188 40.4619 139.404C40.6059 139.368 40.7499 139.332 40.9299 139.332C42.4419 139.296 44.1339 139.296 45.8619 139.296C48.2379 139.296 50.6859 139.296 52.7379 139.332C55.1499 139.368 56.5539 140.844 56.5539 143.292C56.5539 150.276 56.3379 157.944 48.3819 157.944C47.2659 157.944 46.0779 157.764 44.8179 157.44C43.9899 157.224 43.5939 156.504 43.5939 155.784C43.5939 154.848 44.2419 153.912 45.3219 153.912C45.5019 153.912 45.6819 153.948 45.8619 153.984C46.9419 154.272 47.8779 154.416 48.6699 154.416C51.1899 154.416 52.9899 153.192 52.9899 144.3C52.9899 144.12 52.9899 143.94 52.9899 143.76C52.9899 142.752 52.4859 142.356 51.7299 142.356ZM85.0659 135.804C85.4619 136.164 85.6779 136.74 85.5699 137.46C84.9939 142.032 81.7539 148.836 78.2979 152.04C75.5259 154.596 72.5019 153.192 70.9179 150.096C68.6499 145.632 71.0619 138.936 75.8859 135.588C80.3139 132.528 86.9019 132.024 91.4379 134.76C97.0179 138.108 97.9179 144.732 94.7859 149.88C93.0939 152.652 89.5659 154.884 86.0019 155.82C82.8339 156.648 81.7179 153.012 84.8139 152.292C87.5499 151.68 90.3219 150.132 91.5099 148.26C94.0659 144.228 93.0939 139.512 89.5299 137.244C88.1259 136.344 86.6139 135.912 85.0659 135.804ZM82.2219 135.984C80.5659 136.344 78.9459 137.1 77.5779 138.144C74.2299 140.736 72.4299 145.524 73.9419 148.296C74.4819 149.34 75.4179 149.88 76.3179 149.088C79.0179 146.712 81.5379 140.988 81.8979 137.1C81.9339 136.668 82.0419 136.272 82.2219 135.984ZM120.886 134.472V134.616C120.922 134.688 120.922 134.796 120.922 134.904C121.606 143.724 128.086 151.392 134.098 153.624C135.106 153.984 135.502 154.668 135.502 155.388C135.502 156.468 134.566 157.584 133.126 157.584C130.066 157.584 122.47 151.032 119.338 142.824C117.322 149.052 113.254 154.596 106.378 157.8C106.018 157.98 105.658 158.052 105.334 158.052C104.146 158.052 103.246 157.08 103.246 156.072C103.246 155.388 103.642 154.74 104.578 154.308C116.854 148.836 117.178 136.2 117.178 133.5C117.178 132.42 117.106 131.196 117.034 130.116C117.034 130.08 117.034 130.044 117.034 130.008C117.034 128.82 118.042 128.208 119.05 128.208C120.022 128.208 121.03 128.82 121.03 130.116C121.03 131.376 120.994 132.924 120.886 134.472ZM169.342 157.08H141.334C140.182 157.08 139.642 156.324 139.642 155.532C139.642 154.668 140.254 153.804 141.334 153.804L153.61 153.84V147.36L146.842 147.396C145.69 147.396 145.15 146.64 145.15 145.848C145.15 145.02 145.762 144.192 146.842 144.192L153.61 144.228V138.72L147.202 138.756C146.05 140.808 144.718 142.752 143.206 144.624C142.702 145.236 142.126 145.452 141.622 145.452C140.686 145.452 139.894 144.732 139.894 143.832C139.894 143.472 140.038 143.076 140.362 142.68C142.666 140.052 145.33 135.84 146.77 130.908C147.022 130.044 147.706 129.684 148.426 129.684C149.434 129.684 150.442 130.332 150.442 131.34C150.442 131.484 150.406 131.7 150.334 131.88C149.866 133.14 149.362 134.364 148.822 135.552L153.61 135.588V129.18C153.61 127.848 154.546 127.2 155.482 127.2C156.382 127.2 157.318 127.848 157.318 129.18V135.588L167.038 135.552C168.19 135.552 168.766 136.344 168.766 137.172C168.766 137.964 168.19 138.756 167.038 138.756L157.318 138.72V144.228L164.59 144.192C165.742 144.192 166.318 144.984 166.318 145.812C166.318 146.604 165.742 147.396 164.59 147.396L157.318 147.36V153.84L169.342 153.804C170.422 153.804 170.962 154.632 170.962 155.46C170.962 156.288 170.458 157.08 169.342 157.08ZM193.066 135.804C193.462 136.164 193.678 136.74 193.57 137.46C192.994 142.032 189.754 148.836 186.298 152.04C183.526 154.596 180.502 153.192 178.918 150.096C176.65 145.632 179.062 138.936 183.886 135.588C188.314 132.528 194.902 132.024 199.438 134.76C205.018 138.108 205.918 144.732 202.786 149.88C201.094 152.652 197.566 154.884 194.002 155.82C190.834 156.648 189.718 153.012 192.814 152.292C195.55 151.68 198.322 150.132 199.51 148.26C202.066 144.228 201.094 139.512 197.53 137.244C196.126 136.344 194.614 135.912 193.066 135.804ZM190.222 135.984C188.566 136.344 186.946 137.1 185.578 138.144C182.23 140.736 180.43 145.524 181.942 148.296C182.482 149.34 183.418 149.88 184.318 149.088C187.018 146.712 189.538 140.988 189.898 137.1C189.934 136.668 190.042 136.272 190.222 135.984ZM240.586 143.148H240.55L230.218 143.04C233.422 147.036 237.85 150.24 242.062 152.4C242.782 152.76 243.106 153.336 243.106 153.912C243.106 154.92 242.17 155.928 241.018 155.928C239.362 155.928 233.242 151.14 228.958 145.812C228.994 149.592 229.066 153.588 229.066 157.008C229.066 157.944 228.166 158.412 227.23 158.412C226.366 158.412 225.466 157.98 225.466 157.044V157.008L225.61 146.136C221.794 150.96 215.314 156.252 213.478 156.252C212.398 156.252 211.606 155.424 211.606 154.488C211.606 153.912 211.93 153.336 212.722 152.904C216.97 150.672 221.074 147.288 224.206 143.04L214.342 143.148H214.306C213.262 143.148 212.794 142.392 212.794 141.6C212.794 140.736 213.334 139.836 214.342 139.836L225.646 139.908L225.61 135.876H217.15C216.106 135.876 215.638 135.12 215.638 134.328C215.638 133.5 216.178 132.636 217.15 132.636H225.574L225.502 127.992V127.956C225.502 126.948 226.366 126.48 227.23 126.48C228.166 126.48 229.066 126.984 229.066 127.992C229.066 129.648 229.066 131.16 229.03 132.636H237.562C238.534 132.636 239.002 133.464 239.002 134.256C239.002 135.084 238.534 135.876 237.562 135.876H228.958C228.922 137.136 228.922 138.468 228.922 139.908L240.55 139.836C241.522 139.836 242.026 140.7 242.026 141.528C242.026 142.356 241.558 143.148 240.586 143.148ZM277.09 144.732H277.054L266.542 144.588C270.106 148.656 274.426 151.464 278.71 153.552C279.466 153.912 279.754 154.488 279.754 155.064C279.754 156.036 278.818 157.008 277.666 157.008C275.866 157.008 269.062 151.86 264.958 147.036C264.994 150.456 265.066 153.876 265.066 157.332C265.066 158.304 264.166 158.772 263.266 158.772C262.402 158.772 261.538 158.304 261.538 157.368V157.332L261.646 147.288C258.55 151.068 254.698 154.308 250.018 157.008C249.586 157.26 249.19 157.368 248.83 157.368C247.786 157.368 246.994 156.54 246.994 155.64C246.994 155.1 247.318 154.488 248.11 154.092C252.718 151.752 256.606 148.728 259.954 144.588L249.838 144.732H249.802C248.794 144.732 248.29 144.012 248.29 143.256C248.29 142.464 248.83 141.672 249.838 141.672L261.682 141.708L261.646 134.832H251.458C250.414 134.832 249.91 134.076 249.91 133.32C249.91 132.528 250.45 131.736 251.458 131.736H261.61L261.574 127.668C261.574 126.624 262.438 126.12 263.266 126.12C264.166 126.12 265.03 126.66 265.03 127.668C265.03 129.036 264.994 130.368 264.994 131.736H274.534C275.506 131.736 276.01 132.528 276.01 133.284C276.01 134.076 275.506 134.832 274.534 134.832H264.958C264.922 137.136 264.922 139.404 264.922 141.708H266.254C267.37 140.376 268.594 138.144 269.35 136.128C269.566 135.516 270.07 135.228 270.61 135.228C271.546 135.228 272.626 136.056 272.626 136.992C272.626 137.496 271.294 139.944 269.746 141.708L277.054 141.672C278.026 141.672 278.53 142.464 278.53 143.22C278.53 143.976 278.062 144.732 277.09 144.732ZM257.47 141.348C257.038 141.348 256.57 141.132 256.246 140.592C255.454 139.332 254.446 138.252 253.942 137.82C253.546 137.496 253.402 137.172 253.402 136.812C253.402 136.128 254.158 135.48 255.022 135.48C256.57 135.48 259.234 138.216 259.234 139.512C259.234 140.52 258.334 141.348 257.47 141.348ZM308.986 138.288C306.394 137.748 303.658 137.64 300.634 138.396C298.654 138.9 297.502 135.696 300.13 135.048C303.334 134.256 307.078 134.22 309.598 134.832C312.118 135.444 311.434 138.828 308.986 138.288ZM310.93 154.704C307.078 155.676 301.174 155.568 298.582 152.76C297.106 151.14 299.266 148.584 301.138 150.276C303.082 152.04 307.402 151.464 310.21 150.888C313.126 150.276 313.306 154.092 310.93 154.704ZM291.886 156.432C290.986 157.224 289.654 157.08 288.934 155.316C286.054 148.224 288.898 137.568 289.546 133.284C289.942 130.62 293.434 131.412 293.038 133.5C292.462 136.416 290.302 144.876 291.166 148.224C291.274 148.692 291.418 148.584 291.562 148.26C291.634 148.08 292.03 147.36 292.174 147.108C293.29 145.344 295.522 147.072 294.694 148.512C293.362 150.852 292.786 152.508 292.57 153.552C292.354 154.524 292.786 155.64 291.886 156.432ZM345.418 150.636C342.502 153.048 338.614 154.812 333.286 155.712C329.938 156.252 329.686 152.292 332.566 151.896C337.102 151.284 340.594 149.952 343.15 147.684C346.21 144.984 346.426 142.032 344.77 140.124C342.466 137.496 338.398 137.568 335.158 138.54C333.286 139.116 331.63 139.872 330.01 140.664C328.39 141.456 326.77 142.284 325.006 143.112C322.09 144.444 320.542 140.628 323.242 139.512C326.374 138.216 330.622 136.272 334.51 135.3C338.614 134.256 344.086 134.292 347.398 137.748C351.286 141.816 349.846 146.964 345.418 150.636ZM385.846 144.948C386.134 147.576 382.57 148.296 382.066 145.812C381.49 142.932 380.014 140.16 378.07 138.828C376.342 137.64 378.286 134.976 380.446 136.596C383.002 138.504 385.486 141.888 385.846 144.948ZM370.114 150.888C367.81 154.632 364.606 154.308 362.59 152.148C359.998 149.34 358.81 145.164 358.522 140.628C358.378 138.576 358.306 137.928 358.342 136.632C358.414 134.364 361.906 133.896 362.014 136.596C362.086 138 361.942 138.072 362.014 139.728C362.158 143.508 362.842 147.072 364.858 149.016C365.794 149.916 366.262 150.024 367.054 148.944C367.486 148.332 367.99 147.396 368.242 146.82C369.214 144.732 372.202 146.244 371.518 148.116C371.158 149.124 370.51 150.24 370.114 150.888ZM413.772 156.756C402.9 156.72 399.156 146.748 403.08 139.512C403.44 138.828 403.764 138.252 404.232 137.64C404.808 136.884 404.628 136.92 403.944 137.136C401.244 138 401.856 138 399.408 138.936C398.256 139.368 397.248 139.728 396.168 140.016C393 140.88 392.064 136.74 394.944 136.128C395.7 135.948 397.788 135.552 398.94 135.264C400.704 134.832 403.836 134.112 407.508 133.068C411.216 132.024 414.168 131.16 417.336 130.944C419.568 130.8 420.18 132.564 419.784 133.716C419.568 134.328 418.776 135.048 416.256 134.904C414.42 134.796 412.116 135.48 410.892 135.912C408.876 136.632 407.076 138.792 406.284 140.124C403.116 145.416 405.528 152.976 413.592 152.688C417.372 152.544 417.588 156.792 413.772 156.756ZM455.676 139.152H455.64L446.424 139.044C444.66 140.34 442.788 141.564 440.844 142.644L440.772 142.824C444.084 142.5 447.576 141.816 450.996 140.952C451.176 140.916 451.356 140.88 451.5 140.88C452.472 140.88 453.084 141.636 453.084 142.428C453.084 143.04 452.652 143.688 451.68 143.94C447.648 144.912 441.816 145.56 440.052 145.668C439.908 146.136 439.764 146.64 439.62 147.108C441.492 147.072 443.796 147.036 445.992 147.036C447 147.036 447.972 147.036 448.908 147.072C451.212 147.108 452.328 148.152 452.328 150.06C452.328 152.796 450.348 158.16 443.004 158.16C441.312 158.16 439.512 157.872 437.712 157.332C436.956 157.116 436.596 156.468 436.596 155.82C436.596 155.028 437.136 154.236 438.144 154.236C438.36 154.236 438.576 154.272 438.828 154.344C440.412 154.848 441.852 155.064 443.076 155.064C448.08 155.064 448.872 151.608 448.872 150.636C448.872 150.06 448.548 149.808 447.72 149.808C446.568 149.772 445.092 149.772 443.544 149.772C441.96 149.772 440.34 149.772 438.828 149.808C438.324 151.464 437.784 151.824 436.776 151.824C435.984 151.824 435.192 151.392 435.192 150.6C435.192 150.384 435.228 150.168 435.336 149.952C435.912 148.62 436.596 146.424 437.1 144.552C432.312 146.784 428.388 147.864 427.704 147.864C426.66 147.864 426.048 147.108 426.048 146.316C426.048 145.632 426.516 144.948 427.524 144.696C432.6 143.544 437.244 141.636 441.384 139.044L428.964 139.152H428.928C427.884 139.152 427.38 138.432 427.38 137.676C427.38 136.956 427.92 136.2 428.964 136.2L438.792 136.236V133.248L432.168 133.284C431.124 133.284 430.584 132.528 430.584 131.808C430.584 131.052 431.124 130.332 432.168 130.332L438.792 130.368V127.992C438.792 126.948 439.62 126.48 440.484 126.48C441.348 126.48 442.212 126.984 442.212 127.992V130.368L446.964 130.332C448.044 130.332 448.548 131.052 448.548 131.808C448.548 132.528 448.044 133.284 446.964 133.284L442.176 133.248V136.236H445.308C447.972 134.076 450.348 131.556 452.436 128.712C452.76 128.244 453.192 128.064 453.624 128.064C454.596 128.064 455.532 128.964 455.532 129.9C455.532 130.188 455.46 130.476 455.244 130.728C453.732 132.672 451.932 134.472 449.988 136.2H455.64C456.684 136.2 457.188 136.956 457.188 137.676C457.188 138.432 456.684 139.152 455.676 139.152ZM480.732 133.932C478.608 133.176 476.124 131.592 475.368 130.98C473.532 129.504 475.692 127.164 477.816 128.496C479.04 129.252 480.516 130.044 482.316 130.656C484.944 131.556 483.216 134.796 480.732 133.932ZM475.152 149.412C476.52 148.908 478.608 148.98 479.652 151.248C480.264 152.58 481.128 153.696 482.856 153.624C484.44 153.552 486.924 153.192 488.544 152.472C491.28 151.248 492.576 154.956 489.696 156.036C487.536 156.828 484.116 157.26 481.524 156.9C479.148 156.54 477.672 155.388 476.808 153.192C476.016 151.248 473.352 150.96 471.012 154.704C469.752 156.72 468.708 156.9 467.988 156.936C466.8 157.008 465.18 155.82 466.764 154.02C467.952 152.652 469.824 150.6 471.084 149.484C472.344 148.368 473.352 147.252 474.504 146.136C476.16 144.516 478.5 142.104 480.3 140.016C480.696 139.548 480.444 139.62 480.12 139.764C477.456 141.06 474.936 142.104 472.704 142.608C469.644 143.292 469.14 139.548 471.624 139.188C473.244 138.936 476.052 138.216 477.96 137.496C478.896 137.136 479.76 136.704 480.768 136.56C483.756 136.164 485.952 138.864 484.08 140.808C482.388 142.608 476.952 147.612 475.152 149.412ZM518.186 156.756C507.314 156.72 503.57 146.748 507.494 139.512C507.854 138.828 508.178 138.252 508.646 137.64C509.222 136.884 509.042 136.92 508.358 137.136C505.658 138 506.27 138 503.822 138.936C502.67 139.368 501.662 139.728 500.582 140.016C497.414 140.88 496.478 136.74 499.358 136.128C500.114 135.948 502.202 135.552 503.354 135.264C505.118 134.832 508.25 134.112 511.922 133.068C515.63 132.024 518.582 131.16 521.75 130.944C523.982 130.8 524.594 132.564 524.198 133.716C523.982 134.328 523.19 135.048 520.67 134.904C518.834 134.796 516.53 135.48 515.306 135.912C513.29 136.632 511.49 138.792 510.698 140.124C507.53 145.416 509.942 152.976 518.006 152.688C521.786 152.544 522.002 156.792 518.186 156.756ZM561.17 144.948C561.458 147.576 557.894 148.296 557.39 145.812C556.814 142.932 555.338 140.16 553.394 138.828C551.666 137.64 553.61 134.976 555.77 136.596C558.326 138.504 560.81 141.888 561.17 144.948ZM545.438 150.888C543.134 154.632 539.93 154.308 537.914 152.148C535.322 149.34 534.134 145.164 533.846 140.628C533.702 138.576 533.63 137.928 533.666 136.632C533.738 134.364 537.23 133.896 537.338 136.596C537.41 138 537.266 138.072 537.338 139.728C537.482 143.508 538.166 147.072 540.182 149.016C541.118 149.916 541.586 150.024 542.378 148.944C542.81 148.332 543.314 147.396 543.566 146.82C544.538 144.732 547.526 146.244 546.842 148.116C546.482 149.124 545.834 150.24 545.438 150.888ZM588.386 154.524C589.502 156.936 586.01 159.06 584.858 156.756C582.77 152.652 579.71 147.972 577.226 145.056C574.85 142.284 574.85 139.728 577.658 136.812C580.106 134.256 582.878 131.592 585.038 128.676C586.694 126.48 589.934 129.036 588.242 131.124C586.442 133.32 582.626 136.452 580.394 138.684C578.846 140.232 578.774 141.312 579.962 142.788C583.562 147.288 586.622 150.672 588.386 154.524ZM630.47 136.272C630.398 138.144 629.066 139.224 627.014 139.332C625.826 139.404 624.494 139.44 623.162 139.44C617.33 139.44 615.89 139.224 615.89 135.12C615.89 133.716 615.962 132.06 616.034 130.764C616.106 129.18 617.294 127.668 619.562 127.596C620.786 127.56 622.046 127.524 623.27 127.524C624.53 127.524 625.754 127.56 626.906 127.596C628.706 127.668 630.254 129.036 630.362 130.512C630.47 131.664 630.506 133.068 630.506 134.4C630.506 135.048 630.506 135.696 630.47 136.272ZM633.242 143.616H621.362C621.002 144.192 620.606 144.768 620.21 145.344C622.298 145.308 624.89 145.308 627.194 145.308C628.13 145.308 629.03 145.308 629.822 145.308C631.946 145.344 633.098 146.604 633.098 148.908C633.098 150.348 632.666 153.372 632.126 154.74C631.19 157.152 629.246 158.268 626.834 158.268C624.53 158.268 623.558 157.764 623.558 156.468C623.558 156.36 623.558 156.252 623.594 156.144C621.758 157.836 620.066 158.664 619.382 158.664C618.41 158.664 617.762 157.908 617.762 157.152C617.762 156.684 618.014 156.18 618.626 155.892C622.19 154.092 624.206 151.68 625.79 147.828H623.702C620.678 153.408 615.314 157.152 613.586 157.152C612.614 157.152 612.002 156.36 612.002 155.568C612.002 155.064 612.254 154.596 612.83 154.344C616.106 152.94 618.59 150.816 620.39 147.828C619.634 147.828 618.878 147.864 618.194 147.864C616.25 149.988 612.65 152.724 611.426 152.724C610.49 152.724 609.806 151.932 609.806 151.176C609.806 150.744 610.058 150.312 610.598 150.024C613.946 148.296 616.034 146.424 617.906 143.616H614.594C614.702 143.832 614.774 144.048 614.774 144.3C614.774 144.84 614.486 145.416 613.766 145.812C611.102 147.216 605.378 149.808 604.082 149.808C603.074 149.808 602.534 149.016 602.534 148.224C602.534 147.576 602.894 146.892 603.722 146.676C604.874 146.352 606.062 145.956 607.214 145.56L607.178 137.748H604.514C603.506 137.748 603.038 137.028 603.038 136.308C603.038 135.516 603.578 134.724 604.514 134.724H607.178V128.748C607.178 127.704 608.006 127.2 608.834 127.2C609.698 127.2 610.526 127.704 610.526 128.748V134.724H612.974C613.91 134.724 614.378 135.48 614.378 136.236C614.378 136.992 613.91 137.748 612.974 137.748H610.49V144.228C611.282 143.868 612.002 143.544 612.686 143.184C612.866 143.112 613.01 143.04 613.154 143.004C613.01 142.788 612.938 142.536 612.938 142.284C612.938 141.564 613.478 140.844 614.45 140.844H633.242C634.214 140.844 634.682 141.528 634.682 142.212C634.682 142.932 634.214 143.616 633.242 143.616ZM627.23 132.168L627.194 131.556C627.122 130.188 626.906 130.152 623.234 130.152C619.526 130.152 619.13 130.152 619.058 131.592L619.022 132.168H627.23ZM627.266 135.624V134.688H618.95C618.95 136.812 618.986 136.884 623.018 136.884C626.906 136.884 627.23 136.776 627.266 135.624ZM628.994 147.828C628.094 150.348 626.654 152.832 624.854 154.848C624.926 154.848 624.998 154.812 625.106 154.812C625.214 154.812 625.322 154.848 625.466 154.884C625.97 154.992 626.402 155.064 626.798 155.064C628.202 155.064 629.534 154.524 629.966 149.196C629.966 149.124 629.966 149.052 629.966 149.016C629.966 148.26 629.606 147.9 628.994 147.828ZM653.114 148.188V148.152C653.114 147.936 653.114 147.684 653.114 147.396C653.114 143.904 652.754 135.516 652.538 129.864C652.538 129.828 652.538 129.792 652.538 129.756C652.538 128.424 653.582 127.776 654.626 127.776C655.706 127.776 656.786 128.46 656.786 129.864C656.786 134.112 656.21 144.012 656.21 147.504C656.21 148.368 656.21 149.88 654.626 149.88C653.87 149.88 653.114 149.304 653.114 148.188ZM657.146 154.92C657.146 156.648 655.634 157.296 654.662 157.296C653.294 157.296 652.178 156.144 652.178 154.92C652.178 153.336 653.69 152.436 654.662 152.436C656.066 152.436 657.146 153.3 657.146 154.92Z" fill="black"/>
<path d="M146.041 102V102.048C146.041 103.056 145.465 103.488 144.841 103.488C144.217 103.488 143.545 102.96 143.497 102.096C143.449 97.968 143.401 92.976 143.401 87.792C143.401 80.64 143.449 73.248 143.545 67.536C143.593 64.224 145.417 61.968 148.969 61.824C149.785 61.776 150.553 61.776 151.321 61.776C153.001 61.776 154.489 61.824 156.217 61.872C157.129 61.872 157.513 62.496 157.513 63.12C157.513 63.744 157.081 64.368 156.265 64.368C156.217 64.368 156.121 64.368 156.073 64.368C155.785 64.32 154.441 64.224 149.449 64.224C147.529 64.272 146.137 65.328 146.041 67.776C145.897 70.944 145.849 75.264 145.849 79.968C145.849 87.456 145.993 95.856 146.041 102ZM197.545 92.064C197.449 96.672 193.897 98.112 190.249 98.304C185.161 98.592 177.241 98.64 172.297 98.64C168.697 98.64 168.697 93.504 172.249 93.648C177.385 93.84 186.121 93.84 189.673 93.6C191.113 93.504 192.361 92.688 192.457 90.912C192.601 88.032 192.601 83.136 192.505 80.64C192.457 79.056 191.305 78.192 189.481 78.144C185.257 78 177.673 78.288 172.681 78.528C168.937 78.72 168.745 74.016 172.441 73.872C177.721 73.632 186.361 73.536 191.161 73.632C195.913 73.728 197.593 76.56 197.593 79.776C197.593 82.704 197.641 87.792 197.545 92.064ZM247.177 86.16H217.033C215.305 86.16 214.489 85.008 214.489 83.856C214.489 82.656 215.401 81.408 217.033 81.408H247.177C248.809 81.408 249.625 82.608 249.625 83.808C249.625 84.96 248.809 86.16 247.177 86.16ZM283.561 85.728C283.177 91.824 279.241 100.656 269.353 104.064C264.505 105.744 263.305 100.464 266.761 99.6C274.921 97.536 278.137 90.288 278.713 85.728C273.529 85.728 268.345 85.824 264.553 85.92C261.673 86.016 261.385 81.648 264.553 81.6C268.105 81.504 273.433 81.456 278.809 81.456C278.809 79.44 278.761 77.28 278.761 75.696C275.257 76.272 271.897 76.56 269.353 76.512C265.801 76.416 265.945 71.856 269.449 72.096C274.345 72.432 283.129 70.608 287.065 68.976C291.193 67.248 292.105 72.192 289.465 73.104C287.737 73.728 285.721 74.256 283.657 74.736C283.705 76.608 283.705 79.152 283.657 81.456C288.697 81.456 293.113 81.504 295.369 81.552C298.729 81.6 298.633 85.968 295.273 85.872C292.633 85.776 288.313 85.728 283.561 85.728ZM345.529 77.376C339.577 88.176 329.641 98.016 318.601 101.52C314.521 102.816 312.985 97.344 316.969 96.336C326.617 93.888 336.313 83.952 341.161 74.544C342.697 71.568 347.641 73.584 345.529 77.376ZM325.513 81.264C324.745 82.368 323.065 83.04 321.577 81.696C319.801 80.064 316.729 78.672 314.473 78.144C311.593 77.472 312.793 72.624 316.441 73.632C318.985 74.352 322.585 75.648 324.889 77.28C326.377 78.336 326.281 80.16 325.513 81.264ZM394.487 67.776C393.815 67.056 391.511 65.424 390.551 65.04C388.103 64.08 389.831 61.2 392.087 61.92C393.383 62.352 395.831 63.552 396.935 64.656C398.855 66.576 396.119 69.6 394.487 67.776ZM390.119 72.048C389.495 71.28 387.143 69.6 386.183 69.168C383.735 68.16 385.655 65.28 387.863 66.096C389.159 66.576 391.559 67.824 392.615 68.976C394.487 70.992 391.703 73.92 390.119 72.048ZM376.439 71.28L376.103 71.712C378.167 71.568 380.519 71.424 382.439 71.328C386.135 71.136 389.351 73.728 387.575 77.136C381.719 88.32 375.095 98.016 361.607 103.344C357.527 104.928 355.559 100.224 359.543 98.832C370.199 95.136 378.119 85.584 381.671 77.424C382.055 76.512 381.671 75.6 380.519 75.648C378.503 75.696 374.999 76.032 372.839 76.272C369.575 80.592 365.351 85.632 362.039 87.888C358.823 90.048 355.991 85.872 359.255 83.856C363.863 81.024 370.103 72.24 372.311 68.448C373.895 65.76 378.695 68.064 376.439 71.28ZM412.055 65.568V65.52C412.055 64.512 412.631 64.08 413.255 64.08C413.927 64.08 414.599 64.608 414.647 65.472C414.695 69.6 414.743 74.592 414.743 79.776C414.743 86.928 414.695 94.32 414.599 100.032C414.551 103.344 412.679 105.6 409.127 105.744C407.975 105.792 406.967 105.792 405.959 105.792C404.615 105.792 403.319 105.792 401.879 105.744C401.015 105.744 400.583 105.12 400.583 104.496C400.583 103.872 401.063 103.2 401.879 103.2C401.927 103.2 402.023 103.2 402.071 103.2C402.359 103.248 403.703 103.344 408.695 103.344C410.615 103.296 412.007 102.24 412.103 99.792C412.199 96.912 412.247 93.072 412.247 88.896C412.247 81.072 412.103 72.048 412.055 65.568Z" fill="#52AA80"/>
<path d="M111.961 106.8H446.039V109.2H111.961V106.8Z" fill="#52AA80"/>
</svg>
