<svg width="559" height="213" viewBox="0 0 559 213" fill="none" xmlns="http://www.w3.org/2000/svg">
<path d="M166.193 11.568C162.845 10.848 159.029 10.776 155.501 11.46C152.657 12 152.189 8.184 155.393 7.716C158.813 7.212 163.889 7.176 166.877 7.824C169.901 8.472 169.109 12.18 166.193 11.568ZM169.721 29.1C162.593 31.332 153.953 29.64 151.469 26.148C150.173 24.312 152.513 21.828 154.457 23.808C157.517 26.94 163.349 26.688 168.785 25.14C171.773 24.312 172.637 28.2 169.721 29.1ZM202.193 11.568C198.845 10.848 195.029 10.776 191.501 11.46C188.657 12 188.189 8.184 191.393 7.716C194.813 7.212 199.889 7.176 202.877 7.824C205.901 8.472 205.109 12.18 202.193 11.568ZM205.721 29.1C198.593 31.332 189.953 29.64 187.469 26.148C186.173 24.312 188.513 21.828 190.457 23.808C193.517 26.94 199.349 26.688 204.785 25.14C207.773 24.312 208.637 28.2 205.721 29.1ZM232.937 10.812L232.577 10.848C230.705 11.136 228.905 11.316 226.925 11.28C224.153 11.208 224.009 7.464 227.285 7.86C228.761 8.04 230.417 7.968 232.865 7.608C232.829 5.7 232.829 4.008 232.865 2.856C232.937 0.0839989 236.681 0.731999 236.537 2.82C236.429 4.116 236.357 5.556 236.321 6.996C237.077 6.852 237.905 6.636 238.769 6.456C241.145 5.916 242.117 9.264 238.985 9.768C238.013 9.912 237.113 10.092 236.285 10.236C236.285 11.568 236.285 12.9 236.321 14.232C237.185 13.98 238.085 13.728 239.057 13.404C241.721 12.54 243.089 15.852 239.885 16.752C238.625 17.112 237.473 17.436 236.429 17.688C236.501 18.912 236.573 20.028 236.681 21.072C236.789 22.044 236.897 23.34 236.969 24.636C238.769 25.32 240.317 26.292 241.433 27.192C243.845 29.172 241.505 32.448 239.237 30.36C238.481 29.676 237.581 28.992 236.609 28.416C235.349 31.476 230.957 33.888 226.529 31.692C223.109 30 222.893 25.968 226.817 24.312C229.013 23.376 231.425 23.304 233.693 23.7C233.657 22.944 233.585 22.188 233.513 21.36C233.441 20.496 233.369 19.488 233.297 18.372C230.453 18.912 228.545 19.02 226.745 18.768C224.189 18.408 224.621 14.7 227.501 15.312C228.545 15.528 230.345 15.528 233.117 14.988C233.045 13.62 232.973 12.216 232.937 10.812ZM233.369 26.94C231.425 26.328 229.517 26.22 227.933 26.904C226.997 27.3 226.817 28.452 227.825 28.956C230.021 30.036 232.829 28.956 233.369 26.94ZM282.463 14.88C281.959 14.304 280.087 13.044 279.331 12.756C277.387 12 278.791 9.696 280.555 10.272C281.563 10.596 283.507 11.568 284.371 12.432C285.883 13.944 283.759 16.32 282.463 14.88ZM278.755 18.156C278.251 17.58 276.451 16.212 275.695 15.888C273.787 15.06 275.227 12.828 276.991 13.476C277.999 13.836 279.943 14.844 280.771 15.744C282.247 17.328 280.015 19.632 278.755 18.156ZM275.299 30.756C264.427 30.72 260.683 20.748 264.607 13.512C264.967 12.828 265.291 12.252 265.759 11.64C266.335 10.884 266.155 10.92 265.471 11.136C262.771 12 263.383 12 260.935 12.936C259.783 13.368 258.775 13.728 257.695 14.016C254.527 14.88 253.555 10.74 256.435 10.128C257.191 9.948 259.279 9.552 260.431 9.264C262.195 8.832 265.363 8.112 269.035 7.068C272.743 6.024 275.659 5.16 278.827 4.944C281.059 4.8 281.671 6.564 281.275 7.716C281.059 8.328 280.267 9.048 277.747 8.904C275.911 8.796 273.643 9.48 272.419 9.912C270.403 10.632 268.567 12.792 267.775 14.124C264.607 19.416 267.019 26.976 275.083 26.688C278.863 26.544 279.115 30.792 275.299 30.756ZM309.895 16.464C310.147 16.824 310.435 17.148 310.687 17.508C311.983 19.164 313.423 22.044 313.027 24.096C312.667 25.968 310.939 26.292 309.319 25.356C307.411 24.24 302.299 23.52 299.779 24.744C297.907 25.644 298.663 27.552 300.319 28.236C301.903 28.92 303.919 29.208 306.151 28.776C309.355 28.164 309.571 32.16 306.331 32.448C303.667 32.664 301.327 32.124 299.203 31.224C294.955 29.424 293.947 24.384 297.979 22.332C300.643 20.964 305.071 21.252 307.447 21.54C309.391 21.792 309.967 21.252 307.879 18.444C307.627 18.084 307.339 17.76 307.087 17.364C304.459 18.084 301.471 18.516 298.807 18.336C296.323 18.156 295.999 14.484 299.059 14.88C300.931 15.132 303.199 14.88 305.251 14.376C304.711 13.44 304.135 12.396 303.559 11.28C301.831 11.64 299.887 11.856 297.835 11.856C295.495 11.856 294.775 8.364 297.655 8.58C299.239 8.688 300.751 8.58 302.119 8.364C301.327 6.708 300.535 5.124 299.527 4.008C297.511 1.74 301.327 0.372 302.623 2.136C303.451 3.288 304.315 5.376 305.215 7.572C306.115 7.284 306.871 6.924 307.483 6.6C309.859 5.34 311.227 8.508 309.319 9.408C308.491 9.804 307.555 10.164 306.439 10.524C306.907 11.568 307.411 12.576 307.987 13.548C309.103 13.152 310.039 12.756 310.687 12.396C313.207 10.956 314.755 14.268 312.739 15.276C311.983 15.672 311.011 16.068 309.895 16.464ZM351.115 15.456C349.099 14.772 345.823 14.376 343.915 15.096C342.043 15.78 340.927 12.828 343.303 12C345.139 11.352 348.415 10.92 351.943 12.18C354.355 13.044 353.383 16.212 351.115 15.456ZM351.115 30.036C345.895 31.08 341.431 29.424 339.847 27.66C338.299 25.932 340.531 23.088 342.403 24.996C344.239 26.868 346.435 26.688 350.647 26.328C353.275 26.112 353.491 29.568 351.115 30.036ZM337.687 11.172C335.419 19.056 332.863 25.284 331.099 29.28C330.019 31.692 326.203 30.648 327.715 27.588C329.263 24.42 331.819 18.948 334.015 11.964C332.107 12.18 330.271 12.108 328.759 11.46C326.923 10.668 327.283 7.392 329.983 8.364C331.495 8.904 333.259 8.904 334.951 8.58C335.167 7.248 335.023 6.276 334.915 4.692C334.771 2.64 338.155 2.532 338.515 4.512C338.659 5.412 338.659 6.384 338.551 7.392C339.055 7.14 339.487 6.888 339.919 6.636C341.791 5.412 344.023 8.4 341.323 9.732C340.315 10.236 339.019 10.776 337.687 11.172ZM385.459 8.544L385.423 9.408C386.215 9.228 386.935 9.084 387.547 8.904C389.851 8.256 391.255 11.388 388.195 12.036C387.259 12.252 386.323 12.468 385.351 12.648C385.351 13.692 385.423 14.772 385.495 16.212C385.819 23.412 383.947 28.632 378.331 32.592C376.243 34.068 373.975 31.26 376.207 29.82C380.815 26.832 382.255 22.44 382.111 16.284C382.075 15.168 382.039 14.16 382.003 13.188C379.879 13.476 377.827 13.62 375.955 13.44C373.543 13.224 373.759 9.732 376.531 10.164C377.971 10.38 379.951 10.236 381.967 9.984C381.967 9.66 381.967 9.372 381.967 9.048C382.003 6.852 381.715 6.132 381.571 4.8C381.283 2.136 384.847 2.28 385.279 4.26C385.531 5.484 385.531 6.708 385.459 8.544ZM370.411 27.912C369.691 28.812 367.999 29.1 367.207 27.624C363.967 21.396 365.623 14.556 366.019 10.128C366.199 8.076 366.415 6.924 366.487 5.376C366.595 3.144 369.979 3.18 369.979 5.448C369.979 6.564 369.655 8.436 369.403 10.272C368.971 13.296 367.927 16.392 368.467 19.956C368.575 20.568 368.791 20.82 369.079 20.064C369.259 19.632 369.655 18.912 369.835 18.48C370.807 16.428 373.219 17.868 372.499 19.524C371.347 22.152 370.771 24.276 370.699 25.824C370.663 26.22 370.915 27.264 370.411 27.912ZM428.335 4.188C429.595 5.808 427.327 7.752 426.283 6.24C425.851 5.628 424.231 4.26 423.547 3.9C421.783 2.964 423.367 0.947999 424.987 1.704C425.923 2.136 427.615 3.288 428.335 4.188ZM424.735 6.996C425.959 8.652 423.619 10.56 422.611 9.012C422.215 8.4 420.631 6.924 419.947 6.528C418.219 5.556 419.875 3.576 421.459 4.404C422.359 4.872 424.051 6.06 424.735 6.996ZM409.003 15.816C408.067 12.972 406.339 9.444 404.683 7.428C402.811 5.124 406.339 3.18 407.779 5.232C409.327 7.428 410.947 10.632 411.991 13.62C413.935 12.252 415.987 10.956 418.327 9.66C420.775 8.292 422.647 11.748 419.875 13.152C416.203 15.024 412.495 17.112 409.651 19.524C406.087 22.548 405.979 25.248 408.787 26.616C411.307 27.876 416.455 26.94 418.615 26.148C421.639 24.996 422.719 29.136 419.515 30.036C416.671 30.828 410.659 31.548 407.095 29.748C401.911 27.12 402.127 21.288 407.959 16.644C408.319 16.356 408.643 16.068 409.003 15.816ZM47.3529 82.812L46.9929 82.848C45.1209 83.136 43.3209 83.316 41.3409 83.28C38.5689 83.208 38.4249 79.464 41.7009 79.86C43.1769 80.04 44.8329 79.968 47.2809 79.608C47.2449 77.7 47.2449 76.008 47.2809 74.856C47.3529 72.084 51.0969 72.732 50.9529 74.82C50.8449 76.116 50.7729 77.556 50.7369 78.996C51.4929 78.852 52.3209 78.636 53.1849 78.456C55.5609 77.916 56.5329 81.264 53.4009 81.768C52.4289 81.912 51.5289 82.092 50.7009 82.236C50.7009 83.568 50.7009 84.9 50.7369 86.232C51.6009 85.98 52.5009 85.728 53.4729 85.404C56.1369 84.54 57.5049 87.852 54.3009 88.752C53.0409 89.112 51.8889 89.436 50.8449 89.688C50.9169 90.912 50.9889 92.028 51.0969 93.072C51.2049 94.044 51.3129 95.34 51.3849 96.636C53.1849 97.32 54.7329 98.292 55.8489 99.192C58.2609 101.172 55.9209 104.448 53.6529 102.36C52.8969 101.676 51.9969 100.992 51.0249 100.416C49.7649 103.476 45.3729 105.888 40.9449 103.692C37.5249 102 37.3089 97.968 41.2329 96.312C43.4289 95.376 45.8409 95.304 48.1089 95.7C48.0729 94.944 48.0009 94.188 47.9289 93.36C47.8569 92.496 47.7849 91.488 47.7129 90.372C44.8689 90.912 42.9609 91.02 41.1609 90.768C38.6049 90.408 39.0369 86.7 41.9169 87.312C42.9609 87.528 44.7609 87.528 47.5329 86.988C47.4609 85.62 47.3889 84.216 47.3529 82.812ZM47.7849 98.94C45.8409 98.328 43.9329 98.22 42.3489 98.904C41.4129 99.3 41.2329 100.452 42.2409 100.956C44.4369 102.036 47.2449 100.956 47.7849 98.94ZM97.5009 77.592C96.9969 77.052 95.2689 75.864 94.5489 75.576C92.7129 74.856 94.0089 72.66 95.7009 73.2C96.6729 73.524 98.5089 74.46 99.3369 75.288C100.777 76.728 98.7249 78.96 97.5009 77.592ZM94.2249 80.868C93.7569 80.292 92.0289 79.068 91.3089 78.744C89.4729 77.988 90.9129 75.792 92.5689 76.404C93.5409 76.764 95.3409 77.7 96.1329 78.564C97.5369 80.076 95.4129 82.272 94.2249 80.868ZM94.4409 87.456C92.4249 86.772 89.1489 86.376 87.2409 87.096C85.3689 87.78 84.2529 84.828 86.6289 84C88.4649 83.352 91.7409 82.92 95.2689 84.18C97.6809 85.044 96.7089 88.212 94.4409 87.456ZM94.4409 102.036C89.2209 103.08 84.7569 101.424 83.1729 99.66C81.6249 97.932 83.8569 95.088 85.7289 96.996C87.5649 98.868 89.7609 98.688 93.9729 98.328C96.6009 98.112 96.8169 101.568 94.4409 102.036ZM81.0129 83.172C78.7449 91.056 76.1889 97.284 74.4249 101.28C73.3449 103.692 69.5289 102.648 71.0409 99.588C72.5889 96.42 75.1449 90.948 77.3409 83.964C75.4329 84.18 73.5969 84.108 72.0849 83.46C70.2489 82.668 70.6089 79.392 73.3089 80.364C74.8209 80.904 76.5849 80.904 78.2769 80.58C78.4929 79.248 78.3489 78.276 78.2409 76.692C78.0969 74.64 81.4809 74.532 81.8409 76.512C81.9849 77.412 81.9849 78.384 81.8769 79.392C82.3809 79.14 82.8129 78.888 83.2449 78.636C85.1169 77.412 87.3489 80.4 84.6489 81.732C83.6409 82.236 82.3449 82.776 81.0129 83.172ZM468.839 78.708C468.335 78.204 466.499 77.124 465.743 76.872C463.871 76.26 465.023 73.956 466.751 74.424C467.723 74.676 469.667 75.54 470.531 76.296C472.043 77.664 470.135 80.004 468.839 78.708ZM465.707 82.056C465.203 81.516 463.367 80.328 462.647 80.076C460.775 79.392 462.071 77.16 463.763 77.7C464.735 77.988 466.607 78.924 467.435 79.716C468.911 81.12 466.967 83.388 465.707 82.056ZM469.235 89.436C470.135 91.812 466.895 93.396 465.923 91.164C465.059 89.184 463.439 86.448 460.775 84.972C459.011 84 460.595 81.3 462.827 82.596C465.707 84.288 468.263 86.844 469.235 89.436ZM451.487 83.172L452.675 83.064C455.699 82.812 458.003 84.576 458.147 88.608C458.219 91.128 457.859 94.368 456.923 96.636C455.447 100.2 451.919 101.964 448.463 100.956C445.619 100.128 446.771 96.816 448.967 97.356C451.019 97.86 452.531 97.536 453.539 95.412C454.367 93.648 454.691 91.092 454.691 89.184C454.691 86.988 453.935 85.944 452.279 86.088C451.739 86.124 451.199 86.196 450.623 86.268C448.859 91.848 446.447 96.744 443.639 100.74C441.911 103.188 438.167 101.1 440.507 98.472C442.991 95.7 445.223 91.596 446.879 86.772L446.447 86.844C444.899 87.132 443.495 87.348 442.559 87.348C440.111 87.348 440.147 84.108 442.451 83.892C443.567 83.784 444.683 83.82 445.979 83.712L447.779 83.532C448.211 81.948 448.679 79.824 448.895 77.808C449.147 75.468 452.819 75.684 452.531 78.096C452.387 79.32 451.919 81.48 451.487 83.172ZM501.923 94.188L501.995 99.264C501.995 99.3 501.995 99.3 501.995 99.336C501.995 101.748 500.375 104.16 495.407 104.16C492.887 104.16 490.763 103.98 490.763 102.072C490.763 101.244 491.303 100.452 492.347 100.452C492.455 100.452 492.599 100.452 492.743 100.488C493.859 100.704 494.795 100.776 495.587 100.776C497.567 100.776 498.395 100.092 498.395 98.652C498.395 95.088 498.467 84.612 498.467 79.14H486.479C485.363 79.14 484.823 78.312 484.823 77.52C484.823 76.692 485.363 75.9 486.479 75.9H504.011C505.163 75.9 505.739 76.728 505.739 77.52C505.739 78.348 505.163 79.14 504.011 79.14H501.887C501.887 83.46 501.887 91.776 501.923 94.188ZM484.391 92.1C484.391 91.344 484.355 90.264 484.355 89.148C484.355 87.996 484.391 86.844 484.391 85.944C484.427 84.396 485.651 82.992 487.307 82.884C488.027 82.848 488.819 82.812 489.575 82.812C490.547 82.812 491.519 82.848 492.383 82.884C493.751 82.956 495.371 83.784 495.443 85.728C495.479 86.592 495.515 87.78 495.515 88.932C495.515 90.12 495.479 91.236 495.443 92.064C495.371 93.864 494.075 95.268 492.347 95.376C491.591 95.412 490.763 95.448 489.899 95.448C489.035 95.448 488.207 95.412 487.415 95.376C485.795 95.268 484.463 93.936 484.391 92.1ZM477.875 102.972L478.379 86.088C476.291 88.536 475.319 89.364 474.311 89.364C473.339 89.364 472.619 88.608 472.619 87.744C472.619 87.312 472.799 86.844 473.231 86.448C476.759 83.316 479.603 79.284 481.511 74.388C481.835 73.596 482.483 73.236 483.131 73.236C484.103 73.236 485.111 73.992 485.111 75.036C485.111 76.008 482.915 79.68 481.799 81.444L481.583 102.972C481.547 104.052 480.611 104.592 479.675 104.592C478.775 104.592 477.875 104.088 477.875 103.044C477.875 103.008 477.875 103.008 477.875 102.972ZM489.683 92.46C492.419 92.46 492.419 92.352 492.419 89.4C492.419 88.428 492.383 87.348 492.347 86.772C492.275 85.728 491.555 85.692 489.863 85.692C489.359 85.692 488.891 85.692 488.531 85.728C487.883 85.764 487.523 86.124 487.451 86.808C487.415 87.204 487.379 87.996 487.379 88.824C487.379 89.832 487.415 90.912 487.451 91.452C487.487 92.208 487.919 92.46 489.683 92.46ZM541.415 89.436C542.315 91.812 539.075 93.396 538.103 91.164C537.239 89.184 535.619 86.448 532.955 84.972C531.191 84 532.775 81.3 535.007 82.596C537.887 84.288 540.443 86.844 541.415 89.436ZM523.667 83.172L524.855 83.064C527.879 82.812 530.183 84.576 530.327 88.608C530.399 91.128 530.039 94.368 529.103 96.636C527.627 100.2 524.099 101.964 520.643 100.956C517.799 100.128 518.951 96.816 521.147 97.356C523.199 97.86 524.711 97.536 525.719 95.412C526.547 93.648 526.871 91.092 526.871 89.184C526.871 86.988 526.115 85.944 524.459 86.088C523.919 86.124 523.379 86.196 522.803 86.268C521.039 91.848 518.627 96.744 515.819 100.74C514.091 103.188 510.347 101.1 512.687 98.472C515.171 95.7 517.403 91.596 519.059 86.772L518.627 86.844C517.079 87.132 515.675 87.348 514.739 87.348C512.291 87.348 512.327 84.108 514.631 83.892C515.747 83.784 516.863 83.82 518.159 83.712L519.959 83.532C520.391 81.948 520.859 79.824 521.075 77.808C521.327 75.468 524.999 75.684 524.711 78.096C524.567 79.32 524.099 81.48 523.667 83.172ZM189.481 150.312L189.265 150.672C188.761 151.5 188.221 152.472 187.573 153.588C186.097 156.18 182.677 154.164 184.261 151.788C184.729 151.068 185.053 150.708 185.341 150.348C186.961 147.9 189.013 144.372 190.129 141.564L190.201 140.7C190.093 140.664 189.949 140.664 189.733 140.772C188.797 141.204 188.005 141.78 187.141 142.32C184.549 143.94 183.361 140.34 185.413 139.368C186.745 138.756 188.689 137.82 190.525 137.064C190.777 134.436 190.993 132.168 191.137 130.62C191.353 128.1 194.989 128.604 194.665 130.728C194.485 132.024 194.233 133.788 193.981 135.876C195.385 135.912 196.357 137.64 194.737 139.944C194.557 140.196 194.017 141.204 193.297 142.5V142.68C194.377 141.888 195.421 141.204 196.393 140.7C202.801 137.28 208.525 138.468 211.117 141.42C213.745 144.372 213.133 149.232 207.697 153.156C206.401 154.092 204.277 155.208 202.585 155.784C200.209 156.612 198.553 153.156 201.433 152.112C203.089 151.5 204.349 150.96 205.249 150.348C209.065 147.792 209.497 144.984 207.913 143.328C206.293 141.672 202.549 141.168 197.581 143.724C195.709 144.696 194.305 145.632 193.045 146.748C192.901 149.988 192.973 153.048 193.333 155.316C193.549 156.612 192.649 157.476 191.677 157.62C190.705 157.764 189.661 157.188 189.517 155.64C189.373 154.308 189.373 152.472 189.481 150.312ZM249.097 143.436C249.997 145.812 246.757 147.396 245.785 145.164C244.921 143.184 243.301 140.448 240.637 138.972C238.873 138 240.457 135.3 242.689 136.596C245.569 138.288 248.125 140.844 249.097 143.436ZM231.349 137.172L232.537 137.064C235.561 136.812 237.865 138.576 238.009 142.608C238.081 145.128 237.721 148.368 236.785 150.636C235.309 154.2 231.781 155.964 228.325 154.956C225.481 154.128 226.633 150.816 228.829 151.356C230.881 151.86 232.393 151.536 233.401 149.412C234.229 147.648 234.553 145.092 234.553 143.184C234.553 140.988 233.797 139.944 232.141 140.088C231.601 140.124 231.061 140.196 230.485 140.268C228.721 145.848 226.309 150.744 223.501 154.74C221.773 157.188 218.029 155.1 220.369 152.472C222.853 149.7 225.085 145.596 226.741 140.772L226.309 140.844C224.761 141.132 223.357 141.348 222.421 141.348C219.973 141.348 220.009 138.108 222.313 137.892C223.429 137.784 224.545 137.82 225.841 137.712L227.641 137.532C228.073 135.948 228.541 133.824 228.757 131.808C229.009 129.468 232.681 129.684 232.393 132.096C232.249 133.32 231.781 135.48 231.349 137.172ZM270.121 134.724C269.653 134.796 269.149 134.904 268.573 135.048C266.845 135.48 265.549 133.176 267.061 132.348C267.241 132.24 267.601 132.06 267.349 131.88C266.593 131.412 265.369 130.836 264.793 130.188C263.245 128.496 265.621 126.588 267.421 127.884C268.069 128.352 269.293 128.892 270.337 129.576C271.381 130.26 272.317 131.124 272.389 132.204C272.461 133.248 271.921 134.436 270.121 134.724ZM274.873 155.784C273.361 156.72 271.093 157.548 268.717 158.016C265.801 158.592 264.865 155.028 267.925 154.416C269.797 154.056 271.633 153.516 272.749 152.868C276.709 150.564 277.789 148.08 277.033 146.64C276.277 145.2 273.649 144.66 269.833 146.388C267.709 147.36 265.441 149.052 265.009 149.484C262.885 151.536 261.445 150.528 260.797 149.268C260.149 148.008 260.221 145.776 260.509 143.148C260.797 140.52 261.265 137.748 261.553 135.912C261.913 133.608 265.189 133.68 264.865 136.272C264.685 137.784 264.289 139.8 264.001 141.528C263.713 143.292 263.533 144.624 263.785 145.272C263.893 145.56 264.073 145.56 264.397 145.38C265.117 144.984 266.809 144.048 268.501 143.328C279.373 138.612 287.041 148.332 274.873 155.784ZM316.525 140.124C314.833 139.044 312.997 138.504 310.909 138.612C308.929 138.72 308.785 135.732 311.089 135.516C313.465 135.3 315.985 135.732 317.713 136.776C320.161 138.252 318.289 141.24 316.525 140.124ZM300.289 136.524C298.453 136.884 296.905 136.74 295.537 136.344C293.341 135.732 294.025 132.42 296.581 133.248C297.769 133.644 299.641 133.608 301.513 133.14C301.873 131.952 302.053 130.8 302.233 129.504C302.557 127.38 305.725 127.776 305.653 129.828C305.617 130.368 305.401 131.16 305.149 132.024C305.581 131.808 305.977 131.628 306.301 131.412C307.921 130.26 310.189 132.492 307.885 134.148C306.985 134.796 305.509 135.372 304.033 135.804C302.341 139.872 299.893 144.192 297.589 147.936C296.257 150.096 292.801 148.692 294.385 146.352C296.401 143.364 298.525 140.304 300.289 136.524ZM311.629 153.408C310.585 156.288 306.085 158.808 301.729 156.612C298.381 154.92 297.985 151.032 301.693 149.376C303.925 148.368 306.373 148.296 308.605 148.692C308.605 148.296 308.605 147.9 308.605 147.432C308.605 146.532 308.533 145.632 308.497 144.732C308.461 144.012 308.533 143.004 308.677 142.32C309.109 140.34 312.277 140.808 311.917 142.968C311.809 143.508 311.701 143.904 311.701 144.66C311.701 145.488 311.701 146.388 311.737 147.432C311.773 148.116 311.845 148.872 311.881 149.664C313.789 150.456 315.373 151.572 316.273 152.544C318.325 154.812 315.409 157.368 313.681 155.28C313.141 154.632 312.457 153.984 311.629 153.408ZM308.425 151.716C306.589 151.104 304.645 151.032 302.881 151.896C301.909 152.4 301.837 153.444 302.917 153.984C305.077 155.064 307.993 154.02 308.389 152.076C308.425 151.968 308.389 151.824 308.425 151.716ZM346.945 154.524C348.061 156.936 344.569 159.06 343.417 156.756C341.329 152.652 338.269 147.972 335.785 145.056C333.409 142.284 333.409 139.728 336.217 136.812C338.665 134.256 341.437 131.592 343.597 128.676C345.253 126.48 348.493 129.036 346.801 131.124C345.001 133.32 341.185 136.452 338.953 138.684C337.405 140.232 337.333 141.312 338.521 142.788C342.121 147.288 345.181 150.672 346.945 154.524ZM383.303 156.756C372.431 156.72 368.687 146.748 372.611 139.512C372.971 138.828 373.295 138.252 373.763 137.64C374.339 136.884 374.159 136.92 373.475 137.136C370.775 138 371.387 138 368.939 138.936C367.787 139.368 366.779 139.728 365.699 140.016C362.531 140.88 361.595 136.74 364.475 136.128C365.231 135.948 367.319 135.552 368.471 135.264C370.235 134.832 373.367 134.112 377.039 133.068C380.747 132.024 383.699 131.16 386.867 130.944C389.099 130.8 389.711 132.564 389.315 133.716C389.099 134.328 388.307 135.048 385.787 134.904C383.951 134.796 381.647 135.48 380.423 135.912C378.407 136.632 376.607 138.792 375.815 140.124C372.647 145.416 375.059 152.976 383.123 152.688C386.903 152.544 387.119 156.792 383.303 156.756ZM25.9729 204.78H22.7689V211.008C22.7689 211.98 21.9409 212.448 21.1129 212.448C20.2849 212.448 19.4569 211.98 19.4569 211.008V204.78H16.3249C15.2089 204.78 14.7049 204.06 14.7049 203.34C14.7049 202.548 15.2809 201.756 16.3249 201.756H19.4569V200.856L19.5649 194.628C17.6929 198.408 15.2809 201.792 11.9689 204.852C11.5729 205.248 11.1049 205.392 10.6729 205.392C10.0609 205.392 9.52092 205.068 9.23292 204.6L9.12492 210.972C9.12492 212.088 8.22492 212.628 7.36092 212.628C6.49692 212.628 5.66892 212.088 5.66892 211.008V210.972L6.02892 194.34C3.72492 197.328 2.75292 197.868 1.96092 197.868C1.02492 197.868 0.268922 197.148 0.268922 196.284C0.268922 195.888 0.448922 195.42 0.880922 195.024C4.30092 191.748 7.43292 186.996 9.08892 181.992C9.37692 181.2 9.98892 180.84 10.6369 180.84C11.6089 180.84 12.6529 181.596 12.6529 182.604C12.6529 183.468 10.8889 186.852 9.55692 189.12L9.26892 203.052C9.37692 202.872 9.55692 202.692 9.73692 202.548C13.3009 199.632 16.2169 195.996 18.4849 191.352L12.3649 191.46H12.3289C11.2129 191.46 10.7089 190.74 10.7089 189.948C10.7089 189.156 11.2849 188.328 12.3649 188.328H19.3849V182.208C19.3849 181.164 20.2489 180.66 21.0769 180.66C21.9769 180.66 22.8409 181.2 22.8409 182.208V188.328H30.8689C31.9129 188.328 32.4529 189.12 32.4529 189.912C32.4529 190.704 31.9489 191.46 30.9049 191.46H30.8689L23.6689 191.352C26.2609 195.78 29.7169 199.056 33.1009 201.576C33.6409 201.972 33.8569 202.512 33.8569 203.016C33.8569 203.952 33.1009 204.816 32.0929 204.816C31.6609 204.816 31.1569 204.636 30.6529 204.24C27.8449 201.936 24.9649 198.48 22.6609 194.664L22.7689 200.82V201.756H25.9729C27.0169 201.756 27.5209 202.512 27.5209 203.268C27.5209 204.024 27.0169 204.78 25.9729 204.78ZM63.7369 191.208H61.2529V193.476C62.2609 193.476 63.2689 193.476 64.1329 193.512C65.9689 193.548 67.2649 194.52 67.4089 195.924C67.4809 196.464 67.4809 197.184 67.4809 197.904C67.4809 198.48 67.4809 199.092 67.4449 199.596C67.3369 201.216 66.1129 202.368 63.9529 202.44C63.3769 202.476 62.6929 202.476 62.0449 202.476C63.4849 205.5 65.9689 207.552 68.4169 208.776C69.1009 209.136 69.4249 209.712 69.4249 210.288C69.4249 211.188 68.7409 212.088 67.6969 212.088C66.1129 212.088 61.9369 208.812 59.8489 204.312C57.0409 211.476 51.2089 212.448 51.1369 212.448C50.2009 212.448 49.5169 211.548 49.5169 210.72C49.5169 210.108 49.8409 209.532 50.5969 209.28C54.4849 207.948 56.4649 205.248 57.4009 202.476C53.4409 202.476 51.9649 202.476 51.9649 198.12C51.9649 197.4 51.9649 196.68 52.0009 196.104C52.0729 194.7 53.1529 193.548 55.1329 193.512C56.0689 193.476 57.1129 193.476 58.1929 193.476V191.208H55.6369C54.9889 191.208 54.6289 190.776 54.4849 190.272L53.2969 191.46C52.9369 191.82 52.5409 191.964 52.1449 191.964C51.2809 191.964 50.5249 191.208 50.5249 190.416C50.5249 190.02 50.7049 189.624 51.1009 189.3C53.2609 187.536 55.0249 185.052 56.6449 182.496C57.3649 181.344 58.3729 180.84 59.3809 180.84C60.4249 180.84 61.5049 181.38 62.3329 182.352C64.2409 184.584 66.4009 186.708 68.7049 188.544C69.1729 188.94 69.3889 189.408 69.3889 189.876C69.3889 190.812 68.5969 191.712 67.6609 191.712C66.9409 191.712 66.6169 191.388 64.9969 189.768C64.9969 189.804 64.9969 189.804 64.9969 189.84C64.9969 190.524 64.5289 191.208 63.7369 191.208ZM46.8169 196.536H48.1849C48.7969 196.536 51.3529 196.644 51.3529 200.172C51.3529 206.4 50.4889 211.512 44.9809 211.512C42.6409 211.512 41.4529 211.116 41.4529 209.676C41.4529 208.884 41.9569 208.128 42.8569 208.128C42.9649 208.128 43.1089 208.128 43.2529 208.164C44.0089 208.344 44.6569 208.452 45.2329 208.452C46.6009 208.452 47.8249 207.732 48.1129 203.88C47.9329 204.132 47.6449 204.276 47.3569 204.276C47.0329 204.276 46.7449 204.096 46.6369 203.628C46.3129 202.476 45.7729 201.396 45.4489 200.82C45.3769 200.676 45.3409 200.568 45.3409 200.424C45.3409 200.064 45.7009 199.812 46.1329 199.812C47.2489 199.812 48.1489 202.368 48.2209 202.62C48.2569 201.864 48.2569 201.18 48.2569 200.712C48.2569 199.308 48.0769 199.164 45.5209 199.164C44.2969 199.164 42.9289 199.2 41.8129 199.2C40.1929 199.2 38.5729 198.48 38.5009 196.176C38.4649 194.772 38.4649 192.576 38.4649 190.416C38.4649 188.256 38.4649 186.132 38.5009 184.944C38.5729 182.892 39.8329 181.632 41.8129 181.596C42.8209 181.56 44.9449 181.56 46.8889 181.56C48.2929 181.56 49.6249 181.56 50.3449 181.596C51.1369 181.632 51.5329 182.244 51.5329 182.892C51.5329 183.576 51.0649 184.26 50.1649 184.296H46.8169V186.672H49.2289C50.1289 186.672 50.5609 187.284 50.5609 187.896C50.5609 188.544 50.1289 189.156 49.2289 189.156H46.8169V191.568H49.2289C50.1289 191.568 50.5609 192.18 50.5609 192.792C50.5609 193.44 50.1289 194.052 49.2289 194.052H46.8169V196.536ZM44.8729 205.572C44.4769 205.572 44.0809 205.32 44.0089 204.708C43.8649 203.304 43.6129 202.152 43.3249 201.324C43.2889 201.18 43.2529 201.072 43.2529 200.964C43.2529 200.46 43.6489 200.172 44.0809 200.172C44.4049 200.172 44.7649 200.352 44.9449 200.784C45.3769 201.684 45.8809 203.808 45.8809 204.492C45.8809 205.176 45.3769 205.572 44.8729 205.572ZM41.9929 206.796C41.5249 206.796 41.1289 206.472 41.1289 205.86C41.1289 205.824 41.1289 205.752 41.1289 205.716C41.1649 205.176 41.2009 204.564 41.2009 203.988C41.2009 202.908 41.1289 201.9 41.0929 201.468C41.0929 201.396 41.0929 201.36 41.0929 201.324C41.0929 200.712 41.4889 200.388 41.9209 200.388C42.4249 200.388 43.1449 200.424 43.1449 205.032C43.1449 205.572 43.1089 206.796 41.9929 206.796ZM37.8169 208.524C37.1329 208.524 36.5209 207.984 36.5209 207.192C36.5209 206.904 36.6289 206.544 36.8449 206.184C37.2409 205.5 38.1049 203.412 38.1769 201.684C38.2129 200.856 38.7529 200.46 39.2929 200.46C39.6529 200.46 40.5889 200.604 40.5889 201.864C40.5889 203.34 39.6889 208.524 37.8169 208.524ZM56.0329 188.472H63.7369C62.3689 186.996 61.0729 185.484 60.0649 184.26C59.9209 184.08 59.7049 183.972 59.4889 183.972C59.3089 183.972 59.1289 184.044 59.0209 184.26C58.0489 185.772 57.0769 187.176 56.0329 188.472ZM61.2169 195.924C61.2169 197.04 61.1809 197.976 61.1809 198.192C61.1449 198.768 61.0369 199.38 60.9649 199.992C64.3849 199.992 64.4209 199.92 64.4209 197.76C64.4209 196.032 64.4209 195.924 61.2169 195.924ZM58.1929 195.924C55.0249 195.924 54.9529 195.924 54.9529 197.976C54.9529 199.704 54.9529 199.992 58.0129 199.992C58.1929 198.588 58.1929 198.048 58.1929 195.924ZM44.0449 186.672V184.26C43.3609 184.26 42.7849 184.296 42.4609 184.296C41.9209 184.332 41.4889 184.584 41.4529 185.448C41.4529 185.772 41.4169 186.204 41.4169 186.672H44.0449ZM44.0449 191.568V189.156H41.4169V191.568H44.0449ZM44.0449 196.536V194.052H41.4169C41.4169 194.556 41.4529 195.024 41.4529 195.42C41.4889 196.104 41.8849 196.536 42.5689 196.536C42.5689 196.536 42.6049 196.536 42.6409 196.536H44.0449ZM83.3209 199.092C80.3329 200.352 77.8489 201.396 77.2369 201.648C74.7529 202.692 73.6729 199.272 75.9049 198.552C76.6249 198.336 79.7569 197.04 83.4289 195.564C83.5009 192.612 83.5369 189.624 83.5369 187.464C83.5369 185.052 87.2089 185.448 87.2089 187.32C87.2089 189.228 87.1009 191.64 87.0289 194.088C90.7369 192.576 94.3729 191.172 96.1009 190.56C98.7649 189.624 101.501 191.496 100.349 193.908C99.1249 196.5 97.0729 199.452 94.8409 201.468C92.4649 203.628 90.1249 200.892 92.1049 199.056C93.4729 197.796 94.8409 196.536 95.8489 194.952C96.4969 193.98 96.0289 194.016 95.3449 194.232C94.0849 194.628 90.5209 196.068 86.8849 197.58C86.7769 199.776 86.7049 201.756 86.6329 203.088C86.5609 204.852 87.4609 205.752 89.6209 206.004C91.5289 206.22 94.8049 206.04 97.3609 205.248C100.565 204.24 102.149 208.2 98.0809 209.136C94.8049 209.892 91.6369 209.892 88.2889 209.496C85.1209 209.1 83.1409 207.156 83.2129 204.204C83.2489 202.944 83.2849 201.144 83.3209 199.092ZM126.665 197.94C127.529 200.064 124.361 201.36 123.605 199.056C123.245 197.976 122.597 196.824 121.913 196.032C120.617 194.592 123.029 192.612 124.505 194.376C125.333 195.384 126.125 196.68 126.665 197.94ZM120.545 211.476C119.321 212.016 118.421 211.584 118.061 210.792C117.737 210.036 117.953 209.064 118.961 208.632C124.973 206.112 128.861 201.036 130.301 195.024C130.877 192.684 134.369 193.764 133.685 195.96C131.633 202.764 127.637 208.272 120.545 211.476ZM121.697 199.452C122.849 201.396 119.861 203.16 118.781 201.036C118.277 200.028 117.521 198.948 116.729 198.264C115.253 197.004 117.341 194.736 119.033 196.248C120.005 197.112 121.013 198.264 121.697 199.452ZM161.405 192.972C160.757 193.692 159.497 193.908 158.525 192.9C157.409 191.748 155.969 190.704 154.601 190.128C152.549 189.3 153.989 186.096 156.437 187.176C158.021 187.896 159.857 188.94 161.225 190.164C162.197 191.028 162.053 192.252 161.405 192.972ZM175.301 191.964C170.693 200.208 162.521 207.912 154.349 210.612C151.505 211.548 150.317 207.66 153.161 206.904C160.325 204.96 168.317 197.04 172.097 189.876C173.285 187.644 176.885 189.12 175.301 191.964ZM157.121 198.696C156.653 199.56 155.537 200.064 154.349 199.308C153.017 198.444 151.361 197.724 149.885 197.472C147.725 197.112 148.409 193.692 151.037 194.196C152.729 194.52 154.673 195.096 156.293 195.996C157.445 196.608 157.589 197.868 157.121 198.696ZM200.563 202.548C197.143 202.62 192.751 202.656 190.375 202.62C189.367 202.62 188.683 201.972 188.647 201.216C188.611 200.424 189.295 199.776 190.483 199.776C192.931 199.776 197.935 199.632 200.527 199.632C200.527 198.912 200.491 198.336 200.491 197.94C200.455 197.148 199.951 196.86 199.159 196.824C196.855 196.752 192.463 196.932 189.763 197.04C187.387 197.148 187.315 194.16 189.655 194.052C192.571 193.944 197.431 193.872 200.059 193.944C202.651 194.016 203.695 195.564 203.695 197.544C203.695 199.128 203.731 202.908 203.695 205.248C203.623 208.056 201.607 208.704 199.591 208.812C196.783 208.956 192.103 208.992 189.403 208.992C187.099 208.992 187.099 205.788 189.367 205.86C192.175 205.968 197.359 205.968 199.303 205.824C199.951 205.788 200.455 205.428 200.491 204.744C200.527 204.204 200.563 203.412 200.563 202.548ZM245.131 191.532C240.667 199.632 233.215 207.012 224.935 209.64C221.875 210.612 220.723 206.508 223.711 205.752C230.947 203.916 238.219 196.464 241.855 189.408C243.007 187.176 246.715 188.688 245.131 191.532ZM230.119 194.448C229.543 195.276 228.283 195.78 227.167 194.772C225.835 193.548 223.531 192.504 221.839 192.108C219.679 191.604 220.579 187.968 223.315 188.724C225.223 189.264 227.923 190.236 229.651 191.46C230.767 192.252 230.695 193.62 230.119 194.448ZM277.603 192.288C275.011 191.748 272.275 191.64 269.251 192.396C267.271 192.9 266.119 189.696 268.747 189.048C271.951 188.256 275.695 188.22 278.215 188.832C280.735 189.444 280.051 192.828 277.603 192.288ZM279.547 208.704C275.695 209.676 269.791 209.568 267.199 206.76C265.723 205.14 267.883 202.584 269.755 204.276C271.699 206.04 276.019 205.464 278.827 204.888C281.743 204.276 281.923 208.092 279.547 208.704ZM260.503 210.432C259.603 211.224 258.271 211.08 257.551 209.316C254.671 202.224 257.515 191.568 258.163 187.284C258.559 184.62 262.051 185.412 261.655 187.5C261.079 190.416 258.919 198.876 259.783 202.224C259.891 202.692 260.035 202.584 260.179 202.26C260.251 202.08 260.647 201.36 260.791 201.108C261.907 199.344 264.139 201.072 263.311 202.512C261.979 204.852 261.403 206.508 261.187 207.552C260.971 208.524 261.403 209.64 260.503 210.432ZM309.499 192.576L309.427 182.028C309.427 181.164 310.111 180.768 310.795 180.768C311.479 180.768 312.199 181.164 312.199 182.028V183.792C312.559 184.8 313.063 185.772 313.603 186.708C314.647 186.024 315.763 185.052 316.447 184.26C316.735 183.936 317.059 183.792 317.383 183.792C318.175 183.792 318.967 184.62 318.967 185.448C318.967 186.24 317.887 187.32 315.079 188.868C316.303 190.38 317.743 191.676 319.363 192.612C319.939 192.936 320.191 193.44 320.191 193.944C320.191 194.772 319.507 195.6 318.535 195.6C316.915 195.6 313.927 192.144 312.199 188.94L312.379 193.044C312.379 193.116 312.379 193.224 312.379 193.296C312.379 194.988 311.443 197.112 308.275 197.112C305.791 197.112 305.323 196.464 305.323 195.528C305.323 194.772 305.791 194.016 306.583 194.016C306.691 194.016 306.799 194.016 306.907 194.052C307.483 194.16 307.951 194.304 308.347 194.304C309.103 194.304 309.499 193.908 309.499 192.576ZM302.515 195.636C301.723 195.636 301.003 194.88 301.003 194.16C301.003 193.764 301.183 193.404 301.651 193.116C304.711 191.28 306.151 187.752 306.151 187.536C306.151 187.392 305.971 187.32 305.827 187.32C305.179 187.356 304.171 187.356 303.451 187.392C303.415 187.392 303.415 187.392 303.379 187.392C302.587 187.392 302.191 186.816 302.191 186.168C302.191 185.556 302.623 184.908 303.379 184.872C304.171 184.836 305.179 184.8 306.115 184.8C307.231 184.8 309.031 184.836 309.031 186.78C309.031 187.14 308.959 187.5 308.851 187.86C307.015 193.296 303.415 195.636 302.515 195.636ZM317.419 208.308C317.347 210.108 315.835 211.548 313.783 211.692C312.883 211.764 311.839 211.8 310.759 211.8C309.499 211.8 308.275 211.764 307.303 211.692C305.035 211.548 303.631 210.252 303.559 208.38C303.523 207.732 303.523 207.012 303.523 206.292C303.523 204.564 303.595 202.728 303.631 201.36C303.703 199.776 304.855 198.228 307.231 198.156C308.167 198.12 309.391 198.084 310.615 198.084C311.803 198.084 313.027 198.12 313.963 198.156C315.727 198.228 317.311 199.668 317.347 201.108C317.383 202.548 317.455 204.6 317.455 206.364C317.455 207.084 317.455 207.732 317.419 208.308ZM294.487 205.752V192.792C290.347 192.792 289.591 192.108 289.591 187.32C289.591 186.528 289.627 185.808 289.663 185.088C289.771 183.54 290.887 182.316 292.723 182.208C293.515 182.172 294.451 182.136 295.351 182.136C296.467 182.136 297.583 182.172 298.411 182.208C300.103 182.28 301.507 183.288 301.615 184.872C301.687 185.628 301.687 186.42 301.687 187.248C301.687 188.04 301.687 188.832 301.615 189.624C301.507 191.424 300.247 192.648 298.231 192.756H297.655V196.104H300.751C301.687 196.104 302.155 196.824 302.155 197.58C302.155 198.3 301.687 199.056 300.751 199.056H297.655V204.528C298.915 203.988 300.139 203.448 301.219 202.908C301.507 202.764 301.723 202.728 301.975 202.728C302.767 202.728 303.199 203.448 303.199 204.204C303.199 204.744 302.983 205.248 302.479 205.536C296.791 208.668 290.419 210.72 289.483 210.72C288.439 210.72 287.791 209.856 287.791 208.992C287.791 207.876 288.475 207.66 289.771 207.3V197.292C289.771 196.356 290.527 195.888 291.247 195.888C292.003 195.888 292.759 196.356 292.759 197.292V206.364C293.335 206.184 293.911 205.968 294.487 205.752ZM306.511 203.34H314.323C314.323 202.872 314.287 202.476 314.287 202.116C314.215 200.856 313.711 200.712 310.867 200.712C309.859 200.712 308.851 200.712 308.095 200.748C306.547 200.784 306.511 202.152 306.511 203.34ZM298.627 187.5C298.627 185.052 298.483 185.052 295.999 185.052C295.207 185.052 294.379 185.052 293.803 185.088C292.651 185.16 292.651 186.024 292.651 187.536C292.651 188.04 292.651 188.508 292.687 188.976C292.723 189.732 292.939 189.912 295.567 189.912C298.627 189.912 298.627 189.912 298.627 187.5ZM314.359 205.932H306.511C306.511 206.58 306.511 207.156 306.547 207.624C306.583 208.92 307.555 208.956 310.723 208.956C314.323 208.956 314.359 208.848 314.359 205.932ZM338.767 196.644H338.947C341.647 196.752 344.311 197.364 346.759 198.228C346.975 196.752 346.831 195.42 346.255 194.448C345.247 192.756 348.487 191.388 349.675 193.62C350.467 195.06 350.575 197.22 350.035 199.596C351.907 200.496 353.599 201.576 355.003 202.656C357.271 204.42 354.823 207.732 352.771 205.86C351.583 204.78 350.287 203.808 348.847 202.944C347.515 205.644 345.247 208.344 342.007 210.252C339.487 211.728 337.687 208.92 340.027 207.48C342.727 205.824 344.599 203.592 345.715 201.396C343.051 200.28 340.207 199.632 337.327 199.596C335.995 202.368 334.771 204.6 332.719 206.184C330.559 207.876 327.391 208.092 325.843 206.184C324.007 203.88 325.339 200.136 329.479 198.3C331.387 197.472 333.403 196.968 335.383 196.752C336.643 194.052 338.299 190.776 339.307 188.508C339.523 188.004 339.631 187.716 339.091 187.86C337.687 188.22 336.319 188.688 334.843 188.724C332.467 188.796 332.575 185.448 334.735 185.304C336.175 185.232 338.371 184.692 339.919 184.404C343.195 183.756 344.635 185.88 343.015 188.508C341.503 191.028 340.063 193.944 338.767 196.644ZM333.835 199.884C332.899 200.028 331.819 200.316 330.487 200.964C329.551 201.432 327.859 202.944 328.471 203.844C328.903 204.456 330.199 204.24 330.847 203.736C332.035 202.836 333.007 201.36 333.835 199.884ZM373.939 208.02V196.356C371.923 196.356 369.943 196.32 368.215 196.248C365.263 196.14 363.715 194.664 363.643 191.64C363.643 190.668 363.607 189.588 363.607 188.472C363.607 187.392 363.643 186.312 363.643 185.34C363.679 184.188 364.543 183.648 365.443 183.648C366.343 183.648 367.279 184.224 367.279 185.268C367.279 185.304 367.279 185.304 367.279 185.34C367.243 186.384 367.207 187.536 367.207 188.652C367.207 189.408 367.243 190.164 367.243 190.776C367.315 193.152 367.999 193.188 373.939 193.188L373.903 182.424C373.903 181.38 374.839 180.84 375.739 180.84C376.711 180.84 377.647 181.38 377.647 182.424L377.611 193.188C379.195 193.152 380.779 193.116 382.255 193.08C384.523 193.008 384.631 191.604 384.631 188.904C384.631 187.716 384.559 186.492 384.523 185.448C384.523 185.412 384.523 185.412 384.523 185.376C384.523 184.332 385.387 183.792 386.287 183.792C387.223 183.792 388.159 184.332 388.195 185.448C388.231 186.348 388.267 187.392 388.267 188.436C388.267 189.48 388.231 190.56 388.195 191.568C388.087 194.664 385.963 196.14 383.299 196.248C381.499 196.32 379.555 196.356 377.611 196.356V208.02C379.843 208.02 382.003 207.984 383.623 207.912C385.747 207.804 385.999 206.616 385.999 203.556C385.999 202.188 385.927 200.748 385.891 199.704C385.891 199.668 385.891 199.668 385.891 199.632C385.891 198.588 386.755 198.048 387.655 198.048C388.591 198.048 389.527 198.588 389.563 199.704C389.599 200.604 389.635 201.792 389.635 202.98C389.635 204.168 389.599 205.392 389.563 206.4C389.455 209.496 387.331 211.08 384.667 211.152C382.183 211.26 378.835 211.296 375.559 211.296C372.283 211.296 369.079 211.26 366.847 211.152C363.895 211.044 362.347 209.496 362.275 206.472C362.275 205.5 362.239 204.276 362.239 203.016C362.239 201.792 362.275 200.568 362.275 199.596C362.311 198.444 363.175 197.904 364.075 197.904C364.975 197.904 365.911 198.48 365.911 199.524C365.911 199.56 365.911 199.56 365.911 199.596C365.875 200.64 365.839 202.008 365.839 203.268C365.839 206.976 365.875 207.804 368.035 207.912C369.655 207.984 371.743 208.02 373.939 208.02ZM404.755 198.156L404.143 198.336C400.975 199.344 399.607 199.776 398.527 200.1C395.683 200.928 394.711 197.112 397.699 196.392C399.319 195.996 401.983 195.312 403.567 194.952L404.575 194.736V194.268C404.503 192.18 404.395 190.704 404.323 189.156C404.215 186.708 408.067 186.492 408.103 189.012C408.103 190.164 408.067 191.82 407.995 193.512L407.959 193.98C410.335 193.476 413.323 192.864 416.275 192.36C416.275 191.28 416.239 190.272 416.239 189.372C416.239 188.58 416.239 188.22 416.203 187.932C416.167 187.644 416.203 187.32 416.167 186.528C416.095 184.296 419.767 184.008 419.767 186.564C419.767 187.788 419.695 188.832 419.623 189.84C419.587 190.452 419.551 191.172 419.515 191.892C419.839 191.856 420.127 191.784 420.451 191.748C422.503 191.496 424.519 191.244 426.427 191.352C429.379 191.532 428.803 195.06 425.887 194.88C424.087 194.772 422.647 194.808 420.811 194.952C420.307 194.988 419.839 195.06 419.335 195.096C419.299 195.708 419.191 196.356 419.119 196.968C418.759 199.416 418.039 201.648 416.347 202.8C414.979 203.736 413.143 203.808 411.919 202.26C411.415 201.648 410.911 201.036 410.515 200.352C409.579 198.768 411.523 197.04 412.927 198.876C413.971 200.244 414.583 200.064 415.087 199.308C415.663 198.408 415.987 197.04 416.131 195.492C413.143 195.96 410.335 196.608 407.959 197.22C407.995 198.912 408.031 200.64 408.139 201.9C408.427 205.788 409.579 207.012 412.603 207.084C414.835 207.156 416.383 206.616 418.471 206.112C421.207 205.464 422.035 208.92 419.479 209.64C416.995 210.324 414.115 210.468 412.027 210.252C407.311 209.748 405.583 207.516 405.079 202.62C404.935 201.324 404.827 199.668 404.755 198.156ZM459.259 194.124C457.567 193.044 455.731 192.504 453.643 192.612C451.663 192.72 451.519 189.732 453.823 189.516C456.199 189.3 458.719 189.732 460.447 190.776C462.895 192.252 461.023 195.24 459.259 194.124ZM443.023 190.524C441.187 190.884 439.639 190.74 438.271 190.344C436.075 189.732 436.759 186.42 439.315 187.248C440.503 187.644 442.375 187.608 444.247 187.14C444.607 185.952 444.787 184.8 444.967 183.504C445.291 181.38 448.459 181.776 448.387 183.828C448.351 184.368 448.135 185.16 447.883 186.024C448.315 185.808 448.711 185.628 449.035 185.412C450.655 184.26 452.923 186.492 450.619 188.148C449.719 188.796 448.243 189.372 446.767 189.804C445.075 193.872 442.627 198.192 440.323 201.936C438.991 204.096 435.535 202.692 437.119 200.352C439.135 197.364 441.259 194.304 443.023 190.524ZM454.363 207.408C453.319 210.288 448.819 212.808 444.463 210.612C441.115 208.92 440.719 205.032 444.427 203.376C446.659 202.368 449.107 202.296 451.339 202.692C451.339 202.296 451.339 201.9 451.339 201.432C451.339 200.532 451.267 199.632 451.231 198.732C451.195 198.012 451.267 197.004 451.411 196.32C451.843 194.34 455.011 194.808 454.651 196.968C454.543 197.508 454.435 197.904 454.435 198.66C454.435 199.488 454.435 200.388 454.471 201.432C454.507 202.116 454.579 202.872 454.615 203.664C456.523 204.456 458.107 205.572 459.007 206.544C461.059 208.812 458.143 211.368 456.415 209.28C455.875 208.632 455.191 207.984 454.363 207.408ZM451.159 205.716C449.323 205.104 447.379 205.032 445.615 205.896C444.643 206.4 444.571 207.444 445.651 207.984C447.811 209.064 450.727 208.02 451.123 206.076C451.159 205.968 451.123 205.824 451.159 205.716ZM498.463 198.948C498.751 201.576 495.187 202.296 494.683 199.812C494.107 196.932 492.631 194.16 490.687 192.828C488.959 191.64 490.903 188.976 493.063 190.596C495.619 192.504 498.103 195.888 498.463 198.948ZM482.731 204.888C480.427 208.632 477.223 208.308 475.207 206.148C472.615 203.34 471.427 199.164 471.139 194.628C470.995 192.576 470.923 191.928 470.959 190.632C471.031 188.364 474.523 187.896 474.631 190.596C474.703 192 474.559 192.072 474.631 193.728C474.775 197.508 475.459 201.072 477.475 203.016C478.411 203.916 478.879 204.024 479.671 202.944C480.103 202.332 480.607 201.396 480.859 200.82C481.831 198.732 484.819 200.244 484.135 202.116C483.775 203.124 483.127 204.24 482.731 204.888ZM533.383 189.192L521.215 189.12C521.071 190.488 520.927 191.82 520.639 193.152C522.619 193.116 524.779 193.116 526.723 193.116C529.063 193.152 530.467 194.592 530.467 196.896C530.467 196.968 530.467 197.004 530.467 197.076C530.179 207.984 526.903 212.052 521.071 212.052C519.631 212.052 518.011 211.764 516.211 211.188C515.455 210.936 515.131 210.288 515.131 209.64C515.131 208.668 515.779 207.696 516.787 207.696C517.003 207.696 517.219 207.732 517.471 207.84C518.731 208.344 519.955 208.632 521.035 208.632C522.799 208.632 526.867 207.876 526.867 197.472C526.867 196.5 526.255 196.14 525.535 196.14H519.847C517.723 202.98 513.439 208.632 506.887 211.944C506.527 212.124 506.167 212.196 505.843 212.196C504.691 212.196 503.863 211.296 503.863 210.324C503.863 209.712 504.223 209.1 505.051 208.704C513.295 204.816 517.003 197.04 517.543 189.12L506.491 189.192H506.455C505.303 189.192 504.799 188.4 504.799 187.608C504.799 186.744 505.411 185.844 506.491 185.844H518.155V182.352C518.155 181.272 519.091 180.732 520.027 180.732C520.963 180.732 521.899 181.272 521.899 182.352V185.844H533.383C534.463 185.844 535.003 186.708 535.003 187.536C535.003 188.364 534.499 189.192 533.383 189.192ZM554.407 202.188V202.152C554.407 201.936 554.407 201.684 554.407 201.396C554.407 197.904 554.047 189.516 553.831 183.864C553.831 183.828 553.831 183.792 553.831 183.756C553.831 182.424 554.875 181.776 555.919 181.776C556.999 181.776 558.079 182.46 558.079 183.864C558.079 188.112 557.503 198.012 557.503 201.504C557.503 202.368 557.503 203.88 555.919 203.88C555.163 203.88 554.407 203.304 554.407 202.188ZM558.439 208.92C558.439 210.648 556.927 211.296 555.955 211.296C554.587 211.296 553.471 210.144 553.471 208.92C553.471 207.336 554.983 206.436 555.955 206.436C557.359 206.436 558.439 207.3 558.439 208.92Z" fill="black"/>
<path d="M135.541 102V102.048C135.541 103.056 134.965 103.488 134.341 103.488C133.717 103.488 133.045 102.96 132.997 102.096C132.949 97.968 132.901 92.976 132.901 87.792C132.901 80.64 132.949 73.248 133.045 67.536C133.093 64.224 134.917 61.968 138.469 61.824C139.285 61.776 140.053 61.776 140.821 61.776C142.501 61.776 143.989 61.824 145.717 61.872C146.629 61.872 147.013 62.496 147.013 63.12C147.013 63.744 146.581 64.368 145.765 64.368C145.717 64.368 145.621 64.368 145.573 64.368C145.285 64.32 143.941 64.224 138.949 64.224C137.029 64.272 135.637 65.328 135.541 67.776C135.397 70.944 135.349 75.264 135.349 79.968C135.349 87.456 135.493 95.856 135.541 102ZM187.045 92.064C186.949 96.672 183.397 98.112 179.749 98.304C174.661 98.592 166.741 98.64 161.797 98.64C158.197 98.64 158.197 93.504 161.749 93.648C166.885 93.84 175.621 93.84 179.173 93.6C180.613 93.504 181.861 92.688 181.957 90.912C182.101 88.032 182.101 83.136 182.005 80.64C181.957 79.056 180.805 78.192 178.981 78.144C174.757 78 167.173 78.288 162.181 78.528C158.437 78.72 158.245 74.016 161.941 73.872C167.221 73.632 175.861 73.536 180.661 73.632C185.413 73.728 187.093 76.56 187.093 79.776C187.093 82.704 187.141 87.792 187.045 92.064ZM236.677 86.16H206.533C204.805 86.16 203.989 85.008 203.989 83.856C203.989 82.656 204.901 81.408 206.533 81.408H236.677C238.309 81.408 239.125 82.608 239.125 83.808C239.125 84.96 238.309 86.16 236.677 86.16ZM273.061 85.728C272.677 91.824 268.741 100.656 258.853 104.064C254.005 105.744 252.805 100.464 256.261 99.6C264.421 97.536 267.637 90.288 268.213 85.728C263.029 85.728 257.845 85.824 254.053 85.92C251.173 86.016 250.885 81.648 254.053 81.6C257.605 81.504 262.933 81.456 268.309 81.456C268.309 79.44 268.261 77.28 268.261 75.696C264.757 76.272 261.397 76.56 258.853 76.512C255.301 76.416 255.445 71.856 258.949 72.096C263.845 72.432 272.629 70.608 276.565 68.976C280.693 67.248 281.605 72.192 278.965 73.104C277.237 73.728 275.221 74.256 273.157 74.736C273.205 76.608 273.205 79.152 273.157 81.456C278.197 81.456 282.613 81.504 284.869 81.552C288.229 81.6 288.133 85.968 284.773 85.872C282.133 85.776 277.813 85.728 273.061 85.728ZM335.029 77.376C329.077 88.176 319.141 98.016 308.101 101.52C304.021 102.816 302.485 97.344 306.469 96.336C316.117 93.888 325.813 83.952 330.661 74.544C332.197 71.568 337.141 73.584 335.029 77.376ZM315.013 81.264C314.245 82.368 312.565 83.04 311.077 81.696C309.301 80.064 306.229 78.672 303.973 78.144C301.093 77.472 302.293 72.624 305.941 73.632C308.485 74.352 312.085 75.648 314.389 77.28C315.877 78.336 315.781 80.16 315.013 81.264ZM383.987 67.776C383.315 67.056 381.011 65.424 380.051 65.04C377.603 64.08 379.331 61.2 381.587 61.92C382.883 62.352 385.331 63.552 386.435 64.656C388.355 66.576 385.619 69.6 383.987 67.776ZM379.619 72.048C378.995 71.28 376.643 69.6 375.683 69.168C373.235 68.16 375.155 65.28 377.363 66.096C378.659 66.576 381.059 67.824 382.115 68.976C383.987 70.992 381.203 73.92 379.619 72.048ZM365.939 71.28L365.603 71.712C367.667 71.568 370.019 71.424 371.939 71.328C375.635 71.136 378.851 73.728 377.075 77.136C371.219 88.32 364.595 98.016 351.107 103.344C347.027 104.928 345.059 100.224 349.043 98.832C359.699 95.136 367.619 85.584 371.171 77.424C371.555 76.512 371.171 75.6 370.019 75.648C368.003 75.696 364.499 76.032 362.339 76.272C359.075 80.592 354.851 85.632 351.539 87.888C348.323 90.048 345.491 85.872 348.755 83.856C353.363 81.024 359.603 72.24 361.811 68.448C363.395 65.76 368.195 68.064 365.939 71.28ZM401.555 65.568V65.52C401.555 64.512 402.131 64.08 402.755 64.08C403.427 64.08 404.099 64.608 404.147 65.472C404.195 69.6 404.243 74.592 404.243 79.776C404.243 86.928 404.195 94.32 404.099 100.032C404.051 103.344 402.179 105.6 398.627 105.744C397.475 105.792 396.467 105.792 395.459 105.792C394.115 105.792 392.819 105.792 391.379 105.744C390.515 105.744 390.083 105.12 390.083 104.496C390.083 103.872 390.563 103.2 391.379 103.2C391.427 103.2 391.523 103.2 391.571 103.2C391.859 103.248 393.203 103.344 398.195 103.344C400.115 103.296 401.507 102.24 401.603 99.792C401.699 96.912 401.747 93.072 401.747 88.896C401.747 81.072 401.603 72.048 401.555 65.568Z" fill="#52AA80"/>
<path d="M101.461 106.8H435.539V109.2H101.461V106.8Z" fill="#52AA80"/>
</svg>
