<svg width="284" height="53" viewBox="0 0 284 53" fill="none" xmlns="http://www.w3.org/2000/svg">
<g filter="url(#filter0_d_134_7008)">
<path d="M23.072 36.064C21.344 40.24 15.152 43.552 9.104 40.336C4.496 37.84 4.4 32.464 9.92 30.4C12.464 29.44 15.968 29.392 19.472 30.016C19.52 28.96 19.472 27.904 19.424 27.04C18.848 17.44 18.32 12.88 18.368 6.016C18.368 2.608 23.648 2.848 23.456 6.016C23.312 8.368 23.264 10.576 23.312 12.928C23.936 12.928 24.608 12.88 25.088 12.832C26.528 12.64 27.872 12.16 28.64 11.728C31.664 10 34.784 14.176 31.52 16C30.608 16.48 29.552 16.816 28.496 17.008C27.44 17.2 26.384 17.296 25.568 17.392C24.896 17.488 24.176 17.488 23.456 17.44C23.552 20.128 23.696 23.104 23.792 26.608C23.84 27.76 23.84 29.488 23.792 31.168C26.288 32.032 28.592 33.28 30.32 34.768C33.728 37.696 30.272 42.592 26.96 39.088C25.856 37.936 24.512 36.928 23.072 36.064ZM18.848 34.192C16.112 33.376 13.376 33.232 11.264 34C9.968 34.48 9.92 35.968 11.216 36.64C13.808 38.032 17.84 37.216 18.848 34.192ZM75.632 38.032C77.12 41.248 72.464 44.08 70.928 41.008C68.144 35.536 64.064 29.296 60.752 25.408C57.584 21.712 57.584 18.304 61.328 14.416C64.592 11.008 68.288 7.456 71.168 3.568C73.376 0.639997 77.696 4.048 75.44 6.832C73.04 9.76 67.952 13.936 64.976 16.912C62.912 18.976 62.816 20.416 64.4 22.384C69.2 28.384 73.28 32.896 75.632 38.032ZM111.44 35.728L111.296 35.44C109.52 36.736 107.744 37.84 106.064 38.704C103.088 40.24 98.528 39.472 99.056 33.04C99.44 28.336 103.28 23.104 107.648 20.32C108.272 19.936 108.944 19.552 109.664 19.168C109.808 17.344 110 15.424 110.24 13.456C107.936 13.6 105.872 13.456 104.24 12.976C101.408 12.16 102.368 7.744 105.584 8.752C106.928 9.184 108.752 9.28 110.768 9.136C110.96 7.744 111.2 6.304 111.392 4.864C111.92 1.312 116.576 2.08 116.048 4.96C115.856 6.16 115.616 7.36 115.424 8.464C117.632 7.984 119.84 7.36 121.904 6.592C124.688 5.536 126.8 9.616 123.008 10.864C120.368 11.728 117.488 12.496 114.704 12.976C114.464 14.512 114.272 15.904 114.08 17.248C115.76 16.672 117.488 16.288 119.12 16.192C119.312 16.192 119.504 16.192 119.696 16.192V16.096C120.032 13.264 124.448 14.176 124.256 16.48C138.272 19.024 137.552 36.688 121.184 42.064C116.864 43.504 115.664 39.04 119.6 37.744C131.552 33.856 132.032 22.528 123.344 20.368C121.76 24.88 118.64 28.96 115.04 32.32C115.184 32.656 115.376 32.992 115.568 33.28C117.248 36.064 113.264 39.136 111.44 35.728ZM118.736 20.08H118.592C117.2 20.224 115.376 20.704 113.648 21.376C113.456 23.824 113.504 25.984 113.744 27.904C115.904 25.648 117.68 23.008 118.736 20.08ZM109.952 31.312C109.52 29.056 109.376 26.464 109.424 23.632C105.632 26.416 103.472 29.824 103.28 32.656C103.136 34.576 104.432 34.768 105.68 34.096C107.12 33.28 108.56 32.368 109.952 31.312ZM168.32 36.448C169.232 36.256 170.24 35.68 171.104 34.912C174.608 31.792 174.464 27.232 171.728 25.408C169.232 23.728 164.048 23.392 159.2 26.224C157.28 27.328 156.272 28.192 155.168 29.824C153.44 32.368 148.64 29.536 151.616 26.608C156.896 21.376 160.784 17.68 166.112 11.104C166.64 10.432 166.16 10.624 165.776 10.816C164.432 11.536 161.264 12.496 157.712 13.264C153.92 14.08 153.2 9.328 156.464 8.944C159.68 8.56 164.288 7.408 167.024 6.592C170.864 5.488 174.032 8.896 171.632 11.584C170.096 13.312 168.176 15.184 166.256 16.96C164.336 18.736 162.416 20.464 160.688 22.144C164.912 19.888 170.624 19.888 174.176 22C181.088 26.128 178.832 34.576 173.792 38.224C169.04 41.632 161.552 41.824 157.904 39.424C152.816 36.112 155.072 30.16 160.736 29.968C164.576 29.824 168.176 32.128 168.32 36.448ZM164.24 37.168C164.288 34.96 162.992 33.28 160.88 33.472C158.768 33.664 158.672 35.632 160.208 36.448C161.312 37.024 162.896 37.216 164.24 37.168ZM230.432 11.344H225.728L225.776 14.896C225.776 16.144 224.72 16.768 223.664 16.768C222.608 16.768 221.552 16.144 221.552 14.896L221.6 11.344H216.992C215.744 16.576 213.344 16.672 212.864 16.672C211.712 16.672 210.704 15.952 210.704 15.04C210.704 14.656 210.848 14.272 211.232 13.84C213.248 11.728 213.584 9.856 213.584 7.504C213.584 7.024 213.536 6.496 213.536 5.92C213.536 5.872 213.536 5.872 213.536 5.824C213.536 3.856 215.12 2.368 217.856 2.176C221.12 1.936 223.952 1.696 227.216 1.072C227.36 1.024 227.456 1.024 227.6 1.024C228.704 1.024 229.424 1.984 229.424 2.944C229.424 3.76 228.896 4.576 227.744 4.816C224.912 5.392 221.456 5.488 218.72 5.728C218 5.776 217.52 6.112 217.52 6.928C217.52 7.216 217.472 7.504 217.472 7.792L230.432 7.696C231.584 7.696 232.16 8.608 232.16 9.52C232.16 10.432 231.584 11.344 230.432 11.344ZM210.944 11.344H206.72L206.768 14.608C206.768 15.856 205.712 16.48 204.656 16.48C203.6 16.48 202.544 15.856 202.544 14.608L202.592 11.344H198.8C198.128 15.52 196.304 19.456 193.904 19.456C192.752 19.456 191.696 18.592 191.696 17.488C191.696 17.008 191.888 16.528 192.32 16C194.576 13.264 195.056 10.432 195.056 7.456C195.056 6.928 195.008 6.4 195.008 5.872C195.008 5.824 195.008 5.824 195.008 5.776C195.008 3.808 196.64 2.368 199.472 2.176C202.832 1.936 205.76 1.696 209.12 1.072C209.264 1.024 209.408 1.024 209.504 1.024C210.704 1.024 211.376 1.984 211.376 2.944C211.376 3.76 210.848 4.576 209.648 4.816C206.72 5.392 203.168 5.488 200.336 5.728C199.568 5.776 199.136 6.16 199.136 6.88C199.136 7.168 199.088 7.456 199.088 7.792L210.944 7.696C212.096 7.696 212.672 8.608 212.672 9.52C212.672 10.432 212.096 11.344 210.944 11.344ZM220.736 36.16L220.304 36.208C223.712 37.696 227.024 38.272 230.672 38.608C232.112 38.752 232.784 39.712 232.784 40.768C232.784 41.584 232.112 43.168 230.24 43.168C229.472 43.168 222.656 42.208 217.472 39.472C216.704 39.088 216.368 38.464 216.368 37.84C216.368 37.264 216.656 36.688 217.088 36.256C215.504 36.256 213.92 36.304 212.384 36.304C210.8 36.304 209.264 36.256 207.728 36.256C208.16 36.688 208.4 37.264 208.4 37.888C208.4 38.512 208.112 39.136 207.344 39.568C202.4 42.304 195.776 43.36 194.384 43.36C192.752 43.36 191.888 42.208 191.888 41.104C191.888 40.096 192.608 39.088 194.096 38.944C197.84 38.608 201.248 38.032 204.608 36.208L204.224 36.16C200.912 36.112 199.184 34.576 199.088 32.512C198.992 30.736 198.944 28.768 198.944 26.896C198.944 24.688 198.992 22.528 199.088 20.656C199.184 18.976 200.624 17.008 204.224 16.96C206.912 16.912 209.6 16.864 212.384 16.864C215.12 16.864 218 16.912 220.976 16.96C223.712 17.008 225.776 18.784 225.872 20.368C225.968 22.336 226.016 24.352 226.016 26.368C226.016 28.384 225.968 30.448 225.872 32.464C225.776 34.384 223.76 36.112 220.736 36.16ZM221.552 22.384L221.504 21.664C221.456 20.704 220.784 20.176 219.296 20.128C217.136 20.08 214.784 20.032 212.432 20.032C210.08 20.032 207.68 20.08 205.472 20.128C204.032 20.176 203.36 20.944 203.312 21.712V22.384H221.552ZM221.6 25.168H203.216V27.568H221.648C221.648 26.752 221.6 25.984 221.6 25.168ZM221.552 30.4H203.312V31.312C203.36 32.992 204.128 32.992 212.336 32.992C220.352 32.992 221.408 32.992 221.504 31.312C221.504 31.024 221.552 30.688 221.552 30.4ZM274.88 18.496C274.016 18.544 272.768 18.592 271.376 18.592C265.712 18.592 261.728 18.592 261.584 14.368C261.536 13.408 261.536 12.352 261.536 11.248C261.536 9.472 261.584 7.648 261.632 5.968C261.728 3.808 263.36 2.272 265.808 2.176C266.72 2.128 268.736 2.128 270.704 2.128C272.096 2.128 273.44 2.128 274.256 2.176C277.808 2.368 279.296 4.288 279.296 6.448C279.296 7.648 279.296 8.848 279.296 10.048C279.296 17.248 279.392 24.688 279.392 30.784C279.392 33.04 279.44 35.056 279.44 36.736C279.44 40.144 277.76 43.12 272.288 43.12C268.928 43.12 267.2 42.688 267.2 40.576C267.2 39.472 267.872 38.464 269.072 38.464C269.216 38.464 269.312 38.512 269.456 38.512C270.368 38.656 271.232 38.8 272 38.8C273.584 38.8 274.784 38.224 274.832 35.872C274.88 33.952 274.928 31.888 274.928 29.824C274.928 26.656 274.88 23.44 274.88 20.464C274.88 19.792 274.88 19.12 274.88 18.496ZM268.832 32.08C268.736 34.576 267.152 36.4 264.224 36.64C263.12 36.736 261.584 36.784 260 36.784C252.032 36.784 250.64 36.688 250.64 29.728C250.64 28.336 250.688 26.992 250.736 25.696C250.88 23.2 252.56 21.472 255.152 21.376C256.304 21.328 258.08 21.28 259.808 21.28C261.584 21.28 263.312 21.328 264.32 21.376C266.672 21.472 268.688 23.248 268.784 25.648C268.832 26.896 268.88 28.24 268.88 29.584C268.88 30.4 268.88 31.264 268.832 32.08ZM245.168 41.2C245.168 42.592 244.016 43.264 242.864 43.264C241.712 43.264 240.56 42.592 240.56 41.296C240.56 41.248 240.56 41.248 240.56 41.2C240.896 32.416 240.8 17.248 240.896 6.832C240.896 2.128 244.16 2.128 249.152 2.128C250.976 2.128 252.944 2.128 253.856 2.176C256.304 2.272 258.032 3.808 258.128 5.968C258.176 7.648 258.224 9.472 258.224 11.248C258.224 17.392 258.176 18.592 248.672 18.592C247.424 18.592 246.224 18.544 245.36 18.496C245.36 19.744 245.36 21.184 245.36 22.768C245.36 27.904 245.312 34.432 245.168 41.2ZM265.76 8.8H274.784C274.784 5.728 274.688 5.68 270.272 5.68C266.432 5.68 265.904 5.68 265.808 7.216C265.808 7.696 265.76 8.224 265.76 8.8ZM274.88 15.04V11.968H265.76C265.76 12.544 265.808 13.072 265.808 13.552C265.856 14.896 266 15.088 271.088 15.088C272.672 15.088 274.208 15.088 274.88 15.04ZM245.36 8.8H254C254 8.224 253.952 7.648 253.952 7.168C253.856 5.824 253.616 5.68 249.776 5.68C245.84 5.68 245.504 5.824 245.408 7.552C245.408 7.936 245.36 8.368 245.36 8.8ZM254 11.968H245.36V15.04C246.032 15.088 247.472 15.088 248.912 15.088C253.568 15.088 253.904 14.896 253.952 13.552C253.952 13.072 254 12.544 254 11.968ZM262.592 32.8C264.512 32.656 264.512 31.936 264.512 28C264.512 24.976 264.224 24.928 259.712 24.928C255.104 24.928 255.008 25.072 255.008 28.576C255.008 29.536 255.008 30.544 255.056 31.312C255.152 32.8 256.352 32.848 259.76 32.848C260.864 32.848 261.968 32.848 262.592 32.8Z" fill="#405873"/>
</g>
<defs>
<filter id="filter0_d_134_7008" x="0.399902" y="0.640625" width="283.04" height="51.4395" filterUnits="userSpaceOnUse" color-interpolation-filters="sRGB">
<feFlood flood-opacity="0" result="BackgroundImageFix"/>
<feColorMatrix in="SourceAlpha" type="matrix" values="0 0 0 0 0 0 0 0 0 0 0 0 0 0 0 0 0 0 127 0" result="hardAlpha"/>
<feOffset dy="4"/>
<feGaussianBlur stdDeviation="2"/>
<feComposite in2="hardAlpha" operator="out"/>
<feColorMatrix type="matrix" values="0 0 0 0 0 0 0 0 0 0 0 0 0 0 0 0 0 0 0.25 0"/>
<feBlend mode="normal" in2="BackgroundImageFix" result="effect1_dropShadow_134_7008"/>
<feBlend mode="normal" in="SourceGraphic" in2="effect1_dropShadow_134_7008" result="shape"/>
</filter>
</defs>
</svg>
