<svg width="621" height="207" viewBox="0 0 621 207" fill="none" xmlns="http://www.w3.org/2000/svg">
<path d="M0 0H621L597 48L621 96H0L21.5 47L0 0Z" fill="#F2D644"/>
<path d="M183.601 23.344L184.593 26.608C187.185 25.872 189.777 25.136 191.729 24.624C194.225 23.984 194.641 27.056 192.657 27.504C190.833 27.92 188.209 28.624 185.489 29.424C186.513 32.656 187.441 35.664 188.049 37.552C188.433 38.736 187.761 39.6 186.993 39.888C186.225 40.176 185.265 39.888 184.977 38.736C184.465 36.752 183.569 33.616 182.545 30.288C179.697 31.152 176.913 32.016 174.961 32.688C172.849 33.392 171.889 30.416 174.289 29.68C176.145 29.104 178.833 28.272 181.681 27.44C181.329 26.32 180.977 25.2 180.657 24.144C178.673 24.688 176.721 25.232 175.057 25.616C172.753 26.16 172.145 23.248 174.257 22.768C176.017 22.384 177.905 21.904 179.793 21.392C179.153 19.344 178.545 17.584 178.161 16.4C177.425 14.224 180.689 13.712 181.201 15.472C181.521 16.624 182.097 18.448 182.737 20.56C184.561 20.048 186.289 19.472 187.793 18.992C189.873 18.32 190.545 21.232 188.593 21.84C187.153 22.288 185.425 22.832 183.601 23.344ZM219.409 26.704L219.441 26.672C218.129 27.056 216.241 27.696 214.257 28.4C215.217 31.632 216.369 35.28 217.137 37.392C218.001 39.728 215.057 40.72 214.385 38.48C213.745 36.304 212.657 32.624 211.665 29.328C210.321 29.808 209.073 30.288 208.049 30.672C206.161 31.376 205.361 28.688 207.153 28.08C208.273 27.696 209.521 27.248 210.897 26.768C210.513 25.52 210.193 24.464 209.937 23.664C209.585 22.608 210.129 21.904 210.865 21.744C211.537 21.584 212.369 21.968 212.625 22.832C212.849 23.568 213.169 24.624 213.521 25.872C215.633 25.168 217.841 24.432 219.985 23.76C221.585 23.28 223.569 24.144 222.897 26.128C222.161 28.304 220.721 30.192 219.121 31.6C217.297 33.2 215.505 30.864 217.137 29.52C218.033 28.816 218.929 27.728 219.409 26.704ZM244.081 27.6C244.049 28.688 243.217 29.264 242.385 29.264C241.553 29.264 240.657 28.688 240.721 27.632C240.913 24.464 240.817 19.44 240.657 16.4C240.561 14.416 243.857 14.256 243.985 16.272C244.145 19.152 244.145 24.624 244.081 27.6ZM244.657 39.632C242.033 41.136 240.625 38.128 242.641 37.008C248.305 33.872 249.585 29.584 249.585 24.816C249.585 22.32 249.425 18.352 249.425 15.824C249.425 13.744 252.881 13.872 252.849 15.824C252.785 18.544 252.945 22.128 252.945 24.784C252.945 30.288 251.281 35.824 244.657 39.632ZM278.321 27.056C277.521 31.952 275.121 35.76 270.385 38.736C269.105 39.536 267.921 39.184 267.377 38.448C266.833 37.712 266.961 36.592 268.241 35.952C273.617 33.296 275.441 28.016 274.961 23.376C274.833 22.032 275.697 21.424 276.721 21.424C277.713 21.424 278.673 21.904 278.641 23.248C278.641 23.632 278.641 24.048 278.609 24.432C278.705 24.4 278.769 24.336 278.865 24.304C281.009 23.44 283.441 22 284.689 20.272C285.169 19.6 285.169 19.12 284.337 19.12C280.753 19.088 273.777 19.184 269.297 19.408C266.481 19.536 266.641 16.464 269.041 16.336C273.681 16.112 280.657 16.144 285.457 16.144C288.785 16.144 290.321 18.928 288.081 21.456C285.969 23.856 283.633 25.904 280.145 27.152C279.409 27.408 278.769 27.344 278.321 27.056ZM319.697 31.376C319.633 34.448 317.265 35.408 314.833 35.536C311.441 35.728 306.161 35.76 302.865 35.76C300.465 35.76 300.465 32.336 302.833 32.432C306.257 32.56 312.081 32.56 314.449 32.4C315.409 32.336 316.241 31.792 316.305 30.608C316.401 28.688 316.401 25.424 316.337 23.76C316.305 22.704 315.537 22.128 314.321 22.096C311.505 22 306.449 22.192 303.121 22.352C300.625 22.48 300.497 19.344 302.961 19.248C306.481 19.088 312.241 19.024 315.441 19.088C318.609 19.152 319.729 21.04 319.729 23.184C319.729 25.136 319.761 28.528 319.697 31.376ZM352.785 27.44H332.689C331.537 27.44 330.993 26.672 330.993 25.904C330.993 25.104 331.601 24.272 332.689 24.272H352.785C353.873 24.272 354.417 25.072 354.417 25.872C354.417 26.64 353.873 27.44 352.785 27.44ZM377.041 27.152C376.785 31.216 374.161 37.104 367.569 39.376C364.337 40.496 363.537 36.976 365.841 36.4C371.281 35.024 373.425 30.192 373.809 27.152C370.353 27.152 366.897 27.216 364.369 27.28C362.449 27.344 362.257 24.432 364.369 24.4C366.737 24.336 370.289 24.304 373.873 24.304C373.873 22.96 373.841 21.52 373.841 20.464C371.505 20.848 369.265 21.04 367.569 21.008C365.201 20.944 365.297 17.904 367.633 18.064C370.897 18.288 376.753 17.072 379.377 15.984C382.129 14.832 382.737 18.128 380.977 18.736C379.825 19.152 378.481 19.504 377.105 19.824C377.137 21.072 377.137 22.768 377.105 24.304C380.465 24.304 383.409 24.336 384.913 24.368C387.153 24.4 387.089 27.312 384.849 27.248C383.089 27.184 380.209 27.152 377.041 27.152ZM418.353 21.584C414.385 28.784 407.761 35.344 400.401 37.68C397.681 38.544 396.657 34.896 399.313 34.224C405.745 32.592 412.209 25.968 415.441 19.696C416.465 17.712 419.761 19.056 418.353 21.584ZM405.009 24.176C404.497 24.912 403.377 25.36 402.385 24.464C401.201 23.376 399.153 22.448 397.649 22.096C395.729 21.648 396.529 18.416 398.961 19.088C400.657 19.568 403.057 20.432 404.593 21.52C405.585 22.224 405.521 23.44 405.009 24.176ZM450.991 15.184C450.543 14.704 449.007 13.616 448.367 13.36C446.735 12.72 447.887 10.8 449.391 11.28C450.255 11.568 451.887 12.368 452.623 13.104C453.903 14.384 452.079 16.4 450.991 15.184ZM448.079 18.032C447.663 17.52 446.095 16.4 445.455 16.112C443.823 15.44 445.103 13.52 446.575 14.064C447.439 14.384 449.039 15.216 449.743 15.984C450.991 17.328 449.135 19.28 448.079 18.032ZM438.959 17.52L438.735 17.808C440.111 17.712 441.679 17.616 442.959 17.552C445.423 17.424 447.567 19.152 446.383 21.424C442.479 28.88 438.063 35.344 429.071 38.896C426.351 39.952 425.039 36.816 427.695 35.888C434.799 33.424 440.079 27.056 442.447 21.616C442.703 21.008 442.447 20.4 441.679 20.432C440.335 20.464 437.999 20.688 436.559 20.848C434.383 23.728 431.567 27.088 429.359 28.592C427.215 30.032 425.327 27.248 427.503 25.904C430.575 24.016 434.735 18.16 436.207 15.632C437.263 13.84 440.463 15.376 438.959 17.52ZM141.204 86V86.032C141.204 86.704 140.82 86.992 140.404 86.992C139.988 86.992 139.54 86.64 139.508 86.064C139.476 83.312 139.444 79.984 139.444 76.528C139.444 71.76 139.476 66.832 139.54 63.024C139.572 60.816 140.788 59.312 143.156 59.216C143.7 59.184 144.212 59.184 144.724 59.184C145.844 59.184 146.836 59.216 147.988 59.248C148.596 59.248 148.852 59.664 148.852 60.08C148.852 60.496 148.564 60.912 148.02 60.912C147.988 60.912 147.924 60.912 147.892 60.912C147.7 60.88 146.804 60.816 143.476 60.816C142.196 60.848 141.268 61.552 141.204 63.184C141.108 65.296 141.076 68.176 141.076 71.312C141.076 76.304 141.172 81.904 141.204 86ZM167.444 71.344L168.436 74.608C171.028 73.872 173.62 73.136 175.572 72.624C178.068 71.984 178.484 75.056 176.5 75.504C174.676 75.92 172.052 76.624 169.332 77.424C170.356 80.656 171.284 83.664 171.892 85.552C172.276 86.736 171.604 87.6 170.836 87.888C170.068 88.176 169.108 87.888 168.82 86.736C168.308 84.752 167.412 81.616 166.388 78.288C163.54 79.152 160.756 80.016 158.804 80.688C156.692 81.392 155.732 78.416 158.132 77.68C159.988 77.104 162.676 76.272 165.524 75.44C165.172 74.32 164.82 73.2 164.5 72.144C162.516 72.688 160.564 73.232 158.9 73.616C156.596 74.16 155.988 71.248 158.1 70.768C159.86 70.384 161.748 69.904 163.636 69.392C162.996 67.344 162.388 65.584 162.004 64.4C161.268 62.224 164.532 61.712 165.044 63.472C165.364 64.624 165.94 66.448 166.58 68.56C168.404 68.048 170.132 67.472 171.636 66.992C173.716 66.32 174.388 69.232 172.436 69.84C170.996 70.288 169.268 70.832 167.444 71.344ZM203.252 74.704L203.284 74.672C201.972 75.056 200.084 75.696 198.1 76.4C199.06 79.632 200.212 83.28 200.98 85.392C201.844 87.728 198.9 88.72 198.228 86.48C197.588 84.304 196.5 80.624 195.508 77.328C194.164 77.808 192.916 78.288 191.892 78.672C190.004 79.376 189.204 76.688 190.996 76.08C192.116 75.696 193.364 75.248 194.74 74.768C194.356 73.52 194.036 72.464 193.78 71.664C193.428 70.608 193.972 69.904 194.708 69.744C195.38 69.584 196.212 69.968 196.468 70.832C196.692 71.568 197.012 72.624 197.364 73.872C199.476 73.168 201.684 72.432 203.828 71.76C205.428 71.28 207.412 72.144 206.74 74.128C206.004 76.304 204.564 78.192 202.964 79.6C201.14 81.2 199.348 78.864 200.98 77.52C201.876 76.816 202.772 75.728 203.252 74.704ZM227.924 75.6C227.892 76.688 227.06 77.264 226.228 77.264C225.396 77.264 224.5 76.688 224.564 75.632C224.756 72.464 224.66 67.44 224.5 64.4C224.404 62.416 227.7 62.256 227.828 64.272C227.988 67.152 227.988 72.624 227.924 75.6ZM228.5 87.632C225.876 89.136 224.468 86.128 226.484 85.008C232.148 81.872 233.428 77.584 233.428 72.816C233.428 70.32 233.268 66.352 233.268 63.824C233.268 61.744 236.724 61.872 236.692 63.824C236.628 66.544 236.788 70.128 236.788 72.784C236.788 78.288 235.124 83.824 228.5 87.632ZM262.156 78.032C259.34 81.168 255.884 83.76 251.5 85.424C249.164 86.288 248.076 83.152 250.476 82.32C256.3 80.304 261.356 75.184 263.884 70.416C264.172 69.872 264.044 69.36 263.34 69.36C261.324 69.328 256.908 69.488 254.092 69.552C252.172 69.616 252.044 66.544 254.092 66.448C256.428 66.352 261.132 66.288 264.364 66.288C267.244 66.288 268.876 68.112 267.628 70.288C266.54 72.176 265.388 74 264.076 75.728C266.732 77.328 270.796 80.016 272.268 82.064C273.548 83.856 271.148 86.352 269.644 84.464C268.076 82.512 264.78 79.6 262.156 78.032ZM307.148 66.064C307.148 67.92 305.612 69.424 303.756 69.424C301.9 69.424 300.396 67.92 300.396 66.064C300.396 64.208 301.9 62.672 303.756 62.672C305.612 62.672 307.148 64.208 307.148 66.064ZM288.94 76.112C288.908 77.52 288.876 78.8 288.844 79.696C288.78 81.264 289.484 82.032 291.404 82.288C293.26 82.544 298.444 82.224 300.716 81.424C303.148 80.592 304.524 84.048 301.388 84.88C298.508 85.648 293.612 85.744 290.252 85.328C287.436 84.976 285.74 83.152 285.708 80.528C285.676 77.328 285.9 70.192 285.932 66.384C285.932 64.144 289.228 64.592 289.196 66.48C289.164 68.208 289.1 70.608 289.036 72.976C291.564 72.496 296.716 71.056 299.116 70C301.452 68.976 303.052 72.24 300.3 73.2C297.26 74.224 292.588 75.696 288.94 76.112ZM305.42 66.064C305.42 65.168 304.652 64.4 303.756 64.4C302.86 64.4 302.156 65.168 302.156 66.064C302.156 66.96 302.86 67.664 303.756 67.664C304.652 67.664 305.42 66.96 305.42 66.064ZM318.86 61.712V61.68C318.86 61.008 319.244 60.72 319.66 60.72C320.108 60.72 320.556 61.072 320.588 61.648C320.62 64.4 320.652 67.728 320.652 71.184C320.652 75.952 320.62 80.88 320.556 84.688C320.524 86.896 319.276 88.4 316.908 88.496C316.14 88.528 315.468 88.528 314.796 88.528C313.9 88.528 313.036 88.528 312.076 88.496C311.5 88.496 311.212 88.08 311.212 87.664C311.212 87.248 311.532 86.8 312.076 86.8C312.108 86.8 312.172 86.8 312.204 86.8C312.396 86.832 313.292 86.896 316.62 86.896C317.9 86.864 318.828 86.16 318.892 84.528C318.956 82.608 318.988 80.048 318.988 77.264C318.988 72.048 318.892 66.032 318.86 61.712ZM371.116 65.296C370.668 64.848 369.036 63.888 368.364 63.664C366.7 63.12 367.724 61.072 369.26 61.488C370.124 61.712 371.852 62.48 372.62 63.152C373.964 64.368 372.268 66.448 371.116 65.296ZM368.332 68.272C367.884 67.792 366.252 66.736 365.612 66.512C363.948 65.904 365.1 63.92 366.604 64.4C367.468 64.656 369.132 65.488 369.868 66.192C371.18 67.44 369.452 69.456 368.332 68.272ZM371.468 74.832C372.268 76.944 369.388 78.352 368.524 76.368C367.756 74.608 366.316 72.176 363.948 70.864C362.38 70 363.788 67.6 365.772 68.752C368.332 70.256 370.604 72.528 371.468 74.832ZM355.692 69.264L356.748 69.168C359.436 68.944 361.484 70.512 361.612 74.096C361.676 76.336 361.356 79.216 360.524 81.232C359.212 84.4 356.076 85.968 353.004 85.072C350.476 84.336 351.5 81.392 353.452 81.872C355.276 82.32 356.62 82.032 357.516 80.144C358.252 78.576 358.54 76.304 358.54 74.608C358.54 72.656 357.868 71.728 356.396 71.856C355.916 71.888 355.436 71.952 354.924 72.016C353.356 76.976 351.212 81.328 348.716 84.88C347.18 87.056 343.852 85.2 345.932 82.864C348.14 80.4 350.124 76.752 351.596 72.464L351.212 72.528C349.836 72.784 348.588 72.976 347.756 72.976C345.58 72.976 345.612 70.096 347.66 69.904C348.652 69.808 349.644 69.84 350.796 69.744L352.396 69.584C352.78 68.176 353.196 66.288 353.388 64.496C353.612 62.416 356.876 62.608 356.62 64.752C356.492 65.84 356.076 67.76 355.692 69.264ZM401.804 78.896L392.94 78.832L384.428 78.896C383.628 78.896 383.244 78.32 383.244 77.776C383.244 77.2 383.628 76.656 384.428 76.656L388.684 76.688V74.736L385.612 74.768C384.812 74.768 384.428 74.224 384.428 73.648C384.428 73.104 384.812 72.56 385.612 72.56L388.684 72.592V71.696C388.684 71.248 388.972 70.96 389.356 70.8C389.004 70.832 388.652 70.832 388.3 70.832C385.132 70.832 383.916 70.416 383.916 67.376C383.916 66.352 383.948 64.72 386.444 64.72C386.732 64.72 387.628 64.72 388.3 64.72C389.228 64.72 389.516 64.72 389.516 63.984C389.516 63.536 389.452 63.408 389.004 63.376C389.004 63.376 389.004 63.376 384.908 63.376C384.14 63.376 383.788 62.832 383.788 62.256C383.788 61.68 384.172 61.104 384.876 61.072C385.196 61.072 385.58 61.072 385.964 61.072C387.468 61.072 389.196 61.104 389.708 61.104C391.404 61.104 392.044 61.808 392.044 64.08C392.044 66.8 391.308 66.8 387.052 66.8C386.54 66.8 386.476 67.024 386.476 67.856C386.476 68.656 386.732 68.688 388.364 68.688C389.452 68.688 390.284 68.624 390.348 67.632C390.38 66.928 390.956 66.608 391.532 66.608C392.236 66.608 392.94 67.024 392.94 67.792C392.94 69.072 392.3 70.352 390.348 70.672C390.892 70.768 391.404 71.088 391.404 71.696V72.592L392.94 72.624H394.412V71.696C394.412 71.088 394.924 70.736 395.5 70.672C393.324 70.256 393.324 68.752 393.324 67.76C393.324 66.32 393.356 64.72 395.82 64.72C396.108 64.72 397.068 64.72 397.772 64.72C398.924 64.72 399.02 64.688 399.02 63.984C399.02 63.536 398.956 63.408 398.508 63.376C398.508 63.376 398.508 63.376 394.188 63.376C393.452 63.376 393.1 62.832 393.1 62.288C393.1 61.68 393.484 61.104 394.188 61.072C394.508 61.072 394.892 61.072 395.276 61.072C396.844 61.072 398.668 61.104 399.18 61.104C401.036 61.104 401.548 61.968 401.548 64.08C401.548 66.736 400.94 66.8 396.396 66.8C395.788 66.8 395.788 67.088 395.788 67.824C395.788 68.624 395.916 68.688 397.804 68.688C399.404 68.688 400.14 68.624 400.204 67.472C400.236 66.768 400.812 66.448 401.388 66.448C402.092 66.448 402.828 66.896 402.828 67.664C402.828 70.608 400.044 70.864 397.836 70.864C397.356 70.864 396.908 70.832 396.46 70.8C396.844 70.96 397.132 71.248 397.132 71.696V72.592L400.46 72.56C401.26 72.56 401.644 73.104 401.644 73.648C401.644 74.224 401.26 74.768 400.46 74.768L397.132 74.736V76.688L401.804 76.656C402.604 76.656 402.988 77.2 402.988 77.776C402.988 78.32 402.604 78.896 401.804 78.896ZM400.748 83.696C399.564 83.696 396.396 82.672 394.22 81.392C393.804 81.168 393.644 80.816 393.644 80.464C393.644 79.824 394.22 79.184 394.892 79.184C395.084 79.184 395.308 79.248 395.5 79.344C397.196 80.304 399.404 80.944 401.036 81.072C401.836 81.136 402.188 81.68 402.188 82.256C402.188 82.96 401.644 83.696 400.748 83.696ZM381.516 67.536C381.132 67.536 380.716 67.344 380.428 66.864C379.596 65.584 378.188 64.592 377.292 64.08C376.844 63.824 376.652 63.472 376.652 63.088C376.652 62.384 377.42 61.648 378.284 61.648C379.244 61.648 383.244 64.112 383.244 65.744C383.244 66.672 382.38 67.536 381.516 67.536ZM381.292 84.048C380.396 85.072 377.964 87.824 376.716 87.824C375.82 87.824 375.02 86.992 375.02 86.16C375.02 85.744 375.244 85.296 375.788 84.976C377.42 84.016 378.828 82.896 379.884 81.616C379.916 79.888 380.012 78.384 380.012 76.944C380.012 75.824 379.98 75.472 378.668 75.472C378.156 75.472 377.74 75.504 377.26 75.504C376.812 75.504 375.724 75.472 375.724 74.128C375.724 73.424 376.172 72.688 377.004 72.688C377.74 72.688 378.316 72.688 378.956 72.688C381.228 72.688 382.988 72.944 382.988 75.696C382.988 77.552 382.86 79.728 382.86 81.776C383.244 82.256 383.724 82.704 384.3 83.12C384.14 82.896 384.076 82.608 384.076 82.352C384.076 81.84 384.396 81.36 385.1 81.296C386.572 81.168 388.428 80.56 389.932 79.472C390.124 79.312 390.348 79.248 390.54 79.248C391.148 79.248 391.66 79.92 391.66 80.56C391.66 80.912 391.532 81.264 391.18 81.488C389.644 82.544 387.436 83.472 385.644 83.728C385.644 83.728 385.644 83.728 385.26 83.728C386.476 84.368 388.268 85.008 392.748 85.008C396.076 85.008 399.692 84.656 402.124 84.464C402.188 84.464 402.22 84.464 402.284 84.464C403.276 84.464 403.82 85.232 403.82 86C403.82 86.736 403.34 87.504 402.22 87.6C400.204 87.792 397.196 87.984 394.156 87.984C386.092 87.984 383.596 86.544 381.292 84.048ZM394.412 76.688V74.736L392.94 74.704L391.404 74.736V76.688L392.972 76.72L394.412 76.688ZM435.532 63.024C435.116 62.576 433.612 61.52 433.004 61.296C431.436 60.688 432.524 58.832 433.964 59.312C434.764 59.568 436.364 60.336 437.068 61.04C438.284 62.256 436.588 64.176 435.532 63.024ZM429.644 83.44C428.428 85.968 424.524 88.112 421.036 86.128C418.252 84.528 418.188 80.88 421.516 79.408C423.244 78.64 425.196 78.608 427.148 79.024C427.148 78.512 427.084 78.032 427.052 77.424C426.956 76.112 426.892 73.648 426.796 71.12C425.068 71.376 423.372 71.504 421.548 71.344C419.34 71.152 419.724 67.888 422.188 68.304C423.596 68.56 425.132 68.464 426.7 68.208C426.668 66.416 426.636 64.784 426.668 63.792C426.732 62.032 428.972 61.936 429.58 62.992C429.58 62.288 430.444 61.616 431.372 61.968C432.172 62.256 433.708 63.088 434.38 63.792C435.564 65.04 433.804 66.896 432.812 65.712C432.396 65.232 430.924 64.176 430.316 63.92C430.06 63.792 429.868 63.664 429.74 63.504C429.74 63.568 429.74 63.664 429.74 63.728C429.676 64.624 429.644 65.968 429.644 67.536C430.188 67.376 430.764 67.248 431.276 67.088C433.356 66.448 434.732 69.36 431.98 70.032C431.212 70.224 430.444 70.416 429.676 70.576C429.708 73.072 429.804 75.568 429.868 77.136C429.9 77.936 430.028 78.992 430.06 80.016C431.404 80.656 432.684 81.456 433.676 82.352C435.5 84.016 433.228 86.8 431.628 85.104C431.052 84.528 430.38 83.952 429.644 83.44ZM413.9 86.544C413.068 87.312 411.628 87.184 411.084 85.456C410.06 82.224 410.156 78.096 410.572 74.224C410.988 70.352 411.692 66.768 411.852 64.688C412.044 62.096 415.404 62.736 415.084 64.752C414.86 66.192 414.316 68.976 413.9 71.696C413.484 74.416 413.164 77.104 413.292 78.384C413.356 78.96 413.388 79.056 413.708 78.416C413.804 78.224 414.028 77.648 414.092 77.488C414.828 75.952 417.26 77.04 416.108 79.44C415.692 80.304 415.372 81.168 415.116 81.968C414.86 82.768 414.668 83.472 414.54 83.984C414.284 84.88 414.7 85.776 413.9 86.544ZM426.892 81.936H426.86C425.26 81.328 423.66 81.168 422.444 81.744C421.676 82.096 421.484 83.184 422.252 83.632C423.788 84.496 426.38 83.824 426.892 81.936ZM446.796 79.824C446.124 80.976 445.548 82.192 445.036 83.12C443.596 85.648 440.364 83.696 442.124 81.616C442.22 81.488 442.316 81.392 442.38 81.328C443.788 79.408 445.868 76.624 447.148 74.192C447.212 73.552 447.244 72.944 447.308 72.304C446.572 72.56 445.676 72.944 444.876 73.456C442.668 74.864 441.676 71.728 443.404 70.928C444.556 70.384 446.092 69.744 447.596 69.168C447.82 66.768 448.076 64.624 448.236 63.216C448.492 61.104 451.5 61.776 451.18 63.536C450.956 64.688 450.732 66.288 450.508 68.144C451.532 68.016 452.428 68.976 451.948 70.48C452.332 70.128 452.716 69.776 453.068 69.488C458.028 65.424 462.668 65.712 462.252 72.08C462.124 74 461.612 77.392 461.452 79.216C461.132 82.864 463.02 82.48 465.164 80.208C466.796 78.48 468.812 80.816 467.468 82.32C463.404 86.768 457.676 86.256 458.412 79.184C458.572 77.488 459.148 74.032 459.244 72.112C459.34 69.84 458.86 68.112 454.38 71.824C452.844 73.104 451.34 74.256 449.804 75.984C449.612 79.536 449.644 83.056 450.06 85.488C450.444 87.696 447.084 88.432 446.828 85.744C446.7 84.336 446.7 82.224 446.796 79.824ZM488.396 83.632C489.004 83.504 489.676 83.12 490.252 82.608C492.588 80.528 492.492 77.488 490.668 76.272C489.004 75.152 485.548 74.928 482.316 76.816C481.036 77.552 480.364 78.128 479.628 79.216C478.476 80.912 475.276 79.024 477.26 77.072C480.78 73.584 483.372 71.12 486.924 66.736C487.276 66.288 486.956 66.416 486.7 66.544C485.804 67.024 483.692 67.664 481.324 68.176C478.796 68.72 478.316 65.552 480.492 65.296C482.636 65.04 485.708 64.272 487.532 63.728C490.092 62.992 492.204 65.264 490.604 67.056C489.58 68.208 488.3 69.456 487.02 70.64C485.74 71.824 484.46 72.976 483.308 74.096C486.124 72.592 489.932 72.592 492.3 74C496.908 76.752 495.404 82.384 492.044 84.816C488.876 87.088 483.884 87.216 481.452 85.616C478.06 83.408 479.564 79.44 483.34 79.312C485.9 79.216 488.3 80.752 488.396 83.632ZM485.676 84.112C485.708 82.64 484.844 81.52 483.436 81.648C482.028 81.776 481.964 83.088 482.988 83.632C483.724 84.016 484.78 84.144 485.676 84.112Z" fill="black"/>
<path d="M252.584 146.736H254.744C259.136 146.592 261.224 143.712 261.224 139.464C261.224 135.864 258.128 132.984 253.736 132.984C250.28 132.984 247.976 134.784 246.104 136.728C245.384 137.448 244.448 137.808 243.584 137.808C241.568 137.808 239.552 135.936 239.552 133.776C239.552 129.744 247.832 125.568 254.096 125.568C263.24 125.568 269.072 131.4 269.072 139.464C269.072 144.36 266.768 148.176 263.24 150.048C271.664 153.936 271.808 162.576 271.808 163.944C271.808 174.096 264.032 181.296 253.16 181.296C242.432 181.296 235.952 174.96 235.952 171.576C235.952 169.272 238.04 167.256 240.2 167.256C241.136 167.256 242.144 167.688 243.008 168.624C246.248 172.224 248.552 173.592 253.52 173.592C258.704 173.592 263.888 169.776 263.888 163.8C263.888 156.456 259.496 154.224 254.384 154.224C254.168 154.224 253.952 154.224 253.736 154.224C253.304 154.224 252.944 154.296 252.656 154.296C250.424 154.296 248.84 152.352 248.84 150.48C248.84 148.608 250.352 146.736 252.584 146.736ZM332.332 169.272C326.5 174.096 318.724 177.624 308.068 179.424C301.372 180.504 300.868 172.584 306.628 171.792C315.7 170.568 322.684 167.904 327.796 163.368C333.916 157.968 334.348 152.064 331.036 148.248C326.428 142.992 318.292 143.136 311.812 145.08C308.068 146.232 304.756 147.744 301.516 149.328C298.276 150.912 295.036 152.568 291.508 154.224C285.676 156.888 282.58 149.256 287.98 147.024C294.244 144.432 302.74 140.544 310.516 138.6C318.724 136.512 329.668 136.584 336.292 143.496C344.068 151.632 341.188 161.928 332.332 169.272ZM387.628 139.608C388.42 140.328 388.852 141.48 388.636 142.92C387.484 152.064 381.004 165.672 374.092 172.08C368.548 177.192 362.5 174.384 359.332 168.192C354.796 159.264 359.62 145.872 369.268 139.176C378.124 133.056 391.3 132.048 400.372 137.52C411.532 144.216 413.332 157.464 407.068 167.76C403.684 173.304 396.628 177.768 389.5 179.64C383.164 181.296 380.932 174.024 387.124 172.584C392.596 171.36 398.14 168.264 400.516 164.52C405.628 156.456 403.684 147.024 396.556 142.488C393.748 140.688 390.724 139.824 387.628 139.608ZM381.94 139.968C378.628 140.688 375.388 142.2 372.652 144.288C365.956 149.472 362.356 159.048 365.38 164.592C366.46 166.68 368.332 167.76 370.132 166.176C375.532 161.424 380.572 149.976 381.292 142.2C381.364 141.336 381.58 140.544 381.94 139.968ZM486.484 182.016H446.38C444.292 182.016 443.356 180.648 443.356 179.28C443.356 177.768 444.436 176.256 446.38 176.256H464.452V169.2H453.58C451.492 169.2 450.484 167.832 450.484 166.464C450.484 165.024 451.564 163.512 453.58 163.512H464.452V156.456C462.436 156.456 460.492 156.384 458.62 156.312C453.58 156.096 451.132 153.288 450.988 149.328C450.916 146.376 450.844 143.136 450.844 139.896C450.844 136.656 450.916 133.416 450.988 130.536C451.132 127.296 453.22 123.984 458.692 123.768C461.572 123.624 464.596 123.624 467.764 123.624C470.86 123.624 474.1 123.624 477.268 123.768C482.092 123.912 484.9 127.008 485.044 130.464C485.188 133.704 485.26 137.088 485.26 140.472C485.26 143.352 485.188 146.376 485.044 149.256C484.828 153 481.876 156.096 477.268 156.312C475.18 156.384 473.092 156.456 471.004 156.456V163.512H482.452C484.468 163.512 485.404 164.952 485.404 166.32C485.404 167.76 484.468 169.2 482.452 169.2H471.004V176.256H486.484C488.428 176.256 489.364 177.696 489.364 179.136C489.364 180.576 488.428 182.016 486.484 182.016ZM434.284 164.088V149.832H428.812C426.796 149.832 425.86 148.392 425.86 146.952C425.86 145.368 426.94 143.784 428.812 143.784H434.284V132.768H427.732C425.716 132.768 424.78 131.328 424.78 129.888C424.78 128.304 425.86 126.72 427.732 126.72H446.956C448.828 126.72 449.764 128.232 449.764 129.744C449.764 131.256 448.828 132.768 446.956 132.768H440.62V143.784H445.66C447.532 143.784 448.468 145.296 448.468 146.808C448.468 148.32 447.532 149.832 445.66 149.832H440.62V161.928C442.492 161.208 444.292 160.416 446.02 159.624C446.596 159.336 447.1 159.264 447.676 159.264C449.404 159.264 450.7 160.632 450.7 162.144C450.7 163.152 450.052 164.304 448.468 165.024C441.7 168.12 429.82 172.8 427.156 172.8C425.068 172.8 423.988 171.144 423.988 169.488C423.988 168.12 424.78 166.752 426.436 166.32C429.1 165.6 431.692 164.88 434.284 164.088ZM471.004 137.16H478.708C478.708 135.36 478.708 133.56 478.636 131.832C478.492 128.88 476.836 128.88 471.004 128.88V137.16ZM478.78 142.416H471.004V150.984C472.516 150.984 474.1 150.984 475.54 150.912C478.636 150.768 478.78 149.76 478.78 142.416ZM464.452 137.16V128.952C463.012 128.952 461.644 128.952 460.42 129.024C457.252 129.096 457.108 130.68 457.108 137.16H464.452ZM464.452 150.984V142.416H457.108C457.108 144.288 457.18 146.232 457.252 148.104C457.396 150.984 459.556 150.984 464.452 150.984ZM524.5 136.44V124.992C524.5 122.904 526.228 121.824 527.956 121.824C529.756 121.824 531.556 122.904 531.556 124.992V136.44C536.668 136.44 541.636 136.512 545.884 136.656C550.924 136.8 554.38 140.04 554.524 144.792C554.668 149.4 554.74 155.016 554.74 160.416C554.74 165.096 554.668 169.632 554.596 173.232C554.38 179.928 550.564 182.808 543.58 183.024C538.756 183.168 533.716 183.24 528.82 183.24C523.276 183.24 517.948 183.168 513.196 182.952C505.852 182.664 502.396 180.288 502.18 173.376C502.036 169.056 501.964 164.376 501.964 159.624C501.964 154.872 502.036 149.976 502.18 145.224C502.396 139.608 506.212 136.8 511.324 136.656C514.996 136.512 519.604 136.44 524.5 136.44ZM531.484 155.88H548.044C548.044 143.496 547.828 142.776 543.004 142.704C539.548 142.56 535.516 142.56 531.484 142.56V155.88ZM548.044 162H531.484V176.904C535.372 176.904 539.26 176.832 542.644 176.76C546.676 176.688 547.684 174.888 547.828 171.864C547.972 168.84 548.044 165.456 548.044 162ZM524.572 155.88V142.56C520.54 142.56 516.724 142.632 513.772 142.704C509.956 142.776 508.876 143.928 508.732 147.168C508.66 149.832 508.516 152.856 508.516 155.88H524.572ZM524.572 176.904V162H508.516C508.516 165.672 508.66 169.128 508.732 172.08C508.876 176.904 509.812 176.904 524.572 176.904Z" fill="#E89A08"/>
<path d="M74.96 129.344L75.952 132.608C78.544 131.872 81.136 131.136 83.088 130.624C85.584 129.984 86 133.056 84.016 133.504C82.192 133.92 79.568 134.624 76.848 135.424C77.872 138.656 78.8 141.664 79.408 143.552C79.792 144.736 79.12 145.6 78.352 145.888C77.584 146.176 76.624 145.888 76.336 144.736C75.824 142.752 74.928 139.616 73.904 136.288C71.056 137.152 68.272 138.016 66.32 138.688C64.208 139.392 63.248 136.416 65.648 135.68C67.504 135.104 70.192 134.272 73.04 133.44C72.688 132.32 72.336 131.2 72.016 130.144C70.032 130.688 68.08 131.232 66.416 131.616C64.112 132.16 63.504 129.248 65.616 128.768C67.376 128.384 69.264 127.904 71.152 127.392C70.512 125.344 69.904 123.584 69.52 122.4C68.784 120.224 72.048 119.712 72.56 121.472C72.88 122.624 73.456 124.448 74.096 126.56C75.92 126.048 77.648 125.472 79.152 124.992C81.232 124.32 81.904 127.232 79.952 127.84C78.512 128.288 76.784 128.832 74.96 129.344ZM110.768 132.704L110.8 132.672C109.488 133.056 107.6 133.696 105.616 134.4C106.576 137.632 107.728 141.28 108.496 143.392C109.36 145.728 106.416 146.72 105.744 144.48C105.104 142.304 104.016 138.624 103.024 135.328C101.68 135.808 100.432 136.288 99.408 136.672C97.52 137.376 96.72 134.688 98.512 134.08C99.632 133.696 100.88 133.248 102.256 132.768C101.872 131.52 101.552 130.464 101.296 129.664C100.944 128.608 101.488 127.904 102.224 127.744C102.896 127.584 103.728 127.968 103.984 128.832C104.208 129.568 104.528 130.624 104.88 131.872C106.992 131.168 109.2 130.432 111.344 129.76C112.944 129.28 114.928 130.144 114.256 132.128C113.52 134.304 112.08 136.192 110.48 137.6C108.656 139.2 106.864 136.864 108.496 135.52C109.392 134.816 110.288 133.728 110.768 132.704ZM135.44 133.6C135.408 134.688 134.576 135.264 133.744 135.264C132.912 135.264 132.016 134.688 132.08 133.632C132.272 130.464 132.176 125.44 132.016 122.4C131.92 120.416 135.216 120.256 135.344 122.272C135.504 125.152 135.504 130.624 135.44 133.6ZM136.016 145.632C133.392 147.136 131.984 144.128 134 143.008C139.664 139.872 140.944 135.584 140.944 130.816C140.944 128.32 140.784 124.352 140.784 121.824C140.784 119.744 144.24 119.872 144.208 121.824C144.144 124.544 144.304 128.128 144.304 130.784C144.304 136.288 142.64 141.824 136.016 145.632ZM169.671 136.032C166.855 139.168 163.399 141.76 159.015 143.424C156.679 144.288 155.591 141.152 157.991 140.32C163.815 138.304 168.871 133.184 171.399 128.416C171.687 127.872 171.559 127.36 170.855 127.36C168.839 127.328 164.423 127.488 161.607 127.552C159.687 127.616 159.559 124.544 161.607 124.448C163.943 124.352 168.647 124.288 171.879 124.288C174.759 124.288 176.391 126.112 175.143 128.288C174.055 130.176 172.903 132 171.591 133.728C174.247 135.328 178.311 138.016 179.783 140.064C181.063 141.856 178.663 144.352 177.159 142.464C175.591 140.512 172.295 137.6 169.671 136.032ZM214.663 124.064C214.663 125.92 213.127 127.424 211.271 127.424C209.415 127.424 207.911 125.92 207.911 124.064C207.911 122.208 209.415 120.672 211.271 120.672C213.127 120.672 214.663 122.208 214.663 124.064ZM196.455 134.112C196.423 135.52 196.391 136.8 196.359 137.696C196.295 139.264 196.999 140.032 198.919 140.288C200.775 140.544 205.959 140.224 208.231 139.424C210.663 138.592 212.039 142.048 208.903 142.88C206.023 143.648 201.127 143.744 197.767 143.328C194.951 142.976 193.255 141.152 193.223 138.528C193.191 135.328 193.415 128.192 193.447 124.384C193.447 122.144 196.743 122.592 196.711 124.48C196.679 126.208 196.615 128.608 196.551 130.976C199.079 130.496 204.231 129.056 206.631 128C208.967 126.976 210.567 130.24 207.815 131.2C204.775 132.224 200.103 133.696 196.455 134.112ZM212.935 124.064C212.935 123.168 212.167 122.4 211.271 122.4C210.375 122.4 209.671 123.168 209.671 124.064C209.671 124.96 210.375 125.664 211.271 125.664C212.167 125.664 212.935 124.96 212.935 124.064ZM75.792 184.096C72.944 187.744 69.424 190.976 64.816 193.504C62.608 194.688 61.008 191.744 63.088 190.72C66.96 188.8 70.352 185.696 73.136 182.24C71.792 181.408 70.416 180.704 69.296 180.32C67.568 179.712 68.784 176.864 71.024 177.728C72.144 178.144 73.584 178.816 75.056 179.648C76.752 177.152 78.096 174.592 79.088 172.16C80.208 169.472 83.472 171.2 82.448 173.248C81.072 176 79.568 178.72 77.808 181.344C79.152 182.272 80.304 183.296 81.008 184.256C81.712 185.184 81.296 186.24 80.656 186.784C80.016 187.328 79.056 187.392 78.384 186.528C77.808 185.792 76.88 184.928 75.792 184.096ZM100.848 192.736C98.288 194.08 96.976 190.912 98.992 189.92C106.384 186.304 110.544 180.128 112.4 172.736C112.976 170.432 116.592 171.488 115.824 173.952C113.392 181.696 109.648 188.096 100.848 192.736ZM102.416 180.832C101.552 181.184 100.432 180.864 99.984 179.584C99.376 177.92 98.32 175.84 97.168 174.592C95.792 173.088 98.416 171.072 100.08 172.992C101.328 174.432 102.576 176.544 103.376 178.368C103.856 179.52 103.28 180.512 102.416 180.832ZM137.534 181.28C138.302 183.168 135.486 184.32 134.814 182.272C134.494 181.312 133.918 180.288 133.31 179.584C132.158 178.304 134.302 176.544 135.614 178.112C136.35 179.008 137.054 180.16 137.534 181.28ZM132.094 193.312C131.006 193.792 130.206 193.408 129.886 192.704C129.598 192.032 129.79 191.168 130.686 190.784C136.03 188.544 139.486 184.032 140.766 178.688C141.278 176.608 144.382 177.568 143.774 179.52C141.95 185.568 138.398 190.464 132.094 193.312ZM133.118 182.624C134.142 184.352 131.486 185.92 130.526 184.032C130.078 183.136 129.406 182.176 128.702 181.568C127.39 180.448 129.246 178.432 130.75 179.776C131.614 180.544 132.51 181.568 133.118 182.624ZM177.534 171.552C177.054 171.072 175.358 170.08 174.686 169.856C172.958 169.312 174.078 167.232 175.646 167.648C176.542 167.904 178.27 168.608 179.07 169.312C180.478 170.56 178.718 172.736 177.534 171.552ZM174.654 174.624C174.206 174.144 172.51 173.088 171.838 172.832C170.142 172.224 171.326 170.176 172.894 170.656C173.79 170.944 175.486 171.712 176.254 172.448C177.598 173.76 175.806 175.84 174.654 174.624ZM167.166 180C167.134 184.416 167.134 189.024 167.198 191.616C167.262 194.208 163.614 194.304 163.742 191.744C163.966 186.56 164.062 174.016 163.934 169.408C163.87 167.232 167.326 167.264 167.262 169.44C167.23 171.008 167.198 173.792 167.166 176.928C167.326 176.928 167.518 176.928 167.71 176.96C169.502 177.248 173.662 178.272 175.39 179.744C177.054 181.152 175.23 183.936 173.406 182.592C172.03 181.568 168.862 180.32 167.166 180Z" fill="black"/>
</svg>
