<svg width="532" height="125" viewBox="0 0 532 125" fill="none" xmlns="http://www.w3.org/2000/svg">
<path d="M249.396 11.56C248.948 11.048 247.284 9.928 246.612 9.672C244.884 9 246.132 6.952 247.7 7.464C248.596 7.752 250.324 8.616 251.092 9.384C252.436 10.728 250.548 12.84 249.396 11.56ZM246.1 14.472C245.652 13.96 244.052 12.744 243.38 12.456C241.684 11.72 242.964 9.736 244.532 10.312C245.428 10.632 247.156 11.528 247.892 12.328C249.204 13.736 247.22 15.784 246.1 14.472ZM243.028 25.672C233.364 25.64 230.036 16.776 233.524 10.344C233.844 9.736 234.132 9.224 234.548 8.68C235.06 8.008 234.9 8.04 234.292 8.232C231.892 9 232.436 9 230.26 9.832C229.236 10.216 228.34 10.536 227.38 10.792C224.564 11.56 223.7 7.88 226.26 7.336C226.932 7.176 228.788 6.824 229.812 6.568C231.38 6.184 234.196 5.544 237.46 4.616C240.756 3.688 243.348 2.92 246.164 2.728C248.148 2.6 248.692 4.168 248.34 5.192C248.148 5.736 247.444 6.376 245.204 6.248C243.572 6.152 241.556 6.76 240.468 7.144C238.676 7.784 237.044 9.704 236.34 10.888C233.524 15.592 235.668 22.312 242.836 22.056C246.196 21.928 246.42 25.704 243.028 25.672ZM276.788 22.44C275.572 24.968 271.668 27.112 268.18 25.128C265.396 23.528 265.332 19.88 268.66 18.408C270.388 17.64 272.34 17.608 274.292 18.024C274.292 17.512 274.228 17.032 274.196 16.424C274.1 15.112 274.036 12.648 273.94 10.12C272.212 10.376 270.516 10.504 268.692 10.344C266.484 10.152 266.868 6.888 269.332 7.304C270.74 7.56 272.276 7.464 273.844 7.208C273.812 5.416 273.78 3.784 273.812 2.792C273.876 0.711998 277.012 0.999998 276.884 2.728C276.82 3.624 276.788 4.968 276.788 6.536C277.332 6.376 277.908 6.248 278.42 6.088C280.5 5.448 281.876 8.36 279.124 9.032C278.356 9.224 277.588 9.416 276.82 9.576C276.852 12.072 276.948 14.568 277.012 16.136C277.044 16.936 277.172 17.992 277.204 19.016C278.548 19.656 279.828 20.456 280.82 21.352C282.644 23.016 280.372 25.8 278.772 24.104C278.196 23.528 277.524 22.952 276.788 22.44ZM261.044 25.544C260.212 26.312 258.772 26.184 258.228 24.456C257.204 21.224 257.3 17.096 257.716 13.224C258.132 9.352 258.836 5.768 258.996 3.688C259.188 1.096 262.548 1.736 262.228 3.752C262.004 5.192 261.46 7.976 261.044 10.696C260.628 13.416 260.308 16.104 260.436 17.384C260.5 17.96 260.532 18.056 260.852 17.416C260.948 17.224 261.172 16.648 261.236 16.488C261.972 14.952 264.404 16.04 263.252 18.44C262.836 19.304 262.516 20.168 262.26 20.968C262.004 21.768 261.812 22.472 261.684 22.984C261.428 23.88 261.844 24.776 261.044 25.544ZM274.036 20.936H274.004C272.404 20.328 270.804 20.168 269.588 20.744C268.82 21.096 268.628 22.184 269.396 22.632C270.932 23.496 273.524 22.824 274.036 20.936ZM313.492 12.776C313.492 14.248 312.148 15.112 311.124 15.112C310.74 15.112 308.852 15.048 308.852 12.808C308.852 11.208 310.26 10.568 311.156 10.568C312.276 10.568 313.492 11.4 313.492 12.776ZM302.804 12.776C302.804 14.152 301.652 15.112 300.468 15.112C300.084 15.112 298.196 15.048 298.196 12.808C298.196 11.208 299.604 10.568 300.5 10.568C301.844 10.568 302.804 11.656 302.804 12.776ZM292.148 12.776C292.148 13.512 291.54 15.112 289.812 15.112C288.372 15.112 287.508 14.12 287.508 12.808C287.508 11.208 288.916 10.568 289.844 10.568C291.188 10.568 292.148 11.656 292.148 12.776ZM206.091 50.056C207.211 51.496 205.195 53.224 204.267 51.88C203.883 51.336 202.443 50.12 201.835 49.8C200.267 48.968 201.675 47.176 203.115 47.848C203.947 48.232 205.451 49.256 206.091 50.056ZM202.891 52.552C203.979 54.024 201.899 55.72 201.003 54.344C200.651 53.8 199.243 52.488 198.635 52.136C197.099 51.272 198.571 49.512 199.979 50.248C200.779 50.664 202.283 51.72 202.891 52.552ZM188.907 60.392C188.075 57.864 186.539 54.728 185.067 52.936C183.403 50.888 186.539 49.16 187.819 50.984C189.195 52.936 190.635 55.784 191.563 58.44C193.291 57.224 195.115 56.072 197.195 54.92C199.371 53.704 201.035 56.776 198.571 58.024C195.307 59.688 192.011 61.544 189.483 63.688C186.315 66.376 186.219 68.776 188.715 69.992C190.955 71.112 195.531 70.28 197.451 69.576C200.139 68.552 201.099 72.232 198.251 73.032C195.723 73.736 190.379 74.376 187.211 72.776C182.603 70.44 182.795 65.256 187.979 61.128C188.299 60.872 188.587 60.616 188.907 60.392ZM224.995 52.008C222.722 51.592 220.419 50.632 219.075 49.864C217.251 48.84 218.595 46.344 220.835 47.368C222.211 47.976 224.035 48.488 225.795 48.776C228.419 49.224 227.363 52.456 224.995 52.008ZM222.083 75.144C219.971 76.712 217.859 74.088 219.747 72.744C225.475 68.712 227.235 63.048 225.923 59.336C225.027 56.84 222.627 56.712 220.419 58.024C219.779 58.408 218.019 59.304 217.315 59.496C214.786 60.136 213.987 57 216.323 56.168C217.155 55.88 218.179 55.528 219.075 55.144C222.339 53.704 227.043 53.832 228.739 57.512C231.203 62.856 228.483 70.44 222.083 75.144ZM256.867 52.264C257.443 54.216 254.371 55.304 253.795 53.256C253.667 52.744 253.379 52.328 253.091 51.976C252.835 51.656 252.579 51.368 252.291 51.08C251.235 49.992 253.379 48.328 254.979 49.64C255.523 50.088 256.515 51.08 256.867 52.264ZM252.003 59.784C252.803 61.224 253.699 62.824 254.562 64.392C256.194 67.368 257.731 70.312 258.339 72.168C258.819 73.608 258.211 74.632 257.378 74.92C256.547 75.208 255.458 74.76 255.107 73.352C254.627 71.432 253.251 68.52 251.715 65.608C250.947 64.136 250.147 62.664 249.411 61.32C247.939 62.152 246.435 62.856 244.867 63.336C242.851 63.944 241.507 60.968 244.099 60.2C245.411 59.816 246.659 59.272 247.939 58.632C247.779 58.312 247.651 58.024 247.491 57.736C247.203 57.192 246.915 56.584 246.627 55.976C246.339 55.368 246.115 54.792 245.955 54.216C245.475 52.328 248.131 51.272 248.963 53.32C249.379 54.376 249.699 55.432 250.211 56.456C250.339 56.68 250.467 56.936 250.595 57.192C252.707 56.008 254.787 54.728 256.963 53.896C260.131 52.68 263.299 52.264 265.763 53.8C268.483 55.528 268.579 58.632 266.787 61.192C264.227 64.808 258.562 65.48 255.139 63.464C254.275 62.952 254.243 61.928 254.691 61.224C255.139 60.52 256.067 60.136 257.059 60.808C258.947 62.12 262.499 61.672 264.067 59.528C264.899 58.408 264.867 57.064 263.747 56.232C262.563 55.368 260.515 55.56 257.859 56.616C255.779 57.448 253.891 58.632 252.003 59.784ZM291.44 70.344C289.52 71.944 286.992 73.096 283.504 73.672C280.976 74.088 280.72 71.016 282.928 70.696C285.84 70.28 288.048 69.416 289.648 68.008C291.568 66.312 291.664 64.552 290.704 63.464C289.328 61.896 286.8 61.928 284.72 62.536C282.416 63.24 280.336 64.52 278.16 65.512C275.952 66.536 274.704 63.56 276.784 62.696C278.832 61.864 281.616 60.584 284.144 59.944C286.832 59.272 290.512 59.24 292.752 61.576C295.44 64.36 294.352 67.912 291.44 70.344ZM322.063 73.672C312.399 73.64 309.071 64.776 312.559 58.344C312.879 57.736 313.167 57.224 313.583 56.68C314.095 56.008 313.935 56.04 313.327 56.232C310.927 57 311.471 57 309.295 57.832C308.271 58.216 307.375 58.536 306.415 58.792C303.599 59.56 302.767 55.88 305.327 55.336C305.999 55.176 307.855 54.824 308.879 54.568C310.447 54.184 313.231 53.544 316.495 52.616C319.791 51.688 322.415 50.92 325.231 50.728C327.215 50.6 327.759 52.168 327.407 53.192C327.215 53.736 326.511 54.376 324.271 54.248C322.639 54.152 320.591 54.76 319.503 55.144C317.711 55.784 316.111 57.704 315.407 58.888C312.591 63.592 314.735 70.312 321.903 70.056C325.263 69.928 325.455 73.704 322.063 73.672ZM337.181 75.368C336.733 75.368 336.285 75.144 335.965 74.664C335.165 73.48 333.405 72.008 332.029 71.304C331.421 70.984 331.165 70.504 331.165 70.024C331.165 69.288 331.741 68.616 332.669 68.616C333.789 68.616 338.909 71.432 338.909 73.608C338.909 74.632 338.045 75.368 337.181 75.368ZM15.6009 100.264C16.1769 102.216 13.1049 103.304 12.5289 101.256C12.4009 100.744 12.1129 100.328 11.8249 99.976C11.5689 99.656 11.3129 99.368 11.0249 99.08C9.96888 97.992 12.1129 96.328 13.7129 97.64C14.2569 98.088 15.2489 99.08 15.6009 100.264ZM10.7369 107.784C11.5369 109.224 12.4329 110.824 13.2969 112.392C14.9289 115.368 16.4649 118.312 17.0729 120.168C17.5529 121.608 16.9449 122.632 16.1129 122.92C15.2809 123.208 14.1929 122.76 13.8409 121.352C13.3609 119.432 11.9849 116.52 10.4489 113.608C9.68088 112.136 8.88088 110.664 8.14488 109.32C6.67288 110.152 5.16888 110.856 3.60088 111.336C1.58488 111.944 0.240875 108.968 2.83288 108.2C4.14488 107.816 5.39288 107.272 6.67288 106.632C6.51288 106.312 6.38488 106.024 6.22488 105.736C5.93688 105.192 5.64888 104.584 5.36088 103.976C5.07288 103.368 4.84888 102.792 4.68888 102.216C4.20888 100.328 6.86488 99.272 7.69688 101.32C8.11288 102.376 8.43288 103.432 8.94488 104.456C9.07288 104.68 9.20088 104.936 9.32888 105.192C11.4409 104.008 13.5209 102.728 15.6969 101.896C18.8649 100.68 22.0329 100.264 24.4969 101.8C27.2169 103.528 27.3129 106.632 25.5209 109.192C22.9609 112.808 17.2969 113.48 13.8729 111.464C13.0089 110.952 12.9769 109.928 13.4249 109.224C13.8729 108.52 14.8009 108.136 15.7929 108.808C17.6809 110.12 21.2329 109.672 22.8009 107.528C23.6329 106.408 23.6009 105.064 22.4809 104.232C21.2969 103.368 19.2489 103.56 16.5929 104.616C14.5129 105.448 12.6249 106.632 10.7369 107.784ZM45.0729 122.664C42.4809 124.584 40.1449 121.928 42.8329 120.168C47.7929 116.936 50.6089 110.024 48.4009 103.336C47.3449 100.136 44.3049 101.32 43.3769 103.304C42.4489 105.256 42.3849 106.568 42.5449 109.352C42.7049 112.456 39.2489 112.424 39.0569 110.12C38.8649 107.592 39.4089 104.52 39.7929 102.728C40.1449 101.096 40.7529 98.984 41.0089 97.032C41.2649 95.016 44.3689 95.4 44.2089 97.32C44.1129 98.408 43.7289 99.528 43.3769 100.296C42.9609 101.16 43.2809 100.744 43.6009 100.328C45.9369 97.32 50.0969 98.632 51.4089 102.248C53.7449 108.712 52.5929 117.128 45.0729 122.664ZM86.2481 108.072C84.4561 107.464 81.5441 107.112 79.8481 107.752C78.1841 108.36 77.1921 105.736 79.3041 105C80.9361 104.424 83.8481 104.04 86.9841 105.16C89.1281 105.928 88.2641 108.744 86.2481 108.072ZM86.2481 121.032C81.6081 121.96 77.6401 120.488 76.2321 118.92C74.8561 117.384 76.8401 114.856 78.5041 116.552C80.1361 118.216 82.0881 118.056 85.8321 117.736C88.1681 117.544 88.3601 120.616 86.2481 121.032ZM74.3121 104.264C72.2961 111.272 70.0241 116.808 68.4561 120.36C67.4961 122.504 64.1041 121.576 65.4481 118.856C66.8241 116.04 69.0961 111.176 71.0481 104.968C69.3521 105.16 67.7201 105.096 66.3761 104.52C64.7441 103.816 65.0641 100.904 67.4641 101.768C68.8081 102.248 70.3761 102.248 71.8801 101.96C72.0721 100.776 71.9441 99.912 71.8481 98.504C71.7201 96.68 74.7281 96.584 75.0481 98.344C75.1761 99.144 75.1761 100.008 75.0801 100.904C75.5281 100.68 75.9121 100.456 76.2961 100.232C77.9601 99.144 79.9441 101.8 77.5441 102.984C76.6481 103.432 75.4961 103.912 74.3121 104.264ZM121.224 111.176C121.48 113.512 118.312 114.152 117.864 111.944C117.352 109.384 116.04 106.92 114.312 105.736C112.776 104.68 114.504 102.312 116.424 103.752C118.696 105.448 120.904 108.456 121.224 111.176ZM107.24 116.456C105.192 119.784 102.344 119.496 100.552 117.576C98.2481 115.08 97.1921 111.368 96.9361 107.336C96.8081 105.512 96.7441 104.936 96.7761 103.784C96.8401 101.768 99.9441 101.352 100.04 103.752C100.104 105 99.9761 105.064 100.04 106.536C100.168 109.896 100.776 113.064 102.568 114.792C103.4 115.592 103.816 115.688 104.52 114.728C104.904 114.184 105.352 113.352 105.576 112.84C106.44 110.984 109.096 112.328 108.488 113.992C108.168 114.888 107.592 115.88 107.24 116.456ZM144.904 104.616C141.928 103.976 138.536 103.912 135.4 104.52C132.872 105 132.456 101.608 135.304 101.192C138.344 100.744 142.856 100.712 145.512 101.288C148.2 101.864 147.496 105.16 144.904 104.616ZM148.04 120.2C141.704 122.184 134.024 120.68 131.816 117.576C130.664 115.944 132.744 113.736 134.472 115.496C137.192 118.28 142.376 118.056 147.208 116.68C149.864 115.944 150.632 119.4 148.04 120.2ZM169.864 108.392C169.032 105.864 167.496 102.728 166.024 100.936C164.36 98.888 167.496 97.16 168.776 98.984C170.152 100.936 171.592 103.784 172.52 106.44C174.248 105.224 176.072 104.072 178.152 102.92C180.328 101.704 181.992 104.776 179.528 106.024C176.264 107.688 172.968 109.544 170.44 111.688C167.272 114.376 167.176 116.776 169.672 117.992C171.912 119.112 176.488 118.28 178.408 117.576C181.096 116.552 182.056 120.232 179.208 121.032C176.68 121.736 171.336 122.376 168.168 120.776C163.56 118.44 163.752 113.256 168.936 109.128C169.256 108.872 169.544 108.616 169.864 108.392ZM201.864 108.392C201.032 105.864 199.496 102.728 198.024 100.936C196.36 98.888 199.496 97.16 200.776 98.984C202.152 100.936 203.592 103.784 204.52 106.44C206.248 105.224 208.072 104.072 210.152 102.92C212.328 101.704 213.992 104.776 211.528 106.024C208.264 107.688 204.968 109.544 202.44 111.688C199.272 114.376 199.176 116.776 201.672 117.992C203.912 119.112 208.488 118.28 210.408 117.576C213.096 116.552 214.056 120.232 211.208 121.032C208.68 121.736 203.336 122.376 200.168 120.776C195.56 118.44 195.752 113.256 200.936 109.128C201.256 108.872 201.544 108.616 201.864 108.392ZM245.32 118.6L245.16 118.44C244.872 118.152 244.744 117.832 244.744 117.512C244.744 116.808 245.448 116.232 246.216 116.232C246.536 116.232 246.888 116.328 247.176 116.584C247.368 116.744 250.952 119.848 250.952 121.448C250.952 122.376 250.184 123.08 249.416 123.08C248.936 123.08 248.456 122.824 248.104 122.216C247.848 121.736 247.496 121.224 247.176 120.776C242.856 121.864 234.632 122.76 233.576 122.76C232.616 122.76 232.136 121.96 232.136 121.192C232.136 120.456 232.552 119.752 233.416 119.752C235.272 119.72 237.672 119.56 239.976 119.304V115.656C239.08 115.624 238.216 115.624 237.448 115.592C235.528 115.496 234.504 114.568 234.408 113.032C234.376 112.488 234.376 111.72 234.376 110.952C234.376 107.912 234.408 106.344 237.576 106.28C238.28 106.28 239.08 106.248 239.976 106.248V104.584C239.976 104.072 240.2 103.72 240.552 103.496C239.784 103.592 236.616 103.976 234.44 103.976C233.64 103.976 233.256 103.24 233.256 102.536C233.256 101.832 233.64 101.16 234.408 101.16C235.272 101.16 236.168 101.128 237 101.096C237.64 99.752 238.344 97.8 238.728 96.104C238.888 95.336 239.496 95.016 240.104 95.016C240.968 95.016 241.864 95.624 241.864 96.52C241.864 97.544 240.424 100.264 240.04 100.904C241.672 100.776 243.24 100.584 244.712 100.36C244.456 100.104 244.2 99.88 243.912 99.656C243.528 99.336 243.368 99.016 243.368 98.696C243.368 98.056 244.04 97.512 244.808 97.512C246.216 97.512 250.088 101.288 250.088 102.696C250.088 103.592 249.288 104.328 248.456 104.328C248.008 104.328 247.528 104.072 247.208 103.528C247.016 103.176 246.76 102.824 246.536 102.504C245.128 102.792 243.56 103.08 241.928 103.304C242.472 103.464 242.952 103.88 242.952 104.584V106.248C243.912 106.248 244.84 106.248 245.64 106.28C247.272 106.312 248.456 107.56 248.552 108.744C248.584 109.256 248.616 110.376 248.616 111.4C248.616 112.04 248.616 112.616 248.584 113.032C248.488 114.376 247.432 115.56 245.384 115.656C244.648 115.688 243.816 115.688 242.952 115.688V118.952C243.816 118.824 244.616 118.728 245.32 118.6ZM228.552 98.504H224.936C224.04 98.504 223.592 97.832 223.592 97.16C223.592 96.488 224.04 95.752 225 95.752C225.288 95.752 225.576 95.752 225.864 95.752C227.048 95.752 228.2 95.784 229.256 95.784C231.336 95.784 232.456 96.904 232.52 98.856C232.552 99.304 232.552 99.944 232.552 100.552C232.552 103.304 232.52 105.064 229.256 105.064C228.712 105.064 227.944 105.032 227.656 105.032C227.016 105.032 226.664 105.192 226.568 105.704C226.312 106.984 226.248 107.816 226.248 107.944C226.248 108.456 226.568 108.552 226.824 108.552C227.784 108.52 228.744 108.52 229.48 108.52C232.488 108.52 232.712 110.728 232.712 112.04C232.712 116.552 231.752 122.312 225.832 122.312C224.04 122.312 222.312 121.96 222.312 120.392C222.312 119.624 222.792 118.92 223.72 118.92C223.944 118.92 224.2 118.952 224.488 119.048C224.968 119.208 225.448 119.304 225.896 119.304C227.496 119.304 228.712 118.248 229.192 116.552C229.576 115.176 229.736 113.384 229.736 112.296C229.736 111.528 229.608 111.112 228.456 111.112C227.656 111.112 226.6 111.176 225.864 111.176C223.88 111.176 223.112 110.44 223.112 109.224C223.112 108.648 223.624 105.8 223.848 104.744C224.264 102.952 225.032 102.44 226.76 102.44C226.824 102.44 226.856 102.44 226.92 102.44C227.368 102.44 228.104 102.504 228.552 102.504C229.512 102.504 229.64 102.056 229.64 100.68C229.64 98.952 229.64 98.504 228.552 98.504ZM242.952 108.68V113.16C245.64 113.16 245.736 113.064 245.736 111.112C245.736 110.504 245.736 109.864 245.704 109.576C245.64 108.68 245 108.68 242.952 108.68ZM239.976 113.16V108.68C239.368 108.68 238.856 108.712 238.408 108.712C237.192 108.776 237.128 109.128 237.128 111.208C237.128 113.128 237.352 113.16 239.976 113.16ZM267.272 109.128H267.432C269.832 109.224 272.2 109.768 274.376 110.536C274.568 109.224 274.44 108.04 273.928 107.176C273.032 105.672 275.912 104.456 276.968 106.44C277.672 107.72 277.768 109.64 277.288 111.752C278.952 112.552 280.456 113.512 281.704 114.472C283.72 116.04 281.544 118.984 279.72 117.32C278.664 116.36 277.512 115.496 276.232 114.728C275.048 117.128 273.032 119.528 270.152 121.224C267.912 122.536 266.312 120.04 268.392 118.76C270.792 117.288 272.456 115.304 273.448 113.352C271.08 112.36 268.552 111.784 265.992 111.752C264.808 114.216 263.72 116.2 261.896 117.608C259.976 119.112 257.16 119.304 255.784 117.608C254.152 115.56 255.336 112.232 259.016 110.6C260.712 109.864 262.504 109.416 264.264 109.224C265.384 106.824 266.856 103.912 267.752 101.896C267.944 101.448 268.04 101.192 267.56 101.32C266.312 101.64 265.096 102.056 263.784 102.088C261.672 102.152 261.768 99.176 263.688 99.048C264.968 98.984 266.92 98.504 268.296 98.248C271.208 97.672 272.488 99.56 271.048 101.896C269.704 104.136 268.424 106.728 267.272 109.128ZM262.888 112.008C262.056 112.136 261.096 112.392 259.912 112.968C259.08 113.384 257.576 114.728 258.12 115.528C258.504 116.072 259.656 115.88 260.232 115.432C261.288 114.632 262.152 113.32 262.888 112.008ZM300.808 99.24L300.744 99.368C301.256 99.176 301.736 98.984 302.088 98.792C303.848 97.736 305.576 100.392 303.208 101.576C302.408 101.96 301.032 102.344 299.688 102.632C299.272 103.656 298.728 104.808 298.152 105.864C300.36 105.48 302.472 106.28 303.528 108.648C304.84 107.976 306.184 107.304 307.432 106.76C308.2 106.44 309.064 106.056 309.928 105.576C312.328 104.232 313.768 107.432 311.72 108.456C310.696 108.968 309.96 109.128 308.264 109.768C306.92 110.28 305.48 110.92 304.2 111.528C304.296 112.584 304.328 113.896 304.264 115.048C304.2 116.328 303.368 117 302.568 117.032C301.768 117.064 301.032 116.456 301.128 115.208C301.16 114.536 301.192 113.8 301.192 113.128C300.904 113.288 300.616 113.448 300.36 113.608C296.392 116.168 296.872 118.088 298.664 118.984C300.36 119.848 303.496 119.208 305 118.728C307.816 117.864 308.712 121.32 305.768 122.088C303.88 122.568 299.528 123.048 297.032 121.64C292.712 119.208 293.48 114.888 299.272 111.08C299.72 110.792 300.232 110.44 300.84 110.088C299.976 107.4 297.512 107.72 295.432 110.12C295.4 110.152 295.336 110.216 295.304 110.248C295.016 110.6 294.792 110.888 294.568 111.08C292.808 112.648 290.472 110.824 292.392 109.096C293.224 108.328 294.312 107.176 294.984 106.088C295.528 105.192 296.04 104.232 296.488 103.24C294.76 103.496 293.544 103.4 292.52 102.888C290.216 101.736 291.784 98.728 294.024 100.232C294.632 100.648 295.912 100.488 297.032 100.296C297.16 100.264 297.352 100.264 297.512 100.232C297.736 99.304 297.8 98.664 297.864 97.544C297.992 95.624 301 95.816 301.064 97.384C301.096 98.024 300.968 98.632 300.808 99.24ZM332.84 113.928C330.856 113.928 328.808 113.896 326.952 113.864C324.648 113.8 323.272 112.488 323.208 110.664C323.144 109.256 323.112 106.952 323.112 104.712C323.112 102.44 323.144 100.232 323.208 98.984C323.272 97.48 324.232 95.944 326.728 95.848C328.2 95.784 330.12 95.784 332.104 95.784C334.056 95.784 336.072 95.784 337.704 95.848C339.624 95.912 340.968 97.352 341.032 98.76C341.096 100.168 341.128 102.216 341.128 104.328C341.128 106.664 341.096 109.032 341.032 110.6C340.968 112.328 339.624 113.8 337.544 113.864C337 113.864 336.456 113.928 335.912 113.928C335.88 115.208 335.848 116.712 335.848 117.736C335.848 119.496 336.232 119.912 338.984 119.912C341.448 119.912 342.984 119.528 342.984 116.648C342.984 115.624 343.72 115.144 344.488 115.144C345.032 115.144 346.184 115.4 346.184 116.872C346.184 122.376 342.472 122.792 338.824 122.792C335.592 122.792 332.808 122.472 332.808 118.92C332.808 118.056 332.808 115.656 332.84 113.928ZM330.472 116.616C327.624 122.632 319.592 123.272 319.592 123.272C318.568 123.272 317.96 122.504 317.96 121.768C317.96 121.096 318.408 120.456 319.4 120.328C323.56 119.752 326.216 118.152 327.496 115.432C327.816 114.728 328.392 114.472 328.936 114.472C329.768 114.472 330.632 115.144 330.632 115.976C330.632 116.2 330.568 116.392 330.472 116.616ZM326.056 101.128H338.12C338.12 100.648 338.056 100.2 338.056 99.848C338.024 99.016 337.608 98.536 336.552 98.472C335.496 98.44 334.088 98.408 332.584 98.408C330.792 98.408 328.936 98.44 327.592 98.472C326.6 98.504 326.12 99.208 326.088 99.88C326.088 100.232 326.056 100.648 326.056 101.128ZM338.152 106.088V103.592H326.024V106.088H338.152ZM338.12 108.552H326.056C326.056 109.032 326.088 109.448 326.088 109.832C326.12 110.856 326.696 111.208 327.624 111.24C329.096 111.304 330.696 111.336 332.328 111.336C333.768 111.336 335.208 111.304 336.584 111.24C338.12 111.176 338.12 109.992 338.12 108.552ZM373.288 116.232C370.696 118.376 367.24 119.944 362.504 120.744C359.528 121.224 359.304 117.704 361.864 117.352C365.896 116.808 369 115.624 371.272 113.608C373.992 111.208 374.184 108.584 372.712 106.888C370.664 104.552 367.048 104.616 364.168 105.48C362.504 105.992 361.032 106.664 359.592 107.368C358.152 108.072 356.712 108.808 355.144 109.544C352.552 110.728 351.176 107.336 353.576 106.344C356.36 105.192 360.136 103.464 363.592 102.6C367.24 101.672 372.104 101.704 375.048 104.776C378.504 108.392 377.224 112.968 373.288 116.232ZM404.776 101.928L404.744 102.696C405.448 102.536 406.088 102.408 406.632 102.248C408.68 101.672 409.928 104.456 407.208 105.032C406.376 105.224 405.544 105.416 404.68 105.576C404.68 106.504 404.744 107.464 404.808 108.744C405.096 115.144 403.432 119.784 398.44 123.304C396.584 124.616 394.568 122.12 396.552 120.84C400.648 118.184 401.928 114.28 401.8 108.808C401.768 107.816 401.736 106.92 401.704 106.056C399.816 106.312 397.992 106.44 396.328 106.28C394.184 106.088 394.376 102.984 396.84 103.368C398.12 103.56 399.88 103.432 401.672 103.208C401.672 102.92 401.672 102.664 401.672 102.376C401.704 100.424 401.448 99.784 401.32 98.6C401.064 96.232 404.232 96.36 404.616 98.12C404.84 99.208 404.84 100.296 404.776 101.928ZM391.4 119.144C390.76 119.944 389.256 120.2 388.552 118.888C385.672 113.352 387.144 107.272 387.496 103.336C387.656 101.512 387.848 100.488 387.912 99.112C388.008 97.128 391.016 97.16 391.016 99.176C391.016 100.168 390.728 101.832 390.504 103.464C390.12 106.152 389.192 108.904 389.672 112.072C389.768 112.616 389.96 112.84 390.216 112.168C390.376 111.784 390.728 111.144 390.888 110.76C391.752 108.936 393.896 110.216 393.256 111.688C392.232 114.024 391.72 115.912 391.656 117.288C391.624 117.64 391.848 118.568 391.4 119.144ZM430.583 118.632C431.191 118.504 431.863 118.12 432.439 117.608C434.775 115.528 434.679 112.488 432.855 111.272C431.191 110.152 427.735 109.928 424.503 111.816C423.223 112.552 422.551 113.128 421.815 114.216C420.663 115.912 417.463 114.024 419.447 112.072C422.967 108.584 425.559 106.12 429.111 101.736C429.463 101.288 429.143 101.416 428.887 101.544C427.991 102.024 425.879 102.664 423.511 103.176C420.983 103.72 420.503 100.552 422.679 100.296C424.823 100.04 427.895 99.272 429.719 98.728C432.279 97.992 434.391 100.264 432.791 102.056C431.767 103.208 430.487 104.456 429.207 105.64C427.927 106.824 426.647 107.976 425.495 109.096C428.311 107.592 432.119 107.592 434.487 109C439.095 111.752 437.591 117.384 434.231 119.816C431.063 122.088 426.071 122.216 423.639 120.616C420.247 118.408 421.751 114.44 425.527 114.312C428.087 114.216 430.487 115.752 430.583 118.632ZM427.863 119.112C427.895 117.64 427.031 116.52 425.623 116.648C424.215 116.776 424.151 118.088 425.175 118.632C425.911 119.016 426.967 119.144 427.863 119.112ZM461.239 103.048C461.591 103.368 461.783 103.88 461.687 104.52C461.175 108.584 458.295 114.632 455.223 117.48C452.759 119.752 450.071 118.504 448.663 115.752C446.647 111.784 448.791 105.832 453.079 102.856C457.015 100.136 462.871 99.688 466.903 102.12C471.863 105.096 472.663 110.984 469.879 115.56C468.375 118.024 465.239 120.008 462.071 120.84C459.255 121.576 458.263 118.344 461.015 117.704C463.447 117.16 465.911 115.784 466.967 114.12C469.239 110.536 468.375 106.344 465.207 104.328C463.959 103.528 462.615 103.144 461.239 103.048ZM458.711 103.208C457.239 103.528 455.799 104.2 454.583 105.128C451.607 107.432 450.007 111.688 451.351 114.152C451.831 115.08 452.663 115.56 453.463 114.856C455.863 112.744 458.103 107.656 458.423 104.2C458.455 103.816 458.551 103.464 458.711 103.208ZM505.815 109.832C506.615 111.944 503.735 113.352 502.871 111.368C502.103 109.608 500.663 107.176 498.295 105.864C496.727 105 498.135 102.6 500.119 103.752C502.679 105.256 504.951 107.528 505.815 109.832ZM490.039 104.264L491.095 104.168C493.783 103.944 495.831 105.512 495.959 109.096C496.023 111.336 495.703 114.216 494.871 116.232C493.559 119.4 490.423 120.968 487.351 120.072C484.823 119.336 485.847 116.392 487.799 116.872C489.623 117.32 490.967 117.032 491.863 115.144C492.599 113.576 492.887 111.304 492.887 109.608C492.887 107.656 492.215 106.728 490.743 106.856C490.263 106.888 489.783 106.952 489.271 107.016C487.703 111.976 485.559 116.328 483.063 119.88C481.527 122.056 478.199 120.2 480.279 117.864C482.487 115.4 484.471 111.752 485.943 107.464L485.559 107.528C484.183 107.784 482.935 107.976 482.103 107.976C479.927 107.976 479.959 105.096 482.007 104.904C482.999 104.808 483.991 104.84 485.143 104.744L486.743 104.584C487.127 103.176 487.543 101.288 487.735 99.496C487.959 97.416 491.223 97.608 490.967 99.752C490.839 100.84 490.423 102.76 490.039 104.264ZM523.255 115.528C522.423 115.528 521.623 114.952 521.623 113.768C521.623 109.704 525.815 107.848 526.967 105.736C527.447 104.872 527.671 103.944 527.671 103.112C527.671 99.976 525.303 99.24 524.023 99.24C521.463 99.24 520.407 101.352 520.151 102.216C519.991 102.856 519.255 103.176 518.519 103.176C517.655 103.176 516.759 102.696 516.759 101.64C516.759 100.456 518.711 96.04 523.991 96.04C527.767 96.04 531.031 98.664 531.031 103.048C531.031 104.072 530.807 105.192 530.391 106.248C529.239 109.128 525.047 110.76 525.047 113.672C525.047 114.888 524.119 115.528 523.255 115.528ZM525.559 120.04C525.559 121.576 524.215 122.152 523.351 122.152C522.135 122.152 521.143 121.128 521.143 120.04C521.143 118.632 522.487 117.832 523.351 117.832C524.599 117.832 525.559 118.6 525.559 120.04Z" fill="black"/>
</svg>
