<svg width="692" height="350" viewBox="0 0 692 350" fill="none" xmlns="http://www.w3.org/2000/svg">
<path d="M263 307.12C262.44 306.56 260.4 305.36 259.56 305.08C257.48 304.4 258.76 301.84 260.68 302.36C261.76 302.64 263.92 303.6 264.88 304.44C266.56 305.96 264.44 308.56 263 307.12ZM259.52 310.84C258.96 310.24 256.92 308.92 256.12 308.64C254.04 307.88 255.48 305.4 257.36 306C258.44 306.32 260.52 307.36 261.44 308.24C263.08 309.8 260.92 312.32 259.52 310.84ZM263.44 319.04C264.44 321.68 260.84 323.44 259.76 320.96C258.8 318.76 257 315.72 254.04 314.08C252.08 313 253.84 310 256.32 311.44C259.52 313.32 262.36 316.16 263.44 319.04ZM243.72 312.08L245.04 311.96C248.4 311.68 250.96 313.64 251.12 318.12C251.2 320.92 250.8 324.52 249.76 327.04C248.12 331 244.2 332.96 240.36 331.84C237.2 330.92 238.48 327.24 240.92 327.84C243.2 328.4 244.88 328.04 246 325.68C246.92 323.72 247.28 320.88 247.28 318.76C247.28 316.32 246.44 315.16 244.6 315.32C244 315.36 243.4 315.44 242.76 315.52C240.8 321.72 238.12 327.16 235 331.6C233.08 334.32 228.92 332 231.52 329.08C234.28 326 236.76 321.44 238.6 316.08L238.12 316.16C236.4 316.48 234.84 316.72 233.8 316.72C231.08 316.72 231.12 313.12 233.68 312.88C234.92 312.76 236.16 312.8 237.6 312.68L239.6 312.48C240.08 310.72 240.6 308.36 240.84 306.12C241.12 303.52 245.2 303.76 244.88 306.44C244.72 307.8 244.2 310.2 243.72 312.08ZM302.6 314.44C301.92 315.16 300.72 315.36 299.72 314.48C298.68 313.56 296.48 312.6 294.44 312.84C292 313.12 291.36 309.56 294.24 309.32C297.12 309.08 301.12 310.08 302.56 311.6C303.52 312.6 303.28 313.72 302.6 314.44ZM283.44 322.48C283.52 324.6 283.68 326.68 283.76 328.4C284.08 334.12 278.96 334.04 275.68 332.44C270.92 330.12 272.24 327.28 274.36 324.96C275.6 323.64 277.64 322.08 280 320.72C279.96 319.04 279.92 317.32 279.92 315.72C278.28 316.04 276.64 316.08 275.12 315.88C272.16 315.52 272.64 311.52 275.96 312.2C276.96 312.4 278.44 312.24 280 311.84C280 309.96 279.92 308.68 279.84 307.16C279.68 304.2 284.08 304.28 283.88 307.12C283.8 308 283.76 309.28 283.68 310.48C284.28 310.2 284.8 309.88 285.28 309.56C287.44 308.12 289.88 311.28 287.08 312.96C285.88 313.68 284.6 314.28 283.32 314.76C283.28 316 283.28 317.48 283.32 319C284.44 318.48 285.6 318.08 286.68 317.76C290.12 316.76 293.52 317.08 295.56 317.8C302.16 320.08 301.08 325.48 299.04 328.44C296.44 332.2 290.84 333.48 286.2 330.84C283.92 329.52 285.48 326.24 287.92 327.44C291.04 328.96 293.6 329 295.52 326.44C296.48 325.16 297.6 322.32 294.12 321.04C292.56 320.44 290.44 320.32 287.64 320.96C286.2 321.28 284.8 321.84 283.44 322.48ZM280.04 324.48C278.88 325.32 277.88 326.2 277.04 327.12C276.2 328.04 276.2 329.08 277.12 329.52C278.84 330.36 280 330.24 280.04 328.68C280.08 327.6 280.08 326.12 280.04 324.48ZM328 326.08C325.36 327.44 321.88 326.68 320.6 323.08C319.2 319.2 321.36 316.32 323.8 315.56C324.96 315.2 326.16 315.04 327.24 315.2C327.2 314.32 327.16 313.12 327.12 311.96C323.76 312.28 320.44 312.76 318.36 313.08C315.48 313.52 313.6 314.04 312.4 314.24C309.72 314.72 308.92 310.72 312.08 310.2C313.68 309.92 316.28 309.64 317.96 309.36C319.96 309.04 323.56 308.6 327.08 308.28C327.08 308.04 327.08 307.76 327.08 307.56C327.12 305.08 326.88 304.92 326.88 303.64C326.88 300.72 330.92 301 331.08 303.52C331.12 304.44 331 306.28 330.92 307.36C330.92 307.56 330.88 307.76 330.88 307.96C332.04 307.88 333.08 307.84 333.96 307.84C335.92 307.84 337.32 307.8 340.04 307.84C343.4 307.92 343.24 312.16 340.04 311.92C337.2 311.68 336.24 311.68 333.76 311.64C332.84 311.64 331.88 311.68 330.84 311.72C330.88 313 330.92 314.24 330.92 315.4C330.92 315.96 331 316.8 331.04 317.68C334.6 323.28 330.36 331.76 326.12 335.16C323.44 337.28 319.96 334.44 323.44 331.96C325.36 330.6 327.04 328.36 328 326.08ZM327.96 319.56C327.76 319.32 327.56 319.08 327.32 318.88C326.76 318.4 325.6 318.32 324.76 318.72C323.8 319.16 323.16 320.4 323.6 321.76C324.32 323.92 327.8 323.92 328.2 321.08C328.32 320.24 328.2 319.88 327.96 319.56ZM368 326.08C365.36 327.44 361.88 326.68 360.6 323.08C359.2 319.2 361.36 316.32 363.8 315.56C364.96 315.2 366.16 315.04 367.24 315.2C367.2 314.32 367.16 313.12 367.12 311.96C363.76 312.28 360.44 312.76 358.36 313.08C355.48 313.52 353.6 314.04 352.4 314.24C349.72 314.72 348.92 310.72 352.08 310.2C353.68 309.92 356.28 309.64 357.96 309.36C359.96 309.04 363.56 308.6 367.08 308.28C367.08 308.04 367.08 307.76 367.08 307.56C367.12 305.08 366.88 304.92 366.88 303.64C366.88 300.72 370.92 301 371.08 303.52C371.12 304.44 371 306.28 370.92 307.36C370.92 307.56 370.88 307.76 370.88 307.96C372.04 307.88 373.08 307.84 373.96 307.84C375.92 307.84 377.32 307.8 380.04 307.84C383.4 307.92 383.24 312.16 380.04 311.92C377.2 311.68 376.24 311.68 373.76 311.64C372.84 311.64 371.88 311.68 370.84 311.72C370.88 313 370.92 314.24 370.92 315.4C370.92 315.96 371 316.8 371.04 317.68C374.6 323.28 370.36 331.76 366.12 335.16C363.44 337.28 359.96 334.44 363.44 331.96C365.36 330.6 367.04 328.36 368 326.08ZM367.96 319.56C367.76 319.32 367.56 319.08 367.32 318.88C366.76 318.4 365.6 318.32 364.76 318.72C363.8 319.16 363.16 320.4 363.6 321.76C364.32 323.92 367.8 323.92 368.2 321.08C368.32 320.24 368.2 319.88 367.96 319.56ZM402.417 324.96C401.897 325.64 401.377 326.24 400.857 326.8C396.137 331.88 391.937 330.12 390.857 325.08C390.017 321.24 391.937 316.84 395.257 313.68C394.977 312.84 394.697 311.96 394.497 311.08C394.297 310.28 393.897 308.44 393.737 307.6C393.057 304.28 397.577 304.32 397.737 307.16C397.817 308.36 397.897 309.04 398.137 310.48C398.177 310.76 398.257 311.08 398.337 311.36C398.617 311.2 398.857 311.04 399.137 310.92C401.177 309.88 403.577 309.32 405.977 309.24C406.297 307.64 406.497 306 406.497 304.92C406.457 302.12 410.617 302.44 410.457 305.36C410.377 306.76 410.217 308.08 409.897 309.6C413.617 310.44 416.817 312.76 417.937 316.84C420.017 324.24 415.097 329.76 408.177 332.24C405.137 333.36 403.177 329.56 406.657 328.52C413.617 326.4 415.177 321.8 414.217 318C413.457 314.96 411.457 313.32 409.057 312.64C408.937 313 408.817 313.4 408.657 313.8C407.737 316.28 406.257 319.24 404.577 321.88C404.737 322 404.897 322.16 405.097 322.28C406.017 322.92 405.897 324.08 405.377 324.76C404.857 325.44 403.817 325.84 402.737 325.16C402.617 325.08 402.537 325.04 402.417 324.96ZM405.217 312.32C403.497 312.48 401.777 313 400.377 313.76C399.977 313.96 399.577 314.2 399.217 314.48C399.897 316.28 400.777 317.92 401.937 319.36C403.257 317.2 404.417 314.88 405.057 312.88C405.097 312.72 405.177 312.52 405.217 312.32ZM399.777 322.56C398.457 321 397.377 319.08 396.497 317.04C394.817 319.16 393.857 321.64 394.257 323.76C394.857 326.88 396.737 326 397.857 324.84C398.457 324.24 399.097 323.44 399.777 322.56ZM441.897 324.32V324.28C441.897 324.04 441.897 323.76 441.897 323.44C441.897 319.56 441.497 310.24 441.257 303.96C441.257 303.92 441.257 303.88 441.257 303.84C441.257 302.36 442.417 301.64 443.577 301.64C444.777 301.64 445.977 302.4 445.977 303.96C445.977 308.68 445.337 319.68 445.337 323.56C445.337 324.52 445.337 326.2 443.577 326.2C442.737 326.2 441.897 325.56 441.897 324.32ZM446.377 331.8C446.377 333.72 444.697 334.44 443.617 334.44C442.097 334.44 440.857 333.16 440.857 331.8C440.857 330.04 442.537 329.04 443.617 329.04C445.177 329.04 446.377 330 446.377 331.8Z" fill="black"/>
<rect x="90" y="110" width="512" height="70" fill="#52AA80"/>
<path d="M131.44 139.016L132.928 143.912C136.816 142.808 140.704 141.704 143.632 140.936C147.376 139.976 148 144.584 145.024 145.256C142.288 145.88 138.352 146.936 134.272 148.136C135.808 152.984 137.2 157.496 138.112 160.328C138.688 162.104 137.68 163.4 136.528 163.832C135.376 164.264 133.936 163.832 133.504 162.104C132.736 159.128 131.392 154.424 129.856 149.432C125.584 150.728 121.408 152.024 118.48 153.032C115.312 154.088 113.872 149.624 117.472 148.52C120.256 147.656 124.288 146.408 128.56 145.16C128.032 143.48 127.504 141.8 127.024 140.216C124.048 141.032 121.12 141.848 118.624 142.424C115.168 143.24 114.256 138.872 117.424 138.152C120.064 137.576 122.896 136.856 125.728 136.088C124.768 133.016 123.856 130.376 123.28 128.6C122.176 125.336 127.072 124.568 127.84 127.208C128.32 128.936 129.184 131.672 130.144 134.84C132.88 134.072 135.472 133.208 137.728 132.488C140.848 131.48 141.856 135.848 138.928 136.76C136.768 137.432 134.176 138.248 131.44 139.016ZM185.152 144.056L185.2 144.008C183.232 144.584 180.4 145.544 177.424 146.6C178.864 151.448 180.592 156.92 181.744 160.088C183.04 163.592 178.624 165.08 177.616 161.72C176.656 158.456 175.024 152.936 173.536 147.992C171.52 148.712 169.648 149.432 168.112 150.008C165.28 151.064 164.08 147.032 166.768 146.12C168.448 145.544 170.32 144.872 172.384 144.152C171.808 142.28 171.328 140.696 170.944 139.496C170.416 137.912 171.232 136.856 172.336 136.616C173.344 136.376 174.592 136.952 174.976 138.248C175.312 139.352 175.792 140.936 176.32 142.808C179.488 141.752 182.8 140.648 186.016 139.64C188.416 138.92 191.392 140.216 190.384 143.192C189.28 146.456 187.12 149.288 184.72 151.4C181.984 153.8 179.296 150.296 181.744 148.28C183.088 147.224 184.432 145.592 185.152 144.056ZM222.16 145.4C222.112 147.032 220.864 147.896 219.616 147.896C218.368 147.896 217.024 147.032 217.12 145.448C217.408 140.696 217.264 133.16 217.024 128.6C216.88 125.624 221.824 125.384 222.016 128.408C222.256 132.728 222.256 140.936 222.16 145.4ZM223.024 163.448C219.088 165.704 216.976 161.192 220 159.512C228.496 154.808 230.416 148.376 230.416 141.224C230.416 137.48 230.176 131.528 230.176 127.736C230.176 124.616 235.36 124.808 235.312 127.736C235.216 131.816 235.456 137.192 235.456 141.176C235.456 149.432 232.96 157.736 223.024 163.448ZM273.52 144.584C272.32 151.928 268.72 157.64 261.616 162.104C259.696 163.304 257.92 162.776 257.104 161.672C256.288 160.568 256.48 158.888 258.4 157.928C266.464 153.944 269.2 146.024 268.48 139.064C268.288 137.048 269.584 136.136 271.12 136.136C272.608 136.136 274.048 136.856 274 138.872C274 139.448 274 140.072 273.952 140.648C274.096 140.6 274.192 140.504 274.336 140.456C277.552 139.16 281.2 137 283.072 134.408C283.792 133.4 283.792 132.68 282.544 132.68C277.168 132.632 266.704 132.776 259.984 133.112C255.76 133.304 256 128.696 259.6 128.504C266.56 128.168 277.024 128.216 284.224 128.216C289.216 128.216 291.52 132.392 288.16 136.184C284.992 139.784 281.488 142.856 276.256 144.728C275.152 145.112 274.192 145.016 273.52 144.584ZM335.584 151.064C335.488 155.672 331.936 157.112 328.288 157.304C323.2 157.592 315.28 157.64 310.336 157.64C306.736 157.64 306.736 152.504 310.288 152.648C315.424 152.84 324.16 152.84 327.712 152.6C329.152 152.504 330.4 151.688 330.496 149.912C330.64 147.032 330.64 142.136 330.544 139.64C330.496 138.056 329.344 137.192 327.52 137.144C323.296 137 315.712 137.288 310.72 137.528C306.976 137.72 306.784 133.016 310.48 132.872C315.76 132.632 324.4 132.536 329.2 132.632C333.952 132.728 335.632 135.56 335.632 138.776C335.632 141.704 335.68 146.792 335.584 151.064ZM385.216 145.16H355.072C353.344 145.16 352.528 144.008 352.528 142.856C352.528 141.656 353.44 140.408 355.072 140.408H385.216C386.848 140.408 387.664 141.608 387.664 142.808C387.664 143.96 386.848 145.16 385.216 145.16ZM421.6 144.728C421.216 150.824 417.28 159.656 407.392 163.064C402.544 164.744 401.344 159.464 404.8 158.6C412.96 156.536 416.176 149.288 416.752 144.728C411.568 144.728 406.384 144.824 402.592 144.92C399.712 145.016 399.424 140.648 402.592 140.6C406.144 140.504 411.472 140.456 416.848 140.456C416.848 138.44 416.8 136.28 416.8 134.696C413.296 135.272 409.936 135.56 407.392 135.512C403.84 135.416 403.984 130.856 407.488 131.096C412.384 131.432 421.168 129.608 425.104 127.976C429.232 126.248 430.144 131.192 427.504 132.104C425.776 132.728 423.76 133.256 421.696 133.736C421.744 135.608 421.744 138.152 421.696 140.456C426.736 140.456 431.152 140.504 433.408 140.552C436.768 140.6 436.672 144.968 433.312 144.872C430.672 144.776 426.352 144.728 421.6 144.728ZM483.568 136.376C477.616 147.176 467.68 157.016 456.64 160.52C452.56 161.816 451.024 156.344 455.008 155.336C464.656 152.888 474.352 142.952 479.2 133.544C480.736 130.568 485.68 132.584 483.568 136.376ZM463.552 140.264C462.784 141.368 461.104 142.04 459.616 140.696C457.84 139.064 454.768 137.672 452.512 137.144C449.632 136.472 450.832 131.624 454.48 132.632C457.024 133.352 460.624 134.648 462.928 136.28C464.416 137.336 464.32 139.16 463.552 140.264ZM532.526 126.776C531.854 126.056 529.55 124.424 528.59 124.04C526.142 123.08 527.87 120.2 530.126 120.92C531.422 121.352 533.87 122.552 534.974 123.656C536.894 125.576 534.158 128.6 532.526 126.776ZM528.158 131.048C527.534 130.28 525.182 128.6 524.222 128.168C521.774 127.16 523.694 124.28 525.902 125.096C527.198 125.576 529.598 126.824 530.654 127.976C532.526 129.992 529.742 132.92 528.158 131.048ZM514.478 130.28L514.142 130.712C516.206 130.568 518.558 130.424 520.478 130.328C524.174 130.136 527.39 132.728 525.614 136.136C519.758 147.32 513.134 157.016 499.646 162.344C495.566 163.928 493.598 159.224 497.582 157.832C508.238 154.136 516.158 144.584 519.71 136.424C520.094 135.512 519.71 134.6 518.558 134.648C516.542 134.696 513.038 135.032 510.878 135.272C507.614 139.592 503.39 144.632 500.078 146.888C496.862 149.048 494.03 144.872 497.294 142.856C501.902 140.024 508.142 131.24 510.35 127.448C511.934 124.76 516.734 127.064 514.478 130.28ZM579.422 140.84C578.75 140.072 576.254 138.392 575.246 138.008C572.654 137 574.526 133.928 576.878 134.696C578.222 135.128 580.814 136.424 581.966 137.576C583.982 139.592 581.15 142.76 579.422 140.84ZM574.478 145.208C573.806 144.44 571.406 142.616 570.398 142.184C567.854 141.08 569.774 138.104 572.126 138.968C573.47 139.448 576.062 140.792 577.166 141.992C579.134 144.104 576.158 147.176 574.478 145.208ZM569.87 162.008C555.374 161.96 550.382 148.664 555.614 139.016C556.094 138.104 556.526 137.336 557.15 136.52C557.918 135.512 557.678 135.56 556.766 135.848C553.166 137 553.982 137 550.718 138.248C549.182 138.824 547.838 139.304 546.398 139.688C542.174 140.84 540.878 135.32 544.718 134.504C545.726 134.264 548.51 133.736 550.046 133.352C552.398 132.776 556.622 131.816 561.518 130.424C566.462 129.032 570.35 127.88 574.574 127.592C577.55 127.4 578.366 129.752 577.838 131.288C577.55 132.104 576.494 133.064 573.134 132.872C570.686 132.728 567.662 133.64 566.03 134.216C563.342 135.176 560.894 138.056 559.838 139.832C555.614 146.888 558.83 156.968 569.582 156.584C574.622 156.392 574.958 162.056 569.87 162.008Z" fill="white"/>
<rect y="196" width="692" height="78" fill="#52AA80"/>
<path d="M42.008 249.104L41.96 242.624C31.976 247.376 22.616 248.72 22.328 248.72C20.744 248.72 19.784 247.424 19.784 246.176C19.784 245.072 20.504 243.968 22.04 243.776C29.144 242.864 35.864 240.992 41.912 237.824L41.816 228.368L23.144 228.56H23.096C21.608 228.56 20.84 227.504 20.84 226.4C20.84 225.296 21.608 224.192 23.144 224.192H41.768L41.672 217.232V217.184C41.672 215.696 42.872 214.928 44.024 214.928C45.224 214.928 46.424 215.696 46.424 217.232L46.472 224.192H58.664C60.104 224.192 60.824 225.296 60.824 226.4C60.824 227.504 60.104 228.56 58.712 228.56H58.664L46.52 228.368L46.568 234.944C48.44 233.648 50.168 232.208 51.848 230.576C52.376 230.048 52.952 229.856 53.48 229.856C54.776 229.856 55.88 231.056 55.88 232.304C55.88 232.88 55.64 233.456 55.112 233.936C52.568 236.288 49.736 238.352 46.616 240.176L46.664 244.352L46.808 250.064C46.808 250.16 46.808 250.256 46.808 250.304C46.808 253.28 45.416 257.168 39.08 257.168C34.184 257.168 33.128 256.016 33.128 254.192C33.128 253.04 33.8 252.032 34.952 252.032C35.096 252.032 35.24 252.032 35.432 252.08C36.536 252.32 37.64 252.512 38.6 252.512C40.568 252.512 42.008 251.744 42.008 249.2C42.008 249.152 42.008 249.152 42.008 249.104ZM95 226.112V228.752C95 231.008 97.016 231.008 99.464 231.008C103.976 231.008 104.888 229.664 104.888 227.504C104.888 226.16 105.896 225.584 107 225.584C107.288 225.584 109.544 225.632 109.544 227.984C109.544 233.264 105.8 234.944 99.32 234.944C92.792 234.944 90.536 233.264 90.536 229.472C90.536 226.64 90.584 220.112 90.632 217.616C90.632 216.272 91.784 215.6 92.888 215.6C93.992 215.6 95.096 216.272 95.096 217.568V217.616C95.096 218.816 95 220.544 95 222.32C98.024 221.312 101.576 219.92 103.976 218.672C104.312 218.48 104.648 218.432 104.984 218.432C106.232 218.432 107.24 219.536 107.24 220.688C107.24 221.456 106.808 222.224 105.704 222.704C102.872 223.904 98.36 225.296 95 226.112ZM85.304 227.456C79.592 228.704 72.488 229.616 70.088 229.616C68.648 229.616 67.928 228.608 67.928 227.6C67.928 226.592 68.648 225.536 70.04 225.536C70.712 225.536 71.432 225.488 72.2 225.44C73.304 223.376 75.128 219.2 75.8 216.704C76.088 215.696 76.856 215.264 77.72 215.264C78.92 215.264 80.216 216.128 80.216 217.424C80.216 217.664 79.928 219.584 76.664 225.104C78.776 224.912 80.888 224.624 82.808 224.336C82.568 224.096 82.28 223.904 82.04 223.712C81.512 223.328 81.32 222.896 81.32 222.464C81.32 221.552 82.328 220.688 83.432 220.688C84.824 220.688 89.528 224.864 89.528 227.072C89.528 228.32 88.52 229.28 87.464 229.28C86.552 229.28 86.168 228.896 85.304 227.456ZM95 246.656V249.872C95 252.032 96.824 252.128 99.512 252.128C103.016 252.128 105.128 251.456 105.128 248.576C105.128 247.232 106.184 246.608 107.288 246.608C107.528 246.608 109.88 246.656 109.88 249.056C109.88 254.288 106.184 256.16 99.368 256.16C95.336 256.16 90.536 255.92 90.536 250.592C90.536 247.664 90.584 240.656 90.632 238.112C90.632 236.72 91.736 236.048 92.84 236.048C93.992 236.048 95.096 236.72 95.096 238.064V238.112C95.096 239.264 95.048 240.944 95.048 242.768C98.072 241.664 101.48 240.224 103.88 238.928C104.216 238.736 104.6 238.64 104.936 238.64C106.184 238.64 107.192 239.792 107.192 240.992C107.192 241.76 106.808 242.528 105.704 243.008C102.872 244.304 98.36 245.792 95 246.656ZM83.192 247.952H74.984C74.984 250.64 75.032 253.232 75.08 255.152V255.2C75.08 256.544 74.072 257.168 73.112 257.168C72.056 257.168 71.048 256.496 71 255.152C71 252.56 70.952 248.96 70.952 245.408C70.952 241.808 71 238.208 71 235.568C71.096 231.392 73.352 231.296 78.92 231.296C80.408 231.296 81.944 231.344 82.856 231.392C85.592 231.536 86.888 233.024 86.936 235.616C86.936 236.336 86.984 243.776 87.032 245.36C87.08 246.176 87.08 247.424 87.08 248.624C87.08 249.776 87.08 250.928 87.08 251.648C87.08 251.696 87.08 251.744 87.08 251.84C87.08 254.864 85.064 256.832 81.8 256.832C79.64 256.832 77.768 256.352 77.768 254.384C77.768 253.424 78.344 252.512 79.448 252.512C79.592 252.512 79.736 252.512 79.928 252.56C80.552 252.704 81.08 252.8 81.512 252.8C82.52 252.8 83.096 252.32 83.144 250.736C83.144 249.968 83.192 249.008 83.192 247.952ZM75.032 238.208H83.096C83.096 237.584 83.048 237.008 83.048 236.48C83.048 235.04 82.712 234.944 78.968 234.944C75.512 234.944 75.176 235.04 75.08 236.48C75.08 237.008 75.032 237.584 75.032 238.208ZM83.144 241.568H74.984V244.64H83.192C83.192 243.632 83.144 242.576 83.144 241.568ZM140.456 222.896C141.32 225.824 136.712 227.456 135.848 224.384C135.656 223.616 135.224 222.992 134.792 222.464C134.408 221.984 134.024 221.552 133.592 221.12C132.008 219.488 135.224 216.992 137.624 218.96C138.44 219.632 139.928 221.12 140.456 222.896ZM133.16 234.176C134.36 236.336 135.704 238.736 137 241.088C139.448 245.552 141.752 249.968 142.664 252.752C143.384 254.912 142.472 256.448 141.224 256.88C139.976 257.312 138.344 256.64 137.816 254.528C137.096 251.648 135.032 247.28 132.728 242.912C131.576 240.704 130.376 238.496 129.272 236.48C127.064 237.728 124.808 238.784 122.456 239.504C119.432 240.416 117.416 235.952 121.304 234.8C123.272 234.224 125.144 233.408 127.064 232.448C126.824 231.968 126.632 231.536 126.392 231.104C125.96 230.288 125.528 229.376 125.096 228.464C124.664 227.552 124.328 226.688 124.088 225.824C123.368 222.992 127.352 221.408 128.6 224.48C129.224 226.064 129.704 227.648 130.472 229.184C130.664 229.52 130.856 229.904 131.048 230.288C134.216 228.512 137.336 226.592 140.6 225.344C145.352 223.52 150.104 222.896 153.8 225.2C157.88 227.792 158.024 232.448 155.336 236.288C151.496 241.712 143 242.72 137.864 239.696C136.568 238.928 136.52 237.392 137.192 236.336C137.864 235.28 139.256 234.704 140.744 235.712C143.576 237.68 148.904 237.008 151.256 233.792C152.504 232.112 152.456 230.096 150.776 228.848C149 227.552 145.928 227.84 141.944 229.424C138.824 230.672 135.992 232.448 133.16 234.176ZM189.032 250.976C188.312 253.136 186.584 254.384 184.856 254.384C183.272 254.384 181.736 253.328 181.112 250.88C180.488 248.48 178.712 240.416 178.184 236.192C178.136 235.856 177.992 235.568 177.896 235.568C177.8 235.568 177.704 235.712 177.656 236.144C177.128 240.416 175.592 247.712 174.728 250.88C174.104 253.232 172.328 254.432 170.6 254.432C168.872 254.432 167.144 253.232 166.568 250.88C165.56 246.608 163.208 237.392 162.248 233.264C162.2 233.072 162.2 232.928 162.2 232.784C162.2 231.44 163.496 230.72 164.744 230.72C165.8 230.72 166.808 231.2 167.096 232.304C168.008 236 169.832 245.216 170.456 249.2C170.552 249.824 170.696 250.112 170.792 250.112C170.984 250.112 171.128 249.776 171.224 249.248C171.896 245.408 173.768 236.912 174.488 233.456C174.872 231.584 176.36 230.72 177.848 230.72C179.432 230.72 181.112 231.728 181.448 233.36C182.072 236.336 184.088 244.736 184.664 249.008C184.76 249.632 184.856 249.824 184.952 249.824C185.096 249.824 185.24 249.392 185.336 249.056C186.344 244.88 188.552 235.904 189.272 232.352C189.512 231.2 190.52 230.672 191.576 230.672C192.776 230.672 194.024 231.392 194.024 232.688C194.024 234.224 190.856 245.456 189.032 250.976ZM216.963 254.24C216.435 254.24 215.811 254 215.235 253.52C214.803 253.184 214.371 252.656 213.939 251.936C213.891 251.84 213.795 251.792 213.747 251.792C213.651 251.792 213.555 251.84 213.459 251.936C211.827 253.808 208.803 254.816 205.971 254.816C200.691 254.816 197.571 250.976 197.571 247.28C197.571 244.832 199.011 242.384 202.227 241.28C205.539 240.128 209.667 239.216 210.435 239.168C210.915 239.12 211.299 238.544 211.299 237.536C211.299 236.96 211.155 234.512 207.891 234.512C205.731 234.512 204.099 235.52 203.187 236.528C202.659 237.152 201.987 237.392 201.411 237.392C200.163 237.392 199.107 236.432 199.107 235.184C199.107 232.88 203.331 230.336 208.179 230.336C213.459 230.336 216.339 232.928 216.339 238.448C216.339 239.072 216.291 239.648 216.243 240.32C216.147 241.04 216.003 242.864 216.003 244.304C216.003 244.736 216.003 245.12 216.051 245.408C216.483 249.248 218.259 249.392 218.643 249.68C219.171 250.064 219.411 250.688 219.411 251.36C219.411 252.704 218.355 254.24 216.963 254.24ZM210.867 243.2H210.819C202.707 244.208 202.227 246.224 202.227 247.376C202.227 248.864 203.523 250.352 205.971 250.352C209.859 250.352 211.539 248.384 211.539 244.976C211.539 244.256 211.443 243.2 210.867 243.2ZM239.593 252.128V252.08C239.641 250.112 239.689 246.464 239.689 243.536C239.689 241.616 239.641 239.984 239.593 239.216C239.401 236.24 237.721 235.04 235.705 235.04C232.777 235.04 229.273 237.632 229.129 240.848C229.081 241.712 229.081 242.816 229.081 244.16C229.081 246.128 229.129 248.672 229.225 252.08C229.273 253.088 228.697 254.528 226.777 254.528C225.481 254.528 224.233 253.712 224.233 252.176C224.233 252.128 224.233 252.128 224.233 252.08C224.377 247.52 224.425 244.352 224.425 241.52C224.425 238.64 224.377 236.144 224.281 232.928C224.281 232.88 224.281 232.88 224.281 232.832C224.281 231.392 225.673 230.672 226.873 230.672C228.073 230.672 229.321 231.392 229.321 232.928C229.321 233.12 229.273 233.264 229.273 233.408C229.273 233.456 229.273 233.504 229.273 233.552C229.273 233.6 229.273 233.648 229.321 233.648C229.369 233.648 229.465 233.552 229.561 233.456C231.337 231.536 233.881 230.576 236.377 230.576C240.409 230.576 244.297 233.216 244.489 238.592C244.537 240.32 244.633 244.592 244.633 248.144C244.633 249.632 244.633 250.976 244.585 251.984C244.537 253.712 243.337 254.528 242.089 254.528C240.841 254.528 239.593 253.664 239.593 252.128ZM262.065 235.376H258.897C258.177 235.376 258.177 235.616 258.177 235.904C258.177 237.68 258.033 241.76 258.033 244.928C258.033 248.672 258.177 250.208 260.865 250.208C261.201 250.208 261.585 250.16 261.969 250.112C262.113 250.112 262.209 250.064 262.353 250.064C263.649 250.064 264.417 251.12 264.417 252.176C264.417 253.904 262.833 254.72 260.337 254.72C253.233 254.72 253.233 248.432 253.233 246.464C253.233 243.68 253.329 238.88 253.329 236.768C253.329 236.48 253.329 236.24 253.329 236.048C253.329 235.424 253.041 235.376 252.561 235.376H251.121C249.729 235.376 248.961 234.224 248.961 233.072C248.961 231.968 249.681 230.864 251.121 230.864H252.513C253.281 230.864 253.329 230.72 253.329 230.048C253.329 230.048 253.377 229.088 253.377 227.984C253.377 227.408 253.377 226.832 253.329 226.304C253.329 226.256 253.329 226.208 253.329 226.16C253.329 224.72 254.481 224 255.729 224C258.273 224 258.273 226.304 258.273 226.928C258.273 228.224 258.177 230.048 258.177 230.048C258.177 230.816 258.369 230.864 258.849 230.864H262.065C263.505 230.864 264.177 231.968 264.177 233.12C264.177 234.224 263.505 235.376 262.065 235.376ZM293.518 235.376H290.35C289.63 235.376 289.63 235.616 289.63 235.904C289.63 237.68 289.486 241.76 289.486 244.928C289.486 248.672 289.63 250.208 292.318 250.208C292.654 250.208 293.038 250.16 293.422 250.112C293.566 250.112 293.662 250.064 293.806 250.064C295.102 250.064 295.87 251.12 295.87 252.176C295.87 253.904 294.286 254.72 291.79 254.72C284.686 254.72 284.686 248.432 284.686 246.464C284.686 243.68 284.782 238.88 284.782 236.768C284.782 236.48 284.782 236.24 284.782 236.048C284.782 235.424 284.494 235.376 284.014 235.376H282.574C281.182 235.376 280.414 234.224 280.414 233.072C280.414 231.968 281.134 230.864 282.574 230.864H283.966C284.734 230.864 284.782 230.72 284.782 230.048C284.782 230.048 284.83 229.088 284.83 227.984C284.83 227.408 284.83 226.832 284.782 226.304C284.782 226.256 284.782 226.208 284.782 226.16C284.782 224.72 285.934 224 287.182 224C289.726 224 289.726 226.304 289.726 226.928C289.726 228.224 289.63 230.048 289.63 230.048C289.63 230.816 289.822 230.864 290.302 230.864H293.518C294.958 230.864 295.63 231.968 295.63 233.12C295.63 234.224 294.958 235.376 293.518 235.376ZM311.38 254.72C304.516 254.72 299.284 249.824 299.284 242.576C299.284 235.568 304.516 230.432 311.38 230.432C318.244 230.432 323.428 235.568 323.428 242.576C323.428 249.824 318.244 254.72 311.38 254.72ZM311.38 250.208C315.364 250.208 318.58 247.28 318.58 242.576C318.58 237.824 315.316 234.848 311.38 234.848C307.444 234.848 304.132 237.824 304.132 242.576C304.132 247.28 307.396 250.208 311.38 250.208ZM350.251 221.36L350.155 221.552C350.923 221.264 351.643 220.976 352.171 220.688C354.811 219.104 357.403 223.088 353.851 224.864C352.651 225.44 350.587 226.016 348.571 226.448C347.947 227.984 347.131 229.712 346.267 231.296C349.579 230.72 352.747 231.92 354.331 235.472C356.299 234.464 358.315 233.456 360.187 232.64C361.339 232.16 362.635 231.584 363.931 230.864C367.531 228.848 369.691 233.648 366.619 235.184C365.083 235.952 363.979 236.192 361.435 237.152C359.419 237.92 357.259 238.88 355.339 239.792C355.483 241.376 355.531 243.344 355.435 245.072C355.339 246.992 354.091 248 352.891 248.048C351.691 248.096 350.587 247.184 350.731 245.312C350.779 244.304 350.827 243.2 350.827 242.192C350.395 242.432 349.963 242.672 349.579 242.912C343.627 246.752 344.347 249.632 347.035 250.976C349.579 252.272 354.283 251.312 356.539 250.592C360.763 249.296 362.107 254.48 357.691 255.632C354.859 256.352 348.331 257.072 344.587 254.96C338.107 251.312 339.259 244.832 347.947 239.12C348.619 238.688 349.387 238.16 350.299 237.632C349.003 233.6 345.307 234.08 342.187 237.68C342.139 237.728 342.043 237.824 341.995 237.872C341.563 238.4 341.227 238.832 340.891 239.12C338.251 241.472 334.747 238.736 337.627 236.144C338.875 234.992 340.507 233.264 341.515 231.632C342.331 230.288 343.099 228.848 343.771 227.36C341.179 227.744 339.355 227.6 337.819 226.832C334.363 225.104 336.715 220.592 340.075 222.848C340.987 223.472 342.907 223.232 344.587 222.944C344.779 222.896 345.067 222.896 345.307 222.848C345.643 221.456 345.739 220.496 345.835 218.816C346.027 215.936 350.539 216.224 350.635 218.576C350.683 219.536 350.491 220.448 350.251 221.36ZM416.971 233.168H394.267C392.875 233.168 392.155 232.16 392.155 231.2C392.155 230.192 392.875 229.232 394.267 229.232H402.715V224.912H396.427C394.987 224.912 394.267 223.952 394.267 222.944C394.267 221.984 394.987 221.024 396.427 221.024H402.667V216.848C402.667 215.456 403.819 214.784 404.971 214.784C406.123 214.784 407.275 215.456 407.275 216.848V221.024H414.379C415.771 221.024 416.443 221.984 416.443 222.944C416.443 223.952 415.771 224.912 414.379 224.912H407.227V229.232H416.971C418.315 229.232 418.987 230.192 418.987 231.2C418.987 232.16 418.315 233.168 416.971 233.168ZM417.259 241.328H412.219L412.267 244.256L412.459 250.976C412.459 251.024 412.459 251.12 412.459 251.168C412.459 253.808 410.875 257.168 405.355 257.168C401.083 257.168 400.219 256.112 400.219 254.576C400.219 253.424 400.987 252.32 402.331 252.32C402.475 252.32 402.619 252.32 402.811 252.368C403.771 252.56 404.635 252.704 405.403 252.704C406.843 252.704 407.803 252.128 407.803 250.112L407.755 241.328H394.267C392.875 241.328 392.155 240.32 392.155 239.36C392.155 238.352 392.875 237.392 394.267 237.392H407.755L407.707 235.616C407.707 234.32 408.811 233.648 409.963 233.648C411.067 233.648 412.171 234.32 412.171 235.616L412.219 237.392H417.259C418.603 237.392 419.275 238.352 419.275 239.36C419.275 240.32 418.603 241.328 417.259 241.328ZM402.379 250.4C401.803 250.4 401.227 250.112 400.747 249.488C399.451 247.808 397.771 246.656 396.763 246.128C396.043 245.744 395.755 245.216 395.755 244.64C395.755 243.632 396.667 242.624 397.963 242.624C399.211 242.624 404.587 245.408 404.587 247.904C404.587 249.248 403.531 250.4 402.379 250.4ZM384.283 255.392L384.331 241.904C380.203 243.68 379.339 243.968 378.619 243.968C377.179 243.968 376.315 242.864 376.315 241.712C376.315 240.896 376.795 240.08 377.851 239.696C380.203 238.88 382.363 238.064 384.379 237.296V228.992L381.787 229.088C380.923 233.36 380.443 235.616 378.043 235.616C376.987 235.616 375.979 234.992 375.979 233.936C375.979 233.696 376.075 233.36 376.219 233.024C377.995 228.992 378.427 225.2 378.619 221.12C378.667 219.824 379.723 219.2 380.779 219.2C381.835 219.2 382.891 219.872 382.891 221.12C382.891 221.216 382.891 221.264 382.891 221.36C382.795 222.416 382.603 223.568 382.459 224.768H384.427V216.8C384.427 215.36 385.579 214.64 386.731 214.64C387.883 214.64 389.035 215.36 389.035 216.8L388.987 224.768H392.347C393.739 224.768 394.459 225.824 394.459 226.88C394.459 227.936 393.739 228.992 392.395 228.992H392.347H388.987L388.939 235.328C392.011 233.792 392.203 233.696 392.587 233.696C393.547 233.696 394.315 234.608 394.315 235.664C394.315 237.056 393.787 237.344 388.939 239.792L388.891 255.392C388.891 256.784 387.739 257.456 386.587 257.456C385.435 257.456 384.283 256.784 384.283 255.392ZM448.027 216.656V220.4C451.627 220.4 455.227 220.448 458.779 220.496C461.323 220.544 464.011 222.656 464.107 225.488C464.155 226.208 464.155 227.168 464.155 228.08C464.155 228.704 464.155 229.328 464.107 229.808C464.011 231.248 462.763 231.968 461.563 231.968C460.315 231.968 459.163 231.296 459.163 229.904C459.163 229.856 459.163 229.856 459.163 229.808C459.163 225.008 459.115 224.528 456.283 224.48C452.587 224.432 448.363 224.384 444.235 224.384C440.875 224.384 437.563 224.432 434.683 224.48C432.139 224.528 431.755 225.296 431.611 227.072C431.611 227.072 431.611 227.072 431.611 229.904V229.952C431.611 231.344 430.411 232.112 429.211 232.112C428.059 232.112 426.955 231.44 426.907 229.904C426.907 229.28 426.859 228.512 426.859 227.696C426.859 226.88 426.907 226.016 426.907 225.248C427.003 222.896 428.731 220.544 432.379 220.496C435.931 220.448 439.531 220.4 443.179 220.4V216.656C443.179 215.216 444.379 214.496 445.579 214.496C446.827 214.496 448.027 215.216 448.027 216.656ZM458.539 243.2H448.027V251.6C449.947 251.984 451.963 252.128 454.075 252.128C457.243 252.128 460.507 251.84 463.531 251.648C463.579 251.648 463.627 251.648 463.675 251.648C465.067 251.648 465.835 252.752 465.835 253.856C465.835 254.912 465.115 256.016 463.531 256.16C460.747 256.448 457.963 256.64 455.179 256.64C447.355 256.64 440.059 254.912 436.123 247.712C433.195 253.856 428.347 257.312 426.763 257.312C425.419 257.312 424.507 256.112 424.507 254.96C424.507 254.288 424.795 253.616 425.515 253.184C431.275 249.776 433.291 244.496 434.107 238.832C434.299 237.344 435.307 236.72 436.315 236.72C437.515 236.72 438.667 237.536 438.667 238.928C438.667 239.552 438.283 241.136 437.995 242.336C439.051 245.984 440.923 248.336 443.323 249.824V233.456H434.443C433.051 233.456 432.331 232.448 432.331 231.392C432.331 230.384 433.051 229.376 434.443 229.376H456.475C457.915 229.376 458.635 230.384 458.635 231.44C458.635 232.448 457.915 233.456 456.475 233.456H448.027V238.976H458.539C459.979 238.976 460.747 240.032 460.747 241.136C460.747 242.144 460.027 243.2 458.539 243.2ZM495.931 245.696C492.763 247.328 488.587 246.416 487.051 242.096C485.371 237.44 487.963 233.984 490.891 233.072C492.283 232.64 493.723 232.448 495.019 232.64C494.971 231.584 494.923 230.144 494.875 228.752C490.843 229.136 486.859 229.712 484.363 230.096C480.907 230.624 478.651 231.248 477.211 231.488C473.995 232.064 473.035 227.264 476.827 226.64C478.747 226.304 481.867 225.968 483.883 225.632C486.283 225.248 490.603 224.72 494.827 224.336C494.827 224.048 494.827 223.712 494.827 223.472C494.875 220.496 494.587 220.304 494.587 218.768C494.587 215.264 499.435 215.6 499.627 218.624C499.675 219.728 499.531 221.936 499.435 223.232C499.435 223.472 499.387 223.712 499.387 223.952C500.779 223.856 502.027 223.808 503.083 223.808C505.435 223.808 507.115 223.76 510.379 223.808C514.411 223.904 514.219 228.992 510.379 228.704C506.971 228.416 505.819 228.416 502.843 228.368C501.739 228.368 500.587 228.416 499.339 228.464C499.387 230 499.435 231.488 499.435 232.88C499.435 233.552 499.531 234.56 499.579 235.616C503.851 242.336 498.763 252.512 493.675 256.592C490.459 259.136 486.283 255.728 490.459 252.752C492.763 251.12 494.779 248.432 495.931 245.696ZM495.883 237.872C495.643 237.584 495.403 237.296 495.115 237.056C494.443 236.48 493.051 236.384 492.043 236.864C490.891 237.392 490.123 238.88 490.651 240.512C491.515 243.104 495.691 243.104 496.171 239.696C496.315 238.688 496.171 238.256 495.883 237.872ZM543.929 250.448C544.841 250.256 545.849 249.68 546.713 248.912C550.217 245.792 550.073 241.232 547.337 239.408C544.841 237.728 539.657 237.392 534.809 240.224C532.889 241.328 531.881 242.192 530.777 243.824C529.049 246.368 524.249 243.536 527.225 240.608C532.505 235.376 536.393 231.68 541.721 225.104C542.249 224.432 541.769 224.624 541.385 224.816C540.041 225.536 536.873 226.496 533.321 227.264C529.529 228.08 528.809 223.328 532.073 222.944C535.289 222.56 539.897 221.408 542.633 220.592C546.473 219.488 549.641 222.896 547.241 225.584C545.705 227.312 543.785 229.184 541.865 230.96C539.945 232.736 538.025 234.464 536.297 236.144C540.521 233.888 546.233 233.888 549.785 236C556.697 240.128 554.441 248.576 549.401 252.224C544.649 255.632 537.161 255.824 533.513 253.424C528.425 250.112 530.681 244.16 536.345 243.968C540.185 243.824 543.785 246.128 543.929 250.448ZM539.849 251.168C539.897 248.96 538.601 247.28 536.489 247.472C534.377 247.664 534.281 249.632 535.817 250.448C536.921 251.024 538.505 251.216 539.849 251.168ZM594.473 229.424C590.009 228.464 584.921 228.368 580.217 229.28C576.425 230 575.801 224.912 580.073 224.288C584.633 223.616 591.401 223.568 595.385 224.432C599.417 225.296 598.361 230.24 594.473 229.424ZM599.177 252.8C589.673 255.776 578.153 253.52 574.841 248.864C573.113 246.416 576.233 243.104 578.825 245.744C582.905 249.92 590.681 249.584 597.929 247.52C601.913 246.416 603.065 251.6 599.177 252.8ZM631.913 235.088C630.665 231.296 628.361 226.592 626.153 223.904C623.657 220.832 628.361 218.24 630.281 220.976C632.345 223.904 634.505 228.176 635.897 232.16C638.489 230.336 641.225 228.608 644.345 226.88C647.609 225.056 650.105 229.664 646.409 231.536C641.513 234.032 636.569 236.816 632.777 240.032C628.025 244.064 627.881 247.664 631.625 249.488C634.985 251.168 641.849 249.92 644.729 248.864C648.761 247.328 650.201 252.848 645.929 254.048C642.137 255.104 634.121 256.064 629.369 253.664C622.457 250.16 622.745 242.384 630.521 236.192C631.001 235.808 631.433 235.424 631.913 235.088Z" fill="white"/>
<path d="M346 42L318.287 10.5L373.713 10.5L346 42Z" fill="#52AA80"/>
<path d="M346 84L318.287 52.5L373.713 52.5L346 84Z" fill="#52AA80"/>
</svg>
