<svg width="750" height="1214" viewBox="0 0 750 1214" fill="none" xmlns="http://www.w3.org/2000/svg">
<g clip-path="url(#clip0_134_2)">
<rect width="750" height="22745" transform="translate(0 -2530)" fill="white"/>
<g clip-path="url(#clip1_134_2)">
<rect width="750" height="1240" fill="#52AA80"/>
</g>
<path d="M768.941 196.689L747.425 199.348L755.303 183.133L768.941 196.689Z" fill="#EEE7D7" fill-opacity="0.7"/>
<path d="M715.097 452.951L697.294 468.306L689.551 448.309L715.097 452.951Z" fill="#EEE7D7" fill-opacity="0.7"/>
<path d="M677.866 425.094L686.452 412.617L695.685 424.799L677.866 425.094Z" fill="#FA8D1D" fill-opacity="0.7"/>
<path d="M695.655 347.622L704.738 332.816L716.244 346.504L695.655 347.622Z" fill="#FA8D1D" fill-opacity="0.7"/>
<path d="M650.571 277.622L669.321 268.645L669.675 286.11L650.571 277.622Z" fill="#FA8D1D" fill-opacity="0.7"/>
<path d="M729.872 136.781L724.236 156.667L705.501 142.829L729.872 136.781Z" fill="#FA8D1D" fill-opacity="0.7"/>
<path d="M758.552 173.852L744.202 159.193L767.262 156.598L758.552 173.852Z" fill="#FA8D1D" fill-opacity="0.7"/>
<path d="M741.94 512.606L751.756 526.142L732.179 526.165L741.94 512.606Z" fill="#FA8D1D" fill-opacity="0.7"/>
<path d="M663.935 571.983L685.271 562.492L684.892 582.004L663.935 571.983Z" fill="#FA8D1D" fill-opacity="0.7"/>
<path d="M672.824 209.072L645 201.297L667.338 185.93L672.824 209.072Z" fill="#F0B725" fill-opacity="0.7"/>
<path d="M665.718 421.446L671.105 398.379L693.413 413.639L665.718 421.446Z" fill="#F0B725" fill-opacity="0.7"/>
<path d="M710.449 518.93L707.564 495.426L734.481 505.184L710.449 518.93Z" fill="#F0B725" fill-opacity="0.7"/>
<path d="M633.05 1101.86L605.48 1100.92L620.279 1082.32L633.05 1101.86Z" fill="#EEE7D7" fill-opacity="0.7"/>
<path d="M719.446 920.981L722.012 897.684L745.979 911.108L719.446 920.981Z" fill="#EEE7D7" fill-opacity="0.7"/>
<path d="M660.186 760.559L655.796 780.647L636.219 767.565L660.186 760.559Z" fill="#EEE7D7" fill-opacity="0.7"/>
<path d="M590.153 703.486L561.712 703.996L575.379 684.062L590.153 703.486Z" fill="#EEE7D7" fill-opacity="0.7"/>
<path d="M425.498 720.31L405.278 706.982L429.838 699.656L425.498 720.31Z" fill="#EEE7D7" fill-opacity="0.7"/>
<path d="M184.408 693.059L159.828 677.608L188.862 668.324L184.408 693.059Z" fill="#EEE7D7" fill-opacity="0.7"/>
<path d="M106.941 721.689L85.4254 724.348L93.3031 708.133L106.941 721.689Z" fill="#EEE7D7" fill-opacity="0.7"/>
<path d="M124.157 837.387L103.822 842.197L108.78 825.719L124.157 837.387Z" fill="#EEE7D7" fill-opacity="0.7"/>
<path d="M53.0972 977.951L35.2938 993.306L27.5506 973.309L53.0972 977.951Z" fill="#EEE7D7" fill-opacity="0.7"/>
<path d="M152.453 1100.56L166.305 1128.2L129.423 1123.96L152.453 1100.56Z" fill="#EEE7D7" fill-opacity="0.7"/>
<path d="M346.995 1057.43L366.832 1073.6L339.387 1079.24L346.995 1057.43Z" fill="#EEE7D7" fill-opacity="0.7"/>
<path d="M608.455 1105.51L580.422 1132.4L565.299 1099.56L608.455 1105.51Z" fill="#EEE7D7" fill-opacity="0.7"/>
<path d="M15.8663 950.094L24.4516 937.617L33.6846 949.799L15.8663 950.094Z" fill="#FA8D1D" fill-opacity="0.7"/>
<path d="M33.6549 872.622L42.7385 857.816L54.2437 871.504L33.6549 872.622Z" fill="#FA8D1D" fill-opacity="0.7"/>
<path d="M-11.4291 802.622L7.32105 793.645L7.6748 811.11L-11.4291 802.622Z" fill="#FA8D1D" fill-opacity="0.7"/>
<path d="M67.8716 661.781L62.2361 681.667L43.5009 667.829L67.8716 661.781Z" fill="#FA8D1D" fill-opacity="0.7"/>
<path d="M96.5524 698.852L82.202 684.193L105.262 681.598L96.5524 698.852Z" fill="#FA8D1D" fill-opacity="0.7"/>
<path d="M192.53 688.289L187.148 705.71L170.954 693.273L192.53 688.289Z" fill="#FA8D1D" fill-opacity="0.7"/>
<path d="M285.443 666.389L265.786 668.814L272.986 654L285.443 666.389Z" fill="#FA8D1D" fill-opacity="0.7"/>
<path d="M352.023 698.547L365.636 712.863L343.308 715.124L352.023 698.547Z" fill="#FA8D1D" fill-opacity="0.7"/>
<path d="M500.843 657.348L496.921 670.788L484.315 661.357L500.843 657.348Z" fill="#FA8D1D" fill-opacity="0.7"/>
<path d="M652.229 659.633L653.704 670.712L640.953 666.19L652.229 659.633Z" fill="#FA8D1D" fill-opacity="0.7"/>
<path d="M738.799 716.164L747.982 698.074L763 713.473L738.799 716.164Z" fill="#FA8D1D" fill-opacity="0.7"/>
<path d="M686.261 884.465L668.159 869.604L693.317 864.508L686.261 884.465Z" fill="#FA8D1D" fill-opacity="0.7"/>
<path d="M726.098 1057.18L738.675 1044.88L745.715 1059.74L726.098 1057.18Z" fill="#FA8D1D" fill-opacity="0.7"/>
<path d="M601.853 1096.99L623.837 1095.81L614.131 1111.61L601.853 1096.99Z" fill="#FA8D1D" fill-opacity="0.7"/>
<path d="M530.784 1087.52L544.377 1094.31L530.216 1100.31L530.784 1087.52Z" fill="#FA8D1D" fill-opacity="0.7"/>
<path d="M409.509 1058.24L405.493 1042.96L424.063 1047.83L409.509 1058.24Z" fill="#FA8D1D" fill-opacity="0.7"/>
<path d="M274.79 1070.73L289.923 1087.76L263.903 1089.72L274.79 1070.73Z" fill="#FA8D1D" fill-opacity="0.7"/>
<path d="M79.9396 1037.61L89.7556 1051.14L70.1784 1051.17L79.9396 1037.61Z" fill="#FA8D1D" fill-opacity="0.7"/>
<path d="M1.93481 1096.98L23.271 1087.49L22.8923 1107L1.93481 1096.98Z" fill="#FA8D1D" fill-opacity="0.7"/>
<path d="M692.585 1020.85L715.416 1035.85L687.741 1044.15L692.585 1020.85Z" fill="#F0B725" fill-opacity="0.7"/>
<path d="M711.06 823.217L740.483 820.824L728.36 842.378L711.06 823.217Z" fill="#F0B725" fill-opacity="0.7"/>
<path d="M624.804 673.281L653.136 679.659L632.059 696.073L624.804 673.281Z" fill="#F0B725" fill-opacity="0.7"/>
<path d="M340.02 714.545L343.557 691.18L367.111 705.313L340.02 714.545Z" fill="#F0B725" fill-opacity="0.7"/>
<path d="M161.493 713.987L190.482 709.691L180.641 731.898L161.493 713.987Z" fill="#F0B725" fill-opacity="0.7"/>
<path d="M10.8237 734.072L-16.9999 726.297L5.33778 710.93L10.8237 734.072Z" fill="#F0B725" fill-opacity="0.7"/>
<path d="M3.71848 946.446L9.1048 923.379L31.4126 938.639L3.71848 946.446Z" fill="#F0B725" fill-opacity="0.7"/>
<path d="M48.4491 1043.93L45.5641 1020.43L72.481 1030.18L48.4491 1043.93Z" fill="#F0B725" fill-opacity="0.7"/>
<path d="M137.825 1101.07L112.517 1112.91L112.333 1089.48L137.825 1101.07Z" fill="#F0B725" fill-opacity="0.7"/>
<path d="M299.346 1045.92L279.4 1063.67L270.132 1040.99L299.346 1045.92Z" fill="#F0B725" fill-opacity="0.7"/>
<path d="M473.224 1058.56L474.659 1082.4L448.111 1071.47L473.224 1058.56Z" fill="#F0B725" fill-opacity="0.7"/>
<path d="M743.179 1097.72L723.497 1115.37L714.2 1092.92L743.179 1097.72Z" fill="#F0B725" fill-opacity="0.7"/>
<path d="M399 961.912L416.804 977.267L424.547 957.27L399 961.912Z" fill="#EEE7D7" fill-opacity="0.7"/>
<path d="M436.231 934.055L427.646 921.578L418.413 933.76L436.231 934.055Z" fill="#FA8D1D" fill-opacity="0.7"/>
<path d="M448.379 930.406L442.993 907.34L420.685 922.599L448.379 930.406Z" fill="#F0B725" fill-opacity="0.7"/>
<path d="M80.4458 358.981L83.012 335.684L106.979 349.108L80.4458 358.981Z" fill="#EEE7D7" fill-opacity="0.7"/>
<path d="M21.186 198.559L16.7962 218.647L-2.78101 205.565L21.186 198.559Z" fill="#EEE7D7" fill-opacity="0.7"/>
<path d="M13.2287 97.6328L14.7036 108.712L1.95275 104.19L13.2287 97.6328Z" fill="#FA8D1D" fill-opacity="0.7"/>
<path d="M99.7993 154.164L108.982 136.074L124 151.473L99.7993 154.164Z" fill="#FA8D1D" fill-opacity="0.7"/>
<path d="M47.2613 322.465L29.159 307.604L54.3169 302.508L47.2613 322.465Z" fill="#FA8D1D" fill-opacity="0.7"/>
<path d="M87.0982 495.181L99.6747 482.883L106.715 497.737L87.0982 495.181Z" fill="#FA8D1D" fill-opacity="0.7"/>
<path d="M53.5846 458.848L76.4155 473.849L48.7413 482.145L53.5846 458.848Z" fill="#F0B725" fill-opacity="0.7"/>
<path d="M72.0602 261.217L101.483 258.824L89.3604 280.378L72.0602 261.217Z" fill="#F0B725" fill-opacity="0.7"/>
<path d="M-14.1962 111.281L14.1357 117.659L-6.94131 134.073L-14.1962 111.281Z" fill="#F0B725" fill-opacity="0.7"/>
<path d="M104.179 535.715L84.4973 553.371L75.1995 530.922L104.179 535.715Z" fill="#F0B725" fill-opacity="0.7"/>
</g>
<defs>
<clipPath id="clip0_134_2">
<rect width="750" height="22745" fill="white" transform="translate(0 -2530)"/>
</clipPath>
<clipPath id="clip1_134_2">
<rect width="750" height="1214" fill="white"/>
</clipPath>
</defs>
</svg>
