<svg width="573" height="198" viewBox="0 0 573 198" fill="none" xmlns="http://www.w3.org/2000/svg">
<rect x="67.0005" y="65" width="336" height="32" fill="#E89D4F"/>
<path d="M88.2642 48.688L90.2482 55.216C95.4322 53.744 100.616 52.272 104.52 51.248C109.512 49.968 110.344 56.112 106.376 57.008C102.728 57.84 97.4802 59.248 92.0402 60.848C94.0882 67.312 95.9442 73.328 97.1602 77.104C97.9282 79.472 96.5842 81.2 95.0482 81.776C93.5122 82.352 91.5922 81.776 91.0162 79.472C89.9922 75.504 88.2002 69.232 86.1522 62.576C80.4562 64.304 74.8882 66.032 70.9842 67.376C66.7602 68.784 64.8402 62.832 69.6402 61.36C73.3522 60.208 78.7282 58.544 84.4242 56.88C83.7202 54.64 83.0162 52.4 82.3762 50.288C78.4082 51.376 74.5042 52.464 71.1762 53.232C66.5682 54.32 65.3522 48.496 69.5762 47.536C73.0962 46.768 76.8722 45.808 80.6482 44.784C79.3682 40.688 78.1522 37.168 77.3842 34.8C75.9122 30.448 82.4402 29.424 83.4642 32.944C84.1042 35.248 85.2562 38.896 86.5362 43.12C90.1842 42.096 93.6402 40.944 96.6482 39.984C100.808 38.64 102.152 44.464 98.2482 45.68C95.3682 46.576 91.9122 47.664 88.2642 48.688ZM159.88 55.408L159.944 55.344C157.32 56.112 153.544 57.392 149.576 58.8C151.496 65.264 153.8 72.56 155.336 76.784C157.064 81.456 151.176 83.44 149.832 78.96C148.552 74.608 146.376 67.248 144.392 60.656C141.704 61.616 139.208 62.576 137.16 63.344C133.384 64.752 131.784 59.376 135.368 58.16C137.608 57.392 140.104 56.496 142.856 55.536C142.088 53.04 141.448 50.928 140.936 49.328C140.232 47.216 141.32 45.808 142.792 45.488C144.136 45.168 145.8 45.936 146.312 47.664C146.76 49.136 147.4 51.248 148.104 53.744C152.328 52.336 156.744 50.864 161.032 49.52C164.232 48.56 168.2 50.288 166.856 54.256C165.384 58.608 162.504 62.384 159.304 65.2C155.656 68.4 152.072 63.728 155.336 61.04C157.128 59.632 158.92 57.456 159.88 55.408ZM209.224 57.2C209.16 59.376 207.496 60.528 205.832 60.528C204.168 60.528 202.376 59.376 202.504 57.264C202.888 50.928 202.696 40.88 202.376 34.8C202.184 30.832 208.776 30.512 209.032 34.544C209.352 40.304 209.352 51.248 209.224 57.2ZM210.376 81.264C205.128 84.272 202.312 78.256 206.344 76.016C217.672 69.744 220.232 61.168 220.232 51.632C220.232 46.64 219.912 38.704 219.912 33.648C219.912 29.488 226.824 29.744 226.76 33.648C226.632 39.088 226.952 46.256 226.952 51.568C226.952 62.576 223.624 73.648 210.376 81.264ZM277.687 62.064C272.055 68.336 265.143 73.52 256.375 76.848C251.703 78.576 249.527 72.304 254.327 70.64C265.975 66.608 276.087 56.368 281.143 46.832C281.719 45.744 281.463 44.72 280.055 44.72C276.023 44.656 267.191 44.976 261.559 45.104C257.719 45.232 257.463 39.088 261.559 38.896C266.231 38.704 275.639 38.576 282.103 38.576C287.863 38.576 291.127 42.224 288.631 46.576C286.455 50.352 284.151 54 281.527 57.456C286.839 60.656 294.967 66.032 297.911 70.128C300.471 73.712 295.671 78.704 292.663 74.928C289.527 71.024 282.935 65.2 277.687 62.064ZM367.671 38.128C367.671 41.84 364.599 44.848 360.887 44.848C357.175 44.848 354.167 41.84 354.167 38.128C354.167 34.416 357.175 31.344 360.887 31.344C364.599 31.344 367.671 34.416 367.671 38.128ZM331.255 58.224C331.191 61.04 331.127 63.6 331.063 65.392C330.935 68.528 332.343 70.064 336.183 70.576C339.895 71.088 350.263 70.448 354.807 68.848C359.671 67.184 362.423 74.096 356.151 75.76C350.391 77.296 340.599 77.488 333.879 76.656C328.247 75.952 324.855 72.304 324.791 67.056C324.727 60.656 325.175 46.384 325.239 38.768C325.239 34.288 331.831 35.184 331.767 38.96C331.703 42.416 331.575 47.216 331.447 51.952C336.503 50.992 346.807 48.112 351.607 46C356.279 43.952 359.479 50.48 353.975 52.4C347.895 54.448 338.551 57.392 331.255 58.224ZM364.215 38.128C364.215 36.336 362.679 34.8 360.887 34.8C359.095 34.8 357.687 36.336 357.687 38.128C357.687 39.92 359.095 41.328 360.887 41.328C362.679 41.328 364.215 39.92 364.215 38.128ZM442.753 49.776C439.745 47.856 436.481 46.896 432.769 47.088C429.249 47.28 428.993 41.968 433.089 41.584C437.313 41.2 441.793 41.968 444.865 43.824C449.217 46.448 445.889 51.76 442.753 49.776ZM413.889 43.376C410.625 44.016 407.873 43.76 405.441 43.056C401.537 41.968 402.753 36.08 407.297 37.552C409.409 38.256 412.737 38.192 416.065 37.36C416.705 35.248 417.025 33.2 417.345 30.896C417.921 27.12 423.553 27.824 423.425 31.472C423.361 32.432 422.977 33.84 422.529 35.376C423.297 34.992 424.001 34.672 424.577 34.288C427.457 32.24 431.489 36.208 427.393 39.152C425.793 40.304 423.169 41.328 420.545 42.096C417.537 49.328 413.185 57.008 409.089 63.664C406.721 67.504 400.577 65.008 403.393 60.848C406.977 55.536 410.753 50.096 413.889 43.376ZM434.049 73.392C432.193 78.512 424.193 82.992 416.449 79.088C410.497 76.08 409.793 69.168 416.385 66.224C420.353 64.432 424.705 64.304 428.673 65.008C428.673 64.304 428.673 63.6 428.673 62.768C428.673 61.168 428.545 59.568 428.481 57.968C428.417 56.688 428.545 54.896 428.801 53.68C429.569 50.16 435.201 50.992 434.561 54.832C434.369 55.792 434.177 56.496 434.177 57.84C434.177 59.312 434.177 60.912 434.241 62.768C434.305 63.984 434.433 65.328 434.497 66.736C437.889 68.144 440.705 70.128 442.305 71.856C445.953 75.888 440.769 80.432 437.697 76.72C436.737 75.568 435.521 74.416 434.049 73.392ZM428.353 70.384C425.089 69.296 421.633 69.168 418.497 70.704C416.769 71.6 416.641 73.456 418.561 74.416C422.401 76.336 427.585 74.48 428.289 71.024C428.353 70.832 428.289 70.576 428.353 70.384ZM488.257 40.176C487.425 40.304 486.529 40.496 485.505 40.752C482.433 41.52 480.129 37.424 482.817 35.952C483.137 35.76 483.777 35.44 483.329 35.12C481.985 34.288 479.809 33.264 478.785 32.112C476.033 29.104 480.257 25.712 483.457 28.016C484.609 28.848 486.785 29.808 488.641 31.024C490.497 32.24 492.161 33.776 492.289 35.696C492.417 37.552 491.457 39.664 488.257 40.176ZM496.705 77.616C494.017 79.28 489.985 80.752 485.761 81.584C480.577 82.608 478.913 76.272 484.353 75.184C487.681 74.544 490.945 73.584 492.929 72.432C499.969 68.336 501.889 63.92 500.545 61.36C499.201 58.8 494.529 57.84 487.745 60.912C483.969 62.64 479.937 65.648 479.169 66.416C475.393 70.064 472.833 68.272 471.681 66.032C470.529 63.792 470.657 59.824 471.169 55.152C471.681 50.48 472.513 45.552 473.025 42.288C473.665 38.192 479.489 38.32 478.913 42.928C478.593 45.616 477.889 49.2 477.377 52.272C476.865 55.408 476.545 57.776 476.993 58.928C477.185 59.44 477.505 59.44 478.081 59.12C479.361 58.416 482.369 56.752 485.377 55.472C504.705 47.088 518.337 64.368 496.705 77.616ZM39.1907 175.28L39.2547 147.376H29.1427C27.1587 147.376 26.1347 145.904 26.1347 144.432C26.1347 142.96 27.1587 141.488 29.1427 141.488L39.2547 141.552L39.1907 125.872C39.1907 123.632 40.8547 122.48 42.5187 122.48C44.1187 122.48 45.7827 123.632 45.7827 125.872L45.7187 141.552L57.4947 141.488C59.6067 141.488 60.6947 142.96 60.6947 144.432C60.6947 145.904 59.6067 147.376 57.4947 147.376H45.7187L45.7827 175.28C45.7827 177.456 44.1187 178.544 42.4547 178.544C40.7907 178.544 39.1907 177.456 39.1907 175.28ZM25.6867 157.936C25.4947 163.44 21.1427 164.208 16.0227 164.208C14.7427 164.208 13.4627 164.144 12.2467 164.016C9.11074 163.696 6.87074 161.328 6.80674 157.872C6.74274 153.584 6.67874 149.104 6.67874 144.624C6.67874 140.912 6.74274 137.2 6.80674 133.616C6.93474 127.728 12.1187 127.728 15.7027 127.728C17.1107 127.728 18.4547 127.728 19.7347 127.792C23.2547 127.92 25.6227 130.16 25.6867 133.36C25.8147 137.584 25.8787 142.064 25.8787 146.48C25.8787 150.384 25.8147 154.224 25.6867 157.936ZM19.7347 134.832C19.6067 132.912 17.9427 132.848 16.0867 132.848C14.6147 132.848 12.6947 133.04 12.6947 134.896C12.5667 138.672 12.5027 142.64 12.5027 146.608C12.5027 150.064 12.5667 153.52 12.6947 156.784C12.7587 158.448 13.5267 158.768 16.2147 158.768C18.6467 158.768 19.6707 158.32 19.7347 156.656C19.8627 153.072 19.9267 149.36 19.9267 145.712C19.9267 142 19.8627 138.352 19.7347 134.832ZM100.823 134.768C97.0467 133.424 92.6307 130.608 91.2867 129.52C88.0227 126.896 91.8627 122.736 95.6387 125.104C97.8147 126.448 100.439 127.856 103.639 128.944C108.311 130.544 105.239 136.304 100.823 134.768ZM90.9027 162.288C93.3347 161.392 97.0467 161.52 98.9027 165.552C99.9907 167.92 101.527 169.904 104.599 169.776C107.415 169.648 111.831 169.008 114.711 167.728C119.575 165.552 121.879 172.144 116.759 174.064C112.919 175.472 106.839 176.24 102.231 175.6C98.0067 174.96 95.3827 172.912 93.8467 169.008C92.4387 165.552 87.7027 165.04 83.5427 171.696C81.3027 175.28 79.4467 175.6 78.1667 175.664C76.0547 175.792 73.1747 173.68 75.9907 170.48C78.1027 168.048 81.4307 164.4 83.6707 162.416C85.9107 160.432 87.7027 158.448 89.7507 156.464C92.6947 153.584 96.8547 149.296 100.055 145.584C100.759 144.752 100.311 144.88 99.7347 145.136C94.9987 147.44 90.5187 149.296 86.5507 150.192C81.1107 151.408 80.2147 144.752 84.6307 144.112C87.5107 143.664 92.5027 142.384 95.8947 141.104C97.5587 140.464 99.0947 139.696 100.887 139.44C106.199 138.736 110.103 143.536 106.775 146.992C103.767 150.192 94.1027 159.088 90.9027 162.288ZM162.007 136.176C161.175 136.304 160.279 136.496 159.255 136.752C156.183 137.52 153.879 133.424 156.567 131.952C156.887 131.76 157.527 131.44 157.079 131.12C155.735 130.288 153.559 129.264 152.535 128.112C149.783 125.104 154.007 121.712 157.207 124.016C158.359 124.848 160.535 125.808 162.391 127.024C164.247 128.24 165.911 129.776 166.039 131.696C166.167 133.552 165.207 135.664 162.007 136.176ZM170.455 173.616C167.767 175.28 163.735 176.752 159.511 177.584C154.327 178.608 152.663 172.272 158.103 171.184C161.431 170.544 164.695 169.584 166.679 168.432C173.719 164.336 175.639 159.92 174.295 157.36C172.951 154.8 168.279 153.84 161.495 156.912C157.719 158.64 153.687 161.648 152.919 162.416C149.143 166.064 146.583 164.272 145.431 162.032C144.279 159.792 144.407 155.824 144.919 151.152C145.431 146.48 146.263 141.552 146.775 138.288C147.415 134.192 153.239 134.32 152.663 138.928C152.343 141.616 151.639 145.2 151.127 148.272C150.615 151.408 150.295 153.776 150.743 154.928C150.935 155.44 151.255 155.44 151.831 155.12C153.111 154.416 156.119 152.752 159.127 151.472C178.455 143.088 192.087 160.368 170.455 173.616ZM210.967 161.648C209.623 163.952 208.471 166.384 207.447 168.24C204.567 173.296 198.103 169.392 201.623 165.232C201.815 164.976 202.007 164.784 202.135 164.656C204.951 160.816 209.111 155.248 211.671 150.384C211.799 149.104 211.863 147.888 211.991 146.608C210.519 147.12 208.727 147.888 207.127 148.912C202.711 151.728 200.727 145.456 204.183 143.856C206.487 142.768 209.559 141.488 212.567 140.336C213.015 135.536 213.527 131.248 213.847 128.432C214.359 124.208 220.375 125.552 219.735 129.072C219.287 131.376 218.839 134.576 218.391 138.288C220.439 138.032 222.231 139.952 221.271 142.96C222.039 142.256 222.807 141.552 223.511 140.976C233.431 132.848 242.711 133.424 241.879 146.16C241.623 150 240.599 156.784 240.279 160.432C239.639 167.728 243.415 166.96 247.703 162.416C250.967 158.96 254.999 163.632 252.311 166.64C244.183 175.536 232.727 174.512 234.199 160.368C234.519 156.976 235.671 150.064 235.863 146.224C236.055 141.68 235.095 138.224 226.135 145.648C223.063 148.208 220.055 150.512 216.983 153.968C216.599 161.072 216.663 168.112 217.495 172.976C218.263 177.392 211.543 178.864 211.031 173.488C210.775 170.672 210.775 166.448 210.967 161.648ZM294.167 169.264C295.383 169.008 296.727 168.24 297.879 167.216C302.551 163.056 302.359 156.976 298.711 154.544C295.383 152.304 288.471 151.856 282.007 155.632C279.447 157.104 278.103 158.256 276.631 160.432C274.327 163.824 267.927 160.048 271.895 156.144C278.935 149.168 284.119 144.24 291.223 135.472C291.927 134.576 291.287 134.832 290.775 135.088C288.983 136.048 284.759 137.328 280.023 138.352C274.967 139.44 274.007 133.104 278.359 132.592C282.647 132.08 288.791 130.544 292.439 129.456C297.559 127.984 301.783 132.528 298.583 136.112C296.535 138.416 293.975 140.912 291.415 143.28C288.855 145.648 286.295 147.952 283.991 150.192C289.623 147.184 297.239 147.184 301.975 150C311.191 155.504 308.183 166.768 301.463 171.632C295.127 176.176 285.143 176.432 280.279 173.232C273.495 168.816 276.503 160.88 284.055 160.624C289.175 160.432 293.975 163.504 294.167 169.264ZM288.727 170.224C288.791 167.28 287.063 165.04 284.247 165.296C281.431 165.552 281.303 168.176 283.351 169.264C284.823 170.032 286.935 170.288 288.727 170.224ZM371.351 170.8C364.439 176.24 351.639 177.648 351.767 165.552C351.767 162.608 352.215 160.816 352.087 157.936C351.767 150.832 342.039 156.848 340.247 160.048C338.711 162.8 336.919 165.616 336.215 168.752C335.063 173.68 333.655 174 332.375 174.192C330.135 174.512 327.127 172.976 328.599 169.264C331.479 162.032 335.127 155.632 338.839 149.872C342.551 144.112 345.879 138.672 349.015 133.68C350.103 131.888 351.831 129.648 352.535 128.368C354.647 124.592 360.599 127.792 358.487 131.824C357.975 132.72 357.527 133.424 357.015 134.064C356.503 134.704 355.863 135.408 355.159 136.24C352.087 139.696 350.039 142.384 348.375 144.752C346.711 147.12 345.431 149.168 344.023 151.28C343.575 151.92 343.767 151.792 344.215 151.408C346.519 149.36 357.591 146.352 358.487 157.168C358.679 159.664 358.167 161.84 358.167 164.208C358.167 169.904 363.671 169.2 367.447 165.808C370.711 162.864 372.119 159.792 373.271 156.848C375.127 152.112 381.847 155.376 379.415 160.176C377.623 163.696 375.127 167.856 371.351 170.8ZM438.386 147.12C437.49 146.096 434.162 143.856 432.818 143.344C429.362 142 431.858 137.904 434.994 138.928C436.786 139.504 440.242 141.232 441.778 142.768C444.466 145.456 440.69 149.68 438.386 147.12ZM431.794 152.944C430.898 151.92 427.698 149.488 426.354 148.912C422.962 147.44 425.522 143.472 428.658 144.624C430.45 145.264 433.906 147.056 435.378 148.656C438.002 151.472 434.034 155.568 431.794 152.944ZM425.65 175.344C406.322 175.28 399.666 157.552 406.642 144.688C407.282 143.472 407.858 142.448 408.69 141.36C409.714 140.016 409.394 140.08 408.178 140.464C403.378 142 404.466 142 400.114 143.664C398.066 144.432 396.274 145.072 394.354 145.584C388.722 147.12 386.994 139.76 392.114 138.672C393.458 138.352 397.17 137.648 399.218 137.136C402.354 136.368 407.986 135.088 414.514 133.232C421.106 131.376 426.29 129.84 431.922 129.456C435.89 129.2 436.978 132.336 436.274 134.384C435.89 135.472 434.482 136.752 430.002 136.496C426.738 136.304 422.706 137.52 420.53 138.288C416.946 139.568 413.682 143.408 412.274 145.776C406.642 155.184 410.93 168.624 425.266 168.112C431.986 167.856 432.434 175.408 425.65 175.344ZM479.794 162.928C475.57 165.104 470.002 163.888 467.954 158.128C465.714 151.92 469.17 147.312 473.074 146.096C474.93 145.52 476.85 145.264 478.578 145.52C478.514 144.112 478.45 142.192 478.386 140.336C473.01 140.848 467.698 141.616 464.37 142.128C459.762 142.832 456.754 143.664 454.834 143.984C450.546 144.752 449.266 138.352 454.322 137.52C456.882 137.072 461.042 136.624 463.73 136.176C466.93 135.664 472.69 134.96 478.322 134.448C478.322 134.064 478.322 133.616 478.322 133.296C478.386 129.328 478.002 129.072 478.002 127.024C478.002 122.352 484.466 122.8 484.722 126.832C484.786 128.304 484.594 131.248 484.466 132.976C484.466 133.296 484.402 133.616 484.402 133.936C486.258 133.808 487.922 133.744 489.33 133.744C492.466 133.744 494.706 133.68 499.058 133.744C504.434 133.872 504.178 140.656 499.058 140.272C494.514 139.888 492.978 139.888 489.01 139.824C487.538 139.824 486.002 139.888 484.338 139.952C484.402 142 484.466 143.984 484.466 145.84C484.466 146.736 484.594 148.08 484.658 149.488C490.354 158.448 483.57 172.016 476.786 177.456C472.498 180.848 466.93 176.304 472.498 172.336C475.57 170.16 478.258 166.576 479.794 162.928ZM479.73 152.496C479.41 152.112 479.09 151.728 478.706 151.408C477.81 150.64 475.954 150.512 474.61 151.152C473.074 151.856 472.05 153.84 472.754 156.016C473.906 159.472 479.474 159.472 480.114 154.928C480.306 153.584 480.114 153.008 479.73 152.496ZM537.842 160.112V160.048C537.842 159.664 537.842 159.216 537.842 158.704C537.842 152.496 537.202 137.584 536.818 127.536C536.818 127.472 536.818 127.408 536.818 127.344C536.818 124.976 538.674 123.824 540.53 123.824C542.45 123.824 544.37 125.04 544.37 127.536C544.37 135.088 543.346 152.688 543.346 158.896C543.346 160.432 543.346 163.12 540.53 163.12C539.186 163.12 537.842 162.096 537.842 160.112ZM545.01 172.08C545.01 175.152 542.322 176.304 540.594 176.304C538.162 176.304 536.178 174.256 536.178 172.08C536.178 169.264 538.866 167.664 540.594 167.664C543.09 167.664 545.01 169.2 545.01 172.08Z" fill="white"/>
<circle cx="83.0005" cy="6" r="6" fill="white"/>
<circle cx="144" cy="6" r="6" fill="white"/>
<circle cx="212" cy="6" r="6" fill="white"/>
<circle cx="279" cy="6" r="6" fill="white"/>
<circle cx="346" cy="6" r="6" fill="white"/>
</svg>
