<svg width="584" height="275" viewBox="0 0 584 275" fill="none" xmlns="http://www.w3.org/2000/svg">
<rect width="584" height="275" rx="24" fill="#52AA80"/>
<path d="M209.313 56.4L201.441 56.368V62.992C201.441 63.536 201.025 63.824 200.609 63.824C200.161 63.824 199.745 63.536 199.745 62.992V56.368H193.441C192.865 59.76 191.041 62.544 185.313 63.952C185.153 63.984 185.025 64.016 184.897 64.016C184.321 64.016 184.033 63.632 184.033 63.248C184.033 62.896 184.257 62.512 184.673 62.416C189.505 61.232 191.233 59.216 191.777 56.368L184.225 56.4C183.681 56.4 183.425 56.048 183.425 55.664C183.425 55.28 183.713 54.864 184.225 54.864L191.937 54.896C191.969 54.384 191.969 53.872 191.969 53.328V52.624C191.969 52.08 192.385 51.824 192.801 51.824C193.217 51.824 193.665 52.112 193.665 52.656C193.665 53.424 193.665 54.16 193.601 54.896H199.745V52.368C199.745 51.824 200.161 51.536 200.577 51.536C201.025 51.536 201.441 51.824 201.441 52.368V54.896L209.313 54.864C209.857 54.864 210.113 55.248 210.113 55.632C210.113 56.016 209.857 56.4 209.313 56.4ZM209.313 40.752H207.617C207.265 42.8 206.369 44.944 204.801 46.736C206.209 47.92 207.873 48.784 209.825 49.2C210.273 49.296 210.465 49.584 210.465 49.904C210.465 50.32 210.081 50.8 209.537 50.8C208.737 50.8 206.337 49.968 203.841 47.696C201.313 50 198.369 50.544 197.889 50.544C197.377 50.544 197.121 50.16 197.121 49.808C197.121 49.52 197.281 49.232 197.633 49.168C199.873 48.656 201.569 47.792 202.849 46.704C201.633 45.392 200.609 43.856 200.097 42.288C198.625 44.592 198.273 44.688 197.921 44.688C197.505 44.688 197.089 44.368 197.089 43.984C197.089 43.856 197.153 43.696 197.313 43.536C199.137 41.68 200.545 38.768 201.057 36.656C201.153 36.272 201.441 36.112 201.729 36.112C202.145 36.112 202.561 36.4 202.561 36.848C202.561 37.072 202.337 37.872 201.633 39.408L209.313 39.344C209.793 39.344 210.017 39.696 210.017 40.048C210.017 40.4 209.793 40.752 209.313 40.752ZM189.633 50.096L189.665 42.224C188.641 42.224 187.681 42.256 187.041 42.288C186.209 42.32 185.761 42.992 185.729 43.728C185.697 44.528 185.665 45.392 185.665 46.32C185.665 47.76 185.697 49.296 185.729 50.704C185.729 51.216 185.345 51.44 184.961 51.44C184.577 51.44 184.193 51.216 184.193 50.736V48.56C184.193 46.8 184.193 45.072 184.225 43.632C184.257 42.224 185.057 41.168 186.689 41.104C187.425 41.072 188.481 41.072 189.569 41.072L189.537 36.752C189.537 36.304 189.921 36.08 190.305 36.08C190.689 36.08 191.073 36.304 191.073 36.752L191.041 41.072C192.129 41.072 193.121 41.072 193.857 41.104C196.385 41.2 196.385 43.184 196.385 44.176V46.256C196.417 46.8 196.417 47.6 196.417 48.176V48.304C196.417 49.744 195.905 50.928 193.889 50.928C192.769 50.928 191.873 50.832 191.873 50.064C191.873 49.68 192.097 49.328 192.513 49.328H192.641C193.089 49.424 193.569 49.52 193.953 49.52C194.529 49.52 194.977 49.264 194.977 48.304C194.977 47.28 194.977 45.104 194.945 43.728C194.945 42.96 194.593 42.32 193.633 42.288C192.993 42.256 192.001 42.224 190.945 42.224L190.977 50.096C190.977 50.512 190.657 50.736 190.305 50.736C189.985 50.736 189.633 50.512 189.633 50.096ZM206.113 40.752H200.961L200.929 40.848C201.473 42.64 202.433 44.368 203.777 45.776C205.089 44.304 205.793 42.512 206.113 40.752ZM192.993 40.944C192.609 40.944 192.257 40.688 192.257 40.336C192.257 40.208 192.289 40.048 192.449 39.888C193.121 39.152 194.081 37.968 194.529 37.232C194.657 37.008 194.849 36.944 195.041 36.944C195.489 36.944 195.969 37.328 195.969 37.776C195.969 38.192 193.825 40.944 192.993 40.944ZM187.297 40.848C187.105 40.848 186.913 40.752 186.753 40.528C186.177 39.664 185.025 38.64 184.609 38.352C184.449 38.224 184.385 38.096 184.385 37.936C184.385 37.584 184.801 37.2 185.249 37.2C185.633 37.2 188.097 39.184 188.097 39.984C188.097 40.432 187.681 40.848 187.297 40.848ZM186.689 48.24C186.337 48.24 186.017 48.016 186.017 47.696C186.017 47.536 186.081 47.376 186.209 47.216C186.881 46.448 187.521 45.296 187.841 44.272C187.937 44.016 188.129 43.888 188.385 43.888C188.705 43.888 189.089 44.144 189.089 44.528C189.089 44.656 187.873 48.24 186.689 48.24ZM193.601 47.536C193.377 47.536 193.185 47.408 193.057 47.12C192.769 46.384 192.001 45.36 191.553 44.88C191.457 44.752 191.393 44.624 191.393 44.496C191.393 44.24 191.617 43.984 191.969 43.984C192.929 43.984 194.337 46.448 194.337 46.8C194.337 47.216 193.953 47.536 193.601 47.536ZM241.857 62.32H225.409C224.865 62.32 224.609 61.936 224.609 61.552C224.609 61.168 224.865 60.784 225.409 60.784L232.897 60.816L232.865 48.208L227.457 48.24C226.945 48.24 226.657 47.856 226.657 47.44C226.657 47.056 226.945 46.672 227.457 46.672L232.865 46.704V37.648C232.865 37.104 233.313 36.816 233.729 36.816C234.177 36.816 234.625 37.104 234.625 37.648L234.593 46.704L240.513 46.672C241.057 46.672 241.345 47.056 241.345 47.44C241.345 47.856 241.057 48.24 240.513 48.24L234.593 48.208V60.816L241.857 60.784C242.401 60.784 242.657 61.168 242.657 61.552C242.657 61.936 242.401 62.32 241.857 62.32ZM220.417 63.152L220.513 50.864C218.593 52.752 216.129 54.512 215.425 54.512C214.945 54.512 214.561 54.096 214.561 53.68C214.561 53.392 214.689 53.136 215.041 52.944C220.641 49.936 224.193 44.24 224.193 43.152C224.193 42.736 223.905 42.512 223.457 42.512C221.569 42.512 218.177 42.608 216.225 42.672H216.193C215.713 42.672 215.457 42.32 215.457 41.936C215.457 41.584 215.713 41.2 216.193 41.2L220.449 41.104L220.417 37.2C220.417 36.656 220.865 36.4 221.281 36.4C221.729 36.4 222.177 36.656 222.177 37.2V41.104H223.873C225.313 41.136 226.017 41.808 226.017 42.768C226.017 44.176 223.905 47.12 222.081 49.232C222.113 52.24 222.177 63.152 222.177 63.152C222.177 63.632 221.729 63.856 221.313 63.856C220.865 63.856 220.417 63.632 220.417 63.152ZM227.457 53.904C227.233 53.904 226.977 53.776 226.785 53.52C226.049 52.496 224.417 51.248 223.489 50.736C223.297 50.64 223.201 50.448 223.201 50.288C223.201 49.936 223.521 49.584 223.969 49.584C224.577 49.584 228.321 51.92 228.321 53.008C228.321 53.52 227.905 53.904 227.457 53.904ZM255.617 47.696L254.081 47.888C252.769 48.048 251.553 48.144 250.753 48.144C250.177 48.144 249.889 47.728 249.889 47.344C249.889 46.928 250.177 46.512 250.721 46.48C251.777 46.448 252.769 46.448 253.953 46.352L256.033 46.128C256.449 44.624 256.961 42.352 257.281 40.272C257.345 39.728 257.793 39.472 258.209 39.472C258.657 39.472 259.105 39.792 259.105 40.336C259.105 40.816 258.497 44.016 257.889 45.936C260.385 45.712 260.417 45.712 260.513 45.712C263.521 45.712 264.225 47.92 264.225 50.352C264.225 58.128 261.249 60.88 258.017 60.88C256.769 60.88 255.105 60.56 255.105 59.6C255.105 59.152 255.457 58.736 256.001 58.736C256.097 58.736 256.193 58.736 256.289 58.768C256.929 58.96 257.537 59.056 258.113 59.056C262.049 59.056 262.529 52.816 262.529 50.512C262.529 48.464 262.145 47.248 260.225 47.248C259.745 47.248 258.881 47.312 257.473 47.472C255.873 52.592 253.633 57.104 251.073 60.72C250.753 61.168 250.337 61.36 249.953 61.36C249.441 61.36 249.025 61.04 249.025 60.56C249.025 60.304 249.121 59.984 249.441 59.632C251.649 57.136 254.049 52.464 255.617 47.696ZM273.537 52.72C273.217 52.72 272.865 52.528 272.705 52.08C271.969 50.128 270.017 47.536 267.361 46.096C267.105 45.968 266.977 45.744 266.977 45.52C266.977 45.136 267.329 44.752 267.809 44.752C269.345 44.752 274.465 49.68 274.465 51.696C274.465 52.304 274.017 52.72 273.537 52.72ZM274.849 42.064C274.657 42.064 274.465 42 274.305 41.808C273.633 41.072 272.033 40.08 271.041 39.696C270.721 39.568 270.593 39.344 270.593 39.12C270.593 38.8 270.913 38.448 271.425 38.448C272.001 38.448 275.617 39.952 275.617 41.232C275.617 41.712 275.233 42.064 274.849 42.064ZM272.289 44.528C272.097 44.528 271.905 44.432 271.745 44.24C271.073 43.472 269.505 42.448 268.545 42.064C268.257 41.936 268.129 41.744 268.129 41.52C268.129 41.2 268.449 40.848 268.929 40.848C269.569 40.848 273.057 42.48 273.057 43.696C273.057 44.144 272.673 44.528 272.289 44.528ZM303.777 44.24C303.745 45.68 302.785 46.576 300.833 46.672C299.905 46.704 298.657 46.736 297.441 46.736C292.161 46.736 291.233 46.48 291.233 43.44C291.233 42.16 291.265 40.72 291.329 39.504C291.393 38.192 292.385 37.136 294.305 37.072C295.233 37.04 296.385 37.008 297.537 37.008C298.689 37.008 299.873 37.04 300.769 37.072C302.561 37.136 303.585 38.096 303.681 39.28C303.777 40.304 303.809 41.456 303.809 42.608C303.809 43.152 303.809 43.728 303.777 44.24ZM303.969 55.76L298.337 55.728V61.328C299.265 61.488 300.289 61.584 301.441 61.584C302.817 61.584 304.353 61.456 306.081 61.296H306.177C306.625 61.296 306.881 61.68 306.881 62.096C306.881 62.48 306.625 62.896 306.081 62.928C304.513 63.088 303.105 63.152 301.825 63.152C296.321 63.152 293.377 61.68 292.193 57.712C290.785 61.52 288.001 63.728 287.233 63.728C286.721 63.728 286.401 63.28 286.401 62.864C286.401 62.64 286.497 62.416 286.721 62.256C290.113 59.92 291.201 56.72 291.489 53.232C291.521 52.624 291.937 52.368 292.321 52.368C292.737 52.368 293.185 52.688 293.185 53.2C293.185 53.328 293.121 54.096 292.897 55.248C293.313 58.32 294.561 60.048 296.705 60.88V50.288L289.921 50.32C289.473 50.32 289.217 49.968 289.217 49.616C289.217 49.264 289.473 48.912 289.921 48.912H305.537C306.017 48.912 306.241 49.264 306.241 49.616C306.241 49.968 306.017 50.32 305.537 50.32L298.337 50.288V54.256H303.969C304.481 54.256 304.705 54.64 304.705 54.992C304.705 55.376 304.481 55.76 303.969 55.76ZM283.553 50.32L283.521 44.176L279.809 44.208C279.329 44.208 279.073 43.824 279.073 43.44C279.073 43.056 279.329 42.672 279.809 42.672H283.521V36.976C283.521 36.4 283.937 36.144 284.353 36.144C284.769 36.144 285.185 36.4 285.185 36.976V42.672H288.289C288.769 42.672 289.025 43.056 289.025 43.408C289.025 43.824 288.769 44.208 288.257 44.208L285.185 44.176V49.52C286.049 49.072 286.881 48.656 287.681 48.144C287.777 48.08 287.873 48.048 288.001 48.048C288.385 48.048 288.769 48.432 288.769 48.848C288.769 49.296 288.321 49.648 285.185 51.216C285.185 53.808 285.153 55.856 285.153 56.4C285.153 56.912 285.185 59.184 285.217 60.304V60.368C285.217 62.128 284.225 63.376 281.793 63.376C280.673 63.376 279.329 63.28 279.329 62.352C279.329 61.936 279.617 61.52 280.065 61.52H280.193C280.769 61.616 281.313 61.712 281.825 61.712C282.785 61.712 283.489 61.36 283.521 60.208C283.521 59.248 283.553 55.856 283.553 51.984C283.393 52.048 280.097 53.552 279.649 53.552C279.137 53.552 278.817 53.168 278.817 52.784C278.817 52.464 279.009 52.176 279.393 52.016C280.833 51.472 282.241 50.896 283.553 50.32ZM302.177 43.92V42.416H292.833V43.536C292.833 45.424 293.537 45.424 297.249 45.424C301.281 45.424 302.113 45.392 302.177 43.92ZM292.833 41.168H302.177C302.177 38.32 302.145 38.32 298.113 38.32C296.801 38.32 295.425 38.32 294.529 38.352C293.121 38.384 292.833 39.056 292.833 41.168ZM337.793 54.768H320.065C319.553 54.768 319.297 54.384 319.297 54C319.297 53.648 319.553 53.264 320.065 53.264L324.225 53.296V45.104L321.025 45.136C320.513 45.136 320.225 44.752 320.225 44.368C320.225 44.016 320.513 43.632 321.025 43.632L324.225 43.664L324.193 37.776C324.193 37.232 324.641 36.976 325.057 36.976C325.505 36.976 325.953 37.232 325.953 37.776L325.921 43.664H331.169V37.776C331.169 37.232 331.585 36.976 332.033 36.976C332.449 36.976 332.897 37.232 332.897 37.776L332.865 43.664L336.769 43.632C337.281 43.632 337.537 44.016 337.537 44.4C337.537 44.752 337.281 45.136 336.769 45.136L332.865 45.104L332.833 53.296L337.793 53.264C338.305 53.264 338.561 53.648 338.561 54.032C338.561 54.384 338.305 54.768 337.793 54.768ZM337.761 63.472C336.545 63.472 330.625 58.832 330.625 57.552C330.625 57.104 331.041 56.752 331.457 56.752C331.681 56.752 331.905 56.848 332.065 57.072C333.857 59.248 335.873 60.72 338.177 61.776C338.529 61.936 338.689 62.224 338.689 62.512C338.689 62.992 338.305 63.472 337.761 63.472ZM314.945 63.184V63.152L315.425 46.128C312.161 50.416 311.297 50.48 311.009 50.48C310.529 50.48 310.177 50.096 310.177 49.648C310.177 49.424 310.273 49.168 310.497 48.976C313.761 46.064 316.993 41.808 318.753 37.264C318.913 36.88 319.201 36.72 319.521 36.72C320.001 36.72 320.545 37.136 320.545 37.648C320.545 38.32 318.785 41.264 317.089 43.792L316.737 63.152C316.705 63.664 316.257 63.92 315.809 63.92C315.361 63.92 314.945 63.696 314.945 63.184ZM326.785 57.648C326.785 58.8 320.513 63.696 319.233 63.696C318.689 63.696 318.305 63.248 318.305 62.8C318.305 62.512 318.465 62.224 318.849 62.032C321.281 60.912 323.521 59.28 325.313 57.072C325.473 56.88 325.697 56.784 325.889 56.784C326.337 56.784 326.785 57.2 326.785 57.648ZM331.201 53.296L331.169 45.104H325.921V53.296H331.201ZM358.401 48.56L358.369 47.952L358.273 44.304C355.265 44.56 352.257 44.976 350.401 45.264C348.097 45.648 346.369 46.032 345.377 46.192C345.313 46.192 345.249 46.224 345.185 46.224C344.641 46.224 344.289 45.744 344.289 45.296C344.289 44.88 344.577 44.464 345.217 44.336C346.241 44.176 352.961 43.152 358.241 42.704V41.456C358.209 39.408 358.145 39.216 358.113 38.192V38.16C358.113 37.52 358.561 37.2 359.041 37.2C360.065 37.2 360.065 38.224 360.065 38.512C360.065 39.28 360.001 40.496 359.969 41.232C359.937 41.68 359.937 42.128 359.937 42.576C361.153 42.48 362.241 42.416 363.137 42.416C363.937 42.384 364.641 42.384 365.441 42.384C366.209 42.384 367.073 42.384 368.193 42.416C368.993 42.416 369.377 42.928 369.377 43.376C369.377 43.824 369.025 44.272 368.321 44.272H368.161C367.393 44.208 365.921 44.112 362.209 44.112C361.473 44.112 360.705 44.144 359.905 44.176C359.905 45.36 359.937 46.64 359.969 47.888C359.969 48.432 360.033 49.232 360.065 50.064C360.769 51.12 361.057 52.368 361.057 53.648C361.057 58.704 356.417 63.984 354.945 63.984C354.433 63.984 354.049 63.632 354.049 63.184C354.049 62.864 354.241 62.512 354.657 62.224C356.897 60.624 358.817 57.616 359.329 54.896C358.561 55.92 357.377 56.496 356.161 56.496C353.857 56.496 352.385 54.384 352.385 52.24C352.385 49.456 354.657 48.208 356.641 48.208C357.281 48.208 357.889 48.304 358.401 48.56ZM358.593 50.704L358.369 50.48C357.857 49.968 357.217 49.712 356.545 49.712C355.649 49.712 353.953 50.256 353.953 52.272C353.953 53.328 354.529 54.864 356.257 54.864C357.921 54.864 358.721 53.232 358.721 51.728C358.721 51.28 358.657 50.96 358.593 50.704ZM389.311 60.624C392.351 60.112 394.687 57.616 394.687 54.992C394.687 52.08 392.063 50.8 389.247 50.8C385.983 50.8 382.527 52.496 380.735 54.992C380.543 55.28 380.223 55.408 379.935 55.408C379.423 55.408 378.943 55.024 378.943 54.512C378.943 54.256 379.071 53.936 379.391 53.616C385.119 47.984 390.143 42.128 390.143 41.84C390.143 41.808 390.111 41.776 390.047 41.776C389.983 41.776 389.919 41.776 389.823 41.808C388.095 42.352 382.687 43.44 382.495 43.44C381.887 43.44 381.535 43.024 381.535 42.576C381.535 42.192 381.823 41.776 382.431 41.712C384.671 41.456 388.383 40.656 390.015 40.24C390.271 40.176 390.527 40.144 390.751 40.144C391.647 40.144 392.287 40.624 392.287 41.36C392.287 41.968 392.095 42.416 388.511 46.16L384.095 50.736C385.695 49.904 387.711 49.392 389.695 49.392C394.047 49.392 396.479 51.92 396.479 54.896C396.479 58.864 392.767 62.256 387.615 62.256C383.871 62.256 381.727 60.528 381.727 58.608C381.727 57.392 382.655 55.856 385.215 55.856C387.423 55.856 389.311 57.296 389.311 60.4V60.624ZM387.679 60.784V60.56C387.679 58.448 386.815 57.232 385.311 57.232C383.487 57.232 383.295 58.416 383.295 58.608C383.295 59.696 384.703 60.784 387.231 60.784H387.679ZM77.408 164.952H74.048C73.952 165.912 73.792 166.808 73.568 167.64C75.264 168.312 75.84 168.728 75.84 169.528C75.84 170.296 75.232 171.064 74.464 171.064C74.208 171.064 73.952 171 73.696 170.808C73.344 170.584 72.992 170.36 72.608 170.168C70.368 174.744 66.336 176.12 65.792 176.12C64.992 176.12 64.448 175.416 64.448 174.712C64.448 174.232 64.704 173.752 65.344 173.496C67.648 172.632 69.248 171.16 70.208 169.176C69.472 168.92 68.704 168.728 68 168.536C67.36 168.376 67.104 167.928 67.104 167.48C67.104 166.84 67.616 166.2 68.48 166.2C68.896 166.2 70.912 166.744 71.04 166.776C71.168 166.2 71.232 165.624 71.296 164.984C69.664 165.016 68 165.016 66.72 165.048H66.688C65.856 165.048 65.44 164.44 65.44 163.832C65.44 163.192 65.888 162.52 66.752 162.52C69.024 162.52 72.8 162.456 75.616 162.456C76.576 162.456 77.408 162.456 78.016 162.488C79.584 162.52 81.216 163.128 81.216 165.72C81.216 173.912 78.464 175.608 75.36 175.608C74.56 175.608 73.728 175.48 72.864 175.256C72.032 175.064 71.648 174.392 71.648 173.752C71.648 173.08 72.096 172.472 72.928 172.472C73.12 172.472 73.344 172.504 73.568 172.568C74.112 172.76 74.656 172.856 75.136 172.856C76.16 172.856 76.992 172.376 77.472 171.224C78.016 169.912 78.272 167.256 78.272 165.976C78.272 165.432 78.144 164.952 77.408 164.952ZM81.312 185.944C80.832 185.944 80.352 185.688 80.032 185.048C79.392 183.8 78.56 182.936 77.664 182.232C77.28 181.912 77.12 181.56 77.12 181.24C77.12 180.568 77.76 179.992 78.56 179.992C79.872 179.992 82.848 182.808 82.848 184.28C82.848 185.208 82.08 185.944 81.312 185.944ZM62.56 164.152H56.192C55.328 164.152 54.912 163.512 54.912 162.872C54.912 162.232 55.328 161.592 56.192 161.592H62.56C63.424 161.592 63.872 162.232 63.872 162.872C63.872 163.512 63.424 164.152 62.56 164.152ZM74.72 180.408C74.432 180.408 74.112 180.28 73.856 179.96C72.992 178.904 71.648 178.296 71.04 178.008C70.592 177.784 70.4 177.432 70.4 177.08C70.4 176.44 71.072 175.736 71.872 175.736C72.032 175.736 76.192 176.92 76.192 178.808C76.192 179.672 75.456 180.408 74.72 180.408ZM63.264 168.536H55.136C54.208 168.536 53.76 167.896 53.76 167.224C53.76 166.584 54.208 165.912 55.136 165.912H63.264C64.192 165.912 64.64 166.552 64.64 167.224C64.64 167.864 64.192 168.536 63.264 168.536ZM72.096 180.536V180.568C72.064 181.528 72 182.872 72 183.992C72 185.688 72.128 186.04 73.728 186.04C75.36 186.04 75.744 185.592 75.744 184.664C75.744 183.768 76.384 183.352 77.024 183.352C77.312 183.352 78.624 183.448 78.624 184.984C78.624 188.44 75.936 188.696 73.12 188.696C71.008 188.696 69.184 188.376 69.184 185.368C69.184 184.216 69.216 181.976 69.248 180.568C69.28 179.736 69.952 179.352 70.624 179.352C71.36 179.352 72.096 179.8 72.096 180.536ZM62.624 172.696H56.256C55.392 172.696 54.976 172.056 54.976 171.416C54.976 170.776 55.392 170.136 56.256 170.136H62.624C63.488 170.136 63.936 170.776 63.936 171.416C63.936 172.056 63.488 172.696 62.624 172.696ZM62.624 176.824H56.256C55.392 176.824 54.976 176.184 54.976 175.544C54.976 174.904 55.392 174.264 56.256 174.264H62.624C63.488 174.264 63.936 174.904 63.936 175.544C63.936 176.184 63.488 176.824 62.624 176.824ZM63.552 186.584C62.944 187.928 61.856 188.088 58.976 188.088C58.24 188.088 57.536 188.056 56.896 188.024C55.456 187.928 54.56 186.904 54.528 185.496C54.528 184.664 54.496 183.864 54.496 183.096C54.496 182.328 54.528 181.592 54.528 180.888C54.56 179.672 55.328 178.552 56.864 178.456C57.568 178.424 58.272 178.392 58.912 178.392C59.744 178.392 60.512 178.424 61.248 178.456C62.464 178.52 63.776 179.352 63.808 180.728C63.84 181.464 63.84 182.296 63.84 183.128C63.84 183.96 63.84 184.76 63.808 185.464C63.808 185.592 63.808 185.688 63.776 185.816C63.808 185.752 63.84 185.688 63.904 185.624C64.896 184.44 65.472 183.16 65.728 181.912C65.888 181.208 66.4 180.92 66.912 180.92C67.616 180.92 68.32 181.4 68.32 182.136C68.32 182.2 67.264 187.8 64.992 187.8C64.256 187.8 63.584 187.288 63.552 186.584ZM60.224 180.792H57.984C57.12 180.792 57.088 181.368 57.088 183.192C57.088 183.768 57.12 184.344 57.12 184.824C57.152 185.272 57.344 185.592 59.104 185.592C60.448 185.592 61.12 185.4 61.152 184.792C61.184 184.344 61.184 183.768 61.184 183.224C61.184 182.648 61.184 182.072 61.152 181.624C61.12 181.144 60.736 180.792 60.224 180.792ZM109.888 187.448C109.216 187.48 108.416 187.512 107.584 187.512C104.32 187.512 101.792 187.48 101.696 183.992C101.632 181.592 101.6 179 101.6 176.408C101.6 173.784 101.632 171.192 101.696 168.824C101.792 165.688 104.416 165.656 107.2 165.656C108.128 165.656 109.088 165.656 109.952 165.688C111.904 165.752 113.28 166.968 113.344 169.048C113.44 171.32 113.472 173.848 113.472 176.408C113.472 178.968 113.44 181.528 113.344 183.896C113.28 185.912 112.128 187.32 109.888 187.448ZM99.36 175.96H95.488C95.424 176.888 95.328 177.784 95.136 178.648C96.992 179.8 100.896 182.808 100.896 184.504C100.896 185.496 100.032 186.296 99.2 186.296C98.72 186.296 98.24 186.072 97.92 185.464C97.152 184.088 95.616 182.392 94.336 181.336C93.248 184.024 91.36 186.392 88.224 188.44C87.808 188.696 87.424 188.824 87.072 188.824C86.144 188.824 85.472 188.088 85.472 187.32C85.472 186.84 85.728 186.36 86.304 186.008C90.72 183.32 92.192 179.992 92.512 175.96H87.936C86.976 175.96 86.528 175.288 86.528 174.616C86.528 173.912 87.008 173.176 87.936 173.176H92.608C92.608 168.44 92.608 168.44 92.608 168.44L91.104 168.472C89.76 171.768 88.96 172.44 87.904 172.44C87.104 172.44 86.4 171.928 86.4 171.192C86.4 170.872 86.496 170.552 86.784 170.168C88.576 167.768 89.472 164.792 89.888 162.072C89.984 161.432 90.56 161.144 91.168 161.144C92 161.144 92.928 161.656 92.928 162.456C92.928 162.616 92.896 163.032 92.096 165.688H98.656C99.584 165.688 100.064 166.392 100.064 167.096C100.064 167.8 99.616 168.472 98.72 168.472C98.688 168.472 98.688 168.472 98.656 168.472L95.552 168.408C95.584 169.88 95.584 171.8 95.584 173.176H99.36C100.256 173.176 100.704 173.88 100.704 174.552C100.704 175.256 100.256 175.96 99.36 175.96ZM110.304 183.128C110.368 181.112 110.4 178.712 110.4 176.344C110.4 173.976 110.368 171.64 110.304 169.752C110.272 168.6 110.048 168.28 107.552 168.28C104.864 168.28 104.768 168.76 104.736 169.752C104.64 171.608 104.608 173.88 104.608 176.152C104.608 178.648 104.64 181.176 104.736 183.224C104.768 184.408 105.152 184.696 107.68 184.696C109.664 184.696 110.272 184.344 110.304 183.128ZM136.32 169.528C135.936 169.528 135.552 169.336 135.2 168.888C134.4 167.832 133.184 166.808 132.448 166.296C132.096 166.04 131.936 165.752 131.936 165.464C131.936 164.792 132.704 164.12 133.536 164.12C134.4 164.12 137.792 166.296 137.792 167.896C137.792 168.792 137.088 169.528 136.32 169.528ZM139.104 187.896L139.168 180.536L131.52 182.68C131.328 182.744 131.168 182.744 131.008 182.744C130.144 182.744 129.664 182.072 129.664 181.368C129.664 180.792 130.016 180.216 130.752 179.992L139.168 177.624L139.104 162.456C139.104 161.528 139.84 161.08 140.608 161.08C141.376 161.08 142.176 161.56 142.176 162.456L142.112 176.824L145.248 175.928C145.408 175.896 145.568 175.864 145.696 175.864C146.528 175.864 147.072 176.6 147.072 177.304C147.072 177.848 146.752 178.392 146.048 178.584L142.112 179.672L142.176 187.896C142.176 188.728 141.408 189.144 140.64 189.144C139.872 189.144 139.104 188.728 139.104 187.896ZM136 176.184C135.648 176.184 135.296 176.024 134.944 175.672C134.016 174.712 132.704 173.848 132 173.4C131.552 173.144 131.36 172.76 131.36 172.408C131.36 171.768 132 171.128 132.928 171.128C134.048 171.128 136.352 172.792 136.928 173.368C137.312 173.752 137.472 174.168 137.472 174.584C137.472 175.448 136.8 176.184 136 176.184ZM126.784 187.768V187.8C126.784 188.696 126.016 189.144 125.216 189.144C124.416 189.144 123.648 188.696 123.648 187.8V187.768L123.776 177.592C122.688 179.32 121.408 180.92 120.256 182.168C119.872 182.552 119.456 182.744 119.04 182.744C118.176 182.744 117.408 182.008 117.408 181.24C117.408 180.856 117.568 180.504 117.952 180.152C119.68 178.616 122.272 175.48 123.808 172.536L123.776 171.864L120.032 171.96H120C119.04 171.96 118.592 171.288 118.592 170.584C118.592 169.88 119.072 169.176 120.032 169.176H123.744L123.68 166.008C123.072 166.104 120.928 166.488 120.576 166.488C119.616 166.488 119.104 165.752 119.104 165.048C119.104 164.408 119.52 163.768 120.384 163.672C123.392 163.384 125.568 162.872 128.32 161.784C128.512 161.72 128.672 161.688 128.832 161.688C129.664 161.688 130.272 162.392 130.272 163.16C130.272 164.28 129.056 164.696 126.752 165.336C126.72 166.008 126.72 167.448 126.688 169.176H129.952C130.912 169.176 131.392 169.88 131.392 170.584C131.392 171.288 130.912 171.96 129.984 171.96H129.952L126.624 171.896V173.464C126.752 173.432 126.848 173.432 126.944 173.432C128.128 173.432 130.752 175.736 130.912 175.928C131.232 176.28 131.36 176.632 131.36 177.016C131.36 177.816 130.688 178.552 129.952 178.552C129.6 178.552 129.248 178.392 128.928 178.008C128.384 177.304 127.424 176.504 126.624 175.928C126.656 180.76 126.784 187.768 126.784 187.768ZM166.048 164.472C166.048 165.336 165.12 166.072 164.288 166.072C163.84 166.072 163.424 165.848 163.2 165.304C162.752 164.12 162.048 163.416 161.312 162.552C161.12 162.328 161.024 162.072 161.024 161.848C161.024 161.176 161.824 160.6 162.656 160.6C164.288 160.6 166.048 163.736 166.048 164.472ZM173.344 172.216V170.456C173.344 169.112 172.64 168.888 171.328 168.856C168.768 168.824 165.888 168.792 163.104 168.792C160.832 168.792 158.592 168.824 156.608 168.856C154.848 168.888 154.56 169.336 154.464 170.456C154.464 170.456 154.464 170.456 154.464 172.312V172.344C154.464 173.24 153.664 173.752 152.832 173.752C152.096 173.752 151.328 173.304 151.296 172.312C151.296 171.896 151.264 171.416 151.264 170.904C151.264 170.36 151.296 169.816 151.296 169.336C151.36 167.832 152.544 166.296 155.04 166.264L157.728 166.232C157.568 166.136 157.44 165.976 157.312 165.784C156.64 164.664 155.936 164.248 155.072 163.48C154.784 163.224 154.656 162.936 154.656 162.648C154.656 161.944 155.456 161.272 156.288 161.272C157.504 161.272 160 163.704 160 164.824C160 165.4 159.584 165.944 159.072 166.232C161.888 166.2 164.672 166.2 167.488 166.2C168.416 165.144 169.248 163.288 169.76 161.976C170.048 161.24 170.624 160.952 171.2 160.952C172.096 160.952 173.024 161.624 173.024 162.52C173.024 163.128 172 164.696 170.688 166.232C171.424 166.232 172.192 166.264 172.928 166.264C174.816 166.296 176.576 167.32 176.64 169.304C176.672 169.752 176.672 170.424 176.672 171.032C176.672 171.48 176.672 171.896 176.64 172.216C176.576 173.144 175.744 173.624 174.944 173.624C174.112 173.624 173.344 173.176 173.344 172.28C173.344 172.248 173.344 172.248 173.344 172.216ZM176.64 180.728L168.064 180.696C168.128 181.144 168.16 181.624 168.16 182.104C168.16 184.984 166.816 189.336 161.248 189.336C158.752 189.336 157.408 188.664 157.408 187.416C157.408 186.616 158.016 185.912 158.912 185.912C159.072 185.912 159.232 185.912 159.424 185.976C160.128 186.2 160.864 186.328 161.536 186.328C165.12 186.328 165.12 182.04 165.12 181.784C165.12 181.4 165.088 181.048 165.024 180.696L151.456 180.76C150.464 180.76 149.984 180.056 149.984 179.352C149.984 178.616 150.496 177.88 151.424 177.88L163.264 177.944C162.88 177.688 162.464 177.432 161.984 177.272C161.312 177.048 161.024 176.632 161.024 176.216C161.024 175.544 161.76 174.872 162.72 174.872C163.424 174.872 164.096 175.224 164.608 175.512C165.44 174.968 167.136 173.784 167.136 173.4C167.136 173.272 167.008 173.208 166.784 173.208C166.432 173.176 165.824 173.176 165.088 173.176C163.04 173.176 159.936 173.24 157.696 173.336C157.664 173.336 157.664 173.336 157.632 173.336C156.672 173.336 156.192 172.664 156.192 171.992C156.192 171.352 156.672 170.68 157.664 170.648C159.04 170.584 160.768 170.584 162.464 170.584C164.8 170.584 167.136 170.616 168.608 170.648C170.432 170.68 171.2 171.608 171.2 172.6C171.2 174.168 169.504 175.48 166.624 177.272C166.784 177.496 166.944 177.72 167.072 177.944L176.608 177.848C177.536 177.848 178.016 178.584 178.016 179.32C178.016 180.024 177.568 180.728 176.64 180.728ZM196.48 165.24L196.416 165.368C196.928 165.176 197.408 164.984 197.76 164.792C199.52 163.736 201.248 166.392 198.88 167.576C198.08 167.96 196.704 168.344 195.36 168.632C194.944 169.656 194.4 170.808 193.824 171.864C196.032 171.48 198.144 172.28 199.2 174.648C200.512 173.976 201.856 173.304 203.104 172.76C203.872 172.44 204.736 172.056 205.6 171.576C208 170.232 209.44 173.432 207.392 174.456C206.368 174.968 205.632 175.128 203.936 175.768C202.592 176.28 201.152 176.92 199.872 177.528C199.968 178.584 200 179.896 199.936 181.048C199.872 182.328 199.04 183 198.24 183.032C197.44 183.064 196.704 182.456 196.8 181.208C196.832 180.536 196.864 179.8 196.864 179.128C196.576 179.288 196.288 179.448 196.032 179.608C192.064 182.168 192.544 184.088 194.336 184.984C196.032 185.848 199.168 185.208 200.672 184.728C203.488 183.864 204.384 187.32 201.44 188.088C199.552 188.568 195.2 189.048 192.704 187.64C188.384 185.208 189.152 180.888 194.944 177.08C195.392 176.792 195.904 176.44 196.512 176.088C195.648 173.4 193.184 173.72 191.104 176.12C191.072 176.152 191.008 176.216 190.976 176.248C190.688 176.6 190.464 176.888 190.24 177.08C188.48 178.648 186.144 176.824 188.064 175.096C188.896 174.328 189.984 173.176 190.656 172.088C191.2 171.192 191.712 170.232 192.16 169.24C190.432 169.496 189.216 169.4 188.192 168.888C185.888 167.736 187.456 164.728 189.696 166.232C190.304 166.648 191.584 166.488 192.704 166.296C192.832 166.264 193.024 166.264 193.184 166.232C193.408 165.304 193.472 164.664 193.536 163.544C193.664 161.624 196.672 161.816 196.736 163.384C196.768 164.024 196.64 164.632 196.48 165.24ZM226.464 179.768C226.4 180.696 226.4 181.56 226.432 182.36C226.624 186.936 231.616 186.744 233.28 183.192C234.4 180.792 233.504 178.68 231.712 176.728C230.048 174.904 232.8 173.208 234.208 174.84C236.704 177.72 237.6 180.76 236.384 183.992C234.08 190.072 223.872 191.128 223.616 182.584C223.584 181.688 223.584 180.728 223.648 179.736C222.496 179.64 221.6 179.448 221.184 179.352C218.592 178.648 219.584 175.608 221.408 176.216C222.144 176.44 222.976 176.632 223.872 176.696C224 175.288 224.16 173.88 224.32 172.44C223.104 172.28 222.08 172.056 221.664 171.896C219.232 171.064 220.64 168.12 222.336 168.824C223.04 169.112 223.84 169.336 224.64 169.432C224.672 169.048 224.736 168.632 224.768 168.248C224.96 166.232 225.024 165.016 225.12 163.512C225.28 161.272 228.32 161.784 228.32 163.672C228.32 165.176 228 166.392 227.776 168.28C227.744 168.664 227.68 169.048 227.648 169.432C227.936 169.4 228.192 169.336 228.448 169.272C230.528 168.792 231.072 171.64 229.184 172.184C228.544 172.376 227.904 172.44 227.232 172.504C227.04 173.944 226.88 175.32 226.752 176.664C227.296 176.6 227.808 176.504 228.288 176.376C230.4 175.8 231.2 178.616 229.312 179.256C228.448 179.544 227.456 179.704 226.464 179.768ZM257.536 174.392C256.704 171.864 255.168 168.728 253.696 166.936C252.032 164.888 255.168 163.16 256.448 164.984C257.824 166.936 259.264 169.784 260.192 172.44C261.92 171.224 263.744 170.072 265.824 168.92C268 167.704 269.664 170.776 267.2 172.024C263.936 173.688 260.64 175.544 258.112 177.688C254.944 180.376 254.848 182.776 257.344 183.992C259.584 185.112 264.16 184.28 266.08 183.576C268.768 182.552 269.728 186.232 266.88 187.032C264.352 187.736 259.008 188.376 255.84 186.776C251.232 184.44 251.424 179.256 256.608 175.128C256.928 174.872 257.216 174.616 257.536 174.392ZM300.576 171.256C298.272 170.776 295.84 170.68 293.152 171.352C291.392 171.8 290.368 168.952 292.704 168.376C295.552 167.672 298.88 167.64 301.12 168.184C303.36 168.728 302.752 171.736 300.576 171.256ZM302.304 185.848C298.88 186.712 293.632 186.616 291.328 184.12C290.016 182.68 291.936 180.408 293.6 181.912C295.328 183.48 299.168 182.968 301.664 182.456C304.256 181.912 304.416 185.304 302.304 185.848ZM285.376 187.384C284.576 188.088 283.392 187.96 282.752 186.392C280.192 180.088 282.72 170.616 283.296 166.808C283.648 164.44 286.752 165.144 286.4 167C285.888 169.592 283.968 177.112 284.736 180.088C284.832 180.504 284.96 180.408 285.088 180.12C285.152 179.96 285.504 179.32 285.632 179.096C286.624 177.528 288.608 179.064 287.872 180.344C286.688 182.424 286.176 183.896 285.984 184.824C285.792 185.688 286.176 186.68 285.376 187.384ZM325.376 167.864V167.992C325.408 168.056 325.408 168.152 325.408 168.248C326.016 176.088 331.776 182.904 337.12 184.888C338.016 185.208 338.368 185.816 338.368 186.456C338.368 187.416 337.536 188.408 336.256 188.408C333.536 188.408 326.784 182.584 324 175.288C322.208 180.824 318.592 185.752 312.48 188.6C312.16 188.76 311.84 188.824 311.552 188.824C310.496 188.824 309.696 187.96 309.696 187.064C309.696 186.456 310.048 185.88 310.88 185.496C321.792 180.632 322.08 169.4 322.08 167C322.08 166.04 322.016 164.952 321.952 163.992C321.952 163.96 321.952 163.928 321.952 163.896C321.952 162.84 322.848 162.296 323.744 162.296C324.608 162.296 325.504 162.84 325.504 163.992C325.504 165.112 325.472 166.488 325.376 167.864ZM365.92 172.472C365.344 172.504 364.512 172.536 363.584 172.536C359.808 172.536 357.152 172.536 357.056 169.72C357.024 169.08 357.024 168.376 357.024 167.704C357.024 166.584 357.056 165.432 357.088 164.312C357.152 162.872 358.304 161.848 359.936 161.784C360.544 161.752 361.888 161.752 363.136 161.752C364.064 161.752 364.96 161.752 365.504 161.784C367.872 161.912 368.864 163.192 368.864 164.632C368.864 165.432 368.864 166.232 368.864 167.032C368.864 171.832 368.928 176.792 368.928 180.856C368.928 182.36 368.96 183.704 368.96 184.824C368.96 187.096 367.84 189.08 364.192 189.08C361.952 189.08 360.8 188.792 360.8 187.384C360.8 186.648 361.248 185.976 362.048 185.976C362.144 185.976 362.208 186.008 362.304 186.008C362.912 186.104 363.488 186.2 364 186.2C365.056 186.2 365.856 185.816 365.888 184.248C365.92 182.968 365.952 181.592 365.952 180.152C365.952 178.008 365.92 175.8 365.92 173.784C365.92 173.336 365.92 172.888 365.92 172.472ZM361.696 182.616C361.632 184.216 360.384 185.496 358.656 185.624C357.792 185.688 356.832 185.72 355.904 185.72C354.944 185.72 353.984 185.688 353.12 185.624C351.2 185.464 350.016 184.312 349.952 182.648C349.92 182.2 349.92 181.656 349.92 181.112C349.92 179.672 349.984 178.008 350.048 176.728C350.144 175.32 351.072 173.976 353.056 173.88C353.888 173.848 354.784 173.816 355.648 173.816C356.704 173.816 357.76 173.848 358.688 173.88C360.256 173.944 361.504 175.16 361.6 176.504C361.696 177.624 361.728 179.032 361.728 180.344C361.728 181.176 361.728 181.944 361.696 182.616ZM346.112 187.8C346.112 188.728 345.344 189.176 344.576 189.176C343.808 189.176 343.04 188.728 343.04 187.864C343.04 187.832 343.04 187.832 343.04 187.8C343.264 181.944 343.2 171.832 343.264 164.888C343.264 161.752 345.472 161.752 348.736 161.752C349.952 161.752 351.232 161.752 351.84 161.784C353.472 161.848 354.688 162.872 354.752 164.312C354.784 165.432 354.816 166.584 354.816 167.704C354.816 171.736 354.752 172.536 348.448 172.536C347.616 172.536 346.816 172.504 346.24 172.472C346.24 173.304 346.24 174.296 346.24 175.352C346.24 178.808 346.208 183.288 346.112 187.8ZM359.84 166.104H365.856C365.856 164.152 365.792 164.12 362.848 164.12C360.288 164.12 359.936 164.12 359.872 165.144C359.872 165.432 359.84 165.784 359.84 166.104ZM365.92 170.168V168.216H359.84C359.84 168.568 359.872 168.888 359.872 169.176C359.904 170.072 360 170.2 363.392 170.2C364.448 170.2 365.472 170.2 365.92 170.168ZM346.24 166.104H352C352 165.752 351.968 165.432 351.968 165.112C351.904 164.216 351.744 164.12 349.184 164.12C346.56 164.12 346.336 164.216 346.272 165.368C346.272 165.592 346.24 165.848 346.24 166.104ZM352 168.216H346.24V170.168C346.688 170.2 347.648 170.2 348.608 170.2C351.712 170.2 351.936 170.072 351.968 169.176C351.968 168.888 352 168.568 352 168.216ZM352.448 178.424H359.104C359.104 178.04 359.04 177.72 359.04 177.432C358.976 176.248 358.368 176.152 356.192 176.152C355.392 176.152 354.528 176.152 353.76 176.184C352.864 176.216 352.544 176.856 352.512 177.464C352.512 177.752 352.448 178.072 352.448 178.424ZM359.136 180.696H352.416C352.416 183.192 352.448 183.224 355.744 183.224C358.112 183.224 359.04 183.192 359.104 181.944C359.104 181.592 359.136 181.144 359.136 180.696ZM389.536 169.048C389.888 169.368 390.08 169.88 389.984 170.52C389.472 174.584 386.592 180.632 383.52 183.48C381.056 185.752 378.368 184.504 376.96 181.752C374.944 177.784 377.088 171.832 381.376 168.856C385.312 166.136 391.168 165.688 395.2 168.12C400.16 171.096 400.96 176.984 398.176 181.56C396.672 184.024 393.536 186.008 390.368 186.84C387.552 187.576 386.56 184.344 389.312 183.704C391.744 183.16 394.208 181.784 395.264 180.12C397.536 176.536 396.672 172.344 393.504 170.328C392.256 169.528 390.912 169.144 389.536 169.048ZM387.008 169.208C385.536 169.528 384.096 170.2 382.88 171.128C379.904 173.432 378.304 177.688 379.648 180.152C380.128 181.08 380.96 181.56 381.76 180.856C384.16 178.744 386.4 173.656 386.72 170.2C386.752 169.816 386.848 169.464 387.008 169.208ZM431.84 187.992H416.768C415.776 187.992 415.296 187.288 415.296 186.584C415.296 185.912 415.776 185.208 416.768 185.208L422.432 185.24V174.328L416.32 174.36C415.36 174.36 414.88 173.656 414.88 172.952C414.88 172.216 415.36 171.512 416.32 171.512L422.432 171.544V163.48C422.432 162.488 423.232 162.008 424.032 162.008C424.832 162.008 425.632 162.488 425.632 163.48V171.544L432.8 171.512C433.76 171.512 434.24 172.216 434.24 172.952C434.24 173.656 433.76 174.36 432.8 174.36L425.632 174.328V185.24L431.84 185.208C432.8 185.208 433.28 185.912 433.28 186.616C433.28 187.288 432.8 187.992 431.84 187.992ZM410.208 187.576L410.624 172.92C408.416 175.512 407.552 176.088 406.784 176.088C405.92 176.088 405.248 175.416 405.248 174.68C405.248 174.296 405.44 173.912 405.824 173.56C408.928 170.84 411.68 167.096 413.376 162.808C413.664 162.104 414.208 161.816 414.784 161.816C415.68 161.816 416.576 162.488 416.576 163.384C416.576 164.248 414.624 167.384 413.76 168.728L413.408 187.576C413.408 188.536 412.576 189.016 411.776 189.016C410.976 189.016 410.208 188.568 410.208 187.64C410.208 187.608 410.208 187.608 410.208 187.576ZM465.504 187.928H449.536C448.608 187.928 448.16 187.256 448.16 186.584C448.16 185.88 448.608 185.208 449.536 185.208H452.128C452.128 180.408 452.064 167.192 452.064 165.208C452.064 162.04 454.336 161.976 458.112 161.976C459.008 161.976 459.936 162.008 460.736 162.04C462.848 162.136 464.16 163.096 464.192 165.208C464.192 165.208 464.192 165.208 464.192 185.208H465.504C466.432 185.208 466.912 185.912 466.912 186.584C466.912 187.256 466.432 187.928 465.504 187.928ZM442.976 187.672V187.64L443.072 176.536C441.44 176.76 439.488 176.984 439.296 176.984C438.528 176.984 438.112 176.344 438.112 175.704C438.112 175.128 438.464 174.552 439.136 174.52C439.52 174.488 440 174.456 440.544 174.424C441.12 173.752 441.792 172.952 442.432 172.056C441.44 171.032 439.552 169.592 438.816 169.08C438.4 168.792 438.208 168.408 438.208 168.024C438.208 167.384 438.752 166.776 439.488 166.776C439.68 166.776 439.872 166.84 440.352 167.064C441.248 165.656 442.368 163.288 442.816 161.592C442.976 160.952 443.52 160.696 444.096 160.696C444.864 160.696 445.696 161.208 445.696 162.008C445.696 162.488 444.48 165.624 442.432 168.568C442.944 168.984 443.456 169.464 443.872 169.848C444.896 168.184 445.792 166.488 446.304 165.24C446.528 164.664 447.008 164.44 447.488 164.44C448.256 164.44 449.088 165.016 449.088 165.848C449.088 166.904 445.952 171.576 444 174.104C445.216 173.976 446.4 173.848 447.2 173.752C447.072 173.528 446.88 173.304 446.752 173.144C446.56 172.888 446.464 172.632 446.464 172.376C446.464 171.8 447.04 171.352 447.68 171.352C449.248 171.352 450.848 174.968 450.848 175.8C450.848 176.728 450.144 177.336 449.44 177.336C448.672 177.336 448.48 176.92 448.128 175.704C447.616 175.8 446.784 175.96 445.824 176.12L445.888 187.64C445.888 188.6 445.12 189.112 444.384 189.112C443.68 189.112 442.976 188.632 442.976 187.672ZM450.752 182.936C450.752 183.832 450.016 184.376 449.28 184.376C448.736 184.376 448.192 184.056 448.064 183.288C447.84 182.008 447.328 180.76 446.688 179.736C446.528 179.48 446.464 179.256 446.464 179.032C446.464 178.424 447.008 178.008 447.648 178.008C449.536 178.008 450.752 182.456 450.752 182.936ZM440.192 186.296C439.872 186.776 439.392 187 438.944 187C438.24 187 437.536 186.488 437.536 185.752C437.536 185.496 437.6 185.208 437.792 184.92C438.656 183.512 439.456 181.24 439.648 179.384C439.744 178.616 440.288 178.264 440.864 178.264C441.568 178.264 442.272 178.776 442.272 179.672C442.272 180.632 441.28 184.632 440.192 186.296ZM455.008 169.4H461.216C461.216 167.512 461.184 166.104 461.184 165.656C461.152 164.92 460.704 164.632 460 164.632C459.456 164.6 458.784 164.6 458.112 164.6C457.408 164.6 456.736 164.6 456.192 164.632C455.488 164.632 455.072 164.92 455.04 165.656C455.008 166.168 455.008 167.576 455.008 169.4ZM461.248 176.952L461.216 172.12H455.008V176.952H461.248ZM461.248 185.208V179.672H455.008V185.208H461.248ZM482.944 175.128H483.104C485.504 175.224 487.872 175.768 490.048 176.536C490.24 175.224 490.112 174.04 489.6 173.176C488.704 171.672 491.584 170.456 492.64 172.44C493.344 173.72 493.44 175.64 492.96 177.752C494.624 178.552 496.128 179.512 497.376 180.472C499.392 182.04 497.216 184.984 495.392 183.32C494.336 182.36 493.184 181.496 491.904 180.728C490.72 183.128 488.704 185.528 485.824 187.224C483.584 188.536 481.984 186.04 484.064 184.76C486.464 183.288 488.128 181.304 489.12 179.352C486.752 178.36 484.224 177.784 481.664 177.752C480.48 180.216 479.392 182.2 477.568 183.608C475.648 185.112 472.832 185.304 471.456 183.608C469.824 181.56 471.008 178.232 474.688 176.6C476.384 175.864 478.176 175.416 479.936 175.224C481.056 172.824 482.528 169.912 483.424 167.896C483.616 167.448 483.712 167.192 483.232 167.32C481.984 167.64 480.768 168.056 479.456 168.088C477.344 168.152 477.44 165.176 479.36 165.048C480.64 164.984 482.592 164.504 483.968 164.248C486.88 163.672 488.16 165.56 486.72 167.896C485.376 170.136 484.096 172.728 482.944 175.128ZM478.56 178.008C477.728 178.136 476.768 178.392 475.584 178.968C474.752 179.384 473.248 180.728 473.792 181.528C474.176 182.072 475.328 181.88 475.904 181.432C476.96 180.632 477.824 179.32 478.56 178.008ZM516.48 165.24L516.416 165.368C516.928 165.176 517.408 164.984 517.76 164.792C519.52 163.736 521.248 166.392 518.88 167.576C518.08 167.96 516.704 168.344 515.36 168.632C514.944 169.656 514.4 170.808 513.824 171.864C516.032 171.48 518.144 172.28 519.2 174.648C520.512 173.976 521.856 173.304 523.104 172.76C523.872 172.44 524.736 172.056 525.6 171.576C528 170.232 529.44 173.432 527.392 174.456C526.368 174.968 525.632 175.128 523.936 175.768C522.592 176.28 521.152 176.92 519.872 177.528C519.968 178.584 520 179.896 519.936 181.048C519.872 182.328 519.04 183 518.24 183.032C517.44 183.064 516.704 182.456 516.8 181.208C516.832 180.536 516.864 179.8 516.864 179.128C516.576 179.288 516.288 179.448 516.032 179.608C512.064 182.168 512.544 184.088 514.336 184.984C516.032 185.848 519.168 185.208 520.672 184.728C523.488 183.864 524.384 187.32 521.44 188.088C519.552 188.568 515.2 189.048 512.704 187.64C508.384 185.208 509.152 180.888 514.944 177.08C515.392 176.792 515.904 176.44 516.512 176.088C515.648 173.4 513.184 173.72 511.104 176.12C511.072 176.152 511.008 176.216 510.976 176.248C510.688 176.6 510.464 176.888 510.24 177.08C508.48 178.648 506.144 176.824 508.064 175.096C508.896 174.328 509.984 173.176 510.656 172.088C511.2 171.192 511.712 170.232 512.16 169.24C510.432 169.496 509.216 169.4 508.192 168.888C505.888 167.736 507.456 164.728 509.696 166.232C510.304 166.648 511.584 166.488 512.704 166.296C512.832 166.264 513.024 166.264 513.184 166.232C513.408 165.304 513.472 164.664 513.536 163.544C513.664 161.624 516.672 161.816 516.736 163.384C516.768 164.024 516.64 164.632 516.48 165.24ZM53.472 238.896H35.648C34.72 238.896 34.304 238.288 34.304 237.68C34.304 237.008 34.784 236.336 35.648 236.336H43.68V233.2H38.848C37.92 233.2 37.472 232.592 37.472 231.984C37.472 231.344 37.952 230.672 38.848 230.672H43.68V227.536C42.784 227.536 41.92 227.504 41.088 227.472C38.848 227.376 37.76 226.128 37.696 224.368C37.664 223.056 37.632 221.616 37.632 220.176C37.632 218.736 37.664 217.296 37.696 216.016C37.76 214.576 38.688 213.104 41.12 213.008C42.4 212.944 43.744 212.944 45.152 212.944C46.528 212.944 47.968 212.944 49.376 213.008C51.52 213.072 52.768 214.448 52.832 215.984C52.896 217.424 52.928 218.928 52.928 220.432C52.928 221.712 52.896 223.056 52.832 224.336C52.736 226 51.424 227.376 49.376 227.472C48.448 227.504 47.52 227.536 46.592 227.536V230.672H51.68C52.576 230.672 52.992 231.312 52.992 231.92C52.992 232.56 52.576 233.2 51.68 233.2H46.592V236.336H53.472C54.336 236.336 54.752 236.976 54.752 237.616C54.752 238.256 54.336 238.896 53.472 238.896ZM30.272 230.928V224.592H27.84C26.944 224.592 26.528 223.952 26.528 223.312C26.528 222.608 27.008 221.904 27.84 221.904H30.272V217.008H27.36C26.464 217.008 26.048 216.368 26.048 215.728C26.048 215.024 26.528 214.32 27.36 214.32H35.904C36.736 214.32 37.152 214.992 37.152 215.664C37.152 216.336 36.736 217.008 35.904 217.008H33.088V221.904H35.328C36.16 221.904 36.576 222.576 36.576 223.248C36.576 223.92 36.16 224.592 35.328 224.592H33.088V229.968C33.92 229.648 34.72 229.296 35.488 228.944C35.744 228.816 35.968 228.784 36.224 228.784C36.992 228.784 37.568 229.392 37.568 230.064C37.568 230.512 37.28 231.024 36.576 231.344C33.568 232.72 28.288 234.8 27.104 234.8C26.176 234.8 25.696 234.064 25.696 233.328C25.696 232.72 26.048 232.112 26.784 231.92C27.968 231.6 29.12 231.28 30.272 230.928ZM46.592 218.96H50.016C50.016 218.16 50.016 217.36 49.984 216.592C49.92 215.28 49.184 215.28 46.592 215.28V218.96ZM50.048 221.296H46.592V225.104C47.264 225.104 47.968 225.104 48.608 225.072C49.984 225.008 50.048 224.56 50.048 221.296ZM43.68 218.96V215.312C43.04 215.312 42.432 215.312 41.888 215.344C40.48 215.376 40.416 216.08 40.416 218.96H43.68ZM43.68 225.104V221.296H40.416C40.416 222.128 40.448 222.992 40.48 223.824C40.544 225.104 41.504 225.104 43.68 225.104ZM81.632 215.92H79.136C78.4 221.488 73.792 223.696 72.8 223.696C71.936 223.696 71.424 222.96 71.424 222.256C71.424 221.808 71.648 221.392 72.096 221.168C74.912 219.888 75.936 217.968 76.288 215.92C75.264 215.92 74.24 215.952 73.184 215.984H73.152C72.288 215.984 71.84 215.344 71.84 214.704C71.84 214.064 72.32 213.392 73.216 213.36C74.752 213.328 76.288 213.328 77.856 213.328C79.392 213.328 80.96 213.328 82.56 213.36C84.608 213.392 85.44 214.48 85.44 216.496C85.44 218.32 85.152 223.088 80.832 223.088C80.096 223.088 79.264 222.96 78.336 222.672C77.696 222.48 77.44 221.936 77.44 221.392C77.44 220.624 77.952 219.824 78.784 219.824C79.008 219.824 79.232 219.888 79.456 219.984C80 220.24 80.416 220.336 80.768 220.336C82.304 220.336 82.56 217.584 82.56 216.912C82.56 216.176 82.272 215.92 81.632 215.92ZM85.216 234.256L80.448 234.224L80.48 238.672C80.48 239.632 79.744 240.144 78.976 240.144C78.272 240.144 77.536 239.664 77.536 238.672L77.568 234.224L72.832 234.256C71.872 234.256 71.456 233.68 71.456 233.072C71.456 232.432 71.936 231.76 72.832 231.76L77.568 231.792V229.04H75.072C74.08 230.896 73.568 231.28 72.864 231.28C72.064 231.28 71.36 230.672 71.36 230C71.36 229.776 71.424 229.552 71.584 229.328C72.8 227.632 73.312 226.576 73.824 224.656C73.984 224.08 74.464 223.824 75.008 223.824C75.744 223.824 76.544 224.304 76.544 225.04C76.544 225.328 76.448 225.616 76.096 226.608H77.536V224.816C77.536 223.888 78.272 223.408 79.008 223.408C79.744 223.408 80.48 223.888 80.48 224.816L80.448 226.608L84.096 226.576C84.992 226.576 85.44 227.184 85.44 227.824C85.44 228.432 84.992 229.072 84.096 229.072L80.448 229.04V231.792L85.216 231.76C86.112 231.76 86.528 232.368 86.528 233.008C86.528 233.616 86.112 234.256 85.216 234.256ZM68.448 232.336H61.92C61.632 234.736 61.056 237.072 60.032 239.152C59.712 239.792 59.168 240.08 58.656 240.08C57.92 240.08 57.248 239.536 57.248 238.832C57.248 238.608 57.28 238.416 57.408 238.192C59.328 234.512 59.68 230.352 59.68 226.224C59.68 225.168 59.648 224.112 59.616 223.056C59.328 223.472 58.88 223.664 58.432 223.664C57.696 223.664 56.992 223.152 56.992 222.448C56.992 222.16 57.088 221.872 57.312 221.552C59.232 218.992 60.928 215.472 61.568 212.72C61.728 212.016 62.336 211.696 62.976 211.696C63.712 211.696 64.48 212.144 64.48 212.912C64.48 213.008 64.416 213.488 64.16 214.16C64.736 214.16 65.504 214.16 66.08 214.16C66.88 214.16 68.928 214.16 68.928 215.856C68.928 216.112 68.864 216.912 67.584 219.28C67.808 219.28 68 219.312 68.192 219.312C70.176 219.376 70.976 220.304 71.008 222.064C71.008 223.152 71.008 224.496 71.008 225.808C71.008 232.08 71.008 233.328 71.104 236.048C71.104 236.08 71.104 236.144 71.104 236.176C71.104 238.064 69.92 239.888 66.848 239.888C65.376 239.888 63.872 239.76 63.872 238.288C63.872 237.584 64.32 236.88 65.056 236.88C65.152 236.88 65.248 236.88 65.344 236.912C65.856 237.008 66.368 237.136 66.848 237.136C67.744 237.136 68.416 236.752 68.416 235.312C68.416 235.312 68.448 234.096 68.448 232.336ZM62.432 217.968L61.664 219.408C61.92 219.376 62.176 219.312 62.464 219.312C63.04 219.312 63.84 219.28 64.704 219.28C65.12 218.48 65.664 217.392 65.664 217.008C65.664 216.56 65.216 216.56 64.64 216.56C64.128 216.56 63.52 216.56 63.104 216.592C62.88 217.04 62.656 217.52 62.432 217.968ZM66.336 224.656H68.416C68.416 221.872 68.32 221.584 67.296 221.552H66.336V224.656ZM64.128 224.656V221.584H63.296C62.432 221.584 62.208 222.032 62.208 222.64C62.208 223.28 62.24 223.952 62.24 224.656H64.128ZM68.448 230.064V226.832H66.336V230.064H68.448ZM64.128 230.064V226.832H62.24C62.24 227.888 62.176 228.976 62.112 230.064H64.128ZM114.048 235.056C107.808 240.144 97.568 241.072 97.28 232.432C97.152 229.072 97.504 226.352 97.664 222.96C97.76 220.88 97.984 217.744 97.92 215.76C97.856 213.392 101.472 213.584 101.408 215.696C101.344 217.712 101.12 220.752 100.96 222.896C100.736 226.288 100.256 229.2 100.384 232.304C100.576 236.976 106.272 236.656 111.84 232.272C113.92 230.64 115.872 233.584 114.048 235.056ZM145.92 225.072C144.128 224.464 141.216 224.112 139.52 224.752C137.856 225.36 136.864 222.736 138.976 222C140.608 221.424 143.52 221.04 146.656 222.16C148.8 222.928 147.936 225.744 145.92 225.072ZM145.92 238.032C141.28 238.96 137.312 237.488 135.904 235.92C134.528 234.384 136.512 231.856 138.176 233.552C139.808 235.216 141.76 235.056 145.504 234.736C147.84 234.544 148.032 237.616 145.92 238.032ZM133.984 221.264C131.968 228.272 129.696 233.808 128.128 237.36C127.168 239.504 123.776 238.576 125.12 235.856C126.496 233.04 128.768 228.176 130.72 221.968C129.024 222.16 127.392 222.096 126.048 221.52C124.416 220.816 124.736 217.904 127.136 218.768C128.48 219.248 130.048 219.248 131.552 218.96C131.744 217.776 131.616 216.912 131.52 215.504C131.392 213.68 134.4 213.584 134.72 215.344C134.848 216.144 134.848 217.008 134.752 217.904C135.2 217.68 135.584 217.456 135.968 217.232C137.632 216.144 139.616 218.8 137.216 219.984C136.32 220.432 135.168 220.912 133.984 221.264ZM180.384 238.8H155.776C154.848 238.8 154.368 238.032 154.368 237.264C154.368 236.528 154.816 235.824 155.776 235.824H165.632V214.16C165.632 213.104 166.464 212.592 167.296 212.592C168.16 212.592 168.992 213.104 168.992 214.16V222.352H177.664C178.592 222.352 179.072 223.088 179.072 223.824C179.072 224.592 178.592 225.36 177.664 225.36H168.992V235.824H180.384C181.312 235.824 181.76 236.56 181.76 237.296C181.76 238.032 181.28 238.8 180.384 238.8ZM212.896 224.56C212.448 224.048 210.784 222.928 210.112 222.672C208.384 222 209.632 219.952 211.2 220.464C212.096 220.752 213.824 221.616 214.592 222.384C215.936 223.728 214.048 225.84 212.896 224.56ZM209.6 227.472C209.152 226.96 207.552 225.744 206.88 225.456C205.184 224.72 206.464 222.736 208.032 223.312C208.928 223.632 210.656 224.528 211.392 225.328C212.704 226.736 210.72 228.784 209.6 227.472ZM206.528 238.672C196.864 238.64 193.536 229.776 197.024 223.344C197.344 222.736 197.632 222.224 198.048 221.68C198.56 221.008 198.4 221.04 197.792 221.232C195.392 222 195.936 222 193.76 222.832C192.736 223.216 191.84 223.536 190.88 223.792C188.064 224.56 187.2 220.88 189.76 220.336C190.432 220.176 192.288 219.824 193.312 219.568C194.88 219.184 197.696 218.544 200.96 217.616C204.256 216.688 206.848 215.92 209.664 215.728C211.648 215.6 212.192 217.168 211.84 218.192C211.648 218.736 210.944 219.376 208.704 219.248C207.072 219.152 205.056 219.76 203.968 220.144C202.176 220.784 200.544 222.704 199.84 223.888C197.024 228.592 199.168 235.312 206.336 235.056C209.696 234.928 209.92 238.704 206.528 238.672ZM226.912 228.304C224.256 229.424 222.048 230.352 221.504 230.576C219.296 231.504 218.336 228.464 220.32 227.824C220.96 227.632 223.744 226.48 227.008 225.168C227.072 222.544 227.104 219.888 227.104 217.968C227.104 215.824 230.368 216.176 230.368 217.84C230.368 219.536 230.272 221.68 230.208 223.856C233.504 222.512 236.736 221.264 238.272 220.72C240.64 219.888 243.072 221.552 242.048 223.696C240.96 226 239.136 228.624 237.152 230.416C235.04 232.336 232.96 229.904 234.72 228.272C235.936 227.152 237.152 226.032 238.048 224.624C238.624 223.76 238.208 223.792 237.6 223.984C236.48 224.336 233.312 225.616 230.08 226.96C229.984 228.912 229.92 230.672 229.856 231.856C229.792 233.424 230.592 234.224 232.512 234.448C234.208 234.64 237.12 234.48 239.392 233.776C242.24 232.88 243.648 236.4 240.032 237.232C237.12 237.904 234.304 237.904 231.328 237.552C228.512 237.2 226.752 235.472 226.816 232.848C226.848 231.728 226.88 230.128 226.912 228.304ZM265.44 227.28C266.208 229.168 263.392 230.32 262.72 228.272C262.4 227.312 261.824 226.288 261.216 225.584C260.064 224.304 262.208 222.544 263.52 224.112C264.256 225.008 264.96 226.16 265.44 227.28ZM260 239.312C258.912 239.792 258.112 239.408 257.792 238.704C257.504 238.032 257.696 237.168 258.592 236.784C263.936 234.544 267.392 230.032 268.672 224.688C269.184 222.608 272.288 223.568 271.68 225.52C269.856 231.568 266.304 236.464 260 239.312ZM261.024 228.624C262.048 230.352 259.392 231.92 258.432 230.032C257.984 229.136 257.312 228.176 256.608 227.568C255.296 226.448 257.152 224.432 258.656 225.776C259.52 226.544 260.416 227.568 261.024 228.624ZM296.32 222.864C295.744 223.504 294.624 223.696 293.76 222.8C292.768 221.776 291.488 220.848 290.272 220.336C288.448 219.6 289.728 216.752 291.904 217.712C293.312 218.352 294.944 219.28 296.16 220.368C297.024 221.136 296.896 222.224 296.32 222.864ZM308.672 221.968C304.576 229.296 297.312 236.144 290.048 238.544C287.52 239.376 286.464 235.92 288.992 235.248C295.36 233.52 302.464 226.48 305.824 220.112C306.88 218.128 310.08 219.44 308.672 221.968ZM292.512 227.952C292.096 228.72 291.104 229.168 290.048 228.496C288.864 227.728 287.392 227.088 286.08 226.864C284.16 226.544 284.768 223.504 287.104 223.952C288.608 224.24 290.336 224.752 291.776 225.552C292.8 226.096 292.928 227.216 292.512 227.952ZM331.127 231.376C328.087 231.44 324.183 231.472 322.071 231.44C321.175 231.44 320.567 230.864 320.535 230.192C320.503 229.488 321.111 228.912 322.167 228.912C324.343 228.912 328.791 228.784 331.095 228.784C331.095 228.144 331.063 227.632 331.063 227.28C331.031 226.576 330.583 226.32 329.879 226.288C327.831 226.224 323.927 226.384 321.527 226.48C319.415 226.576 319.351 223.92 321.431 223.824C324.023 223.728 328.343 223.664 330.679 223.728C332.983 223.792 333.911 225.168 333.911 226.928C333.911 228.336 333.943 231.696 333.911 233.776C333.847 236.272 332.055 236.848 330.263 236.944C327.767 237.072 323.607 237.104 321.207 237.104C319.159 237.104 319.159 234.256 321.175 234.32C323.671 234.416 328.279 234.416 330.007 234.288C330.583 234.256 331.031 233.936 331.063 233.328C331.095 232.848 331.127 232.144 331.127 231.376ZM370.743 221.584C366.775 228.784 360.151 235.344 352.791 237.68C350.071 238.544 349.047 234.896 351.703 234.224C358.135 232.592 364.599 225.968 367.831 219.696C368.855 217.712 372.151 219.056 370.743 221.584ZM357.399 224.176C356.887 224.912 355.767 225.36 354.775 224.464C353.591 223.376 351.543 222.448 350.039 222.096C348.119 221.648 348.919 218.416 351.351 219.088C353.047 219.568 355.447 220.432 356.983 221.52C357.975 222.224 357.911 223.44 357.399 224.176ZM391.511 216.24L391.447 216.368C391.959 216.176 392.439 215.984 392.791 215.792C394.551 214.736 396.279 217.392 393.911 218.576C393.111 218.96 391.735 219.344 390.391 219.632C389.975 220.656 389.431 221.808 388.855 222.864C391.063 222.48 393.175 223.28 394.231 225.648C395.543 224.976 396.887 224.304 398.135 223.76C398.903 223.44 399.767 223.056 400.631 222.576C403.031 221.232 404.471 224.432 402.423 225.456C401.399 225.968 400.663 226.128 398.967 226.768C397.623 227.28 396.183 227.92 394.903 228.528C394.999 229.584 395.031 230.896 394.967 232.048C394.903 233.328 394.071 234 393.271 234.032C392.471 234.064 391.735 233.456 391.831 232.208C391.863 231.536 391.895 230.8 391.895 230.128C391.607 230.288 391.319 230.448 391.063 230.608C387.095 233.168 387.575 235.088 389.367 235.984C391.063 236.848 394.199 236.208 395.703 235.728C398.519 234.864 399.415 238.32 396.471 239.088C394.583 239.568 390.231 240.048 387.735 238.64C383.415 236.208 384.183 231.888 389.975 228.08C390.423 227.792 390.935 227.44 391.543 227.088C390.679 224.4 388.215 224.72 386.135 227.12C386.103 227.152 386.039 227.216 386.007 227.248C385.719 227.6 385.495 227.888 385.271 228.08C383.511 229.648 381.175 227.824 383.095 226.096C383.927 225.328 385.015 224.176 385.687 223.088C386.231 222.192 386.743 221.232 387.191 220.24C385.463 220.496 384.247 220.4 383.223 219.888C380.919 218.736 382.487 215.728 384.727 217.232C385.335 217.648 386.615 217.488 387.735 217.296C387.863 217.264 388.055 217.264 388.215 217.232C388.439 216.304 388.503 215.664 388.567 214.544C388.695 212.624 391.703 212.816 391.767 214.384C391.799 215.024 391.671 215.632 391.511 216.24ZM433.111 216.976H422.679C421.687 216.976 421.207 216.304 421.207 215.6C421.207 214.864 421.719 214.128 422.679 214.128H433.111C434.103 214.128 434.615 214.832 434.615 215.568C434.615 216.272 434.103 216.976 433.111 216.976ZM431.383 230.992L431.447 235.44C431.447 235.472 431.447 235.472 431.447 235.504C431.447 237.36 430.135 239.728 425.943 239.728C423.511 239.728 422.519 239.376 422.519 237.968C422.519 237.2 422.967 236.464 423.799 236.464C423.863 236.464 423.959 236.496 424.055 236.496C424.727 236.624 425.431 236.72 426.071 236.72C427.319 236.72 428.311 236.304 428.311 234.896C428.311 231.792 428.375 227.856 428.375 224.144H421.591C420.599 224.144 420.119 223.472 420.119 222.8C420.119 222.096 420.631 221.36 421.591 221.36H435.159C436.151 221.36 436.663 222.064 436.663 222.768C436.663 223.44 436.151 224.144 435.159 224.144H431.351C431.351 226.608 431.351 228.944 431.383 230.992ZM419.031 215.12C417.495 217.008 412.535 221.584 410.967 221.584C410.071 221.584 409.399 220.848 409.399 220.048C409.399 219.504 409.687 218.96 410.423 218.544C412.887 217.168 414.903 215.632 416.631 213.168C416.983 212.688 417.431 212.464 417.847 212.464C418.679 212.464 419.447 213.2 419.447 214.064C419.447 214.416 419.319 214.768 419.031 215.12ZM413.623 238.704L413.911 227.44C411.415 229.392 410.839 229.488 410.487 229.488C409.591 229.488 408.983 228.72 408.983 227.92C408.983 227.408 409.207 226.896 409.815 226.576C412.631 225.008 415.191 222.832 417.367 219.728C417.687 219.28 418.103 219.088 418.519 219.088C419.351 219.088 420.151 219.856 420.151 220.72C420.151 221.168 419.991 221.84 416.887 224.848L416.727 238.704C416.695 239.632 415.895 240.112 415.127 240.112C414.359 240.112 413.623 239.664 413.623 238.768C413.623 238.736 413.623 238.736 413.623 238.704ZM467.927 228.176C468.183 230.512 465.015 231.152 464.567 228.944C464.055 226.384 462.743 223.92 461.015 222.736C459.479 221.68 461.207 219.312 463.127 220.752C465.399 222.448 467.607 225.456 467.927 228.176ZM453.943 233.456C451.895 236.784 449.047 236.496 447.255 234.576C444.951 232.08 443.895 228.368 443.639 224.336C443.511 222.512 443.447 221.936 443.479 220.784C443.543 218.768 446.647 218.352 446.743 220.752C446.807 222 446.679 222.064 446.743 223.536C446.871 226.896 447.479 230.064 449.271 231.792C450.103 232.592 450.519 232.688 451.223 231.728C451.607 231.184 452.055 230.352 452.279 229.84C453.143 227.984 455.799 229.328 455.191 230.992C454.871 231.888 454.295 232.88 453.943 233.456ZM486.935 220.944L486.615 220.976C484.951 221.232 483.351 221.392 481.591 221.36C479.127 221.296 478.999 217.968 481.911 218.32C483.223 218.48 484.695 218.416 486.871 218.096C486.839 216.4 486.839 214.896 486.871 213.872C486.935 211.408 490.263 211.984 490.135 213.84C490.039 214.992 489.975 216.272 489.943 217.552C490.615 217.424 491.351 217.232 492.119 217.072C494.231 216.592 495.095 219.568 492.311 220.016C491.447 220.144 490.647 220.304 489.911 220.432C489.911 221.616 489.911 222.8 489.943 223.984C490.711 223.76 491.511 223.536 492.375 223.248C494.743 222.48 495.959 225.424 493.111 226.224C491.991 226.544 490.967 226.832 490.039 227.056C490.103 228.144 490.167 229.136 490.263 230.064C490.359 230.928 490.455 232.08 490.519 233.232C492.119 233.84 493.495 234.704 494.487 235.504C496.631 237.264 494.551 240.176 492.535 238.32C491.863 237.712 491.063 237.104 490.199 236.592C489.079 239.312 485.175 241.456 481.239 239.504C478.199 238 478.007 234.416 481.495 232.944C483.447 232.112 485.591 232.048 487.607 232.4C487.575 231.728 487.511 231.056 487.447 230.32C487.383 229.552 487.319 228.656 487.255 227.664C484.727 228.144 483.031 228.24 481.431 228.016C479.159 227.696 479.543 224.4 482.103 224.944C483.031 225.136 484.631 225.136 487.095 224.656C487.031 223.44 486.967 222.192 486.935 220.944ZM487.319 235.28C485.591 234.736 483.895 234.64 482.487 235.248C481.655 235.6 481.495 236.624 482.391 237.072C484.343 238.032 486.839 237.072 487.319 235.28ZM519.35 232.464C517.238 233.552 514.454 232.944 513.43 230.064C512.31 226.96 514.038 224.656 515.99 224.048C516.918 223.76 517.878 223.632 518.742 223.76C518.71 223.056 518.678 222.096 518.646 221.168C515.958 221.424 513.302 221.808 511.638 222.064C509.334 222.416 507.83 222.832 506.87 222.992C504.726 223.376 504.086 220.176 506.614 219.76C507.894 219.536 509.974 219.312 511.318 219.088C512.918 218.832 515.798 218.48 518.614 218.224C518.614 218.032 518.614 217.808 518.614 217.648C518.646 215.664 518.454 215.536 518.454 214.512C518.454 212.176 521.686 212.4 521.814 214.416C521.846 215.152 521.75 216.624 521.686 217.488C521.686 217.648 521.654 217.808 521.654 217.968C522.582 217.904 523.414 217.872 524.118 217.872C525.686 217.872 526.806 217.84 528.982 217.872C531.67 217.936 531.542 221.328 528.982 221.136C526.71 220.944 525.942 220.944 523.958 220.912C523.222 220.912 522.454 220.944 521.622 220.976C521.654 222 521.686 222.992 521.686 223.92C521.686 224.368 521.75 225.04 521.782 225.744C524.63 230.224 521.238 237.008 517.846 239.728C515.702 241.424 512.918 239.152 515.702 237.168C517.238 236.08 518.582 234.288 519.35 232.464ZM519.318 227.248C519.158 227.056 518.998 226.864 518.806 226.704C518.358 226.32 517.43 226.256 516.758 226.576C515.99 226.928 515.478 227.92 515.83 229.008C516.406 230.736 519.19 230.736 519.51 228.464C519.606 227.792 519.51 227.504 519.318 227.248ZM536.96 236.72C536.96 238.736 535.328 240.368 533.312 240.368C531.296 240.368 529.664 238.736 529.664 236.72C529.664 234.704 531.296 233.072 533.312 233.072C535.328 233.072 536.96 234.704 536.96 236.72ZM535.744 236.72C535.744 235.376 534.656 234.32 533.312 234.32C531.968 234.32 530.88 235.376 530.88 236.72C530.88 238.064 531.968 239.152 533.312 239.152C534.656 239.152 535.744 238.064 535.744 236.72Z" fill="white"/>
<path d="M164.581 136V136.046C164.581 137.012 164.029 137.426 163.431 137.426C162.833 137.426 162.189 136.92 162.143 136.092C162.097 132.136 162.051 127.352 162.051 122.384C162.051 115.53 162.097 108.446 162.189 102.972C162.235 99.798 163.983 97.636 167.387 97.498C168.169 97.452 168.905 97.452 169.641 97.452C171.251 97.452 172.677 97.498 174.333 97.544C175.207 97.544 175.575 98.142 175.575 98.74C175.575 99.338 175.161 99.936 174.379 99.936C174.333 99.936 174.241 99.936 174.195 99.936C173.919 99.89 172.631 99.798 167.847 99.798C166.007 99.844 164.673 100.856 164.581 103.202C164.443 106.238 164.397 110.378 164.397 114.886C164.397 122.062 164.535 130.112 164.581 136ZM213.939 126.478C213.847 130.894 210.443 132.274 206.947 132.458C202.071 132.734 194.481 132.78 189.743 132.78C186.293 132.78 186.293 127.858 189.697 127.996C194.619 128.18 202.991 128.18 206.395 127.95C207.775 127.858 208.971 127.076 209.063 125.374C209.201 122.614 209.201 117.922 209.109 115.53C209.063 114.012 207.959 113.184 206.211 113.138C202.163 113 194.895 113.276 190.111 113.506C186.523 113.69 186.339 109.182 189.881 109.044C194.941 108.814 203.221 108.722 207.821 108.814C212.375 108.906 213.985 111.62 213.985 114.702C213.985 117.508 214.031 122.384 213.939 126.478ZM261.503 120.82H232.615C230.959 120.82 230.177 119.716 230.177 118.612C230.177 117.462 231.051 116.266 232.615 116.266H261.503C263.067 116.266 263.849 117.416 263.849 118.566C263.849 119.67 263.067 120.82 261.503 120.82ZM296.371 120.406C296.003 126.248 292.231 134.712 282.755 137.978C278.109 139.588 276.959 134.528 280.271 133.7C288.091 131.722 291.173 124.776 291.725 120.406C286.757 120.406 281.789 120.498 278.155 120.59C275.395 120.682 275.119 116.496 278.155 116.45C281.559 116.358 286.665 116.312 291.817 116.312C291.817 114.38 291.771 112.31 291.771 110.792C288.413 111.344 285.193 111.62 282.755 111.574C279.351 111.482 279.489 107.112 282.847 107.342C287.539 107.664 295.957 105.916 299.729 104.352C303.685 102.696 304.559 107.434 302.029 108.308C300.373 108.906 298.441 109.412 296.463 109.872C296.509 111.666 296.509 114.104 296.463 116.312C301.293 116.312 305.525 116.358 307.687 116.404C310.907 116.45 310.815 120.636 307.595 120.544C305.065 120.452 300.925 120.406 296.371 120.406ZM355.757 112.402C350.053 122.752 340.531 132.182 329.951 135.54C326.041 136.782 324.569 131.538 328.387 130.572C337.633 128.226 346.925 118.704 351.571 109.688C353.043 106.836 357.781 108.768 355.757 112.402ZM336.575 116.128C335.839 117.186 334.229 117.83 332.803 116.542C331.101 114.978 328.157 113.644 325.995 113.138C323.235 112.494 324.385 107.848 327.881 108.814C330.319 109.504 333.769 110.746 335.977 112.31C337.403 113.322 337.311 115.07 336.575 116.128ZM402.675 103.202C402.031 102.512 399.823 100.948 398.903 100.58C396.557 99.66 398.213 96.9 400.375 97.59C401.617 98.004 403.963 99.154 405.021 100.212C406.861 102.052 404.239 104.95 402.675 103.202ZM398.489 107.296C397.891 106.56 395.637 104.95 394.717 104.536C392.371 103.57 394.211 100.81 396.327 101.592C397.569 102.052 399.869 103.248 400.881 104.352C402.675 106.284 400.007 109.09 398.489 107.296ZM385.379 106.56L385.057 106.974C387.035 106.836 389.289 106.698 391.129 106.606C394.671 106.422 397.753 108.906 396.051 112.172C390.439 122.89 384.091 132.182 371.165 137.288C367.255 138.806 365.369 134.298 369.187 132.964C379.399 129.422 386.989 120.268 390.393 112.448C390.761 111.574 390.393 110.7 389.289 110.746C387.357 110.792 383.999 111.114 381.929 111.344C378.801 115.484 374.753 120.314 371.579 122.476C368.497 124.546 365.783 120.544 368.911 118.612C373.327 115.898 379.307 107.48 381.423 103.846C382.941 101.27 387.541 103.478 385.379 106.56ZM419.511 101.086V101.04C419.511 100.074 420.063 99.66 420.661 99.66C421.305 99.66 421.949 100.166 421.995 100.994C422.041 104.95 422.087 109.734 422.087 114.702C422.087 121.556 422.041 128.64 421.949 134.114C421.903 137.288 420.109 139.45 416.705 139.588C415.601 139.634 414.635 139.634 413.669 139.634C412.381 139.634 411.139 139.634 409.759 139.588C408.931 139.588 408.517 138.99 408.517 138.392C408.517 137.794 408.977 137.15 409.759 137.15C409.805 137.15 409.897 137.15 409.943 137.15C410.219 137.196 411.507 137.288 416.291 137.288C418.131 137.242 419.465 136.23 419.557 133.884C419.649 131.124 419.695 127.444 419.695 123.442C419.695 115.944 419.557 107.296 419.511 101.086Z" fill="#FBD925"/>
<path d="M131.921 140.6H452.079V142.9H131.921V140.6Z" fill="#FBD925"/>
<path d="M465.288 132.44C464.072 134.968 460.168 137.112 456.68 135.128C453.896 133.528 453.832 129.88 457.16 128.408C458.888 127.64 460.84 127.608 462.792 128.024C462.792 127.512 462.728 127.032 462.696 126.424C462.6 125.112 462.536 122.648 462.44 120.12C460.712 120.376 459.016 120.504 457.192 120.344C454.984 120.152 455.368 116.888 457.832 117.304C459.24 117.56 460.776 117.464 462.344 117.208C462.312 115.416 462.28 113.784 462.312 112.792C462.376 110.712 465.512 111 465.384 112.728C465.32 113.624 465.288 114.968 465.288 116.536C465.832 116.376 466.408 116.248 466.92 116.088C469 115.448 470.376 118.36 467.624 119.032C466.856 119.224 466.088 119.416 465.32 119.576C465.352 122.072 465.448 124.568 465.512 126.136C465.544 126.936 465.672 127.992 465.704 129.016C467.048 129.656 468.328 130.456 469.32 131.352C471.144 133.016 468.872 135.8 467.272 134.104C466.696 133.528 466.024 132.952 465.288 132.44ZM449.544 135.544C448.712 136.312 447.272 136.184 446.728 134.456C445.704 131.224 445.8 127.096 446.216 123.224C446.632 119.352 447.336 115.768 447.496 113.688C447.688 111.096 451.048 111.736 450.728 113.752C450.504 115.192 449.96 117.976 449.544 120.696C449.128 123.416 448.808 126.104 448.936 127.384C449 127.96 449.032 128.056 449.352 127.416C449.448 127.224 449.672 126.648 449.736 126.488C450.472 124.952 452.904 126.04 451.752 128.44C451.336 129.304 451.016 130.168 450.76 130.968C450.504 131.768 450.312 132.472 450.184 132.984C449.928 133.88 450.344 134.776 449.544 135.544ZM462.536 130.936H462.504C460.904 130.328 459.304 130.168 458.088 130.744C457.32 131.096 457.128 132.184 457.896 132.632C459.432 133.496 462.024 132.824 462.536 130.936Z" fill="white"/>
</svg>
