<svg width="672" height="374" viewBox="0 0 672 374" fill="none" xmlns="http://www.w3.org/2000/svg">
<path d="M17.682 26.194C16.8 26.614 15.624 26.488 15.078 25.354C14.616 24.346 13.65 22.96 12.474 22.246C10.416 20.986 12.852 18.004 15.162 19.516C16.758 20.566 18.06 21.616 18.858 23.464C19.362 24.64 18.564 25.774 17.682 26.194ZM27.048 51.394C17.472 50.428 14.952 41.524 18.522 36.274C19.11 35.392 19.236 35.224 18.354 35.518C16.926 36.022 14.616 36.988 13.902 37.408C12.936 37.996 11.172 38.458 10.248 37.87C8.274 36.652 8.778 34.51 10.71 33.922C11.508 33.67 14.658 33.124 15.54 32.368C18.984 29.344 22.764 22.834 25.242 18.97C27.258 15.862 31.08 18.886 29.19 21.322C26.376 24.934 23.184 29.176 20.664 31.318C20.202 31.738 20.79 31.57 20.958 31.486C21.21 31.36 21.714 31.192 22.344 31.024C25.074 30.268 28.77 29.302 31.668 29.302C33.852 29.302 34.398 31.15 33.81 32.368C33.432 33.166 32.382 33.796 30.282 33.544C28.896 33.376 26.418 33.754 25.41 33.964C23.268 34.468 22.848 35.098 21.714 36.82C18.774 41.272 21.378 47.026 27.636 46.606C31.668 46.354 31.668 51.856 27.048 51.394ZM65.016 25.438C65.478 25.858 65.73 26.53 65.604 27.37C64.932 32.704 61.152 40.642 57.12 44.38C53.886 47.362 50.358 45.724 48.51 42.112C45.864 36.904 48.678 29.092 54.306 25.186C59.472 21.616 67.158 21.028 72.45 24.22C78.96 28.126 80.01 35.854 76.356 41.86C74.382 45.094 70.266 47.698 66.108 48.79C62.412 49.756 61.11 45.514 64.722 44.674C67.914 43.96 71.148 42.154 72.534 39.97C75.516 35.266 74.382 29.764 70.224 27.118C68.586 26.068 66.822 25.564 65.016 25.438ZM61.698 25.648C59.766 26.068 57.876 26.95 56.28 28.168C52.374 31.192 50.274 36.778 52.038 40.012C52.668 41.23 53.76 41.86 54.81 40.936C57.96 38.164 60.9 31.486 61.32 26.95C61.362 26.446 61.488 25.984 61.698 25.648ZM118.02 32.032C115.668 31.234 111.846 30.772 109.62 31.612C107.436 32.41 106.134 28.966 108.906 28C111.048 27.244 114.87 26.74 118.986 28.21C121.8 29.218 120.666 32.914 118.02 32.032ZM118.02 49.042C111.93 50.26 106.722 48.328 104.874 46.27C103.068 44.254 105.672 40.936 107.856 43.162C109.998 45.346 112.56 45.136 117.474 44.716C120.54 44.464 120.792 48.496 118.02 49.042ZM102.354 27.034C99.708 36.232 96.726 43.498 94.668 48.16C93.408 50.974 88.956 49.756 90.72 46.186C92.526 42.49 95.508 36.106 98.07 27.958C95.844 28.21 93.702 28.126 91.938 27.37C89.796 26.446 90.216 22.624 93.366 23.758C95.13 24.388 97.188 24.388 99.162 24.01C99.414 22.456 99.246 21.322 99.12 19.474C98.952 17.08 102.9 16.954 103.32 19.264C103.488 20.314 103.488 21.448 103.362 22.624C103.95 22.33 104.454 22.036 104.958 21.742C107.142 20.314 109.746 23.8 106.596 25.354C105.42 25.942 103.908 26.572 102.354 27.034ZM145.74 40.558C145.194 41.272 144.648 41.902 144.102 42.49C139.146 47.824 134.736 45.976 133.602 40.684C132.72 36.652 134.736 32.032 138.222 28.714C137.928 27.832 137.634 26.908 137.424 25.984C137.214 25.144 136.794 23.212 136.626 22.33C135.912 18.844 140.658 18.886 140.826 21.868C140.91 23.128 140.994 23.842 141.246 25.354C141.288 25.648 141.372 25.984 141.456 26.278C141.75 26.11 142.002 25.942 142.296 25.816C144.438 24.724 146.958 24.136 149.478 24.052C149.814 22.372 150.024 20.65 150.024 19.516C149.982 16.576 154.35 16.912 154.182 19.978C154.098 21.448 153.93 22.834 153.594 24.43C157.5 25.312 160.86 27.748 162.036 32.032C164.22 39.802 159.054 45.598 151.788 48.202C148.596 49.378 146.538 45.388 150.192 44.296C157.5 42.07 159.138 37.24 158.13 33.25C157.332 30.058 155.232 28.336 152.712 27.622C152.586 28 152.46 28.42 152.292 28.84C151.326 31.444 149.772 34.552 148.008 37.324C148.176 37.45 148.344 37.618 148.554 37.744C149.52 38.416 149.394 39.634 148.848 40.348C148.302 41.062 147.21 41.482 146.076 40.768C145.95 40.684 145.866 40.642 145.74 40.558ZM148.68 27.286C146.874 27.454 145.068 28 143.598 28.798C143.178 29.008 142.758 29.26 142.38 29.554C143.094 31.444 144.018 33.166 145.236 34.678C146.622 32.41 147.84 29.974 148.512 27.874C148.554 27.706 148.638 27.496 148.68 27.286ZM142.968 38.038C141.582 36.4 140.448 34.384 139.524 32.242C137.76 34.468 136.752 37.072 137.172 39.298C137.802 42.574 139.776 41.65 140.952 40.432C141.582 39.802 142.254 38.962 142.968 38.038ZM178.122 52.108C177.534 52.108 176.946 51.814 176.526 51.184C175.476 49.63 173.166 47.698 171.36 46.774C170.562 46.354 170.226 45.724 170.226 45.094C170.226 44.128 170.982 43.246 172.2 43.246C173.67 43.246 180.39 46.942 180.39 49.798C180.39 51.142 179.256 52.108 178.122 52.108ZM227.01 45.262L226.884 45.01C225.33 46.144 223.776 47.11 222.306 47.866C219.702 49.21 215.712 48.538 216.174 42.91C216.51 38.794 219.87 34.216 223.692 31.78C224.238 31.444 224.826 31.108 225.456 30.772C225.582 29.176 225.75 27.496 225.96 25.774C223.944 25.9 222.138 25.774 220.71 25.354C218.232 24.64 219.072 20.776 221.886 21.658C223.062 22.036 224.658 22.12 226.422 21.994C226.59 20.776 226.8 19.516 226.968 18.256C227.43 15.148 231.504 15.82 231.042 18.34C230.874 19.39 230.664 20.44 230.496 21.406C232.428 20.986 234.36 20.44 236.166 19.768C238.602 18.844 240.45 22.414 237.132 23.506C234.822 24.262 232.302 24.934 229.866 25.354C229.656 26.698 229.488 27.916 229.32 29.092C230.79 28.588 232.302 28.252 233.73 28.168C233.898 28.168 234.066 28.168 234.234 28.168V28.084C234.528 25.606 238.392 26.404 238.224 28.42C250.488 30.646 249.858 46.102 235.536 50.806C231.756 52.066 230.706 48.16 234.15 47.026C244.608 43.624 245.028 33.712 237.426 31.822C236.04 35.77 233.31 39.34 230.16 42.28C230.286 42.574 230.454 42.868 230.622 43.12C232.092 45.556 228.606 48.244 227.01 45.262ZM233.394 31.57H233.268C232.05 31.696 230.454 32.116 228.942 32.704C228.774 34.846 228.816 36.736 229.026 38.416C230.916 36.442 232.47 34.132 233.394 31.57ZM225.708 41.398C225.33 39.424 225.204 37.156 225.246 34.678C221.928 37.114 220.038 40.096 219.87 42.574C219.744 44.254 220.878 44.422 221.97 43.834C223.23 43.12 224.49 42.322 225.708 41.398ZM286.188 30.478C284.214 29.218 282.072 28.588 279.636 28.714C277.326 28.84 277.158 25.354 279.846 25.102C282.618 24.85 285.558 25.354 287.574 26.572C290.43 28.294 288.246 31.78 286.188 30.478ZM267.246 26.278C265.104 26.698 263.298 26.53 261.702 26.068C259.14 25.354 259.938 21.49 262.92 22.456C264.306 22.918 266.49 22.876 268.674 22.33C269.094 20.944 269.304 19.6 269.514 18.088C269.892 15.61 273.588 16.072 273.504 18.466C273.462 19.096 273.21 20.02 272.916 21.028C273.42 20.776 273.882 20.566 274.26 20.314C276.15 18.97 278.796 21.574 276.108 23.506C275.058 24.262 273.336 24.934 271.614 25.438C269.64 30.184 266.784 35.224 264.096 39.592C262.542 42.112 258.51 40.474 260.358 37.744C262.71 34.258 265.188 30.688 267.246 26.278ZM280.476 45.976C279.258 49.336 274.008 52.276 268.926 49.714C265.02 47.74 264.558 43.204 268.884 41.272C271.488 40.096 274.344 40.012 276.948 40.474C276.948 40.012 276.948 39.55 276.948 39.004C276.948 37.954 276.864 36.904 276.822 35.854C276.78 35.014 276.864 33.838 277.032 33.04C277.536 30.73 281.232 31.276 280.812 33.796C280.686 34.426 280.56 34.888 280.56 35.77C280.56 36.736 280.56 37.786 280.602 39.004C280.644 39.802 280.728 40.684 280.77 41.608C282.996 42.532 284.844 43.834 285.894 44.968C288.288 47.614 284.886 50.596 282.87 48.16C282.24 47.404 281.442 46.648 280.476 45.976ZM276.738 44.002C274.596 43.288 272.328 43.204 270.27 44.212C269.136 44.8 269.052 46.018 270.312 46.648C272.832 47.908 276.234 46.69 276.696 44.422C276.738 44.296 276.696 44.128 276.738 44.002ZM328.02 32.032C325.668 31.234 321.846 30.772 319.62 31.612C317.436 32.41 316.134 28.966 318.906 28C321.048 27.244 324.87 26.74 328.986 28.21C331.8 29.218 330.666 32.914 328.02 32.032ZM328.02 49.042C321.93 50.26 316.722 48.328 314.874 46.27C313.068 44.254 315.672 40.936 317.856 43.162C319.998 45.346 322.56 45.136 327.474 44.716C330.54 44.464 330.792 48.496 328.02 49.042ZM312.354 27.034C309.708 36.232 306.726 43.498 304.668 48.16C303.408 50.974 298.956 49.756 300.72 46.186C302.526 42.49 305.508 36.106 308.07 27.958C305.844 28.21 303.702 28.126 301.938 27.37C299.796 26.446 300.216 22.624 303.366 23.758C305.13 24.388 307.188 24.388 309.162 24.01C309.414 22.456 309.246 21.322 309.12 19.474C308.952 17.08 312.9 16.954 313.32 19.264C313.488 20.314 313.488 21.448 313.362 22.624C313.95 22.33 314.454 22.036 314.958 21.742C317.142 20.314 319.746 23.8 316.596 25.354C315.42 25.942 313.908 26.572 312.354 27.034ZM359.016 25.438C359.478 25.858 359.73 26.53 359.604 27.37C358.932 32.704 355.152 40.642 351.12 44.38C347.886 47.362 344.358 45.724 342.51 42.112C339.864 36.904 342.678 29.092 348.306 25.186C353.472 21.616 361.158 21.028 366.45 24.22C372.96 28.126 374.01 35.854 370.356 41.86C368.382 45.094 364.266 47.698 360.108 48.79C356.412 49.756 355.11 45.514 358.722 44.674C361.914 43.96 365.148 42.154 366.534 39.97C369.516 35.266 368.382 29.764 364.224 27.118C362.586 26.068 360.822 25.564 359.016 25.438ZM355.698 25.648C353.766 26.068 351.876 26.95 350.28 28.168C346.374 31.192 344.274 36.778 346.038 40.012C346.668 41.23 347.76 41.86 348.81 40.936C351.96 38.164 354.9 31.486 355.32 26.95C355.362 26.446 355.488 25.984 355.698 25.648ZM403.788 33.838C402.738 33.838 401.646 33.796 400.554 33.754C400.554 34.174 400.554 34.72 400.554 35.434C400.554 38.122 400.512 42.532 400.512 45.304C402.066 44.674 403.41 44.044 404.544 43.414C404.838 43.246 405.132 43.162 405.426 43.162C406.35 43.162 407.106 43.96 407.106 44.842C407.106 45.43 406.77 46.06 405.972 46.522C401.478 49.084 394.968 51.352 393.792 51.352C392.574 51.352 391.902 50.386 391.902 49.42C391.902 48.664 392.364 47.866 393.372 47.614C394.464 47.362 395.556 47.068 396.606 46.732C396.606 25.774 396.606 23.128 396.69 19.81C396.732 17.878 398.076 16.156 400.932 16.03C402.486 15.946 404.04 15.946 405.552 15.946C407.106 15.946 408.618 15.946 410.046 16.03C412.524 16.156 414.12 17.794 414.204 19.768C414.288 21.994 414.372 24.556 414.372 26.992C414.372 27.916 414.372 28.84 414.33 29.68C414.246 31.864 412.272 33.628 409.794 33.754C408.996 33.796 408.24 33.838 407.442 33.838C407.736 35.392 408.156 36.862 408.702 38.206C410.34 37.24 411.894 36.064 413.448 34.72C413.784 34.426 414.162 34.3 414.54 34.3C415.548 34.3 416.556 35.308 416.556 36.358C416.556 37.408 415.59 38.458 410.088 40.978C411.642 43.54 413.868 45.64 417.06 47.278C417.942 47.74 418.32 48.454 418.32 49.126C418.32 50.218 417.438 51.226 416.094 51.226C413.238 51.226 405.804 44.8 403.788 33.838ZM390.894 49.924V49.966C390.894 51.1 389.844 51.688 388.836 51.688C387.786 51.688 386.778 51.142 386.778 49.966V49.924L386.946 34.3C385.77 36.442 384.426 38.5 383.04 40.18C382.536 40.81 381.906 41.062 381.318 41.062C380.268 41.062 379.302 40.222 379.302 39.214C379.302 38.752 379.512 38.248 379.974 37.786C382.242 35.476 385.266 31.15 386.946 27.034V26.866L382.536 26.95H382.494C381.318 26.95 380.73 26.068 380.73 25.144C380.73 24.22 381.318 23.296 382.536 23.296H386.904L386.778 16.45V16.408C386.778 15.232 387.828 14.602 388.878 14.602C389.886 14.602 390.894 15.19 390.894 16.408V16.45C390.894 16.45 390.81 19.6 390.768 23.296H393.75C394.968 23.296 395.598 24.22 395.598 25.144C395.598 26.026 394.968 26.95 393.792 26.95H393.75L390.726 26.866C390.726 27.958 390.684 29.092 390.684 30.058C391.776 30.058 395.598 32.494 395.598 34.09C395.598 35.14 394.674 36.064 393.708 36.064C393.288 36.064 392.826 35.854 392.49 35.392C391.986 34.72 391.314 33.922 390.684 33.292C390.726 39.802 390.894 49.924 390.894 49.924ZM400.512 23.128H410.508C410.466 22.372 410.424 21.658 410.382 20.986C410.214 19.264 409.416 19.222 405.342 19.222C401.562 19.222 400.554 19.222 400.554 21.028C400.554 21.742 400.512 22.414 400.512 23.128ZM410.55 26.404H400.554V30.394C401.772 30.436 403.284 30.478 404.712 30.478C406.182 30.478 407.61 30.436 408.66 30.394C410.508 30.31 410.55 29.008 410.55 26.404ZM447.972 42.994H442.974V50.218C442.974 51.352 441.966 51.94 440.958 51.94C439.95 51.94 438.942 51.352 438.942 50.218V42.994H433.986C432.684 42.994 432.096 42.154 432.096 41.272C432.096 40.348 432.768 39.424 433.986 39.424H438.942V38.374L439.068 30.184C435.834 35.602 431.214 40.852 425.88 44.926C425.376 45.304 424.83 45.472 424.368 45.472C423.192 45.472 422.268 44.548 422.268 43.498C422.268 42.868 422.604 42.196 423.36 41.692C428.82 37.996 433.65 32.914 437.178 26.74L425.544 26.908H425.502C424.2 26.908 423.612 26.026 423.612 25.144C423.612 24.178 424.284 23.17 425.544 23.17H438.942V16.156C438.942 14.938 439.908 14.35 440.916 14.35C441.924 14.35 442.974 14.98 442.974 16.156V23.17H456.33C457.548 23.17 458.136 24.094 458.136 25.06C458.136 25.984 457.548 26.908 456.33 26.908H456.288L444.654 26.74C448.35 32.788 453.558 37.198 458.598 40.516C459.312 41.02 459.606 41.608 459.606 42.238C459.606 43.414 458.514 44.548 457.17 44.548C456.708 44.548 456.204 44.38 455.7 44.044C451.248 40.81 446.292 35.476 442.848 29.932L442.974 38.332V39.424H447.972C449.19 39.424 449.778 40.306 449.778 41.188C449.778 42.112 449.19 42.994 447.972 42.994ZM485.016 25.438C485.478 25.858 485.73 26.53 485.604 27.37C484.932 32.704 481.152 40.642 477.12 44.38C473.886 47.362 470.358 45.724 468.51 42.112C465.864 36.904 468.678 29.092 474.306 25.186C479.472 21.616 487.158 21.028 492.45 24.22C498.96 28.126 500.01 35.854 496.356 41.86C494.382 45.094 490.266 47.698 486.108 48.79C482.412 49.756 481.11 45.514 484.722 44.674C487.914 43.96 491.148 42.154 492.534 39.97C495.516 35.266 494.382 29.764 490.224 27.118C488.586 26.068 486.822 25.564 485.016 25.438ZM481.698 25.648C479.766 26.068 477.876 26.95 476.28 28.168C472.374 31.192 470.274 36.778 472.038 40.012C472.668 41.23 473.76 41.86 474.81 40.936C477.96 38.164 480.9 31.486 481.32 26.95C481.362 26.446 481.488 25.984 481.698 25.648ZM542.43 29.512C541.716 30.268 540.456 30.478 539.406 29.554C538.314 28.588 536.004 27.58 533.862 27.832C531.3 28.126 530.628 24.388 533.652 24.136C536.676 23.884 540.876 24.934 542.388 26.53C543.396 27.58 543.144 28.756 542.43 29.512ZM522.312 37.954C522.396 40.18 522.564 42.364 522.648 44.17C522.984 50.176 517.608 50.092 514.164 48.412C509.166 45.976 510.552 42.994 512.778 40.558C514.08 39.172 516.222 37.534 518.7 36.106C518.658 34.342 518.616 32.536 518.616 30.856C516.894 31.192 515.172 31.234 513.576 31.024C510.468 30.646 510.972 26.446 514.458 27.16C515.508 27.37 517.062 27.202 518.7 26.782C518.7 24.808 518.616 23.464 518.532 21.868C518.364 18.76 522.984 18.844 522.774 21.826C522.69 22.75 522.648 24.094 522.564 25.354C523.194 25.06 523.74 24.724 524.244 24.388C526.512 22.876 529.074 26.194 526.134 27.958C524.874 28.714 523.53 29.344 522.186 29.848C522.144 31.15 522.144 32.704 522.186 34.3C523.362 33.754 524.58 33.334 525.714 32.998C529.326 31.948 532.896 32.284 535.038 33.04C541.968 35.434 540.834 41.104 538.692 44.212C535.962 48.16 530.082 49.504 525.21 46.732C522.816 45.346 524.454 41.902 527.016 43.162C530.292 44.758 532.98 44.8 534.996 42.112C536.004 40.768 537.18 37.786 533.526 36.442C531.888 35.812 529.662 35.686 526.722 36.358C525.21 36.694 523.74 37.282 522.312 37.954ZM518.742 40.054C517.524 40.936 516.474 41.86 515.592 42.826C514.71 43.792 514.71 44.884 515.676 45.346C517.482 46.228 518.7 46.102 518.742 44.464C518.784 43.33 518.784 41.776 518.742 40.054ZM579.684 26.698C579.18 27.328 578.55 27.58 577.962 27.58C576.912 27.58 575.946 26.824 575.946 25.816C575.946 25.48 576.072 25.06 576.408 24.64C578.256 22.288 579.474 19.558 580.398 17.206C580.692 16.45 581.364 16.114 582.078 16.114C583.212 16.114 584.472 16.912 584.472 18.088C584.472 18.886 582.12 23.674 579.684 26.698ZM572.922 25.06C572.166 25.06 571.452 24.598 571.284 23.59C570.99 21.868 570.024 19.6 569.058 18.256C568.806 17.92 568.722 17.626 568.722 17.29C568.722 16.366 569.646 15.61 570.654 15.61C573.258 15.61 574.98 22.036 574.98 22.876C574.98 24.262 573.93 25.06 572.922 25.06ZM566.202 26.194C565.488 26.194 564.816 25.816 564.564 24.85C564.06 23.17 562.884 21.028 561.666 19.81C561.33 19.474 561.162 19.096 561.162 18.718C561.162 17.836 562.086 17.038 563.094 17.038C565.32 17.038 568.344 22.246 568.344 24.01C568.344 25.312 567.21 26.194 566.202 26.194ZM574.098 39.97C572.46 42.49 569.898 45.64 568.218 45.64C567.168 45.64 566.328 44.842 566.328 43.918C566.328 43.456 566.58 42.952 567.126 42.532C568.764 41.314 570.276 39.466 571.494 37.492C570.15 36.358 568.764 35.392 567.588 34.762C566.958 34.426 566.664 33.922 566.664 33.418C566.664 32.578 567.462 31.738 568.512 31.738C569.1 31.738 569.898 31.948 573.174 34.3C573.762 32.956 574.224 31.612 574.476 30.394C574.686 29.47 575.442 29.05 576.24 29.05C577.248 29.05 578.298 29.722 578.298 30.856C578.298 31.276 577.71 33.544 576.072 36.652C578.76 39.088 579.306 40.054 579.306 40.894C579.306 42.028 578.256 43.036 577.206 43.036C576.702 43.036 576.198 42.784 575.82 42.196C575.4 41.524 574.812 40.726 574.098 39.97ZM565.53 31.234V31.276C565.488 33.208 565.488 35.812 565.488 38.374C565.488 40.936 565.488 43.498 565.53 45.388C565.53 47.194 566.454 47.194 572.754 47.194C574.77 47.194 576.87 47.152 578.382 47.068C579.558 46.984 580.104 46.228 580.146 45.43C580.188 43.498 580.23 40.348 580.23 37.282C580.23 35.098 580.188 32.956 580.188 31.318C580.188 30.184 581.154 29.596 582.162 29.596C583.128 29.596 584.136 30.184 584.136 31.318C584.136 33.25 584.178 35.434 584.178 37.618C584.178 40.726 584.136 43.792 584.094 46.06C584.052 48.748 582.288 50.638 579.18 50.764C577.206 50.848 574.938 50.89 572.67 50.89C570.444 50.89 568.218 50.848 566.286 50.764C563.136 50.638 561.666 48.958 561.624 46.228C561.624 44.128 561.582 41.44 561.582 38.794C561.582 36.106 561.624 33.418 561.624 31.276C561.666 30.226 562.674 29.638 563.64 29.638C564.606 29.638 565.53 30.184 565.53 31.234ZM553.812 50.092V16.744C553.812 15.484 554.778 14.896 555.786 14.896C556.794 14.896 557.802 15.526 557.802 16.744V23.002C558.138 22.792 558.516 22.666 558.936 22.666C560.238 22.666 562.842 25.648 562.842 26.908C562.842 27.958 561.834 28.798 560.91 28.798C560.448 28.798 559.986 28.546 559.692 28C559.146 26.866 558.348 25.774 557.802 25.186V50.092C557.802 51.268 556.794 51.856 555.786 51.856C554.778 51.856 553.812 51.268 553.812 50.092ZM549.108 34.132C548.142 34.132 547.302 33.376 547.302 32.326C547.302 31.906 547.428 31.444 547.722 30.94C548.772 29.218 549.318 27.034 549.318 24.892C549.318 23.716 550.116 23.212 550.998 23.212C551.418 23.212 552.972 23.422 552.972 25.102C552.972 27.076 551.88 34.132 549.108 34.132ZM607.614 33.418H607.824C610.974 33.544 614.082 34.258 616.938 35.266C617.19 33.544 617.022 31.99 616.35 30.856C615.174 28.882 618.954 27.286 620.34 29.89C621.264 31.57 621.39 34.09 620.76 36.862C622.944 37.912 624.918 39.172 626.556 40.432C629.202 42.49 626.346 46.354 623.952 44.17C622.566 42.91 621.054 41.776 619.374 40.768C617.82 43.918 615.174 47.068 611.394 49.294C608.454 51.016 606.354 47.74 609.084 46.06C612.234 44.128 614.418 41.524 615.72 38.962C612.612 37.66 609.294 36.904 605.934 36.862C604.38 40.096 602.952 42.7 600.558 44.548C598.038 46.522 594.342 46.774 592.536 44.548C590.394 41.86 591.948 37.492 596.778 35.35C599.004 34.384 601.356 33.796 603.666 33.544C605.136 30.394 607.068 26.572 608.244 23.926C608.496 23.338 608.622 23.002 607.992 23.17C606.354 23.59 604.758 24.136 603.036 24.178C600.264 24.262 600.39 20.356 602.91 20.188C604.59 20.104 607.152 19.474 608.958 19.138C612.78 18.382 614.46 20.86 612.57 23.926C610.806 26.866 609.126 30.268 607.614 33.418ZM601.86 37.198C600.768 37.366 599.508 37.702 597.954 38.458C596.862 39.004 594.888 40.768 595.602 41.818C596.106 42.532 597.618 42.28 598.374 41.692C599.76 40.642 600.894 38.92 601.86 37.198ZM651.63 20.44L651.546 20.608C652.218 20.356 652.848 20.104 653.31 19.852C655.62 18.466 657.888 21.952 654.78 23.506C653.73 24.01 651.924 24.514 650.16 24.892C649.614 26.236 648.9 27.748 648.144 29.134C651.042 28.63 653.814 29.68 655.2 32.788C656.922 31.906 658.686 31.024 660.324 30.31C661.332 29.89 662.466 29.386 663.6 28.756C666.75 26.992 668.64 31.192 665.952 32.536C664.608 33.208 663.642 33.418 661.416 34.258C659.652 34.93 657.762 35.77 656.082 36.568C656.208 37.954 656.25 39.676 656.166 41.188C656.082 42.868 654.99 43.75 653.94 43.792C652.89 43.834 651.924 43.036 652.05 41.398C652.092 40.516 652.134 39.55 652.134 38.668C651.756 38.878 651.378 39.088 651.042 39.298C645.834 42.658 646.464 45.178 648.816 46.354C651.042 47.488 655.158 46.648 657.132 46.018C660.828 44.884 662.004 49.42 658.14 50.428C655.662 51.058 649.95 51.688 646.674 49.84C641.004 46.648 642.012 40.978 649.614 35.98C650.202 35.602 650.874 35.14 651.672 34.678C650.538 31.15 647.304 31.57 644.574 34.72C644.532 34.762 644.448 34.846 644.406 34.888C644.028 35.35 643.734 35.728 643.44 35.98C641.13 38.038 638.064 35.644 640.584 33.376C641.676 32.368 643.104 30.856 643.986 29.428C644.7 28.252 645.372 26.992 645.96 25.69C643.692 26.026 642.096 25.9 640.752 25.228C637.728 23.716 639.786 19.768 642.726 21.742C643.524 22.288 645.204 22.078 646.674 21.826C646.842 21.784 647.094 21.784 647.304 21.742C647.598 20.524 647.682 19.684 647.766 18.214C647.934 15.694 651.882 15.946 651.966 18.004C652.008 18.844 651.84 19.642 651.63 20.44ZM365.221 95.336C362.197 94.706 359.005 94.58 355.477 95.462C353.167 96.05 351.823 92.312 354.889 91.556C358.627 90.632 362.995 90.59 365.935 91.304C368.875 92.018 368.077 95.966 365.221 95.336ZM367.489 114.488C362.995 115.622 356.107 115.496 353.083 112.22C351.361 110.33 353.881 107.348 356.065 109.322C358.333 111.38 363.373 110.708 366.649 110.036C370.051 109.322 370.261 113.774 367.489 114.488ZM345.271 116.504C344.221 117.428 342.667 117.26 341.827 115.202C338.467 106.928 341.785 94.496 342.541 89.498C343.003 86.39 347.077 87.314 346.615 89.75C345.943 93.152 343.423 103.022 344.431 106.928C344.557 107.474 344.725 107.348 344.893 106.97C344.977 106.76 345.439 105.92 345.607 105.626C346.909 103.568 349.513 105.584 348.547 107.264C346.993 109.994 346.321 111.926 346.069 113.144C345.817 114.278 346.321 115.58 345.271 116.504ZM411.127 87.986L401.719 87.902C401.593 88.322 401.425 88.784 401.215 89.204C402.895 89.204 404.533 89.204 405.835 89.246C408.187 89.288 409.531 90.212 409.657 91.766C409.741 92.732 409.783 93.824 409.783 94.958C409.783 96.092 409.741 97.226 409.657 98.234C409.405 101.132 407.893 101.132 400.375 101.132C398.443 101.132 396.511 101.132 394.999 101.09C392.395 101.006 391.261 100.082 391.177 98.234C391.135 97.226 391.135 96.176 391.135 95.126C391.135 94.034 391.135 92.984 391.177 91.976C391.261 89.204 394.201 89.204 397.687 89.204C397.813 88.784 397.981 88.322 398.065 87.902L390.631 87.986C389.665 87.986 389.203 87.314 389.203 86.6C389.203 85.928 389.665 85.256 390.631 85.256L395.293 85.298C394.915 84.752 394.495 84.29 394.033 83.744C393.781 83.492 393.697 83.198 393.697 82.946C393.697 82.19 394.579 81.56 395.461 81.56C397.015 81.56 398.653 84.374 399.115 85.298H401.803C402.391 84.332 402.895 83.24 403.231 82.358C403.525 81.56 404.155 81.266 404.785 81.266C405.751 81.266 406.759 82.022 406.759 82.988C406.759 83.366 406.675 83.576 405.541 85.298L411.127 85.256C412.093 85.256 412.597 85.928 412.597 86.6C412.597 87.314 412.093 87.986 411.127 87.986ZM385.969 89.414C385.549 89.414 385.087 89.246 384.709 88.784C383.575 87.44 382.315 86.558 380.971 85.802C380.425 85.508 380.215 85.046 380.215 84.626C380.215 83.744 381.097 82.82 382.147 82.82C383.281 82.82 387.859 85.088 387.859 87.23C387.859 88.364 386.935 89.414 385.969 89.414ZM412.345 111.002H412.303L404.701 110.834V111.002L404.743 114.068C404.743 114.11 404.743 114.11 404.743 114.152C404.743 116.21 403.273 118.982 398.611 118.982C395.671 118.982 394.537 118.478 394.537 116.924C394.537 116.042 395.167 115.118 396.175 115.118C396.301 115.118 396.427 115.118 396.553 115.16C397.309 115.286 398.065 115.412 398.695 115.412C399.913 115.412 400.795 114.992 400.795 113.438C400.795 113.396 400.795 113.396 400.795 113.354V110.792L379.753 111.002H379.711C378.577 111.002 378.031 110.162 378.031 109.364C378.031 108.482 378.619 107.642 379.753 107.642L400.753 107.684L400.711 106.382C400.711 106.298 400.753 106.256 400.753 106.172C393.151 106.088 390.757 105.122 386.011 101.636C381.727 105.794 380.299 105.92 379.879 105.92C378.745 105.92 377.863 104.954 377.863 103.946C377.863 103.358 378.199 102.77 378.997 102.392C381.223 101.3 382.651 100.334 384.079 98.906C384.121 97.814 384.121 97.184 384.121 96.68C384.121 95.504 383.995 95.084 382.861 95.042C382.861 95.042 382.861 95.042 380.047 95.042C378.997 95.042 378.451 94.202 378.451 93.362C378.451 92.522 378.997 91.682 380.089 91.682C381.559 91.682 383.029 91.682 384.373 91.724C386.767 91.766 387.985 92.69 387.985 94.832C387.985 95.798 387.943 97.814 387.859 99.158C391.345 102.014 394.831 102.896 400.585 102.896C404.659 102.896 409.069 102.434 412.177 102.182C412.261 102.182 412.303 102.182 412.387 102.182C413.563 102.182 414.235 103.022 414.235 103.862C414.235 104.702 413.647 105.5 412.303 105.626C410.329 105.794 407.557 106.046 404.617 106.13V106.382L404.659 107.684L412.303 107.642C413.479 107.642 414.067 108.482 414.067 109.28C414.067 110.162 413.479 111.002 412.345 111.002ZM392.227 116.42C391.891 116.42 391.513 116.294 391.177 116C389.917 114.95 388.531 114.488 387.187 114.068C386.557 113.9 386.305 113.396 386.305 112.892C386.305 112.052 387.019 111.086 388.069 111.086C388.279 111.086 394.159 111.926 394.159 114.362C394.159 115.412 393.235 116.42 392.227 116.42ZM406.087 92.606V92.144C406.087 91.22 405.247 91.22 401.131 91.22C399.241 91.22 397.351 91.22 395.965 91.262C395.125 91.262 394.705 91.724 394.663 92.228V92.606H406.087ZM406.129 94.412H394.579V95.798H406.171C406.171 95.336 406.129 94.874 406.129 94.412ZM406.087 98.024L406.129 97.604H394.621L394.663 98.15C394.747 99.032 395.209 99.032 400.417 99.032C405.583 99.032 406.003 99.032 406.087 98.024ZM444.895 100.208C445.189 100.628 445.525 101.006 445.819 101.426C447.331 103.358 449.011 106.718 448.549 109.112C448.129 111.296 446.113 111.674 444.223 110.582C441.997 109.28 436.033 108.44 433.093 109.868C430.909 110.918 431.791 113.144 433.723 113.942C435.571 114.74 437.923 115.076 440.527 114.572C444.265 113.858 444.517 118.52 440.737 118.856C437.629 119.108 434.899 118.478 432.421 117.428C427.465 115.328 426.289 109.448 430.993 107.054C434.101 105.458 439.267 105.794 442.039 106.13C444.307 106.424 444.979 105.794 442.543 102.518C442.249 102.098 441.913 101.72 441.619 101.258C438.553 102.098 435.067 102.602 431.959 102.392C429.061 102.182 428.683 97.898 432.253 98.36C434.437 98.654 437.083 98.36 439.477 97.772C438.847 96.68 438.175 95.462 437.503 94.16C435.487 94.58 433.219 94.832 430.825 94.832C428.095 94.832 427.255 90.758 430.615 91.01C432.463 91.136 434.227 91.01 435.823 90.758C434.899 88.826 433.975 86.978 432.799 85.676C430.447 83.03 434.899 81.434 436.411 83.492C437.377 84.836 438.385 87.272 439.435 89.834C440.485 89.498 441.367 89.078 442.081 88.7C444.853 87.23 446.449 90.926 444.223 91.976C443.257 92.438 442.165 92.858 440.863 93.278C441.409 94.496 441.997 95.672 442.669 96.806C443.971 96.344 445.063 95.882 445.819 95.462C448.759 93.782 450.565 97.646 448.213 98.822C447.331 99.284 446.197 99.746 444.895 100.208ZM101.001 184.176H74.793C73.575 184.176 72.987 183.252 72.987 182.286C72.987 181.362 73.575 180.438 74.793 180.438H85.167V170.064H77.775C76.557 170.064 75.969 169.14 75.969 168.174C75.969 167.25 76.557 166.326 77.775 166.326H85.167V158.724C85.167 157.422 86.217 156.792 87.267 156.792C88.317 156.792 89.367 157.422 89.367 158.724V166.326H98.019C99.153 166.326 99.699 167.25 99.699 168.174C99.699 169.14 99.153 170.064 98.019 170.064H89.367V180.438H101.001C102.135 180.438 102.681 181.362 102.681 182.286C102.681 183.252 102.135 184.176 101.001 184.176ZM101.379 153.306C101.379 154.23 100.749 155.112 99.531 155.112C99.489 155.112 99.489 155.112 99.447 155.112C97.179 155.07 93.231 155.028 89.157 155.028C84.201 155.028 79.077 155.07 76.557 155.112C75.087 155.154 74.541 155.91 74.541 157.128C74.541 157.506 74.541 157.926 74.541 158.346C74.541 169.14 74.037 177.288 69.963 182.874C69.417 183.63 68.703 183.924 68.031 183.924C66.855 183.924 65.805 183.042 65.805 181.992C65.805 181.698 65.889 181.362 66.141 181.026C69.963 176.07 70.509 168.636 70.509 162C70.509 160.236 70.467 158.472 70.425 156.876C70.425 156.834 70.425 156.792 70.425 156.75C70.425 153.264 72.063 151.5 75.885 151.416C79.203 151.332 84.243 151.29 88.989 151.29C93.147 151.29 97.053 151.332 99.489 151.416C100.749 151.458 101.379 152.382 101.379 153.306ZM144.429 151.332V174.348C144.429 175.02 144.555 178.842 144.597 180.312C144.597 180.354 144.597 180.438 144.597 180.48C144.597 183.126 143.043 185.604 138.801 185.604C135.735 185.604 134.601 185.016 134.601 183.294C134.601 182.328 135.189 181.362 136.239 181.362C136.365 181.362 136.491 181.362 136.617 181.404C137.373 181.572 138.129 181.74 138.717 181.74C139.767 181.74 140.439 181.236 140.439 179.388C140.439 179.388 140.523 172.878 140.523 165.654C140.523 160.572 140.481 155.154 140.355 151.332C140.355 151.29 140.355 151.29 140.355 151.248C140.355 149.988 141.363 149.316 142.371 149.316C143.379 149.316 144.429 149.988 144.429 151.332ZM134.097 175.44V153.81C134.097 152.592 135.021 151.962 135.945 151.962C136.869 151.962 137.793 152.592 137.793 153.81V175.44C137.793 176.532 136.869 177.078 135.945 177.078C135.021 177.078 134.097 176.532 134.097 175.44ZM112.047 184.218V184.176L112.509 164.184C110.997 166.41 110.493 167.208 109.275 167.208C108.267 167.208 107.385 166.41 107.385 165.402C107.385 164.982 107.553 164.52 107.889 164.1C111.039 160.278 113.685 154.566 114.735 150.156C114.945 149.19 115.701 148.77 116.499 148.77C117.633 148.77 118.809 149.568 118.809 150.702C118.809 150.912 118.767 151.08 118.725 151.29C118.683 151.5 118.641 151.668 118.557 151.878C118.893 151.584 119.313 151.416 119.859 151.416H131.493C132.711 151.416 133.299 152.256 133.299 153.096C133.299 153.978 132.711 154.818 131.493 154.818H126.411C125.865 156.414 124.689 159.396 123.765 161.244C125.529 161.076 127.251 160.866 128.721 160.614C128.301 160.026 127.839 159.522 127.461 159.144C127.125 158.808 126.999 158.472 126.999 158.178C126.999 157.464 127.755 156.876 128.595 156.876C130.233 156.876 133.761 161.37 133.761 162.84C133.761 163.932 132.879 164.688 131.997 164.688C131.409 164.688 130.821 164.352 130.485 163.596C130.443 163.47 130.359 163.386 130.317 163.26C124.899 164.52 119.985 164.982 119.103 164.982C117.969 164.982 117.423 164.1 117.423 163.218C117.423 162.378 117.969 161.496 119.061 161.496C119.439 161.496 119.859 161.454 120.279 161.454C121.035 159.9 122.043 156.876 122.631 154.818H119.859C118.683 154.818 118.095 154.188 117.969 153.432C117.465 154.692 116.961 155.994 116.331 157.296L115.953 184.176C115.911 185.394 114.945 186.024 113.937 186.024C112.971 186.024 112.047 185.436 112.047 184.218ZM131.451 172.92L127.545 172.878V177.078C129.057 176.658 130.443 176.238 131.493 175.86C131.745 175.776 131.997 175.734 132.207 175.734C133.173 175.734 133.803 176.49 133.803 177.33C133.803 177.96 133.425 178.632 132.501 178.968C128.133 180.564 120.069 182.706 118.977 182.706C117.759 182.706 117.045 181.866 117.045 180.984C117.045 180.186 117.633 179.388 118.893 179.136C120.489 178.842 122.169 178.464 123.807 178.044V172.878L120.153 172.92C118.893 172.92 118.305 172.08 118.305 171.282C118.305 170.4 118.935 169.56 120.153 169.56H123.807L123.765 166.83C123.765 165.738 124.731 165.192 125.655 165.192C126.621 165.192 127.587 165.738 127.587 166.83V169.56H131.451C132.627 169.56 133.215 170.4 133.215 171.24C133.215 172.08 132.627 172.92 131.451 172.92ZM175.929 172.836C175.383 172.836 174.879 172.626 174.459 172.08C173.325 170.61 171.435 169.182 169.671 168.3C168.915 167.922 168.621 167.334 168.621 166.788C168.621 165.864 169.419 164.94 170.595 164.94C172.023 164.94 178.071 168.09 178.071 170.61C178.071 171.828 177.021 172.836 175.929 172.836ZM165.807 161.832C168.243 158.808 170.259 153.852 171.099 150.282C171.309 149.274 172.107 148.812 172.947 148.812C173.997 148.812 175.089 149.526 175.089 150.702C175.089 151.164 174.417 153.432 173.409 155.868C175.257 155.826 177.735 155.784 179.625 155.784C181.725 155.784 185.841 155.826 186.135 160.74C186.219 162.21 186.303 164.184 186.303 166.326C186.303 176.616 184.497 185.436 175.677 185.436C174.417 185.436 173.073 185.226 171.603 184.89C170.469 184.596 169.923 183.63 169.923 182.706C169.923 181.698 170.553 180.732 171.813 180.732C172.023 180.732 172.233 180.774 172.485 180.816C173.661 181.11 174.753 181.278 175.677 181.278C178.449 181.278 182.187 179.85 182.187 166.284C182.187 160.866 182.103 159.48 180.087 159.48C180.087 159.48 180.087 159.48 171.729 159.48C169.461 164.058 168.369 164.856 167.277 164.856C166.731 164.856 166.227 164.646 165.849 164.31C165.849 165.528 165.849 166.746 165.849 168.006C165.849 171.408 165.807 174.768 165.765 177.288C165.681 181.068 162.069 181.236 158.919 181.236C157.953 181.236 156.987 181.194 156.063 181.11C153.963 180.9 152.451 179.388 152.451 177.246C152.409 174.348 152.409 170.442 152.409 166.746C152.409 164.058 152.409 161.496 152.451 159.564C152.493 157.464 153.879 156.078 156.357 155.952H156.903C157.407 154.314 157.911 152.298 158.121 150.786C158.289 149.652 159.129 149.148 160.011 149.148C161.103 149.148 162.279 149.904 162.279 151.038C162.279 151.668 161.481 153.852 160.683 155.91C165.009 155.91 165.723 158.094 165.765 159.396C165.807 160.152 165.807 160.992 165.807 161.832ZM156.147 166.326H162.027C162.027 159.816 162.027 159.27 160.809 159.27C160.347 159.228 159.717 159.228 159.087 159.228C158.457 159.228 157.827 159.228 157.365 159.27C156.651 159.27 156.189 159.858 156.189 160.446C156.147 161.916 156.147 164.058 156.147 166.326ZM162.069 169.644H156.147C156.147 172.206 156.147 174.684 156.189 176.448C156.189 177.372 156.693 177.708 158.961 177.708C160.767 177.708 161.817 177.708 161.901 176.406C161.985 174.516 162.069 172.122 162.069 169.644ZM222.507 162.336C219.483 161.706 216.291 161.58 212.763 162.462C210.453 163.05 209.109 159.312 212.175 158.556C215.913 157.632 220.281 157.59 223.221 158.304C226.161 159.018 225.363 162.966 222.507 162.336ZM224.775 181.488C220.281 182.622 213.393 182.496 210.369 179.22C208.647 177.33 211.167 174.348 213.351 176.322C215.619 178.38 220.659 177.708 223.935 177.036C227.337 176.322 227.547 180.774 224.775 181.488ZM202.557 183.504C201.507 184.428 199.953 184.26 199.113 182.202C195.753 173.928 199.071 161.496 199.827 156.498C200.289 153.39 204.363 154.314 203.901 156.75C203.229 160.152 200.709 170.022 201.717 173.928C201.843 174.474 202.011 174.348 202.179 173.97C202.263 173.76 202.725 172.92 202.893 172.626C204.195 170.568 206.799 172.584 205.833 174.264C204.279 176.994 203.607 178.926 203.355 180.144C203.103 181.278 203.607 182.58 202.557 183.504ZM255.057 157.884V158.052C255.099 158.136 255.099 158.262 255.099 158.388C255.897 168.678 263.457 177.624 270.471 180.228C271.647 180.648 272.109 181.446 272.109 182.286C272.109 183.546 271.017 184.848 269.337 184.848C265.767 184.848 256.905 177.204 253.251 167.628C250.899 174.894 246.153 181.362 238.131 185.1C237.711 185.31 237.291 185.394 236.913 185.394C235.527 185.394 234.477 184.26 234.477 183.084C234.477 182.286 234.939 181.53 236.031 181.026C250.353 174.642 250.731 159.9 250.731 156.75C250.731 155.49 250.647 154.062 250.563 152.802C250.563 152.76 250.563 152.718 250.563 152.676C250.563 151.29 251.739 150.576 252.915 150.576C254.049 150.576 255.225 151.29 255.225 152.802C255.225 154.272 255.183 156.078 255.057 157.884ZM311.589 184.26H278.913C277.569 184.26 276.939 183.378 276.939 182.454C276.939 181.446 277.653 180.438 278.913 180.438L293.235 180.48V172.92L285.339 172.962C283.995 172.962 283.365 172.08 283.365 171.156C283.365 170.19 284.079 169.224 285.339 169.224L293.235 169.266V162.84L285.759 162.882C284.415 165.276 282.861 167.544 281.097 169.728C280.509 170.442 279.837 170.694 279.249 170.694C278.157 170.694 277.233 169.854 277.233 168.804C277.233 168.384 277.401 167.922 277.779 167.46C280.467 164.394 283.575 159.48 285.255 153.726C285.549 152.718 286.347 152.298 287.187 152.298C288.363 152.298 289.539 153.054 289.539 154.23C289.539 154.398 289.497 154.65 289.413 154.86C288.867 156.33 288.279 157.758 287.649 159.144L293.235 159.186V151.71C293.235 150.156 294.327 149.4 295.419 149.4C296.469 149.4 297.561 150.156 297.561 151.71V159.186L308.901 159.144C310.245 159.144 310.917 160.068 310.917 161.034C310.917 161.958 310.245 162.882 308.901 162.882L297.561 162.84V169.266L306.045 169.224C307.389 169.224 308.061 170.148 308.061 171.114C308.061 172.038 307.389 172.962 306.045 172.962L297.561 172.92V180.48L311.589 180.438C312.849 180.438 313.479 181.404 313.479 182.37C313.479 183.336 312.891 184.26 311.589 184.26ZM355.101 155.826C354.513 155.238 352.371 153.978 351.489 153.684C349.305 152.97 350.649 150.282 352.665 150.828C353.799 151.122 356.067 152.13 357.075 153.012C358.839 154.608 356.613 157.338 355.101 155.826ZM351.447 159.732C350.859 159.102 348.717 157.716 347.877 157.422C345.693 156.624 347.205 154.02 349.179 154.65C350.313 154.986 352.497 156.078 353.463 157.002C355.185 158.64 352.917 161.286 351.447 159.732ZM355.563 168.342C356.613 171.114 352.833 172.962 351.699 170.358C350.691 168.048 348.801 164.856 345.693 163.134C343.635 162 345.483 158.85 348.087 160.362C351.447 162.336 354.429 165.318 355.563 168.342ZM334.857 161.034L336.243 160.908C339.771 160.614 342.459 162.672 342.627 167.376C342.711 170.316 342.291 174.096 341.199 176.742C339.477 180.9 335.361 182.958 331.329 181.782C328.011 180.816 329.355 176.952 331.917 177.582C334.311 178.17 336.075 177.792 337.251 175.314C338.217 173.256 338.595 170.274 338.595 168.048C338.595 165.486 337.713 164.268 335.781 164.436C335.151 164.478 334.521 164.562 333.849 164.646C331.791 171.156 328.977 176.868 325.701 181.53C323.685 184.386 319.317 181.95 322.047 178.884C324.945 175.65 327.549 170.862 329.481 165.234L328.977 165.318C327.171 165.654 325.533 165.906 324.441 165.906C321.585 165.906 321.627 162.126 324.315 161.874C325.617 161.748 326.919 161.79 328.431 161.664L330.531 161.454C331.035 159.606 331.581 157.128 331.833 154.776C332.127 152.046 336.411 152.298 336.075 155.112C335.907 156.54 335.361 159.06 334.857 161.034ZM392.271 171.072H387.105V175.188C389.751 175.188 392.397 175.104 394.413 175.104C395.505 175.104 396.009 175.944 396.009 176.784C396.009 177.624 395.505 178.464 394.413 178.506C392.313 178.548 389.583 178.548 386.769 178.548C383.955 178.548 381.057 178.548 378.663 178.506C374.631 178.422 374.505 175.776 374.505 173.256C374.505 170.316 374.589 165.78 374.673 162.63C374.589 162.714 373.665 163.848 372.573 163.848C371.607 163.848 370.683 163.176 370.683 162.252C370.683 161.874 370.851 161.412 371.313 160.992C374.043 158.388 376.185 154.314 377.361 151.038C377.655 150.24 378.327 149.904 379.041 149.904C380.049 149.904 381.099 150.576 381.099 151.626C381.099 152.382 379.545 155.406 379.209 155.994C380.469 155.994 381.813 155.952 383.241 155.952C383.283 155.826 383.283 155.658 383.367 155.49C383.955 154.146 384.375 153.138 385.089 150.912C385.299 150.24 385.971 149.946 386.643 149.946C387.735 149.946 388.911 150.618 388.911 151.584C388.911 152.34 387.315 155.49 387.063 155.952C389.499 155.952 391.851 155.994 393.741 155.994C394.833 155.994 395.379 156.792 395.379 157.59C395.379 158.388 394.833 159.186 393.699 159.186H393.657C391.767 159.144 389.457 159.144 387.105 159.144V162.21H392.271C393.279 162.21 393.783 162.924 393.783 163.638C393.783 164.394 393.279 165.108 392.271 165.108H387.105V168.174H392.271C393.279 168.174 393.783 168.888 393.783 169.602C393.783 170.358 393.279 171.072 392.271 171.072ZM369.297 158.766C368.793 158.766 368.247 158.514 367.869 157.884C366.777 156.204 364.929 154.902 363.753 154.23C363.165 153.894 362.913 153.432 362.913 152.928C362.913 152.004 363.921 151.038 365.055 151.038C366.315 151.038 371.565 154.272 371.565 156.414C371.565 157.632 370.431 158.766 369.297 158.766ZM369.087 180.438C366.987 182.79 364.383 185.436 362.745 185.436C361.527 185.436 360.435 184.344 360.435 183.21C360.435 182.622 360.729 182.034 361.485 181.614C363.753 180.354 365.685 178.926 367.113 177.246C367.197 175.02 367.281 173.13 367.281 171.282C367.281 170.988 367.281 170.694 367.281 170.4C367.281 169.308 366.777 169.182 365.349 169.182C364.761 169.182 364.257 169.182 363.711 169.182C362.913 169.182 361.401 169.14 361.401 167.376C361.401 166.452 362.031 165.486 363.165 165.486C364.677 165.486 365.853 165.486 367.239 165.528C369.927 165.612 371.187 166.788 371.187 169.476C371.187 171.912 371.019 174.768 371.019 177.456C373.665 180.816 377.991 181.698 383.829 181.698C388.029 181.698 392.607 181.236 395.799 180.984C395.883 180.984 395.925 180.984 396.009 180.984C397.311 180.984 398.025 181.992 398.025 183C398.025 183.966 397.395 184.974 395.925 185.1C393.279 185.352 389.415 185.604 385.593 185.604C376.479 185.604 373.035 184.512 369.087 180.438ZM383.451 162.21V159.186H379.587C378.957 159.186 378.411 159.564 378.369 160.614C378.369 161.034 378.327 161.58 378.327 162.21H383.451ZM383.451 168.174V165.108H378.243V168.174H383.451ZM383.451 175.188V171.072H378.243V173.55C378.243 175.188 379.125 175.188 383.451 175.188ZM433.683 180.9C429.147 184.47 420.747 185.394 420.831 177.456C420.831 175.524 421.125 174.348 421.041 172.458C420.831 167.796 414.447 171.744 413.271 173.844C412.263 175.65 411.087 177.498 410.625 179.556C409.869 182.79 408.945 183 408.105 183.126C406.635 183.336 404.661 182.328 405.627 179.892C407.517 175.146 409.911 170.946 412.347 167.166C414.783 163.386 416.967 159.816 419.025 156.54C419.739 155.364 420.873 153.894 421.335 153.054C422.721 150.576 426.627 152.676 425.241 155.322C424.905 155.91 424.611 156.372 424.275 156.792C423.939 157.212 423.519 157.674 423.057 158.22C421.041 160.488 419.697 162.252 418.605 163.806C417.513 165.36 416.673 166.704 415.749 168.09C415.455 168.51 415.581 168.426 415.875 168.174C417.387 166.83 424.653 164.856 425.241 171.954C425.367 173.592 425.031 175.02 425.031 176.574C425.031 180.312 428.643 179.85 431.121 177.624C433.263 175.692 434.187 173.676 434.943 171.744C436.161 168.636 440.571 170.778 438.975 173.928C437.799 176.238 436.161 178.968 433.683 180.9ZM477.675 165.36C477.087 164.688 474.903 163.218 474.021 162.882C471.753 162 473.391 159.312 475.449 159.984C476.625 160.362 478.893 161.496 479.901 162.504C481.665 164.268 479.187 167.04 477.675 165.36ZM473.349 169.182C472.761 168.51 470.661 166.914 469.779 166.536C467.553 165.57 469.233 162.966 471.291 163.722C472.467 164.142 474.735 165.318 475.701 166.368C477.423 168.216 474.819 170.904 473.349 169.182ZM469.317 183.882C456.633 183.84 452.265 172.206 456.843 163.764C457.263 162.966 457.641 162.294 458.187 161.58C458.859 160.698 458.649 160.74 457.851 160.992C454.701 162 455.415 162 452.559 163.092C451.215 163.596 450.039 164.016 448.779 164.352C445.083 165.36 443.949 160.53 447.309 159.816C448.191 159.606 450.627 159.144 451.971 158.808C454.029 158.304 457.725 157.464 462.009 156.246C466.335 155.028 469.737 154.02 473.433 153.768C476.037 153.6 476.751 155.658 476.289 157.002C476.037 157.716 475.113 158.556 472.173 158.388C470.031 158.262 467.385 159.06 465.957 159.564C463.605 160.404 461.463 162.924 460.539 164.478C456.843 170.652 459.657 179.472 469.065 179.136C473.475 178.968 473.769 183.924 469.317 183.882ZM519.675 170.106C520.011 173.172 515.853 174.012 515.265 171.114C514.593 167.754 512.871 164.52 510.603 162.966C508.587 161.58 510.855 158.472 513.375 160.362C516.357 162.588 519.255 166.536 519.675 170.106ZM501.321 177.036C498.633 181.404 494.895 181.026 492.543 178.506C489.519 175.23 488.133 170.358 487.797 165.066C487.629 162.672 487.545 161.916 487.587 160.404C487.671 157.758 491.745 157.212 491.871 160.362C491.955 162 491.787 162.084 491.871 164.016C492.039 168.426 492.837 172.584 495.189 174.852C496.281 175.902 496.827 176.028 497.751 174.768C498.255 174.054 498.843 172.962 499.137 172.29C500.271 169.854 503.757 171.618 502.959 173.802C502.539 174.978 501.783 176.28 501.321 177.036ZM551.427 181.278C552.729 184.092 548.655 186.57 547.311 183.882C544.875 179.094 541.305 173.634 538.407 170.232C535.635 166.998 535.635 164.016 538.911 160.614C541.767 157.632 545.001 154.524 547.521 151.122C549.453 148.56 553.233 151.542 551.259 153.978C549.159 156.54 544.707 160.194 542.103 162.798C540.297 164.604 540.213 165.864 541.599 167.586C545.799 172.836 549.369 176.784 551.427 181.278ZM577.509 181.32C577.509 183.966 575.367 186.108 572.721 186.108C570.075 186.108 567.933 183.966 567.933 181.32C567.933 178.674 570.075 176.532 572.721 176.532C575.367 176.532 577.509 178.674 577.509 181.32ZM575.913 181.32C575.913 179.556 574.485 178.17 572.721 178.17C570.957 178.17 569.529 179.556 569.529 181.32C569.529 183.084 570.957 184.512 572.721 184.512C574.485 184.512 575.913 183.084 575.913 181.32Z" fill="black"/>
<path d="M224.123 94.244C222.989 94.244 221.897 93.404 221.897 92.144C221.897 91.724 222.065 91.22 222.359 90.674C223.325 89.036 224.795 86.264 225.761 85.046C226.181 84.5 226.769 84.29 227.273 84.29C228.239 84.29 229.121 84.962 229.121 85.97C229.121 86.222 229.079 86.474 228.953 86.768C226.139 93.488 225.803 94.244 224.123 94.244ZM216.731 94.202C215.555 94.202 214.463 93.362 214.463 92.144C214.463 91.724 214.631 91.22 214.967 90.674C219.083 84.29 219.545 84.29 220.469 84.29C221.393 84.29 222.317 84.962 222.317 85.928C222.317 86.222 222.233 86.474 222.107 86.768C218.747 93.698 218.243 94.202 216.731 94.202ZM264.642 87.02H261.366C260.4 94.328 254.352 97.226 253.05 97.226C251.916 97.226 251.244 96.26 251.244 95.336C251.244 94.748 251.538 94.202 252.126 93.908C255.822 92.228 257.166 89.708 257.628 87.02C256.284 87.02 254.94 87.062 253.554 87.104H253.512C252.378 87.104 251.79 86.264 251.79 85.424C251.79 84.584 252.42 83.702 253.596 83.66C255.612 83.618 257.628 83.618 259.686 83.618C261.702 83.618 263.76 83.618 265.86 83.66C268.548 83.702 269.64 85.13 269.64 87.776C269.64 90.17 269.262 96.428 263.592 96.428C262.626 96.428 261.534 96.26 260.316 95.882C259.476 95.63 259.14 94.916 259.14 94.202C259.14 93.194 259.812 92.144 260.904 92.144C261.198 92.144 261.492 92.228 261.786 92.354C262.5 92.69 263.046 92.816 263.508 92.816C265.524 92.816 265.86 89.204 265.86 88.322C265.86 87.356 265.482 87.02 264.642 87.02ZM269.346 111.086L263.088 111.044L263.13 116.882C263.13 118.142 262.164 118.814 261.156 118.814C260.232 118.814 259.266 118.184 259.266 116.882L259.308 111.044L253.092 111.086C251.832 111.086 251.286 110.33 251.286 109.532C251.286 108.692 251.916 107.81 253.092 107.81L259.308 107.852V104.24H256.032C254.73 106.676 254.058 107.18 253.134 107.18C252.084 107.18 251.16 106.382 251.16 105.5C251.16 105.206 251.244 104.912 251.454 104.618C253.05 102.392 253.722 101.006 254.394 98.486C254.604 97.73 255.234 97.394 255.948 97.394C256.914 97.394 257.964 98.024 257.964 98.99C257.964 99.368 257.838 99.746 257.376 101.048H259.266V98.696C259.266 97.478 260.232 96.848 261.198 96.848C262.164 96.848 263.13 97.478 263.13 98.696L263.088 101.048L267.876 101.006C269.052 101.006 269.64 101.804 269.64 102.644C269.64 103.442 269.052 104.282 267.876 104.282L263.088 104.24V107.852L269.346 107.81C270.522 107.81 271.068 108.608 271.068 109.448C271.068 110.246 270.522 111.086 269.346 111.086ZM247.338 108.566H238.77C238.392 111.716 237.636 114.782 236.292 117.512C235.872 118.352 235.158 118.73 234.486 118.73C233.52 118.73 232.638 118.016 232.638 117.092C232.638 116.798 232.68 116.546 232.848 116.252C235.368 111.422 235.83 105.962 235.83 100.544C235.83 99.158 235.788 97.772 235.746 96.386C235.368 96.932 234.78 97.184 234.192 97.184C233.226 97.184 232.302 96.512 232.302 95.588C232.302 95.21 232.428 94.832 232.722 94.412C235.242 91.052 237.468 86.432 238.308 82.82C238.518 81.896 239.316 81.476 240.156 81.476C241.122 81.476 242.13 82.064 242.13 83.072C242.13 83.198 242.046 83.828 241.71 84.71C242.466 84.71 243.474 84.71 244.23 84.71C245.28 84.71 247.968 84.71 247.968 86.936C247.968 87.272 247.884 88.322 246.204 91.43C246.498 91.43 246.75 91.472 247.002 91.472C249.606 91.556 250.656 92.774 250.698 95.084C250.698 96.512 250.698 98.276 250.698 99.998C250.698 108.23 250.698 109.868 250.824 113.438C250.824 113.48 250.824 113.564 250.824 113.606C250.824 116.084 249.27 118.478 245.238 118.478C243.306 118.478 241.332 118.31 241.332 116.378C241.332 115.454 241.92 114.53 242.886 114.53C243.012 114.53 243.138 114.53 243.264 114.572C243.936 114.698 244.608 114.866 245.238 114.866C246.414 114.866 247.296 114.362 247.296 112.472C247.296 112.472 247.338 110.876 247.338 108.566ZM239.442 89.708L238.434 91.598C238.77 91.556 239.106 91.472 239.484 91.472C240.24 91.472 241.29 91.43 242.424 91.43C242.97 90.38 243.684 88.952 243.684 88.448C243.684 87.86 243.096 87.86 242.34 87.86C241.668 87.86 240.87 87.86 240.324 87.902C240.03 88.49 239.736 89.12 239.442 89.708ZM244.566 98.486H247.296C247.296 94.832 247.17 94.454 245.826 94.412H244.566V98.486ZM241.668 98.486V94.454H240.576C239.442 94.454 239.148 95.042 239.148 95.84C239.148 96.68 239.19 97.562 239.19 98.486H241.668ZM247.338 105.584V101.342H244.566V105.584H247.338ZM241.668 105.584V101.342H239.19C239.19 102.728 239.106 104.156 239.022 105.584H241.668ZM311.178 103.148H311.136L300.09 103.064C302.148 107.894 305.76 111.8 311.724 114.068C312.732 114.446 313.152 115.202 313.152 116C313.152 117.176 312.228 118.352 310.8 118.352C308.784 118.352 301.644 114.32 297.57 106.256C293.748 116.084 284.676 118.856 283.836 118.856C282.618 118.856 281.778 117.764 281.778 116.714C281.778 116 282.156 115.286 283.164 114.95C290.388 112.43 293.412 107.558 294.63 103.064L286.902 103.148H286.86C285.642 103.148 285.054 102.224 285.054 101.3C285.054 100.376 285.684 99.452 286.902 99.452H295.302C295.344 99.242 295.47 97.94 295.47 94.832C295.47 93.782 295.512 92.774 295.512 91.808C293.286 91.808 291.102 91.808 289.59 91.85H289.548C288.33 91.85 287.742 90.968 287.742 90.044C287.742 89.12 288.372 88.196 289.59 88.196C291.144 88.154 293.244 88.154 295.47 88.154C295.47 86.684 295.428 85.256 295.428 83.954V83.912C295.428 82.526 296.394 81.896 297.402 81.896C298.452 81.896 299.502 82.568 299.502 83.87V88.154C300.93 88.154 302.274 88.154 303.45 88.196C306.264 88.28 307.86 89.792 307.902 91.808C307.944 93.11 307.986 94.664 307.986 96.218C307.986 97.31 307.944 98.402 307.944 99.452H311.136C312.312 99.452 312.9 100.376 312.9 101.3C312.9 102.224 312.312 103.148 311.178 103.148ZM284.634 90.716C284.172 90.716 283.668 90.506 283.248 90.002C281.946 88.406 279.72 87.02 278.712 86.39C278.166 86.054 277.914 85.55 277.914 85.088C277.914 84.164 278.88 83.198 280.014 83.198C280.728 83.198 286.776 85.97 286.776 88.448C286.776 89.624 285.726 90.716 284.634 90.716ZM282.408 99.62C282.03 99.62 281.61 99.494 281.232 99.158C279.594 97.814 277.536 96.848 276.024 96.302C275.268 96.05 274.974 95.504 274.974 94.916C274.974 93.95 275.814 92.9 276.99 92.9C278.418 92.9 282.198 94.58 283.458 95.546C284.088 96.008 284.34 96.68 284.34 97.31C284.34 98.486 283.458 99.62 282.408 99.62ZM280.14 116.714C279.552 117.596 278.796 117.932 278.082 117.932C276.948 117.932 275.898 117.008 275.898 115.916C275.898 115.496 276.024 115.118 276.318 114.698C278.586 111.632 280.476 107.852 281.652 104.534C281.946 103.694 282.66 103.316 283.374 103.316C284.382 103.316 285.39 104.03 285.39 105.248C285.39 106.172 283.08 112.43 280.14 116.714ZM299.208 99.452H304.038C304.08 98.234 304.08 96.974 304.08 95.756C304.08 92.69 304.08 91.892 302.274 91.85C301.518 91.85 300.552 91.808 299.502 91.808V94.622C299.502 96.05 299.418 97.688 299.208 99.452ZM325.542 94.454C324.618 94.454 323.694 93.782 323.694 92.816C323.694 92.522 323.778 92.27 323.904 91.976C327.264 85.046 327.768 84.542 329.28 84.542C330.456 84.542 331.548 85.382 331.548 86.6C331.548 87.02 331.38 87.524 331.044 88.07C326.928 94.454 326.466 94.454 325.542 94.454ZM320.25 93.698C319.83 94.244 319.242 94.454 318.738 94.454C317.772 94.454 316.89 93.782 316.89 92.774C316.89 92.522 316.932 92.27 317.058 91.976C319.872 85.256 320.208 84.5 321.888 84.5C323.022 84.5 324.114 85.34 324.114 86.6C324.114 87.02 323.946 87.524 323.652 88.07C322.686 89.708 321.216 92.48 320.25 93.698Z" fill="#E89A08"/>
<path d="M84.8368 264.886C86.2648 266.944 83.3248 269.212 82.1068 267.322C81.6448 266.566 79.7548 264.76 78.9148 264.256C76.8148 262.996 78.9148 260.602 80.8468 261.652C81.9388 262.24 84.0388 263.71 84.8368 264.886ZM80.2168 268.246C81.6028 270.346 78.5368 272.53 77.4028 270.598C76.9408 269.8 75.1348 267.868 74.3368 267.364C72.3208 266.062 74.4628 263.794 76.3528 264.886C77.4448 265.516 79.4188 267.07 80.2168 268.246ZM55.7308 281.182L55.0168 281.434C51.3208 282.61 49.7248 283.072 48.4648 283.45C45.1468 284.416 44.0128 279.964 47.4988 279.124C49.3888 278.662 52.4548 277.906 54.3028 277.486L55.5208 277.192V276.688C55.4368 274.252 55.3108 272.488 55.2268 270.682C55.1008 267.826 59.5948 267.574 59.6368 270.514C59.6368 271.858 59.5948 273.79 59.5108 275.764L59.4688 276.31C62.2408 275.722 65.7268 275.05 69.1708 274.462C69.1708 273.202 69.1288 271.984 69.1288 270.934C69.1288 270.01 69.1288 269.632 69.0868 269.296C69.0448 268.96 69.0868 268.54 69.0448 267.616C68.9608 265.012 73.2448 264.676 73.2448 267.658C73.2448 269.086 73.1608 270.304 73.0768 271.48C73.0348 272.194 72.9928 273.034 72.9508 273.874C73.3288 273.832 73.6648 273.79 74.0428 273.748C76.4368 273.454 78.7888 273.16 81.0148 273.286C84.4588 273.496 83.7868 277.612 80.3848 277.402C78.2848 277.276 76.6048 277.318 74.4628 277.486C73.8748 277.528 73.2868 277.57 72.6988 277.612C72.6568 278.326 72.5728 279.082 72.4888 279.796C72.0688 282.652 71.2288 285.298 69.2548 286.642C67.6588 287.734 65.5168 287.818 64.0888 286.012C63.5008 285.298 62.8708 284.542 62.4088 283.744C61.3168 281.896 63.6268 279.922 65.2648 282.064C66.4828 283.66 67.1968 283.45 67.7848 282.568C68.4568 281.518 68.8348 279.922 69.0028 278.116C65.5168 278.662 62.2408 279.376 59.4688 280.09C59.5108 282.064 59.5528 284.122 59.6788 285.592C60.0148 290.128 61.3588 291.514 64.8868 291.598C67.4908 291.682 69.2968 291.094 71.7328 290.506C74.9248 289.75 75.8908 293.782 72.9088 294.622C70.0108 295.42 66.6508 295.588 64.2148 295.336C58.7128 294.748 56.6968 292.144 56.1088 286.432C55.9408 284.92 55.8148 282.946 55.7308 281.182ZM110.457 292.942C104.493 298.864 93.7408 298.15 93.1948 286.726C92.8168 279.166 96.8908 273.622 98.4868 270.766C98.6548 270.514 98.8648 270.178 98.5288 270.262C97.8988 270.43 96.8488 270.556 95.3788 270.64C92.0608 270.808 92.2708 266.23 95.5888 266.314C98.9908 266.398 101.763 265.768 103.569 264.718C106.257 263.164 108.441 267.112 105.417 268.624C102.477 270.094 96.1348 278.452 97.0588 286.726C97.7728 293.068 103.485 293.614 107.853 289.54C113.187 284.584 113.019 274.966 111.843 272.278C111.591 271.732 111.171 270.724 110.751 270.01C109.029 267.028 113.271 264.844 115.035 268.288C116.631 271.438 118.731 273.748 123.183 276.184C126.081 277.78 123.561 281.854 120.663 280.048C118.857 278.914 117.177 277.192 116.127 275.848C115.875 275.512 115.749 275.428 115.875 275.848C116.841 279.67 115.833 287.608 110.457 292.942ZM164.301 281.728H132.423C130.869 281.728 130.071 280.594 130.071 279.46C130.071 278.326 130.869 277.192 132.423 277.192H164.301C165.813 277.192 166.527 278.326 166.527 279.418C166.527 280.594 165.771 281.728 164.301 281.728ZM206.847 290.758C206.679 293.698 204.663 295.84 201.639 295.966C198.405 296.092 193.911 296.176 189.585 296.176C185.889 296.176 182.319 296.092 179.715 295.966C176.061 295.798 174.255 293.992 174.129 290.884C174.045 288.49 173.961 284.08 173.961 279.586C173.961 275.05 174.045 270.388 174.129 267.574C174.213 264.886 176.229 263.122 179.379 262.996C182.067 262.912 186.645 262.87 191.139 262.87C195.171 262.87 199.161 262.912 201.723 262.996C204.285 263.122 206.763 264.886 206.847 267.91C206.931 270.934 207.015 275.974 207.015 280.72C207.015 284.668 206.973 288.406 206.847 290.758ZM202.773 289.246C202.899 287.104 202.941 283.24 202.941 279.418C202.941 275.554 202.899 271.648 202.773 269.464C202.647 267.07 201.849 266.65 199.791 266.608C196.641 266.566 192.441 266.524 188.661 266.524C185.553 266.524 182.739 266.566 181.143 266.608C178.749 266.692 178.119 267.322 178.035 269.464C177.951 271.648 177.867 276.058 177.867 280.384C177.867 283.912 177.909 287.356 178.035 289.372C178.161 291.766 178.959 292.144 181.563 292.228C183.957 292.312 187.275 292.354 190.593 292.354C193.911 292.354 197.229 292.312 199.623 292.228C201.975 292.144 202.689 291.052 202.773 289.246ZM198.279 283.408C198.111 285.508 196.599 287.188 194.373 287.314C193.197 287.356 191.685 287.398 190.131 287.398C188.619 287.398 187.107 287.356 185.973 287.314C183.957 287.188 182.529 285.592 182.445 283.492C182.403 282.274 182.403 280.804 182.403 279.292C182.403 277.822 182.403 276.31 182.445 275.05C182.529 273.286 183.747 271.564 185.889 271.438C186.897 271.396 188.283 271.354 189.669 271.354C191.433 271.354 193.197 271.396 194.499 271.438C196.179 271.522 198.195 272.74 198.279 274.756C198.363 276.184 198.405 277.99 198.405 279.712C198.405 281.056 198.363 282.358 198.279 283.408ZM190.551 283.954C194.583 283.954 194.583 283.912 194.583 279.922C194.583 278.536 194.541 277.108 194.499 276.1C194.457 275.302 193.785 274.84 193.071 274.798C192.357 274.756 191.265 274.756 190.173 274.756C189.123 274.756 188.073 274.756 187.401 274.798C186.603 274.84 186.141 275.47 186.099 276.142C186.057 277.066 186.057 278.284 186.057 279.46C186.057 280.594 186.057 281.77 186.099 282.652C186.183 283.912 187.149 283.954 190.551 283.954ZM249.267 277.36C248.679 276.688 246.495 275.218 245.613 274.882C243.345 274 244.983 271.312 247.041 271.984C248.217 272.362 250.485 273.496 251.493 274.504C253.257 276.268 250.779 279.04 249.267 277.36ZM244.941 281.182C244.353 280.51 242.253 278.914 241.371 278.536C239.145 277.57 240.825 274.966 242.883 275.722C244.059 276.142 246.327 277.318 247.293 278.368C249.015 280.216 246.411 282.904 244.941 281.182ZM240.909 295.882C228.225 295.84 223.857 284.206 228.435 275.764C228.855 274.966 229.233 274.294 229.779 273.58C230.451 272.698 230.241 272.74 229.443 272.992C226.293 274 227.007 274 224.151 275.092C222.807 275.596 221.631 276.016 220.371 276.352C216.675 277.36 215.541 272.53 218.901 271.816C219.783 271.606 222.219 271.144 223.563 270.808C225.621 270.304 229.317 269.464 233.601 268.246C237.927 267.028 241.329 266.02 245.025 265.768C247.629 265.6 248.343 267.658 247.881 269.002C247.629 269.716 246.705 270.556 243.765 270.388C241.623 270.262 238.977 271.06 237.549 271.564C235.197 272.404 233.055 274.924 232.131 276.478C228.435 282.652 231.249 291.472 240.657 291.136C245.067 290.968 245.361 295.924 240.909 295.882ZM289.503 278.746C288.999 278.746 288.537 278.536 288.075 278.074C286.479 276.31 284.127 274.798 282.111 273.958C281.397 273.664 281.145 273.16 281.145 272.614C281.145 271.606 282.027 270.556 283.161 270.556C284.001 270.556 288.159 272.11 290.973 274.798C291.477 275.26 291.687 275.848 291.687 276.394C291.687 277.612 290.637 278.746 289.503 278.746ZM289.797 268.414H279.885L279.927 270.052L280.011 275.638C280.011 275.68 280.011 275.722 280.011 275.722C280.011 278.074 278.751 280.636 275.181 280.636C274.005 280.636 271.821 280.51 271.821 278.494C271.821 277.57 272.409 276.646 273.375 276.646C273.501 276.646 273.627 276.646 273.795 276.688C274.215 276.814 274.635 276.898 275.013 276.898C275.769 276.898 276.357 276.478 276.357 275.134V268.414H272.871C272.871 268.498 272.871 268.624 272.871 268.708C272.871 275.344 270.141 279.334 265.269 282.274C264.765 282.568 264.303 282.694 263.883 282.694C262.707 282.694 261.825 281.728 261.825 280.762C261.825 280.132 262.203 279.502 263.043 279.082C267.327 277.066 269.175 274.126 269.175 269.086C269.175 268.876 269.175 268.624 269.175 268.414H258.927C257.625 268.414 256.953 267.532 256.953 266.608C256.953 265.684 257.667 264.718 258.927 264.718H272.283V262.156C272.283 260.854 273.333 260.182 274.425 260.182C275.475 260.182 276.567 260.854 276.567 262.156V264.718H289.797C291.057 264.718 291.687 265.642 291.687 266.566C291.687 267.49 291.057 268.414 289.797 268.414ZM266.571 273.37C264.303 275.764 260.649 278.662 258.801 278.662C257.541 278.662 256.701 277.696 256.701 276.688C256.701 276.058 257.037 275.47 257.877 275.092C260.187 274.084 261.909 272.782 263.715 270.766C264.135 270.304 264.639 270.136 265.101 270.136C266.151 270.136 267.117 271.018 267.117 272.068C267.117 272.488 266.949 272.95 266.571 273.37ZM274.929 293.446C269.007 297.184 262.161 297.688 262.119 297.688C260.859 297.688 260.145 296.68 260.145 295.714C260.145 294.874 260.691 294.034 261.993 293.95C265.563 293.656 268.839 292.606 271.611 291.136C270.393 290.086 269.343 288.91 268.545 287.692C263.673 292.228 259.263 294.244 258.339 294.244C257.205 294.244 256.491 293.32 256.491 292.396C256.491 291.766 256.869 291.094 257.667 290.758C261.531 289.12 265.815 285.928 269.679 280.972C270.099 280.426 270.729 280.174 271.317 280.174C272.325 280.174 273.291 280.846 273.291 281.812C273.291 282.064 273.249 282.316 273.123 282.568C275.601 282.526 279.255 282.442 279.927 282.442C282.111 282.442 283.203 283.618 283.203 284.962C283.203 286.432 281.985 287.818 278.247 291.01C281.229 292.186 285.135 292.942 290.175 292.942C291.309 292.942 291.897 293.824 291.897 294.748C291.897 296.386 290.637 296.974 289.041 296.974C283.455 296.974 278.625 295.588 274.929 293.446ZM271.149 285.592C272.073 286.894 273.249 288.07 274.719 289.12C275.811 288.28 276.777 287.398 277.617 286.474C277.827 286.222 277.911 286.012 277.911 285.886C277.911 285.592 277.659 285.508 277.407 285.508C277.365 285.508 277.323 285.508 277.281 285.508C277.071 285.55 273.585 285.592 271.149 285.592ZM307.311 288.364L307.059 288.784C306.471 289.75 305.841 290.884 305.085 292.186C303.363 295.21 299.373 292.858 301.221 290.086C301.767 289.246 302.145 288.826 302.481 288.406C304.371 285.55 306.765 281.434 308.067 278.158L308.151 277.15C308.025 277.108 307.857 277.108 307.605 277.234C306.513 277.738 305.589 278.41 304.581 279.04C301.557 280.93 300.171 276.73 302.565 275.596C304.119 274.882 306.387 273.79 308.529 272.908C308.823 269.842 309.075 267.196 309.243 265.39C309.495 262.45 313.737 263.038 313.359 265.516C313.149 267.028 312.855 269.086 312.561 271.522C314.199 271.564 315.333 273.58 313.443 276.268C313.233 276.562 312.603 277.738 311.763 279.25V279.46C313.023 278.536 314.241 277.738 315.375 277.15C322.851 273.16 329.529 274.546 332.553 277.99C335.619 281.434 334.905 287.104 328.563 291.682C327.051 292.774 324.573 294.076 322.599 294.748C319.827 295.714 317.895 291.682 321.255 290.464C323.187 289.75 324.657 289.12 325.707 288.406C330.159 285.424 330.663 282.148 328.815 280.216C326.925 278.284 322.557 277.696 316.761 280.678C314.577 281.812 312.939 282.904 311.469 284.206C311.301 287.986 311.385 291.556 311.805 294.202C312.057 295.714 311.007 296.722 309.873 296.89C308.739 297.058 307.521 296.386 307.353 294.58C307.185 293.026 307.185 290.884 307.311 288.364ZM367.245 291.514C364.725 293.614 361.407 295.126 356.829 295.882C353.511 296.428 353.175 292.396 356.073 291.976C359.895 291.43 362.793 290.296 364.893 288.448C367.413 286.222 367.539 283.912 366.279 282.484C364.473 280.426 361.155 280.468 358.425 281.266C355.401 282.19 352.671 283.87 349.815 285.172C346.917 286.516 345.279 282.61 348.009 281.476C350.697 280.384 354.351 278.704 357.669 277.864C361.197 276.982 366.027 276.94 368.967 280.006C372.495 283.66 371.067 288.322 367.245 291.514ZM407.437 295.882C394.753 295.84 390.385 284.206 394.963 275.764C395.383 274.966 395.761 274.294 396.307 273.58C396.979 272.698 396.769 272.74 395.971 272.992C392.821 274 393.535 274 390.679 275.092C389.335 275.596 388.159 276.016 386.899 276.352C383.203 277.36 382.111 272.53 385.471 271.816C386.353 271.606 388.789 271.144 390.133 270.808C392.191 270.304 395.845 269.464 400.129 268.246C404.455 267.028 407.899 266.02 411.595 265.768C414.199 265.6 414.913 267.658 414.451 269.002C414.199 269.716 413.275 270.556 410.335 270.388C408.193 270.262 405.505 271.06 404.077 271.564C401.725 272.404 399.625 274.924 398.701 276.478C395.005 282.652 397.819 291.472 407.227 291.136C411.637 290.968 411.889 295.924 407.437 295.882ZM457.585 282.106C457.921 285.172 453.763 286.012 453.175 283.114C452.503 279.754 450.781 276.52 448.513 274.966C446.497 273.58 448.765 270.472 451.285 272.362C454.267 274.588 457.165 278.536 457.585 282.106ZM439.231 289.036C436.543 293.404 432.805 293.026 430.453 290.506C427.429 287.23 426.043 282.358 425.707 277.066C425.539 274.672 425.455 273.916 425.497 272.404C425.581 269.758 429.655 269.212 429.781 272.362C429.865 274 429.697 274.084 429.781 276.016C429.949 280.426 430.747 284.584 433.099 286.852C434.191 287.902 434.737 288.028 435.661 286.768C436.165 286.054 436.753 284.962 437.047 284.29C438.181 281.854 441.667 283.618 440.869 285.802C440.449 286.978 439.693 288.28 439.231 289.036ZM489.337 293.278C490.639 296.092 486.565 298.57 485.221 295.882C482.785 291.094 479.215 285.634 476.317 282.232C473.545 278.998 473.545 276.016 476.821 272.614C479.677 269.632 482.911 266.524 485.431 263.122C487.363 260.56 491.143 263.542 489.169 265.978C487.069 268.54 482.617 272.194 480.013 274.798C478.207 276.604 478.123 277.864 479.509 279.586C483.709 284.836 487.279 288.784 489.337 293.278ZM525.835 273.664H516.721C515.713 273.664 515.209 272.95 515.209 272.236C515.209 271.48 515.755 270.682 516.721 270.682H525.835C526.801 270.682 527.305 271.438 527.305 272.152C527.305 272.908 526.801 273.664 525.835 273.664ZM539.695 268.54H539.653C536.797 268.498 533.941 268.456 531.085 268.456C531.463 271.438 531.967 274.21 532.807 276.562C533.689 274.966 534.361 273.328 534.823 271.732C535.075 270.892 535.705 270.556 536.377 270.556C537.301 270.556 538.309 271.27 538.309 272.362C538.309 272.782 537.259 276.478 534.655 280.174C535.453 281.308 536.587 282.568 537.511 282.568C538.225 282.568 538.771 281.77 539.107 279.712C539.275 278.662 539.989 278.242 540.745 278.242C541.753 278.242 542.803 278.956 542.803 280.174C542.803 281.812 541.417 286.516 537.721 286.516C536.755 286.516 534.529 286.222 532.303 283.03C530.875 284.5 529.237 285.718 527.473 286.6C527.431 286.642 527.389 286.684 527.347 286.684C529.573 288.196 529.825 289.12 529.825 289.708C529.825 290.842 528.817 291.808 527.767 291.808C527.263 291.808 526.801 291.598 526.381 291.094C525.331 289.75 523.441 288.406 522.307 287.734C521.761 287.398 521.509 286.936 521.509 286.516C521.509 285.634 522.433 284.752 523.525 284.752C523.861 284.752 524.113 284.794 524.869 285.13C524.869 285.088 524.869 285.046 524.869 285.004C524.869 284.458 525.121 283.87 525.793 283.576C527.683 282.652 529.279 281.35 530.539 279.88C528.985 276.52 528.103 272.488 527.515 268.456C523.525 268.456 519.703 268.498 516.175 268.54C514.915 268.54 514.411 269.254 514.411 270.262C514.411 270.766 514.453 271.354 514.453 272.068C514.453 275.974 513.991 282.526 510.547 286.936C509.959 287.65 509.287 287.944 508.615 287.944C507.481 287.944 506.431 287.062 506.431 286.012C506.431 285.592 506.599 285.13 507.019 284.668C510.043 281.434 510.505 276.646 510.505 272.95C510.505 271.606 510.463 270.388 510.421 269.422C510.421 269.38 510.421 269.296 510.421 269.254C510.421 267.112 512.017 265.264 514.873 265.222C518.653 265.18 522.811 265.18 527.095 265.18C527.011 264.382 526.885 263.584 526.801 262.786C526.801 262.66 526.801 262.576 526.801 262.45C526.801 261.274 527.683 260.644 528.565 260.644C529.531 260.644 530.497 261.316 530.581 262.66C530.623 263.5 530.665 264.34 530.749 265.18C532.261 265.18 533.815 265.222 535.327 265.222C534.487 264.34 533.521 263.836 532.639 263.374C532.177 263.164 532.009 262.786 532.009 262.45C532.009 261.652 532.849 260.812 533.731 260.812C534.403 260.812 538.099 262.156 538.099 264.046C538.099 264.466 537.931 264.886 537.679 265.222H539.695C540.787 265.222 541.333 266.02 541.333 266.86C541.333 267.7 540.787 268.54 539.695 268.54ZM540.745 295.588C540.157 295.588 539.569 295.336 539.149 294.664C537.973 292.816 536.125 291.346 534.823 290.464C534.235 290.044 533.983 289.582 533.983 289.078C533.983 288.196 534.865 287.356 535.999 287.356C537.511 287.356 542.929 291.22 542.929 293.404C542.929 294.622 541.837 295.588 540.745 295.588ZM526.927 279.838C526.927 282.736 526.633 283.786 521.467 283.786C516.301 283.786 515.713 283.198 515.713 279.502C515.713 276.94 516.091 275.47 519.115 275.47C520.081 275.47 521.131 275.428 522.139 275.428C526.801 275.428 526.927 276.394 526.927 279.838ZM534.361 291.892C534.361 296.512 531.757 297.478 524.743 297.478C518.233 297.478 516.469 296.218 516.469 292.69C516.469 288.532 516.511 288.112 516.511 287.776C516.595 286.516 517.561 285.928 518.527 285.928C519.535 285.928 520.543 286.6 520.543 287.734C520.543 288.91 520.501 291.808 520.501 292.27C520.585 293.74 521.467 294.076 524.869 294.076C528.859 294.076 530.287 293.74 530.287 291.808C530.287 290.716 531.169 290.254 532.135 290.254C533.227 290.254 534.361 290.884 534.361 291.892ZM515.461 289.96C515.461 292.018 510.715 296.722 508.489 296.722C507.103 296.722 506.263 295.63 506.263 294.79C506.263 294.118 506.725 293.404 507.733 292.984C508.783 292.564 511.093 290.506 511.723 289.162C512.101 288.364 512.689 288.07 513.361 288.07C514.369 288.07 515.461 288.91 515.461 289.96ZM518.863 278.788C518.863 278.788 518.863 278.788 518.863 280.258C518.863 280.804 519.115 280.972 521.635 280.972C523.609 280.972 523.819 280.846 523.819 279.544C523.819 278.158 523.777 278.158 521.299 278.158C519.367 278.158 518.905 278.242 518.863 278.788ZM567.667 267.196H571.447C572.497 265.81 573.463 263.668 574.051 262.156C574.387 261.232 575.101 260.896 575.815 260.896C576.949 260.896 578.083 261.736 578.083 262.87C578.083 263.92 576.319 266.23 575.479 267.238C576.613 267.238 577.705 267.28 578.755 267.28C580.939 267.322 583.249 269.044 583.333 271.312C583.375 271.9 583.375 272.656 583.375 273.37C583.375 274.882 583.375 276.562 581.107 276.562C580.099 276.562 579.091 276.016 579.091 274.882C579.091 274.84 579.091 274.84 579.091 274.798C579.091 270.808 579.049 270.598 576.613 270.556C573.421 270.514 569.347 270.472 565.399 270.472C562.165 270.472 559.057 270.514 556.579 270.556C554.395 270.598 554.059 271.144 553.975 272.572C553.975 272.572 553.975 272.572 553.975 274.882V274.924C553.975 276.058 552.925 276.688 551.917 276.688C550.909 276.688 549.943 276.1 549.901 274.882C549.901 274.378 549.859 273.748 549.859 273.118C549.859 272.446 549.901 271.774 549.901 271.144C549.985 269.254 551.497 267.322 554.605 267.28C555.781 267.28 557.041 267.238 558.301 267.238C558.217 267.154 558.133 267.07 558.091 266.986C557.251 265.6 556.411 265.054 555.319 264.088C554.941 263.752 554.773 263.416 554.773 263.038C554.773 262.156 555.781 261.316 556.873 261.316C558.343 261.316 561.493 264.34 561.493 265.684C561.493 266.272 561.157 266.86 560.737 267.238C562.627 267.238 564.517 267.196 566.449 267.196C566.113 267.07 565.819 266.818 565.651 266.356C565.063 264.886 564.265 264.004 563.341 262.912C563.089 262.618 563.005 262.324 563.005 262.03C563.005 261.148 563.971 260.434 564.979 260.434C566.911 260.434 569.179 264.424 569.179 265.306C569.179 266.188 568.465 266.944 567.667 267.196ZM572.581 290.422H571.615C571.573 291.22 571.573 292.018 571.573 292.606C571.657 294.286 573.925 294.328 575.815 294.328C578.545 294.328 580.645 293.866 580.645 290.506C580.645 289.288 581.611 288.742 582.577 288.742C583.207 288.742 584.845 288.952 584.845 290.758C584.845 297.478 579.259 297.73 575.689 297.73C571.237 297.73 567.583 297.268 567.583 293.278V290.464H564.097C564.559 290.8 564.895 291.388 564.895 291.934C564.895 294.034 558.805 298.276 550.657 298.276C549.313 298.276 548.557 297.226 548.557 296.218C548.557 295.336 549.145 294.454 550.447 294.412C555.655 294.202 559.225 293.194 560.989 291.01C561.199 290.758 561.451 290.548 561.661 290.38H560.527C557.797 290.296 556.285 288.784 556.201 286.768C556.159 285.046 556.117 283.114 556.117 281.266C556.117 279.418 556.159 277.654 556.201 276.184C556.285 274.462 557.335 272.782 560.443 272.74C562.165 272.698 564.013 272.698 565.861 272.698C568.129 272.698 570.439 272.698 572.665 272.782C575.017 272.866 576.613 274.168 576.697 275.932C576.781 277.486 576.781 279.334 576.781 281.224C576.781 283.114 576.781 285.046 576.697 286.768C576.613 288.658 575.101 290.38 572.581 290.422ZM573.127 277.864L573.085 277.234C573.043 276.268 572.581 275.68 571.321 275.638C569.473 275.596 567.247 275.554 565.189 275.554C563.887 275.554 562.627 275.554 561.535 275.596C560.233 275.638 559.729 276.31 559.687 277.234L559.645 277.822L573.127 277.864ZM573.211 282.61V280.426H559.603V282.568L573.211 282.61ZM573.127 285.214L559.645 285.172L559.687 285.886C559.729 287.608 560.569 287.608 567.163 287.608C572.119 287.608 572.959 287.608 573.085 285.886C573.085 285.676 573.127 285.466 573.127 285.214ZM609.289 266.44L609.205 266.608C609.877 266.356 610.507 266.104 610.969 265.852C613.279 264.466 615.547 267.952 612.439 269.506C611.389 270.01 609.583 270.514 607.819 270.892C607.273 272.236 606.559 273.748 605.803 275.134C608.701 274.63 611.473 275.68 612.859 278.788C614.581 277.906 616.345 277.024 617.983 276.31C618.991 275.89 620.125 275.386 621.259 274.756C624.409 272.992 626.299 277.192 623.611 278.536C622.267 279.208 621.301 279.418 619.075 280.258C617.311 280.93 615.421 281.77 613.741 282.568C613.867 283.954 613.909 285.676 613.825 287.188C613.741 288.868 612.649 289.75 611.599 289.792C610.549 289.834 609.583 289.036 609.709 287.398C609.751 286.516 609.793 285.55 609.793 284.668C609.415 284.878 609.037 285.088 608.701 285.298C603.493 288.658 604.123 291.178 606.475 292.354C608.701 293.488 612.817 292.648 614.791 292.018C618.487 290.884 619.663 295.42 615.799 296.428C613.321 297.058 607.609 297.688 604.333 295.84C598.663 292.648 599.671 286.978 607.273 281.98C607.861 281.602 608.533 281.14 609.331 280.678C608.197 277.15 604.963 277.57 602.233 280.72C602.191 280.762 602.107 280.846 602.065 280.888C601.687 281.35 601.393 281.728 601.099 281.98C598.789 284.038 595.723 281.644 598.243 279.376C599.335 278.368 600.763 276.856 601.645 275.428C602.359 274.252 603.031 272.992 603.619 271.69C601.351 272.026 599.755 271.9 598.411 271.228C595.387 269.716 597.445 265.768 600.385 267.742C601.183 268.288 602.863 268.078 604.333 267.826C604.501 267.784 604.753 267.784 604.963 267.742C605.257 266.524 605.341 265.684 605.425 264.214C605.593 261.694 609.541 261.946 609.625 264.004C609.667 264.844 609.499 265.642 609.289 266.44ZM198.658 359.05V359.092C198.658 360.268 197.65 360.856 196.6 360.856C195.55 360.856 194.542 360.268 194.542 359.092V359.05L194.836 346.786C192.148 350.818 188.62 354.682 184.378 357.496C183.874 357.832 183.412 357.958 182.95 357.958C181.732 357.958 180.766 356.992 180.766 355.984C180.766 355.354 181.102 354.724 181.9 354.262C186.604 351.49 190.51 347.626 193.492 342.754L187.906 342.88H187.864C186.646 342.88 186.016 341.998 186.016 341.116C186.016 340.234 186.646 339.31 187.906 339.31H194.752L194.668 334.606L189.208 334.648C187.99 334.648 187.36 333.766 187.36 332.842C187.36 331.96 187.99 331.078 189.208 331.078L194.626 331.12L194.584 325.87V325.828C194.584 324.568 195.592 323.938 196.642 323.938C197.65 323.938 198.658 324.568 198.658 325.828V325.87L198.616 331.12L205.126 331.078C206.386 331.078 207.016 331.96 207.016 332.884C207.016 333.766 206.386 334.648 205.126 334.648L198.574 334.606L198.532 339.31H207.394C208.696 339.31 209.326 340.192 209.326 341.116C209.326 341.998 208.696 342.88 207.436 342.88H207.394L199.33 342.754C202.312 347.29 205.798 350.608 209.704 353.38C210.334 353.842 210.586 354.388 210.586 354.934C210.586 356.026 209.494 357.076 208.234 357.076C207.772 357.076 207.226 356.908 206.764 356.53C203.698 354.136 200.884 350.65 198.406 346.87L198.658 359.05ZM174.508 347.374C174.508 345.022 174.466 342.25 174.466 339.436C174.466 336.622 174.508 333.85 174.508 331.54C174.592 327.718 177.742 327.718 180.094 327.718C180.724 327.718 181.354 327.718 181.942 327.76C184.21 327.886 185.638 329.272 185.722 331.33C185.806 333.64 185.848 336.454 185.848 339.268C185.848 342.124 185.806 344.98 185.722 347.416C185.596 350.986 182.656 351.448 180.01 351.448C179.338 351.448 178.666 351.406 177.994 351.364C175.978 351.154 174.55 349.6 174.508 347.374ZM181.984 346.618C182.068 344.854 182.068 342.712 182.068 340.528C182.068 337.546 182.026 334.522 181.984 332.296C181.984 331.246 181.27 331.078 180.094 331.078C178.75 331.078 178.204 331.498 178.204 332.338C178.204 334.27 178.162 336.79 178.162 339.352C178.162 341.914 178.204 344.518 178.204 346.66C178.204 347.416 178.456 347.878 180.136 347.878C180.892 347.878 181.942 347.752 181.984 346.618ZM224.152 351.364L223.9 351.784C223.312 352.75 222.682 353.884 221.926 355.186C220.204 358.21 216.214 355.858 218.062 353.086C218.608 352.246 218.986 351.826 219.322 351.406C221.212 348.55 223.606 344.434 224.908 341.158L224.992 340.15C224.866 340.108 224.698 340.108 224.446 340.234C223.354 340.738 222.43 341.41 221.422 342.04C218.398 343.93 217.012 339.73 219.406 338.596C220.96 337.882 223.228 336.79 225.37 335.908C225.664 332.842 225.916 330.196 226.084 328.39C226.336 325.45 230.578 326.038 230.2 328.516C229.99 330.028 229.696 332.086 229.402 334.522C231.04 334.564 232.174 336.58 230.284 339.268C230.074 339.562 229.444 340.738 228.604 342.25V342.46C229.864 341.536 231.082 340.738 232.216 340.15C239.692 336.16 246.37 337.546 249.394 340.99C252.46 344.434 251.746 350.104 245.404 354.682C243.892 355.774 241.414 357.076 239.44 357.748C236.668 358.714 234.736 354.682 238.096 353.464C240.028 352.75 241.498 352.12 242.548 351.406C247 348.424 247.504 345.148 245.656 343.216C243.766 341.284 239.398 340.696 233.602 343.678C231.418 344.812 229.78 345.904 228.31 347.206C228.142 350.986 228.226 354.556 228.646 357.202C228.898 358.714 227.848 359.722 226.714 359.89C225.58 360.058 224.362 359.386 224.194 357.58C224.026 356.026 224.026 353.884 224.152 351.364ZM284.086 354.514C281.566 356.614 278.248 358.126 273.67 358.882C270.352 359.428 270.016 355.396 272.914 354.976C276.736 354.43 279.634 353.296 281.734 351.448C284.254 349.222 284.38 346.912 283.12 345.484C281.314 343.426 277.996 343.468 275.266 344.266C272.242 345.19 269.512 346.87 266.656 348.172C263.758 349.516 262.12 345.61 264.85 344.476C267.538 343.384 271.192 341.704 274.51 340.864C278.038 339.982 282.868 339.94 285.808 343.006C289.336 346.66 287.908 351.322 284.086 354.514ZM324.278 358.882C311.594 358.84 307.226 347.206 311.804 338.764C312.224 337.966 312.602 337.294 313.148 336.58C313.82 335.698 313.61 335.74 312.812 335.992C309.662 337 310.376 337 307.52 338.092C306.176 338.596 305 339.016 303.74 339.352C300.044 340.36 298.952 335.53 302.312 334.816C303.194 334.606 305.63 334.144 306.974 333.808C309.032 333.304 312.686 332.464 316.97 331.246C321.296 330.028 324.74 329.02 328.436 328.768C331.04 328.6 331.754 330.658 331.292 332.002C331.04 332.716 330.116 333.556 327.176 333.388C325.034 333.262 322.346 334.06 320.918 334.564C318.566 335.404 316.466 337.924 315.542 339.478C311.846 345.652 314.66 354.472 324.068 354.136C328.478 353.968 328.73 358.924 324.278 358.882ZM361.784 333.892C359.768 338.638 358.844 339.058 357.794 339.058C356.828 339.058 355.862 338.428 355.862 337.462C355.862 337.126 355.988 336.79 356.24 336.412C358.466 333.136 359.768 328.936 360.272 325.324C360.398 324.316 361.238 323.812 362.078 323.812C363.086 323.812 364.136 324.484 364.136 325.618C364.136 326.038 363.842 327.634 362.96 330.532C364.724 330.49 366.572 330.448 368.42 330.448C369.554 330.448 370.688 330.448 371.78 330.49C374.09 330.574 375.476 331.792 375.476 333.724C375.476 335.782 372.83 340.402 372.41 341.074C371.906 341.956 371.15 342.292 370.394 342.292C369.386 342.292 368.42 341.578 368.42 340.612C368.42 340.276 368.546 339.94 368.756 339.604C369.68 338.26 371.276 335.152 371.276 334.564C371.276 334.228 371.066 333.934 370.436 333.934C369.05 333.892 366.656 333.892 364.43 333.892C363.506 333.892 362.582 333.892 361.784 333.892ZM355.358 332.758C354.728 332.758 354.098 332.464 353.636 331.708C352.67 330.154 351.704 329.104 350.528 328.138C350.066 327.76 349.856 327.298 349.856 326.92C349.856 326.038 350.738 325.282 351.746 325.282C353.006 325.282 357.332 328.894 357.332 330.742C357.332 331.876 356.366 332.758 355.358 332.758ZM366.32 341.494V341.578C366.32 341.662 366.362 341.746 366.362 341.83C366.908 347.416 370.982 353.59 375.728 356.446C376.484 356.908 376.82 357.58 376.82 358.21C376.82 359.302 375.896 360.394 374.552 360.394C372.494 360.394 367.664 356.068 364.934 349.096C361.91 358.462 354.056 360.898 353.216 360.898C351.998 360.898 351.2 359.932 351.2 358.966C351.2 358.252 351.62 357.496 352.628 357.16C361.532 354.052 362.456 343.762 362.456 340.78C362.456 339.814 362.414 338.596 362.372 337.63C362.372 337.588 362.372 337.546 362.372 337.504C362.372 336.328 363.38 335.74 364.43 335.74C365.438 335.74 366.488 336.328 366.488 337.63C366.488 338.722 366.446 340.15 366.32 341.494ZM340.91 334.102C339.776 334.102 338.978 333.262 338.978 332.338C338.978 331.75 339.272 331.162 340.028 330.742C341.624 329.86 343.22 328.138 344.06 326.332C344.396 325.576 345.026 325.24 345.656 325.24C346.58 325.24 347.546 325.996 347.546 327.004C347.546 329.062 343.262 334.102 340.91 334.102ZM356.576 344.266C356.114 344.266 355.652 344.098 355.19 343.678C352.754 341.452 350.696 338.806 349.352 337C349.226 336.832 349.016 336.748 348.806 336.748C348.554 336.748 348.344 336.874 348.218 337.042C347.714 337.924 343.052 344.644 340.7 344.644C339.566 344.644 338.6 343.72 338.6 342.67C338.6 342.166 338.852 341.62 339.482 341.158C341.834 339.478 344.228 336.496 345.194 334.9C346.076 333.472 347.294 332.716 348.596 332.716C349.814 332.716 351.074 333.388 352.124 334.816C353.174 336.244 355.442 338.596 357.92 340.78C358.382 341.2 358.592 341.662 358.592 342.166C358.592 343.216 357.668 344.266 356.576 344.266ZM355.61 353.632C355.568 355.48 354.224 356.782 352.124 356.908C351.242 356.95 349.814 356.95 348.386 356.95C346.958 356.95 345.572 356.95 344.732 356.908C342.842 356.782 341.708 355.522 341.624 353.674C341.582 352.54 341.582 351.364 341.582 350.188C341.582 348.97 341.582 347.794 341.624 346.702C341.666 345.148 342.674 343.678 344.69 343.552C345.614 343.51 346.874 343.468 348.176 343.468C349.73 343.468 351.284 343.51 352.25 343.552C353.804 343.636 355.568 344.686 355.61 346.492C355.652 347.626 355.652 348.844 355.652 350.104C355.652 351.322 355.652 352.54 355.61 353.632ZM351.998 352.54C352.04 351.784 352.082 350.944 352.082 350.146C352.082 349.306 352.04 348.466 351.998 347.71C351.914 346.702 351.368 346.618 348.512 346.618C347.714 346.618 346.958 346.618 346.328 346.66C345.152 346.744 345.152 347.458 345.152 350.146C345.152 350.986 345.152 351.826 345.194 352.582C345.236 353.38 345.572 353.59 348.47 353.59C350.738 353.59 351.914 353.548 351.998 352.54ZM412.688 354.136C404.498 360.814 391.058 362.032 390.68 350.692C390.512 346.282 390.974 342.712 391.184 338.26C391.31 335.53 391.604 331.414 391.52 328.81C391.436 325.702 396.182 325.954 396.098 328.726C396.014 331.372 395.72 335.362 395.51 338.176C395.216 342.628 394.586 346.45 394.754 350.524C395.006 356.656 402.482 356.236 409.79 350.482C412.52 348.34 415.082 352.204 412.688 354.136ZM456.744 345.106C457.08 348.172 452.922 349.012 452.334 346.114C451.662 342.754 449.94 339.52 447.672 337.966C445.656 336.58 447.924 333.472 450.444 335.362C453.426 337.588 456.324 341.536 456.744 345.106ZM438.39 352.036C435.702 356.404 431.964 356.026 429.612 353.506C426.588 350.23 425.202 345.358 424.866 340.066C424.698 337.672 424.614 336.916 424.656 335.404C424.74 332.758 428.814 332.212 428.94 335.362C429.024 337 428.856 337.084 428.94 339.016C429.108 343.426 429.906 347.584 432.258 349.852C433.35 350.902 433.896 351.028 434.82 349.768C435.324 349.054 435.912 347.962 436.206 347.29C437.34 344.854 440.826 346.618 440.028 348.802C439.608 349.978 438.852 351.28 438.39 352.036ZM472.578 356.32C472.578 358.966 470.436 361.108 467.79 361.108C465.144 361.108 463.002 358.966 463.002 356.32C463.002 353.674 465.144 351.532 467.79 351.532C470.436 351.532 472.578 353.674 472.578 356.32ZM470.982 356.32C470.982 354.556 469.554 353.17 467.79 353.17C466.026 353.17 464.598 354.556 464.598 356.32C464.598 358.084 466.026 359.512 467.79 359.512C469.554 359.512 470.982 358.084 470.982 356.32Z" fill="black"/>
</svg>
