<svg width="640" height="212" viewBox="0 0 640 212" fill="none" xmlns="http://www.w3.org/2000/svg">
<g clip-path="url(#clip0_134_2)">
<rect width="750" height="22745" transform="translate(-54 -13075)" fill="white"/>
<path d="M26.0654 187.652C24.7494 186.812 23.3214 186.392 21.6974 186.476C20.1574 186.56 20.0454 184.236 21.8374 184.068C23.6854 183.9 25.6454 184.236 26.9894 185.048C28.8934 186.196 27.4374 188.52 26.0654 187.652ZM13.4374 184.852C12.0094 185.132 10.8054 185.02 9.74144 184.712C8.03344 184.236 8.56544 181.66 10.5534 182.304C11.4774 182.612 12.9334 182.584 14.3894 182.22C14.6694 181.296 14.8094 180.4 14.9494 179.392C15.2014 177.74 17.6654 178.048 17.6094 179.644C17.5814 180.064 17.4134 180.68 17.2174 181.352C17.5534 181.184 17.8614 181.044 18.1134 180.876C19.3734 179.98 21.1374 181.716 19.3454 183.004C18.6454 183.508 17.4974 183.956 16.3494 184.292C15.0334 187.456 13.1294 190.816 11.3374 193.728C10.3014 195.408 7.61344 194.316 8.84544 192.496C10.4134 190.172 12.0654 187.792 13.4374 184.852ZM22.2574 197.984C21.4454 200.224 17.9454 202.184 14.5574 200.476C11.9534 199.16 11.6454 196.136 14.5294 194.848C16.2654 194.064 18.1694 194.008 19.9054 194.316C19.9054 194.008 19.9054 193.7 19.9054 193.336C19.9054 192.636 19.8494 191.936 19.8214 191.236C19.7934 190.676 19.8494 189.892 19.9614 189.36C20.2974 187.82 22.7614 188.184 22.4814 189.864C22.3974 190.284 22.3134 190.592 22.3134 191.18C22.3134 191.824 22.3134 192.524 22.3414 193.336C22.3694 193.868 22.4254 194.456 22.4534 195.072C23.9374 195.688 25.1694 196.556 25.8694 197.312C27.4654 199.076 25.1974 201.064 23.8534 199.44C23.4334 198.936 22.9014 198.432 22.2574 197.984ZM19.7654 196.668C18.3374 196.192 16.8254 196.136 15.4534 196.808C14.6974 197.2 14.6414 198.012 15.4814 198.432C17.1614 199.272 19.4294 198.46 19.7374 196.948C19.7654 196.864 19.7374 196.752 19.7654 196.668ZM58.9374 179.924C59.8894 181.296 57.9294 182.808 57.1174 181.548C56.8094 181.044 55.5494 179.84 54.9894 179.504C53.5894 178.664 54.9894 177.068 56.2774 177.768C57.0054 178.16 58.4054 179.14 58.9374 179.924ZM55.8574 182.164C56.7814 183.564 54.7374 185.02 53.9814 183.732C53.6734 183.2 52.4694 181.912 51.9374 181.576C50.5934 180.708 52.0214 179.196 53.2814 179.924C54.0094 180.344 55.3254 181.38 55.8574 182.164ZM39.5334 190.788L39.0574 190.956C36.5934 191.74 35.5294 192.048 34.6894 192.3C32.4774 192.944 31.7214 189.976 34.0454 189.416C35.3054 189.108 37.3494 188.604 38.5814 188.324L39.3934 188.128V187.792C39.3374 186.168 39.2534 184.992 39.1974 183.788C39.1134 181.884 42.1094 181.716 42.1374 183.676C42.1374 184.572 42.1094 185.86 42.0534 187.176L42.0254 187.54C43.8734 187.148 46.1974 186.7 48.4934 186.308C48.4934 185.468 48.4654 184.656 48.4654 183.956C48.4654 183.34 48.4654 183.088 48.4374 182.864C48.4094 182.64 48.4374 182.36 48.4094 181.744C48.3534 180.008 51.2094 179.784 51.2094 181.772C51.2094 182.724 51.1534 183.536 51.0974 184.32C51.0694 184.796 51.0414 185.356 51.0134 185.916C51.2654 185.888 51.4894 185.86 51.7414 185.832C53.3374 185.636 54.9054 185.44 56.3894 185.524C58.6854 185.664 58.2374 188.408 55.9694 188.268C54.5694 188.184 53.4494 188.212 52.0214 188.324C51.6294 188.352 51.2374 188.38 50.8454 188.408C50.8174 188.884 50.7614 189.388 50.7054 189.864C50.4254 191.768 49.8654 193.532 48.5494 194.428C47.4854 195.156 46.0574 195.212 45.1054 194.008C44.7134 193.532 44.2934 193.028 43.9854 192.496C43.2574 191.264 44.7974 189.948 45.8894 191.376C46.7014 192.44 47.1774 192.3 47.5694 191.712C48.0174 191.012 48.2694 189.948 48.3814 188.744C46.0574 189.108 43.8734 189.584 42.0254 190.06C42.0534 191.376 42.0814 192.748 42.1654 193.728C42.3894 196.752 43.2854 197.676 45.6374 197.732C47.3734 197.788 48.5774 197.396 50.2014 197.004C52.3294 196.5 52.9734 199.188 50.9854 199.748C49.0534 200.28 46.8134 200.392 45.1894 200.224C41.5214 199.832 40.1774 198.096 39.7854 194.288C39.6734 193.28 39.5894 191.964 39.5334 190.788ZM82.0654 187.652C80.7494 186.812 79.3214 186.392 77.6974 186.476C76.1574 186.56 76.0454 184.236 77.8374 184.068C79.6854 183.9 81.6454 184.236 82.9894 185.048C84.8934 186.196 83.4374 188.52 82.0654 187.652ZM69.4374 184.852C68.0094 185.132 66.8054 185.02 65.7414 184.712C64.0334 184.236 64.5654 181.66 66.5534 182.304C67.4774 182.612 68.9334 182.584 70.3894 182.22C70.6694 181.296 70.8094 180.4 70.9494 179.392C71.2014 177.74 73.6654 178.048 73.6094 179.644C73.5814 180.064 73.4134 180.68 73.2174 181.352C73.5534 181.184 73.8614 181.044 74.1134 180.876C75.3734 179.98 77.1374 181.716 75.3454 183.004C74.6454 183.508 73.4974 183.956 72.3494 184.292C71.0334 187.456 69.1294 190.816 67.3374 193.728C66.3014 195.408 63.6134 194.316 64.8454 192.496C66.4134 190.172 68.0654 187.792 69.4374 184.852ZM78.2574 197.984C77.4454 200.224 73.9454 202.184 70.5574 200.476C67.9534 199.16 67.6454 196.136 70.5294 194.848C72.2654 194.064 74.1694 194.008 75.9054 194.316C75.9054 194.008 75.9054 193.7 75.9054 193.336C75.9054 192.636 75.8494 191.936 75.8214 191.236C75.7934 190.676 75.8494 189.892 75.9614 189.36C76.2974 187.82 78.7614 188.184 78.4814 189.864C78.3974 190.284 78.3134 190.592 78.3134 191.18C78.3134 191.824 78.3134 192.524 78.3414 193.336C78.3694 193.868 78.4254 194.456 78.4534 195.072C79.9374 195.688 81.1694 196.556 81.8694 197.312C83.4654 199.076 81.1974 201.064 79.8534 199.44C79.4334 198.936 78.9014 198.432 78.2574 197.984ZM75.7654 196.668C74.3374 196.192 72.8254 196.136 71.4534 196.808C70.6974 197.2 70.6414 198.012 71.4814 198.432C73.1614 199.272 75.4294 198.46 75.7374 196.948C75.7654 196.864 75.7374 196.752 75.7654 196.668ZM101.973 183.452C101.609 183.508 101.217 183.592 100.769 183.704C99.4254 184.04 98.4174 182.248 99.5934 181.604C99.7334 181.52 100.013 181.38 99.8174 181.24C99.2294 180.876 98.2774 180.428 97.8294 179.924C96.6254 178.608 98.4734 177.124 99.8734 178.132C100.377 178.496 101.329 178.916 102.141 179.448C102.953 179.98 103.681 180.652 103.737 181.492C103.793 182.304 103.373 183.228 101.973 183.452ZM105.669 199.832C104.493 200.56 102.729 201.204 100.881 201.568C98.6134 202.016 97.8854 199.244 100.265 198.768C101.721 198.488 103.149 198.068 104.017 197.564C107.097 195.772 107.937 193.84 107.349 192.72C106.761 191.6 104.717 191.18 101.749 192.524C100.097 193.28 98.3334 194.596 97.9974 194.932C96.3454 196.528 95.2254 195.744 94.7214 194.764C94.2174 193.784 94.2734 192.048 94.4974 190.004C94.7214 187.96 95.0854 185.804 95.3094 184.376C95.5894 182.584 98.1374 182.64 97.8854 184.656C97.7454 185.832 97.4374 187.4 97.2134 188.744C96.9894 190.116 96.8494 191.152 97.0454 191.656C97.1294 191.88 97.2694 191.88 97.5214 191.74C98.0814 191.432 99.3974 190.704 100.713 190.144C109.169 186.476 115.133 194.036 105.669 199.832ZM122.021 202.072C121.629 202.072 121.237 201.876 120.957 201.456C120.257 200.42 118.717 199.132 117.513 198.516C116.981 198.236 116.757 197.816 116.757 197.396C116.757 196.752 117.261 196.164 118.073 196.164C119.053 196.164 123.533 198.628 123.533 200.532C123.533 201.428 122.777 202.072 122.021 202.072ZM157.329 180.764C159.345 180.764 161.417 180.764 162.509 180.848C164.469 180.96 165.869 182.192 165.925 184.04C165.981 185.832 166.009 188.66 166.009 191.376C166.009 193.7 165.981 195.968 165.953 197.368C165.869 199.972 164.385 201.064 161.669 201.176C160.577 201.232 159.205 201.26 157.833 201.26C151.141 201.26 148.873 201.204 148.761 197.424C148.705 195.744 148.677 193.364 148.677 190.956C148.677 188.52 148.705 186.056 148.761 184.208C148.901 180.82 151.449 180.792 154.417 180.792C154.753 179.756 155.033 178.552 155.145 177.824C155.229 177.208 155.873 176.928 156.545 176.928C157.329 176.928 158.197 177.348 158.197 178.16C158.197 178.636 157.833 179.588 157.329 180.764ZM151.253 186.728H163.377C163.377 186.084 163.349 185.496 163.321 185.02C163.237 183.116 162.621 183.116 157.469 183.116C155.817 183.116 154.221 183.144 153.325 183.2C151.337 183.312 151.253 184.124 151.253 186.728ZM163.405 192.496V189.108H151.225V192.496H163.405ZM163.377 194.876H151.253C151.253 195.632 151.281 196.332 151.309 196.864C151.365 198.712 152.037 198.768 157.525 198.768C158.897 198.768 160.297 198.74 161.221 198.684C163.377 198.572 163.377 197.48 163.377 194.876ZM185.973 180.652L181.969 180.792C181.941 180.792 181.941 180.792 181.913 180.792C181.045 180.792 180.597 180.148 180.597 179.476C180.597 178.832 181.017 178.16 181.913 178.16L186.505 178.076C186.533 178.076 186.589 178.076 186.617 178.076C188.017 178.076 189.277 178.524 189.865 179.812C191.489 183.2 193.617 185.916 196.977 188.016C197.565 188.38 197.789 188.856 197.789 189.36C197.789 190.2 197.061 191.012 196.137 191.012C194.569 191.012 190.341 187.008 187.709 181.52C187.429 180.876 186.897 180.652 186.113 180.652C186.057 180.652 186.029 180.652 185.973 180.652ZM188.689 189.388H185.609C184.153 199.384 176.229 201.624 175.333 201.624C174.493 201.624 173.933 200.952 173.933 200.252C173.933 199.748 174.241 199.216 174.997 198.992C180.233 197.368 182.193 193.644 182.809 189.388C181.913 189.388 181.045 189.416 180.289 189.416C179.505 189.416 179.085 188.856 179.085 188.268C179.085 188.212 179.085 188.156 179.085 188.1C177.825 189.556 175.837 191.516 174.605 191.516C173.737 191.516 173.093 190.816 173.093 190.088C173.093 189.668 173.317 189.22 173.849 188.884C176.593 187.176 178.049 185.16 179.393 182.612C179.729 181.996 180.205 181.744 180.681 181.744C181.465 181.744 182.193 182.388 182.193 183.172C182.193 184.096 180.065 186.924 179.925 187.092C180.037 187.064 180.149 187.036 180.289 187.036C181.465 187.008 182.781 187.008 184.125 187.008C185.973 187.008 187.877 187.008 189.473 187.036C191.349 187.064 192.441 188.212 192.441 190.116C192.441 195.548 192.273 201.512 186.085 201.512C185.217 201.512 184.293 201.372 183.313 201.12C182.669 200.952 182.361 200.392 182.361 199.832C182.361 199.104 182.865 198.376 183.705 198.376C183.845 198.376 183.985 198.404 184.125 198.432C184.965 198.656 185.693 198.768 186.309 198.768C188.269 198.768 189.669 197.816 189.669 190.9C189.669 190.76 189.669 190.62 189.669 190.48C189.669 189.696 189.277 189.388 188.689 189.388ZM223.913 191.152H202.661C201.625 191.152 201.093 190.396 201.093 189.64C201.093 188.884 201.625 188.128 202.661 188.128H223.913C224.921 188.128 225.397 188.884 225.397 189.612C225.397 190.396 224.893 191.152 223.913 191.152ZM242.477 183.256V183.368C242.505 183.424 242.505 183.508 242.505 183.592C243.037 190.452 248.077 196.416 252.753 198.152C253.537 198.432 253.845 198.964 253.845 199.524C253.845 200.364 253.117 201.232 251.997 201.232C249.617 201.232 243.709 196.136 241.273 189.752C239.705 194.596 236.541 198.908 231.193 201.4C230.913 201.54 230.633 201.596 230.381 201.596C229.457 201.596 228.757 200.84 228.757 200.056C228.757 199.524 229.065 199.02 229.793 198.684C239.341 194.428 239.593 184.6 239.593 182.5C239.593 181.66 239.537 180.708 239.481 179.868C239.481 179.84 239.481 179.812 239.481 179.784C239.481 178.86 240.265 178.384 241.049 178.384C241.805 178.384 242.589 178.86 242.589 179.868C242.589 180.848 242.561 182.052 242.477 183.256ZM280.557 188.24C280.165 187.792 278.709 186.812 278.121 186.588C276.609 186 277.701 184.208 279.073 184.656C279.857 184.908 281.369 185.664 282.041 186.336C283.217 187.512 281.565 189.36 280.557 188.24ZM277.673 190.788C277.281 190.34 275.881 189.276 275.293 189.024C273.809 188.38 274.929 186.644 276.301 187.148C277.085 187.428 278.597 188.212 279.241 188.912C280.389 190.144 278.653 191.936 277.673 190.788ZM274.985 200.588C266.529 200.56 263.617 192.804 266.669 187.176C266.949 186.644 267.201 186.196 267.565 185.72C268.013 185.132 267.873 185.16 267.341 185.328C265.241 186 265.717 186 263.813 186.728C262.917 187.064 262.133 187.344 261.293 187.568C258.829 188.24 258.073 185.02 260.313 184.544C260.901 184.404 262.525 184.096 263.421 183.872C264.793 183.536 267.257 182.976 270.113 182.164C272.997 181.352 275.265 180.68 277.729 180.512C279.465 180.4 279.941 181.772 279.633 182.668C279.465 183.144 278.849 183.704 276.889 183.592C275.461 183.508 273.697 184.04 272.745 184.376C271.177 184.936 269.749 186.616 269.133 187.652C266.669 191.768 268.545 197.648 274.817 197.424C277.757 197.312 277.953 200.616 274.985 200.588ZM304.525 197.76C303.461 199.972 300.045 201.848 296.993 200.112C294.557 198.712 294.501 195.52 297.413 194.232C298.925 193.56 300.633 193.532 302.341 193.896C302.341 193.448 302.285 193.028 302.257 192.496C302.173 191.348 302.117 189.192 302.033 186.98C300.521 187.204 299.037 187.316 297.441 187.176C295.509 187.008 295.845 184.152 298.001 184.516C299.233 184.74 300.577 184.656 301.949 184.432C301.921 182.864 301.893 181.436 301.921 180.568C301.977 178.748 304.721 179 304.609 180.512C304.553 181.296 304.525 182.472 304.525 183.844C305.001 183.704 305.505 183.592 305.953 183.452C307.773 182.892 308.977 185.44 306.569 186.028C305.897 186.196 305.225 186.364 304.553 186.504C304.581 188.688 304.665 190.872 304.721 192.244C304.749 192.944 304.861 193.868 304.889 194.764C306.065 195.324 307.185 196.024 308.053 196.808C309.649 198.264 307.661 200.7 306.261 199.216C305.757 198.712 305.169 198.208 304.525 197.76ZM290.749 200.476C290.021 201.148 288.761 201.036 288.285 199.524C287.389 196.696 287.473 193.084 287.837 189.696C288.201 186.308 288.817 183.172 288.957 181.352C289.125 179.084 292.065 179.644 291.785 181.408C291.589 182.668 291.113 185.104 290.749 187.484C290.385 189.864 290.105 192.216 290.217 193.336C290.273 193.84 290.301 193.924 290.581 193.364C290.665 193.196 290.861 192.692 290.917 192.552C291.561 191.208 293.689 192.16 292.681 194.26C292.317 195.016 292.037 195.772 291.813 196.472C291.589 197.172 291.421 197.788 291.309 198.236C291.085 199.02 291.449 199.804 290.749 200.476ZM302.117 196.444H302.089C300.689 195.912 299.289 195.772 298.225 196.276C297.553 196.584 297.385 197.536 298.057 197.928C299.401 198.684 301.669 198.096 302.117 196.444ZM330.285 190.396C328.857 190.48 327.177 190.508 325.469 190.508C323.397 190.508 321.297 190.452 319.533 190.396C317.517 190.312 316.173 189.556 316.089 187.372C316.061 186.42 316.033 185.356 316.033 184.32C316.033 179.784 316.033 178.132 319.869 177.992C321.437 177.936 323.369 177.908 325.245 177.908C327.121 177.908 328.969 177.936 330.369 177.992C332.469 178.076 333.925 178.888 334.009 181.156C334.037 182.248 334.093 183.564 334.093 184.824C334.093 188.016 333.981 190.172 330.285 190.396ZM337.901 197.872C337.901 198.712 337.145 199.356 336.361 199.356C335.913 199.356 335.437 199.132 335.101 198.572C334.317 197.228 333.225 196.08 331.853 195.212C331.517 194.988 331.349 194.708 331.349 194.4C331.349 193.784 332.049 193.14 332.805 193.14C333.897 193.14 337.901 196.304 337.901 197.872ZM327.905 195.436C327.597 195.436 327.261 195.296 326.981 194.988C326.253 194.176 324.993 193.336 323.957 192.86C323.509 192.664 323.285 192.3 323.285 191.908C323.285 191.32 323.789 190.704 324.573 190.704C325.049 190.704 329.277 192.328 329.277 194.008C329.277 194.764 328.605 195.436 327.905 195.436ZM331.965 197.228C331.965 201.456 327.737 201.512 325.273 201.512C324.573 201.512 323.873 201.484 323.229 201.428C321.101 201.232 320.037 200.14 320.037 198.152C320.037 196.92 320.037 194.54 320.093 193.224C320.121 192.468 320.793 192.104 321.465 192.104C322.109 192.104 322.781 192.496 322.781 193.224C322.781 193.252 322.781 193.252 322.781 193.28C322.725 194.484 322.725 196.724 322.725 197.676C322.725 198.992 323.845 199.048 325.609 199.048C328.241 199.048 329.081 198.488 329.081 197.088C329.081 196.248 329.753 195.856 330.453 195.856C330.677 195.856 331.965 195.884 331.965 197.228ZM314.465 200.336C313.597 200.336 312.925 199.692 312.925 198.964C312.925 198.544 313.177 198.096 313.765 197.732C314.493 197.284 316.005 195.716 316.313 194.652C316.509 194.008 317.013 193.728 317.517 193.728C318.217 193.728 318.917 194.232 318.917 195.016C318.917 196.5 316.285 200.336 314.465 200.336ZM326.253 183.116H331.489C331.489 182.472 331.461 181.884 331.433 181.38C331.349 180.148 330.789 180.092 326.253 180.092V183.116ZM331.489 185.216H326.253V188.296C327.485 188.296 328.773 188.24 330.033 188.184C331.461 188.128 331.489 186.896 331.489 185.216ZM323.789 183.116V180.092C322.305 180.092 320.933 180.148 319.897 180.204C318.553 180.288 318.525 181.212 318.525 183.116H323.789ZM323.789 188.296V185.216H318.525C318.525 187.148 318.525 188.128 319.981 188.184C321.213 188.24 322.473 188.268 323.789 188.296ZM363.717 186.896H363.689L356.521 186.812C355.149 187.82 353.693 188.772 352.181 189.612L352.125 189.752C354.701 189.5 357.417 188.968 360.077 188.296C360.217 188.268 360.357 188.24 360.469 188.24C361.225 188.24 361.701 188.828 361.701 189.444C361.701 189.92 361.365 190.424 360.609 190.62C357.473 191.376 352.937 191.88 351.565 191.964C351.453 192.328 351.341 192.72 351.229 193.084C352.685 193.056 354.477 193.028 356.185 193.028C356.969 193.028 357.725 193.028 358.453 193.056C360.245 193.084 361.113 193.896 361.113 195.38C361.113 197.508 359.573 201.68 353.861 201.68C352.545 201.68 351.145 201.456 349.745 201.036C349.157 200.868 348.877 200.364 348.877 199.86C348.877 199.244 349.297 198.628 350.081 198.628C350.249 198.628 350.417 198.656 350.613 198.712C351.845 199.104 352.965 199.272 353.917 199.272C357.809 199.272 358.425 196.584 358.425 195.828C358.425 195.38 358.173 195.184 357.529 195.184C356.633 195.156 355.485 195.156 354.281 195.156C353.049 195.156 351.789 195.156 350.613 195.184C350.221 196.472 349.801 196.752 349.017 196.752C348.401 196.752 347.785 196.416 347.785 195.8C347.785 195.632 347.813 195.464 347.897 195.296C348.345 194.26 348.877 192.552 349.269 191.096C345.545 192.832 342.493 193.672 341.961 193.672C341.149 193.672 340.673 193.084 340.673 192.468C340.673 191.936 341.037 191.404 341.821 191.208C345.769 190.312 349.381 188.828 352.601 186.812L342.941 186.896H342.913C342.101 186.896 341.709 186.336 341.709 185.748C341.709 185.188 342.129 184.6 342.941 184.6L350.585 184.628V182.304L345.433 182.332C344.621 182.332 344.201 181.744 344.201 181.184C344.201 180.596 344.621 180.036 345.433 180.036L350.585 180.064V178.216C350.585 177.404 351.229 177.04 351.901 177.04C352.573 177.04 353.245 177.432 353.245 178.216V180.064L356.941 180.036C357.781 180.036 358.173 180.596 358.173 181.184C358.173 181.744 357.781 182.332 356.941 182.332L353.217 182.304V184.628H355.653C357.725 182.948 359.573 180.988 361.197 178.776C361.449 178.412 361.785 178.272 362.121 178.272C362.877 178.272 363.605 178.972 363.605 179.7C363.605 179.924 363.549 180.148 363.381 180.344C362.205 181.856 360.805 183.256 359.293 184.6H363.689C364.501 184.6 364.893 185.188 364.893 185.748C364.893 186.336 364.501 186.896 363.717 186.896ZM382.617 184.292C382.925 184.572 383.093 185.02 383.009 185.58C382.561 189.136 380.041 194.428 377.353 196.92C375.197 198.908 372.845 197.816 371.613 195.408C369.849 191.936 371.725 186.728 375.477 184.124C378.921 181.744 384.045 181.352 387.573 183.48C391.913 186.084 392.613 191.236 390.177 195.24C388.861 197.396 386.117 199.132 383.345 199.86C380.881 200.504 380.013 197.676 382.421 197.116C384.549 196.64 386.705 195.436 387.629 193.98C389.617 190.844 388.861 187.176 386.089 185.412C384.997 184.712 383.821 184.376 382.617 184.292ZM380.405 184.432C379.117 184.712 377.857 185.3 376.793 186.112C374.189 188.128 372.789 191.852 373.965 194.008C374.385 194.82 375.113 195.24 375.813 194.624C377.913 192.776 379.873 188.324 380.153 185.3C380.181 184.964 380.265 184.656 380.405 184.432ZM412.521 189.892C411.821 189.892 411.121 189.864 410.421 189.836C410.421 189.836 410.421 189.836 410.421 197.48C411.513 197.088 412.465 196.668 413.249 196.276C413.473 196.164 413.697 196.108 413.893 196.108C414.537 196.108 415.013 196.612 415.013 197.172C415.013 197.564 414.761 198.04 414.117 198.348C410.645 200.14 405.885 201.568 405.157 201.568C404.317 201.568 403.841 200.98 403.841 200.364C403.841 199.804 404.205 199.244 404.989 199.076C405.941 198.852 406.921 198.6 407.873 198.32C407.873 194.008 407.901 184.768 407.985 180.708C408.013 179.42 408.881 178.104 410.757 178.02C411.653 177.964 412.605 177.964 413.585 177.964C414.537 177.964 415.545 177.964 416.469 178.02C418.065 178.104 419.325 179.056 419.381 180.624C419.437 182.108 419.493 183.76 419.493 185.356C419.493 185.944 419.493 186.56 419.465 187.12C419.437 188.576 418.121 189.752 416.497 189.836C415.993 189.864 415.489 189.892 414.929 189.892C415.153 190.928 415.433 191.852 415.853 192.776C416.917 192.132 417.953 191.348 418.989 190.48C419.213 190.284 419.465 190.2 419.717 190.2C420.389 190.2 421.061 190.872 421.061 191.572C421.061 192.076 420.753 192.888 416.861 194.624C417.925 196.248 419.409 197.648 421.397 198.936C421.901 199.244 422.125 199.692 422.125 200.112C422.125 200.84 421.509 201.512 420.641 201.512C418.793 201.512 413.837 196.5 412.521 189.892ZM400.817 200.812C400.817 201.624 400.145 202.044 399.501 202.044C398.801 202.044 398.129 201.624 398.129 200.812C398.129 195.716 398.241 185.468 398.269 180.596C398.269 177.936 399.781 177.936 402.413 177.936C402.973 177.936 403.561 177.936 404.037 177.964C405.633 178.02 406.445 178.888 406.445 180.092C406.445 181.016 405.885 182.248 404.877 184.348C404.709 184.712 404.625 185.048 404.625 185.328C404.625 185.804 404.821 186.196 405.157 186.616C406.053 187.848 406.557 189.024 406.557 190.872C406.557 193.224 405.045 195.156 402.973 195.156C401.377 195.156 401.013 194.344 401.013 193.756C401.013 193.168 401.377 192.608 401.937 192.608C402.049 192.608 402.133 192.636 402.245 192.664C402.385 192.692 402.497 192.72 402.637 192.72C403.281 192.72 404.009 192.16 404.009 190.676C404.009 189.388 403.673 188.352 402.917 187.344C402.385 186.644 402.189 185.972 402.189 185.3C402.189 184.656 402.357 184.04 402.637 183.424C403.001 182.612 403.673 180.96 403.673 180.484C403.673 180.036 403.281 179.952 402.553 179.952C401.629 179.952 400.873 179.952 400.873 180.932C400.845 183.536 400.817 186.868 400.817 190.368C400.817 199.076 400.817 199.552 400.817 200.812ZM410.393 182.752H416.945C416.917 182.248 416.917 181.772 416.889 181.324C416.805 180.204 416.217 180.176 414.005 180.176C413.193 180.176 412.353 180.176 411.681 180.204C410.813 180.232 410.421 180.792 410.421 181.352C410.421 181.828 410.393 182.276 410.393 182.752ZM417.001 184.936H410.421C410.421 185.86 410.449 186.728 410.449 187.596C411.261 187.624 412.241 187.652 413.193 187.652C414.145 187.652 415.069 187.624 415.769 187.596C416.945 187.54 417.001 186.504 417.001 184.936ZM438.925 200.616V192.636C438.925 191.824 439.597 191.404 440.269 191.404C440.353 191.404 440.437 191.432 440.521 191.432C439.429 190.536 438.337 189.528 437.329 188.464C436.321 189.584 435.313 190.564 434.221 191.46C434.809 191.516 435.397 191.936 435.397 192.72C435.397 195.996 434.025 200.84 426.857 202.044C426.745 202.072 426.661 202.072 426.549 202.072C425.681 202.072 425.261 201.372 425.261 200.728C425.261 200.168 425.569 199.636 426.157 199.552C431.057 198.88 432.541 196.164 432.653 192.748L432.681 192.664C431.001 193.868 427.165 196.248 426.157 196.248C425.345 196.248 424.813 195.604 424.813 194.96C424.813 194.512 425.065 194.036 425.681 193.784C429.069 192.328 431.645 190.816 434.249 188.436C433.465 188.464 432.681 188.464 432.065 188.464C430.945 188.464 428.313 188.436 428.229 185.86C428.201 184.992 428.173 184.012 428.173 183.032C428.173 182.08 428.201 181.156 428.229 180.4C428.285 179.196 429.069 177.936 431.253 177.88C432.429 177.852 434.333 177.824 436.405 177.824C438.897 177.824 441.585 177.852 443.377 177.88C445.029 177.908 446.177 179.056 446.261 180.204C446.317 180.876 446.345 181.8 446.345 182.752C446.345 183.844 446.317 184.992 446.261 185.832C446.205 187.232 445.029 188.408 443.209 188.464C442.985 188.464 442.733 188.464 442.453 188.464C441.809 188.464 441.081 188.464 440.353 188.436C443.069 190.704 445.869 192.02 448.949 193.336C449.537 193.588 449.789 194.036 449.789 194.512C449.789 195.24 449.145 196.024 448.221 196.024C447.297 196.024 444.161 194.232 441.529 192.244C441.557 192.356 441.613 192.496 441.613 192.636V200.616C441.613 201.456 440.941 201.848 440.269 201.848C439.597 201.848 438.925 201.456 438.925 200.616ZM438.449 182.08H443.741C443.741 181.688 443.713 181.352 443.713 181.044C443.685 180.344 443.293 179.952 442.341 179.924C441.417 179.896 439.989 179.868 438.449 179.868V182.08ZM443.741 184.096H438.449V186.42C439.877 186.42 441.277 186.392 442.369 186.364C443.741 186.364 443.741 185.384 443.741 184.096ZM435.957 182.08V179.868C434.417 179.868 433.017 179.896 432.065 179.924C430.693 179.98 430.637 180.932 430.637 182.08H435.957ZM435.957 186.42V184.096H430.637C430.637 185.552 430.749 186.308 432.093 186.364C433.129 186.392 434.501 186.42 435.957 186.42ZM477.173 181.884C476.781 181.492 475.353 180.652 474.765 180.456C473.309 179.98 474.205 178.188 475.549 178.552C476.305 178.748 477.817 179.42 478.489 180.008C479.665 181.072 478.181 182.892 477.173 181.884ZM474.737 184.488C474.345 184.068 472.917 183.144 472.357 182.948C470.901 182.416 471.909 180.68 473.225 181.1C473.981 181.324 475.437 182.052 476.081 182.668C477.229 183.76 475.717 185.524 474.737 184.488ZM477.481 190.228C478.181 192.076 475.661 193.308 474.905 191.572C474.233 190.032 472.973 187.904 470.901 186.756C469.529 186 470.761 183.9 472.497 184.908C474.737 186.224 476.725 188.212 477.481 190.228ZM463.677 185.356L464.601 185.272C466.953 185.076 468.745 186.448 468.857 189.584C468.913 191.544 468.633 194.064 467.905 195.828C466.757 198.6 464.013 199.972 461.325 199.188C459.113 198.544 460.009 195.968 461.717 196.388C463.313 196.78 464.489 196.528 465.273 194.876C465.917 193.504 466.169 191.516 466.169 190.032C466.169 188.324 465.581 187.512 464.293 187.624C463.873 187.652 463.453 187.708 463.005 187.764C461.633 192.104 459.757 195.912 457.573 199.02C456.229 200.924 453.317 199.3 455.137 197.256C457.069 195.1 458.805 191.908 460.093 188.156L459.757 188.212C458.553 188.436 457.461 188.604 456.733 188.604C454.829 188.604 454.857 186.084 456.649 185.916C457.517 185.832 458.385 185.86 459.393 185.776L460.793 185.636C461.129 184.404 461.493 182.752 461.661 181.184C461.857 179.364 464.713 179.532 464.489 181.408C464.377 182.36 464.013 184.04 463.677 185.356ZM490.613 197.508L490.529 197.34C489.493 198.096 488.457 198.74 487.477 199.244C485.741 200.14 483.081 199.692 483.389 195.94C483.613 193.196 485.853 190.144 488.401 188.52C488.765 188.296 489.157 188.072 489.577 187.848C489.661 186.784 489.773 185.664 489.913 184.516C488.569 184.6 487.365 184.516 486.413 184.236C484.761 183.76 485.321 181.184 487.197 181.772C487.981 182.024 489.045 182.08 490.221 181.996C490.333 181.184 490.473 180.344 490.585 179.504C490.893 177.432 493.609 177.88 493.301 179.56C493.189 180.26 493.049 180.96 492.937 181.604C494.225 181.324 495.513 180.96 496.717 180.512C498.341 179.896 499.573 182.276 497.361 183.004C495.821 183.508 494.141 183.956 492.517 184.236C492.377 185.132 492.265 185.944 492.153 186.728C493.133 186.392 494.141 186.168 495.093 186.112C495.205 186.112 495.317 186.112 495.429 186.112V186.056C495.625 184.404 498.201 184.936 498.089 186.28C506.265 187.764 505.845 198.068 496.297 201.204C493.777 202.044 493.077 199.44 495.373 198.684C502.345 196.416 502.625 189.808 497.557 188.548C496.633 191.18 494.813 193.56 492.713 195.52C492.797 195.716 492.909 195.912 493.021 196.08C494.001 197.704 491.677 199.496 490.613 197.508ZM494.869 188.38H494.785C493.973 188.464 492.909 188.744 491.901 189.136C491.789 190.564 491.817 191.824 491.957 192.944C493.217 191.628 494.253 190.088 494.869 188.38ZM489.745 194.932C489.493 193.616 489.409 192.104 489.437 190.452C487.225 192.076 485.965 194.064 485.853 195.716C485.769 196.836 486.525 196.948 487.253 196.556C488.093 196.08 488.933 195.548 489.745 194.932ZM523.793 197.928C524.325 197.816 524.913 197.48 525.417 197.032C527.461 195.212 527.377 192.552 525.781 191.488C524.325 190.508 521.301 190.312 518.473 191.964C517.353 192.608 516.765 193.112 516.121 194.064C515.113 195.548 512.313 193.896 514.049 192.188C517.129 189.136 519.397 186.98 522.505 183.144C522.813 182.752 522.533 182.864 522.309 182.976C521.525 183.396 519.677 183.956 517.605 184.404C515.393 184.88 514.973 182.108 516.877 181.884C518.753 181.66 521.441 180.988 523.037 180.512C525.277 179.868 527.125 181.856 525.725 183.424C524.829 184.432 523.709 185.524 522.589 186.56C521.469 187.596 520.349 188.604 519.341 189.584C521.805 188.268 525.137 188.268 527.209 189.5C531.241 191.908 529.925 196.836 526.985 198.964C524.213 200.952 519.845 201.064 517.717 199.664C514.749 197.732 516.065 194.26 519.369 194.148C521.609 194.064 523.709 195.408 523.793 197.928ZM521.413 198.348C521.441 197.06 520.685 196.08 519.453 196.192C518.221 196.304 518.165 197.452 519.061 197.928C519.705 198.264 520.629 198.376 521.413 198.348ZM561.075 190.228C561.775 192.076 559.255 193.308 558.499 191.572C557.827 190.032 556.567 187.904 554.495 186.756C553.123 186 554.355 183.9 556.091 184.908C558.331 186.224 560.319 188.212 561.075 190.228ZM547.271 185.356L548.195 185.272C550.547 185.076 552.339 186.448 552.451 189.584C552.507 191.544 552.227 194.064 551.499 195.828C550.351 198.6 547.607 199.972 544.919 199.188C542.707 198.544 543.603 195.968 545.311 196.388C546.907 196.78 548.083 196.528 548.867 194.876C549.511 193.504 549.763 191.516 549.763 190.032C549.763 188.324 549.175 187.512 547.887 187.624C547.467 187.652 547.047 187.708 546.599 187.764C545.227 192.104 543.351 195.912 541.167 199.02C539.823 200.924 536.911 199.3 538.731 197.256C540.663 195.1 542.399 191.908 543.687 188.156L543.351 188.212C542.147 188.436 541.055 188.604 540.327 188.604C538.423 188.604 538.451 186.084 540.243 185.916C541.111 185.832 541.979 185.86 542.987 185.776L544.387 185.636C544.723 184.404 545.087 182.752 545.255 181.184C545.451 179.364 548.307 179.532 548.083 181.408C547.971 182.36 547.607 184.04 547.271 185.356ZM577.427 183.452C577.063 183.508 576.671 183.592 576.223 183.704C574.879 184.04 573.871 182.248 575.047 181.604C575.187 181.52 575.467 181.38 575.271 181.24C574.683 180.876 573.731 180.428 573.283 179.924C572.079 178.608 573.927 177.124 575.327 178.132C575.831 178.496 576.783 178.916 577.595 179.448C578.407 179.98 579.135 180.652 579.191 181.492C579.247 182.304 578.827 183.228 577.427 183.452ZM581.123 199.832C579.947 200.56 578.183 201.204 576.335 201.568C574.067 202.016 573.339 199.244 575.719 198.768C577.175 198.488 578.603 198.068 579.471 197.564C582.551 195.772 583.391 193.84 582.803 192.72C582.215 191.6 580.171 191.18 577.203 192.524C575.551 193.28 573.787 194.596 573.451 194.932C571.799 196.528 570.679 195.744 570.175 194.764C569.671 193.784 569.727 192.048 569.951 190.004C570.175 187.96 570.539 185.804 570.763 184.376C571.043 182.584 573.591 182.64 573.339 184.656C573.199 185.832 572.891 187.4 572.667 188.744C572.443 190.116 572.303 191.152 572.499 191.656C572.583 191.88 572.723 191.88 572.975 191.74C573.535 191.432 574.851 190.704 576.167 190.144C584.623 186.476 590.587 194.036 581.123 199.832ZM598.567 198.88C598.567 200.644 597.139 202.072 595.375 202.072C593.611 202.072 592.183 200.644 592.183 198.88C592.183 197.116 593.611 195.688 595.375 195.688C597.139 195.688 598.567 197.116 598.567 198.88ZM597.503 198.88C597.503 197.704 596.551 196.78 595.375 196.78C594.199 196.78 593.247 197.704 593.247 198.88C593.247 200.056 594.199 201.008 595.375 201.008C596.551 201.008 597.503 200.056 597.503 198.88Z" fill="black"/>
<path d="M37.3914 97.36H7.03141C5.55141 97.36 4.79141 96.28 4.79141 95.2C4.79141 94.12 5.55141 93.04 7.03141 93.04H37.3914C38.8314 93.04 39.5114 94.12 39.5114 95.16C39.5114 96.28 38.7914 97.36 37.3914 97.36ZM63.9114 86.08V86.24C63.9514 86.32 63.9514 86.44 63.9514 86.56C64.7114 96.36 71.9114 104.88 78.5914 107.36C79.7114 107.76 80.1514 108.52 80.1514 109.32C80.1514 110.52 79.1114 111.76 77.5114 111.76C74.1114 111.76 65.6714 104.48 62.1914 95.36C59.9514 102.28 55.4314 108.44 47.7914 112C47.3914 112.2 46.9914 112.28 46.6314 112.28C45.3114 112.28 44.3114 111.2 44.3114 110.08C44.3114 109.32 44.7514 108.6 45.7914 108.12C59.4314 102.04 59.7914 88 59.7914 85C59.7914 83.8 59.7114 82.44 59.6314 81.24C59.6314 81.2 59.6314 81.16 59.6314 81.12C59.6314 79.8 60.7514 79.12 61.8714 79.12C62.9514 79.12 64.0714 79.8 64.0714 81.24C64.0714 82.64 64.0314 84.36 63.9114 86.08ZM118.311 93.2C117.751 92.56 115.671 91.16 114.831 90.84C112.671 90 114.231 87.44 116.191 88.08C117.311 88.44 119.471 89.52 120.431 90.48C122.111 92.16 119.751 94.8 118.311 93.2ZM114.191 96.84C113.631 96.2 111.631 94.68 110.791 94.32C108.671 93.4 110.271 90.92 112.231 91.64C113.351 92.04 115.511 93.16 116.431 94.16C118.071 95.92 115.591 98.48 114.191 96.84ZM110.351 110.84C98.2714 110.8 94.1114 99.72 98.4714 91.68C98.8714 90.92 99.2314 90.28 99.7514 89.6C100.391 88.76 100.191 88.8 99.4314 89.04C96.4314 90 97.1114 90 94.3914 91.04C93.1114 91.52 91.9914 91.92 90.7914 92.24C87.2714 93.2 86.1914 88.6 89.3914 87.92C90.2314 87.72 92.5514 87.28 93.8314 86.96C95.7914 86.48 99.3114 85.68 103.391 84.52C107.511 83.36 110.751 82.4 114.271 82.16C116.751 82 117.431 83.96 116.991 85.24C116.751 85.92 115.871 86.72 113.071 86.56C111.031 86.44 108.511 87.2 107.151 87.68C104.911 88.48 102.871 90.88 101.991 92.36C98.4714 98.24 101.151 106.64 110.111 106.32C114.311 106.16 114.591 110.88 110.351 110.84ZM130.111 107.32V99.32C126.911 100.52 126.631 100.56 126.271 100.56C124.991 100.56 124.271 99.6 124.271 98.64C124.271 97.92 124.671 97.2 125.631 96.92C127.231 96.44 128.711 95.96 130.111 95.44V88.68H126.511C125.311 88.68 124.711 87.8 124.711 86.92C124.711 86.04 125.311 85.16 126.511 85.16H130.111L130.071 79.12C130.071 77.88 131.031 77.24 131.991 77.24C132.951 77.24 133.871 77.84 133.871 79.12V85.16H135.911C137.071 85.16 137.711 86.08 137.711 86.96C137.711 87.12 137.671 87.28 137.631 87.44C139.831 84.88 141.311 81.64 142.311 78.76C142.591 78 143.231 77.68 143.911 77.68C144.951 77.68 146.071 78.4 146.071 79.44C146.071 79.72 145.711 80.8 144.951 82.4C147.631 82.36 151.551 82.32 153.671 82.32C156.231 82.36 157.871 83.92 157.991 86.2C158.031 87.12 158.071 88.12 158.071 89.16C158.071 100.44 156.271 104.08 151.591 104.08C150.351 104.08 147.631 104.08 147.631 101.88C147.631 100.96 148.271 100.08 149.471 100.08C149.671 100.08 149.871 100.12 150.071 100.16C150.591 100.28 151.071 100.32 151.431 100.32C152.791 100.32 153.311 99.52 153.751 97.2C154.191 94.92 154.391 92 154.391 89.44C154.391 86.08 154.351 85.56 153.071 85.56C152.391 85.56 151.511 85.56 150.511 85.56C148.151 85.56 145.231 85.56 143.231 85.6C142.751 86.4 142.271 87.2 141.711 87.96C143.151 87.96 146.031 88 147.271 88C150.031 88.04 150.711 89.04 150.711 93.4C150.711 97.32 150.431 98.68 146.631 98.68C146.031 98.68 145.391 98.68 144.791 98.68C142.551 98.68 142.551 99 142.551 103.4C142.551 104.52 142.591 105.64 142.631 106.72C142.711 108.52 144.151 108.56 147.711 108.56C149.871 108.56 152.271 108.52 153.151 108.36C155.231 108.04 155.831 106.4 155.831 104.56C155.831 103.28 156.751 102.72 157.671 102.72C158.711 102.72 159.751 103.4 159.751 104.6C159.751 112 154.511 112.04 148.351 112.04C142.471 112.04 139.031 111.88 138.951 107.4C138.951 106.24 138.911 105 138.911 103.76C138.911 102.2 138.951 100.64 139.031 99.24C139.151 97.04 140.271 95.72 142.991 95.64C142.991 95.64 142.991 95.64 146.111 95.64C146.791 95.64 147.311 95.48 147.311 93.68C147.311 91.12 147.271 91.12 144.871 91.12C143.751 91.12 142.391 91.12 141.551 91.16C141.511 91.16 141.471 91.16 141.471 91.16C140.671 91.16 140.191 90.68 139.991 90.16C139.391 90.84 138.831 91.52 137.911 91.52C136.911 91.52 135.991 90.72 135.991 89.8C135.991 89.4 136.151 89 136.511 88.6C136.351 88.64 136.111 88.68 135.911 88.68H133.871V93.96C134.631 93.64 135.351 93.24 136.071 92.88C136.311 92.76 136.591 92.68 136.831 92.68C137.711 92.68 138.391 93.48 138.391 94.36C138.391 95.48 138.031 95.68 133.831 97.72V102.12C133.831 102.76 133.951 106.4 133.991 107.8C133.991 107.84 133.991 107.92 133.991 107.96C133.991 110.48 132.551 112.44 129.151 112.44C127.231 112.44 125.551 112.12 125.551 110.28C125.551 109.36 126.111 108.44 127.111 108.44C127.231 108.44 127.351 108.44 127.471 108.48C127.831 108.56 128.271 108.64 128.671 108.64C129.431 108.64 130.111 108.36 130.111 107.32ZM184.951 85.48C182.591 84.64 179.831 82.88 178.991 82.2C176.951 80.56 179.351 77.96 181.711 79.44C183.071 80.28 184.711 81.16 186.711 81.84C189.631 82.84 187.711 86.44 184.951 85.48ZM178.751 102.68C180.271 102.12 182.591 102.2 183.751 104.72C184.431 106.2 185.391 107.44 187.311 107.36C189.071 107.28 191.831 106.88 193.631 106.08C196.671 104.72 198.111 108.84 194.911 110.04C192.511 110.92 188.711 111.4 185.831 111C183.191 110.6 181.551 109.32 180.591 106.88C179.711 104.72 176.751 104.4 174.151 108.56C172.751 110.8 171.591 111 170.791 111.04C169.471 111.12 167.671 109.8 169.431 107.8C170.751 106.28 172.831 104 174.231 102.76C175.631 101.52 176.751 100.28 178.031 99.04C179.871 97.24 182.471 94.56 184.471 92.24C184.911 91.72 184.631 91.8 184.271 91.96C181.311 93.4 178.511 94.56 176.031 95.12C172.631 95.88 172.071 91.72 174.831 91.32C176.631 91.04 179.751 90.24 181.871 89.44C182.911 89.04 183.871 88.56 184.991 88.4C188.311 87.96 190.751 90.96 188.671 93.12C186.791 95.12 180.751 100.68 178.751 102.68ZM224.351 82.64L219.671 82.88C219.631 82.88 219.591 82.88 219.551 82.88C218.431 82.88 217.831 82 217.831 81.16C217.831 80.28 218.431 79.4 219.591 79.4C221.111 79.36 222.991 79.32 224.711 79.32C226.671 79.32 228.351 80.32 228.431 82.2C228.671 88.68 232.191 97.64 238.351 101.36C239.031 101.76 239.311 102.36 239.311 102.92C239.311 104.08 238.271 105.2 237.071 105.2C235.151 105.2 230.031 100.32 227.071 91.6C225.591 96.92 222.991 101.72 218.551 104.92C218.191 105.2 217.791 105.28 217.431 105.28C216.311 105.28 215.311 104.28 215.311 103.24C215.311 102.76 215.551 102.24 216.151 101.84C222.111 97.92 224.631 90.64 225.151 83.72C225.111 83.48 225.071 83.28 225.071 83.04C225.071 82.88 224.911 82.64 224.431 82.64C224.431 82.64 224.391 82.64 224.351 82.64ZM213.031 87.12C212.511 87.12 211.991 86.84 211.591 86.28C210.431 84.6 208.631 83.32 207.471 82.68C206.871 82.36 206.631 81.88 206.631 81.44C206.631 80.48 207.631 79.52 208.751 79.52C209.791 79.52 215.151 82.56 215.151 84.88C215.151 86.08 214.111 87.12 213.031 87.12ZM212.791 107.6C209.671 110.8 207.591 112.32 206.511 112.32C205.231 112.32 204.271 111.04 204.271 110.12C204.271 109.56 204.551 109 205.271 108.6C207.431 107.4 209.471 105.92 210.871 104.48C210.911 102.68 210.951 101.12 210.951 99.6C210.951 99.04 210.951 98.52 210.951 97.96C210.951 97 210.551 96.88 209.111 96.88C208.511 96.88 207.911 96.88 207.351 96.88C206.511 96.88 205.071 96.84 205.071 95.2C205.071 94.24 205.711 93.28 206.831 93.28C208.271 93.28 209.591 93.28 210.911 93.32C213.511 93.4 214.711 94.52 214.711 97.08C214.711 99.4 214.631 102.16 214.631 104.72C217.191 107.88 221.071 108.76 226.671 108.76C230.591 108.76 234.791 108.32 237.911 108.08C237.991 108.08 238.031 108.08 238.111 108.08C239.351 108.08 240.071 109.04 240.071 110C240.071 110.92 239.431 111.88 238.031 112C235.551 112.24 231.911 112.48 228.311 112.48C217.711 112.48 215.391 110.28 212.791 107.6ZM276.991 93.56C276.151 94.08 274.951 94.08 274.231 92.96C273.391 91.68 271.671 90.12 269.631 90.04C267.191 89.96 267.351 86.28 270.231 86.48C273.071 86.68 276.471 88.56 277.711 90.8C278.351 92 277.831 93.04 276.991 93.56ZM253.031 102.64C251.751 102.52 250.511 101.8 249.831 100.64C247.031 95.96 250.471 91.68 254.391 92.12C254.631 92.16 254.831 92.2 255.071 92.24C255.111 91.28 255.191 90.28 255.271 89.32C252.911 89.6 251.471 89.2 250.791 88.92C248.631 88.08 249.791 84.56 252.191 85.52C253.111 85.88 254.231 85.96 255.511 85.76C255.551 84.04 255.271 82.92 255.191 82.04C254.871 78.96 259.311 79.16 259.431 81.84C259.471 82.48 259.471 83.52 259.391 84.52C259.791 84.32 260.191 84.12 260.511 83.88C262.551 82.52 264.671 85.72 262.031 87.24C261.231 87.68 260.071 88.12 258.951 88.48C258.871 89.76 258.831 91.04 258.751 92.52C258.711 93.08 258.671 93.92 258.631 94.76C259.151 95.72 259.271 96.96 258.751 98.44C258.311 99.68 257.351 101.4 256.711 102.88C255.951 104.68 255.711 106.44 257.191 107.36C258.871 108.4 263.231 108.36 266.071 107.4C269.111 106.36 269.631 104 268.751 100.2C268.151 97.6 272.151 96.68 272.791 99.8C273.991 105.44 272.711 109.24 267.191 111.08C263.791 112.2 258.111 112.24 255.111 110.44C252.591 108.92 251.831 106.28 253.031 102.64ZM255.271 97.24V97.2C255.311 96.76 255.271 96.36 255.151 96.04L255.111 96C254.911 95.56 254.591 95.28 254.031 95.2C252.231 94.96 251.391 96.8 251.951 98.28C252.311 99.2 254.031 100.52 255.071 97.92C255.151 97.68 255.231 97.44 255.271 97.24ZM304.111 87.56C304.551 87.96 304.791 88.6 304.671 89.4C304.031 94.48 300.431 102.04 296.591 105.6C293.511 108.44 290.151 106.88 288.391 103.44C285.871 98.48 288.551 91.04 293.911 87.32C298.831 83.92 306.151 83.36 311.191 86.4C317.391 90.12 318.391 97.48 314.911 103.2C313.031 106.28 309.111 108.76 305.151 109.8C301.631 110.72 300.391 106.68 303.831 105.88C306.871 105.2 309.951 103.48 311.271 101.4C314.111 96.92 313.031 91.68 309.071 89.16C307.511 88.16 305.831 87.68 304.111 87.56ZM300.951 87.76C299.111 88.16 297.311 89 295.791 90.16C292.071 93.04 290.071 98.36 291.751 101.44C292.351 102.6 293.391 103.2 294.391 102.32C297.391 99.68 300.191 93.32 300.591 89C300.631 88.52 300.751 88.08 300.951 87.76ZM352.551 106.8C351.031 109.96 346.151 112.64 341.791 110.16C338.311 108.16 338.231 103.6 342.391 101.76C344.551 100.8 346.991 100.76 349.431 101.28C349.431 100.64 349.351 100.04 349.311 99.28C349.191 97.64 349.111 94.56 348.991 91.4C346.831 91.72 344.711 91.88 342.431 91.68C339.671 91.44 340.151 87.36 343.231 87.88C344.991 88.2 346.911 88.08 348.871 87.76C348.831 85.52 348.791 83.48 348.831 82.24C348.911 79.64 352.831 80 352.671 82.16C352.591 83.28 352.551 84.96 352.551 86.92C353.231 86.72 353.951 86.56 354.591 86.36C357.191 85.56 358.911 89.2 355.471 90.04C354.511 90.28 353.551 90.52 352.591 90.72C352.631 93.84 352.751 96.96 352.831 98.92C352.871 99.92 353.031 101.24 353.071 102.52C354.751 103.32 356.351 104.32 357.591 105.44C359.871 107.52 357.031 111 355.031 108.88C354.311 108.16 353.471 107.44 352.551 106.8ZM332.871 110.68C331.831 111.64 330.031 111.48 329.351 109.32C328.071 105.28 328.191 100.12 328.711 95.28C329.231 90.44 330.111 85.96 330.311 83.36C330.551 80.12 334.751 80.92 334.351 83.44C334.071 85.24 333.391 88.72 332.871 92.12C332.351 95.52 331.951 98.88 332.111 100.48C332.191 101.2 332.231 101.32 332.631 100.52C332.751 100.28 333.031 99.56 333.111 99.36C334.031 97.44 337.071 98.8 335.631 101.8C335.111 102.88 334.711 103.96 334.391 104.96C334.071 105.96 333.831 106.84 333.671 107.48C333.351 108.6 333.871 109.72 332.871 110.68ZM349.111 104.92H349.071C347.071 104.16 345.071 103.96 343.551 104.68C342.591 105.12 342.351 106.48 343.311 107.04C345.231 108.12 348.471 107.28 349.111 104.92ZM380.271 100.96C380.191 102.12 380.191 103.2 380.231 104.2C380.471 109.92 386.711 109.68 388.791 105.24C390.191 102.24 389.071 99.6 386.831 97.16C384.751 94.88 388.191 92.76 389.951 94.8C393.071 98.4 394.191 102.2 392.671 106.24C389.791 113.84 377.031 115.16 376.711 104.48C376.671 103.36 376.671 102.16 376.751 100.92C375.311 100.8 374.191 100.56 373.671 100.44C370.431 99.56 371.671 95.76 373.951 96.52C374.871 96.8 375.911 97.04 377.031 97.12C377.191 95.36 377.391 93.6 377.591 91.8C376.071 91.6 374.791 91.32 374.271 91.12C371.231 90.08 372.991 86.4 375.111 87.28C375.991 87.64 376.991 87.92 377.991 88.04C378.031 87.56 378.111 87.04 378.151 86.56C378.391 84.04 378.471 82.52 378.591 80.64C378.791 77.84 382.591 78.48 382.591 80.84C382.591 82.72 382.191 84.24 381.911 86.6C381.871 87.08 381.791 87.56 381.751 88.04C382.111 88 382.431 87.92 382.751 87.84C385.351 87.24 386.031 90.8 383.671 91.48C382.871 91.72 382.071 91.8 381.231 91.88C380.991 93.68 380.791 95.4 380.631 97.08C381.311 97 381.951 96.88 382.551 96.72C385.191 96 386.191 99.52 383.831 100.32C382.751 100.68 381.511 100.88 380.271 100.96ZM422.849 83.76C420.009 83.24 417.129 82.04 415.449 81.08C413.169 79.8 414.849 76.68 417.649 77.96C419.369 78.72 421.649 79.36 423.849 79.72C427.129 80.28 425.809 84.32 422.849 83.76ZM419.209 112.68C416.569 114.64 413.929 111.36 416.289 109.68C423.449 104.64 425.649 97.56 424.009 92.92C422.889 89.8 419.889 89.64 417.129 91.28C416.329 91.76 414.129 92.88 413.249 93.12C410.089 93.92 409.089 90 412.009 88.96C413.049 88.6 414.329 88.16 415.449 87.68C419.529 85.88 425.409 86.04 427.529 90.64C430.609 97.32 427.209 106.8 419.209 112.68ZM462.689 84.08C463.409 86.52 459.569 87.88 458.849 85.32C458.689 84.68 458.329 84.16 457.969 83.72C457.649 83.32 457.329 82.96 456.969 82.6C455.649 81.24 458.329 79.16 460.329 80.8C461.009 81.36 462.249 82.6 462.689 84.08ZM456.609 93.48C457.609 95.28 458.729 97.28 459.809 99.24C461.849 102.96 463.769 106.64 464.529 108.96C465.129 110.76 464.369 112.04 463.329 112.4C462.289 112.76 460.929 112.2 460.489 110.44C459.889 108.04 458.169 104.4 456.249 100.76C455.289 98.92 454.289 97.08 453.369 95.4C451.529 96.44 449.649 97.32 447.689 97.92C445.169 98.68 443.489 94.96 446.729 94C448.369 93.52 449.929 92.84 451.529 92.04C451.329 91.64 451.169 91.28 450.969 90.92C450.609 90.24 450.249 89.48 449.889 88.72C449.529 87.96 449.249 87.24 449.049 86.52C448.449 84.16 451.769 82.84 452.809 85.4C453.329 86.72 453.729 88.04 454.369 89.32C454.529 89.6 454.689 89.92 454.849 90.24C457.489 88.76 460.089 87.16 462.809 86.12C466.769 84.6 470.729 84.08 473.809 86C477.209 88.16 477.329 92.04 475.089 95.24C471.889 99.76 464.809 100.6 460.529 98.08C459.449 97.44 459.409 96.16 459.969 95.28C460.529 94.4 461.689 93.92 462.929 94.76C465.289 96.4 469.729 95.84 471.689 93.16C472.729 91.76 472.689 90.08 471.289 89.04C469.809 87.96 467.249 88.2 463.929 89.52C461.329 90.56 458.969 92.04 456.609 93.48ZM498.609 101.96C498.089 102.64 497.569 103.24 497.049 103.8C492.329 108.88 488.129 107.12 487.049 102.08C486.209 98.24 488.129 93.84 491.449 90.68C491.169 89.84 490.889 88.96 490.689 88.08C490.489 87.28 490.089 85.44 489.929 84.6C489.249 81.28 493.769 81.32 493.929 84.16C494.009 85.36 494.089 86.04 494.329 87.48C494.369 87.76 494.449 88.08 494.529 88.36C494.809 88.2 495.049 88.04 495.329 87.92C497.369 86.88 499.769 86.32 502.169 86.24C502.489 84.64 502.689 83 502.689 81.92C502.649 79.12 506.809 79.44 506.649 82.36C506.569 83.76 506.409 85.08 506.089 86.6C509.809 87.44 513.009 89.76 514.129 93.84C516.209 101.24 511.289 106.76 504.369 109.24C501.329 110.36 499.369 106.56 502.849 105.52C509.809 103.4 511.369 98.8 510.409 95C509.649 91.96 507.649 90.32 505.249 89.64C505.129 90 505.009 90.4 504.849 90.8C503.929 93.28 502.449 96.24 500.769 98.88C500.929 99 501.089 99.16 501.289 99.28C502.209 99.92 502.089 101.08 501.569 101.76C501.049 102.44 500.009 102.84 498.929 102.16C498.809 102.08 498.729 102.04 498.609 101.96ZM501.409 89.32C499.689 89.48 497.969 90 496.569 90.76C496.169 90.96 495.769 91.2 495.409 91.48C496.089 93.28 496.969 94.92 498.129 96.36C499.449 94.2 500.609 91.88 501.249 89.88C501.289 89.72 501.369 89.52 501.409 89.32ZM495.969 99.56C494.649 98 493.569 96.08 492.689 94.04C491.009 96.16 490.049 98.64 490.449 100.76C491.049 103.88 492.929 103 494.049 101.84C494.649 101.24 495.289 100.44 495.969 99.56ZM542.369 106.72C540.929 110.2 535.769 112.96 530.729 110.28C526.889 108.2 526.809 103.72 531.409 102C533.529 101.2 536.449 101.16 539.369 101.68C539.409 100.8 539.369 99.92 539.329 99.2C538.849 91.2 538.409 87.4 538.449 81.68C538.449 78.84 542.849 79.04 542.689 81.68C542.569 83.64 542.529 85.48 542.569 87.44C543.089 87.44 543.649 87.4 544.049 87.36C545.249 87.2 546.369 86.8 547.009 86.44C549.529 85 552.129 88.48 549.409 90C548.649 90.4 547.769 90.68 546.889 90.84C546.009 91 545.129 91.08 544.449 91.16C543.889 91.24 543.289 91.24 542.689 91.2C542.769 93.44 542.889 95.92 542.969 98.84C543.009 99.8 543.009 101.24 542.969 102.64C545.049 103.36 546.969 104.4 548.409 105.64C551.249 108.08 548.369 112.16 545.609 109.24C544.689 108.28 543.569 107.44 542.369 106.72ZM538.849 105.16C536.569 104.48 534.289 104.36 532.529 105C531.449 105.4 531.409 106.64 532.489 107.2C534.649 108.36 538.009 107.68 538.849 105.16ZM582.849 83.76C580.009 83.24 577.129 82.04 575.449 81.08C573.169 79.8 574.849 76.68 577.649 77.96C579.369 78.72 581.649 79.36 583.849 79.72C587.129 80.28 585.809 84.32 582.849 83.76ZM579.209 112.68C576.569 114.64 573.929 111.36 576.289 109.68C583.449 104.64 585.649 97.56 584.009 92.92C582.889 89.8 579.889 89.64 577.129 91.28C576.329 91.76 574.129 92.88 573.249 93.12C570.089 93.92 569.089 90 572.009 88.96C573.049 88.6 574.329 88.16 575.449 87.68C579.529 85.88 585.409 86.04 587.529 90.64C590.609 97.32 587.209 106.8 579.209 112.68ZM618.089 101.32V101.28C618.089 101.04 618.089 100.76 618.089 100.44C618.089 96.56 617.689 87.24 617.449 80.96C617.449 80.92 617.449 80.88 617.449 80.84C617.449 79.36 618.609 78.64 619.769 78.64C620.969 78.64 622.169 79.4 622.169 80.96C622.169 85.68 621.529 96.68 621.529 100.56C621.529 101.52 621.529 103.2 619.769 103.2C618.929 103.2 618.089 102.56 618.089 101.32ZM622.569 108.8C622.569 110.72 620.889 111.44 619.809 111.44C618.289 111.44 617.049 110.16 617.049 108.8C617.049 107.04 618.729 106.04 619.809 106.04C621.369 106.04 622.569 107 622.569 108.8Z" fill="#E89A08"/>
<path d="M2.19141 114H639.809V116H2.19141V114Z" fill="#E89A08"/>
<path d="M319.531 35.3996C319.531 36.4174 320.234 37.3985 321.284 37.3985C322.334 37.3985 323.037 36.4174 323.037 35.3996V8.49892C323.037 7.48114 322.334 6.5 321.284 6.5C320.234 6.5 319.531 7.48114 319.531 8.49892V35.3996Z" fill="#E89A08" stroke="#E89A08"/>
<path d="M302.123 40.8519C302.123 40.8526 302.124 40.8534 302.124 40.8541C302.396 41.568 303.023 42.0437 303.726 42.0437C303.974 42.0437 304.247 41.9877 304.501 41.8376C305.389 41.3428 305.693 40.17 305.328 39.2337C305.328 39.2337 305.328 39.2336 305.328 39.2336L295.833 14.8632C295.833 14.8628 295.833 14.8625 295.833 14.8621C295.455 13.8825 294.409 13.3483 293.462 13.8761C292.569 14.3687 292.263 15.5449 292.629 16.4834C292.629 16.4834 292.629 16.4835 292.629 16.4836L302.123 40.8519Z" fill="#E89A08" stroke="#E89A08"/>
<path d="M288.313 54.6524L288.313 54.6524L288.317 54.6562C288.507 54.843 288.729 54.9831 288.969 55.0654V55.1594H289.469C290.014 55.1594 290.507 54.8709 290.836 54.4109C291.426 53.5877 291.336 52.3657 290.634 51.6589L290.634 51.6585L273.416 34.3646C273.416 34.364 273.415 34.3633 273.414 34.3626C273.049 33.9893 272.571 33.8176 272.093 33.868C271.619 33.9181 271.185 34.1828 270.888 34.6042C270.3 35.4274 270.39 36.6481 271.092 37.3544L271.092 37.3548L288.313 54.6524Z" fill="#E89A08" stroke="#E89A08"/>
<path d="M338.069 41.8388L338.069 41.8388L338.075 41.8425C338.306 41.9668 338.571 42.0421 338.839 42.0421C339.542 42.0421 340.169 41.5664 340.441 40.8524C340.441 40.8517 340.442 40.851 340.442 40.8503L349.936 16.4819C349.936 16.4819 349.936 16.4818 349.936 16.4818C350.304 15.539 349.983 14.366 349.104 13.8751C348.153 13.3439 347.109 13.8955 346.733 14.8595L346.733 14.8596L337.237 39.232C337.237 39.232 337.237 39.2321 337.237 39.2321C336.869 40.1749 337.189 41.3479 338.069 41.8388Z" fill="#E89A08" stroke="#E89A08"/>
<path d="M353.089 55.1474H353.589V55.0563C353.828 54.9765 354.052 54.8377 354.247 54.6387C354.248 54.6381 354.248 54.6374 354.249 54.6367L371.466 37.3429L371.466 37.3425C372.172 36.6325 372.246 35.412 371.671 34.5941C371.06 33.7244 369.903 33.5869 369.146 34.349C369.145 34.3491 369.145 34.3492 369.145 34.3494L351.925 51.6466L351.924 51.6469C351.219 52.3567 351.145 53.5765 351.719 54.3944C352.054 54.8749 352.551 55.1474 353.089 55.1474Z" fill="#E89A08" stroke="#E89A08"/>
</g>
<defs>
<clipPath id="clip0_134_2">
<rect width="750" height="22745" fill="white" transform="translate(-54 -13075)"/>
</clipPath>
</defs>
</svg>
